<svg width="130" height="40" viewBox="0 0 130 40" fill="none" xmlns="http://www.w3.org/2000/svg">
<g clip-path="url(#clip0_1_9911)">
<path d="M99.6479 0.000125932H30.3633C24.9159 0.000125932 15.8604 0.000123969 8.59838 0.000123082C3.84827 0.000122501 0 3.85077 0 8.60088V31.3992C0 36.1494 3.85102 40 8.60121 40C15.7802 40 25.5833 40 30.3633 40H99.6367H121.399C126.149 40 130 36.1493 130 31.3992V8.60088C130 3.85074 126.152 7.23689e-05 121.402 0.000220814C114.193 0.000446096 105.023 0.000689832 99.6479 0.000125932Z" fill="#297EFF"/>
<path d="M96.967 3.55999H33.033L12.996 3.55999C8.57768 3.55999 5 7.14172 5 11.56V20.52C5 24.9382 8.57768 28.52 12.996 28.52H33.033H96.967H117.004C121.422 28.52 125 24.9383 125 20.52V11.56C125 7.1417 121.422 3.55997 117.004 3.55998L96.967 3.55999Z" fill="url(#paint0_linear_1_9911)"/>
<rect x="0.75" y="0.749969" width="128.5" height="38.5" rx="7.25" stroke="#5C2929" stroke-width="1.5"/>
<path d="M118.284 18.4004L9.19307 18.5312H7.15243H6.75003C5.78353 18.5312 5.00004 19.3147 5.0001 20.2812V28.8C5.0001 33.2183 8.57638 36.8 12.9947 36.8C17.273 36.8 23.1192 36.8 30.1662 36.8H99.8519C106.893 36.8 112.732 36.8 117.005 36.8C121.424 36.8 125 33.2183 125 28.8V20.2812C124.998 20.2502 124.996 20.1982 124.995 20.1309C124.979 19.178 124.222 18.4 123.269 18.4L120.961 18.4L118.284 18.4004Z" fill="#2649BE"/>
<path d="M100.413 13.9109C98.8002 15.8173 102.281 17.0243 104.484 14.8033C106.067 13.2076 103.809 9.89589 100.413 13.9109Z" fill="#2F75FF"/>
<path d="M19.7435 13.3441C16.8403 16.6803 23.1057 18.7926 27.0709 14.9058C29.9208 12.1133 25.8568 6.3178 19.7435 13.3441Z" fill="#2F75FF"/>
<path d="M95.4952 25.4497C95.7 26.0882 96.0024 26.7359 96.5977 27.1769C97.4057 27.7825 98.5727 27.8813 99.6547 27.951C100.373 27.9971 101.102 28.0432 101.809 27.926C102.516 27.8088 103.211 27.51 103.597 27.0045C103.983 26.4989 104 25.8539 104 25.2509C104 24.648 104 23.9884 103.717 23.4078C103.375 22.7259 102.661 22.2125 101.872 21.8781C101.083 21.5437 100.212 21.3712 99.3523 21.2001C98.2766 20.9868 96.0354 20.3088 95.3503 21.4213C94.6652 22.5337 95.1346 24.3333 95.4952 25.4497Z" fill="#315FF7"/>
<path d="M60.3852 14.229C60.5444 14.6724 60.7796 15.1222 61.2427 15.4284C61.8711 15.849 62.7788 15.9175 63.6203 15.966C64.1789 15.998 64.7461 16.03 65.2961 15.9486C65.8461 15.8673 66.3863 15.6597 66.6864 15.3087C66.9865 14.9576 67 14.5096 67 14.0909C67 13.6722 67 13.2142 66.7795 12.811C66.5137 12.3374 65.9588 11.9809 65.3451 11.7487C64.7314 11.5165 64.054 11.3967 63.3851 11.2779C62.5485 11.1298 60.8053 10.6589 60.2725 11.4314C59.7396 12.204 60.1047 13.4537 60.3852 14.229Z" fill="#315FF7"/>
<g style="mix-blend-mode:overlay" opacity="0.57">
<path d="M101 30.4C101.552 30.4 102 30.0418 102 29.6C102 29.1582 101.552 28.8 101 28.8C100.448 28.8 100 29.1582 100 29.6C100 30.0418 100.448 30.4 101 30.4Z" fill="#3B3B3B"/>
<path d="M117.5 13.8C117.776 13.8 118 13.6209 118 13.4C118 13.1791 117.776 13 117.5 13C117.224 13 117 13.1791 117 13.4C117 13.6209 117.224 13.8 117.5 13.8Z" fill="#3B3B3B"/>
<path d="M88.5 11.2C88.7761 11.2 89 11.0209 89 10.8C89 10.5791 88.7761 10.4 88.5 10.4C88.2239 10.4 88 10.5791 88 10.8C88 11.0209 88.2239 11.2 88.5 11.2Z" fill="white"/>
<path d="M93.5 6.8C93.7761 6.8 94 6.62091 94 6.4C94 6.17909 93.7761 6 93.5 6C93.2239 6 93 6.17909 93 6.4C93 6.62091 93.2239 6.8 93.5 6.8Z" fill="#3B3B3B"/>
<path d="M78 28.8C78.5523 28.8 79 28.4418 79 28C79 27.5582 78.5523 27.2 78 27.2C77.4477 27.2 77 27.5582 77 28C77 28.4418 77.4477 28.8 78 28.8Z" fill="#3B3B3B"/>
</g>
<g style="mix-blend-mode:overlay" opacity="0.57">
<path d="M110.6 16C110.6 15.4477 110.242 15 109.8 15C109.358 15 109 15.4477 109 16C109 16.5523 109.358 17 109.8 17C110.242 17 110.6 16.5523 110.6 16Z" fill="#3B3B3B"/>
<path d="M113.8 27.5C113.8 27.2239 113.621 27 113.4 27C113.179 27 113 27.2239 113 27.5C113 27.7761 113.179 28 113.4 28C113.621 28 113.8 27.7761 113.8 27.5Z" fill="#3B3B3B"/>
<path d="M99.8 19.5C99.8 19.2239 99.6209 19 99.4 19C99.1791 19 99 19.2239 99 19.5C99 19.7761 99.1791 20 99.4 20C99.6209 20 99.8 19.7761 99.8 19.5Z" fill="white"/>
<path d="M97.8 12.5C97.8 12.2239 97.6209 12 97.4 12C97.1791 12 97 12.2239 97 12.5C97 12.7761 97.1791 13 97.4 13C97.6209 13 97.8 12.7761 97.8 12.5Z" fill="#3B3B3B"/>
<path d="M106.8 8.5C106.8 8.22386 106.621 8 106.4 8C106.179 8 106 8.22386 106 8.5C106 8.77614 106.179 9 106.4 9C106.621 9 106.8 8.77614 106.8 8.5Z" fill="#3B3B3B"/>
<path d="M114.4 9.5C114.4 9.22386 114.221 9 114 9C113.779 9 113.6 9.22386 113.6 9.5C113.6 9.77614 113.779 10 114 10C114.221 10 114.4 9.77614 114.4 9.5Z" fill="white"/>
<path d="M118.6 22C118.6 21.4477 118.242 21 117.8 21C117.358 21 117 21.4477 117 22C117 22.5523 117.358 23 117.8 23C118.242 23 118.6 22.5523 118.6 22Z" fill="#3B3B3B"/>
</g>
<path d="M89.5 28.8C89.7761 28.8 90 28.6209 90 28.4C90 28.1791 89.7761 28 89.5 28C89.2239 28 89 28.1791 89 28.4C89 28.6209 89.2239 28.8 89.5 28.8Z" fill="#29D8FF"/>
<path d="M82.5 17.6C82.7761 17.6 83 17.4209 83 17.2C83 16.9791 82.7761 16.8 82.5 16.8C82.2239 16.8 82 16.9791 82 17.2C82 17.4209 82.2239 17.6 82.5 17.6Z" fill="#29D8FF"/>
<path d="M81 13.6C81.5523 13.6 82 13.2418 82 12.8C82 12.3582 81.5523 12 81 12C80.4477 12 80 12.3582 80 12.8C80 13.2418 80.4477 13.6 81 13.6Z" fill="#29B1FF"/>
<path d="M33 24.6C33.5523 24.6 34 24.2418 34 23.8C34 23.3582 33.5523 23 33 23C32.4477 23 32 23.3582 32 23.8C32 24.2418 32.4477 24.6 33 24.6Z" fill="#29B1FF"/>
<path d="M41 9.6C41.5523 9.6 42 9.24183 42 8.8C42 8.35817 41.5523 8 41 8C40.4477 8 40 8.35817 40 8.8C40 9.24183 40.4477 9.6 41 9.6Z" fill="#29B1FF"/>
<path d="M106.5 24C106.776 24 107 23.8209 107 23.6C107 23.3791 106.776 23.2 106.5 23.2C106.224 23.2 106 23.3791 106 23.6C106 23.8209 106.224 24 106.5 24Z" fill="#29D8FF"/>
<g style="mix-blend-mode:overlay" opacity="0.57">
<path d="M51 24.8C51 25.2418 51.4477 25.6 52 25.6C52.5523 25.6 53 25.2418 53 24.8C53 24.3582 52.5523 24 52 24C51.4477 24 51 24.3582 51 24.8Z" fill="#3B3B3B"/>
<path d="M67 24.4C67 24.6209 67.2239 24.8 67.5 24.8C67.7761 24.8 68 24.6209 68 24.4C68 24.1791 67.7761 24 67.5 24C67.2239 24 67 24.1791 67 24.4Z" fill="#3B3B3B"/>
<path d="M75 14.8C75 15.0209 75.2239 15.2 75.5 15.2C75.7761 15.2 76 15.0209 76 14.8C76 14.5791 75.7761 14.4 75.5 14.4C75.2239 14.4 75 14.5791 75 14.8Z" fill="white"/>
<path d="M77 18.8C77 19.0209 77.2239 19.2 77.5 19.2C77.7761 19.2 78 19.0209 78 18.8C78 18.5791 77.7761 18.4 77.5 18.4C77.2239 18.4 77 18.5791 77 18.8Z" fill="#3B3B3B"/>
<path d="M55 22.8C55 23.0209 55.2239 23.2 55.5 23.2C55.7761 23.2 56 23.0209 56 22.8C56 22.5791 55.7761 22.4 55.5 22.4C55.2239 22.4 55 22.5791 55 22.8Z" fill="white"/>
<path d="M53 6.40001C53 6.84183 53.4477 7.20001 54 7.20001C54.5523 7.20001 55 6.84183 55 6.40001C55 5.95818 54.5523 5.60001 54 5.60001C53.4477 5.60001 53 5.95818 53 6.40001Z" fill="#3B3B3B"/>
</g>
<g style="mix-blend-mode:overlay" opacity="0.57">
<path d="M19 28C19 28.4418 19.4477 28.8 20 28.8C20.5523 28.8 21 28.4418 21 28C21 27.5582 20.5523 27.2 20 27.2C19.4477 27.2 19 27.5582 19 28Z" fill="#3B3B3B"/>
<path d="M35 27.6C35 27.8209 35.2239 28 35.5 28C35.7761 28 36 27.8209 36 27.6C36 27.3791 35.7761 27.2 35.5 27.2C35.2239 27.2 35 27.3791 35 27.6Z" fill="#3B3B3B"/>
<path d="M43 18C43 18.2209 43.2239 18.4 43.5 18.4C43.7761 18.4 44 18.2209 44 18C44 17.7791 43.7761 17.6 43.5 17.6C43.2239 17.6 43 17.7791 43 18Z" fill="white"/>
<path d="M45 22C45 22.2209 45.2239 22.4 45.5 22.4C45.7761 22.4 46 22.2209 46 22C46 21.7791 45.7761 21.6 45.5 21.6C45.2239 21.6 45 21.7791 45 22Z" fill="#3B3B3B"/>
<path d="M23 26C23 26.2209 23.2239 26.4 23.5 26.4C23.7761 26.4 24 26.2209 24 26C24 25.7791 23.7761 25.6 23.5 25.6C23.2239 25.6 23 25.7791 23 26Z" fill="white"/>
<path d="M21 9.59999C21 10.0418 21.4477 10.4 22 10.4C22.5523 10.4 23 10.0418 23 9.59999C23 9.15816 22.5523 8.79999 22 8.79999C21.4477 8.79999 21 9.15816 21 9.59999Z" fill="#3B3B3B"/>
</g>
<path d="M57.5 28C57.7761 28 58 27.8209 58 27.6C58 27.3791 57.7761 27.2 57.5 27.2C57.2239 27.2 57 27.3791 57 27.6C57 27.8209 57.2239 28 57.5 28Z" fill="#29D8FF"/>
<path d="M50.5 16.8C50.7761 16.8 51 16.6209 51 16.4C51 16.1791 50.7761 16 50.5 16C50.2239 16 50 16.1791 50 16.4C50 16.6209 50.2239 16.8 50.5 16.8Z" fill="#29D8FF"/>
<path d="M61 34.6C61.5523 34.6 62 34.2418 62 33.8C62 33.3582 61.5523 33 61 33C60.4477 33 60 33.3582 60 33.8C60 34.2418 60.4477 34.6 61 34.6Z" fill="#29B1FF"/>
<path d="M74.5 23.2C74.7761 23.2 75 23.0209 75 22.8C75 22.5791 74.7761 22.4 74.5 22.4C74.2239 22.4 74 22.5791 74 22.8C74 23.0209 74.2239 23.2 74.5 23.2Z" fill="#29D8FF"/>
<path d="M25.5 31.2C25.7761 31.2 26 31.0209 26 30.8C26 30.5791 25.7761 30.4 25.5 30.4C25.2239 30.4 25 30.5791 25 30.8C25 31.0209 25.2239 31.2 25.5 31.2Z" fill="#29D8FF"/>
<path d="M18.5 20C18.7761 20 19 19.8209 19 19.6C19 19.3791 18.7761 19.2 18.5 19.2C18.2239 19.2 18 19.3791 18 19.6C18 19.8209 18.2239 20 18.5 20Z" fill="#29D8FF"/>
<path d="M9 17.6C9.55228 17.6 10 17.2418 10 16.8C10 16.3582 9.55228 16 9 16C8.44772 16 8 16.3582 8 16.8C8 17.2418 8.44772 17.6 9 17.6Z" fill="#29B1FF"/>
<path d="M42.5 26.4C42.7761 26.4 43 26.2209 43 26C43 25.7791 42.7761 25.6 42.5 25.6C42.2239 25.6 42 25.7791 42 26C42 26.2209 42.2239 26.4 42.5 26.4Z" fill="#29D8FF"/>
<path d="M36.4884 4.67973C36.4884 5.14501 35.0363 5.18138 33.2442 5.18138C31.4521 5.18138 30 5.14124 30 4.67973C30 4.21822 31.4538 4 33.2442 4C35.0346 4 36.4884 4.21571 36.4884 4.67973Z" fill="#A3FFFD"/>
<path d="M40.0185 4.92554C40.581 4.92554 41.037 4.71835 41.037 4.46277C41.037 4.20719 40.581 4 40.0185 4C39.456 4 39 4.20719 39 4.46277C39 4.71835 39.456 4.92554 40.0185 4.92554Z" fill="#A3FFFD"/>
<path d="M46.4453 23.7148V26H39.2871V23.7148H46.4453ZM40.2344 11.7812V26H37.3047V11.7812H40.2344ZM47.5 20.8242V20.6191C47.5 19.8444 47.6107 19.1315 47.832 18.4805C48.0534 17.8229 48.3757 17.2533 48.7988 16.7715C49.222 16.2897 49.7428 15.9154 50.3613 15.6484C50.9798 15.375 51.6895 15.2383 52.4902 15.2383C53.291 15.2383 54.0039 15.375 54.6289 15.6484C55.2539 15.9154 55.778 16.2897 56.2012 16.7715C56.6309 17.2533 56.9564 17.8229 57.1777 18.4805C57.3991 19.1315 57.5098 19.8444 57.5098 20.6191V20.8242C57.5098 21.5924 57.3991 22.3053 57.1777 22.9629C56.9564 23.6139 56.6309 24.1836 56.2012 24.6719C55.778 25.1536 55.2572 25.528 54.6387 25.7949C54.0202 26.0618 53.3105 26.1953 52.5098 26.1953C51.709 26.1953 50.9961 26.0618 50.3711 25.7949C49.7526 25.528 49.2285 25.1536 48.7988 24.6719C48.3757 24.1836 48.0534 23.6139 47.832 22.9629C47.6107 22.3053 47.5 21.5924 47.5 20.8242ZM50.3125 20.6191V20.8242C50.3125 21.2669 50.3516 21.6803 50.4297 22.0645C50.5078 22.4486 50.6315 22.7871 50.8008 23.0801C50.9766 23.3665 51.2044 23.5911 51.4844 23.7539C51.7643 23.9167 52.1061 23.998 52.5098 23.998C52.9004 23.998 53.2357 23.9167 53.5156 23.7539C53.7956 23.5911 54.0202 23.3665 54.1895 23.0801C54.3587 22.7871 54.4824 22.4486 54.5605 22.0645C54.6452 21.6803 54.6875 21.2669 54.6875 20.8242V20.6191C54.6875 20.1895 54.6452 19.7858 54.5605 19.4082C54.4824 19.0241 54.3555 18.6855 54.1797 18.3926C54.0104 18.0931 53.7858 17.8587 53.5059 17.6895C53.2259 17.5202 52.8874 17.4355 52.4902 17.4355C52.0931 17.4355 51.7546 17.5202 51.4746 17.6895C51.2012 17.8587 50.9766 18.0931 50.8008 18.3926C50.6315 18.6855 50.5078 19.0241 50.4297 19.4082C50.3516 19.7858 50.3125 20.1895 50.3125 20.6191ZM65.9277 15.4336H68.4766V25.6484C68.4766 26.612 68.2617 27.429 67.832 28.0996C67.4089 28.7767 66.8164 29.2878 66.0547 29.6328C65.293 29.9844 64.4076 30.1602 63.3984 30.1602C62.9557 30.1602 62.487 30.1016 61.9922 29.9844C61.5039 29.8672 61.0352 29.6849 60.5859 29.4375C60.1432 29.1901 59.7721 28.8776 59.4727 28.5L60.7129 26.8398C61.0384 27.2174 61.416 27.5104 61.8457 27.7188C62.2754 27.9336 62.7507 28.041 63.2715 28.041C63.7793 28.041 64.209 27.9466 64.5605 27.7578C64.9121 27.5755 65.1823 27.3053 65.3711 26.9473C65.5599 26.5957 65.6543 26.1693 65.6543 25.668V17.875L65.9277 15.4336ZM58.8184 20.8438V20.6387C58.8184 19.8314 58.916 19.099 59.1113 18.4414C59.3132 17.7773 59.5964 17.2077 59.9609 16.7324C60.332 16.2572 60.7812 15.8893 61.3086 15.6289C61.8359 15.3685 62.4316 15.2383 63.0957 15.2383C63.7988 15.2383 64.388 15.3685 64.8633 15.6289C65.3385 15.8893 65.7292 16.2604 66.0352 16.7422C66.3411 17.2174 66.5788 17.7806 66.748 18.4316C66.9238 19.0762 67.0605 19.7826 67.1582 20.5508V21C67.0605 21.7357 66.9141 22.4193 66.7188 23.0508C66.5234 23.6823 66.2663 24.2357 65.9473 24.7109C65.6283 25.1797 65.2311 25.5443 64.7559 25.8047C64.2871 26.0651 63.7272 26.1953 63.0762 26.1953C62.4251 26.1953 61.8359 26.0618 61.3086 25.7949C60.7878 25.528 60.3418 25.1536 59.9707 24.6719C59.5996 24.1901 59.3132 23.6237 59.1113 22.9727C58.916 22.3216 58.8184 21.612 58.8184 20.8438ZM61.6309 20.6387V20.8438C61.6309 21.2799 61.6732 21.6868 61.7578 22.0645C61.8424 22.4421 61.9727 22.7773 62.1484 23.0703C62.3307 23.3568 62.5553 23.5814 62.8223 23.7441C63.0957 23.9004 63.418 23.9785 63.7891 23.9785C64.3034 23.9785 64.7233 23.8711 65.0488 23.6562C65.3743 23.4349 65.6185 23.1322 65.7812 22.748C65.944 22.3639 66.0384 21.9212 66.0645 21.4199V20.1406C66.0514 19.7305 65.9961 19.3626 65.8984 19.0371C65.8008 18.7051 65.6641 18.4219 65.4883 18.1875C65.3125 17.9531 65.0846 17.7708 64.8047 17.6406C64.5247 17.5104 64.1927 17.4453 63.8086 17.4453C63.4375 17.4453 63.1152 17.5299 62.8418 17.6992C62.5749 17.862 62.3503 18.0866 62.168 18.373C61.9922 18.6595 61.8587 18.998 61.7676 19.3887C61.6764 19.7728 61.6309 20.1895 61.6309 20.6387ZM76.2109 18.793V21H70.6934V18.793H76.2109ZM81.5234 15.4336V26H78.7012V15.4336H81.5234ZM78.5254 12.6797C78.5254 12.2695 78.6686 11.931 78.9551 11.6641C79.2415 11.3971 79.6257 11.2637 80.1074 11.2637C80.5827 11.2637 80.9635 11.3971 81.25 11.6641C81.543 11.931 81.6895 12.2695 81.6895 12.6797C81.6895 13.0898 81.543 13.4284 81.25 13.6953C80.9635 13.9622 80.5827 14.0957 80.1074 14.0957C79.6257 14.0957 79.2415 13.9622 78.9551 13.6953C78.6686 13.4284 78.5254 13.0898 78.5254 12.6797ZM86.6016 17.6895V26H83.7891V15.4336H86.4258L86.6016 17.6895ZM86.1914 20.3457H85.4297C85.4297 19.5645 85.5306 18.8613 85.7324 18.2363C85.9342 17.6048 86.2174 17.0677 86.582 16.625C86.9466 16.1758 87.3796 15.834 87.8809 15.5996C88.3887 15.3587 88.9551 15.2383 89.5801 15.2383C90.0749 15.2383 90.5273 15.3099 90.9375 15.4531C91.3477 15.5964 91.6992 15.8242 91.9922 16.1367C92.2917 16.4492 92.5195 16.8626 92.6758 17.377C92.8385 17.8913 92.9199 18.5195 92.9199 19.2617V26H90.0879V19.252C90.0879 18.7832 90.0228 18.4186 89.8926 18.1582C89.7624 17.8978 89.5703 17.7155 89.3164 17.6113C89.069 17.5007 88.763 17.4453 88.3984 17.4453C88.0208 17.4453 87.6921 17.5202 87.4121 17.6699C87.1387 17.8197 86.9108 18.028 86.7285 18.2949C86.5527 18.5553 86.4193 18.8613 86.3281 19.2129C86.237 19.5645 86.1914 19.9421 86.1914 20.3457Z" fill="#FFFBDB"/>
</g>
<defs>
<linearGradient id="paint0_linear_1_9911" x1="65" y1="26.5171" x2="65" y2="2.52509" gradientUnits="userSpaceOnUse">
<stop stop-color="#3C64FF" stop-opacity="0"/>
<stop offset="1" stop-color="#1D46A6"/>
</linearGradient>
<clipPath id="clip0_1_9911">
<rect width="130" height="40" fill="white"/>
</clipPath>
</defs>
</svg>
