<svg width="130" height="40" viewBox="0 0 130 40" fill="none" xmlns="http://www.w3.org/2000/svg">
<g clip-path="url(#clip0_1_9974)">
<path d="M99.6479 0.000125932H30.3633C24.9159 0.000125932 15.8604 0.000123969 8.59838 0.000123082C3.84827 0.000122501 0 3.85077 0 8.60088V31.3992C0 36.1494 3.85102 40 8.60121 40C15.7802 40 25.5833 40 30.3633 40H99.6367H121.399C126.149 40 130 36.1493 130 31.3992V8.60088C130 3.85074 126.152 7.23689e-05 121.402 0.000220814C114.193 0.000446096 105.023 0.000689832 99.6479 0.000125932Z" fill="#297EFF"/>
<path d="M96.967 3.55999H33.033L12.996 3.55999C8.57768 3.55999 5 7.14172 5 11.56V20.52C5 24.9382 8.57768 28.52 12.996 28.52H33.033H96.967H117.004C121.422 28.52 125 24.9383 125 20.52V11.56C125 7.1417 121.422 3.55997 117.004 3.55998L96.967 3.55999Z" fill="url(#paint0_linear_1_9974)"/>
<rect x="0.75" y="0.749969" width="128.5" height="38.5" rx="7.25" stroke="#5C2929" stroke-width="1.5"/>
<path d="M118.284 18.4004L9.19307 18.5312H7.15243H6.75003C5.78353 18.5312 5.00004 19.3147 5.0001 20.2812V28.8C5.0001 33.2183 8.57638 36.8 12.9947 36.8C17.273 36.8 23.1192 36.8 30.1662 36.8H99.8519C106.893 36.8 112.732 36.8 117.005 36.8C121.424 36.8 125 33.2183 125 28.8V20.2812C124.998 20.2502 124.996 20.1982 124.995 20.1309C124.979 19.178 124.222 18.4 123.269 18.4L120.961 18.4L118.284 18.4004Z" fill="#2649BE"/>
<path d="M100.413 13.9109C98.8002 15.8173 102.281 17.0243 104.484 14.8033C106.067 13.2076 103.809 9.89589 100.413 13.9109Z" fill="#2F75FF"/>
<path d="M19.7435 13.3441C16.8403 16.6803 23.1057 18.7926 27.0709 14.9058C29.9208 12.1133 25.8568 6.3178 19.7435 13.3441Z" fill="#2F75FF"/>
<path d="M95.4952 25.4497C95.7 26.0882 96.0024 26.7359 96.5977 27.1769C97.4057 27.7825 98.5727 27.8813 99.6547 27.951C100.373 27.9971 101.102 28.0432 101.809 27.926C102.516 27.8088 103.211 27.51 103.597 27.0045C103.983 26.4989 104 25.8539 104 25.2509C104 24.648 104 23.9884 103.717 23.4078C103.375 22.7259 102.661 22.2125 101.872 21.8781C101.083 21.5437 100.212 21.3712 99.3523 21.2001C98.2766 20.9868 96.0354 20.3088 95.3503 21.4213C94.6652 22.5337 95.1346 24.3333 95.4952 25.4497Z" fill="#315FF7"/>
<path d="M60.3852 14.229C60.5444 14.6724 60.7796 15.1222 61.2427 15.4284C61.8711 15.849 62.7788 15.9175 63.6203 15.966C64.1789 15.998 64.7461 16.03 65.2961 15.9486C65.8461 15.8673 66.3863 15.6597 66.6864 15.3087C66.9865 14.9576 67 14.5096 67 14.0909C67 13.6722 67 13.2142 66.7795 12.811C66.5137 12.3374 65.9588 11.9809 65.3451 11.7487C64.7314 11.5165 64.054 11.3967 63.3851 11.2779C62.5485 11.1298 60.8053 10.6589 60.2725 11.4314C59.7396 12.204 60.1047 13.4537 60.3852 14.229Z" fill="#315FF7"/>
<g style="mix-blend-mode:overlay" opacity="0.57">
<path d="M101 30.4C101.552 30.4 102 30.0418 102 29.6C102 29.1582 101.552 28.8 101 28.8C100.448 28.8 100 29.1582 100 29.6C100 30.0418 100.448 30.4 101 30.4Z" fill="#3B3B3B"/>
<path d="M117.5 13.8C117.776 13.8 118 13.6209 118 13.4C118 13.1791 117.776 13 117.5 13C117.224 13 117 13.1791 117 13.4C117 13.6209 117.224 13.8 117.5 13.8Z" fill="#3B3B3B"/>
<path d="M88.5 11.2C88.7761 11.2 89 11.0209 89 10.8C89 10.5791 88.7761 10.4 88.5 10.4C88.2239 10.4 88 10.5791 88 10.8C88 11.0209 88.2239 11.2 88.5 11.2Z" fill="white"/>
<path d="M93.5 6.8C93.7761 6.8 94 6.62091 94 6.4C94 6.17909 93.7761 6 93.5 6C93.2239 6 93 6.17909 93 6.4C93 6.62091 93.2239 6.8 93.5 6.8Z" fill="#3B3B3B"/>
<path d="M78 28.8C78.5523 28.8 79 28.4418 79 28C79 27.5582 78.5523 27.2 78 27.2C77.4477 27.2 77 27.5582 77 28C77 28.4418 77.4477 28.8 78 28.8Z" fill="#3B3B3B"/>
</g>
<g style="mix-blend-mode:overlay" opacity="0.57">
<path d="M110.6 16C110.6 15.4477 110.242 15 109.8 15C109.358 15 109 15.4477 109 16C109 16.5523 109.358 17 109.8 17C110.242 17 110.6 16.5523 110.6 16Z" fill="#3B3B3B"/>
<path d="M113.8 27.5C113.8 27.2239 113.621 27 113.4 27C113.179 27 113 27.2239 113 27.5C113 27.7761 113.179 28 113.4 28C113.621 28 113.8 27.7761 113.8 27.5Z" fill="#3B3B3B"/>
<path d="M99.8 19.5C99.8 19.2239 99.6209 19 99.4 19C99.1791 19 99 19.2239 99 19.5C99 19.7761 99.1791 20 99.4 20C99.6209 20 99.8 19.7761 99.8 19.5Z" fill="white"/>
<path d="M97.8 12.5C97.8 12.2239 97.6209 12 97.4 12C97.1791 12 97 12.2239 97 12.5C97 12.7761 97.1791 13 97.4 13C97.6209 13 97.8 12.7761 97.8 12.5Z" fill="#3B3B3B"/>
<path d="M106.8 8.5C106.8 8.22386 106.621 8 106.4 8C106.179 8 106 8.22386 106 8.5C106 8.77614 106.179 9 106.4 9C106.621 9 106.8 8.77614 106.8 8.5Z" fill="#3B3B3B"/>
<path d="M114.4 9.5C114.4 9.22386 114.221 9 114 9C113.779 9 113.6 9.22386 113.6 9.5C113.6 9.77614 113.779 10 114 10C114.221 10 114.4 9.77614 114.4 9.5Z" fill="white"/>
<path d="M118.6 22C118.6 21.4477 118.242 21 117.8 21C117.358 21 117 21.4477 117 22C117 22.5523 117.358 23 117.8 23C118.242 23 118.6 22.5523 118.6 22Z" fill="#3B3B3B"/>
</g>
<path d="M89.5 28.8C89.7761 28.8 90 28.6209 90 28.4C90 28.1791 89.7761 28 89.5 28C89.2239 28 89 28.1791 89 28.4C89 28.6209 89.2239 28.8 89.5 28.8Z" fill="#29D8FF"/>
<path d="M82.5 17.6C82.7761 17.6 83 17.4209 83 17.2C83 16.9791 82.7761 16.8 82.5 16.8C82.2239 16.8 82 16.9791 82 17.2C82 17.4209 82.2239 17.6 82.5 17.6Z" fill="#29D8FF"/>
<path d="M81 13.6C81.5523 13.6 82 13.2418 82 12.8C82 12.3582 81.5523 12 81 12C80.4477 12 80 12.3582 80 12.8C80 13.2418 80.4477 13.6 81 13.6Z" fill="#29B1FF"/>
<path d="M33 24.6C33.5523 24.6 34 24.2418 34 23.8C34 23.3582 33.5523 23 33 23C32.4477 23 32 23.3582 32 23.8C32 24.2418 32.4477 24.6 33 24.6Z" fill="#29B1FF"/>
<path d="M41 9.6C41.5523 9.6 42 9.24183 42 8.8C42 8.35817 41.5523 8 41 8C40.4477 8 40 8.35817 40 8.8C40 9.24183 40.4477 9.6 41 9.6Z" fill="#29B1FF"/>
<path d="M106.5 24C106.776 24 107 23.8209 107 23.6C107 23.3791 106.776 23.2 106.5 23.2C106.224 23.2 106 23.3791 106 23.6C106 23.8209 106.224 24 106.5 24Z" fill="#29D8FF"/>
<g style="mix-blend-mode:overlay" opacity="0.57">
<path d="M51 24.8C51 25.2418 51.4477 25.6 52 25.6C52.5523 25.6 53 25.2418 53 24.8C53 24.3582 52.5523 24 52 24C51.4477 24 51 24.3582 51 24.8Z" fill="#3B3B3B"/>
<path d="M67 24.4C67 24.6209 67.2239 24.8 67.5 24.8C67.7761 24.8 68 24.6209 68 24.4C68 24.1791 67.7761 24 67.5 24C67.2239 24 67 24.1791 67 24.4Z" fill="#3B3B3B"/>
<path d="M75 14.8C75 15.0209 75.2239 15.2 75.5 15.2C75.7761 15.2 76 15.0209 76 14.8C76 14.5791 75.7761 14.4 75.5 14.4C75.2239 14.4 75 14.5791 75 14.8Z" fill="white"/>
<path d="M77 18.8C77 19.0209 77.2239 19.2 77.5 19.2C77.7761 19.2 78 19.0209 78 18.8C78 18.5791 77.7761 18.4 77.5 18.4C77.2239 18.4 77 18.5791 77 18.8Z" fill="#3B3B3B"/>
<path d="M55 22.8C55 23.0209 55.2239 23.2 55.5 23.2C55.7761 23.2 56 23.0209 56 22.8C56 22.5791 55.7761 22.4 55.5 22.4C55.2239 22.4 55 22.5791 55 22.8Z" fill="white"/>
<path d="M53 6.40001C53 6.84183 53.4477 7.20001 54 7.20001C54.5523 7.20001 55 6.84183 55 6.40001C55 5.95818 54.5523 5.60001 54 5.60001C53.4477 5.60001 53 5.95818 53 6.40001Z" fill="#3B3B3B"/>
</g>
<g style="mix-blend-mode:overlay" opacity="0.57">
<path d="M19 28C19 28.4418 19.4477 28.8 20 28.8C20.5523 28.8 21 28.4418 21 28C21 27.5582 20.5523 27.2 20 27.2C19.4477 27.2 19 27.5582 19 28Z" fill="#3B3B3B"/>
<path d="M35 27.6C35 27.8209 35.2239 28 35.5 28C35.7761 28 36 27.8209 36 27.6C36 27.3791 35.7761 27.2 35.5 27.2C35.2239 27.2 35 27.3791 35 27.6Z" fill="#3B3B3B"/>
<path d="M43 18C43 18.2209 43.2239 18.4 43.5 18.4C43.7761 18.4 44 18.2209 44 18C44 17.7791 43.7761 17.6 43.5 17.6C43.2239 17.6 43 17.7791 43 18Z" fill="white"/>
<path d="M45 22C45 22.2209 45.2239 22.4 45.5 22.4C45.7761 22.4 46 22.2209 46 22C46 21.7791 45.7761 21.6 45.5 21.6C45.2239 21.6 45 21.7791 45 22Z" fill="#3B3B3B"/>
<path d="M23 26C23 26.2209 23.2239 26.4 23.5 26.4C23.7761 26.4 24 26.2209 24 26C24 25.7791 23.7761 25.6 23.5 25.6C23.2239 25.6 23 25.7791 23 26Z" fill="white"/>
<path d="M21 9.59999C21 10.0418 21.4477 10.4 22 10.4C22.5523 10.4 23 10.0418 23 9.59999C23 9.15816 22.5523 8.79999 22 8.79999C21.4477 8.79999 21 9.15816 21 9.59999Z" fill="#3B3B3B"/>
</g>
<path d="M57.5 28C57.7761 28 58 27.8209 58 27.6C58 27.3791 57.7761 27.2 57.5 27.2C57.2239 27.2 57 27.3791 57 27.6C57 27.8209 57.2239 28 57.5 28Z" fill="#29D8FF"/>
<path d="M50.5 16.8C50.7761 16.8 51 16.6209 51 16.4C51 16.1791 50.7761 16 50.5 16C50.2239 16 50 16.1791 50 16.4C50 16.6209 50.2239 16.8 50.5 16.8Z" fill="#29D8FF"/>
<path d="M61 34.6C61.5523 34.6 62 34.2418 62 33.8C62 33.3582 61.5523 33 61 33C60.4477 33 60 33.3582 60 33.8C60 34.2418 60.4477 34.6 61 34.6Z" fill="#29B1FF"/>
<path d="M74.5 23.2C74.7761 23.2 75 23.0209 75 22.8C75 22.5791 74.7761 22.4 74.5 22.4C74.2239 22.4 74 22.5791 74 22.8C74 23.0209 74.2239 23.2 74.5 23.2Z" fill="#29D8FF"/>
<path d="M25.5 31.2C25.7761 31.2 26 31.0209 26 30.8C26 30.5791 25.7761 30.4 25.5 30.4C25.2239 30.4 25 30.5791 25 30.8C25 31.0209 25.2239 31.2 25.5 31.2Z" fill="#29D8FF"/>
<path d="M18.5 20C18.7761 20 19 19.8209 19 19.6C19 19.3791 18.7761 19.2 18.5 19.2C18.2239 19.2 18 19.3791 18 19.6C18 19.8209 18.2239 20 18.5 20Z" fill="#29D8FF"/>
<path d="M9 17.6C9.55228 17.6 10 17.2418 10 16.8C10 16.3582 9.55228 16 9 16C8.44772 16 8 16.3582 8 16.8C8 17.2418 8.44772 17.6 9 17.6Z" fill="#29B1FF"/>
<path d="M42.5 26.4C42.7761 26.4 43 26.2209 43 26C43 25.7791 42.7761 25.6 42.5 25.6C42.2239 25.6 42 25.7791 42 26C42 26.2209 42.2239 26.4 42.5 26.4Z" fill="#29D8FF"/>
<path d="M36.4884 4.67973C36.4884 5.14501 35.0363 5.18138 33.2442 5.18138C31.4521 5.18138 30 5.14124 30 4.67973C30 4.21822 31.4538 4 33.2442 4C35.0346 4 36.4884 4.21571 36.4884 4.67973Z" fill="#A3FFFD"/>
<path d="M40.0185 4.92554C40.581 4.92554 41.037 4.71835 41.037 4.46277C41.037 4.20719 40.581 4 40.0185 4C39.456 4 39 4.20719 39 4.46277C39 4.71835 39.456 4.92554 40.0185 4.92554Z" fill="#A3FFFD"/>
<path d="M38.3691 22.2793C38.3691 22.0254 38.3301 21.7975 38.252 21.5957C38.1803 21.3874 38.0436 21.1986 37.8418 21.0293C37.64 20.8535 37.3568 20.681 36.9922 20.5117C36.6276 20.3424 36.1556 20.1667 35.5762 19.9844C34.9316 19.776 34.3197 19.5417 33.7402 19.2812C33.1673 19.0208 32.6595 18.7181 32.2168 18.373C31.7806 18.0215 31.4355 17.6146 31.1816 17.1523C30.9342 16.6901 30.8105 16.153 30.8105 15.541C30.8105 14.9486 30.9408 14.4115 31.2012 13.9297C31.4616 13.4414 31.8262 13.0247 32.2949 12.6797C32.7637 12.3281 33.3171 12.0579 33.9551 11.8691C34.5996 11.6803 35.306 11.5859 36.0742 11.5859C37.1224 11.5859 38.0371 11.7747 38.8184 12.1523C39.5996 12.5299 40.2051 13.0475 40.6348 13.7051C41.071 14.3626 41.2891 15.1146 41.2891 15.9609H38.3789C38.3789 15.5443 38.291 15.1797 38.1152 14.8672C37.946 14.5482 37.6855 14.2975 37.334 14.1152C36.9889 13.9329 36.5527 13.8418 36.0254 13.8418C35.5176 13.8418 35.0944 13.9199 34.7559 14.0762C34.4173 14.2259 34.1634 14.431 33.9941 14.6914C33.8249 14.9453 33.7402 15.2318 33.7402 15.5508C33.7402 15.7917 33.7988 16.0098 33.916 16.2051C34.0397 16.4004 34.222 16.5827 34.4629 16.752C34.7038 16.9212 35 17.0807 35.3516 17.2305C35.7031 17.3802 36.11 17.5267 36.5723 17.6699C37.347 17.9043 38.0273 18.168 38.6133 18.4609C39.2057 18.7539 39.7005 19.0827 40.0977 19.4473C40.4948 19.8118 40.7943 20.2253 40.9961 20.6875C41.1979 21.1497 41.2988 21.6738 41.2988 22.2598C41.2988 22.8783 41.1784 23.4316 40.9375 23.9199C40.6966 24.4082 40.3483 24.8216 39.8926 25.1602C39.4368 25.4987 38.8932 25.7559 38.2617 25.9316C37.6302 26.1074 36.9238 26.1953 36.1426 26.1953C35.4395 26.1953 34.7461 26.1042 34.0625 25.9219C33.3789 25.7331 32.7572 25.4499 32.1973 25.0723C31.6439 24.6947 31.2012 24.2129 30.8691 23.627C30.5371 23.041 30.3711 22.3477 30.3711 21.5469H33.3105C33.3105 21.9896 33.3789 22.3639 33.5156 22.6699C33.6523 22.9759 33.8444 23.2233 34.0918 23.4121C34.3457 23.6009 34.6452 23.7376 34.9902 23.8223C35.3418 23.9069 35.7259 23.9492 36.1426 23.9492C36.6504 23.9492 37.0671 23.8776 37.3926 23.7344C37.7246 23.5911 37.9688 23.3926 38.125 23.1387C38.2878 22.8848 38.3691 22.5983 38.3691 22.2793ZM46.084 15.4336V26H43.2617V15.4336H46.084ZM43.0859 12.6797C43.0859 12.2695 43.2292 11.931 43.5156 11.6641C43.8021 11.3971 44.1862 11.2637 44.668 11.2637C45.1432 11.2637 45.5241 11.3971 45.8105 11.6641C46.1035 11.931 46.25 12.2695 46.25 12.6797C46.25 13.0898 46.1035 13.4284 45.8105 13.6953C45.5241 13.9622 45.1432 14.0957 44.668 14.0957C44.1862 14.0957 43.8021 13.9622 43.5156 13.6953C43.2292 13.4284 43.0859 13.0898 43.0859 12.6797ZM55.0977 15.4336H57.6465V25.6484C57.6465 26.612 57.4316 27.429 57.002 28.0996C56.5788 28.7767 55.9863 29.2878 55.2246 29.6328C54.4629 29.9844 53.5775 30.1602 52.5684 30.1602C52.1257 30.1602 51.6569 30.1016 51.1621 29.9844C50.6738 29.8672 50.2051 29.6849 49.7559 29.4375C49.3132 29.1901 48.9421 28.8776 48.6426 28.5L49.8828 26.8398C50.2083 27.2174 50.5859 27.5104 51.0156 27.7188C51.4453 27.9336 51.9206 28.041 52.4414 28.041C52.9492 28.041 53.3789 27.9466 53.7305 27.7578C54.082 27.5755 54.3522 27.3053 54.541 26.9473C54.7298 26.5957 54.8242 26.1693 54.8242 25.668V17.875L55.0977 15.4336ZM47.9883 20.8438V20.6387C47.9883 19.8314 48.0859 19.099 48.2812 18.4414C48.4831 17.7773 48.7663 17.2077 49.1309 16.7324C49.502 16.2572 49.9512 15.8893 50.4785 15.6289C51.0059 15.3685 51.6016 15.2383 52.2656 15.2383C52.9688 15.2383 53.5579 15.3685 54.0332 15.6289C54.5085 15.8893 54.8991 16.2604 55.2051 16.7422C55.5111 17.2174 55.7487 17.7806 55.918 18.4316C56.0938 19.0762 56.2305 19.7826 56.3281 20.5508V21C56.2305 21.7357 56.084 22.4193 55.8887 23.0508C55.6934 23.6823 55.4362 24.2357 55.1172 24.7109C54.7982 25.1797 54.401 25.5443 53.9258 25.8047C53.457 26.0651 52.8971 26.1953 52.2461 26.1953C51.5951 26.1953 51.0059 26.0618 50.4785 25.7949C49.9577 25.528 49.5117 25.1536 49.1406 24.6719C48.7695 24.1901 48.4831 23.6237 48.2812 22.9727C48.0859 22.3216 47.9883 21.612 47.9883 20.8438ZM50.8008 20.6387V20.8438C50.8008 21.2799 50.8431 21.6868 50.9277 22.0645C51.0124 22.4421 51.1426 22.7773 51.3184 23.0703C51.5007 23.3568 51.7253 23.5814 51.9922 23.7441C52.2656 23.9004 52.5879 23.9785 52.959 23.9785C53.4733 23.9785 53.8932 23.8711 54.2188 23.6562C54.5443 23.4349 54.7884 23.1322 54.9512 22.748C55.1139 22.3639 55.2083 21.9212 55.2344 21.4199V20.1406C55.2214 19.7305 55.166 19.3626 55.0684 19.0371C54.9707 18.7051 54.834 18.4219 54.6582 18.1875C54.4824 17.9531 54.2546 17.7708 53.9746 17.6406C53.6947 17.5104 53.3626 17.4453 52.9785 17.4453C52.6074 17.4453 52.2852 17.5299 52.0117 17.6992C51.7448 17.862 51.5202 18.0866 51.3379 18.373C51.1621 18.6595 51.0286 18.998 50.9375 19.3887C50.8464 19.7728 50.8008 20.1895 50.8008 20.6387ZM62.5879 17.6895V26H59.7754V15.4336H62.4121L62.5879 17.6895ZM62.1777 20.3457H61.416C61.416 19.5645 61.5169 18.8613 61.7188 18.2363C61.9206 17.6048 62.2038 17.0677 62.5684 16.625C62.9329 16.1758 63.3659 15.834 63.8672 15.5996C64.375 15.3587 64.9414 15.2383 65.5664 15.2383C66.0612 15.2383 66.5137 15.3099 66.9238 15.4531C67.334 15.5964 67.6855 15.8242 67.9785 16.1367C68.278 16.4492 68.5059 16.8626 68.6621 17.377C68.8249 17.8913 68.9062 18.5195 68.9062 19.2617V26H66.0742V19.252C66.0742 18.7832 66.0091 18.4186 65.8789 18.1582C65.7487 17.8978 65.5566 17.7155 65.3027 17.6113C65.0553 17.5007 64.7493 17.4453 64.3848 17.4453C64.0072 17.4453 63.6784 17.5202 63.3984 17.6699C63.125 17.8197 62.8971 18.028 62.7148 18.2949C62.5391 18.5553 62.4056 18.8613 62.3145 19.2129C62.2233 19.5645 62.1777 19.9421 62.1777 20.3457ZM76.5918 18.793V21H71.0742V18.793H76.5918ZM85.1855 23.4707V15.4336H87.998V26H85.3516L85.1855 23.4707ZM85.498 21.3027L86.3281 21.2832C86.3281 21.9863 86.2467 22.6406 86.084 23.2461C85.9212 23.8451 85.6771 24.3659 85.3516 24.8086C85.026 25.2448 84.6159 25.5866 84.1211 25.834C83.6263 26.0749 83.0436 26.1953 82.373 26.1953C81.8587 26.1953 81.3835 26.1237 80.9473 25.9805C80.5176 25.8307 80.1465 25.5996 79.834 25.2871C79.528 24.9681 79.2871 24.5612 79.1113 24.0664C78.9421 23.5651 78.8574 22.9629 78.8574 22.2598V15.4336H81.6699V22.2793C81.6699 22.5918 81.7057 22.8555 81.7773 23.0703C81.8555 23.2852 81.9629 23.4609 82.0996 23.5977C82.2363 23.7344 82.3958 23.832 82.5781 23.8906C82.7669 23.9492 82.9753 23.9785 83.2031 23.9785C83.7826 23.9785 84.2383 23.8613 84.5703 23.627C84.9089 23.3926 85.1465 23.0736 85.2832 22.6699C85.4264 22.2598 85.498 21.804 85.498 21.3027ZM92.959 17.4648V30.0625H90.1465V15.4336H92.7539L92.959 17.4648ZM99.6484 20.5996V20.8047C99.6484 21.5729 99.5573 22.2858 99.375 22.9434C99.1992 23.6009 98.9388 24.1738 98.5938 24.6621C98.2487 25.1439 97.819 25.5215 97.3047 25.7949C96.7969 26.0618 96.2109 26.1953 95.5469 26.1953C94.9023 26.1953 94.3424 26.0651 93.8672 25.8047C93.3919 25.5443 92.9915 25.1797 92.666 24.7109C92.347 24.2357 92.0898 23.6855 91.8945 23.0605C91.6992 22.4355 91.5495 21.765 91.4453 21.0488V20.5117C91.5495 19.7435 91.6992 19.0404 91.8945 18.4023C92.0898 17.7578 92.347 17.2012 92.666 16.7324C92.9915 16.2572 93.3887 15.8893 93.8574 15.6289C94.3327 15.3685 94.8893 15.2383 95.5273 15.2383C96.1979 15.2383 96.7871 15.3652 97.2949 15.6191C97.8092 15.873 98.2389 16.2376 98.584 16.7129C98.9355 17.1882 99.1992 17.7546 99.375 18.4121C99.5573 19.0697 99.6484 19.7988 99.6484 20.5996ZM96.8262 20.8047V20.5996C96.8262 20.1504 96.7871 19.737 96.709 19.3594C96.6374 18.9753 96.5202 18.64 96.3574 18.3535C96.2012 18.0671 95.9928 17.8457 95.7324 17.6895C95.4785 17.5267 95.1693 17.4453 94.8047 17.4453C94.4206 17.4453 94.0918 17.5072 93.8184 17.6309C93.5514 17.7546 93.3333 17.9336 93.1641 18.168C92.9948 18.4023 92.8678 18.6823 92.7832 19.0078C92.6986 19.3333 92.6465 19.7012 92.627 20.1113V21.4688C92.6595 21.9505 92.7507 22.3835 92.9004 22.7676C93.0501 23.1452 93.2812 23.4447 93.5938 23.666C93.9062 23.8874 94.3164 23.998 94.8242 23.998C95.1953 23.998 95.5078 23.9167 95.7617 23.7539C96.0156 23.5846 96.2207 23.3535 96.377 23.0605C96.5397 22.7676 96.6536 22.429 96.7188 22.0449C96.7904 21.6608 96.8262 21.2474 96.8262 20.8047Z" fill="#FFFBDB"/>
</g>
<defs>
<linearGradient id="paint0_linear_1_9974" x1="65" y1="26.5171" x2="65" y2="2.52509" gradientUnits="userSpaceOnUse">
<stop stop-color="#3C64FF" stop-opacity="0"/>
<stop offset="1" stop-color="#1D46A6"/>
</linearGradient>
<clipPath id="clip0_1_9974">
<rect width="130" height="40" fill="white"/>
</clipPath>
</defs>
</svg>
