<svg width="1920" height="130" viewBox="0 0 1920 130" fill="none" xmlns="http://www.w3.org/2000/svg">
<path d="M1920 0H0V118H1920V0Z" fill="#734039"/>
<path d="M69.3022 55.8163C69.3658 56.1663 69.3184 56.5272 69.1663 56.8498C69.0143 57.1724 68.7649 57.4412 68.4522 57.6194C68.1395 57.7977 67.7787 57.877 67.4186 57.8463C67.0586 57.8157 66.7168 57.6767 66.4398 57.4483C66.1629 57.2198 65.9641 56.913 65.8705 56.5695C65.777 56.226 65.7932 55.8625 65.9169 55.5283C66.0407 55.1942 66.266 54.9057 66.5622 54.702C66.8584 54.4983 67.2112 54.3892 67.5726 54.3897C67.9934 54.3569 68.4105 54.4879 68.734 54.7548C69.0575 55.0216 69.2616 55.4028 69.3022 55.8163Z" fill="#402121"/>
<path d="M84.5983 46.9515C84.7008 47.5259 84.6214 48.1175 84.3707 48.646C84.12 49.1745 83.7101 49.6144 83.1968 49.9059C82.6834 50.1975 82.0914 50.3266 81.5009 50.2758C80.9105 50.225 80.3502 49.9967 79.896 49.6219C79.4419 49.2472 79.1158 48.744 78.9621 48.1807C78.8084 47.6174 78.8345 47.0212 79.0368 46.473C79.2391 45.9247 79.6078 45.451 80.093 45.116C80.5781 44.781 81.1563 44.6009 81.749 44.6002C82.4425 44.5454 83.1302 44.7613 83.6633 45.2013C84.1964 45.6412 84.5323 46.2699 84.5983 46.9515Z" fill="#402121"/>
<path d="M69.3022 55.8163C69.3658 56.1663 69.3184 56.5272 69.1663 56.8498C69.0143 57.1724 68.7649 57.4412 68.4522 57.6194C68.1395 57.7977 67.7787 57.877 67.4186 57.8463C67.0586 57.8157 66.7168 57.6767 66.4398 57.4483C66.1629 57.2198 65.9641 56.913 65.8705 56.5695C65.777 56.226 65.7932 55.8625 65.9169 55.5283C66.0407 55.1942 66.266 54.9057 66.5622 54.702C66.8584 54.4983 67.2112 54.3892 67.5726 54.3897C67.9934 54.3569 68.4105 54.4879 68.734 54.7548C69.0575 55.0216 69.2616 55.4028 69.3022 55.8163Z" fill="#734039"/>
<path d="M84.5983 46.9515C84.7008 47.5259 84.6214 48.1175 84.3707 48.646C84.12 49.1745 83.7101 49.6144 83.1968 49.9059C82.6834 50.1975 82.0914 50.3266 81.5009 50.2758C80.9105 50.225 80.3502 49.9967 79.896 49.6219C79.4419 49.2472 79.1158 48.744 78.9621 48.1807C78.8084 47.6174 78.8345 47.0212 79.0368 46.473C79.2391 45.9247 79.6078 45.451 80.093 45.116C80.5781 44.781 81.1563 44.6009 81.749 44.6002C82.4425 44.5454 83.1302 44.7613 83.6633 45.2013C84.1964 45.6412 84.5323 46.2699 84.5983 46.9515Z" fill="#734039"/>
<path d="M1793.73 78.1204C1794.34 77.6103 1794.33 76.6162 1793.72 75.8999C1793.1 75.1837 1792.1 75.0166 1791.49 75.5267C1790.88 76.0367 1790.89 77.0308 1791.51 77.7471C1792.12 78.4633 1793.12 78.6305 1793.73 78.1204Z" fill="#AD6156"/>
<path d="M1810.51 83.8449C1811.51 83.0077 1811.5 81.3725 1810.48 80.1925C1809.46 79.0126 1807.82 78.7348 1806.82 79.572C1805.82 80.4092 1805.83 82.0444 1806.85 83.2244C1807.87 84.4043 1809.51 84.6821 1810.51 83.8449Z" fill="#AD6156"/>
<path d="M67.572 54.3897C67.297 54.4384 67.0418 54.5631 66.8363 54.7494C66.6307 54.9357 66.4835 55.1758 66.4117 55.4415C66.3399 55.7072 66.3465 55.9876 66.4309 56.2497C66.5152 56.5119 66.6738 56.7449 66.8879 56.9215C67.1021 57.0981 67.3629 57.211 67.6399 57.247C67.917 57.2829 68.1986 57.2403 68.452 57.1243C68.7053 57.0083 68.9198 56.8237 69.0703 56.592C69.2207 56.3603 69.301 56.0912 69.3016 55.8163C69.261 55.4028 69.0569 55.0216 68.7334 54.7548C68.4099 54.4879 67.9928 54.3569 67.572 54.3897Z" fill="#59332F"/>
<path d="M81.7483 44.6002C81.2958 44.6805 80.876 44.8861 80.5381 45.1929C80.2001 45.4996 79.9579 45.8947 79.8399 46.332C79.7218 46.7692 79.7329 47.2305 79.8717 47.6619C80.0105 48.0932 80.2713 48.4767 80.6236 48.7674C80.9759 49.0581 81.405 49.244 81.8608 49.3033C82.3166 49.3627 82.7801 49.293 83.1971 49.1025C83.6141 48.9119 83.9673 48.6084 84.2154 48.2275C84.4634 47.8465 84.596 47.4039 84.5976 46.9515C84.5316 46.2699 84.1957 45.6412 83.6626 45.2013C83.1294 44.7613 82.4418 44.5454 81.7483 44.6002Z" fill="#59332F"/>
<path d="M163.469 32.6001C165.9 31.7548 167.199 29.1965 166.369 26.886C165.539 24.5755 162.896 23.3877 160.465 24.233C158.033 25.0784 156.735 27.6367 157.565 29.9472C158.394 32.2577 161.038 33.4454 163.469 32.6001Z" fill="#59332F"/>
<path d="M504.548 24.3491C506.979 23.5038 508.278 20.9455 507.448 18.635C506.618 16.3245 503.975 15.1367 501.544 15.9821C499.113 16.8274 497.814 19.3857 498.644 21.6962C499.473 24.0067 502.117 25.1945 504.548 24.3491Z" fill="#59332F"/>
<path d="M880.153 32.6216C882.585 31.7763 883.883 29.2179 883.054 26.9074C882.224 24.5969 879.58 23.4092 877.149 24.2545C874.718 25.0999 873.42 27.6582 874.249 29.9687C875.079 32.2792 877.722 33.4669 880.153 32.6216Z" fill="#59332F"/>
<path d="M1061.61 105.876C1064.04 105.031 1065.34 102.473 1064.51 100.162C1063.68 97.8518 1061.04 96.6641 1058.61 97.5094C1056.18 98.3547 1054.88 100.913 1055.71 103.224C1056.54 105.534 1059.18 106.722 1061.61 105.876Z" fill="#59332F"/>
<path d="M1728.42 53.6808C1730.18 53.0707 1731.11 51.2265 1730.52 49.5615C1729.92 47.8965 1728.01 47.0413 1726.26 47.6513C1724.5 48.2613 1723.56 50.1056 1724.16 51.7706C1724.76 53.4356 1726.67 54.2908 1728.42 53.6808Z" fill="#59332F"/>
<path d="M1600.63 94.5343C1602.38 93.9243 1603.32 92.08 1602.72 90.415C1602.12 88.75 1600.22 87.8948 1598.46 88.5048C1596.71 89.1149 1595.77 90.9591 1596.37 92.6241C1596.97 94.2891 1598.87 95.1443 1600.63 94.5343Z" fill="#59332F"/>
<path d="M1384.69 9.13392C1386.44 8.5239 1387.38 6.67964 1386.78 5.01465C1386.18 3.34966 1384.27 2.49443 1382.52 3.10445C1380.77 3.71447 1379.83 5.55873 1380.43 7.22372C1381.02 8.88871 1382.93 9.74394 1384.69 9.13392Z" fill="#59332F"/>
<path d="M1877.82 82.8458C1879.58 82.2358 1880.52 80.3916 1879.92 78.7266C1879.32 77.0616 1877.41 76.2063 1875.66 76.8164C1873.9 77.4264 1872.97 79.2706 1873.56 80.9356C1874.16 82.6006 1876.07 83.4559 1877.82 82.8458Z" fill="#59332F"/>
<path d="M1421.94 112.896C1423.7 112.286 1424.63 110.441 1424.04 108.776C1423.44 107.111 1421.53 106.256 1419.78 106.866C1418.02 107.476 1417.08 109.32 1417.68 110.985C1418.28 112.65 1420.19 113.506 1421.94 112.896Z" fill="#59332F"/>
<path d="M29.297 92.9224C31.7283 92.077 33.0267 89.5187 32.197 87.2082C31.3674 84.8977 28.724 83.71 26.2928 84.5553C23.8615 85.4007 22.5632 87.959 23.3928 90.2695C24.2224 92.58 26.8658 93.7677 29.297 92.9224Z" fill="#59332F"/>
<path d="M146.938 26.5567C147.75 26.2743 148.184 25.4183 147.906 24.6447C147.628 23.8711 146.745 23.4729 145.932 23.7553C145.12 24.0377 144.687 24.8937 144.965 25.6673C145.243 26.4409 146.126 26.8391 146.938 26.5567Z" fill="#59332F"/>
<path d="M15.4764 21.5459C16.2885 21.2636 16.7217 20.4075 16.444 19.634C16.1662 18.8604 15.2827 18.4622 14.4705 18.7446C13.6584 19.0269 13.2252 19.883 13.5029 20.6566C13.7807 21.4301 14.6642 21.8283 15.4764 21.5459Z" fill="#59332F"/>
<path d="M1095.2 77.9414C1096.02 77.6591 1096.45 76.803 1096.17 76.0295C1095.89 75.2559 1095.01 74.8577 1094.2 75.14C1093.38 75.4224 1092.95 76.2785 1093.23 77.0521C1093.51 77.8256 1094.39 78.2238 1095.2 77.9414Z" fill="#59332F"/>
<path d="M490.207 96.8155C491.019 96.5331 491.452 95.6771 491.174 94.9035C490.897 94.1299 490.013 93.7317 489.201 94.0141C488.389 94.2965 487.956 95.1525 488.233 95.9261C488.511 96.6997 489.395 97.0979 490.207 96.8155Z" fill="#59332F"/>
<path d="M1186.59 29.8526C1187.4 29.5702 1187.84 28.7142 1187.56 27.9406C1187.28 27.167 1186.4 26.7688 1185.59 27.0512C1184.77 27.3336 1184.34 28.1896 1184.62 28.9632C1184.9 29.7368 1185.78 30.135 1186.59 29.8526Z" fill="#59332F"/>
<path d="M985.208 29.9846C986.017 29.7049 986.451 28.853 986.175 28.0817C985.9 27.3105 985.021 26.9121 984.211 27.1918C983.401 27.4715 982.968 28.3234 983.243 29.0947C983.518 29.8659 984.398 30.2643 985.208 29.9846Z" fill="#59332F"/>
<path d="M1741.13 43.8614C1741.94 43.579 1742.38 42.723 1742.1 41.9494C1741.82 41.1758 1740.94 40.7776 1740.12 41.06C1739.31 41.3424 1738.88 42.1984 1739.16 42.972C1739.43 43.7456 1740.32 44.1438 1741.13 43.8614Z" fill="#59332F"/>
<path d="M1275.48 26.4268C1276.29 26.1444 1276.73 25.2884 1276.45 24.5148C1276.17 23.7412 1275.29 23.3431 1274.48 23.6254C1273.66 23.9078 1273.23 24.7638 1273.51 25.5374C1273.79 26.311 1274.67 26.7092 1275.48 26.4268Z" fill="#59332F"/>
<path d="M1869.31 16.3018C1870.12 16.0194 1870.56 15.1634 1870.28 14.3898C1870 13.6162 1869.12 13.218 1868.31 13.5004C1867.49 13.7828 1867.06 14.6388 1867.34 15.4124C1867.62 16.186 1868.5 16.5842 1869.31 16.3018Z" fill="#59332F"/>
<path d="M1587.52 80.3806C1588.6 80.0059 1589.17 78.8716 1588.81 77.8469C1588.44 76.8223 1587.27 76.2955 1586.19 76.6702C1585.11 77.0449 1584.54 78.1792 1584.9 79.2039C1585.27 80.2285 1586.44 80.7553 1587.52 80.3806Z" fill="#59332F"/>
<path d="M1798 23.2957C1799.08 22.921 1799.65 21.7866 1799.29 20.762C1798.92 19.7374 1797.75 19.2105 1796.67 19.5852C1795.59 19.9599 1795.02 21.0943 1795.38 22.1189C1795.75 23.1435 1796.92 23.6704 1798 23.2957Z" fill="#59332F"/>
<path d="M311.799 27.0909C312.611 26.8085 313.044 25.9525 312.766 25.1789C312.488 24.4053 311.605 24.0071 310.793 24.2895C309.981 24.5719 309.547 25.4279 309.825 26.2015C310.103 26.9751 310.987 27.3732 311.799 27.0909Z" fill="#59332F"/>
<path d="M232.598 87.6231C233.411 87.3407 233.844 86.4847 233.566 85.7111C233.288 84.9375 232.405 84.5393 231.593 84.8217C230.78 85.1041 230.347 85.9601 230.625 86.7337C230.903 87.5073 231.786 87.9055 232.598 87.6231Z" fill="#59332F"/>
<path d="M128.049 79.877C128.861 79.5946 129.294 78.7386 129.016 77.965C128.738 77.1914 127.855 76.7932 127.043 77.0756C126.231 77.358 125.797 78.214 126.075 78.9876C126.353 79.7612 127.237 80.1594 128.049 79.877Z" fill="#59332F"/>
<path d="M776.795 23.8001C777.605 23.5203 778.038 22.6684 777.763 21.8972C777.488 21.1259 776.609 20.7275 775.799 21.0072C774.989 21.2869 774.556 22.1389 774.831 22.9101C775.106 23.6813 775.986 24.0798 776.795 23.8001Z" fill="#59332F"/>
<path d="M860.268 21.5684C861.081 21.286 861.514 20.43 861.236 19.6564C860.958 18.8828 860.075 18.4846 859.263 18.767C858.45 19.0494 858.017 19.9054 858.295 20.679C858.573 21.4526 859.456 21.8508 860.268 21.5684Z" fill="#59332F"/>
<path d="M69.3022 55.8163C69.3658 56.1663 69.3184 56.5272 69.1663 56.8498C69.0143 57.1724 68.7649 57.4412 68.4522 57.6194C68.1395 57.7977 67.7787 57.877 67.4186 57.8463C67.0586 57.8157 66.7168 57.6767 66.4398 57.4483C66.1629 57.2198 65.9641 56.913 65.8705 56.5695C65.777 56.226 65.7932 55.8625 65.9169 55.5283C66.0407 55.1942 66.266 54.9057 66.5622 54.702C66.8584 54.4983 67.2112 54.3892 67.5726 54.3897C67.9934 54.3569 68.4105 54.4879 68.734 54.7548C69.0575 55.0216 69.2616 55.4028 69.3022 55.8163Z" fill="#AD6156"/>
<path d="M1081.12 40.1548C1082.08 40.1548 1082.85 39.5161 1082.85 38.7283C1082.85 37.9404 1082.08 37.3018 1081.12 37.3018C1080.17 37.3018 1079.39 37.9404 1079.39 38.7283C1079.39 39.5161 1080.17 40.1548 1081.12 40.1548Z" fill="#AD6156"/>
<path d="M489.699 70.2407C490.655 70.2407 491.429 69.6021 491.429 68.8142C491.429 68.0264 490.655 67.3877 489.699 67.3877C488.744 67.3877 487.97 68.0264 487.97 68.8142C487.97 69.6021 488.744 70.2407 489.699 70.2407Z" fill="#AD6156"/>
<path d="M84.5983 46.9515C84.7008 47.5259 84.6214 48.1175 84.3707 48.646C84.12 49.1745 83.7101 49.6144 83.1968 49.9059C82.6834 50.1975 82.0914 50.3266 81.5009 50.2758C80.9105 50.225 80.3502 49.9967 79.896 49.6219C79.4419 49.2472 79.1158 48.744 78.9621 48.1807C78.8084 47.6174 78.8345 47.0212 79.0368 46.473C79.2391 45.9247 79.6078 45.451 80.093 45.116C80.5781 44.781 81.1563 44.6009 81.749 44.6002C82.4425 44.5454 83.1302 44.7613 83.6633 45.2013C84.1964 45.6412 84.5323 46.2699 84.5983 46.9515Z" fill="#AD6156"/>
<path d="M1645.29 50.9273C1646.24 50.9273 1647.02 50.2886 1647.02 49.5008C1647.02 48.7129 1646.24 48.0742 1645.29 48.0742C1644.33 48.0742 1643.56 48.7129 1643.56 49.5008C1643.56 50.2886 1644.33 50.9273 1645.29 50.9273Z" fill="#AD6156"/>
<path d="M1659.46 42.9681C1661.04 42.9681 1662.31 41.9198 1662.31 40.6266C1662.31 39.3335 1661.04 38.2852 1659.46 38.2852C1657.89 38.2852 1656.61 39.3335 1656.61 40.6266C1656.61 41.9198 1657.89 42.9681 1659.46 42.9681Z" fill="#AD6156"/>
<path d="M69.3022 55.8163C69.3658 56.1663 69.3184 56.5272 69.1663 56.8498C69.0143 57.1724 68.7649 57.4412 68.4522 57.6194C68.1395 57.7977 67.7787 57.877 67.4186 57.8463C67.0586 57.8157 66.7168 57.6767 66.4398 57.4483C66.1629 57.2198 65.9641 56.913 65.8705 56.5695C65.777 56.226 65.7932 55.8625 65.9169 55.5283C66.0407 55.1942 66.266 54.9057 66.5622 54.702C66.8584 54.4983 67.2112 54.3892 67.5726 54.3897C67.9934 54.3569 68.4105 54.4879 68.734 54.7548C69.0575 55.0216 69.2616 55.4028 69.3022 55.8163Z" fill="#C25D38"/>
<path d="M84.5983 46.9515C84.7008 47.5259 84.6214 48.1175 84.3707 48.646C84.12 49.1745 83.7101 49.6144 83.1968 49.9059C82.6834 50.1975 82.0914 50.3266 81.5009 50.2758C80.9105 50.225 80.3502 49.9967 79.896 49.6219C79.4419 49.2472 79.1158 48.744 78.9621 48.1807C78.8084 47.6174 78.8345 47.0212 79.0368 46.473C79.2391 45.9247 79.6078 45.451 80.093 45.116C80.5781 44.781 81.1563 44.6009 81.749 44.6002C82.4425 44.5454 83.1302 44.7613 83.6633 45.2013C84.1964 45.6412 84.5323 46.2699 84.5983 46.9515Z" fill="#C25D38"/>
<path d="M1920 124V116H0V124H1920ZM1920 116H0V124H1920V116Z" fill="#59332F"/>
<g filter="url(#filter0_i_1_12517)">
<path d="M1920 129.824V118H0V130C4 130 7.45 129.464 8.82 128.896C9.82 129.384 12.17 129.76 15.19 129.912C16.19 129.968 17.29 130 18.41 130C19.53 130 20.61 130 21.62 129.912C23.6584 129.884 25.6803 129.614 27.62 129.112C30.5129 129.734 33.5066 130.004 36.5 129.912C40.78 129.912 44.42 129.488 45.88 128.896C46.88 129.384 49.22 129.76 52.25 129.912C53.25 129.968 54.33 130 55.46 130C56.59 130 57.76 130 58.8 129.912C61.95 129.736 64.38 129.328 65.19 128.808C66.49 129.448 70.29 129.912 74.8 129.912C79.08 129.912 82.72 129.488 84.17 128.896C85.17 129.384 87.51 129.76 90.53 129.912C91.53 129.968 92.64 130 93.76 130C94.88 130 95.95 130 96.96 129.912C98.9985 129.884 101.021 129.615 102.96 129.112C105.856 129.733 108.853 130.003 111.85 129.912C116.13 129.912 119.77 129.488 121.23 128.896C122.23 129.384 124.58 129.76 127.6 129.912C128.6 129.968 129.69 130 130.81 130C131.93 130 133.05 130 134.06 129.912C137.12 129.752 139.5 129.36 140.45 128.872C141.85 129.48 145.53 129.912 149.87 129.912C154.21 129.912 157.8 129.488 159.25 128.896C160.25 129.384 162.59 129.76 165.61 129.912C166.61 129.968 167.72 130 168.84 130C169.96 130 171.03 130 172.03 129.912C174.068 129.884 176.09 129.614 178.03 129.112C180.927 129.733 183.923 130.002 186.92 129.912C191.2 129.912 194.86 129.488 196.29 128.896C197.29 129.384 199.65 129.76 202.67 129.912C203.67 129.968 204.76 130 205.88 130C207 130 208.2 130 209.23 129.912C212.38 129.736 214.79 129.328 215.63 128.808C216.9 129.448 220.71 129.912 225.21 129.912C229.49 129.912 233.14 129.488 234.59 128.896C235.59 129.384 237.93 129.76 240.96 129.912C241.96 129.968 243.04 130 244.18 130C245.32 130 246.37 130 247.37 129.912C249.409 129.887 251.431 129.617 253.37 129.112C256.263 129.733 259.257 130.003 262.25 129.912C266.54 129.912 270.19 129.488 271.63 128.896C272.63 129.384 274.99 129.76 278.01 129.912C279.01 129.968 280.08 130 281.22 130C282.36 130 283.44 130 284.46 129.912C287.46 129.752 289.89 129.376 290.84 128.88C292.26 129.48 295.93 129.912 300.25 129.912C304.57 129.912 308.19 129.488 309.63 128.896C310.63 129.384 312.98 129.76 316 129.912C317 129.968 318.08 130 319.21 130C320.34 130 321.42 130 322.42 129.912C324.458 129.884 326.48 129.614 328.42 129.112C331.316 129.734 334.313 130.004 337.31 129.912C341.59 129.912 345.23 129.488 346.68 128.896C347.68 129.384 350.02 129.76 353.04 129.912C354.04 129.968 355.15 130 356.27 130C357.39 130 358.57 130 359.63 129.912C362.76 129.736 365.18 129.328 366 128.808C367.29 129.448 371.1 129.912 375.6 129.912C379.88 129.912 383.53 129.488 384.98 128.896C385.98 129.384 388.32 129.76 391.35 129.912C392.35 129.968 393.43 130 394.57 130C395.71 130 396.76 130 397.76 129.912C399.798 129.884 401.82 129.614 403.76 129.112C406.653 129.733 409.647 130.003 412.64 129.912C416.93 129.912 420.57 129.488 422.02 128.896C423.02 129.384 425.38 129.76 428.4 129.912C429.4 129.968 430.47 130 431.61 130C432.75 130 433.85 130 434.87 129.912C437.92 129.752 440.32 129.36 441.24 128.872C442.65 129.48 446.32 129.912 450.67 129.912C455.02 129.912 458.59 129.488 460.05 128.896C461.05 129.384 463.39 129.76 466.42 129.912C467.42 129.968 468.5 130 469.63 130C470.76 130 471.82 130 472.83 129.912C474.868 129.884 476.89 129.614 478.83 129.112C481.723 129.733 484.717 130.003 487.71 129.912C491.99 129.912 495.65 129.488 497.09 128.896C498.09 129.384 500.44 129.76 503.46 129.912C504.46 129.968 505.54 130 506.68 130C507.82 130 508.98 130 510.03 129.912C513.18 129.736 515.59 129.328 516.42 128.808C517.7 129.448 521.5 129.912 526.01 129.912C530.29 129.912 533.93 129.488 535.39 128.896C536.34 129.384 538.73 129.76 541.75 129.912C542.75 129.968 543.85 130 544.97 130C546.09 130 547.16 130 548.17 129.912C550.208 129.884 552.23 129.615 554.17 129.112C557.063 129.733 560.057 130.003 563.05 129.912C567.33 129.912 570.99 129.488 572.43 128.896C573.43 129.384 575.78 129.76 578.8 129.912C579.8 129.968 580.9 130 582.01 130C583.12 130 584.28 130 585.32 129.912C588.5 129.736 590.93 129.32 591.76 128.8C593.23 129.448 597.61 129.912 602.13 129.912C606.41 129.912 610.05 129.488 611.51 128.896C612.51 129.384 614.85 129.76 617.87 129.912C618.87 129.968 619.98 130 621.09 130C622.2 130 623.28 130 624.29 129.912C626.328 129.884 628.35 129.615 630.29 129.112C633.183 129.733 636.177 130.003 639.17 129.912C643.45 129.912 647.11 129.488 648.55 128.896C649.55 129.384 651.91 129.76 654.93 129.912C655.93 129.968 657.02 130 658.14 130C659.26 130 660.45 130 661.49 129.912C664.64 129.736 667.05 129.328 667.88 128.808C669.16 129.448 672.96 129.912 677.47 129.912C681.75 129.912 685.39 129.488 686.85 128.896C687.85 129.384 690.2 129.76 693.22 129.912C694.22 129.968 695.3 130 696.43 130C697.56 130 698.62 130 699.63 129.912C701.669 129.886 703.691 129.616 705.63 129.112C708.53 129.733 711.53 130.003 714.53 129.912C718.81 129.912 722.45 129.488 723.91 128.896C724.91 129.384 727.24 129.76 730.26 129.912C731.26 129.968 732.37 130 733.49 130C734.61 130 735.71 130 736.73 129.912C739.79 129.752 742.18 129.36 743.11 128.872C744.52 129.48 748.21 129.912 752.54 129.912C756.87 129.912 760.46 129.488 761.91 128.896C762.91 129.384 765.27 129.76 768.29 129.912C769.29 129.968 770.37 130 771.5 130C772.63 130 773.69 130 774.7 129.912C776.739 129.887 778.761 129.617 780.7 129.112C783.6 129.733 786.6 130.002 789.6 129.912C793.89 129.912 797.53 129.488 798.98 128.896C799.98 129.384 802.32 129.76 805.34 129.912C806.34 129.968 807.45 130 808.57 130C809.69 130 810.87 130 811.92 129.912C815.06 129.736 817.47 129.328 818.3 128.808C819.59 129.448 823.4 129.912 827.88 129.912C832.17 129.912 835.88 129.488 837.26 128.896C838.26 129.384 840.62 129.76 843.64 129.912C844.64 129.968 845.73 130 846.85 130C847.97 130 849.05 130 850.06 129.912C852.098 129.884 854.12 129.614 856.06 129.112C858.953 129.733 861.947 130.003 864.94 129.912C869.22 129.912 872.87 129.488 874.32 128.896C875.32 129.384 877.66 129.76 880.7 129.912C881.7 129.968 882.77 130 883.91 130C885.05 130 886.13 130 887.13 129.912C890.19 129.752 892.58 129.376 893.53 128.88C894.95 129.48 898.62 129.912 902.94 129.912C907.26 129.912 910.86 129.488 912.31 128.896C913.31 129.384 915.65 129.76 918.69 129.912C919.69 129.968 920.77 130 921.9 130C923.03 130 924.09 130 925.1 129.912C927.138 129.883 929.16 129.613 931.1 129.112C933.993 129.733 936.987 130.003 939.98 129.912C944.26 129.912 947.92 129.488 949.36 128.896C950.36 129.384 952.71 129.76 955.73 129.912C956.73 129.968 957.81 130 958.94 130C960.07 130 961.24 130 962.3 129.912C965.45 129.736 967.86 129.328 968.69 128.808C969.97 129.448 973.77 129.912 978.27 129.912C982.56 129.912 986.2 129.488 987.65 128.896C988.65 129.384 991.01 129.76 994.03 129.912C995.03 129.968 996.12 130 997.24 130C998.36 130 999.43 130 1000.43 129.912C1002.47 129.886 1004.49 129.616 1006.43 129.112C1009.33 129.733 1012.33 130.002 1015.33 129.912C1019.61 129.912 1023.26 129.488 1024.71 128.896C1025.71 129.384 1028.05 129.76 1031.09 129.912C1032.09 129.968 1033.16 130 1034.3 130C1035.44 130 1036.52 130 1037.54 129.912C1040.54 129.752 1042.97 129.36 1043.92 128.872C1045.32 129.48 1049.01 129.912 1053.34 129.912C1057.67 129.912 1061.27 129.488 1062.72 128.896C1063.72 129.384 1066.08 129.76 1069.1 129.912C1070.1 129.968 1071.19 130 1072.31 130C1073.43 130 1074.5 130 1075.5 129.912C1077.54 129.885 1079.56 129.616 1081.5 129.112C1084.4 129.733 1087.4 130.003 1090.4 129.912C1094.68 129.912 1098.32 129.488 1099.78 128.896C1100.78 129.384 1103.12 129.76 1106.15 129.912C1107.15 129.968 1108.23 130 1109.36 130C1110.49 130 1111.67 130 1112.7 129.912C1115.85 129.736 1118.26 129.328 1119.09 128.808C1120.39 129.448 1124.19 129.912 1128.68 129.912C1132.96 129.912 1136.62 129.488 1138.06 128.896C1139.06 129.384 1141.41 129.76 1144.43 129.912C1145.43 129.968 1146.51 130 1147.65 130C1148.79 130 1149.85 130 1150.86 129.912C1152.9 129.884 1154.92 129.614 1156.86 129.112C1159.75 129.734 1162.75 130.004 1165.74 129.912C1170.02 129.912 1173.66 129.488 1175.12 128.896C1176.12 129.384 1178.46 129.76 1181.48 129.912C1182.48 129.968 1183.59 130 1184.7 130C1185.81 130 1186.96 130 1187.98 129.912C1191.08 129.744 1193.47 129.352 1194.37 128.848C1195.73 129.464 1199.47 129.912 1203.84 129.912C1208.21 129.912 1211.78 129.488 1213.22 128.896C1214.22 129.384 1216.58 129.76 1219.6 129.912C1220.6 129.968 1221.67 130 1222.81 130C1223.95 130 1225.01 130 1226.02 129.912C1228.06 129.884 1230.08 129.614 1232.02 129.112C1234.91 129.733 1237.91 130.003 1240.9 129.912C1245.18 129.912 1248.83 129.488 1250.28 128.896C1251.28 129.384 1253.62 129.76 1256.64 129.912C1257.64 129.968 1258.75 130 1259.87 130C1260.99 130 1262.17 130 1263.22 129.912C1266.35 129.736 1268.78 129.328 1269.6 128.808C1270.89 129.448 1274.69 129.912 1279.2 129.912C1283.48 129.912 1287.12 129.488 1288.58 128.896C1289.58 129.384 1291.92 129.76 1294.95 129.912C1295.95 129.968 1297.03 130 1298.16 130C1299.29 130 1300.35 130 1301.36 129.912C1303.4 129.884 1305.42 129.614 1307.36 129.112C1310.25 129.733 1313.25 130.003 1316.24 129.912C1320.52 129.912 1324.17 129.488 1325.62 128.896C1326.62 129.384 1328.97 129.76 1331.99 129.912C1332.99 129.968 1334.07 130 1335.21 130C1336.35 130 1337.44 130 1338.46 129.912C1341.52 129.752 1343.91 129.36 1344.84 128.872C1346.25 129.48 1349.92 129.912 1354.27 129.912C1358.62 129.912 1362.19 129.488 1363.64 128.896C1364.64 129.384 1366.98 129.76 1370.02 129.912C1371.02 129.968 1372.1 130 1373.23 130C1374.36 130 1375.42 130 1376.43 129.912C1378.47 129.883 1380.49 129.613 1382.43 129.112C1385.32 129.733 1388.32 130.003 1391.31 129.912C1395.59 129.912 1399.25 129.488 1400.69 128.896C1401.69 129.384 1404.04 129.76 1407.06 129.912C1408.06 129.968 1409.14 130 1410.27 130C1411.4 130 1412.57 130 1413.63 129.912C1416.78 129.736 1419.19 129.328 1420.02 128.808C1421.3 129.448 1425.1 129.912 1429.6 129.912C1433.89 129.912 1437.53 129.488 1438.98 128.896C1439.98 129.384 1442.32 129.76 1445.34 129.912C1446.34 129.968 1447.45 130 1448.57 130C1449.69 130 1450.76 130 1451.76 129.912C1453.8 129.886 1455.82 129.616 1457.76 129.112C1460.66 129.733 1463.65 130.002 1466.65 129.912C1470.93 129.912 1474.59 129.488 1476.03 128.896C1477.03 129.384 1479.38 129.76 1482.4 129.912C1483.4 129.968 1484.49 130 1485.61 130C1486.73 130 1487.83 130 1488.85 129.912C1491.91 129.752 1494.3 129.376 1495.23 128.88C1496.65 129.48 1500.33 129.912 1504.64 129.912C1508.95 129.912 1512.58 129.488 1514.02 128.896C1515.02 129.384 1517.37 129.76 1520.39 129.912C1521.39 129.968 1522.49 130 1523.6 130C1524.71 130 1525.81 130 1526.82 129.912C1528.86 129.883 1530.88 129.613 1532.82 129.112C1535.71 129.734 1538.71 130.004 1541.7 129.912C1545.98 129.912 1549.62 129.488 1551.08 128.896C1552.08 129.384 1554.42 129.76 1557.45 129.912C1558.45 129.968 1559.53 130 1560.66 130C1561.79 130 1562.96 130 1564 129.912C1567.15 129.736 1569.58 129.328 1570.39 128.808C1571.69 129.448 1575.49 129.912 1579.99 129.912C1584.28 129.912 1587.92 129.488 1589.37 128.896C1590.37 129.384 1592.71 129.76 1595.73 129.912C1596.73 129.968 1597.84 130 1598.96 130C1600.08 130 1601.15 130 1602.15 129.912C1604.19 129.884 1606.21 129.615 1608.15 129.112C1611.05 129.733 1614.04 130.003 1617.04 129.912C1621.32 129.912 1624.96 129.488 1626.42 128.896C1627.42 129.384 1629.77 129.76 1632.79 129.912C1633.79 129.968 1634.88 130 1636 130C1637.12 130 1638.24 130 1639.24 129.912C1642.31 129.752 1644.69 129.36 1645.64 128.872C1647.04 129.48 1650.72 129.912 1655.06 129.912C1659.4 129.912 1662.99 129.488 1664.44 128.896C1665.44 129.384 1667.78 129.76 1670.8 129.912C1671.8 129.968 1672.91 130 1674.03 130C1675.15 130 1676.22 130 1677.22 129.912C1679.26 129.884 1681.28 129.614 1683.22 129.112C1686.11 129.733 1689.11 130.003 1692.1 129.912C1696.39 129.912 1700.03 129.488 1701.48 128.896C1702.48 129.384 1704.84 129.76 1707.86 129.912C1708.86 129.968 1709.95 130 1711.07 130C1712.19 130 1713.39 130 1714.42 129.912C1717.57 129.736 1719.98 129.328 1720.81 128.808C1722.09 129.448 1725.9 129.912 1730.4 129.912C1734.68 129.912 1738.33 129.488 1739.78 128.896C1740.78 129.384 1743.12 129.76 1746.15 129.912C1747.15 129.968 1748.23 130 1749.37 130C1750.51 130 1751.55 130 1752.56 129.912C1754.6 129.887 1756.62 129.617 1758.56 129.112C1761.45 129.733 1764.45 130.003 1767.44 129.912C1771.73 129.912 1775.38 129.488 1776.82 128.896C1777.82 129.384 1780.18 129.76 1783.2 129.912C1784.2 129.968 1785.27 130 1786.41 130C1787.55 130 1788.68 130 1789.7 129.912C1792.91 129.736 1795.35 129.32 1796.15 128.792C1797.61 129.448 1801.99 129.912 1806.52 129.912C1810.8 129.912 1814.45 129.488 1815.9 128.896C1816.9 129.384 1819.24 129.76 1822.28 129.912C1823.28 129.968 1824.35 130 1825.49 130C1826.63 130 1827.68 130 1828.68 129.912C1830.72 129.884 1832.74 129.614 1834.68 129.112C1837.58 129.733 1840.57 130.002 1843.57 129.912C1847.85 129.912 1851.51 129.488 1852.94 128.896C1853.94 129.384 1856.3 129.76 1859.32 129.912C1860.32 129.968 1861.4 130 1862.53 130C1863.66 130 1864.83 130 1865.88 129.912C1869.03 129.736 1871.44 129.328 1872.28 128.808C1873.55 129.448 1877.36 129.912 1881.86 129.912C1886.14 129.912 1889.79 129.488 1891.24 128.896C1892.24 129.384 1894.58 129.76 1897.61 129.912C1898.61 129.968 1899.71 130 1900.83 130C1901.95 130 1903.01 130 1904.02 129.912C1906.06 129.885 1908.08 129.616 1910.02 129.112C1912.91 129.733 1915.91 130.003 1918.9 129.912C1919.27 129.891 1919.63 129.861 1920 129.824Z" fill="#FE9846"/>
</g>
<path d="M46.5703 126.576C49.0556 126.576 51.0703 125.233 51.0703 123.576C51.0703 121.919 49.0556 120.576 46.5703 120.576C44.085 120.576 42.0703 121.919 42.0703 123.576C42.0703 125.233 44.085 126.576 46.5703 126.576Z" fill="#FCD592" fill-opacity="0.4"/>
<path d="M115 121.256C112.29 121.256 110.17 122.464 110.17 124C110.17 125.536 112.29 126.744 115 126.744C117.71 126.744 119.83 125.536 119.83 124C119.83 122.464 117.75 121.256 115 121.256Z" fill="#FCD592" fill-opacity="0.4"/>
<path d="M261.08 119.144C258.38 119.144 256.26 120.344 256.26 121.88C256.26 123.416 258.38 124.624 261.08 124.624C263.78 124.624 265.92 123.416 265.92 121.88C265.92 120.344 263.79 119.144 261.08 119.144Z" fill="#FCD592" fill-opacity="0.4"/>
<path d="M518.45 120.568C515.74 120.568 513.62 121.776 513.62 123.312C513.62 124.848 515.74 126.048 518.45 126.048C521.16 126.048 523.28 124.848 523.28 123.312C523.28 121.776 521.15 120.568 518.45 120.568Z" fill="#FCD592" fill-opacity="0.4"/>
<path d="M725 124.112C727.667 124.112 729.83 122.883 729.83 121.368C729.83 119.853 727.667 118.624 725 118.624C722.332 118.624 720.17 119.853 720.17 121.368C720.17 122.883 722.332 124.112 725 124.112Z" fill="#FCD592" fill-opacity="0.4"/>
<path d="M960 118.632C957.29 118.632 955.17 119.832 955.17 121.368C955.17 122.904 957.29 124.112 960 124.112C962.71 124.112 964.83 122.904 964.83 121.368C964.83 119.832 962.71 118.632 960 118.632Z" fill="#FCD592" fill-opacity="0.4"/>
<path d="M1107.72 118.632C1105.02 118.632 1102.89 119.832 1102.89 121.368C1102.89 122.904 1105.02 124.112 1107.72 124.112C1110.42 124.112 1112.55 122.904 1112.55 121.368C1112.55 119.832 1110.43 118.632 1107.72 118.632Z" fill="#FCD592" fill-opacity="0.4"/>
<path d="M1439.13 120.568C1436.42 120.568 1434.3 121.776 1434.3 123.312C1434.3 124.848 1436.42 126.048 1439.13 126.048C1441.84 126.048 1443.96 124.848 1443.96 123.312C1443.96 121.776 1441.84 120.568 1439.13 120.568Z" fill="#FCD592" fill-opacity="0.4"/>
<path d="M1685.13 119.144C1682.42 119.144 1680.3 120.344 1680.3 121.88C1680.3 123.416 1682.42 124.624 1685.13 124.624C1687.84 124.624 1689.96 123.416 1689.96 121.88C1689.96 120.344 1687.84 119.144 1685.13 119.144Z" fill="#FCD592" fill-opacity="0.4"/>
<path d="M1826.09 120.568C1823.39 120.568 1821.26 121.776 1821.26 123.312C1821.26 124.848 1823.39 126.048 1826.09 126.048C1828.79 126.048 1830.92 124.848 1830.92 123.312C1830.92 121.776 1828.8 120.568 1826.09 120.568Z" fill="#FCD592" fill-opacity="0.4"/>
<path d="M1901.51 119.144C1898.8 119.144 1896.68 120.344 1896.68 121.88C1896.68 123.416 1898.8 124.624 1901.51 124.624C1904.22 124.624 1906.34 123.416 1906.34 121.88C1906.34 120.344 1904.22 119.144 1901.51 119.144Z" fill="#FCD592" fill-opacity="0.4"/>
<path d="M1288.49 120.568C1285.78 120.568 1283.66 121.776 1283.66 123.312C1283.66 124.848 1285.78 126.048 1288.49 126.048C1291.2 126.048 1293.32 124.848 1293.32 123.312C1293.32 121.776 1291.2 120.568 1288.49 120.568Z" fill="#FCD592" fill-opacity="0.4"/>
<path d="M196 118H178.64C178.64 120.624 182.44 122.68 187.3 122.68C192.16 122.68 196 120.624 196 118Z" fill="#FCD592" fill-opacity="0.4"/>
<path d="M290.429 119.432C290.422 118.935 290.275 118.445 289.999 118H273.519C273.246 118.445 273.105 118.936 273.109 119.432C273.109 122.056 276.909 124.112 281.769 124.112C286.629 124.112 290.429 122.056 290.429 119.432Z" fill="#FCD592" fill-opacity="0.4"/>
<path d="M490.6 119.432C490.603 118.937 490.466 118.447 490.2 118H473.69C473.417 118.445 473.276 118.936 473.28 119.432C473.28 122.056 477.08 124.112 481.94 124.112C486.8 124.112 490.6 122.056 490.6 119.432Z" fill="#FCD592" fill-opacity="0.4"/>
<path d="M754.24 119.432C754.24 118.937 754.104 118.448 753.84 118H737.33C737.056 118.445 736.916 118.936 736.92 119.432C736.92 122.056 740.72 124.112 745.58 124.112C750.44 124.112 754.24 122.056 754.24 119.432Z" fill="#FCD592" fill-opacity="0.4"/>
<path d="M1240.88 118H1223.56C1223.56 120.624 1227.36 122.68 1232.22 122.68C1237.08 122.68 1240.88 120.624 1240.88 118Z" fill="#FCD592" fill-opacity="0.4"/>
<path d="M1472 119.432C1472 118.937 1471.86 118.448 1471.6 118H1455.09C1454.82 118.446 1454.68 118.936 1454.68 119.432C1454.68 122.056 1458.48 124.112 1463.34 124.112C1468.2 124.112 1472 122.056 1472 119.432Z" fill="#FCD592" fill-opacity="0.4"/>
<path d="M1674.73 119.432C1674.73 118.937 1674.6 118.447 1674.33 118H1657.82C1657.55 118.445 1657.41 118.936 1657.41 119.432C1657.41 122.056 1661.21 124.112 1666.07 124.112C1670.93 124.112 1674.73 122.056 1674.73 119.432Z" fill="#FCD592" fill-opacity="0.4"/>
<path d="M1854.47 119.944C1854.46 119.25 1854.2 118.574 1853.71 118H1837.92C1837.42 118.571 1837.15 119.249 1837.15 119.944C1837.15 122.568 1840.95 124.624 1845.81 124.624C1850.67 124.624 1854.47 122.568 1854.47 119.944Z" fill="#FCD592" fill-opacity="0.4"/>
<path d="M940.719 119.432C940.722 118.937 940.585 118.447 940.319 118H923.809C923.536 118.445 923.395 118.936 923.399 119.432C923.399 122.056 927.199 124.112 932.059 124.112C936.919 124.112 940.719 122.056 940.719 119.432Z" fill="#FCD592" fill-opacity="0.4"/>
<path d="M1826.09 125.256C1828.2 125.256 1829.92 124.386 1829.92 123.312C1829.92 122.239 1828.2 121.368 1826.09 121.368C1823.97 121.368 1822.26 122.239 1822.26 123.312C1822.26 124.386 1823.97 125.256 1826.09 125.256Z" fill="#B5503C"/>
<path d="M1901.51 123.824C1903.63 123.824 1905.34 122.953 1905.34 121.88C1905.34 120.806 1903.63 119.936 1901.51 119.936C1899.4 119.936 1897.68 120.806 1897.68 121.88C1897.68 122.953 1899.4 123.824 1901.51 123.824Z" fill="#B5503C"/>
<path d="M1853.47 119.944C1853.45 119.218 1853.1 118.524 1852.47 118H1839.21C1838.58 118.524 1838.23 119.218 1838.21 119.944C1838.21 122.08 1841.64 123.824 1845.87 123.824C1850.1 123.824 1853.47 122.08 1853.47 119.944Z" fill="#B5503C"/>
<path d="M1685.13 123.824C1687.25 123.824 1688.96 122.953 1688.96 121.88C1688.96 120.806 1687.25 119.936 1685.13 119.936C1683.02 119.936 1681.3 120.806 1681.3 121.88C1681.3 122.953 1683.02 123.824 1685.13 123.824Z" fill="#B5503C"/>
<path d="M1673.73 119.432C1673.72 118.923 1673.54 118.427 1673.19 118H1659C1658.65 118.427 1658.47 118.923 1658.46 119.432C1658.46 121.576 1661.89 123.312 1666.12 123.312C1670.35 123.312 1673.73 121.576 1673.73 119.432Z" fill="#B5503C"/>
<path d="M1439.13 125.256C1441.25 125.256 1442.96 124.386 1442.96 123.312C1442.96 122.239 1441.25 121.368 1439.13 121.368C1437.02 121.368 1435.3 122.239 1435.3 123.312C1435.3 124.386 1437.02 125.256 1439.13 125.256Z" fill="#B5503C"/>
<path d="M1471 119.432C1470.99 118.923 1470.81 118.427 1470.46 118H1456.22C1455.87 118.427 1455.69 118.923 1455.68 119.432C1455.68 121.576 1459.11 123.312 1463.34 123.312C1467.57 123.312 1471 121.576 1471 119.432Z" fill="#B5503C"/>
<path d="M1288.49 125.256C1290.61 125.256 1292.32 124.386 1292.32 123.312C1292.32 122.239 1290.61 121.368 1288.49 121.368C1286.37 121.368 1284.66 122.239 1284.66 123.312C1284.66 124.386 1286.37 125.256 1288.49 125.256Z" fill="#B5503C"/>
<path d="M1239.88 118H1224.56C1224.56 120.144 1227.99 121.88 1232.22 121.88C1236.45 121.88 1239.88 120.144 1239.88 118Z" fill="#B5503C"/>
<path d="M1107.72 123.312C1109.84 123.312 1111.55 122.441 1111.55 121.368C1111.55 120.294 1109.84 119.424 1107.72 119.424C1105.61 119.424 1103.89 120.294 1103.89 121.368C1103.89 122.441 1105.61 123.312 1107.72 123.312Z" fill="#B5503C"/>
<path d="M960 123.312C962.115 123.312 963.83 122.441 963.83 121.368C963.83 120.294 962.115 119.424 960 119.424C957.885 119.424 956.17 120.294 956.17 121.368C956.17 122.441 957.885 123.312 960 123.312Z" fill="#B5503C"/>
<path d="M725 123.312C727.115 123.312 728.83 122.441 728.83 121.368C728.83 120.294 727.115 119.424 725 119.424C722.885 119.424 721.17 120.294 721.17 121.368C721.17 122.441 722.885 123.312 725 123.312Z" fill="#B5503C"/>
<path d="M518.45 125.256C520.565 125.256 522.28 124.386 522.28 123.312C522.28 122.239 520.565 121.368 518.45 121.368C516.335 121.368 514.62 122.239 514.62 123.312C514.62 124.386 516.335 125.256 518.45 125.256Z" fill="#B5503C"/>
<path d="M46.5703 125.576C48.5033 125.576 50.0703 124.681 50.0703 123.576C50.0703 122.472 48.5033 121.576 46.5703 121.576C44.6373 121.576 43.0703 122.472 43.0703 123.576C43.0703 124.681 44.6373 125.576 46.5703 125.576Z" fill="#B5503C"/>
<path d="M115.04 125.944C117.155 125.944 118.87 125.073 118.87 124C118.87 122.926 117.155 122.056 115.04 122.056C112.925 122.056 111.21 122.926 111.21 124C111.21 125.073 112.925 125.944 115.04 125.944Z" fill="#B5503C"/>
<path d="M261.09 119.944C258.97 119.944 257.26 120.808 257.26 121.88C257.26 122.952 258.97 123.824 261.09 123.824C263.21 123.824 264.91 122.952 264.91 121.88C264.91 120.808 263.2 119.944 261.09 119.944Z" fill="#B5503C"/>
<path d="M187.3 121.88C191.53 121.88 194.96 120.144 194.96 118H179.64C179.64 120.144 183.07 121.88 187.3 121.88Z" fill="#B5503C"/>
<path d="M288.889 118H274.649C274.303 118.427 274.116 118.923 274.109 119.432C274.109 121.576 277.539 123.312 281.769 123.312C285.999 123.312 289.429 121.576 289.429 119.432C289.423 118.923 289.236 118.427 288.889 118Z" fill="#B5503C"/>
<path d="M489.6 119.432C489.594 118.923 489.407 118.427 489.06 118H474.82C474.474 118.427 474.287 118.923 474.28 119.432C474.28 121.576 477.71 123.312 481.94 123.312C486.17 123.312 489.6 121.576 489.6 119.432Z" fill="#B5503C"/>
<path d="M753.24 119.432C753.233 118.923 753.046 118.427 752.7 118H738.46C738.114 118.427 737.926 118.923 737.92 119.432C737.92 121.576 741.35 123.312 745.58 123.312C749.81 123.312 753.24 121.576 753.24 119.432Z" fill="#B5503C"/>
<path d="M939.719 119.432C939.713 118.923 939.526 118.427 939.179 118H924.939C924.593 118.427 924.406 118.923 924.399 119.432C924.399 121.576 927.829 123.312 932.059 123.312C936.289 123.312 939.719 121.576 939.719 119.432Z" fill="#B5503C"/>
<defs>
<filter id="filter0_i_1_12517" x="0" y="118" width="1920" height="16" filterUnits="userSpaceOnUse" color-interpolation-filters="sRGB">
<feFlood flood-opacity="0" result="BackgroundImageFix"/>
<feBlend mode="normal" in="SourceGraphic" in2="BackgroundImageFix" result="shape"/>
<feColorMatrix in="SourceAlpha" type="matrix" values="0 0 0 0 0 0 0 0 0 0 0 0 0 0 0 0 0 0 127 0" result="hardAlpha"/>
<feOffset dy="4"/>
<feGaussianBlur stdDeviation="2"/>
<feComposite in2="hardAlpha" operator="arithmetic" k2="-1" k3="1"/>
<feColorMatrix type="matrix" values="0 0 0 0 1 0 0 0 0 1 0 0 0 0 1 0 0 0 0.08 0"/>
<feBlend mode="normal" in2="shape" result="effect1_innerShadow_1_12517"/>
</filter>
</defs>
</svg>
