<svg width="40" height="40" viewBox="0 0 40 40" fill="none" xmlns="http://www.w3.org/2000/svg">
<g clip-path="url(#clip0_1_17172)">
<path d="M30.6609 0H9.34256C6.86476 0 4.48844 0.906151 2.73637 2.51911C0.984303 4.13207 0 6.31971 0 8.60078V31.3992C0 33.6803 0.984303 35.8679 2.73637 37.4809C4.48844 39.0938 6.86476 40 9.34256 40H30.6574C33.1352 40 35.5116 39.0938 37.2636 37.4809C39.0157 35.8679 40 33.6803 40 31.3992V8.60078C40 6.32026 39.0162 4.1331 37.2649 2.52024C35.5135 0.907369 33.1381 0.000844636 30.6609 0Z" fill="#ED892F"/>
<path d="M30.4739 36.5657H9.52254C7.0874 36.5657 4.75199 35.6738 3.03008 34.0863C1.30818 32.4987 0.34082 30.3455 0.34082 28.1004V31.2232C0.34082 33.4683 1.30818 35.6215 3.03008 37.209C4.75199 38.7966 7.0874 39.6884 9.52254 39.6884H30.4705C32.9056 39.6884 35.241 38.7966 36.9629 37.209C38.6848 35.6215 39.6522 33.4683 39.6522 31.2232V28.0957C39.6529 29.2075 39.416 30.3086 38.9551 31.3359C38.4942 32.3633 37.8182 33.297 36.9659 34.0835C36.1136 34.87 35.1016 35.4941 33.9877 35.92C32.8738 36.3459 31.6798 36.5653 30.4739 36.5657Z" fill="#B04A28"/>
<path d="M28.5245 4H11.4755C7.34688 4 4 7.1377 4 11.0082V26.9918C4 30.8623 7.34688 34 11.4755 34H28.5245C32.6531 34 36 30.8623 36 26.9918V11.0082C36 7.1377 32.6531 4 28.5245 4Z" fill="url(#paint0_linear_1_17172)"/>
<path d="M7.91679 7.90437C7.14156 8.86245 6.84098 10.0424 7.08028 11.1882C7.14199 11.4803 7.26712 11.7944 7.57396 11.9332C8.05049 12.1479 8.60245 11.8046 8.98128 11.4774C10.298 10.3393 11.4903 9.10127 12.5433 7.77874C12.7782 7.48659 13.0147 7.15938 12.9993 6.80441C12.9496 5.72344 11.4565 5.96593 10.6646 6.20403C9.56239 6.53563 8.59217 7.07757 7.91679 7.90437Z" fill="#ED892F"/>
<path d="M34.209 18.7794H30.5259C30.5034 17.7657 30.5002 16.8077 30.5259 15.8728C30.5813 14.0214 30.1275 12.1887 29.2103 10.5602C29.1846 10.5154 29.1573 10.4736 29.13 10.4288L29.1059 10.3902C29.0208 10.2531 28.9057 10.1355 28.7686 10.0456C29.2844 9.40121 29.698 8.68673 29.9958 7.92551C30.0135 7.8807 30.0295 7.83434 30.0472 7.7818L30.0552 7.75708C30.0998 7.63813 30.1226 7.51266 30.1227 7.38621C30.1227 7.10067 30.0053 6.8267 29.7962 6.62407C29.5871 6.42143 29.3031 6.30657 29.0063 6.30453H28.9549C28.7749 6.31123 28.5991 6.35946 28.4425 6.44515C28.3049 6.51436 28.1831 6.60947 28.0843 6.72484C28.0618 6.74957 28.0361 6.78047 28.0104 6.81138L27.9928 6.83456C27.7701 7.12049 27.4892 7.35973 27.1672 7.53765C27.134 7.55413 27.0954 7.57113 27.0515 7.58864C25.1602 5.90556 22.6727 4.97988 20.0964 5.00033C19.7655 5.00033 19.4282 5.01424 19.0892 5.04205C16.8259 5.20329 14.6878 6.10339 13.0288 7.59328L12.9806 7.5701C12.6386 7.38265 12.3384 7.13218 12.0972 6.83301L12.0185 6.73875L11.9928 6.70939C11.8298 6.51816 11.6037 6.38641 11.3521 6.33608C11.1004 6.28575 10.8384 6.31988 10.6098 6.43279L10.5857 6.44979C10.348 6.56746 10.1617 6.76275 10.0601 7.00062C9.95857 7.23849 9.94843 7.50339 10.0315 7.7478L10.0444 7.78489C10.0604 7.83434 10.0765 7.88224 10.0958 7.9286C10.3877 8.67502 10.7925 9.37589 11.2973 10.0085L11.3214 10.0363C11.2107 10.1083 11.1143 10.1988 11.037 10.3037C10.9986 10.3532 10.9632 10.4048 10.931 10.4582C10.0447 11.9737 9.57741 13.6827 9.57374 15.4216C9.57374 16.2854 9.57374 17.0595 9.57374 17.7889C9.57374 18.1227 9.56999 18.4477 9.56249 18.764H5.7942C5.56182 18.7592 5.33078 18.7989 5.11446 18.8807C4.89813 18.9625 4.70082 19.0847 4.53395 19.2404C4.36708 19.396 4.23396 19.582 4.14231 19.7875C4.05066 19.993 4.00229 20.2139 4 20.4375V29.3335C4 33.1565 6.58287 35 10.711 35H29.2938C33.4219 35 36 32.9046 36 29.0817V20.4375C35.9956 20.2155 35.9458 19.9965 35.8534 19.793C35.761 19.5895 35.6279 19.4055 35.4616 19.2515C35.2952 19.0975 35.099 18.9766 34.8841 18.8956C34.6692 18.8146 34.4398 18.7751 34.209 18.7794Z" fill="#AB4C2A"/>
<path d="M25.3178 29.6926C24.9236 29.8926 24.5741 30.1718 24.2908 30.5131C24.1503 30.685 24.0566 30.8909 24.0188 31.1105C23.981 31.33 24.0004 31.5557 24.0751 31.7654C24.325 32.3354 25.0234 32.5202 25.631 32.6291C26.9439 32.8778 28.2858 33.1265 29.6055 32.9279C30.9252 32.7292 32.2432 31.9934 32.7875 30.7636C33.0819 30.0985 33.1041 29.2556 32.6386 28.6994C31.9744 27.9083 30.3638 27.9221 29.4292 28.0983C27.9814 28.3989 26.5925 28.9375 25.3178 29.6926Z" fill="#DE6D36"/>
<path d="M14 4.15074C14 4.93843 12.4334 5 10.5 5C8.56656 5 7 4.93206 7 4.15074C7 3.36943 8.5684 3 10.5 3C12.4316 3 14 3.36518 14 4.15074Z" fill="#EDD885"/>
<path d="M17.5 4C18.3284 4 19 3.77614 19 3.5C19 3.22386 18.3284 3 17.5 3C16.6716 3 16 3.22386 16 3.5C16 3.77614 16.6716 4 17.5 4Z" fill="#EDD885"/>
<g style="mix-blend-mode:overlay">
<path d="M30.6609 0.955642C32.8623 0.959011 34.9724 1.76556 36.529 3.19857C38.0856 4.63158 38.9617 6.5742 38.9654 8.60078V31.3992C38.9617 33.4258 38.0856 35.3684 36.529 36.8014C34.9724 38.2344 32.8623 39.041 30.6609 39.0444H9.34256C7.14105 39.0414 5.03063 38.235 3.47393 36.8019C1.91723 35.3688 1.04127 33.4259 1.03806 31.3992V8.60078C1.04127 6.57407 1.91723 4.63121 3.47393 3.19811C5.03063 1.76501 7.14105 0.958591 9.34256 0.955642H30.6574M30.6574 0H9.34256C6.86476 0 4.48844 0.906151 2.73637 2.51911C0.984303 4.13207 0 6.31971 0 8.60078V31.3992C0 33.6803 0.984303 35.8679 2.73637 37.4809C4.48844 39.0938 6.86476 40 9.34256 40H30.6574C33.1352 40 35.5116 39.0938 37.2636 37.4809C39.0157 35.8679 40 33.6803 40 31.3992V8.60078C40 6.31971 39.0157 4.13207 37.2636 2.51911C35.5116 0.906151 33.1352 0 30.6574 0Z" fill="#FFC3AD"/>
</g>
<path d="M30.6609 0H9.34256C6.86476 0 4.48844 0.906151 2.73637 2.51911C0.984303 4.13207 0 6.31971 0 8.60078V31.3992C0 33.6803 0.984303 35.8679 2.73637 37.4809C4.48844 39.0938 6.86476 40 9.34256 40H30.6574C33.1352 40 35.5116 39.0938 37.2636 37.4809C39.0157 35.8679 40 33.6803 40 31.3992V8.60078C40 6.32026 39.0162 4.1331 37.2649 2.52024C35.5135 0.907369 33.1381 0.000844636 30.6609 0Z" stroke="#5C2929" stroke-width="2" stroke-linecap="round" stroke-linejoin="round"/>
<g style="mix-blend-mode:overlay" opacity="0.57">
<path d="M34.5 10C34.7761 10 35 9.77614 35 9.5C35 9.22386 34.7761 9 34.5 9C34.2239 9 34 9.22386 34 9.5C34 9.77614 34.2239 10 34.5 10Z" fill="white"/>
<path d="M20.4687 7.43329C20.7082 7.43329 20.9023 7.25431 20.9023 7.03354C20.9023 6.81276 20.7082 6.63379 20.4687 6.63379C20.2293 6.63379 20.0352 6.81276 20.0352 7.03354C20.0352 7.25431 20.2293 7.43329 20.4687 7.43329Z" fill="white"/>
<path d="M5.5 24C5.77614 24 6 23.7761 6 23.5C6 23.2239 5.77614 23 5.5 23C5.22386 23 5 23.2239 5 23.5C5 23.7761 5.22386 24 5.5 24Z" fill="white"/>
<path d="M34.5 24C34.7761 24 35 23.7761 35 23.5C35 23.2239 34.7761 23 34.5 23C34.2239 23 34 23.2239 34 23.5C34 23.7761 34.2239 24 34.5 24Z" fill="white"/>
<path d="M30.5 31C30.7761 31 31 30.7761 31 30.5C31 30.2239 30.7761 30 30.5 30C30.2239 30 30 30.2239 30 30.5C30 30.7761 30.2239 31 30.5 31Z" fill="white"/>
<path d="M11 33C11.5523 33 12 32.5523 12 32C12 31.4477 11.5523 31 11 31C10.4477 31 10 31.4477 10 32C10 32.5523 10.4477 33 11 33Z" fill="white"/>
</g>
<path d="M7 15C7.55228 15 8 14.5523 8 14C8 13.4477 7.55228 13 7 13C6.44772 13 6 13.4477 6 14C6 14.5523 6.44772 15 7 15Z" fill="#B8522D"/>
<path d="M6 22C6.55228 22 7 21.5523 7 21C7 20.4477 6.55228 20 6 20C5.44772 20 5 20.4477 5 21C5 21.5523 5.44772 22 6 22Z" fill="#944224"/>
<path d="M34 28C34.5523 28 35 27.5523 35 27C35 26.4477 34.5523 26 34 26C33.4477 26 33 26.4477 33 27C33 27.5523 33.4477 28 34 28Z" fill="#944224"/>
<path d="M32.5 16C32.7761 16 33 15.7761 33 15.5C33 15.2239 32.7761 15 32.5 15C32.2239 15 32 15.2239 32 15.5C32 15.7761 32.2239 16 32.5 16Z" fill="#B8522D"/>
<path d="M27.5 6C27.7761 6 28 5.77614 28 5.5C28 5.22386 27.7761 5 27.5 5C27.2239 5 27 5.22386 27 5.5C27 5.77614 27.2239 6 27.5 6Z" fill="#944224"/>
<path d="M13.6107 28.1822L11.2771 24.6076L8.02334 27.0702L8 27.0545C8.02334 27.0074 8.04501 26.9588 8.07001 26.9133C9.15647 24.8921 9.85399 22.7058 10.1303 20.4557C10.2575 19.3017 10.3131 18.1416 10.297 16.9815C10.297 16.1763 10.297 15.3711 10.297 14.5659C10.3002 12.9866 10.7372 11.4348 11.5655 10.0612C11.5792 10.04 11.5942 10.0196 11.6105 10C11.6471 10.0439 11.6771 10.0847 11.7105 10.1208C12.1772 10.653 12.6456 11.1832 13.1157 11.7113C13.1468 11.7363 13.1671 11.7712 13.1726 11.8094C13.1782 11.8476 13.1686 11.8863 13.1457 11.9183C12.8984 12.3338 12.7361 12.7892 12.6673 13.2609C12.6027 13.7075 12.6607 14.1623 12.8357 14.5818C13.0108 15.0013 13.2971 15.3717 13.6674 15.6576C14.3351 16.198 15.1871 16.4942 16.0677 16.4921C16.131 16.4921 16.1944 16.4921 16.2794 16.4921C16.2544 16.6882 16.2277 16.8685 16.2127 17.0489C16.1944 17.2685 16.1777 17.4881 16.1761 17.7077C16.1791 17.7515 16.1677 17.7951 16.1436 17.8327C16.1195 17.8703 16.0837 17.9 16.041 17.9179C15.1009 18.424 14.1619 18.9337 13.224 19.4472L13.0573 19.5381C13.1173 19.5742 13.1607 19.6009 13.2057 19.6244C13.9241 20.004 14.6375 20.3883 15.3626 20.7584C15.8492 21.0078 16.2702 21.3568 16.5944 21.7796C17.1403 22.5136 17.5881 23.308 17.9279 24.1449C18.5614 25.5989 19.0248 27.1062 19.4898 28.6136C19.6348 29.0841 19.7849 29.5547 19.9332 30.0252C19.9465 30.0707 19.9649 30.1146 19.9949 30.1946C20.0265 30.1131 20.0482 30.0645 20.0632 30.0143C20.5199 28.5932 20.9617 27.1674 21.4384 25.7542C21.7976 24.6434 22.278 23.5705 22.8719 22.5528C22.9903 22.3583 23.1186 22.1685 23.2503 21.9803C23.6142 21.4479 24.1177 21.0125 24.7122 20.7161C25.4072 20.371 26.0857 19.9977 26.7708 19.6354C26.8208 19.6087 26.8691 19.5789 26.9374 19.5397C26.8674 19.5005 26.8158 19.4691 26.7708 19.4409C25.8423 18.9358 24.9138 18.4292 23.9821 17.9288C23.9337 17.9062 23.8936 17.8706 23.8669 17.8264C23.8402 17.7823 23.8281 17.7317 23.832 17.681C23.812 17.3407 23.7754 17.0034 23.7454 16.6646C23.7454 16.616 23.7354 16.5674 23.7304 16.5078C23.9721 16.4889 24.2038 16.4842 24.4338 16.4529C25.2823 16.369 26.0676 15.9917 26.6374 15.3941C27.4375 14.5252 27.5409 13.5401 27.1375 12.4877C27.0575 12.2869 26.9458 12.0971 26.8591 11.8979C26.8498 11.8718 26.8471 11.8441 26.8511 11.8169C26.8552 11.7897 26.8659 11.7637 26.8824 11.7411C27.3592 11.1748 27.8592 10.6133 28.3593 10.0518C28.3693 10.0408 28.3826 10.0314 28.4076 10.0094C28.4376 10.058 28.4676 10.102 28.4943 10.1474C29.3514 11.6313 29.7736 13.303 29.7178 14.991C29.6911 16.1956 29.7028 17.4018 29.7411 18.5986C29.8055 21.5093 30.5692 24.3684 31.9748 26.9619C31.9958 26.9937 32.0041 27.0316 31.9981 27.0686L28.7443 24.5997L26.4024 28.1744L23.9421 25.9973L20.0099 32L16.071 26.0051L13.6107 28.1822Z" fill="white"/>
<path d="M11.0275 7.28197L11.1212 7.38838C11.4539 7.78612 11.8678 8.11919 12.3393 8.36858C12.4799 8.43869 12.625 8.50076 12.7738 8.55442C12.8986 8.61303 13.0413 8.63012 13.178 8.60284C13.3148 8.57556 13.4373 8.50556 13.525 8.40455C15.0307 7.02276 17.0173 6.1833 19.1292 6.0365C22.021 5.81019 24.525 6.636 26.6107 8.52295C26.644 8.5652 26.6907 8.59683 26.7442 8.61347C26.7977 8.63011 26.8555 8.63095 26.9095 8.61587C27.1785 8.54036 27.4409 8.44617 27.6947 8.33411C28.1546 8.09479 28.5565 7.77034 28.8756 7.38089L28.9515 7.29097C28.9671 7.28151 28.9833 7.27299 29 7.26549C28.9774 7.32993 28.9612 7.37789 28.9418 7.42585C28.6516 8.13069 28.2426 8.78833 27.7302 9.37425C26.1132 11.2738 24.0796 12.833 21.7641 13.9485C21.7101 13.9809 21.6464 13.9965 21.5822 13.993C21.518 13.9895 21.4566 13.9671 21.4071 13.929C20.9894 13.6554 20.4899 13.51 19.9786 13.5129C19.4673 13.5159 18.9698 13.6671 18.5557 13.9455C18.5161 13.977 18.4667 13.9959 18.4146 13.9994C18.3626 14.0029 18.3107 13.9908 18.2666 13.965C15.8535 12.8171 13.7473 11.1836 12.1018 9.18391C11.661 8.65328 11.3076 8.06483 11.0533 7.43784C11.0339 7.38988 11.0178 7.34192 11 7.28797L11.0275 7.28197Z" fill="white"/>
<path d="M24 19.6485C23.5822 19.9193 23.1484 20.1644 22.768 20.4525C21.9289 21.0874 21.3813 21.8857 20.9778 22.7456C20.6542 23.4321 20.3822 24.1344 20.0889 24.8294L20.016 25L19.9431 24.8323C19.6036 24.0484 19.2942 23.2558 18.9138 22.4847C18.4969 21.5897 17.7992 20.7972 16.8889 20.1845C16.6133 20.0039 16.3129 19.8462 16 19.67C16.0391 19.6485 16.0836 19.6241 16.1298 19.6026L17.28 19.0737C17.3858 19.0282 17.4727 18.9585 17.5296 18.8733C17.5865 18.7882 17.611 18.6914 17.6 18.5951C17.5589 18.0519 17.6037 17.5067 17.7333 16.9727C17.8839 16.3095 18.3327 15.7145 18.9938 15.3016C19.2779 15.1069 19.6387 15 20.0116 15C20.3845 15 20.7452 15.1069 21.0293 15.3016C21.3882 15.5239 21.6873 15.8026 21.9086 16.1209C22.1298 16.4392 22.2686 16.7904 22.3164 17.1533C22.3806 17.6201 22.4126 18.0895 22.4124 18.5592C22.4029 18.6705 22.4351 18.7816 22.5048 18.8779C22.5746 18.9743 22.6787 19.0515 22.8036 19.0995C23.2213 19.2744 23.616 19.4693 24 19.6485Z" fill="white"/>
<path d="M14.2747 13C15.4344 13.6414 16.6824 14.1988 18 14.6635C17.9818 14.6806 17.9758 14.6949 17.9617 14.6992C17.0036 15.0499 16.0355 15.114 15.0533 14.7847C13.9783 14.4269 13.7403 13.7013 14.2747 13Z" fill="white"/>
<path d="M22 14.6802C23.3146 14.2105 24.5605 13.6477 25.7189 13C25.9382 13.236 26.034 13.52 25.9893 13.8018C25.9446 14.0836 25.7623 14.3449 25.4747 14.5395C25.0826 14.7872 24.5931 14.9418 24.0736 14.9818C23.3551 15.0458 22.627 14.94 22 14.6802Z" fill="white"/>
</g>
<defs>
<linearGradient id="paint0_linear_1_17172" x1="20" y1="26.3618" x2="20" y2="-2.47472" gradientUnits="userSpaceOnUse">
<stop stop-color="#FF7B46" stop-opacity="0"/>
<stop offset="1" stop-color="#9E4021"/>
</linearGradient>
<clipPath id="clip0_1_17172">
<rect width="40" height="40" fill="white"/>
</clipPath>
</defs>
</svg>
