<svg width="40" height="40" viewBox="0 0 40 40" fill="none" xmlns="http://www.w3.org/2000/svg">
<g clip-path="url(#clip0_1_17110)">
<path d="M30.6609 0H9.34256C6.86476 0 4.48844 0.906151 2.73637 2.51911C0.984303 4.13207 0 6.31971 0 8.60078V31.3992C0 33.6803 0.984303 35.8679 2.73637 37.4809C4.48844 39.0938 6.86476 40 9.34256 40H30.6574C33.1352 40 35.5116 39.0938 37.2636 37.4809C39.0157 35.8679 40 33.6803 40 31.3992V8.60078C40 6.32026 39.0162 4.1331 37.2649 2.52024C35.5135 0.907369 33.1381 0.000844636 30.6609 0Z" fill="#5568D4"/>
<path d="M30.4739 36.5657H9.52254C7.0874 36.5657 4.75199 35.6738 3.03008 34.0863C1.30818 32.4987 0.34082 30.3455 0.34082 28.1004V31.2232C0.34082 33.4683 1.30818 35.6215 3.03008 37.209C4.75199 38.7966 7.0874 39.6884 9.52254 39.6884H30.4705C32.9056 39.6884 35.241 38.7966 36.9629 37.209C38.6848 35.6215 39.6522 33.4683 39.6522 31.2232V28.0957C39.6529 29.2075 39.416 30.3086 38.9551 31.3359C38.4942 32.3633 37.8182 33.297 36.9659 34.0835C36.1136 34.87 35.1016 35.4941 33.9877 35.92C32.8738 36.3459 31.6798 36.5653 30.4739 36.5657Z" fill="#374090"/>
<path d="M28.5245 4H11.4755C7.34688 4 4 7.1377 4 11.0082V26.9918C4 30.8623 7.34688 34 11.4755 34H28.5245C32.6531 34 36 30.8623 36 26.9918V11.0082C36 7.1377 32.6531 4 28.5245 4Z" fill="url(#paint0_linear_1_17110)"/>
<path d="M5.5 12C5.77614 12 6 11.7761 6 11.5C6 11.2239 5.77614 11 5.5 11C5.22386 11 5 11.2239 5 11.5C5 11.7761 5.22386 12 5.5 12Z" fill="#6EDAE8"/>
<path d="M36.5 16C36.7761 16 37 15.7761 37 15.5C37 15.2239 36.7761 15 36.5 15C36.2239 15 36 15.2239 36 15.5C36 15.7761 36.2239 16 36.5 16Z" fill="#6EDAE8"/>
<path d="M13.5884 5.07996C12.7669 5.06268 11.9533 5.2194 11.2214 5.5359C10.4895 5.85241 9.86239 6.3187 9.39705 6.89247C9.10725 7.25862 8.88369 7.71876 9.06585 8.1326C9.27616 8.6208 9.9485 8.83404 10.5562 8.92101C11.6229 9.0703 12.716 9.00738 13.749 8.73724C14.3816 8.5703 15.0026 8.31638 15.4464 7.89552C15.8902 7.47466 16.127 6.87563 15.9299 6.33974C15.7494 5.85435 15.2444 5.49802 14.6896 5.29881C14.1348 5.0996 13.5304 5.05191 12.9276 5" fill="#5568D4"/>
<path d="M34.209 18.0004H5.7942C5.56315 17.9957 5.33341 18.0344 5.11813 18.1141C4.90284 18.1938 4.70624 18.313 4.53958 18.4649C4.37292 18.6169 4.23948 18.7985 4.14689 18.9994C4.0543 19.2003 4.00438 19.4166 4 19.6359V28.4107C4 32.1816 6.58287 34 10.711 34H29.2938C33.4219 34 36 31.9332 36 28.1623V19.6359C35.9956 19.4169 35.9458 19.2008 35.8534 19.0001C35.761 18.7994 35.6279 18.6179 35.4616 18.466C35.2952 18.3142 35.099 18.1949 34.8841 18.115C34.6692 18.0351 34.4398 17.9961 34.209 18.0004Z" fill="#374090"/>
<path d="M27.5 32C27.7761 32 28 31.7761 28 31.5C28 31.2239 27.7761 31 27.5 31C27.2239 31 27 31.2239 27 31.5C27 31.7761 27.2239 32 27.5 32Z" fill="#6EDAE8"/>
<path d="M16.1986 28.4166C15.6542 28.6958 15.0715 29.0953 15.0017 29.7025C14.9909 29.9167 15.0319 30.1303 15.1212 30.3253C15.2105 30.5203 15.3454 30.6909 15.5146 30.8227C15.8565 31.082 16.246 31.2717 16.6609 31.381C18.3602 31.9162 20.1491 32.1072 21.923 31.9429C22.6209 31.8766 23.3484 31.7474 23.9521 31.3758C24.5558 31.0042 25.0251 30.3498 24.999 29.6414C24.9484 28.0973 22.8442 27.3505 21.5793 27.0783C19.9096 26.7189 17.6572 27.6715 16.1986 28.4166Z" fill="#505ED1"/>
<path d="M14 4.15074C14 4.93843 12.4334 5 10.5 5C8.56656 5 7 4.93206 7 4.15074C7 3.36943 8.5684 3 10.5 3C12.4316 3 14 3.36518 14 4.15074Z" fill="#77D1FF"/>
<path d="M17.5 4C18.3284 4 19 3.77614 19 3.5C19 3.22386 18.3284 3 17.5 3C16.6716 3 16 3.22386 16 3.5C16 3.77614 16.6716 4 17.5 4Z" fill="#77D1FF"/>
<g style="mix-blend-mode:overlay">
<path d="M30.6609 0.955642C32.8623 0.959011 34.9724 1.76556 36.529 3.19857C38.0856 4.63158 38.9617 6.5742 38.9654 8.60078V31.3992C38.9617 33.4258 38.0856 35.3684 36.529 36.8014C34.9724 38.2344 32.8623 39.041 30.6609 39.0444H9.34256C7.14105 39.0414 5.03063 38.235 3.47393 36.8019C1.91723 35.3688 1.04127 33.4259 1.03806 31.3992V8.60078C1.04127 6.57407 1.91723 4.63121 3.47393 3.19811C5.03063 1.76501 7.14105 0.958591 9.34256 0.955642H30.6574M30.6574 0H9.34256C6.86476 0 4.48844 0.906151 2.73637 2.51911C0.984303 4.13207 0 6.31971 0 8.60078V31.3992C0 33.6803 0.984303 35.8679 2.73637 37.4809C4.48844 39.0938 6.86476 40 9.34256 40H30.6574C33.1352 40 35.5116 39.0938 37.2636 37.4809C39.0157 35.8679 40 33.6803 40 31.3992V8.60078C40 6.31971 39.0157 4.13207 37.2636 2.51911C35.5116 0.906151 33.1352 0 30.6574 0Z" fill="#ADD1FF"/>
</g>
<path d="M30.6609 0H9.34256C6.86476 0 4.48844 0.906151 2.73637 2.51911C0.984303 4.13207 0 6.31971 0 8.60078V31.3992C0 33.6803 0.984303 35.8679 2.73637 37.4809C4.48844 39.0938 6.86476 40 9.34256 40H30.6574C33.1352 40 35.5116 39.0938 37.2636 37.4809C39.0157 35.8679 40 33.6803 40 31.3992V8.60078C40 6.32026 39.0162 4.1331 37.2649 2.52024C35.5135 0.907369 33.1381 0.000844636 30.6609 0Z" stroke="#5C2929" stroke-width="2" stroke-linecap="round" stroke-linejoin="round"/>
<g style="mix-blend-mode:overlay" opacity="0.57">
<path d="M7 10C7.55228 10 8 9.55228 8 9C8 8.44772 7.55228 8 7 8C6.44772 8 6 8.44772 6 9C6 9.55228 6.44772 10 7 10Z" fill="#3B3B3B"/>
<path d="M6 28C6.55228 28 7 27.5523 7 27C7 26.4477 6.55228 26 6 26C5.44772 26 5 26.4477 5 27C5 27.5523 5.44772 28 6 28Z" fill="#3B3B3B"/>
<path d="M33 30C33.5523 30 34 29.5523 34 29C34 28.4477 33.5523 28 33 28C32.4477 28 32 28.4477 32 29C32 29.5523 32.4477 30 33 30Z" fill="white"/>
<path d="M33.5 11C33.7761 11 34 10.7761 34 10.5C34 10.2239 33.7761 10 33.5 10C33.2239 10 33 10.2239 33 10.5C33 10.7761 33.2239 11 33.5 11Z" fill="white"/>
<path d="M20.5 7C20.7761 7 21 6.77614 21 6.5C21 6.22386 20.7761 6 20.5 6C20.2239 6 20 6.22386 20 6.5C20 6.77614 20.2239 7 20.5 7Z" fill="white"/>
<path d="M30.5 7C30.7761 7 31 6.77614 31 6.5C31 6.22386 30.7761 6 30.5 6C30.2239 6 30 6.22386 30 6.5C30 6.77614 30.2239 7 30.5 7Z" fill="#3B3B3B"/>
<path d="M17.5 30C17.7761 30 18 29.7761 18 29.5C18 29.2239 17.7761 29 17.5 29C17.2239 29 17 29.2239 17 29.5C17 29.7761 17.2239 30 17.5 30Z" fill="#3B3B3B"/>
<path d="M11 33C11.5523 33 12 32.5523 12 32C12 31.4477 11.5523 31 11 31C10.4477 31 10 31.4477 10 32C10 32.5523 10.4477 33 11 33Z" fill="white"/>
</g>
<path d="M25.5166 25.9971C25.3455 25.9968 25.1769 25.9594 25.0244 25.8878C24.8719 25.8163 24.7397 25.7127 24.6385 25.5853L23.6481 24.327C23.5986 24.2639 23.5656 24.1911 23.5517 24.1143C23.5378 24.0374 23.5434 23.9587 23.568 23.8842C23.5927 23.8097 23.6357 23.7415 23.6937 23.6849C23.7517 23.6283 23.8231 23.585 23.9023 23.5582C22.6279 23.8562 21.3178 24.0043 20.0031 23.9987C18.7051 24.0049 17.4111 23.8632 16.1507 23.5769C16.2804 23.6357 16.38 23.7391 16.4283 23.8648C16.4585 23.9422 16.4676 24.0252 16.4548 24.1065C16.442 24.1879 16.4077 24.2651 16.355 24.3313L15.3662 25.5897C15.264 25.7168 15.1309 25.8199 14.9775 25.8907C14.8241 25.9615 14.6549 25.998 14.4834 25.9971H14.4491C13.3417 25.964 8.85603 25.2772 7.14349 22.4927C7.04969 22.341 7.00024 22.1693 7 21.9946C7 17.1757 9.21008 11.2208 10.5966 10.0358L10.6263 10.0128C12.9237 8.30811 16.4533 8.01584 16.6669 8H16.7683C16.976 8.00195 17.1787 8.05852 17.3527 8.16308C17.5268 8.26763 17.6649 8.41584 17.7509 8.59031C17.7503 8.59461 17.7503 8.59896 17.7509 8.60326C17.7852 8.67957 17.857 8.84227 17.9319 9.06831C17.9742 9.19642 17.9597 9.3348 17.8915 9.45304C17.8234 9.57129 17.7072 9.65973 17.5684 9.69893C18.3726 9.57356 19.1861 9.50665 20.0016 9.4988C20.8207 9.50671 21.6379 9.57411 22.4456 9.70037C22.3753 9.68222 22.3096 9.65124 22.2525 9.60926C22.1954 9.56727 22.148 9.51513 22.1131 9.45593C22.0782 9.39673 22.0565 9.33166 22.0493 9.26459C22.0421 9.19751 22.0496 9.12979 22.0713 9.06543C22.1232 8.90513 22.1857 8.7479 22.2584 8.59462C22.3435 8.41808 22.4822 8.26809 22.6577 8.16281C22.8332 8.05753 23.038 8.00147 23.2473 8.00144H23.3377C23.3689 8.00144 27.0202 8.26636 29.3456 9.99408L29.3737 10.0157C30.7774 11.2078 33 17.1742 33 21.9974C33 22.1716 32.9511 22.3427 32.8581 22.4942C31.1424 25.2758 26.6599 25.9669 25.5525 26H25.5166V25.9971ZM27.4803 22.1241C26.6032 22.6599 25.6472 23.0764 24.6416 23.3609C25.6484 23.0793 26.6049 22.6626 27.4803 22.1241Z" fill="#374090"/>
<path d="M16.8922 8.06061C16.9911 8.06149 17.0877 8.09127 17.1703 8.14637C17.2529 8.20147 17.318 8.27955 17.3578 8.37121C17.416 8.51465 17.4659 8.66136 17.5075 8.81061C16.1452 9.04242 14.4656 9.51515 12.9446 10.4682C12.8489 10.5288 12.7753 10.6192 12.7347 10.7259C12.6942 10.8325 12.689 10.9496 12.7199 11.0595C12.7508 11.1694 12.8161 11.2661 12.9061 11.3352C12.996 11.4043 13.1057 11.4419 13.2186 11.4424C13.3155 11.4424 13.4105 11.4145 13.4925 11.3621C16.1048 9.72121 19.3713 9.63333 20.0015 9.63333C20.6317 9.63333 23.8937 9.71667 26.509 11.3576C26.5913 11.4093 26.6861 11.4371 26.7829 11.4379C26.8964 11.4385 27.007 11.4015 27.0977 11.3326C27.1884 11.2636 27.2544 11.1665 27.2854 11.056C27.3165 10.9456 27.311 10.8279 27.2697 10.7209C27.2284 10.6139 27.1537 10.5236 27.0569 10.4636C25.5374 9.50909 23.8563 9.03788 22.488 8.79697C22.5307 8.64742 22.5837 8.5011 22.6467 8.35909C22.6868 8.26672 22.7526 8.18817 22.8361 8.13302C22.9196 8.07786 23.0171 8.04849 23.1168 8.04849H23.1602C23.2994 8.05909 26.5719 8.35152 28.6407 10.0303C29.7635 11.0773 31.9536 17.0697 31.9536 22.2485C31.9535 22.3404 31.9297 22.4308 31.8847 22.5106C30.3743 25.197 26.2515 25.9 25.3114 25.9303H25.2949C25.2132 25.9307 25.1326 25.9114 25.0597 25.8739C24.9868 25.8365 24.9237 25.7821 24.8757 25.7152L23.9251 24.3924C26.4895 23.7227 27.7979 22.5833 27.8743 22.5167C27.9533 22.446 28.0092 22.3526 28.0345 22.2489C28.0598 22.1453 28.0534 22.0363 28.016 21.9364C27.9786 21.8366 27.9121 21.7506 27.8253 21.69C27.7384 21.6294 27.6354 21.5969 27.5299 21.597C27.4039 21.5974 27.2823 21.6436 27.1871 21.7273C27.1632 21.747 24.7515 23.8273 20.0015 23.8273C15.2515 23.8273 12.8473 21.7561 12.8159 21.7273C12.7124 21.6351 12.5771 21.5882 12.4395 21.597C12.3019 21.6058 12.1735 21.6696 12.0823 21.7742C11.9912 21.8789 11.9449 22.016 11.9536 22.1552C11.9623 22.2944 12.0253 22.4244 12.1287 22.5167C12.2036 22.5833 13.5135 23.7288 16.0763 24.3924L15.1272 25.7152C15.0803 25.7849 15.0174 25.8421 14.9439 25.8819C14.8704 25.9217 14.7885 25.943 14.7051 25.9439H14.6901C13.75 25.9136 9.62725 25.2106 8.11677 22.5242C8.07175 22.4444 8.04802 22.3541 8.0479 22.2621C8.0479 17.0833 10.238 11.0909 11.3323 10.0652C13.4281 8.35909 16.7021 8.07273 16.8428 8.06212H16.8922M16.8922 7.00152C16.8458 7.00152 16.7994 7.00152 16.753 7.00152C16.4746 7.02273 13.0105 7.33182 10.6752 9.23485C10.6572 9.25 10.6377 9.26667 10.6213 9.28333C9.19012 10.6227 7 16.9682 7 22.2576C7.00041 22.5316 7.07053 22.8008 7.20359 23.0394C8.97006 26.1833 13.5314 26.9636 14.6557 27H14.7051C14.9521 26.9995 15.1955 26.9403 15.4158 26.8272C15.636 26.714 15.8269 26.55 15.9731 26.3485L16.9237 25.0242C17.0064 24.9079 17.0654 24.776 17.0973 24.6364C18.055 24.8128 19.0266 24.9 20 24.897C20.9733 24.8997 21.9449 24.813 22.9027 24.6379C22.9343 24.7772 22.9933 24.9086 23.0763 25.0242L24.0254 26.3485C24.1716 26.55 24.3625 26.714 24.5827 26.8272C24.803 26.9403 25.0464 26.9995 25.2934 27H25.3443C26.4686 26.9636 31.0329 26.1833 32.7949 23.0439C32.9286 22.8039 32.9992 22.5331 33 22.2576C33 16.9636 30.7919 10.6045 29.3503 9.25909L29.2964 9.21212C26.9626 7.31061 23.4581 7.01667 23.2395 7C23.1991 7 23.1572 7 23.1153 7C22.8131 7.00058 22.5175 7.08955 22.2641 7.25622C22.0107 7.42289 21.8104 7.66013 21.6871 7.93939C21.6083 8.11977 21.5408 8.30498 21.485 8.49394C21.4688 8.54898 21.4568 8.60521 21.4491 8.66212C20.744 8.58788 20.2201 8.57727 20 8.57727C19.5159 8.58107 19.0322 8.60939 18.5509 8.66212C18.5418 8.60697 18.5298 8.55235 18.515 8.49848C18.4326 8.23182 18.3653 8.04394 18.3204 7.95303L18.3099 7.93182C18.1865 7.65515 17.9871 7.42022 17.7355 7.25502C17.4839 7.08981 17.1906 7.00129 16.8907 7L16.8922 7.00152Z" fill="#374090"/>
<path d="M28.6732 9.99652C26.5957 8.30087 23.3095 8.0142 23.1697 8.002C23.0632 7.99255 22.9565 8.01679 22.8641 8.07141C22.7718 8.12602 22.6984 8.20832 22.6541 8.30697C22.591 8.45191 22.5383 8.60121 22.4962 8.75376C23.8702 8.98859 25.5584 9.46282 27.0842 10.4311C27.1814 10.4914 27.2565 10.5824 27.2979 10.69C27.3394 10.7977 27.3449 10.9162 27.3137 11.0273C27.2826 11.1385 27.2163 11.2362 27.1252 11.3056C27.0341 11.375 26.9231 11.4122 26.8091 11.4116C26.7119 11.4108 26.6167 11.3829 26.534 11.3308C23.9078 9.67173 20.6291 9.58328 19.9977 9.58328C19.3664 9.58328 16.0892 9.66715 13.4614 11.3186C13.3438 11.3926 13.202 11.4162 13.0673 11.3841C12.9325 11.3521 12.8158 11.2671 12.7429 11.1478C12.6699 11.0285 12.6467 10.8847 12.6782 10.748C12.7098 10.6113 12.7936 10.4929 12.9112 10.4189C14.4386 9.45977 16.1253 8.98401 17.4993 8.75071C17.4576 8.6005 17.4074 8.45285 17.349 8.3085C17.3049 8.20929 17.2313 8.12656 17.1386 8.07187C17.0459 8.01718 16.9386 7.99328 16.8318 8.00352C16.6905 8.0142 13.4043 8.3085 11.2982 10.0194C10.1993 11.0517 8 17.0826 8 22.2946C8.00012 22.3871 8.02395 22.478 8.06915 22.5584C9.58597 25.262 13.726 25.9695 14.6701 26H14.6791C14.7614 26.0004 14.8426 25.9809 14.916 25.9433C14.9894 25.9056 15.053 25.8509 15.1015 25.7835L16.0546 24.4523C13.4765 23.7767 12.1671 22.63 12.092 22.5629C12.0405 22.517 11.9985 22.4612 11.9684 22.3988C11.9382 22.3364 11.9204 22.2685 11.9161 22.1991C11.9118 22.1298 11.921 22.0602 11.9431 21.9944C11.9653 21.9286 12 21.8679 12.0453 21.8158C12.1369 21.7104 12.2659 21.6462 12.404 21.6374C12.4724 21.633 12.541 21.6423 12.6058 21.6648C12.6707 21.6873 12.7305 21.7225 12.782 21.7685C12.8135 21.7975 15.2353 23.882 19.9977 23.882C24.7602 23.882 27.1895 21.7883 27.2135 21.7685C27.3174 21.6757 27.4533 21.6285 27.5915 21.6374C27.7296 21.6462 27.8586 21.7104 27.9501 21.8158C28.0416 21.9211 28.0881 22.059 28.0794 22.1991C28.0707 22.3393 28.0074 22.4701 27.9035 22.5629C27.8269 22.63 26.513 23.7828 23.9379 24.4507L24.8925 25.7819C24.9406 25.8493 25.0039 25.9041 25.0771 25.9418C25.1503 25.9794 25.2313 25.9988 25.3134 25.9985H25.3299C26.274 25.968 30.414 25.2604 31.9308 22.5568C31.9761 22.4765 31.9999 22.3856 32 22.293C32 17.0811 29.8007 11.0502 28.6732 9.99652ZM16.6048 20.1765C15.5961 20.1765 14.7783 19.2296 14.7783 18.0585C14.7783 16.8874 15.5961 15.9405 16.6048 15.9405C17.6135 15.9405 18.4373 16.8874 18.4373 18.0585C18.4373 19.2296 17.6135 20.1765 16.6048 20.1765ZM23.3892 20.1765C22.3805 20.1765 21.5627 19.2296 21.5627 18.0585C21.5627 16.8874 22.3805 15.9405 23.3892 15.9405C24.3979 15.9405 25.2157 16.8874 25.2157 18.0585C25.2157 19.2296 24.3979 20.1765 23.3892 20.1765Z" fill="white"/>
</g>
<defs>
<linearGradient id="paint0_linear_1_17110" x1="20" y1="27.9817" x2="20" y2="-1.56192" gradientUnits="userSpaceOnUse">
<stop stop-color="#575FD1" stop-opacity="0"/>
<stop offset="1" stop-color="#2A3578"/>
</linearGradient>
<clipPath id="clip0_1_17110">
<rect width="40" height="40" fill="white"/>
</clipPath>
</defs>
</svg>
