<svg width="40" height="40" viewBox="0 0 40 40" fill="none" xmlns="http://www.w3.org/2000/svg">
<g clip-path="url(#clip0_1_16949)">
<path d="M30.6609 0H9.34256C6.86476 0 4.48844 0.906151 2.73637 2.51911C0.984303 4.13207 0 6.31971 0 8.60078V31.3992C0 33.6803 0.984303 35.8679 2.73637 37.4809C4.48844 39.0938 6.86476 40 9.34256 40H30.6574C33.1352 40 35.5116 39.0938 37.2636 37.4809C39.0157 35.8679 40 33.6803 40 31.3992V8.60078C40 6.32026 39.0162 4.1331 37.2649 2.52024C35.5135 0.907369 33.1381 0.000844636 30.6609 0Z" fill="#297EFF"/>
<path d="M30.6609 36.7675H9.34256C6.86476 36.7675 4.48844 35.8443 2.73637 34.201C0.984303 32.5577 0 30.3289 0 28.0049V31.2373C0 33.5613 0.984303 35.7901 2.73637 37.4335C4.48844 39.0768 6.86476 40 9.34256 40H30.6574C33.1352 40 35.5116 39.0768 37.2636 37.4335C39.0157 35.7901 40 33.5613 40 31.2373V28C40.0007 29.1509 39.7596 30.2906 39.2907 31.3541C38.8217 32.4176 38.1339 33.384 37.2667 34.1981C36.3994 35.0123 35.3697 35.6583 34.2363 36.0991C33.1028 36.54 31.8879 36.7671 30.6609 36.7675Z" fill="#213EA1"/>
<path d="M28.5245 4H11.4755C7.34688 4 4 7.1377 4 11.0082V26.9918C4 30.8623 7.34688 34 11.4755 34H28.5245C32.6531 34 36 30.8623 36 26.9918V11.0082C36 7.1377 32.6531 4 28.5245 4Z" fill="url(#paint0_linear_1_16949)"/>
<path d="M14.4131 13.3887C12.8002 15.7716 16.2809 17.2804 18.4839 14.5041C20.0671 12.5095 17.8093 8.36986 14.4131 13.3887Z" fill="#2F75FF"/>
<path d="M34.209 18.2898H32.4951L32.5513 18.0144C32.6027 17.7896 32.586 17.5548 32.5032 17.3394C32.4205 17.1319 32.276 16.9543 32.0889 16.8303C31.9018 16.7063 31.681 16.6418 31.4559 16.6453H27.7133V14.8656C27.7133 14.4008 27.8257 14.3291 27.8739 14.2941C28.0474 14.1827 28.4698 14.0505 29.5043 14.0505H31.4511C31.7493 14.0505 32.0353 13.9331 32.2461 13.7242C32.457 13.5152 32.5754 13.2317 32.5754 12.9362V9.07903C32.5755 8.92377 32.5428 8.77021 32.4794 8.62821C32.4161 8.48621 32.3235 8.35889 32.2076 8.25442C32.0647 8.12548 30.7234 7 27.5575 7C25.3585 7 23.5418 7.81187 22.3002 9.34647C21.1758 10.7298 20.5943 12.6385 20.5943 14.8656V16.6453H17.8299C17.5317 16.6453 17.2457 16.7627 17.0349 16.9717C16.824 17.1807 16.7056 17.4641 16.7056 17.7597V18.2898H5.7942C5.56315 18.2849 5.33341 18.3253 5.11813 18.4085C4.90284 18.4918 4.70624 18.6163 4.53958 18.775C4.37292 18.9337 4.23948 19.1233 4.14689 19.3332C4.0543 19.543 4.00438 19.7689 4 19.9979V29.1625C4 33.1009 6.58287 35 10.711 35H29.2938C33.4219 35 36 32.8414 36 28.903V19.9979C35.9956 19.7692 35.9458 19.5436 35.8534 19.3339C35.761 19.1243 35.6279 18.9348 35.4616 18.7761C35.2952 18.6175 35.099 18.4929 34.8841 18.4095C34.6692 18.326 34.4398 18.2854 34.209 18.2898Z" fill="#2649BE"/>
<path d="M9.49523 27.8122C9.69997 28.6103 10.0024 29.4199 10.5977 29.9712C11.4057 30.7282 12.5727 30.8516 13.6547 30.9388C14.3729 30.9964 15.1021 31.054 15.8092 30.9075C16.5164 30.7611 17.2109 30.3875 17.5968 29.7556C17.9827 29.1237 18 28.3174 18 27.5637C18 26.81 18 25.9855 17.7165 25.2598C17.3747 24.4074 16.6613 23.7656 15.8722 23.3476C15.0832 22.9296 14.2122 22.7141 13.3523 22.5001C12.2766 22.2336 10.0354 21.3861 9.35033 22.7766C8.66523 24.1671 9.13456 26.4167 9.49523 27.8122Z" fill="#315FF7"/>
<path d="M9 24C9.55228 24 10 23.5523 10 23C10 22.4477 9.55228 22 9 22C8.44772 22 8 22.4477 8 23C8 23.5523 8.44772 24 9 24Z" fill="#29B1FF"/>
<path d="M32 12.7164H29.9998C27.8543 12.7164 26.9994 13.1835 26.9994 14.6035V17.4343H32L30.9999 22.1522H26.9994V34H22.0005V22.1522H18V17.4343H22.0005V14.6035C22.0005 10.8308 23.9991 8 27.9995 8C30.8992 8 32 8.94359 32 8.94359V12.7164Z" fill="white"/>
<path d="M13.8615 3.43462C13.8615 4.01622 12.4094 4.06168 10.6173 4.06168C8.82512 4.06168 7.37305 4.01152 7.37305 3.43462C7.37305 2.85773 8.82682 2.58496 10.6173 2.58496C12.4077 2.58496 13.8615 2.8546 13.8615 3.43462Z" fill="#A3FFFD"/>
<path d="M17.0956 3.74188C17.6581 3.74188 18.1141 3.4829 18.1141 3.16342C18.1141 2.84395 17.6581 2.58496 17.0956 2.58496C16.5331 2.58496 16.0771 2.84395 16.0771 3.16342C16.0771 3.4829 16.5331 3.74188 17.0956 3.74188Z" fill="#A3FFFD"/>
<g style="mix-blend-mode:overlay">
<path d="M30.6609 0.955642C32.8623 0.959011 34.9724 1.76556 36.529 3.19857C38.0856 4.63158 38.9617 6.5742 38.9654 8.60078V31.3992C38.9617 33.4258 38.0856 35.3684 36.529 36.8014C34.9724 38.2344 32.8623 39.041 30.6609 39.0444H9.34256C7.14105 39.0414 5.03063 38.235 3.47393 36.8019C1.91723 35.3688 1.04127 33.4259 1.03806 31.3992V8.60078C1.04127 6.57407 1.91723 4.63121 3.47393 3.19811C5.03063 1.76501 7.14105 0.958591 9.34256 0.955642H30.6574M30.6574 0H9.34256C6.86476 0 4.48844 0.906151 2.73637 2.51911C0.984303 4.13207 0 6.31971 0 8.60078V31.3992C0 33.6803 0.984303 35.8679 2.73637 37.4809C4.48844 39.0938 6.86476 40 9.34256 40H30.6574C33.1352 40 35.5116 39.0938 37.2636 37.4809C39.0157 35.8679 40 33.6803 40 31.3992V8.60078C40 6.31971 39.0157 4.13207 37.2636 2.51911C35.5116 0.906151 33.1352 0 30.6574 0Z" fill="#FFC3AD"/>
</g>
<path d="M30.6609 0H9.34256C6.86476 0 4.48844 0.906151 2.73637 2.51911C0.984303 4.13207 0 6.31971 0 8.60078V31.3992C0 33.6803 0.984303 35.8679 2.73637 37.4809C4.48844 39.0938 6.86476 40 9.34256 40H30.6574C33.1352 40 35.5116 39.0938 37.2636 37.4809C39.0157 35.8679 40 33.6803 40 31.3992V8.60078C40 6.32026 39.0162 4.1331 37.2649 2.52024C35.5135 0.907369 33.1381 0.000844636 30.6609 0Z" stroke="#5C2929" stroke-width="2" stroke-linecap="round" stroke-linejoin="round"/>
<g style="mix-blend-mode:overlay" opacity="0.57">
<path d="M33.0001 32C33.5524 32 34.0001 31.5523 34.0001 31C34.0001 30.4477 33.5524 30 33.0001 30C32.4479 30 32.0001 30.4477 32.0001 31C32.0001 31.5523 32.4479 32 33.0001 32Z" fill="#3B3B3B"/>
<path d="M32.5001 16C32.7763 16 33.0001 15.7761 33.0001 15.5C33.0001 15.2239 32.7763 15 32.5001 15C32.224 15 32.0001 15.2239 32.0001 15.5C32.0001 15.7761 32.224 16 32.5001 16Z" fill="#3B3B3B"/>
<path d="M20.5001 8C20.7763 8 21.0001 7.77614 21.0001 7.5C21.0001 7.22386 20.7763 7 20.5001 7C20.224 7 20.0001 7.22386 20.0001 7.5C20.0001 7.77614 20.224 8 20.5001 8Z" fill="white"/>
<path d="M25.5001 6C25.7763 6 26.0001 5.77614 26.0001 5.5C26.0001 5.22386 25.7763 5 25.5001 5C25.224 5 25.0001 5.22386 25.0001 5.5C25.0001 5.77614 25.224 6 25.5001 6Z" fill="#3B3B3B"/>
<path d="M30.5001 28C30.7763 28 31.0001 27.7761 31.0001 27.5C31.0001 27.2239 30.7763 27 30.5001 27C30.224 27 30.0001 27.2239 30.0001 27.5C30.0001 27.7761 30.224 28 30.5001 28Z" fill="white"/>
<path d="M10.0001 30C10.5524 30 11.0001 29.5523 11.0001 29C11.0001 28.4477 10.5524 28 10.0001 28C9.44785 28 9.00014 28.4477 9.00014 29C9.00014 29.5523 9.44785 30 10.0001 30Z" fill="#3B3B3B"/>
</g>
<path d="M17.5 30C17.7761 30 18 29.7761 18 29.5C18 29.2239 17.7761 29 17.5 29C17.2239 29 17 29.2239 17 29.5C17 29.7761 17.2239 30 17.5 30Z" fill="#29D8FF"/>
<path d="M10.5 16C10.7761 16 11 15.7761 11 15.5C11 15.2239 10.7761 15 10.5 15C10.2239 15 10 15.2239 10 15.5C10 15.7761 10.2239 16 10.5 16Z" fill="#29D8FF"/>
<path d="M9 11C9.55228 11 10 10.5523 10 10C10 9.44772 9.55228 9 9 9C8.44772 9 8 9.44772 8 10C8 10.5523 8.44772 11 9 11Z" fill="#29B1FF"/>
<path d="M34.5 24C34.7761 24 35 23.7761 35 23.5C35 23.2239 34.7761 23 34.5 23C34.2239 23 34 23.2239 34 23.5C34 23.7761 34.2239 24 34.5 24Z" fill="#29D8FF"/>
</g>
<defs>
<linearGradient id="paint0_linear_1_16949" x1="20" y1="31.5927" x2="20" y2="2.75616" gradientUnits="userSpaceOnUse">
<stop stop-color="#3C64FF" stop-opacity="0"/>
<stop offset="1" stop-color="#1D46A6"/>
</linearGradient>
<clipPath id="clip0_1_16949">
<rect width="40" height="40" fill="white"/>
</clipPath>
</defs>
</svg>
