<svg width="40" height="40" viewBox="0 0 40 40" fill="none" xmlns="http://www.w3.org/2000/svg">
<g clip-path="url(#clip0_1_17205)">
<path d="M30.6609 0H9.34256C6.86476 0 4.48844 0.906151 2.73637 2.51911C0.984303 4.13207 0 6.31971 0 8.60078V31.3992C0 33.6803 0.984303 35.8679 2.73637 37.4809C4.48844 39.0938 6.86476 40 9.34256 40H30.6574C33.1352 40 35.5116 39.0938 37.2636 37.4809C39.0157 35.8679 40 33.6803 40 31.3992V8.60078C40 6.32026 39.0162 4.1331 37.2649 2.52024C35.5135 0.907369 33.1381 0.000844636 30.6609 0Z" fill="#A53768"/>
<path d="M30.4739 36.5657H9.52254C7.0874 36.5657 4.75199 35.6738 3.03008 34.0863C1.30818 32.4987 0.34082 30.3455 0.34082 28.1004V31.2232C0.34082 33.4683 1.30818 35.6215 3.03008 37.209C4.75199 38.7966 7.0874 39.6884 9.52254 39.6884H30.4705C32.9056 39.6884 35.241 38.7966 36.9629 37.209C38.6848 35.6215 39.6522 33.4683 39.6522 31.2232V28.0957C39.6529 29.2075 39.416 30.3086 38.9551 31.3359C38.4942 32.3633 37.8182 33.297 36.9659 34.0835C36.1136 34.87 35.1016 35.4941 33.9877 35.92C32.8738 36.3459 31.6798 36.5653 30.4739 36.5657Z" fill="#611E34"/>
<path d="M28.5245 4H11.4755C7.34688 4 4 7.1377 4 11.0082V26.9918C4 30.8623 7.34688 34 11.4755 34H28.5245C32.6531 34 36 30.8623 36 26.9918V11.0082C36 7.1377 32.6531 4 28.5245 4Z" fill="url(#paint0_linear_1_17205)"/>
<path d="M36 19.6358V28.1623C36 31.9316 33.4216 34 29.2928 34H10.712C6.58326 34 4 32.1801 4 28.4107V19.6358C4.00886 19.1938 4.20236 18.7732 4.53796 18.4665C4.87355 18.1598 5.32378 17.9922 5.78965 18.0003H34.2087C34.4396 17.9961 34.669 18.035 34.8839 18.1149C35.0989 18.1948 35.2951 18.3141 35.4615 18.466C35.6278 18.6179 35.761 18.7993 35.8534 19.0001C35.9458 19.2008 35.9956 19.4168 36 19.6358Z" fill="#6A213F"/>
<path d="M31.1265 15.5755L32.0319 15.1216C32.3146 15.0165 32.5577 14.8309 32.7292 14.5894C32.9007 14.3478 32.9924 14.0617 32.9924 13.7686C32.9924 13.4756 32.9007 13.1895 32.7292 12.9479C32.5577 12.7064 32.3146 12.5208 32.0319 12.4156C31.3112 12.0828 30.2211 11.59 29.1564 11.1087C26.8809 10.0799 24.3017 8.91282 23.1834 8.34655C22.7492 8.11675 22.2617 7.99752 21.7668 8.00004C21.2718 8.00256 20.7857 8.12675 20.354 8.36096L20.1157 8.47479C9.55913 13.5179 7.89575 14.3378 7.66196 14.4747C6.68358 15.051 6.08197 16.1418 6.00751 17.4732C5.90029 19.4587 6.95163 21.4731 8.51226 22.2642L15.5247 25.7569C15.7483 26.4364 16.1987 27.0248 16.8052 27.4299C17.4118 27.835 18.1401 28.0339 18.876 27.9953C19.6119 27.9567 20.3138 27.6829 20.8715 27.2168C21.4292 26.7507 21.8113 26.1186 21.9578 25.4197L29.1802 21.6388C29.6119 21.849 30.0859 21.9656 30.5689 21.9805C31.052 21.9953 31.5326 21.9081 31.9773 21.725C32.422 21.5418 32.8201 21.267 33.1438 20.9197C33.4676 20.5725 33.7092 20.1611 33.8518 19.7143C33.9945 19.2675 34.0348 18.7959 33.9699 18.3325C33.905 17.8691 33.7365 17.4249 33.476 17.031C33.2156 16.637 32.8696 16.3027 32.462 16.0513C32.0544 15.8 31.5951 15.6376 31.1161 15.5755H31.1265Z" fill="#6A213F"/>
<path d="M26.7114 27.5526C25.9985 27.854 25.2285 28.2659 25.0398 28.9791C24.8683 29.6299 25.2723 30.32 25.846 30.7229C26.4197 31.1259 27.1345 31.306 27.8302 31.4754C29.2349 31.8178 30.6892 32.1619 32.1206 31.9176C34.3143 31.5432 35.6047 29.7405 34.7165 27.7737C34.442 27.1675 34.1047 26.4614 33.4338 26.169C32.6295 25.8124 31.6002 26.1048 30.7883 26.276C29.3873 26.5737 28.0216 27.0014 26.7114 27.5526Z" fill="#892B4B"/>
<path d="M30.4109 23.1987C30.2147 23.3539 30.0108 23.5573 30 23.8118C30.001 23.9058 30.0227 23.9984 30.0636 24.083C30.1045 24.1675 30.1635 24.2419 30.2363 24.3008C30.3835 24.4169 30.5497 24.5062 30.7276 24.5647C31.2362 24.7572 31.7647 24.8921 32.3032 24.9667C32.7743 25.0304 33.3057 25.0304 33.661 24.7122C34.0549 24.3614 34.0812 23.728 33.8649 23.2453C33.6733 22.8137 33.0925 21.9383 32.5426 22.0034C32.1765 22.0438 31.7826 22.303 31.4613 22.4816C31.0921 22.6911 30.7408 22.931 30.4109 23.1987Z" fill="#892B4B"/>
<path d="M11.2227 2.7832C9.43059 2.7832 7.97852 3.05441 7.97852 3.63443C7.97852 4.21446 9.43059 4.26149 11.2227 4.26149C13.0149 4.26149 14.4652 4.21133 14.4652 3.63443C14.4652 3.05754 13.0166 2.7832 11.2227 2.7832Z" fill="#FF8099"/>
<path d="M17.7048 2.94531C17.142 2.94531 16.6846 3.20397 16.6846 3.52377C16.6846 3.84357 17.1403 4.10223 17.7048 4.10223C18.2693 4.10223 18.725 3.842 18.725 3.52377C18.725 3.20554 18.2693 2.94531 17.7048 2.94531Z" fill="#FF8099"/>
<g style="mix-blend-mode:overlay">
<path d="M30.6609 0.955642C32.8623 0.959011 34.9724 1.76556 36.529 3.19857C38.0856 4.63158 38.9617 6.5742 38.9654 8.60078V31.3992C38.9617 33.4258 38.0856 35.3684 36.529 36.8014C34.9724 38.2344 32.8623 39.041 30.6609 39.0444H9.34256C7.14105 39.0414 5.03063 38.235 3.47393 36.8019C1.91723 35.3688 1.04127 33.4259 1.03806 31.3992V8.60078C1.04127 6.57407 1.91723 4.63121 3.47393 3.19811C5.03063 1.76501 7.14105 0.958591 9.34256 0.955642H30.6574M30.6574 0H9.34256C6.86476 0 4.48844 0.906151 2.73637 2.51911C0.984303 4.13207 0 6.31971 0 8.60078V31.3992C0 33.6803 0.984303 35.8679 2.73637 37.4809C4.48844 39.0938 6.86476 40 9.34256 40H30.6574C33.1352 40 35.5116 39.0938 37.2636 37.4809C39.0157 35.8679 40 33.6803 40 31.3992V8.60078C40 6.31971 39.0157 4.13207 37.2636 2.51911C35.5116 0.906151 33.1352 0 30.6574 0Z" fill="#E480FF"/>
</g>
<g style="mix-blend-mode:overlay" opacity="0.77">
<path d="M6 28C6.55228 28 7 27.5523 7 27C7 26.4477 6.55228 26 6 26C5.44772 26 5 26.4477 5 27C5 27.5523 5.44772 28 6 28Z" fill="#4A463D"/>
<path d="M33.5 11C33.7761 11 34 10.7761 34 10.5C34 10.2239 33.7761 10 33.5 10C33.2239 10 33 10.2239 33 10.5C33 10.7761 33.2239 11 33.5 11Z" fill="white"/>
<path d="M20.5 7C20.7761 7 21 6.77614 21 6.5C21 6.22386 20.7761 6 20.5 6C20.2239 6 20 6.22386 20 6.5C20 6.77614 20.2239 7 20.5 7Z" fill="white"/>
<path d="M17.5 30C17.7761 30 18 29.7761 18 29.5C18 29.2239 17.7761 29 17.5 29C17.2239 29 17 29.2239 17 29.5C17 29.7761 17.2239 30 17.5 30Z" fill="#4A463D"/>
<path d="M37.5 16C37.7761 16 38 15.7761 38 15.5C38 15.2239 37.7761 15 37.5 15C37.2239 15 37 15.2239 37 15.5C37 15.7761 37.2239 16 37.5 16Z" fill="white"/>
<path d="M9 32C9.55228 32 10 31.5523 10 31C10 30.4477 9.55228 30 9 30C8.44771 30 8 30.4477 8 31C8 31.5523 8.44771 32 9 32Z" fill="white"/>
</g>
<path d="M32 28C32.5523 28 33 27.5523 33 27C33 26.4477 32.5523 26 32 26C31.4477 26 31 26.4477 31 27C31 27.5523 31.4477 28 32 28Z" fill="#FD7DFF"/>
<path d="M22.5 32C22.7761 32 23 31.7761 23 31.5C23 31.2239 22.7761 31 22.5 31C22.2239 31 22 31.2239 22 31.5C22 31.7761 22.2239 32 22.5 32Z" fill="#E84D92"/>
<path d="M8 10C8.55228 10 9 9.55228 9 9C9 8.44772 8.55228 8 8 8C7.44772 8 7 8.44772 7 9C7 9.55228 7.44772 10 8 10Z" fill="#FD7DFF"/>
<path d="M6.5 14C6.77614 14 7 13.7761 7 13.5C7 13.2239 6.77614 13 6.5 13C6.22386 13 6 13.2239 6 13.5C6 13.7761 6.22386 14 6.5 14Z" fill="#E84D92"/>
<path d="M30.5 7C30.7761 7 31 6.77614 31 6.5C31 6.22386 30.7761 6 30.5 6C30.2239 6 30 6.22386 30 6.5C30 6.77614 30.2239 7 30.5 7Z" fill="#E84D92"/>
<path d="M30.6609 0H9.34256C6.86476 0 4.48844 0.906151 2.73637 2.51911C0.984303 4.13207 0 6.31971 0 8.60078V31.3992C0 33.6803 0.984303 35.8679 2.73637 37.4809C4.48844 39.0938 6.86476 40 9.34256 40H30.6574C33.1352 40 35.5116 39.0938 37.2636 37.4809C39.0157 35.8679 40 33.6803 40 31.3992V8.60078C40 6.32026 39.0162 4.1331 37.2649 2.52024C35.5135 0.907369 33.1381 0.000844636 30.6609 0Z" stroke="#5C2929" stroke-width="2" stroke-linecap="round" stroke-linejoin="round"/>
<path d="M18.7042 23.9978C18.8546 23.9978 19.0016 24.0408 19.1266 24.1213C19.2516 24.2018 19.3489 24.3162 19.4062 24.45C19.4635 24.5838 19.4782 24.7309 19.4484 24.8727C19.4186 25.0145 19.3457 25.1447 19.2389 25.2466C19.1321 25.3485 18.9963 25.4176 18.8486 25.4451C18.701 25.4726 18.5481 25.4573 18.4095 25.4012C18.2709 25.345 18.1527 25.2505 18.07 25.1297C17.9873 25.0088 17.9437 24.8671 17.9449 24.7224C17.9453 24.5286 18.0256 24.3428 18.1683 24.2059C18.3109 24.069 18.5042 23.9921 18.7057 23.9921M30.6503 19.4702C30.5001 19.4702 30.3533 19.4274 30.2285 19.3471C30.1036 19.2669 30.0063 19.1528 29.9488 19.0194C29.8914 18.8859 29.8763 18.7391 29.9056 18.5974C29.9349 18.4557 30.0072 18.3256 30.1134 18.2235C30.2196 18.1214 30.3549 18.0518 30.5022 18.0236C30.6495 17.9954 30.8021 18.0099 30.9408 18.0652C31.0796 18.1205 31.1982 18.2141 31.2816 18.3342C31.365 18.4543 31.4096 18.5955 31.4096 18.7399C31.4096 18.9336 31.3296 19.1193 31.1872 19.2563C31.0448 19.3933 30.8517 19.4702 30.6503 19.4702ZM30.6503 16.4789C30.0263 16.4789 29.4278 16.717 28.9861 17.1408C28.5443 17.5647 28.2953 18.1397 28.2938 18.7399C28.2949 18.9831 28.3376 19.2245 28.4201 19.4545L20.6373 23.4362C20.4043 23.1119 20.0873 22.8519 19.7177 22.6818C19.3481 22.5116 18.9387 22.4373 18.53 22.4662C18.1214 22.4951 17.7277 22.6262 17.3879 22.8464C17.0481 23.0667 16.774 23.3685 16.5928 23.722L9.6094 20.1834C8.86648 19.8103 8.31821 18.6427 8.37616 17.5794C8.40736 17.0249 8.60646 16.5947 8.90957 16.4361C9.01455 16.3846 9.13159 16.3602 9.24928 16.3652C9.36698 16.3702 9.48132 16.4045 9.58117 16.4646L9.62723 16.4875C11.4801 17.4251 17.5408 20.4892 17.7993 20.6035C18.1931 20.7779 18.4115 20.8494 19.0831 20.5435L31.6027 14.2894C31.713 14.2558 31.8101 14.1909 31.8812 14.1031C31.9522 14.0153 31.994 13.9089 32.0009 13.7978C32.0009 13.4419 31.6176 13.3019 31.6161 13.3019C30.9044 12.9732 29.8093 12.4815 28.741 12.0013C26.4573 10.9738 23.8689 9.81041 22.7323 9.23874C22.44 9.08101 22.1103 8.99876 21.7752 9.00001C21.4401 9.00127 21.111 9.08597 20.82 9.24589L20.5466 9.37594C15.4309 11.8055 8.58417 15.0598 8.19488 15.2899C7.49654 15.6972 7.06416 16.5104 7.00622 17.5179C6.91855 19.1172 7.76696 20.7836 8.98238 21.3953L16.3729 25.0554C16.4565 25.6195 16.7581 26.1326 17.2176 26.4922C17.6772 26.8518 18.2608 27.0315 18.852 26.9955C19.4432 26.9594 19.9985 26.7102 20.4071 26.2976C20.8157 25.885 21.0475 25.3393 21.0563 24.7696L29.1971 20.5349C29.4922 20.7573 29.8383 20.9087 30.2065 20.9764C30.5747 21.044 30.9545 21.0261 31.314 20.924C31.6735 20.8218 32.0025 20.6385 32.2734 20.3893C32.5444 20.1401 32.7495 19.8323 32.8716 19.4913C32.9938 19.1504 33.0295 18.7864 32.9757 18.4295C32.9219 18.0727 32.7802 17.7334 32.5624 17.4399C32.3446 17.1464 32.057 16.9072 31.7236 16.7423C31.3903 16.5774 31.0207 16.4915 30.6458 16.4918" fill="white"/>
</g>
<defs>
<linearGradient id="paint0_linear_1_17205" x1="20" y1="27.9817" x2="20" y2="-1.56192" gradientUnits="userSpaceOnUse">
<stop stop-color="#A23958" stop-opacity="0"/>
<stop offset="1" stop-color="#49152C"/>
</linearGradient>
<clipPath id="clip0_1_17205">
<rect width="40" height="40" fill="white"/>
</clipPath>
</defs>
</svg>
