<svg width="40" height="40" viewBox="0 0 40 40" fill="none" xmlns="http://www.w3.org/2000/svg">
<g clip-path="url(#clip0_1_17141)">
<path d="M30.6609 0H9.34256C6.86476 0 4.48844 0.906151 2.73637 2.51911C0.984303 4.13207 0 6.31971 0 8.60078V31.3992C0 33.6803 0.984303 35.8679 2.73637 37.4809C4.48844 39.0938 6.86476 40 9.34256 40H30.6574C33.1352 40 35.5116 39.0938 37.2636 37.4809C39.0157 35.8679 40 33.6803 40 31.3992V8.60078C40 6.32026 39.0162 4.1331 37.2649 2.52024C35.5135 0.907369 33.1381 0.000844636 30.6609 0Z" fill="#3FC9FF"/>
<path d="M30.6609 36.7675H9.34256C6.86476 36.7675 4.48844 35.8443 2.73637 34.201C0.984303 32.5577 0 30.3289 0 28.0049V31.2373C0 33.5613 0.984303 35.7901 2.73637 37.4335C4.48844 39.0768 6.86476 40 9.34256 40H30.6574C33.1352 40 35.5116 39.0768 37.2636 37.4335C39.0157 35.7901 40 33.5613 40 31.2373V28C40.0007 29.1509 39.7596 30.2906 39.2907 31.3541C38.8217 32.4176 38.1339 33.384 37.2667 34.1981C36.3994 35.0123 35.3697 35.6583 34.2363 36.0991C33.1028 36.54 31.8879 36.7671 30.6609 36.7675Z" fill="#2F6BA1"/>
<path d="M28.5245 4H11.4755C7.34688 4 4 7.1377 4 11.0082V26.9918C4 30.8623 7.34688 34 11.4755 34H28.5245C32.6531 34 36 30.8623 36 26.9918V11.0082C36 7.1377 32.6531 4 28.5245 4Z" fill="url(#paint0_linear_1_17141)"/>
<path d="M12.1263 8.89375C11.682 9.25466 11.2724 9.66797 11.0891 10.1642C10.9059 10.6605 10.9975 11.2543 11.4349 11.6195C11.9258 12.0154 12.6864 12.0343 13.3622 11.9746C14.7188 11.8526 16.0349 11.5127 17.2394 10.9734C17.7805 10.7303 18.3129 10.4349 18.6482 10.0012C18.8707 9.70594 18.9923 9.36473 18.9996 9.01508C19.007 8.66542 18.8997 8.32083 18.6897 8.01911C18.2507 7.40352 17.255 7.01495 16.4097 7.0004C15.4694 6.98293 14.3216 7.54759 13.5524 7.95653C13.0408 8.22784 12.5631 8.54183 12.1263 8.89375Z" fill="#44B4F7"/>
<path d="M34.209 18.0004H5.7942C5.56315 17.9957 5.33341 18.0344 5.11813 18.1141C4.90284 18.1938 4.70624 18.313 4.53958 18.4649C4.37292 18.6169 4.23948 18.7985 4.14689 18.9994C4.0543 19.2003 4.00438 19.4166 4 19.6359V28.4107C4 32.1816 6.58287 34 10.711 34H29.2938C33.4219 34 36 31.9332 36 28.1623V19.6359C35.9956 19.4169 35.9458 19.2008 35.8534 19.0001C35.761 18.7994 35.6279 18.6179 35.4616 18.466C35.2952 18.3142 35.099 18.1949 34.8841 18.115C34.6692 18.0351 34.4398 17.9961 34.209 18.0004Z" fill="#377EBE"/>
<path d="M20.5 7C20.7761 7 21 6.77614 21 6.5C21 6.22386 20.7761 6 20.5 6C20.2239 6 20 6.22386 20 6.5C20 6.77614 20.2239 7 20.5 7Z" fill="#3FF5FF"/>
<path d="M16.6621 27.8981C16.9016 27.8981 17.0957 27.7192 17.0957 27.4984C17.0957 27.2776 16.9016 27.0986 16.6621 27.0986C16.4226 27.0986 16.2285 27.2776 16.2285 27.4984C16.2285 27.7192 16.4226 27.8981 16.6621 27.8981Z" fill="#3FF5FF"/>
<path d="M33.5 24C33.7761 24 34 23.7761 34 23.5C34 23.2239 33.7761 23 33.5 23C33.2239 23 33 23.2239 33 23.5C33 23.7761 33.2239 24 33.5 24Z" fill="#3FF5FF"/>
<path d="M5.5 15C5.77614 15 6 14.7761 6 14.5C6 14.2239 5.77614 14 5.5 14C5.22386 14 5 14.2239 5 14.5C5 14.7761 5.22386 15 5.5 15Z" fill="#A3FFFD"/>
<path d="M12.4586 24.4181C11.9617 24.891 11.927 25.6874 12.081 26.3595C12.3461 27.5054 13.0303 28.5101 13.9985 29.1755C14.9667 29.8408 16.1487 30.1184 17.3112 29.9536C17.9736 29.859 18.7007 29.5437 18.9259 28.9082C19.1512 28.2727 18.8249 27.6322 18.4556 27.1028C17.7462 26.0923 16.8205 25.2533 15.7461 24.647C14.8617 24.1476 13.3264 23.6017 12.4586 24.4181Z" fill="#3EA4E0"/>
<path d="M30.436 9.13597C30.6889 9.12915 30.9401 9.17775 31.1708 9.27812C31.6478 9.49781 31.8905 9.99212 31.8168 10.732C31.5725 13.1857 29.5958 25.6353 29.174 26.8856C28.8142 27.9533 28.4326 28.8725 27.7096 28.8725C26.88 28.8501 26.0787 28.5772 25.4183 28.0923C24.64 27.5543 19.4683 24.2073 18.7486 23.7695C18.1209 23.3867 17.4531 22.4304 18.3921 21.508C19.1653 20.7488 25.0266 15.2566 25.5271 14.7736C25.9003 14.4134 25.7245 13.9788 25.3597 13.9788C25.1992 13.9873 25.0467 14.0489 24.9279 14.1533C24.3136 14.6379 15.7744 20.1527 15.0346 20.5954C14.4161 20.9346 13.7158 21.1101 13.0044 21.1042C12.6653 21.1059 12.3276 21.0636 12.0002 20.9782C10.8638 20.6761 8.94069 20.1124 8.17581 19.8474C7.44273 19.5954 7.17159 19.3515 7.17159 18.9186C7.17159 18.3015 8.07037 17.8767 9.0227 17.4874C10.0269 17.0755 27.3899 9.95981 28.7489 9.48651C29.2866 9.27955 29.8562 9.16054 30.4343 9.13436M30.4343 8.0036C29.72 8.02737 29.0151 8.16943 28.3506 8.4236C26.9095 8.92436 8.74487 16.3712 8.56411 16.4471C7.60508 16.8396 6 17.4971 6 18.9186C6 20.2997 7.29042 20.7456 7.77747 20.9136C8.6026 21.1963 10.5541 21.7649 11.6839 22.067C12.1124 22.1774 12.5543 22.2317 12.9977 22.2285C13.9287 22.2349 14.8445 22.0012 15.6505 21.5517C15.8397 21.4386 17.1452 20.6034 18.7586 19.5631C18.1762 20.114 17.7343 20.5324 17.5552 20.7117C17.2725 20.971 17.0548 21.289 16.9185 21.6417C16.7822 21.9944 16.7309 22.3724 16.7686 22.747C16.8293 23.1523 16.9821 23.5397 17.2162 23.8812C17.4503 24.2228 17.7599 24.5101 18.1226 24.7226C18.8758 25.1814 24.0057 28.5042 24.7354 29.0082C25.5944 29.6306 26.634 29.9775 27.7079 30C29.3531 30 29.9372 28.2667 30.2871 27.2329C30.7892 25.7564 32.7641 13.0177 32.9817 10.8369C33.1491 9.12628 32.1248 8.45914 31.6745 8.25237C31.2859 8.07971 30.8621 7.99359 30.4343 8.00037V8.0036Z" fill="#377EBE"/>
<path d="M13.8615 3.43462C13.8615 4.01622 12.4094 4.06168 10.6173 4.06168C8.82512 4.06168 7.37305 4.01152 7.37305 3.43462C7.37305 2.85773 8.82682 2.58496 10.6173 2.58496C12.4077 2.58496 13.8615 2.8546 13.8615 3.43462Z" fill="#A3FFFD"/>
<path d="M17.0956 3.74188C17.6581 3.74188 18.1141 3.4829 18.1141 3.16342C18.1141 2.84395 17.6581 2.58496 17.0956 2.58496C16.5331 2.58496 16.0771 2.84395 16.0771 3.16342C16.0771 3.4829 16.5331 3.74188 17.0956 3.74188Z" fill="#A3FFFD"/>
<g style="mix-blend-mode:overlay">
<path d="M30.6609 0.955642C32.8623 0.959011 34.9724 1.76556 36.529 3.19857C38.0856 4.63158 38.9617 6.5742 38.9654 8.60078V31.3992C38.9617 33.4258 38.0856 35.3684 36.529 36.8014C34.9724 38.2344 32.8623 39.041 30.6609 39.0444H9.34256C7.14105 39.0414 5.03063 38.235 3.47393 36.8019C1.91723 35.3688 1.04127 33.4259 1.03806 31.3992V8.60078C1.04127 6.57407 1.91723 4.63121 3.47393 3.19811C5.03063 1.76501 7.14105 0.958591 9.34256 0.955642H30.6574M30.6574 0H9.34256C6.86476 0 4.48844 0.906151 2.73637 2.51911C0.984303 4.13207 0 6.31971 0 8.60078V31.3992C0 33.6803 0.984303 35.8679 2.73637 37.4809C4.48844 39.0938 6.86476 40 9.34256 40H30.6574C33.1352 40 35.5116 39.0938 37.2636 37.4809C39.0157 35.8679 40 33.6803 40 31.3992V8.60078C40 6.31971 39.0157 4.13207 37.2636 2.51911C35.5116 0.906151 33.1352 0 30.6574 0Z" fill="#FFC3AD"/>
</g>
<path d="M30.6609 0H9.34256C6.86476 0 4.48844 0.906151 2.73637 2.51911C0.984303 4.13207 0 6.31971 0 8.60078V31.3992C0 33.6803 0.984303 35.8679 2.73637 37.4809C4.48844 39.0938 6.86476 40 9.34256 40H30.6574C33.1352 40 35.5116 39.0938 37.2636 37.4809C39.0157 35.8679 40 33.6803 40 31.3992V8.60078C40 6.32026 39.0162 4.1331 37.2649 2.52024C35.5135 0.907369 33.1381 0.000844636 30.6609 0Z" stroke="#5C2929" stroke-width="2" stroke-linecap="round" stroke-linejoin="round"/>
<g style="mix-blend-mode:overlay" opacity="0.57">
<path d="M8 11C8.55228 11 9 10.5523 9 10C9 9.44771 8.55228 9 8 9C7.44772 9 7 9.44771 7 10C7 10.5523 7.44772 11 8 11Z" fill="#3B3B3B"/>
<path d="M7 22C6.44772 22 6 22.4477 6 23C6 23.5523 6.44772 24 7 24C7.55228 24 8 23.5523 8 23C8 22.4477 7.55228 22 7 22Z" fill="#3B3B3B"/>
<path d="M33 32C33.5523 32 34 31.5523 34 31C34 30.4477 33.5523 30 33 30C32.4477 30 32 30.4477 32 31C32 31.5523 32.4477 32 33 32Z" fill="#3B3B3B"/>
<path d="M32.5 16C32.7761 16 33 15.7761 33 15.5C33 15.2239 32.7761 15 32.5 15C32.2239 15 32 15.2239 32 15.5C32 15.7761 32.2239 16 32.5 16Z" fill="#3B3B3B"/>
<path d="M34.5 12C34.7761 12 35 11.7761 35 11.5C35 11.2239 34.7761 11 34.5 11C34.2239 11 34 11.2239 34 11.5C34 11.7761 34.2239 12 34.5 12Z" fill="white"/>
<path d="M25.5 7C25.7761 7 26 6.77614 26 6.5C26 6.22386 25.7761 6 25.5 6C25.2239 6 25 6.22386 25 6.5C25 6.77614 25.2239 7 25.5 7Z" fill="#3B3B3B"/>
<path d="M27.5 32C27.7761 32 28 31.7761 28 31.5C28 31.2239 27.7761 31 27.5 31C27.2239 31 27 31.2239 27 31.5C27 31.7761 27.2239 32 27.5 32Z" fill="white"/>
<path d="M10 32C10.5523 32 11 31.5523 11 31C11 30.4477 10.5523 30 10 30C9.44772 30 9 30.4477 9 31C9 31.5523 9.44772 32 10 32Z" fill="white"/>
</g>
<path d="M29.4149 26.0845C29.8254 24.881 31.7494 12.898 31.9873 10.5362C32.059 9.82101 31.8244 9.34523 31.3584 9.13688C30.7964 8.87878 29.9655 9.00783 29.0027 9.33901C27.6799 9.79457 10.7777 16.6467 9.80182 17.0401C8.87484 17.4148 8 17.8175 8 18.4176C8 18.8343 8.25903 19.0691 8.97748 19.3116C9.72199 19.5651 11.5939 20.1077 12.7 20.4C13.6985 20.6441 14.757 20.5127 15.6569 20.0331C16.377 19.6071 24.6888 14.2973 25.2867 13.8324C25.8846 13.3676 26.3587 13.9631 25.8715 14.4295C25.3844 14.8959 19.6809 20.1823 18.9249 20.9116C18.011 21.8009 18.661 22.7214 19.2719 23.0883C19.9725 23.5097 25.0065 26.7313 25.764 27.249C26.4068 27.7158 27.1869 27.9785 27.9943 28C28.6932 27.9969 29.0646 27.106 29.4149 26.0845Z" fill="white"/>
</g>
<defs>
<linearGradient id="paint0_linear_1_17141" x1="20" y1="27.3453" x2="20" y2="-1.49121" gradientUnits="userSpaceOnUse">
<stop stop-color="#52A7FF" stop-opacity="0"/>
<stop offset="1" stop-color="#0368A6"/>
</linearGradient>
<clipPath id="clip0_1_17141">
<rect width="40" height="40" fill="white"/>
</clipPath>
</defs>
</svg>
