<svg width="40" height="40" viewBox="0 0 40 40" fill="none" xmlns="http://www.w3.org/2000/svg">
<g clip-path="url(#clip0_1_17018)">
<path d="M30.6609 0H9.34256C6.86476 0 4.48844 0.906151 2.73637 2.51911C0.984303 4.13207 0 6.31971 0 8.60078V31.3992C0 33.6803 0.984303 35.8679 2.73637 37.4809C4.48844 39.0938 6.86476 40 9.34256 40H30.6574C33.1352 40 35.5116 39.0938 37.2636 37.4809C39.0157 35.8679 40 33.6803 40 31.3992V8.60078C40 6.32026 39.0162 4.1331 37.2649 2.52024C35.5135 0.907369 33.1381 0.000844636 30.6609 0Z" fill="#544D96"/>
<path d="M30.6609 36.7675H9.34256C6.86476 36.7675 4.48844 35.8443 2.73637 34.201C0.984303 32.5577 0 30.3289 0 28.0049V31.2373C0 33.5613 0.984303 35.7901 2.73637 37.4335C4.48844 39.0768 6.86476 40 9.34256 40H30.6574C33.1352 40 35.5116 39.0768 37.2636 37.4335C39.0157 35.7901 40 33.5613 40 31.2373V28C40.0007 29.1509 39.7596 30.2906 39.2907 31.3541C38.8217 32.4176 38.1339 33.384 37.2667 34.1981C36.3994 35.0123 35.3697 35.6583 34.2363 36.0991C33.1028 36.54 31.8879 36.7671 30.6609 36.7675Z" fill="#2F2852"/>
<path d="M28.5245 4H11.4755C7.34688 4 4 7.1377 4 11.0082V26.9918C4 30.8623 7.34688 34 11.4755 34H28.5245C32.6531 34 36 30.8623 36 26.9918V11.0082C36 7.1377 32.6531 4 28.5245 4Z" fill="url(#paint0_linear_1_17018)"/>
<path d="M8.73725 9.59119C8.13827 10.3971 7.74786 11.4826 8.18996 12.37C8.65703 13.3166 9.83182 13.6674 10.8765 13.921L14.3171 14.7685C15.2405 14.9926 16.2958 15.1941 17.0749 14.6626C17.7095 14.2284 17.9555 13.4208 17.9947 12.667C18.0981 10.6263 16.6684 8.07498 14.6825 7.22743C12.6966 6.37988 9.86925 8.06456 8.73725 9.59119Z" fill="#4B4383"/>
<path d="M34.209 18.0994H26.4186V17.0705C27.8506 17.7313 29.4088 18.0719 30.9852 18.0688C31.2834 18.0688 31.5694 17.95 31.7803 17.7387C31.9912 17.5273 32.1096 17.2406 32.1096 16.9417V12.8506C32.1096 12.5517 31.9912 12.265 31.7803 12.0537C31.5694 11.8423 31.2834 11.7236 30.9852 11.7236H30.9081C30.8761 11.4478 30.7436 11.1936 30.5361 11.0097C30.3286 10.8258 30.0607 10.7251 29.7838 10.727H29.7741C28.971 10.727 28.1821 10.5148 27.4868 10.1119C26.8798 9.40391 26.5046 8.52595 26.4122 7.59703V7.12528C26.4122 6.82638 26.2937 6.53971 26.0829 6.32835C25.872 6.11699 25.586 5.99825 25.2878 5.99825H25.2091C25.1774 5.72219 25.0451 5.46759 24.8376 5.28335C24.6301 5.09911 24.3619 4.9982 24.0847 5.00002H19.9904C19.6922 5.00002 19.4062 5.11877 19.1953 5.33012C18.9844 5.54148 18.866 5.82815 18.866 6.12706V14.8503C18.8114 14.8503 18.7551 14.8358 18.7054 14.831C18.6724 14.5864 18.5603 14.3594 18.3861 14.1849C18.212 14.0104 17.9856 13.898 17.7416 13.8649C17.3476 13.8115 16.9505 13.7846 16.553 13.7844C15.037 13.7851 13.5478 14.1841 12.2336 14.9414C10.9194 15.6988 9.82623 16.7882 9.06295 18.101H5.7942C5.56329 18.0961 5.33367 18.1368 5.11849 18.2209C4.90331 18.305 4.70678 18.4308 4.54014 18.5911C4.3735 18.7514 4.24003 18.9431 4.14734 19.1551C4.05466 19.3672 4.00459 19.5955 4 19.8269V29.096C4 33.0792 6.58287 35 10.711 35H29.2938C33.4219 35 36 32.8168 36 28.8335V19.8269C35.9956 19.5956 35.9458 19.3674 35.8534 19.1554C35.761 18.9434 35.6279 18.7517 35.4616 18.5912C35.2952 18.4308 35.099 18.3048 34.8841 18.2204C34.6692 18.136 34.4398 18.0949 34.209 18.0994Z" fill="#2F2852"/>
<path d="M26.7114 28.5526C25.9985 28.854 25.2285 29.2659 25.0398 29.9791C24.8683 30.6299 25.2723 31.32 25.846 31.7229C26.4197 32.1259 27.1345 32.306 27.8302 32.4754C29.2349 32.8178 30.6892 33.1619 32.1206 32.9176C34.3143 32.5432 35.6047 30.7405 34.7165 28.7737C34.442 28.1675 34.1047 27.4614 33.4338 27.169C32.6295 26.8124 31.6002 27.1048 30.7883 27.276C29.3873 27.5737 28.0216 28.0014 26.7114 28.5526Z" fill="#463C7A"/>
<path d="M30.4109 23.1987C30.2147 23.3539 30.0108 23.5573 30 23.8118C30.001 23.9058 30.0227 23.9984 30.0636 24.083C30.1045 24.1675 30.1635 24.2419 30.2363 24.3008C30.3835 24.4169 30.5497 24.5062 30.7276 24.5647C31.2362 24.7572 31.7647 24.8921 32.3032 24.9667C32.7743 25.0304 33.3057 25.0304 33.661 24.7122C34.0549 24.3614 34.0812 23.728 33.8649 23.2453C33.6733 22.8137 33.0925 21.9383 32.5426 22.0034C32.1765 22.0438 31.7826 22.303 31.4613 22.4816C31.0921 22.6911 30.7408 22.931 30.4109 23.1987Z" fill="#463C7A"/>
<path fill-rule="evenodd" clip-rule="evenodd" d="M24.5899 14.0266C26.168 15.2209 28.0601 15.8615 30 15.8583V12.7488C29.6182 12.7488 29.2374 12.7066 28.8639 12.6227V14.8559C26.9242 14.8582 25.0324 14.2177 23.4538 13.0243V22.4082C23.4527 23.7845 23.0985 25.1347 22.429 26.3145C21.7595 27.4944 20.7999 28.4595 19.6527 29.1069C18.5055 29.7543 17.2137 30.0596 15.9153 29.9902C14.6169 29.9209 13.3607 29.4794 12.2809 28.7131C13.2779 29.7929 14.5563 30.5338 15.9528 30.841C17.3493 31.1483 18.8006 31.008 20.1215 30.4382C21.4424 29.8683 22.5729 28.8946 23.3688 27.6415C24.1646 26.3883 24.5898 24.9125 24.5899 23.4024V14.0266ZM25.9917 10.8815C25.1898 9.95686 24.6973 8.77876 24.5899 7.52864V7H23.5118C23.6453 7.79459 23.935 8.55061 24.3622 9.21901C24.7894 9.88742 25.3446 10.4533 25.9917 10.8799V10.8815ZM13.8038 25.5008C13.3826 24.9129 13.149 24.1983 13.1369 23.4605C13.1249 22.7227 13.3349 22 13.7366 21.397C14.1383 20.794 14.7109 20.342 15.3714 20.1064C16.0319 19.8709 16.746 19.8639 17.4105 20.0867V15.8834C17.0341 15.8288 16.6543 15.8055 16.2744 15.8139V19.0876C15.4881 18.8239 14.6369 18.8832 13.89 19.2537C13.1431 19.6243 12.5553 20.2789 12.2436 21.0873C11.9318 21.8958 11.9189 22.7989 12.2074 23.6169C12.4959 24.435 13.0648 25.1081 13.8007 25.5024L13.8038 25.5008Z" fill="#EC407A"/>
<path fill-rule="evenodd" clip-rule="evenodd" d="M30 12.7084V11.8249C28.8691 11.8274 27.7604 11.5228 26.8013 10.9462C27.6507 11.8398 28.769 12.4559 30 12.7084ZM24.0396 7.01935C24.0107 6.85573 23.9903 6.70193 23.975 6.53994V6H19.625V22.6156C19.6221 23.2147 19.4603 23.8033 19.1549 24.3255C18.8495 24.8476 18.4106 25.2861 17.8798 25.5994C17.3489 25.9127 16.7438 26.0904 16.1216 26.1157C15.4994 26.141 14.8808 26.0131 14.3244 25.744C14.7874 26.3287 15.429 26.7592 16.1593 26.9752C16.8895 27.1912 17.6718 27.1818 18.3962 26.9482C19.1206 26.7147 19.7508 26.2688 20.1984 25.6731C20.646 25.0774 20.8885 24.3618 20.8919 23.6267V7.01935H24.0396ZM17.0793 15.9448V14.9991C16.7151 14.9519 16.3481 14.9284 15.9807 14.9287C14.2691 14.9312 12.6035 15.4622 11.2291 16.4437C9.85469 17.4252 8.84405 18.8053 8.34594 20.3808C7.84783 21.9564 7.88856 23.6442 8.46213 25.1958C9.0357 26.7475 10.1118 28.0809 11.5321 29C10.445 27.9272 9.70721 26.5722 9.40951 25.1016C9.11181 23.6309 9.26711 22.1086 9.85634 20.7216C10.4456 19.3347 11.4431 18.1436 12.7262 17.2947C14.0094 16.4458 15.5224 15.976 17.0793 15.9432V15.9448Z" fill="#81D4FA"/>
<path fill-rule="evenodd" clip-rule="evenodd" d="M23.8969 14.0251C25.6776 15.2179 27.812 15.8571 30 15.8529V12.6207C28.753 12.3705 27.6203 11.7615 26.7598 10.8786C26.0297 10.4524 25.4035 9.88678 24.9218 9.21853C24.4401 8.55028 24.1138 7.79438 23.964 7H20.7738V23.4032C20.7704 24.1292 20.5247 24.836 20.0713 25.4244C19.6179 26.0128 18.9795 26.4532 18.2457 26.6839C17.5119 26.9145 16.7196 26.9238 15.9798 26.7105C15.2401 26.4972 14.5902 26.0719 14.1212 25.4944C13.2961 25.0975 12.6598 24.4247 12.3378 23.609C12.0159 22.7933 12.0318 21.894 12.3824 21.0887C12.733 20.2834 13.3928 19.6308 14.2314 19.2599C15.0701 18.8889 16.0265 18.8265 16.9118 19.085V15.8173C15.3353 15.851 13.8036 16.3159 12.5048 17.1548C11.206 17.9938 10.1967 19.1703 9.60064 20.5399C9.0046 21.9095 8.84787 23.4127 9.14968 24.8647C9.45149 26.3167 10.1987 27.6544 11.2996 28.7136C12.5178 29.4797 13.9349 29.921 15.3996 29.9903C16.8643 30.0597 18.3215 29.7545 19.6157 29.1073C20.9099 28.4602 21.9924 27.4953 22.7477 26.3159C23.5029 25.1365 23.9025 23.7868 23.9038 22.4109V14.0251H23.8969Z" fill="white"/>
<g style="mix-blend-mode:overlay">
<path d="M10 2C8.34434 2 7 2.36518 7 3.15074C7 3.93631 8.34434 4 10 4C11.6557 4 13 3.93206 13 3.15074C13 2.36943 11.6604 2 10 2Z" fill="#ADD1FF"/>
</g>
<g style="mix-blend-mode:overlay">
<path d="M17 3C16.4483 3 16 3.22358 16 3.5C16 3.77642 16.4467 4 17 4C17.5533 4 18 3.77642 18 3.5C18 3.22358 17.5517 3 17 3Z" fill="#ADD1FF"/>
</g>
<g style="mix-blend-mode:overlay">
<path d="M30.6609 0.955642C32.8623 0.959011 34.9724 1.76556 36.529 3.19857C38.0856 4.63158 38.9617 6.5742 38.9654 8.60078V31.3992C38.9617 33.4258 38.0856 35.3684 36.529 36.8014C34.9724 38.2344 32.8623 39.041 30.6609 39.0444H9.34256C7.14105 39.0414 5.03063 38.235 3.47393 36.8019C1.91723 35.3688 1.04127 33.4259 1.03806 31.3992V8.60078C1.04127 6.57407 1.91723 4.63121 3.47393 3.19811C5.03063 1.76501 7.14105 0.958591 9.34256 0.955642H30.6574M30.6574 0H9.34256C6.86476 0 4.48844 0.906151 2.73637 2.51911C0.984303 4.13207 0 6.31971 0 8.60078V31.3992C0 33.6803 0.984303 35.8679 2.73637 37.4809C4.48844 39.0938 6.86476 40 9.34256 40H30.6574C33.1352 40 35.5116 39.0938 37.2636 37.4809C39.0157 35.8679 40 33.6803 40 31.3992V8.60078C40 6.31971 39.0157 4.13207 37.2636 2.51911C35.5116 0.906151 33.1352 0 30.6574 0Z" fill="#ADD1FF"/>
</g>
<path d="M30.6609 0H9.34256C6.86476 0 4.48844 0.906151 2.73637 2.51911C0.984303 4.13207 0 6.31971 0 8.60078V31.3992C0 33.6803 0.984303 35.8679 2.73637 37.4809C4.48844 39.0938 6.86476 40 9.34256 40H30.6574C33.1352 40 35.5116 39.0938 37.2636 37.4809C39.0157 35.8679 40 33.6803 40 31.3992V8.60078C40 6.32026 39.0162 4.1331 37.2649 2.52024C35.5135 0.907369 33.1381 0.000844636 30.6609 0Z" stroke="#5C2929" stroke-width="2" stroke-linecap="round" stroke-linejoin="round"/>
<g style="mix-blend-mode:overlay" opacity="0.77">
<path d="M6 28C6.55228 28 7 27.5523 7 27C7 26.4477 6.55228 26 6 26C5.44772 26 5 26.4477 5 27C5 27.5523 5.44772 28 6 28Z" fill="#3B3B3B"/>
<path d="M33.5 11C33.7761 11 34 10.7761 34 10.5C34 10.2239 33.7761 10 33.5 10C33.2239 10 33 10.2239 33 10.5C33 10.7761 33.2239 11 33.5 11Z" fill="white"/>
<path d="M20.5 7C20.7761 7 21 6.77614 21 6.5C21 6.22386 20.7761 6 20.5 6C20.2239 6 20 6.22386 20 6.5C20 6.77614 20.2239 7 20.5 7Z" fill="white"/>
<path d="M17.0965 29.5954C17.336 29.5954 17.5301 29.4164 17.5301 29.1956C17.5301 28.9749 17.336 28.7959 17.0965 28.7959C16.8571 28.7959 16.6629 28.9749 16.6629 29.1956C16.6629 29.4164 16.8571 29.5954 17.0965 29.5954Z" fill="#3B3B3B"/>
<path d="M37.5 16C37.7761 16 38 15.7761 38 15.5C38 15.2239 37.7761 15 37.5 15C37.2239 15 37 15.2239 37 15.5C37 15.7761 37.2239 16 37.5 16Z" fill="white"/>
<path d="M9 32C9.55228 32 10 31.5523 10 31C10 30.4477 9.55228 30 9 30C8.44771 30 8 30.4477 8 31C8 31.5523 8.44771 32 9 32Z" fill="white"/>
</g>
<path d="M32 28C32.5523 28 33 27.5523 33 27C33 26.4477 32.5523 26 32 26C31.4477 26 31 26.4477 31 27C31 27.5523 31.4477 28 32 28Z" fill="#C33565"/>
<path d="M27.5 31C27.7761 31 28 30.7761 28 30.5C28 30.2239 27.7761 30 27.5 30C27.2239 30 27 30.2239 27 30.5C27 30.7761 27.2239 31 27.5 31Z" fill="#6CB1D1"/>
<path d="M7 9C7.55228 9 8 8.55228 8 8C8 7.44772 7.55228 7 7 7C6.44772 7 6 7.44772 6 8C6 8.55228 6.44772 9 7 9Z" fill="#C33565"/>
<path d="M9.5 14C9.77614 14 10 13.7761 10 13.5C10 13.2239 9.77614 13 9.5 13C9.22386 13 9 13.2239 9 13.5C9 13.7761 9.22386 14 9.5 14Z" fill="#6CB1D1"/>
<path d="M30.5 7C30.7761 7 31 6.77614 31 6.5C31 6.22386 30.7761 6 30.5 6C30.2239 6 30 6.22386 30 6.5C30 6.77614 30.2239 7 30.5 7Z" fill="#6CB1D1"/>
</g>
<defs>
<linearGradient id="paint0_linear_1_17018" x1="20" y1="27.9817" x2="20" y2="-1.56192" gradientUnits="userSpaceOnUse">
<stop stop-color="#5A4D93" stop-opacity="0"/>
<stop offset="1" stop-color="#1E1B3A"/>
</linearGradient>
<clipPath id="clip0_1_17018">
<rect width="40" height="40" fill="white"/>
</clipPath>
</defs>
</svg>
