<svg width="40" height="40" viewBox="0 0 40 40" fill="none" xmlns="http://www.w3.org/2000/svg">
<g clip-path="url(#clip0_1_17052)">
<path d="M30.656 3H9.344C4.18345 3 0 6.76511 0 11.4096V30.5904C0 35.2349 4.18345 39 9.344 39H30.656C35.8165 39 40 35.2349 40 30.5904V11.4096C40 6.76511 35.8165 3 30.656 3Z" fill="#2D2C4F"/>
<path d="M30.656 0H9.344C4.18345 0 0 3.86969 0 8.6432V28.3568C0 33.1303 4.18345 37 9.344 37H30.656C35.8165 37 40 33.1303 40 28.3568V8.6432C40 3.86969 35.8165 0 30.656 0Z" fill="url(#paint0_linear_1_17052)"/>
<path d="M28.4554 3.80664H11.544C7.44876 3.80664 4.12891 6.86744 4.12891 10.6431V26.2349C4.12891 30.0106 7.44876 33.0714 11.544 33.0714H28.4554C32.5506 33.0714 35.8705 30.0106 35.8705 26.2349V10.6431C35.8705 6.86744 32.5506 3.80664 28.4554 3.80664Z" fill="url(#paint1_linear_1_17052)"/>
<path d="M20.5773 10.2921C21.0124 10.8127 21.8056 11.1597 22.4901 10.9254C23.0136 10.7468 23.3327 10.2921 23.614 9.86779C23.8649 9.4878 24.1216 9.04322 23.9374 8.6379C23.7402 8.20345 23.1325 8.04259 22.5989 8.01346C21.9144 7.97419 20.734 7.99192 20.2177 8.47451C19.7014 8.95709 20.2191 9.85639 20.5773 10.2921Z" fill="#6866C4"/>
<path d="M34.209 18.285H25.0774L23.8904 16.6146L30.5724 8.85828C30.716 8.69754 30.8096 8.49913 30.8422 8.2869C30.8747 8.07466 30.8447 7.85762 30.7558 7.66187C30.6669 7.46612 30.5229 7.29997 30.3411 7.18341C30.1592 7.06684 29.9473 7.00481 29.7307 7.00478H27.5189C27.3565 7.00477 27.196 7.03963 27.0485 7.10698C26.901 7.17433 26.77 7.27255 26.6644 7.3949L21.5565 13.3264L17.4043 7.47771C17.3011 7.33079 17.1637 7.21067 17.0038 7.12752C16.8439 7.04437 16.6661 7.00063 16.4855 7H9.4613C9.25605 7.00042 9.05484 7.05653 8.87947 7.16224C8.70409 7.26796 8.56126 7.41924 8.46643 7.59969C8.37161 7.78015 8.32843 7.98289 8.34155 8.18594C8.35468 8.389 8.42362 8.58461 8.54091 8.75159L15.3033 18.2755H5.7942C5.56236 18.2706 5.33184 18.3113 5.11593 18.3952C4.90002 18.4791 4.703 18.6045 4.53621 18.7642C4.36943 18.9239 4.23618 19.1148 4.14415 19.3258C4.05212 19.5368 4.00313 19.7638 4 19.9936V29.1608C4 33.1003 6.58287 35 10.711 35H29.2938C33.4219 35 36 32.8408 36 28.9013V19.9936C35.9956 19.7649 35.9458 19.5392 35.8534 19.3295C35.761 19.1198 35.6279 18.9302 35.4616 18.7715C35.2952 18.6129 35.099 18.4882 34.8841 18.4048C34.6692 18.3213 34.4398 18.2806 34.209 18.285ZM9.4613 8.11943H16.4807L21.4601 15.1417L27.5093 8.11943H29.7211L22.472 16.5478L23.7057 18.285H21.5468L15.5651 9.87261H12.8505L18.8371 18.285H16.6895L9.4613 8.11943Z" fill="#3B3A6E"/>
<path d="M28.9241 20.3201C28.5692 20.3966 28.1665 20.5261 28.0398 20.8448C27.8906 21.208 28.1889 21.5852 28.4693 21.8747L30.654 24.1613C31.0718 24.6327 31.545 25.0589 32.0647 25.4319C32.5971 25.7854 33.2399 26.0304 33.893 25.997C34.0705 25.9872 33.978 23.9943 33.9587 23.7994C33.8836 23.0559 33.7123 22.3237 33.4486 21.6186C33.0878 20.6583 32.6135 20.0028 31.4533 20C30.6 20.0167 29.7514 20.1241 28.9241 20.3201Z" fill="#5956A7"/>
<path d="M16.0506 25.9827C15.419 26.4026 14.8252 27.0267 15.0477 27.6566C15.1249 27.8361 15.2493 28.0004 15.4127 28.1386C15.5761 28.2767 15.7746 28.3856 15.995 28.4578C16.4362 28.5997 16.9009 28.6901 17.3746 28.7263L19.3912 28.9605C19.7967 29.0077 20.2488 29.0477 20.5861 28.862C20.7367 28.7665 20.8531 28.6411 20.9237 28.4985C20.9942 28.3558 21.0164 28.2009 20.988 28.0493C20.9253 27.7462 20.7816 27.4574 20.5664 27.2024C20.0214 26.4494 19.3187 25.7761 18.4888 25.2115C17.5253 24.5916 16.8059 25.4828 16.0506 25.9827Z" fill="#5956A7"/>
<path d="M6.5365 14.8094C6.99946 14.8094 7.37476 14.4634 7.37476 14.0365C7.37476 13.6097 6.99946 13.2637 6.5365 13.2637C6.07354 13.2637 5.69824 13.6097 5.69824 14.0365C5.69824 14.4634 6.07354 14.8094 6.5365 14.8094Z" fill="#383763"/>
<path d="M8 25C8.55228 25 9 24.5523 9 24C9 23.4477 8.55228 23 8 23C7.44772 23 7 23.4477 7 24C7 24.5523 7.44772 25 8 25Z" fill="#8A99FF"/>
<path d="M33 32C33.5523 32 34 31.5523 34 31C34 30.4477 33.5523 30 33 30C32.4477 30 32 30.4477 32 31C32 31.5523 32.4477 32 33 32Z" fill="#8A99FF"/>
<path d="M32.5 16C32.7761 16 33 15.7761 33 15.5C33 15.2239 32.7761 15 32.5 15C32.2239 15 32 15.2239 32 15.5C32 15.7761 32.2239 16 32.5 16Z" fill="#383763"/>
<path d="M34.5 10C34.7761 10 35 9.77614 35 9.5C35 9.22386 34.7761 9 34.5 9C34.2239 9 34 9.22386 34 9.5C34 9.77614 34.2239 10 34.5 10Z" fill="#8A99FF"/>
<path d="M20.5 7C20.7761 7 21 6.77614 21 6.5C21 6.22386 20.7761 6 20.5 6C20.2239 6 20 6.22386 20 6.5C20 6.77614 20.2239 7 20.5 7Z" fill="#8A99FF"/>
<path d="M25.5 7C25.7761 7 26 6.77614 26 6.5C26 6.22386 25.7761 6 25.5 6C25.2239 6 25 6.22386 25 6.5C25 6.77614 25.2239 7 25.5 7Z" fill="#383763"/>
<path d="M17.5 30C17.7761 30 18 29.7761 18 29.5C18 29.2239 17.7761 29 17.5 29C17.2239 29 17 29.2239 17 29.5C17 29.7761 17.2239 30 17.5 30Z" fill="#8A99FF"/>
<path d="M28.5 17C28.7761 17 29 16.7761 29 16.5C29 16.2239 28.7761 16 28.5 16C28.2239 16 28 16.2239 28 16.5C28 16.7761 28.2239 17 28.5 17Z" fill="#8A99FF"/>
<path d="M27.5 32C27.7761 32 28 31.7761 28 31.5C28 31.2239 27.7761 31 27.5 31C27.2239 31 27 31.2239 27 31.5C27 31.7761 27.2239 32 27.5 32Z" fill="#2D2C4F"/>
<path d="M11 33C11.5523 33 12 32.5523 12 32C12 31.4477 11.5523 31 11 31C10.4477 31 10 31.4477 10 32C10 32.5523 10.4477 33 11 33Z" fill="#2D2C4F"/>
<path d="M22.6113 16.3786L30.2985 8.08105H27.9571L21.5537 14.9944L16.2776 8.08105H8.84724L17.4815 19.3916L8.76562 28.7959H11.107L18.5374 20.7758L24.6602 28.7959H32.0906L22.6113 16.3786Z" fill="#383763"/>
<path d="M14 4.15074C14 4.93843 12.4334 5 10.5 5C8.56656 5 7 4.93206 7 4.15074C7 3.36943 8.5684 3 10.5 3C12.4316 3 14 3.36518 14 4.15074Z" fill="#C4CBFF"/>
<path d="M17.5 4C18.3284 4 19 3.77614 19 3.5C19 3.22386 18.3284 3 17.5 3C16.6716 3 16 3.22386 16 3.5C16 3.77614 16.6716 4 17.5 4Z" fill="#C4CBFF"/>
<path d="M22.6612 16.4111L30.2412 8H27.9291L21.615 15.0079L16.4174 8H9.08048L17.5944 19.4654L9 29H11.3137L18.6373 20.8686L24.6731 28.9984H32L22.6612 16.4111ZM12.6182 9.7496H15.4517L28.474 27.2488H25.6422L12.6182 9.7496Z" fill="#CCF9FF"/>
<path d="M30.6609 0.955642C32.8623 0.959011 34.9724 1.76556 36.529 3.19857C38.0856 4.63158 38.9617 6.5742 38.9654 8.60078V31.3992C38.9617 33.4258 38.0856 35.3684 36.529 36.8014C34.9724 38.2344 32.8623 39.041 30.6609 39.0444H9.34256C7.14105 39.0414 5.03063 38.235 3.47393 36.8019C1.91723 35.3688 1.04127 33.4259 1.03806 31.3992V8.60078C1.04127 6.57407 1.91723 4.63121 3.47393 3.19811C5.03063 1.76501 7.14105 0.958591 9.34256 0.955642H30.6574M30.6574 0H9.34256C6.86476 0 4.48844 0.906151 2.73637 2.51911C0.984303 4.13207 0 6.31971 0 8.60078V31.3992C0 33.6803 0.984303 35.8679 2.73637 37.4809C4.48844 39.0938 6.86476 40 9.34256 40H30.6574C33.1352 40 35.5116 39.0938 37.2636 37.4809C39.0157 35.8679 40 33.6803 40 31.3992V8.60078C40 6.31971 39.0157 4.13207 37.2636 2.51911C35.5116 0.906151 33.1352 0 30.6574 0Z" fill="#8C9BFF"/>
<path d="M30.6609 0H9.34256C6.86476 0 4.48844 0.906151 2.73637 2.51911C0.984303 4.13207 0 6.31971 0 8.60078V31.3992C0 33.6803 0.984303 35.8679 2.73637 37.4809C4.48844 39.0938 6.86476 40 9.34256 40H30.6574C33.1352 40 35.5116 39.0938 37.2636 37.4809C39.0157 35.8679 40 33.6803 40 31.3992V8.60078C40 6.32026 39.0162 4.1331 37.2649 2.52024C35.5135 0.907369 33.1381 0.000844636 30.6609 0Z" stroke="#5C2929" stroke-width="2" stroke-linecap="round" stroke-linejoin="round"/>
</g>
<defs>
<linearGradient id="paint0_linear_1_17052" x1="19.9991" y1="-4.2176" x2="19.9991" y2="25.7008" gradientUnits="userSpaceOnUse">
<stop stop-color="#6562C4"/>
<stop offset="1" stop-color="#4E4C8A"/>
</linearGradient>
<linearGradient id="paint1_linear_1_17052" x1="19.9997" y1="20.7968" x2="19.9997" y2="2.03834" gradientUnits="userSpaceOnUse">
<stop stop-color="#6562C4"/>
<stop offset="1" stop-color="#3E3C78"/>
</linearGradient>
<clipPath id="clip0_1_17052">
<rect width="40" height="40" fill="white"/>
</clipPath>
</defs>
</svg>
