<svg width="40" height="40" viewBox="0 0 40 40" fill="none" xmlns="http://www.w3.org/2000/svg">
<g clip-path="url(#clip0_1_17080)">
<path d="M30.6609 0H9.34256C6.86476 0 4.48844 0.906151 2.73637 2.51911C0.984303 4.13207 0 6.31971 0 8.60078V31.3992C0 33.6803 0.984303 35.8679 2.73637 37.4809C4.48844 39.0938 6.86476 40 9.34256 40H30.6574C33.1352 40 35.5116 39.0938 37.2636 37.4809C39.0157 35.8679 40 33.6803 40 31.3992V8.60078C40 6.32026 39.0162 4.1331 37.2649 2.52024C35.5135 0.907369 33.1381 0.000844636 30.6609 0Z" fill="#FF543F"/>
<path d="M30.6609 36.7675H9.34256C6.86476 36.7675 4.48844 35.8443 2.73637 34.201C0.984303 32.5577 0 30.3289 0 28.0049V31.2373C0 33.5613 0.984303 35.7901 2.73637 37.4335C4.48844 39.0768 6.86476 40 9.34256 40H30.6574C33.1352 40 35.5116 39.0768 37.2636 37.4335C39.0157 35.7901 40 33.5613 40 31.2373V28C40.0007 29.1509 39.7596 30.2906 39.2907 31.3541C38.8217 32.4176 38.1339 33.384 37.2667 34.1981C36.3994 35.0123 35.3697 35.6583 34.2363 36.0991C33.1028 36.54 31.8879 36.7671 30.6609 36.7675Z" fill="#AA313A"/>
<path d="M28.5245 4H11.4755C7.34688 4 4 7.1377 4 11.0082V26.9918C4 30.8623 7.34688 34 11.4755 34H28.5245C32.6531 34 36 30.8623 36 26.9918V11.0082C36 7.1377 32.6531 4 28.5245 4Z" fill="url(#paint0_linear_1_17080)"/>
<path d="M34.209 19.0004H5.7942C5.56315 18.9957 5.33341 19.0344 5.11813 19.1141C4.90284 19.1938 4.70624 19.313 4.53958 19.4649C4.37292 19.6169 4.23948 19.7985 4.14689 19.9994C4.0543 20.2003 4.00438 20.4166 4 20.6359V29.4107C4 33.1816 6.58287 35 10.711 35H29.2938C33.4219 35 36 32.9332 36 29.1623V20.6359C35.9956 20.4169 35.9458 20.2008 35.8534 20.0001C35.761 19.7994 35.6279 19.6179 35.4616 19.466C35.2952 19.3142 35.099 19.1949 34.8841 19.115C34.6692 19.0351 34.4398 18.9961 34.209 19.0004Z" fill="#AA313A"/>
<path d="M22.1837 26.0643C21.7982 26.3313 21.471 26.6566 21.2178 27.0247C21.0925 27.2099 21.0189 27.4183 21.0032 27.6328C20.9875 27.8474 21.03 28.0622 21.1273 28.2598C21.5272 28.9539 22.6158 29.023 23.5081 28.995L27.4228 28.8782C28.2491 28.8519 29.1471 28.8042 29.7678 28.3256C30.4677 27.7862 30.579 26.8849 30.6413 26.0725C30.7187 25.0857 31.2243 23.4411 30.8828 22.4954C30.5055 21.4675 29.1151 22.3095 28.3378 22.6154C27.1974 23.0625 26.0976 23.5843 25.0476 24.1762C24.608 24.4245 22.1837 25.6169 22.1837 26.0643Z" fill="#FF543F"/>
<path d="M7.83176 8.49924C7.24209 8.82085 6.86469 9.35104 7.04553 9.8449C7.19688 10.2486 7.70793 10.5689 8.27599 10.7357C8.85667 10.8839 9.46732 10.9697 10.0863 10.9901C10.3733 11.0102 10.7133 11.0143 10.8863 10.8555C10.9846 10.7427 11.0208 10.6095 10.9885 10.4801C10.9178 9.76366 10.6371 9.06435 10.163 8.42388C9.89956 8.06862 9.85435 7.94751 9.28433 8.02018C8.75144 8.09863 8.25351 8.26285 7.83176 8.49924Z" fill="#FF543F"/>
<path d="M13 3.15074C13 3.93843 11.6572 4 10 4C8.34277 4 7 3.93206 7 3.15074C7 2.36943 8.34434 2 10 2C11.6557 2 13 2.36518 13 3.15074Z" fill="#FFE7C7"/>
<path d="M17 4C17.5523 4 18 3.77614 18 3.5C18 3.22386 17.5523 3 17 3C16.4477 3 16 3.22386 16 3.5C16 3.77614 16.4477 4 17 4Z" fill="#FFE7C7"/>
<g style="mix-blend-mode:overlay">
<path d="M30.6609 0.955642C32.8623 0.959011 34.9724 1.76556 36.529 3.19857C38.0856 4.63158 38.9617 6.5742 38.9654 8.60078V31.3992C38.9617 33.4258 38.0856 35.3684 36.529 36.8014C34.9724 38.2344 32.8623 39.041 30.6609 39.0444H9.34256C7.14105 39.0414 5.03063 38.235 3.47393 36.8019C1.91723 35.3688 1.04127 33.4259 1.03806 31.3992V8.60078C1.04127 6.57407 1.91723 4.63121 3.47393 3.19811C5.03063 1.76501 7.14105 0.958591 9.34256 0.955642H30.6574M30.6574 0H9.34256C6.86476 0 4.48844 0.906151 2.73637 2.51911C0.984303 4.13207 0 6.31971 0 8.60078V31.3992C0 33.6803 0.984303 35.8679 2.73637 37.4809C4.48844 39.0938 6.86476 40 9.34256 40H30.6574C33.1352 40 35.5116 39.0938 37.2636 37.4809C39.0157 35.8679 40 33.6803 40 31.3992V8.60078C40 6.31971 39.0157 4.13207 37.2636 2.51911C35.5116 0.906151 33.1352 0 30.6574 0Z" fill="#FFC3AD"/>
</g>
<path d="M30.6609 0H9.34256C6.86476 0 4.48844 0.906151 2.73637 2.51911C0.984303 4.13207 0 6.31971 0 8.60078V31.3992C0 33.6803 0.984303 35.8679 2.73637 37.4809C4.48844 39.0938 6.86476 40 9.34256 40H30.6574C33.1352 40 35.5116 39.0938 37.2636 37.4809C39.0157 35.8679 40 33.6803 40 31.3992V8.60078C40 6.32026 39.0162 4.1331 37.2649 2.52024C35.5135 0.907369 33.1381 0.000844636 30.6609 0Z" stroke="#5C2929" stroke-width="2" stroke-linecap="round" stroke-linejoin="round"/>
<g style="mix-blend-mode:overlay" opacity="0.57">
<path d="M7 15C7.55228 15 8 14.5523 8 14C8 13.4477 7.55228 13 7 13C6.44772 13 6 13.4477 6 14C6 14.5523 6.44772 15 7 15Z" fill="#3B3B3B"/>
<path d="M8 25C8.55228 25 9 24.5523 9 24C9 23.4477 8.55228 23 8 23C7.44772 23 7 23.4477 7 24C7 24.5523 7.44772 25 8 25Z" fill="#3B3B3B"/>
<path d="M33 32C33.5523 32 34 31.5523 34 31C34 30.4477 33.5523 30 33 30C32.4477 30 32 30.4477 32 31C32 31.5523 32.4477 32 33 32Z" fill="#3B3B3B"/>
<path d="M32.5 16C32.7761 16 33 15.7761 33 15.5C33 15.2239 32.7761 15 32.5 15C32.2239 15 32 15.2239 32 15.5C32 15.7761 32.2239 16 32.5 16Z" fill="#3B3B3B"/>
<path d="M34.5 10C34.7761 10 35 9.77614 35 9.5C35 9.22386 34.7761 9 34.5 9C34.2239 9 34 9.22386 34 9.5C34 9.77614 34.2239 10 34.5 10Z" fill="white"/>
<path d="M20.5 7C20.7761 7 21 6.77614 21 6.5C21 6.22386 20.7761 6 20.5 6C20.2239 6 20 6.22386 20 6.5C20 6.77614 20.2239 7 20.5 7Z" fill="white"/>
<path d="M26.5 8C26.7761 8 27 7.77614 27 7.5C27 7.22386 26.7761 7 26.5 7C26.2239 7 26 7.22386 26 7.5C26 7.77614 26.2239 8 26.5 8Z" fill="#3B3B3B"/>
<path d="M17.5 30C17.7761 30 18 29.7761 18 29.5C18 29.2239 17.7761 29 17.5 29C17.2239 29 17 29.2239 17 29.5C17 29.7761 17.2239 30 17.5 30Z" fill="white"/>
<path d="M33.5 24C33.7761 24 34 23.7761 34 23.5C34 23.2239 33.7761 23 33.5 23C33.2239 23 33 23.2239 33 23.5C33 23.7761 33.2239 24 33.5 24Z" fill="white"/>
<path d="M27.5 32C27.7761 32 28 31.7761 28 31.5C28 31.2239 27.7761 31 27.5 31C27.2239 31 27 31.2239 27 31.5C27 31.7761 27.2239 32 27.5 32Z" fill="white"/>
<path d="M11 33C11.5523 33 12 32.5523 12 32C12 31.4477 11.5523 31 11 31C10.4477 31 10 31.4477 10 32C10 32.5523 10.4477 33 11 33Z" fill="white"/>
</g>
<path d="M13 24.8834V11.1162C12.9998 10.9205 13.0576 10.7282 13.1674 10.5586C13.2773 10.389 13.4353 10.2481 13.6258 10.1501C13.8162 10.052 14.0323 10.0003 14.2524 10C14.4725 9.99972 14.6887 10.0509 14.8795 10.1485L28.3697 17.0321C28.5613 17.13 28.7204 17.2711 28.8311 17.4411C28.9417 17.6111 29 17.8041 29 18.0006C29 18.197 28.9417 18.39 28.8311 18.56C28.7204 18.7301 28.5613 18.8712 28.3697 18.969L14.8795 25.8526C14.6885 25.9498 14.4722 26.0006 14.2522 26C14.0322 25.9994 13.8162 25.9474 13.6259 25.8493C13.4356 25.7512 13.2776 25.6103 13.1677 25.4408C13.0579 25.2712 13.0001 25.079 13 24.8834Z" fill="white"/>
<path d="M14.4288 10.0874C14.643 10.0895 14.8528 10.1431 15.0364 10.2427L28.1822 17.0495C28.3689 17.1463 28.5239 17.2858 28.6318 17.4539C28.7396 17.6221 28.7964 17.8129 28.7964 18.0072C28.7964 18.2015 28.7396 18.3923 28.6318 18.5604C28.5239 18.7286 28.3689 18.8681 28.1822 18.9648L15.0364 25.7655C14.8505 25.8625 14.6395 25.9136 14.4247 25.9135C14.2099 25.9134 13.9989 25.8621 13.8131 25.7649C13.6273 25.6676 13.4732 25.5279 13.3664 25.3597C13.2596 25.1915 13.2039 25.0009 13.2049 24.807V11.1934C13.2047 11.0482 13.2362 10.9044 13.2976 10.7702C13.359 10.636 13.4491 10.5141 13.5628 10.4114C13.6765 10.3087 13.8114 10.2272 13.96 10.1716C14.1086 10.116 14.2679 10.0874 14.4288 10.0874ZM14.4288 9C13.7846 9.00082 13.1671 9.23222 12.7118 9.64342C12.2564 10.0546 12.0005 10.612 12 11.1934V24.807C11.9995 25.1914 12.1111 25.5692 12.3235 25.9023C12.536 26.2355 12.8419 26.5123 13.2105 26.705C13.5791 26.8977 13.9974 26.9994 14.4233 27C14.8493 27.0006 15.2679 26.9 15.6372 26.7084L28.7795 19.9015C29.1504 19.7096 29.4585 19.4327 29.6728 19.0988C29.8871 18.765 30 18.386 30 18.0002C30 17.6144 29.8871 17.2354 29.6728 16.9015C29.4585 16.5677 29.1504 16.2908 28.7795 16.0989L15.6372 9.29203C15.2705 9.10187 14.8552 9.00122 14.4322 9H14.4288Z" fill="#AA313A"/>
</g>
<defs>
<linearGradient id="paint0_linear_1_17080" x1="20" y1="28.0636" x2="20" y2="-0.772874" gradientUnits="userSpaceOnUse">
<stop stop-color="#F44E54" stop-opacity="0"/>
<stop offset="1" stop-color="#8F2535"/>
</linearGradient>
<clipPath id="clip0_1_17080">
<rect width="40" height="40" fill="white"/>
</clipPath>
</defs>
</svg>
