<svg width="40" height="40" viewBox="0 0 40 40" fill="none" xmlns="http://www.w3.org/2000/svg">
<g clip-path="url(#clip0_1_11687)">
<path d="M30.6609 0H9.34256C6.86476 0 4.48844 0.906151 2.73637 2.51911C0.984303 4.13207 0 6.31971 0 8.60078V31.3992C0 33.6803 0.984303 35.8679 2.73637 37.4809C4.48844 39.0938 6.86476 40 9.34256 40H30.6574C33.1352 40 35.5116 39.0938 37.2636 37.4809C39.0157 35.8679 40 33.6803 40 31.3992V8.60078C40 6.32026 39.0162 4.1331 37.2649 2.52024C35.5135 0.907369 33.1381 0.000844636 30.6609 0Z" fill="#FFBE33"/>
<path d="M30.4739 36.5657H9.52254C7.0874 36.5657 4.75199 35.6738 3.03008 34.0863C1.30818 32.4987 0.34082 30.3455 0.34082 28.1004V31.2232C0.34082 33.4683 1.30818 35.6215 3.03008 37.209C4.75199 38.7966 7.0874 39.6884 9.52254 39.6884H30.4705C32.9056 39.6884 35.241 38.7966 36.9629 37.209C38.6848 35.6215 39.6522 33.4683 39.6522 31.2232V28.0957C39.6529 29.2075 39.416 30.3086 38.9551 31.3359C38.4942 32.3633 37.8182 33.297 36.9659 34.0835C36.1136 34.87 35.1016 35.4941 33.9877 35.92C32.8738 36.3459 31.6798 36.5653 30.4739 36.5657Z" fill="#B04A28"/>
<path d="M28.5245 4H11.4755C7.34688 4 4 7.1377 4 11.0082V26.9918C4 30.8623 7.34688 34 11.4755 34H28.5245C32.6531 34 36 30.8623 36 26.9918V11.0082C36 7.1377 32.6531 4 28.5245 4Z" fill="url(#paint0_linear_1_11687)"/>
<path d="M7.91679 7.90437C7.14156 8.86245 6.84098 10.0424 7.08028 11.1882C7.14199 11.4803 7.26712 11.7944 7.57396 11.9332C8.05049 12.1479 8.60245 11.8046 8.98128 11.4774C10.298 10.3393 11.4903 9.10127 12.5433 7.77874C12.7782 7.48659 13.0147 7.15938 12.9993 6.80441C12.9496 5.72344 11.4565 5.96593 10.6646 6.20403C9.56239 6.53563 8.59217 7.07757 7.91679 7.90437Z" fill="#ED892F"/>
<path d="M25.3178 29.6926C24.9236 29.8926 24.5741 30.1718 24.2908 30.5131C24.1503 30.685 24.0566 30.8909 24.0188 31.1105C23.981 31.33 24.0004 31.5557 24.0751 31.7654C24.325 32.3354 25.0234 32.5202 25.631 32.6291C26.9439 32.8778 28.2858 33.1265 29.6055 32.9279C30.9252 32.7292 32.2432 31.9934 32.7875 30.7636C33.0819 30.0985 33.1041 29.2556 32.6386 28.6994C31.9744 27.9083 30.3638 27.9221 29.4292 28.0983C27.9814 28.3989 26.5925 28.9375 25.3178 29.6926Z" fill="#DE6D36"/>
<path d="M14 4.15074C14 4.93843 12.4334 5 10.5 5C8.56656 5 7 4.93206 7 4.15074C7 3.36943 8.5684 3 10.5 3C12.4316 3 14 3.36518 14 4.15074Z" fill="#FEEDA9"/>
<path d="M17.5 4C18.3284 4 19 3.77614 19 3.5C19 3.22386 18.3284 3 17.5 3C16.6716 3 16 3.22386 16 3.5C16 3.77614 16.6716 4 17.5 4Z" fill="#FEEDA9"/>
<path d="M34.209 18.0004H5.7942C5.56315 17.9957 5.33341 18.0344 5.11813 18.1141C4.90284 18.1938 4.70624 18.313 4.53958 18.4649C4.37292 18.6169 4.23948 18.7985 4.14689 18.9994C4.0543 19.2003 4.00438 19.4166 4 19.6359V28.4107C4 32.1816 6.58287 34 10.711 34H29.2938C33.4219 34 36 31.9332 36 28.1623V19.6359C35.9956 19.4169 35.9458 19.2008 35.8534 19.0001C35.761 18.7994 35.6279 18.6179 35.4616 18.466C35.2952 18.3142 35.099 18.1949 34.8841 18.115C34.6692 18.0351 34.4398 17.9961 34.209 18.0004Z" fill="#F08F2D"/>
<g style="mix-blend-mode:overlay">
<path d="M30.6609 0.955642C32.8623 0.959011 34.9724 1.76556 36.529 3.19857C38.0856 4.63158 38.9617 6.5742 38.9654 8.60078V31.3992C38.9617 33.4258 38.0856 35.3684 36.529 36.8014C34.9724 38.2344 32.8623 39.041 30.6609 39.0444H9.34256C7.14105 39.0414 5.03063 38.235 3.47393 36.8019C1.91723 35.3688 1.04127 33.4259 1.03806 31.3992V8.60078C1.04127 6.57407 1.91723 4.63121 3.47393 3.19811C5.03063 1.76501 7.14105 0.958591 9.34256 0.955642H30.6574M30.6574 0H9.34256C6.86476 0 4.48844 0.906151 2.73637 2.51911C0.984303 4.13207 0 6.31971 0 8.60078V31.3992C0 33.6803 0.984303 35.8679 2.73637 37.4809C4.48844 39.0938 6.86476 40 9.34256 40H30.6574C33.1352 40 35.5116 39.0938 37.2636 37.4809C39.0157 35.8679 40 33.6803 40 31.3992V8.60078C40 6.31971 39.0157 4.13207 37.2636 2.51911C35.5116 0.906151 33.1352 0 30.6574 0Z" fill="#FFC3AD"/>
</g>
<path d="M9.34277 0.75H30.6602L31.0898 0.759766C33.0871 0.851653 34.9808 1.5773 36.4492 2.80176L36.7568 3.07227C38.3614 4.55012 39.2499 6.54005 39.25 8.60059V31.3994C39.2499 33.3319 38.4686 35.2024 37.0479 36.6465L36.7559 36.9287C35.1483 38.4086 32.9552 39.25 30.6572 39.25H9.34277C7.18851 39.25 5.12661 38.5109 3.55273 37.1992L3.24414 36.9287C1.6389 35.4508 0.750056 33.4604 0.75 31.3994V8.60059C0.750052 6.66811 1.53142 4.79762 2.95215 3.35352L3.24414 3.07129C4.8517 1.59136 7.04478 0.75 9.34277 0.75Z" stroke="#5C2929" stroke-width="1.5" stroke-linecap="round" stroke-linejoin="round"/>
<g style="mix-blend-mode:overlay" opacity="0.57">
<path d="M34.5 10C34.7761 10 35 9.77614 35 9.5C35 9.22386 34.7761 9 34.5 9C34.2239 9 34 9.22386 34 9.5C34 9.77614 34.2239 10 34.5 10Z" fill="white"/>
<path d="M20.4687 7.43329C20.7082 7.43329 20.9023 7.25431 20.9023 7.03354C20.9023 6.81276 20.7082 6.63379 20.4687 6.63379C20.2293 6.63379 20.0352 6.81276 20.0352 7.03354C20.0352 7.25431 20.2293 7.43329 20.4687 7.43329Z" fill="white"/>
<path d="M5.5 24C5.77614 24 6 23.7761 6 23.5C6 23.2239 5.77614 23 5.5 23C5.22386 23 5 23.2239 5 23.5C5 23.7761 5.22386 24 5.5 24Z" fill="white"/>
<path d="M34.5 24C34.7761 24 35 23.7761 35 23.5C35 23.2239 34.7761 23 34.5 23C34.2239 23 34 23.2239 34 23.5C34 23.7761 34.2239 24 34.5 24Z" fill="white"/>
<path d="M30.5 31C30.7761 31 31 30.7761 31 30.5C31 30.2239 30.7761 30 30.5 30C30.2239 30 30 30.2239 30 30.5C30 30.7761 30.2239 31 30.5 31Z" fill="white"/>
<path d="M11 33C11.5523 33 12 32.5523 12 32C12 31.4477 11.5523 31 11 31C10.4477 31 10 31.4477 10 32C10 32.5523 10.4477 33 11 33Z" fill="white"/>
</g>
<path d="M7 15C7.55228 15 8 14.5523 8 14C8 13.4477 7.55228 13 7 13C6.44772 13 6 13.4477 6 14C6 14.5523 6.44772 15 7 15Z" fill="#FFF93D"/>
<path d="M6 22C6.55228 22 7 21.5523 7 21C7 20.4477 6.55228 20 6 20C5.44772 20 5 20.4477 5 21C5 21.5523 5.44772 22 6 22Z" fill="#FFAC59"/>
<path d="M34 28C34.5523 28 35 27.5523 35 27C35 26.4477 34.5523 26 34 26C33.4477 26 33 26.4477 33 27C33 27.5523 33.4477 28 34 28Z" fill="#FFAC59"/>
<path d="M32.5 16C32.7761 16 33 15.7761 33 15.5C33 15.2239 32.7761 15 32.5 15C32.2239 15 32 15.2239 32 15.5C32 15.7761 32.2239 16 32.5 16Z" fill="#FFF93D"/>
<path d="M27.5 6C27.7761 6 28 5.77614 28 5.5C28 5.22386 27.7761 5 27.5 5C27.2239 5 27 5.22386 27 5.5C27 5.77614 27.2239 6 27.5 6Z" fill="#FFAC59"/>
<path d="M6.23954 13.8872C6.42748 13.6143 6.69961 13.3881 7.02774 13.2321C7.35588 13.0761 7.72809 12.9961 8.10586 13.0001H10.8976C11.3325 12.9983 11.7631 13.072 12.1619 13.2166C12.5607 13.3612 12.9189 13.5735 13.2137 13.8399C15.2903 15.7389 17.5219 17.6538 19.8484 19.5399C22.2385 17.7708 24.5103 15.8938 26.6536 13.9174C26.9687 13.6281 27.3531 13.397 27.782 13.239C28.2109 13.0811 28.6748 12.9997 29.1438 13.0001H31.901C32.2783 12.9968 32.6499 13.0776 32.9771 13.234C33.3043 13.3905 33.5754 13.617 33.7622 13.8901C33.9144 14.1166 33.9961 14.3712 34 14.6308C34 14.7901 34 14.9509 34 15.1102C33.9985 15.4731 33.8456 15.8242 33.5675 16.1035C30.7809 18.9485 25.1819 23.6552 22.0921 26.2074C21.7753 26.4639 21.401 26.6659 20.9905 26.8019C20.58 26.9378 20.1414 27.005 19.6996 26.9997C19.2579 26.9944 18.8218 26.9166 18.4162 26.7708C18.0106 26.625 17.6435 26.414 17.3358 26.15C14.4321 23.6007 9.15534 18.9026 6.42738 16.1021C6.15263 15.8243 6.00164 15.4759 6 15.116C6 14.9552 6 14.7944 6 14.6337C6.00375 14.3721 6.0861 14.1155 6.23954 13.8872Z" fill="#F08F2D"/>
<path d="M8.04581 14.0005H10.8517C11.1345 14.0004 11.4142 14.0494 11.673 14.1442C11.9319 14.2391 12.1642 14.3779 12.3551 14.5516C14.7407 16.7331 17.2261 18.855 19.8115 20.9172C22.5315 18.9541 25.1044 16.8538 27.5156 14.6281C27.7272 14.433 27.9856 14.277 28.2741 14.1701C28.5626 14.0633 28.8747 14.008 29.1904 14.0077H31.9617C32.1543 14.0035 32.3444 14.0451 32.5096 14.1278C32.6747 14.2105 32.8081 14.3308 32.894 14.4745C32.9799 14.6182 33.0147 14.7793 32.9944 14.9389C32.974 15.0985 32.8994 15.25 32.7792 15.3755C29.9595 18.2611 24.145 23.1305 21.3166 25.4663C21.1057 25.639 20.8558 25.775 20.5814 25.8666C20.3069 25.9581 20.0133 26.0034 19.7177 25.9998C19.4221 25.9962 19.1303 25.9437 18.8592 25.8455C18.588 25.7472 18.343 25.6051 18.1384 25.4274C15.4537 23.0684 9.98742 18.2134 7.22656 15.374C7.10413 15.2486 7.02763 15.0964 7.00619 14.9357C6.98475 14.775 7.01928 14.6125 7.10565 14.4677C7.19202 14.3229 7.32659 14.2018 7.4933 14.119C7.66001 14.0361 7.85181 13.995 8.04581 14.0005Z" fill="white"/>
</g>
<defs>
<linearGradient id="paint0_linear_1_11687" x1="20" y1="26.3618" x2="20" y2="-2.47472" gradientUnits="userSpaceOnUse">
<stop stop-color="#FF7B46" stop-opacity="0"/>
<stop offset="1" stop-color="#EDBE02"/>
</linearGradient>
<clipPath id="clip0_1_11687">
<rect width="40" height="40" fill="white"/>
</clipPath>
</defs>
</svg>
