<svg width="40" height="40" viewBox="0 0 40 40" fill="none" xmlns="http://www.w3.org/2000/svg">
<g clip-path="url(#clip0_1_11656)">
<path d="M30.6609 0H9.34256C6.86476 0 4.48844 0.906151 2.73637 2.51911C0.984303 4.13207 0 6.31971 0 8.60078V31.3992C0 33.6803 0.984303 35.8679 2.73637 37.4809C4.48844 39.0938 6.86476 40 9.34256 40H30.6574C33.1352 40 35.5116 39.0938 37.2636 37.4809C39.0157 35.8679 40 33.6803 40 31.3992V8.60078C40 6.32026 39.0162 4.1331 37.2649 2.52024C35.5135 0.907369 33.1381 0.000844636 30.6609 0Z" fill="#ED892F"/>
<path d="M30.4739 36.5657H9.52254C7.0874 36.5657 4.75199 35.6738 3.03008 34.0863C1.30818 32.4987 0.34082 30.3455 0.34082 28.1004V31.2232C0.34082 33.4683 1.30818 35.6215 3.03008 37.209C4.75199 38.7966 7.0874 39.6884 9.52254 39.6884H30.4705C32.9056 39.6884 35.241 38.7966 36.9629 37.209C38.6848 35.6215 39.6522 33.4683 39.6522 31.2232V28.0957C39.6529 29.2075 39.416 30.3086 38.9551 31.3359C38.4942 32.3633 37.8182 33.297 36.9659 34.0835C36.1136 34.87 35.1016 35.4941 33.9877 35.92C32.8738 36.3459 31.6798 36.5653 30.4739 36.5657Z" fill="#B04A28"/>
<path d="M28.5245 4H11.4755C7.34688 4 4 7.1377 4 11.0082V26.9918C4 30.8623 7.34688 34 11.4755 34H28.5245C32.6531 34 36 30.8623 36 26.9918V11.0082C36 7.1377 32.6531 4 28.5245 4Z" fill="url(#paint0_linear_1_11656)"/>
<path d="M7.91679 7.90437C7.14156 8.86245 6.84098 10.0424 7.08028 11.1882C7.14199 11.4803 7.26712 11.7944 7.57396 11.9332C8.05049 12.1479 8.60245 11.8046 8.98128 11.4774C10.298 10.3393 11.4903 9.10127 12.5433 7.77874C12.7782 7.48659 13.0147 7.15938 12.9993 6.80441C12.9496 5.72344 11.4565 5.96593 10.6646 6.20403C9.56239 6.53563 8.59217 7.07757 7.91679 7.90437Z" fill="#ED892F"/>
<path d="M25.3178 29.6926C24.9236 29.8926 24.5741 30.1718 24.2908 30.5131C24.1503 30.685 24.0566 30.8909 24.0188 31.1105C23.981 31.33 24.0004 31.5557 24.0751 31.7654C24.325 32.3354 25.0234 32.5202 25.631 32.6291C26.9439 32.8778 28.2858 33.1265 29.6055 32.9279C30.9252 32.7292 32.2432 31.9934 32.7875 30.7636C33.0819 30.0985 33.1041 29.2556 32.6386 28.6994C31.9744 27.9083 30.3638 27.9221 29.4292 28.0983C27.9814 28.3989 26.5925 28.9375 25.3178 29.6926Z" fill="#DE6D36"/>
<path d="M14 4.15074C14 4.93843 12.4334 5 10.5 5C8.56656 5 7 4.93206 7 4.15074C7 3.36943 8.5684 3 10.5 3C12.4316 3 14 3.36518 14 4.15074Z" fill="#EDD885"/>
<path d="M17.5 4C18.3284 4 19 3.77614 19 3.5C19 3.22386 18.3284 3 17.5 3C16.6716 3 16 3.22386 16 3.5C16 3.77614 16.6716 4 17.5 4Z" fill="#EDD885"/>
<path d="M34.209 18.0004H5.7942C5.56315 17.9957 5.33341 18.0344 5.11813 18.1141C4.90284 18.1938 4.70624 18.313 4.53958 18.4649C4.37292 18.6169 4.23948 18.7985 4.14689 18.9994C4.0543 19.2003 4.00438 19.4166 4 19.6359V28.4107C4 32.1816 6.58287 34 10.711 34H29.2938C33.4219 34 36 31.9332 36 28.1623V19.6359C35.9956 19.4169 35.9458 19.2008 35.8534 19.0001C35.761 18.7994 35.6279 18.6179 35.4616 18.466C35.2952 18.3142 35.099 18.1949 34.8841 18.115C34.6692 18.0351 34.4398 17.9961 34.209 18.0004Z" fill="#AB4C2A"/>
<g style="mix-blend-mode:overlay">
<path d="M30.6609 0.955642C32.8623 0.959011 34.9724 1.76556 36.529 3.19857C38.0856 4.63158 38.9617 6.5742 38.9654 8.60078V31.3992C38.9617 33.4258 38.0856 35.3684 36.529 36.8014C34.9724 38.2344 32.8623 39.041 30.6609 39.0444H9.34256C7.14105 39.0414 5.03063 38.235 3.47393 36.8019C1.91723 35.3688 1.04127 33.4259 1.03806 31.3992V8.60078C1.04127 6.57407 1.91723 4.63121 3.47393 3.19811C5.03063 1.76501 7.14105 0.958591 9.34256 0.955642H30.6574M30.6574 0H9.34256C6.86476 0 4.48844 0.906151 2.73637 2.51911C0.984303 4.13207 0 6.31971 0 8.60078V31.3992C0 33.6803 0.984303 35.8679 2.73637 37.4809C4.48844 39.0938 6.86476 40 9.34256 40H30.6574C33.1352 40 35.5116 39.0938 37.2636 37.4809C39.0157 35.8679 40 33.6803 40 31.3992V8.60078C40 6.31971 39.0157 4.13207 37.2636 2.51911C35.5116 0.906151 33.1352 0 30.6574 0Z" fill="#FFC3AD"/>
</g>
<path d="M9.34277 0.75H30.6602L31.0898 0.759766C33.0871 0.851653 34.9808 1.5773 36.4492 2.80176L36.7568 3.07227C38.3614 4.55012 39.2499 6.54005 39.25 8.60059V31.3994C39.2499 33.3319 38.4686 35.2024 37.0479 36.6465L36.7559 36.9287C35.1483 38.4086 32.9552 39.25 30.6572 39.25H9.34277C7.18851 39.25 5.12661 38.5109 3.55273 37.1992L3.24414 36.9287C1.6389 35.4508 0.750056 33.4604 0.75 31.3994V8.60059C0.750052 6.66811 1.53142 4.79762 2.95215 3.35352L3.24414 3.07129C4.8517 1.59136 7.04478 0.75 9.34277 0.75Z" stroke="#5C2929" stroke-width="1.5" stroke-linecap="round" stroke-linejoin="round"/>
<g style="mix-blend-mode:overlay" opacity="0.57">
<path d="M34.5 10C34.7761 10 35 9.77614 35 9.5C35 9.22386 34.7761 9 34.5 9C34.2239 9 34 9.22386 34 9.5C34 9.77614 34.2239 10 34.5 10Z" fill="white"/>
<path d="M20.4687 7.43329C20.7082 7.43329 20.9023 7.25431 20.9023 7.03354C20.9023 6.81276 20.7082 6.63379 20.4687 6.63379C20.2293 6.63379 20.0352 6.81276 20.0352 7.03354C20.0352 7.25431 20.2293 7.43329 20.4687 7.43329Z" fill="white"/>
<path d="M5.5 24C5.77614 24 6 23.7761 6 23.5C6 23.2239 5.77614 23 5.5 23C5.22386 23 5 23.2239 5 23.5C5 23.7761 5.22386 24 5.5 24Z" fill="white"/>
<path d="M34.5 24C34.7761 24 35 23.7761 35 23.5C35 23.2239 34.7761 23 34.5 23C34.2239 23 34 23.2239 34 23.5C34 23.7761 34.2239 24 34.5 24Z" fill="white"/>
<path d="M30.5 31C30.7761 31 31 30.7761 31 30.5C31 30.2239 30.7761 30 30.5 30C30.2239 30 30 30.2239 30 30.5C30 30.7761 30.2239 31 30.5 31Z" fill="white"/>
<path d="M11 33C11.5523 33 12 32.5523 12 32C12 31.4477 11.5523 31 11 31C10.4477 31 10 31.4477 10 32C10 32.5523 10.4477 33 11 33Z" fill="white"/>
</g>
<path d="M7 15C7.55228 15 8 14.5523 8 14C8 13.4477 7.55228 13 7 13C6.44772 13 6 13.4477 6 14C6 14.5523 6.44772 15 7 15Z" fill="#B8522D"/>
<path d="M6 22C6.55228 22 7 21.5523 7 21C7 20.4477 6.55228 20 6 20C5.44772 20 5 20.4477 5 21C5 21.5523 5.44772 22 6 22Z" fill="#944224"/>
<path d="M34 28C34.5523 28 35 27.5523 35 27C35 26.4477 34.5523 26 34 26C33.4477 26 33 26.4477 33 27C33 27.5523 33.4477 28 34 28Z" fill="#944224"/>
<path d="M32.5 16C32.7761 16 33 15.7761 33 15.5C33 15.2239 32.7761 15 32.5 15C32.2239 15 32 15.2239 32 15.5C32 15.7761 32.2239 16 32.5 16Z" fill="#B8522D"/>
<path d="M27.5 6C27.7761 6 28 5.77614 28 5.5C28 5.22386 27.7761 5 27.5 5C27.2239 5 27 5.22386 27 5.5C27 5.77614 27.2239 6 27.5 6Z" fill="#944224"/>
<path d="M10 10.3253C10.0007 9.90201 10.1281 9.48686 10.3684 9.12453C10.6088 8.7622 10.9531 8.46639 11.3642 8.26891C11.7754 8.07143 12.2379 7.97976 12.702 8.00374C13.1661 8.02773 13.6142 8.16646 13.9982 8.40503C16.9394 10.2272 19.9085 12.2409 22.8446 14.4034V10.2177C22.8468 9.63052 23.104 9.06799 23.5599 8.6528C24.0158 8.2376 24.6335 8.00343 25.2782 8.00134H26.5663C27.2111 8.00343 27.8288 8.2376 28.2847 8.6528C28.7406 9.06799 28.9977 9.63052 29 10.2177V26.7548C28.9977 27.3419 28.7406 27.9045 28.2847 28.3197C27.8288 28.7349 27.2111 28.969 26.5663 28.9711H25.2782C24.6335 28.969 24.0158 28.7349 23.5599 28.3197C23.104 27.9045 22.8468 27.3419 22.8446 26.7548V22.6878C20.0184 24.8425 17.042 26.8282 13.9339 28.6323C13.5473 28.8579 13.1012 28.9844 12.6425 28.9986C12.1837 29.0129 11.7292 28.9143 11.3267 28.7133C10.9242 28.5123 10.5885 28.2163 10.3551 27.8563C10.1217 27.4963 9.99899 27.0858 10 26.6677V10.3253Z" fill="#AB4C2A"/>
<path d="M11 13.8586V10.3781C11.0003 10.127 11.0772 9.88071 11.2224 9.6658C11.3676 9.4509 11.5756 9.27554 11.824 9.15863C12.0723 9.04171 12.3516 8.98768 12.6317 9.00236C12.9119 9.01703 13.1822 9.09986 13.4136 9.2419C17.191 11.5487 20.8045 14.0241 24.2871 16.6337C24.5064 16.7991 24.6835 17.0047 24.8064 17.2367C24.9294 17.4686 24.9953 17.7214 24.9998 17.978C25.0042 18.2347 24.9471 18.4892 24.8323 18.7245C24.7175 18.9597 24.5476 19.1701 24.3342 19.3416C20.9149 22.0895 17.247 24.5791 13.3683 26.7849C13.1353 26.9173 12.8669 26.9914 12.5911 26.9993C12.3153 27.0072 12.0421 26.9487 11.8001 26.8299C11.5582 26.7111 11.3563 26.5364 11.2156 26.3239C11.0748 26.1115 11.0004 25.8691 11 25.6221V13.8586Z" fill="white"/>
<path d="M25.1681 27H26.8319C27.477 27 28 26.5153 28 25.9174L28 10.0826C28 9.48471 27.477 9 26.8319 9H25.1681C24.523 9 24 9.48471 24 10.0826L24 25.9174C24 26.5153 24.523 27 25.1681 27Z" fill="white"/>
</g>
<defs>
<linearGradient id="paint0_linear_1_11656" x1="20" y1="26.3618" x2="20" y2="-2.47472" gradientUnits="userSpaceOnUse">
<stop stop-color="#FF7B46" stop-opacity="0"/>
<stop offset="1" stop-color="#9E4021"/>
</linearGradient>
<clipPath id="clip0_1_11656">
<rect width="40" height="40" fill="white"/>
</clipPath>
</defs>
</svg>
