<svg width="40" height="40" viewBox="0 0 40 40" fill="none" xmlns="http://www.w3.org/2000/svg">
<g clip-path="url(#clip0_1_11628)">
<path d="M30.656 3H9.344C4.18345 3 0 6.76511 0 11.4096V30.5904C0 35.2349 4.18345 39 9.344 39H30.656C35.8165 39 40 35.2349 40 30.5904V11.4096C40 6.76511 35.8165 3 30.656 3Z" fill="#2D2C4F"/>
<path d="M30.656 0H9.344C4.18345 0 0 3.86969 0 8.6432V28.3568C0 33.1303 4.18345 37 9.344 37H30.656C35.8165 37 40 33.1303 40 28.3568V8.6432C40 3.86969 35.8165 0 30.656 0Z" fill="url(#paint0_linear_1_11628)"/>
<path d="M28.4554 3.80664H11.544C7.44876 3.80664 4.12891 6.86744 4.12891 10.6431V26.2349C4.12891 30.0106 7.44876 33.0714 11.544 33.0714H28.4554C32.5506 33.0714 35.8705 30.0106 35.8705 26.2349V10.6431C35.8705 6.86744 32.5506 3.80664 28.4554 3.80664Z" fill="url(#paint1_linear_1_11628)"/>
<path d="M34.209 18.0004H5.7942C5.56315 17.9957 5.33341 18.0344 5.11813 18.1141C4.90284 18.1938 4.70624 18.313 4.53958 18.4649C4.37292 18.6169 4.23948 18.7985 4.14689 18.9994C4.0543 19.2003 4.00438 19.4166 4 19.6359V28.4107C4 32.1816 6.58287 34 10.711 34H29.2938C33.4219 34 36 31.9332 36 28.1623V19.6359C35.9956 19.4169 35.9458 19.2008 35.8534 19.0001C35.761 18.7994 35.6279 18.6179 35.4616 18.466C35.2952 18.3142 35.099 18.1949 34.8841 18.115C34.6692 18.0351 34.4398 17.9961 34.209 18.0004Z" fill="#3B3A6E"/>
<path d="M20.5773 10.2921C21.0124 10.8127 21.8056 11.1597 22.4901 10.9254C23.0136 10.7468 23.3327 10.2921 23.614 9.86779C23.8649 9.4878 24.1216 9.04322 23.9374 8.6379C23.7402 8.20345 23.1325 8.04259 22.5989 8.01346C21.9144 7.97419 20.734 7.99192 20.2177 8.47451C19.7014 8.95709 20.2191 9.85639 20.5773 10.2921Z" fill="#6866C4"/>
<path d="M28.9241 20.3201C28.5692 20.3966 28.1665 20.5261 28.0398 20.8448C27.8906 21.208 28.1889 21.5852 28.4693 21.8747L30.654 24.1613C31.0718 24.6327 31.545 25.0589 32.0647 25.4319C32.5971 25.7854 33.2399 26.0304 33.893 25.997C34.0705 25.9872 33.978 23.9943 33.9587 23.7994C33.8836 23.0559 33.7123 22.3237 33.4486 21.6186C33.0878 20.6583 32.6135 20.0028 31.4533 20C30.6 20.0167 29.7514 20.1241 28.9241 20.3201Z" fill="#5956A7"/>
<path d="M16.0506 25.9827C15.419 26.4026 14.8252 27.0267 15.0477 27.6566C15.1249 27.8361 15.2493 28.0004 15.4127 28.1386C15.5761 28.2767 15.7746 28.3856 15.995 28.4578C16.4362 28.5997 16.9009 28.6901 17.3746 28.7263L19.3912 28.9605C19.7967 29.0077 20.2488 29.0477 20.5861 28.862C20.7367 28.7665 20.8531 28.6411 20.9237 28.4985C20.9942 28.3558 21.0164 28.2009 20.988 28.0493C20.9253 27.7462 20.7816 27.4574 20.5664 27.2024C20.0214 26.4494 19.3187 25.7761 18.4888 25.2115C17.5253 24.5916 16.8059 25.4828 16.0506 25.9827Z" fill="#5956A7"/>
<path d="M6.5365 14.8094C6.99946 14.8094 7.37476 14.4634 7.37476 14.0365C7.37476 13.6097 6.99946 13.2637 6.5365 13.2637C6.07354 13.2637 5.69824 13.6097 5.69824 14.0365C5.69824 14.4634 6.07354 14.8094 6.5365 14.8094Z" fill="#383763"/>
<path d="M8 25C8.55228 25 9 24.5523 9 24C9 23.4477 8.55228 23 8 23C7.44772 23 7 23.4477 7 24C7 24.5523 7.44772 25 8 25Z" fill="#8A99FF"/>
<path d="M33 32C33.5523 32 34 31.5523 34 31C34 30.4477 33.5523 30 33 30C32.4477 30 32 30.4477 32 31C32 31.5523 32.4477 32 33 32Z" fill="#8A99FF"/>
<path d="M32.5 16C32.7761 16 33 15.7761 33 15.5C33 15.2239 32.7761 15 32.5 15C32.2239 15 32 15.2239 32 15.5C32 15.7761 32.2239 16 32.5 16Z" fill="#383763"/>
<path d="M34.5 10C34.7761 10 35 9.77614 35 9.5C35 9.22386 34.7761 9 34.5 9C34.2239 9 34 9.22386 34 9.5C34 9.77614 34.2239 10 34.5 10Z" fill="#8A99FF"/>
<path d="M20.5 7C20.7761 7 21 6.77614 21 6.5C21 6.22386 20.7761 6 20.5 6C20.2239 6 20 6.22386 20 6.5C20 6.77614 20.2239 7 20.5 7Z" fill="#8A99FF"/>
<path d="M25.5 7C25.7761 7 26 6.77614 26 6.5C26 6.22386 25.7761 6 25.5 6C25.2239 6 25 6.22386 25 6.5C25 6.77614 25.2239 7 25.5 7Z" fill="#383763"/>
<path d="M17.5 30C17.7761 30 18 29.7761 18 29.5C18 29.2239 17.7761 29 17.5 29C17.2239 29 17 29.2239 17 29.5C17 29.7761 17.2239 30 17.5 30Z" fill="#8A99FF"/>
<path d="M28.5 17C28.7761 17 29 16.7761 29 16.5C29 16.2239 28.7761 16 28.5 16C28.2239 16 28 16.2239 28 16.5C28 16.7761 28.2239 17 28.5 17Z" fill="#8A99FF"/>
<path d="M27.5 32C27.7761 32 28 31.7761 28 31.5C28 31.2239 27.7761 31 27.5 31C27.2239 31 27 31.2239 27 31.5C27 31.7761 27.2239 32 27.5 32Z" fill="#2D2C4F"/>
<path d="M11 33C11.5523 33 12 32.5523 12 32C12 31.4477 11.5523 31 11 31C10.4477 31 10 31.4477 10 32C10 32.5523 10.4477 33 11 33Z" fill="#2D2C4F"/>
<path d="M14 4.15074C14 4.93843 12.4334 5 10.5 5C8.56656 5 7 4.93206 7 4.15074C7 3.36943 8.5684 3 10.5 3C12.4316 3 14 3.36518 14 4.15074Z" fill="#C4CBFF"/>
<path d="M17.5 4C18.3284 4 19 3.77614 19 3.5C19 3.22386 18.3284 3 17.5 3C16.6716 3 16 3.22386 16 3.5C16 3.77614 16.6716 4 17.5 4Z" fill="#C4CBFF"/>
<path d="M30.6609 0.955642C32.8623 0.959011 34.9724 1.76556 36.529 3.19857C38.0856 4.63158 38.9617 6.5742 38.9654 8.60078V31.3992C38.9617 33.4258 38.0856 35.3684 36.529 36.8014C34.9724 38.2344 32.8623 39.041 30.6609 39.0444H9.34256C7.14105 39.0414 5.03063 38.235 3.47393 36.8019C1.91723 35.3688 1.04127 33.4259 1.03806 31.3992V8.60078C1.04127 6.57407 1.91723 4.63121 3.47393 3.19811C5.03063 1.76501 7.14105 0.958591 9.34256 0.955642H30.6574M30.6574 0H9.34256C6.86476 0 4.48844 0.906151 2.73637 2.51911C0.984303 4.13207 0 6.31971 0 8.60078V31.3992C0 33.6803 0.984303 35.8679 2.73637 37.4809C4.48844 39.0938 6.86476 40 9.34256 40H30.6574C33.1352 40 35.5116 39.0938 37.2636 37.4809C39.0157 35.8679 40 33.6803 40 31.3992V8.60078C40 6.31971 39.0157 4.13207 37.2636 2.51911C35.5116 0.906151 33.1352 0 30.6574 0Z" fill="#8C9BFF"/>
<path d="M9.34277 0.75H30.6602L31.0898 0.759766C33.0871 0.851653 34.9808 1.5773 36.4492 2.80176L36.7568 3.07227C38.3614 4.55012 39.2499 6.54005 39.25 8.60059V31.3994C39.2499 33.3319 38.4686 35.2024 37.0479 36.6465L36.7559 36.9287C35.1483 38.4086 32.9552 39.25 30.6572 39.25H9.34277C7.18851 39.25 5.12661 38.5109 3.55273 37.1992L3.24414 36.9287C1.6389 35.4508 0.750056 33.4604 0.75 31.3994V8.60059C0.750052 6.66811 1.53142 4.79762 2.95215 3.35352L3.24414 3.07129C4.8517 1.59136 7.04478 0.75 9.34277 0.75Z" stroke="#5C2929" stroke-width="1.5" stroke-linecap="round" stroke-linejoin="round"/>
<path d="M13 24.8834V11.1162C12.9998 10.9205 13.0576 10.7282 13.1674 10.5586C13.2773 10.389 13.4353 10.2481 13.6258 10.1501C13.8162 10.052 14.0323 10.0003 14.2524 10C14.4725 9.99972 14.6887 10.0509 14.8795 10.1485L28.3697 17.0321C28.5613 17.13 28.7204 17.2711 28.8311 17.4411C28.9417 17.6111 29 17.8041 29 18.0006C29 18.197 28.9417 18.39 28.8311 18.56C28.7204 18.7301 28.5613 18.8712 28.3697 18.969L14.8795 25.8526C14.6885 25.9498 14.4722 26.0006 14.2522 26C14.0322 25.9994 13.8162 25.9474 13.6259 25.8493C13.4356 25.7512 13.2776 25.6103 13.1677 25.4408C13.0579 25.2712 13.0001 25.079 13 24.8834Z" fill="white"/>
<path d="M14.4288 10.0874C14.643 10.0895 14.8528 10.1431 15.0364 10.2427L28.1822 17.0495C28.3689 17.1463 28.5239 17.2858 28.6318 17.4539C28.7396 17.6221 28.7964 17.8129 28.7964 18.0072C28.7964 18.2015 28.7396 18.3923 28.6318 18.5604C28.5239 18.7286 28.3689 18.8681 28.1822 18.9648L15.0364 25.7655C14.8505 25.8625 14.6395 25.9136 14.4247 25.9135C14.2099 25.9134 13.9989 25.8621 13.8131 25.7649C13.6273 25.6676 13.4732 25.5279 13.3664 25.3597C13.2596 25.1915 13.2039 25.0009 13.2049 24.807V11.1934C13.2047 11.0482 13.2362 10.9044 13.2976 10.7702C13.359 10.636 13.4491 10.5141 13.5628 10.4114C13.6765 10.3087 13.8114 10.2272 13.96 10.1716C14.1086 10.116 14.2679 10.0874 14.4288 10.0874ZM14.4288 9C13.7846 9.00082 13.1671 9.23222 12.7118 9.64342C12.2564 10.0546 12.0005 10.612 12 11.1934V24.807C11.9995 25.1914 12.1111 25.5692 12.3235 25.9023C12.536 26.2355 12.8419 26.5123 13.2105 26.705C13.5791 26.8977 13.9974 26.9994 14.4233 27C14.8493 27.0006 15.2679 26.9 15.6372 26.7084L28.7795 19.9015C29.1504 19.7096 29.4585 19.4327 29.6728 19.0988C29.8871 18.765 30 18.386 30 18.0002C30 17.6144 29.8871 17.2354 29.6728 16.9015C29.4585 16.5677 29.1504 16.2908 28.7795 16.0989L15.6372 9.29203C15.2705 9.10187 14.8552 9.00122 14.4322 9H14.4288Z" fill="#3B3A6E"/>
</g>
<defs>
<linearGradient id="paint0_linear_1_11628" x1="19.9991" y1="-4.2176" x2="19.9991" y2="25.7008" gradientUnits="userSpaceOnUse">
<stop stop-color="#6562C4"/>
<stop offset="1" stop-color="#4E4C8A"/>
</linearGradient>
<linearGradient id="paint1_linear_1_11628" x1="19.9997" y1="20.7968" x2="19.9997" y2="2.03834" gradientUnits="userSpaceOnUse">
<stop stop-color="#6562C4"/>
<stop offset="1" stop-color="#3E3C78"/>
</linearGradient>
<clipPath id="clip0_1_11628">
<rect width="40" height="40" fill="white"/>
</clipPath>
</defs>
</svg>
