<svg width="40" height="40" viewBox="0 0 40 40" fill="none" xmlns="http://www.w3.org/2000/svg">
<g clip-path="url(#clip0_1_11718)">
<path d="M30.6609 0H9.34256C6.86476 0 4.48844 0.906151 2.73637 2.51911C0.984303 4.13207 0 6.31971 0 8.60078V31.3992C0 33.6803 0.984303 35.8679 2.73637 37.4809C4.48844 39.0938 6.86476 40 9.34256 40H30.6574C33.1352 40 35.5116 39.0938 37.2636 37.4809C39.0157 35.8679 40 33.6803 40 31.3992V8.60078C40 6.32026 39.0162 4.1331 37.2649 2.52024C35.5135 0.907369 33.1381 0.000844636 30.6609 0Z" fill="#298726"/>
<path d="M30.6609 36.7675H9.34256C6.86476 36.7675 4.48844 35.8443 2.73637 34.201C0.984303 32.5577 0 30.3289 0 28.0049V31.2373C0 33.5613 0.984303 35.7901 2.73637 37.4335C4.48844 39.0768 6.86476 40 9.34256 40H30.6574C33.1352 40 35.5116 39.0768 37.2636 37.4335C39.0157 35.7901 40 33.5613 40 31.2373V28C40.0007 29.1509 39.7596 30.2906 39.2907 31.3541C38.8217 32.4176 38.1339 33.384 37.2667 34.1981C36.3994 35.0123 35.3697 35.6583 34.2363 36.0991C33.1028 36.54 31.8879 36.7671 30.6609 36.7675Z" fill="#1F651B"/>
<path d="M28.5245 4H11.4755C7.34688 4 4 7.1377 4 11.0082V26.9918C4 30.8623 7.34688 34 11.4755 34H28.5245C32.6531 34 36 30.8623 36 26.9918V11.0082C36 7.1377 32.6531 4 28.5245 4Z" fill="url(#paint0_linear_1_11718)"/>
<path d="M12.1263 8.89375C11.682 9.25466 11.2724 9.66797 11.0891 10.1642C10.9059 10.6605 10.9975 11.2543 11.4349 11.6195C11.9258 12.0154 12.6864 12.0343 13.3622 11.9746C14.7188 11.8526 16.0349 11.5127 17.2394 10.9734C17.7805 10.7303 18.3129 10.4349 18.6482 10.0012C18.8707 9.70594 18.9923 9.36473 18.9996 9.01508C19.007 8.66542 18.8997 8.32083 18.6897 8.01911C18.2507 7.40352 17.255 7.01495 16.4097 7.0004C15.4694 6.98293 14.3216 7.54759 13.5524 7.95653C13.0408 8.22784 12.5631 8.54183 12.1263 8.89375Z" fill="#298526"/>
<path d="M34.209 18.0004H5.7942C5.56315 17.9957 5.33341 18.0344 5.11813 18.1141C4.90284 18.1938 4.70624 18.313 4.53958 18.4649C4.37292 18.6169 4.23948 18.7985 4.14689 18.9994C4.0543 19.2003 4.00438 19.4166 4 19.6359V28.4107C4 32.1816 6.58287 34 10.711 34H29.2938C33.4219 34 36 31.9332 36 28.1623V19.6359C35.9956 19.4169 35.9458 19.2008 35.8534 19.0001C35.761 18.7994 35.6279 18.6179 35.4616 18.466C35.2952 18.3142 35.099 18.1949 34.8841 18.115C34.6692 18.0351 34.4398 17.9961 34.209 18.0004Z" fill="#267923"/>
<path d="M20.5 7C20.7761 7 21 6.77614 21 6.5C21 6.22386 20.7761 6 20.5 6C20.2239 6 20 6.22386 20 6.5C20 6.77614 20.2239 7 20.5 7Z" fill="#379B34"/>
<path d="M16.6621 27.8981C16.9016 27.8981 17.0957 27.7192 17.0957 27.4984C17.0957 27.2776 16.9016 27.0986 16.6621 27.0986C16.4226 27.0986 16.2285 27.2776 16.2285 27.4984C16.2285 27.7192 16.4226 27.8981 16.6621 27.8981Z" fill="#3FF5FF"/>
<path d="M33.5 24C33.7761 24 34 23.7761 34 23.5C34 23.2239 33.7761 23 33.5 23C33.2239 23 33 23.2239 33 23.5C33 23.7761 33.2239 24 33.5 24Z" fill="#379B34"/>
<path d="M5.5 15C5.77614 15 6 14.7761 6 14.5C6 14.2239 5.77614 14 5.5 14C5.22386 14 5 14.2239 5 14.5C5 14.7761 5.22386 15 5.5 15Z" fill="#379B34"/>
<path d="M12.4586 24.4181C11.9617 24.891 11.927 25.6874 12.081 26.3595C12.3461 27.5054 13.0303 28.5101 13.9985 29.1755C14.9667 29.8408 16.1487 30.1184 17.3112 29.9536C17.9736 29.859 18.7007 29.5437 18.9259 28.9082C19.1512 28.2727 18.8249 27.6322 18.4556 27.1028C17.7462 26.0923 16.8205 25.2533 15.7461 24.647C14.8617 24.1476 13.3264 23.6017 12.4586 24.4181Z" fill="#298526"/>
<path d="M13.8615 3.43462C13.8615 4.01622 12.4094 4.06168 10.6173 4.06168C8.82512 4.06168 7.37305 4.01152 7.37305 3.43462C7.37305 2.85773 8.82682 2.58496 10.6173 2.58496C12.4077 2.58496 13.8615 2.8546 13.8615 3.43462Z" fill="#41E083"/>
<path d="M17.0956 3.74188C17.6581 3.74188 18.1141 3.4829 18.1141 3.16342C18.1141 2.84395 17.6581 2.58496 17.0956 2.58496C16.5331 2.58496 16.0771 2.84395 16.0771 3.16342C16.0771 3.4829 16.5331 3.74188 17.0956 3.74188Z" fill="#41E083"/>
<g style="mix-blend-mode:overlay">
<path d="M30.6609 0.955642C32.8623 0.959011 34.9724 1.76556 36.529 3.19857C38.0856 4.63158 38.9617 6.5742 38.9654 8.60078V31.3992C38.9617 33.4258 38.0856 35.3684 36.529 36.8014C34.9724 38.2344 32.8623 39.041 30.6609 39.0444H9.34256C7.14105 39.0414 5.03063 38.235 3.47393 36.8019C1.91723 35.3688 1.04127 33.4259 1.03806 31.3992V8.60078C1.04127 6.57407 1.91723 4.63121 3.47393 3.19811C5.03063 1.76501 7.14105 0.958591 9.34256 0.955642H30.6574M30.6574 0H9.34256C6.86476 0 4.48844 0.906151 2.73637 2.51911C0.984303 4.13207 0 6.31971 0 8.60078V31.3992C0 33.6803 0.984303 35.8679 2.73637 37.4809C4.48844 39.0938 6.86476 40 9.34256 40H30.6574C33.1352 40 35.5116 39.0938 37.2636 37.4809C39.0157 35.8679 40 33.6803 40 31.3992V8.60078C40 6.31971 39.0157 4.13207 37.2636 2.51911C35.5116 0.906151 33.1352 0 30.6574 0Z" fill="#FFC3AD"/>
</g>
<path d="M9.34277 0.75H30.6602L31.0898 0.759766C33.0871 0.851653 34.9808 1.5773 36.4492 2.80176L36.7568 3.07227C38.3614 4.55012 39.2499 6.54005 39.25 8.60059V31.3994C39.2499 33.3319 38.4686 35.2024 37.0479 36.6465L36.7559 36.9287C35.1483 38.4086 32.9552 39.25 30.6572 39.25H9.34277C7.18851 39.25 5.12661 38.5109 3.55273 37.1992L3.24414 36.9287C1.6389 35.4508 0.750056 33.4604 0.75 31.3994V8.60059C0.750052 6.66811 1.53142 4.79762 2.95215 3.35352L3.24414 3.07129C4.8517 1.59136 7.04478 0.75 9.34277 0.75Z" stroke="#5C2929" stroke-width="1.5" stroke-linecap="round" stroke-linejoin="round"/>
<g style="mix-blend-mode:overlay" opacity="0.57">
<path d="M8 11C8.55228 11 9 10.5523 9 10C9 9.44771 8.55228 9 8 9C7.44772 9 7 9.44771 7 10C7 10.5523 7.44772 11 8 11Z" fill="#3B3B3B"/>
<path d="M7 22C6.44772 22 6 22.4477 6 23C6 23.5523 6.44772 24 7 24C7.55228 24 8 23.5523 8 23C8 22.4477 7.55228 22 7 22Z" fill="#3B3B3B"/>
<path d="M33 32C33.5523 32 34 31.5523 34 31C34 30.4477 33.5523 30 33 30C32.4477 30 32 30.4477 32 31C32 31.5523 32.4477 32 33 32Z" fill="#3B3B3B"/>
<path d="M32.5 16C32.7761 16 33 15.7761 33 15.5C33 15.2239 32.7761 15 32.5 15C32.2239 15 32 15.2239 32 15.5C32 15.7761 32.2239 16 32.5 16Z" fill="#3B3B3B"/>
<path d="M34.5 12C34.7761 12 35 11.7761 35 11.5C35 11.2239 34.7761 11 34.5 11C34.2239 11 34 11.2239 34 11.5C34 11.7761 34.2239 12 34.5 12Z" fill="white"/>
<path d="M25.5 7C25.7761 7 26 6.77614 26 6.5C26 6.22386 25.7761 6 25.5 6C25.2239 6 25 6.22386 25 6.5C25 6.77614 25.2239 7 25.5 7Z" fill="#3B3B3B"/>
<path d="M27.5 32C27.7761 32 28 31.7761 28 31.5C28 31.2239 27.7761 31 27.5 31C27.2239 31 27 31.2239 27 31.5C27 31.7761 27.2239 32 27.5 32Z" fill="white"/>
<path d="M10 32C10.5523 32 11 31.5523 11 31C11 30.4477 10.5523 30 10 30C9.44772 30 9 30.4477 9 31C9 31.5523 9.44772 32 10 32Z" fill="white"/>
</g>
<path d="M29 10.3253C28.9993 9.90201 28.8719 9.48686 28.6316 9.12453C28.3912 8.7622 28.0469 8.46639 27.6358 8.26891C27.2246 8.07143 26.7621 7.97976 26.298 8.00374C25.8339 8.02773 25.3858 8.16646 25.0018 8.40503C22.0606 10.2272 19.0915 12.2409 16.1554 14.4034V10.2177C16.1532 9.63052 15.896 9.06799 15.4401 8.6528C14.9842 8.2376 14.3665 8.00343 13.7218 8.00134H12.4337C11.7889 8.00343 11.1712 8.2376 10.7153 8.6528C10.2594 9.06799 10.0023 9.63052 10 10.2177V26.7548C10.0023 27.3419 10.2594 27.9045 10.7153 28.3197C11.1712 28.7349 11.7889 28.969 12.4337 28.9711H13.7218C14.3665 28.969 14.9842 28.7349 15.4401 28.3197C15.896 27.9045 16.1532 27.3419 16.1554 26.7548V22.6878C18.9816 24.8425 21.958 26.8282 25.0661 28.6323C25.4527 28.8579 25.8988 28.9844 26.3575 28.9986C26.8163 29.0129 27.2708 28.9143 27.6733 28.7133C28.0758 28.5123 28.4115 28.2163 28.6449 27.8563C28.8783 27.4963 29.001 27.0858 29 26.6677V10.3253Z" fill="#267923"/>
<path d="M28 13.8586V10.3781C27.9997 10.127 27.9228 9.88071 27.7776 9.6658C27.6324 9.4509 27.4244 9.27554 27.176 9.15863C26.9277 9.04171 26.6484 8.98768 26.3683 9.00236C26.0881 9.01703 25.8178 9.09986 25.5864 9.2419C21.809 11.5487 18.1955 14.0241 14.7129 16.6337C14.4936 16.7991 14.3165 17.0047 14.1936 17.2367C14.0706 17.4686 14.0047 17.7214 14.0002 17.978C13.9958 18.2347 14.0529 18.4892 14.1677 18.7245C14.2825 18.9597 14.4524 19.1701 14.6658 19.3416C18.0851 22.0895 21.753 24.5791 25.6317 26.7849C25.8647 26.9173 26.1331 26.9914 26.4089 26.9993C26.6847 27.0072 26.9579 26.9487 27.1999 26.8299C27.4418 26.7111 27.6437 26.5364 27.7844 26.3239C27.9252 26.1115 27.9996 25.8691 28 25.6221V13.8586Z" fill="white"/>
<path d="M13.8319 27H12.1681C11.523 27 11 26.5153 11 25.9174L11 10.0826C11 9.48471 11.523 9 12.1681 9H13.8319C14.477 9 15 9.48471 15 10.0826L15 25.9174C15 26.5153 14.477 27 13.8319 27Z" fill="white"/>
</g>
<defs>
<linearGradient id="paint0_linear_1_11718" x1="20" y1="27.3453" x2="20" y2="-1.49121" gradientUnits="userSpaceOnUse">
<stop stop-color="#52FFE2" stop-opacity="0"/>
<stop offset="1" stop-color="#41CF3C"/>
</linearGradient>
<clipPath id="clip0_1_11718">
<rect width="40" height="40" fill="white"/>
</clipPath>
</defs>
</svg>
