<svg width="40" height="40" viewBox="0 0 40 40" fill="none" xmlns="http://www.w3.org/2000/svg">
<g clip-path="url(#clip0_1_11750)">
<path d="M30.6609 0H9.34256C6.86476 0 4.48844 0.906151 2.73637 2.51911C0.984303 4.13207 0 6.31971 0 8.60078V31.3992C0 33.6803 0.984303 35.8679 2.73637 37.4809C4.48844 39.0938 6.86476 40 9.34256 40H30.6574C33.1352 40 35.5116 39.0938 37.2636 37.4809C39.0157 35.8679 40 33.6803 40 31.3992V8.60078C40 6.32026 39.0162 4.1331 37.2649 2.52024C35.5135 0.907369 33.1381 0.000844636 30.6609 0Z" fill="#FF543F"/>
<path d="M30.6609 36.7675H9.34256C6.86476 36.7675 4.48844 35.8443 2.73637 34.201C0.984303 32.5577 0 30.3289 0 28.0049V31.2373C0 33.5613 0.984303 35.7901 2.73637 37.4335C4.48844 39.0768 6.86476 40 9.34256 40H30.6574C33.1352 40 35.5116 39.0768 37.2636 37.4335C39.0157 35.7901 40 33.5613 40 31.2373V28C40.0007 29.1509 39.7596 30.2906 39.2907 31.3541C38.8217 32.4176 38.1339 33.384 37.2667 34.1981C36.3994 35.0123 35.3697 35.6583 34.2363 36.0991C33.1028 36.54 31.8879 36.7671 30.6609 36.7675Z" fill="#AA313A"/>
<path d="M28.5245 4H11.4755C7.34688 4 4 7.1377 4 11.0082V26.9918C4 30.8623 7.34688 34 11.4755 34H28.5245C32.6531 34 36 30.8623 36 26.9918V11.0082C36 7.1377 32.6531 4 28.5245 4Z" fill="url(#paint0_linear_1_11750)"/>
<path d="M34.209 19.0004H5.7942C5.56315 18.9957 5.33341 19.0344 5.11813 19.1141C4.90284 19.1938 4.70624 19.313 4.53958 19.4649C4.37292 19.6169 4.23948 19.7985 4.14689 19.9994C4.0543 20.2003 4.00438 20.4166 4 20.6359V29.4107C4 33.1816 6.58287 35 10.711 35H29.2938C33.4219 35 36 32.9332 36 29.1623V20.6359C35.9956 20.4169 35.9458 20.2008 35.8534 20.0001C35.761 19.7994 35.6279 19.6179 35.4616 19.466C35.2952 19.3142 35.099 19.1949 34.8841 19.115C34.6692 19.0351 34.4398 18.9961 34.209 19.0004Z" fill="#AA313A"/>
<path d="M22.1837 26.0643C21.7982 26.3313 21.471 26.6566 21.2178 27.0247C21.0925 27.2099 21.0189 27.4183 21.0032 27.6328C20.9875 27.8474 21.03 28.0622 21.1273 28.2598C21.5272 28.9539 22.6158 29.023 23.5081 28.995L27.4228 28.8782C28.2491 28.8519 29.1471 28.8042 29.7678 28.3256C30.4677 27.7862 30.579 26.8849 30.6413 26.0725C30.7187 25.0857 31.2243 23.4411 30.8828 22.4954C30.5055 21.4675 29.1151 22.3095 28.3378 22.6154C27.1974 23.0625 26.0976 23.5843 25.0476 24.1762C24.608 24.4245 22.1837 25.6169 22.1837 26.0643Z" fill="#FF543F"/>
<path d="M7.83176 8.49924C7.24209 8.82085 6.86469 9.35104 7.04553 9.8449C7.19688 10.2486 7.70793 10.5689 8.27599 10.7357C8.85667 10.8839 9.46732 10.9697 10.0863 10.9901C10.3733 11.0102 10.7133 11.0143 10.8863 10.8555C10.9846 10.7427 11.0208 10.6095 10.9885 10.4801C10.9178 9.76366 10.6371 9.06435 10.163 8.42388C9.89956 8.06862 9.85435 7.94751 9.28433 8.02018C8.75144 8.09863 8.25351 8.26285 7.83176 8.49924Z" fill="#FF543F"/>
<path d="M13 3.15074C13 3.93843 11.6572 4 10 4C8.34277 4 7 3.93206 7 3.15074C7 2.36943 8.34434 2 10 2C11.6557 2 13 2.36518 13 3.15074Z" fill="#FFE7C7"/>
<path d="M17 4C17.5523 4 18 3.77614 18 3.5C18 3.22386 17.5523 3 17 3C16.4477 3 16 3.22386 16 3.5C16 3.77614 16.4477 4 17 4Z" fill="#FFE7C7"/>
<g style="mix-blend-mode:overlay">
<path d="M30.6609 0.955642C32.8623 0.959011 34.9724 1.76556 36.529 3.19857C38.0856 4.63158 38.9617 6.5742 38.9654 8.60078V31.3992C38.9617 33.4258 38.0856 35.3684 36.529 36.8014C34.9724 38.2344 32.8623 39.041 30.6609 39.0444H9.34256C7.14105 39.0414 5.03063 38.235 3.47393 36.8019C1.91723 35.3688 1.04127 33.4259 1.03806 31.3992V8.60078C1.04127 6.57407 1.91723 4.63121 3.47393 3.19811C5.03063 1.76501 7.14105 0.958591 9.34256 0.955642H30.6574M30.6574 0H9.34256C6.86476 0 4.48844 0.906151 2.73637 2.51911C0.984303 4.13207 0 6.31971 0 8.60078V31.3992C0 33.6803 0.984303 35.8679 2.73637 37.4809C4.48844 39.0938 6.86476 40 9.34256 40H30.6574C33.1352 40 35.5116 39.0938 37.2636 37.4809C39.0157 35.8679 40 33.6803 40 31.3992V8.60078C40 6.31971 39.0157 4.13207 37.2636 2.51911C35.5116 0.906151 33.1352 0 30.6574 0Z" fill="#FFC3AD"/>
</g>
<path d="M9.34277 0.75H30.6602L31.0898 0.759766C33.0871 0.851653 34.9808 1.5773 36.4492 2.80176L36.7568 3.07227C38.3614 4.55012 39.2499 6.54005 39.25 8.60059V31.3994C39.2499 33.3319 38.4686 35.2024 37.0479 36.6465L36.7559 36.9287C35.1483 38.4086 32.9552 39.25 30.6572 39.25H9.34277C7.18851 39.25 5.12661 38.5109 3.55273 37.1992L3.24414 36.9287C1.6389 35.4508 0.750056 33.4604 0.75 31.3994V8.60059C0.750052 6.66811 1.53142 4.79762 2.95215 3.35352L3.24414 3.07129C4.8517 1.59136 7.04478 0.75 9.34277 0.75Z" stroke="#5C2929" stroke-width="1.5" stroke-linecap="round" stroke-linejoin="round"/>
<g style="mix-blend-mode:overlay" opacity="0.57">
<path d="M7 15C7.55228 15 8 14.5523 8 14C8 13.4477 7.55228 13 7 13C6.44772 13 6 13.4477 6 14C6 14.5523 6.44772 15 7 15Z" fill="#3B3B3B"/>
<path d="M8 25C8.55228 25 9 24.5523 9 24C9 23.4477 8.55228 23 8 23C7.44772 23 7 23.4477 7 24C7 24.5523 7.44772 25 8 25Z" fill="#3B3B3B"/>
<path d="M33 32C33.5523 32 34 31.5523 34 31C34 30.4477 33.5523 30 33 30C32.4477 30 32 30.4477 32 31C32 31.5523 32.4477 32 33 32Z" fill="#3B3B3B"/>
<path d="M32.5 16C32.7761 16 33 15.7761 33 15.5C33 15.2239 32.7761 15 32.5 15C32.2239 15 32 15.2239 32 15.5C32 15.7761 32.2239 16 32.5 16Z" fill="#3B3B3B"/>
<path d="M34.5 10C34.7761 10 35 9.77614 35 9.5C35 9.22386 34.7761 9 34.5 9C34.2239 9 34 9.22386 34 9.5C34 9.77614 34.2239 10 34.5 10Z" fill="white"/>
<path d="M20.5 7C20.7761 7 21 6.77614 21 6.5C21 6.22386 20.7761 6 20.5 6C20.2239 6 20 6.22386 20 6.5C20 6.77614 20.2239 7 20.5 7Z" fill="white"/>
<path d="M26.5 8C26.7761 8 27 7.77614 27 7.5C27 7.22386 26.7761 7 26.5 7C26.2239 7 26 7.22386 26 7.5C26 7.77614 26.2239 8 26.5 8Z" fill="#3B3B3B"/>
<path d="M17.5 30C17.7761 30 18 29.7761 18 29.5C18 29.2239 17.7761 29 17.5 29C17.2239 29 17 29.2239 17 29.5C17 29.7761 17.2239 30 17.5 30Z" fill="white"/>
<path d="M33.5 24C33.7761 24 34 23.7761 34 23.5C34 23.2239 33.7761 23 33.5 23C33.2239 23 33 23.2239 33 23.5C33 23.7761 33.2239 24 33.5 24Z" fill="white"/>
<path d="M27.5 32C27.7761 32 28 31.7761 28 31.5C28 31.2239 27.7761 31 27.5 31C27.2239 31 27 31.2239 27 31.5C27 31.7761 27.2239 32 27.5 32Z" fill="white"/>
<path d="M11 33C11.5523 33 12 32.5523 12 32C12 31.4477 11.5523 31 11 31C10.4477 31 10 31.4477 10 32C10 32.5523 10.4477 33 11 33Z" fill="white"/>
</g>
<path d="M33 19.1763C32.999 16.8032 32.0875 14.5086 30.43 12.7068C28.7726 10.9051 26.4784 9.71479 23.9618 9.35091C23.912 9.3434 23.8616 9.33975 23.8111 9.33999C23.5759 9.34019 23.3486 9.41874 23.1701 9.56145C23.031 9.6726 22.9283 9.81799 22.8738 9.98098C22.6416 9.67764 22.335 9.43036 21.9796 9.25973C21.6241 9.0891 21.23 9.00005 20.8302 9C20.3701 9.00105 19.9194 9.12089 19.528 9.34623C16.8123 10.8801 14.2231 12.6004 11.7819 14.4928C11.4628 14.7445 11.2262 15.0747 11.099 15.4457C10.9481 15.3585 10.7744 15.3116 10.5969 15.3101H9.90228C9.13266 15.3113 8.39498 15.5968 7.85093 16.1041C7.30689 16.6113 7.00088 17.2988 7 18.0159V20.909C7.00265 21.6249 7.3095 22.3106 7.85339 22.8163C8.39729 23.3219 9.13398 23.6062 9.90228 23.607H10.5969C10.7667 23.606 10.9333 23.5641 11.0806 23.4854C11.1911 23.8636 11.4153 24.2044 11.7267 24.4679C14.1408 26.461 16.7743 28.2106 19.5832 29.6878C20.1227 29.9779 20.7589 30.0701 21.3674 29.9464C21.976 29.8227 22.5131 29.4919 22.8738 29.0188C22.9286 29.1812 23.0313 29.326 23.1701 29.4367C23.3486 29.5795 23.5759 29.658 23.8111 29.6582C23.8616 29.6585 23.912 29.6548 23.9618 29.6473C26.4784 29.2834 28.7726 28.0931 30.43 26.2913C32.0875 24.4896 32.999 22.195 33 19.8219C33 19.7143 33 19.6083 33 19.5007C33 19.393 33 19.2839 33 19.1763Z" fill="#AA313A"/>
<path d="M24.4287 14.0158C24.3795 14 24.3272 13.9959 24.2761 14.0041C24.225 14.0124 24.1766 14.0325 24.1348 14.0631C24.093 14.0936 24.059 14.1335 24.0356 14.1797C24.0121 14.2259 24 14.277 24.0001 14.3287V16.1695C23.9986 16.2346 24.0169 16.2986 24.0526 16.3531C24.0883 16.4076 24.1397 16.45 24.1999 16.4747C24.7036 16.6786 25.1349 17.0283 25.4386 17.479C25.7423 17.9298 25.9045 18.461 25.9045 19.0046C25.9045 19.5482 25.7423 20.0794 25.4386 20.5301C25.1349 20.9809 24.7036 21.3306 24.1999 21.5344C24.1397 21.5591 24.0883 21.6015 24.0526 21.656C24.0169 21.7105 23.9986 21.7746 24.0001 21.8397V23.6713C24 23.723 24.0121 23.7741 24.0356 23.8203C24.059 23.8665 24.093 23.9064 24.1348 23.9369C24.1766 23.9675 24.225 23.9876 24.2761 23.9959C24.3272 24.0041 24.3795 24 24.4287 23.9842C25.4699 23.631 26.3744 22.9603 27.0149 22.0663C27.6555 21.1724 28 20.1 28 19C28 17.9 27.6555 16.8276 27.0149 15.9337C26.3744 15.0397 25.4699 14.369 24.4287 14.0158Z" fill="white"/>
<path d="M24.3643 10.0059C24.3203 9.99724 24.2749 9.99813 24.2314 10.0085C24.1878 10.0188 24.1472 10.0384 24.1123 10.0658C24.0775 10.0932 24.0494 10.1277 24.03 10.1668C24.0105 10.206 24.0003 10.2488 24 10.2923V11.7053C24.0005 11.769 24.0234 11.8305 24.065 11.8797C24.1066 11.929 24.1644 11.9629 24.2287 11.9759C25.8772 12.3328 27.351 13.2231 28.4071 14.5001C29.4633 15.777 30.0388 17.3645 30.0388 19.0008C30.0388 20.6371 29.4633 22.2245 28.4071 23.5015C27.351 24.7785 25.8772 25.6688 24.2287 26.0257C24.1643 26.039 24.1065 26.0733 24.0649 26.1227C24.0233 26.1722 24.0004 26.234 24 26.2978V27.7077C24.0003 27.7512 24.0105 27.794 24.03 27.8332C24.0494 27.8723 24.0775 27.9068 24.1123 27.9342C24.1472 27.9616 24.1878 27.9812 24.2314 27.9915C24.2749 28.0019 24.3203 28.0028 24.3643 27.9941C26.5156 27.584 28.4532 26.463 29.8459 24.8225C31.2386 23.182 32 21.124 32 19C32 16.876 31.2386 14.818 29.8459 13.1775C28.4532 11.537 26.5156 10.416 24.3643 10.0059Z" fill="white"/>
<path d="M10.9942 16H10.2024C9.61831 16 9.05812 16.1939 8.64508 16.5389C8.23204 16.884 8 17.352 8 17.84V20.1584C7.99975 20.4002 8.05653 20.6396 8.1671 20.863C8.27767 21.0865 8.43986 21.2895 8.6444 21.4605C8.84894 21.6315 9.09182 21.7672 9.35916 21.8598C9.62649 21.9524 9.91304 22 10.2024 22H11L10.9942 16Z" fill="white"/>
<path d="M19.7654 10.2011C17.1905 11.6673 14.7359 13.3127 12.4221 15.1235C12.2894 15.2298 12.1829 15.362 12.11 15.5109C12.0371 15.6598 11.9996 15.8219 12 15.9858V22.0161C11.9993 22.1735 12.0337 22.3294 12.1012 22.4735C12.1686 22.6176 12.2675 22.7468 12.3915 22.8526C14.6648 24.7478 17.1452 26.411 19.7912 27.8144C20.015 27.936 20.2688 28 20.5273 28C20.7857 28 21.0395 27.9361 21.2634 27.8146C21.4872 27.6932 21.6731 27.5184 21.8024 27.3079C21.9317 27.0975 21.9998 26.8587 22 26.6156V11.3847C22.0002 11.1391 21.9309 10.8979 21.7992 10.6858C21.6676 10.4738 21.4783 10.2985 21.2508 10.178C21.0233 10.0575 20.7658 9.99613 20.5048 10.0002C20.2437 10.0042 19.9886 10.0736 19.7654 10.2011Z" fill="white"/>
</g>
<defs>
<linearGradient id="paint0_linear_1_11750" x1="20" y1="28.0636" x2="20" y2="-0.772874" gradientUnits="userSpaceOnUse">
<stop stop-color="#F44E54" stop-opacity="0"/>
<stop offset="1" stop-color="#8F2535"/>
</linearGradient>
<clipPath id="clip0_1_11750">
<rect width="40" height="40" fill="white"/>
</clipPath>
</defs>
</svg>
