<svg width="80" height="80" viewBox="0 0 80 80" fill="none" xmlns="http://www.w3.org/2000/svg">
<g clip-path="url(#clip0_1_13084)">
<path d="M69.4391 2.4248L10.5603 2.4248C6.06663 2.4248 2.42383 6.04926 2.42383 10.5203L2.42383 69.4798C2.42383 73.9508 6.06663 77.5752 10.5603 77.5752H69.4391C73.9327 77.5752 77.5755 73.9508 77.5755 69.4798V10.5203C77.5755 6.04926 73.9327 2.4248 69.4391 2.4248Z" fill="url(#paint0_radial_1_13084)"/>
<path d="M0 6.04272L0 73.9547C-1.45114e-07 75.5576 0.639782 77.0948 1.77867 78.2285C2.91757 79.3621 4.46233 79.9993 6.07331 80H73.9267C74.7245 80 75.5144 79.8436 76.2514 79.5398C76.9885 79.236 77.6581 78.7906 78.2221 78.2292C78.7861 77.6678 79.2334 77.0014 79.5384 76.268C79.8435 75.5345 80.0003 74.7485 80 73.9547V6.04272C80 4.44009 79.3601 2.9031 78.2212 1.76987C77.0822 0.636642 75.5374 0 73.9267 0L6.07331 0C4.46277 0.000680001 2.9184 0.637541 1.77958 1.77062C0.640767 2.90371 0.000683442 4.4403 0 6.04272ZM71.4793 75.2171H8.52326C7.53151 75.2171 6.58038 74.8252 5.8791 74.1274C5.17783 73.4297 4.78386 72.4833 4.78386 71.4966L4.78386 8.50343C4.78386 7.51667 5.17783 6.57033 5.8791 5.87259C6.58038 5.17485 7.53151 4.78286 8.52326 4.78286L71.4793 4.78286C72.4711 4.78286 73.4222 5.17485 74.1235 5.87259C74.8248 6.57033 75.2187 7.51667 75.2187 8.50343V71.4966C75.218 72.4831 74.8239 73.4291 74.1227 74.1267C73.4216 74.8243 72.4709 75.2165 71.4793 75.2171Z" fill="#FFBE33"/>
<path d="M76.7661 40.0791V71.4961C76.764 72.8906 76.2064 74.2273 75.2154 75.2133C74.2243 76.1994 72.8808 76.7542 71.4793 76.7562H8.52326C7.12155 76.7549 5.77764 76.2003 4.78648 75.2141C3.79532 74.2279 3.23788 72.8908 3.23652 71.4961L3.23652 40.0791H0L0 73.9491C-1.45114e-07 75.552 0.639782 77.0893 1.77867 78.2229C2.91757 79.3565 4.46233 79.9937 6.07331 79.9944H73.9267C74.7245 79.9944 75.5144 79.838 76.2514 79.5342C76.9885 79.2304 77.6581 78.785 78.2221 78.2236C78.7861 77.6623 79.2334 76.9958 79.5384 76.2624C79.8435 75.5289 80.0003 74.7429 80 73.9491V40.0791H76.7661Z" fill="#E88827"/>
<path d="M71.4791 4.78271C72.4709 4.78271 73.422 5.1747 74.1233 5.87244C74.8246 6.57018 75.2185 7.51653 75.2185 8.50328V71.4964C75.2179 72.483 74.8237 73.4289 74.1225 74.1265C73.4214 74.8241 72.4707 75.2163 71.4791 75.217H8.52307C7.53132 75.217 6.58019 74.825 5.87891 74.1273C5.17764 73.4295 4.78367 72.4832 4.78367 71.4964L4.78367 8.50328C4.78367 7.51653 5.17764 6.57018 5.87891 5.87244C6.58019 5.1747 7.53132 4.78271 8.52307 4.78271L71.4791 4.78271ZM71.4791 3.24316L8.52307 3.24316C7.12136 3.24452 5.77745 3.79915 4.78629 4.78532C3.79513 5.77149 3.23769 7.10863 3.23633 8.50328L3.23633 71.4964C3.23769 72.8911 3.79513 74.2282 4.78629 75.2144C5.77745 76.2005 7.12136 76.7552 8.52307 76.7565H71.4791C72.8806 76.7545 74.2242 76.1997 75.2152 75.2136C76.2062 74.2276 76.7638 72.8909 76.7659 71.4964V8.50328C76.7638 7.10884 76.2062 5.77209 75.2152 4.78607C74.2242 3.80004 72.8806 3.2452 71.4791 3.24316Z" fill="#FFD952"/>
<path d="M0 6.04272L0 73.9547C-1.45114e-07 75.5576 0.639782 77.0948 1.77867 78.2285C2.91757 79.3621 4.46233 79.9993 6.07331 80H73.9267C74.7245 80 75.5144 79.8436 76.2514 79.5398C76.9885 79.236 77.6581 78.7906 78.2221 78.2292C78.7861 77.6678 79.2334 77.0014 79.5384 76.268C79.8435 75.5345 80.0003 74.7485 80 73.9547V6.04272C80 4.44009 79.3601 2.9031 78.2212 1.76987C77.0822 0.636642 75.5374 0 73.9267 0L6.07331 0C4.46277 0.000680001 2.9184 0.637541 1.77958 1.77062C0.640767 2.90371 0.000683442 4.4403 0 6.04272ZM71.4793 75.2171H8.52326C7.53151 75.2171 6.58038 74.8252 5.8791 74.1274C5.17783 73.4297 4.78386 72.4833 4.78386 71.4966L4.78386 8.50343C4.78386 7.51668 5.17783 6.57033 5.8791 5.87259C6.58038 5.17485 7.53151 4.78286 8.52326 4.78286L71.4793 4.78286C72.4711 4.78286 73.4222 5.17485 74.1235 5.87259C74.8248 6.57033 75.2187 7.51668 75.2187 8.50343V71.4966C75.218 72.4831 74.8239 73.4291 74.1227 74.1267C73.4216 74.8243 72.4709 75.2165 71.4793 75.2171Z" stroke="#5C2929" stroke-width="4" stroke-linecap="round" stroke-linejoin="round"/>
<path d="M53.5404 67.9301C54.5217 67.9301 55.3173 67.1386 55.3173 66.1622C55.3173 65.1858 54.5217 64.3943 53.5404 64.3943C52.5591 64.3943 51.7635 65.1858 51.7635 66.1622C51.7635 67.1386 52.5591 67.9301 53.5404 67.9301Z" fill="#F24FC8"/>
<path d="M33.4487 15.488C34.4301 15.488 35.2256 14.6965 35.2256 13.7201C35.2256 12.7437 34.4301 11.9521 33.4487 11.9521C32.4674 11.9521 31.6719 12.7437 31.6719 13.7201C31.6719 14.6965 32.4674 15.488 33.4487 15.488Z" fill="#F24FC8"/>
<path d="M63.4228 67.7785C63.9142 67.7785 64.3125 67.3822 64.3125 66.8933C64.3125 66.4044 63.9142 66.0081 63.4228 66.0081C62.9314 66.0081 62.5331 66.4044 62.5331 66.8933C62.5331 67.3822 62.9314 67.7785 63.4228 67.7785Z" fill="#F24FC8"/>
<path d="M19.6329 15.4316C20.1243 15.4316 20.5226 15.0353 20.5226 14.5464C20.5226 14.0575 20.1243 13.6611 19.6329 13.6611C19.1415 13.6611 18.7432 14.0575 18.7432 14.5464C18.7432 15.0353 19.1415 15.4316 19.6329 15.4316Z" fill="#F24FC8"/>
<path d="M62.1746 16.6532C62.3498 16.6534 62.5238 16.6811 62.6904 16.7353C62.765 16.7595 62.8381 16.7877 62.9096 16.82L62.9792 16.8533C63.0308 16.8764 63.0798 16.9021 63.1314 16.9303L63.2087 16.9765L63.3635 17.0766L63.4305 17.1227C63.4976 17.1741 63.5672 17.2279 63.6342 17.2844L63.7245 17.3639L63.8431 17.4743C63.8792 17.5076 63.9128 17.5436 63.9489 17.5795C63.985 17.6154 64.0159 17.6488 64.0469 17.6847L64.1629 17.8104L64.23 17.89C64.3177 17.9952 64.4028 18.1029 64.4879 18.2184L64.5291 18.2723C64.5755 18.339 64.6245 18.4057 64.671 18.475L64.7174 18.5417C64.7655 18.6135 64.8145 18.6879 64.8644 18.7649C64.8639 18.7709 64.8639 18.7769 64.8644 18.7829C65.032 19.0395 65.1919 19.3294 65.3518 19.6322C65.4059 19.7348 65.4575 19.8375 65.5091 19.9427C65.7068 20.3481 65.8977 20.7834 66.0816 21.2487C66.1435 21.4027 66.2028 21.5592 66.2621 21.7209C66.2621 21.7209 66.2621 21.7414 66.2621 21.7516C66.3344 21.9467 66.404 22.1494 66.471 22.3546C66.471 22.3752 66.4865 22.3957 66.4917 22.4137C66.6361 22.8464 66.771 23.2938 66.8965 23.7556L66.9198 23.8454C66.9713 24.0404 67.0229 24.238 67.0719 24.4382C67.0719 24.4818 67.0951 24.5254 67.1054 24.5716C67.2628 25.2233 67.4046 25.9007 67.5258 26.5961C67.6212 26.6162 67.7145 26.6454 67.8043 26.6833C67.8507 26.7039 67.8946 26.7295 67.9384 26.7526C68.1608 26.7799 68.3722 26.8645 68.5517 26.9978C68.7312 27.1312 68.8727 27.3088 68.9623 27.5131C69.0518 27.7175 69.0863 27.9415 69.0623 28.1632C69.0384 28.3848 68.9568 28.5964 68.8256 28.7771C68.8 28.9531 68.7533 29.1254 68.6863 29.2903C68.6857 29.2988 68.6857 29.3074 68.6863 29.316C68.6708 29.3544 68.6528 29.3904 68.6373 29.4263L68.6218 29.4519C68.5685 29.5538 68.5064 29.6508 68.4362 29.7419L68.4078 29.7804C68.3949 29.7983 68.3794 29.8137 68.3639 29.8317C68.3148 29.8887 68.2623 29.9427 68.2066 29.9934C68.2066 30.1011 68.2195 30.2089 68.2195 30.3141V30.3911C68.2195 30.4398 68.2195 30.486 68.2195 30.5322C68.2195 30.5784 68.2195 30.6348 68.2195 30.6862C68.2207 30.6912 68.2207 30.6965 68.2195 30.7015C68.2195 30.7272 68.2195 30.7503 68.2195 30.7734L68.1886 30.9479C68.1757 31.0146 68.1602 31.0813 68.1422 31.1454C68.1241 31.2096 68.1112 31.2609 68.0932 31.3148C68.0943 31.3267 68.0943 31.3388 68.0932 31.3507L68.3098 34.5607L69.0112 45.0014C69.0827 45.134 69.1332 45.2768 69.1608 45.4247C69.1704 45.4739 69.1773 45.5236 69.1815 45.5736C69.1942 45.7837 69.1635 45.9941 69.0912 46.192L69.1943 47.7315L69.7101 55.2599C69.7163 55.5398 69.6197 55.8123 69.4383 56.0263C69.2569 56.2403 69.0033 56.3811 68.725 56.4222L66.2467 56.8405C66.0763 56.8696 65.9038 56.8842 65.7309 56.8841H65.6458C65.4503 56.8788 65.2559 56.8539 65.0655 56.8097L60.6556 55.7962L29.322 60.9306C29.3284 60.9971 29.3284 61.0641 29.322 61.1307C29.3233 61.1546 29.3233 61.1786 29.322 61.2025C29.3195 61.243 29.3144 61.2833 29.3065 61.3231L29.2833 61.4078C29.2833 61.4412 29.2601 61.472 29.2472 61.5028L29.2085 61.5874C29.209 61.5968 29.209 61.6063 29.2085 61.6157C29.1877 61.6522 29.1645 61.6874 29.1389 61.7209C29.1303 61.7334 29.1208 61.7454 29.1105 61.7568C29.0791 61.7954 29.0455 61.8322 29.01 61.8671L28.979 61.8953C28.9336 61.9347 28.8853 61.9707 28.8346 62.0031L28.7959 62.0262C28.7415 62.0582 28.6846 62.0856 28.6257 62.1083H28.5922C28.526 62.1329 28.4578 62.1517 28.3884 62.1648L26.0674 62.5625C26.0004 62.5625 25.9307 62.5804 25.8637 62.5856C25.8182 62.5881 25.7725 62.5881 25.727 62.5856H25.6625C25.5273 62.5829 25.3926 62.5674 25.2602 62.5394L25.2035 62.5266L22.7871 61.9518L22.3977 61.8594L22.1114 61.7927L16.3527 60.4225C16.2036 60.3937 16.0659 60.3231 15.9558 60.219C15.8457 60.1149 15.7677 59.9816 15.7312 59.8349L15.249 57.269L14.7976 54.8724L14.189 51.6394C13.8061 51.5912 13.4466 51.4294 13.1575 51.175C13.0833 51.1057 13.0144 51.031 12.9512 50.9517C12.9206 50.9167 12.8921 50.8798 12.8661 50.8414C12.8495 50.8169 12.8348 50.7911 12.8222 50.7644C12.8118 50.7479 12.8023 50.7307 12.7938 50.7131C12.7681 50.6669 12.7474 50.6207 12.7268 50.5745C12.7139 50.5437 12.6984 50.513 12.6881 50.4822C12.6881 50.4462 12.6701 50.4129 12.6597 50.3795C12.6503 50.3509 12.6425 50.3218 12.6365 50.2923C12.6288 50.2533 12.6237 50.2139 12.6211 50.1743C12.6198 50.1512 12.6198 50.1281 12.6211 50.105C12.6109 49.9314 12.6328 49.7575 12.6855 49.5918V49.561C12.7035 49.5095 12.7241 49.459 12.7474 49.4096C12.7725 49.3536 12.8018 49.2996 12.8351 49.248C12.8683 49.1948 12.9053 49.1442 12.946 49.0966C12.987 49.0462 13.031 48.9982 13.0775 48.9529C13.1259 48.9075 13.1767 48.8647 13.2297 48.8246C13.343 48.7396 13.4659 48.6682 13.5959 48.6116L12.2549 41.4963L11.2646 36.2439L11.213 36.1413C11.1872 36.0925 11.1614 36.0438 11.1382 35.995C11.115 35.9463 11.0737 35.8513 11.0453 35.7769C11.017 35.7025 11.0067 35.682 10.9886 35.6332C10.9706 35.5845 10.9396 35.4639 10.919 35.3766C10.919 35.3356 10.8932 35.292 10.8855 35.2483C10.8563 35.1156 10.8365 34.981 10.8261 34.8455C10.757 34.8009 10.6906 34.7521 10.6276 34.6992L10.5683 34.6428C10.5277 34.6071 10.4889 34.5695 10.4522 34.5299C10.429 34.5068 10.4109 34.4786 10.3877 34.4529L10.3 34.3451C10.2794 34.3144 10.2588 34.281 10.2407 34.2476C10.2227 34.2143 10.1943 34.1784 10.1737 34.1424C10.153 34.1065 10.135 34.0655 10.1169 34.027L10.0705 33.9269C10.0525 33.8833 10.0396 33.8397 10.0241 33.7935C10.0086 33.7473 10.0009 33.7345 9.99316 33.7062C9.98542 33.678 9.96737 33.6036 9.95447 33.5523L9.939 33.4779C9.939 33.4214 9.92095 33.3624 9.91321 33.3034C9.91321 33.2854 9.91321 33.2675 9.91321 33.2469C9.91321 33.1854 9.91321 33.1212 9.91321 33.0571V33.0186C9.91321 32.9493 9.91321 32.8826 9.92868 32.8159V32.7928C9.92868 32.7209 9.9519 32.6491 9.96737 32.5798C10.0461 32.2128 10.248 31.8834 10.5399 31.6458C10.5399 31.6022 10.5399 31.5611 10.5399 31.5201C10.5399 31.4405 10.5399 31.3584 10.5218 31.2789L10.4986 30.9684C10.4986 30.8914 10.4986 30.8144 10.4986 30.7375C10.4986 30.6605 10.4986 30.5322 10.4831 30.4296C10.4677 30.3269 10.4831 30.2782 10.4831 30.2012C10.4831 30.096 10.4831 29.9934 10.4831 29.8933C10.4831 29.7932 10.4831 29.7496 10.4831 29.6777C10.4831 29.5469 10.4831 29.4212 10.4831 29.2852V29.2415V28.9644C10.4831 28.8797 10.4831 28.7925 10.4831 28.7078C10.4831 28.6232 10.4831 28.541 10.4831 28.4512C10.4831 28.3614 10.4831 28.305 10.496 28.2331C10.5089 28.1613 10.496 28.0638 10.5167 27.9765C10.5373 27.8893 10.5296 27.8431 10.5347 27.779C10.5347 27.6943 10.5528 27.6096 10.5631 27.5224L10.5863 27.3428C10.5863 27.2555 10.6095 27.1709 10.6198 27.0862C10.6301 27.0015 10.6379 26.981 10.6456 26.9271C10.6611 26.8399 10.674 26.7552 10.6895 26.6705C10.7049 26.5858 10.7075 26.5807 10.7178 26.5345C10.7359 26.4473 10.7514 26.36 10.772 26.2779L10.7952 26.183L10.8648 25.9007C10.9741 25.4837 11.1235 25.0781 11.311 24.6896V24.6665C11.3497 24.587 11.3909 24.5126 11.4322 24.4382L11.4528 24.4022C11.4941 24.333 11.5353 24.2637 11.5792 24.1995L11.6024 24.1636C11.6488 24.0969 11.6927 24.0353 11.7417 23.9737L11.7597 23.9506C11.8087 23.8891 11.8603 23.83 11.9119 23.7736C12.1457 23.5169 12.4386 23.3206 12.7655 23.2014C12.8687 23.1659 12.9748 23.1393 13.0827 23.1218H13.1523C13.2039 23.1218 13.258 23.1218 13.3096 23.109L17.7582 22.7241C17.8178 22.7129 17.8782 22.7069 17.9387 22.7062H17.9955H18.1244C18.1894 22.712 18.2539 22.7214 18.3178 22.7344C18.3852 22.7479 18.4515 22.7659 18.5164 22.7883C18.6108 22.8188 18.703 22.8557 18.7924 22.8986L18.88 22.9448C18.9445 22.9782 19.0116 23.0141 19.076 23.0551L19.174 23.1167C19.2411 23.1603 19.3081 23.2091 19.3778 23.2604L19.4577 23.322C19.5531 23.399 19.6486 23.4785 19.7466 23.5786C19.8428 23.6675 19.9382 23.7625 20.0328 23.8634L20.1102 23.9481C20.1798 24.025 20.252 24.1046 20.3216 24.1893L20.4093 24.2919L20.6311 24.5741L20.6956 24.6563C20.791 24.7846 20.889 24.9129 20.9844 25.0617L49.3626 20.7843L54.3167 20.0453C54.3708 19.9068 54.425 19.7887 54.4817 19.645L54.523 19.5527C54.5797 19.4269 54.6365 19.2961 54.6958 19.1883C54.7551 19.0677 54.8196 18.9548 54.884 18.847L54.9305 18.7316C54.9949 18.6264 55.0594 18.5263 55.129 18.4314C55.1961 18.339 55.2631 18.2517 55.3328 18.1748L55.454 18.0311C55.5313 17.9464 55.6087 17.8694 55.6887 17.7976L55.7222 17.7694C55.797 17.7026 55.8743 17.6385 55.9517 17.582L55.9698 17.5666L56.0935 17.4871L56.1477 17.4512L56.1735 17.4358L56.3437 17.3434H56.3695C56.4534 17.3058 56.5395 17.2733 56.6274 17.2459H56.6635C56.7481 17.2203 56.8342 17.1997 56.9214 17.1843H56.9549H56.9962C57.0477 17.1843 57.1019 17.1843 57.1586 17.1689L61.4422 16.7866L61.8496 16.7507H61.8677C61.953 16.7378 62.0393 16.7318 62.1256 16.7327M62.1256 14.68C62.0024 14.6796 61.8793 14.6856 61.7568 14.698H61.6743L61.2668 14.7339L56.9858 15.1162H56.9626C56.9059 15.1162 56.8517 15.1162 56.795 15.1316C56.6873 15.1406 56.5803 15.1577 56.4752 15.1829C56.3411 15.2111 56.1967 15.2471 56.0549 15.2907L55.9852 15.3138C55.8354 15.3627 55.6882 15.4192 55.5442 15.4831H55.5313L55.4256 15.5319C55.3534 15.5678 55.2554 15.6166 55.1445 15.6833L55.0594 15.7372L54.9898 15.7808L54.8325 15.8834L54.7603 15.9347L54.7061 15.9783C54.5926 16.0605 54.4817 16.1528 54.3657 16.2555L54.3193 16.2965C54.1955 16.4094 54.0846 16.5172 53.9814 16.6275L53.9144 16.6994L53.8705 16.7507C53.8241 16.8071 53.7725 16.8636 53.7261 16.9226C53.6255 17.0432 53.5327 17.1792 53.4476 17.287L53.4347 17.3024L53.4115 17.3357C53.3315 17.4537 53.2464 17.5923 53.1536 17.7257L53.0891 17.8335C53.004 17.9746 52.9344 18.0901 52.8699 18.2261L49.0325 18.7983L21.8845 22.7934L21.6266 22.506L21.6008 22.4804L21.5234 22.3957C21.3919 22.2597 21.2655 22.1391 21.1572 22.0339L21.1469 22.0185C21.0205 21.9005 20.889 21.7876 20.7446 21.6721L20.6311 21.5874C20.5254 21.5079 20.4222 21.436 20.3191 21.3668L20.1643 21.2693C20.0567 21.2012 19.9457 21.1387 19.8317 21.0819L19.6795 21.005C19.5126 20.9239 19.3403 20.8545 19.1637 20.7971C18.8883 20.7043 18.6025 20.6457 18.3127 20.6226C18.2095 20.6226 18.109 20.6226 18.0084 20.6226H17.8717C17.7943 20.6226 17.717 20.6226 17.6396 20.6406H17.5932L13.1523 21.0075L12.9357 21.0229C12.827 21.0327 12.7192 21.0508 12.6133 21.0768C12.4495 21.1109 12.2877 21.1537 12.1285 21.2051H12.1053C11.4728 21.4302 10.9041 21.8034 10.447 22.2931L10.4058 22.3367C10.3233 22.4239 10.2459 22.5163 10.1634 22.6189L10.1324 22.6548C10.0602 22.7498 9.99058 22.8447 9.92353 22.9422L9.90032 22.9756L9.88226 23.0038C9.81779 23.1039 9.7559 23.1988 9.69916 23.2963L9.66822 23.3528C9.60374 23.4682 9.54701 23.5734 9.49285 23.6786L9.46706 23.7325V23.7146C9.22437 24.2178 9.03009 24.7427 8.88681 25.2823C8.85586 25.3952 8.8275 25.5107 8.79913 25.6287V25.6467C8.79913 25.6775 8.78623 25.7083 8.7785 25.7391C8.75271 25.8468 8.73208 25.952 8.71144 26.0572V26.0983L8.68823 26.2163C8.67018 26.3061 8.65471 26.3985 8.63924 26.4909V26.5371C8.63924 26.591 8.62376 26.6448 8.61345 26.6987L8.57476 26.981C8.57476 26.981 8.57476 27.0041 8.57476 27.0169L8.55155 27.2042C8.55155 27.294 8.53092 27.3864 8.52319 27.4788V27.4993C8.52319 27.5737 8.52319 27.6481 8.50255 27.72V27.7431C8.50255 27.8303 8.48966 27.9175 8.48192 27.9996C8.47419 28.0818 8.48192 28.1279 8.48192 28.1921V28.2434V28.2973C8.48192 28.3691 8.48192 28.4435 8.48192 28.518V28.5359C8.48192 28.6026 8.48192 28.6745 8.48192 28.7438V28.849V29.1056V29.1569C8.48192 29.3083 8.48192 29.4519 8.48192 29.5956C8.48192 29.6521 8.48192 29.7085 8.48192 29.765V29.8522V30.1524V30.1678V30.35V30.4167C8.48192 30.5271 8.48192 30.6374 8.4974 30.7503V30.8863C8.28308 31.2365 8.12637 31.6185 8.0332 32.0179C8.03195 32.0281 8.03195 32.0384 8.0332 32.0487C8.00079 32.184 7.97583 32.3211 7.95841 32.4592C7.95947 32.4797 7.95947 32.5003 7.95841 32.5208C7.94293 32.6542 7.9352 32.7774 7.93262 32.9005V32.9852C7.93262 33.1058 7.93262 33.2213 7.94809 33.3342C7.94809 33.3701 7.94809 33.4111 7.94809 33.4522C7.94809 33.5394 7.9713 33.6446 7.99451 33.7652C7.99451 33.8166 8.01514 33.8679 8.02804 33.9192C8.04093 33.9705 8.06672 34.0911 8.09767 34.1989C8.11572 34.2553 8.13119 34.3067 8.14924 34.358V34.3759C8.17761 34.458 8.20598 34.5376 8.23951 34.6171L8.32203 34.7993V34.8121C8.35556 34.884 8.38908 34.9533 8.42519 35.02C8.46129 35.0867 8.50513 35.156 8.5464 35.2201V35.2329C8.59024 35.3022 8.62892 35.3638 8.67276 35.4254C8.7166 35.487 8.79913 35.5922 8.83781 35.6358C8.88423 35.6922 8.92549 35.7436 8.97191 35.7949C9.00028 35.9052 9.03381 36.0309 9.08023 36.1669C9.10344 36.2362 9.13181 36.3081 9.16017 36.3799V36.403C9.21175 36.5364 9.26075 36.6596 9.31233 36.7571C9.31816 36.7713 9.32506 36.785 9.33296 36.7982L10.2665 41.7581L11.3832 47.6802L11.3703 47.6956C11.2892 47.7951 11.2135 47.8987 11.1433 48.0061L11.1021 48.0702V48.083C11.0324 48.1977 10.9687 48.3159 10.9112 48.4371L10.8932 48.4756C10.8416 48.5911 10.7978 48.7014 10.7591 48.8143L10.7307 48.9041V48.9298C10.6149 49.3208 10.5687 49.7289 10.594 50.1358C10.594 50.1973 10.594 50.2589 10.6121 50.3179C10.6301 50.377 10.6301 50.4719 10.6508 50.5745L10.6662 50.6438C10.6662 50.69 10.6869 50.7362 10.6998 50.7824C10.7127 50.8286 10.7359 50.9261 10.772 51.039C10.7959 51.1113 10.8234 51.1824 10.8545 51.2519V51.275C10.8989 51.384 10.9497 51.4902 11.0067 51.5932C11.0143 51.6091 11.0229 51.6246 11.0325 51.6394V51.6651V51.683C11.0557 51.7215 11.0918 51.7882 11.1459 51.8703C11.2001 51.9524 11.28 52.0551 11.3187 52.1038V52.1192C11.452 52.2855 11.5977 52.4416 11.7545 52.5862C11.9411 52.7966 12.1504 52.986 12.3786 53.1507L12.7758 55.2599L13.2297 57.6564L13.7094 60.2224C13.8149 60.7601 14.0743 61.256 14.4563 61.6507C14.8383 62.0453 15.3266 62.3218 15.8627 62.447L21.6214 63.8172L21.9077 63.8839L22.2971 63.9763L24.7109 64.5511C24.7602 64.564 24.8101 64.5743 24.8605 64.5818C25.1067 64.6328 25.357 64.6612 25.6084 64.6665H25.7167C25.7838 64.6665 25.8869 64.6665 26.0055 64.6665C26.1344 64.6587 26.2627 64.6433 26.3898 64.6203H26.4078L28.7289 64.2226C28.9041 64.1909 29.0766 64.1455 29.2446 64.0866L29.3529 64.0481C29.5124 63.9857 29.6667 63.9111 29.8146 63.8249L29.9126 63.7659C30.0557 63.6762 30.1911 63.5749 30.3175 63.4631L30.4206 63.3656C30.5114 63.2796 30.5975 63.1888 30.6785 63.0936L30.7739 62.973V62.9602C30.8152 62.9037 30.8564 62.8422 30.8951 62.7831L60.5525 57.9618L64.5652 58.8855C64.8886 58.9597 65.2186 59.0018 65.5504 59.0112H65.6948C65.98 59.0104 66.2646 58.9864 66.5458 58.9394L69.0241 58.5212C69.8167 58.4026 70.5355 57.9919 71.038 57.3708C71.5405 56.7496 71.79 55.9632 71.7371 55.1675L71.2214 47.6366L71.1414 46.4306C71.2087 46.1111 71.2313 45.7838 71.2085 45.4581C71.1996 45.3341 71.1833 45.2107 71.1595 45.0886V45.045C71.1261 44.8752 71.0804 44.7079 71.0228 44.5446L70.3445 34.4478L70.146 31.5817C70.1614 31.5098 70.1769 31.4405 70.1924 31.3738C70.2079 31.2917 70.2207 31.2122 70.2336 31.1172C70.2336 31.0762 70.2491 31.0351 70.2543 30.9941C70.2594 30.953 70.2543 30.9453 70.2543 30.9171C70.2543 30.8889 70.2543 30.7939 70.2672 30.7323C70.3288 30.6395 70.3856 30.5436 70.4374 30.445L70.4915 30.3449C70.5242 30.2748 70.5552 30.2055 70.5844 30.137L70.6076 30.0832C70.6772 29.9117 70.7358 29.736 70.783 29.5572C71.0125 29.1249 71.1417 28.6469 71.1609 28.1584C71.1801 27.6699 71.0888 27.1834 70.8938 26.7346C70.5845 26.0231 70.038 25.4395 69.3465 25.0822C69.2769 24.7563 69.2047 24.433 69.1273 24.1123V24.0943L69.0989 23.9814V23.9558C69.0448 23.7428 68.9906 23.5298 68.9365 23.322V23.3066V23.2861V23.2501C68.9373 23.2339 68.9373 23.2176 68.9365 23.2014C68.8049 22.7164 68.6605 22.2366 68.5058 21.7747L68.4929 21.7286V21.7132C68.4155 21.4839 68.3382 21.2633 68.2608 21.0512C68.2608 21.0512 68.2608 21.0512 68.2608 21.0358C68.2618 21.0298 68.2618 21.0237 68.2608 21.0178C68.1989 20.8484 68.137 20.6817 68.0725 20.5046V20.4867C67.8714 19.9735 67.6573 19.4885 67.4381 19.0369V19.0215C67.3788 18.9035 67.3221 18.788 67.2628 18.6751C67.0771 18.321 66.8862 17.9875 66.6902 17.6795L66.6722 17.6513C66.6155 17.5615 66.5587 17.4743 66.4994 17.3947L66.471 17.3537L66.4504 17.3203C66.3911 17.2356 66.3318 17.151 66.2725 17.0637L66.2286 17.0047C66.1177 16.8585 66.0043 16.7173 65.8934 16.5839L65.8779 16.5659L65.8057 16.4787L65.6613 16.3222L65.6484 16.3068L65.5091 16.1605C65.4601 16.1092 65.4085 16.0605 65.3595 16.0117C65.3105 15.963 65.2461 15.9039 65.1867 15.8526L65.1687 15.8372C65.1302 15.7993 65.0897 15.7633 65.0475 15.7295C64.9521 15.6473 64.8438 15.5627 64.7354 15.4729C64.6993 15.4446 64.6606 15.419 64.6245 15.3959C64.5369 15.3343 64.4518 15.2804 64.3666 15.2291L64.23 15.1496C64.1423 15.1008 64.0494 15.0521 63.9566 15.0059L63.8199 14.9417C63.6894 14.8843 63.556 14.8338 63.4202 14.7903H63.3893C63.0225 14.6733 62.6397 14.6136 62.2545 14.6133L62.1256 14.68Z" fill="#FF94D6"/>
<path d="M56.4211 19.7263L17.3508 25.5458C20.1721 26.1924 23.2307 31.704 24.1643 37.6851L27.6948 60.3165L63.6266 55.4233L62.185 32.1992C61.8033 26.0539 59.2218 20.3935 56.4211 19.7263Z" fill="#9E5149"/>
<path d="M27.6947 60.3165L63.6265 55.4233L62.9766 44.9287C51.8409 49.6295 39.8619 50.9175 27.1093 49.8527L27.0861 50.1093C27.0861 50.1093 27.2485 55.082 27.4136 58.5178L27.6947 60.3165Z" fill="#783F34"/>
<path d="M48.5633 49.2651C48.588 49.8133 48.3948 50.3491 48.0257 50.7567C47.6565 51.1644 47.1409 51.4111 46.5904 51.4436C46.3202 51.4716 46.0471 51.4463 45.7868 51.369C45.5265 51.2918 45.2841 51.1641 45.0735 50.9934C44.8628 50.8227 44.6882 50.6123 44.5595 50.3743C44.4308 50.1363 44.3506 49.8753 44.3236 49.6064C44.2933 49.0552 44.4835 48.5144 44.8527 48.1024C45.2219 47.6903 45.74 47.4405 46.2938 47.4074C46.5658 47.3791 46.8407 47.4049 47.1026 47.4832C47.3645 47.5616 47.6081 47.6909 47.8192 47.8638C48.0304 48.0366 48.2049 48.2495 48.3327 48.4901C48.4604 48.7307 48.5388 48.9941 48.5633 49.2651Z" fill="#9E5149"/>
<path d="M28.7676 58.8386L63.2242 53.948L63.5621 55.0154L29.0487 60.0626L28.7676 58.8386Z" fill="#9E5752"/>
<path d="M62.4382 35.453C60.1352 34.1444 54.5596 35.1194 52.0684 35.5479C29.1162 39.4968 29.2503 39.3532 27.7571 40.0408C24.7579 41.4315 24.6186 44.39 26.3645 45.5113C28.0099 44.6133 37.5492 43.6511 39.3441 43.4945C42.7405 47.3126 51.2277 47.7026 52.5507 41.5085C63.3666 40.2846 62.7476 40.4411 62.4382 35.453Z" fill="#783A30"/>
<path d="M19.3417 26.7496L56.4908 21.2354C59.2811 21.8974 61.8523 27.5193 62.2314 33.6237L63.5879 55.4339H63.6266L62.185 32.2098C61.8033 26.0516 59.2218 20.4066 56.4211 19.7344L17.3508 25.5462C18.1109 25.7625 18.7985 26.1781 19.3417 26.7496Z" fill="#CF815F"/>
<path d="M56.4211 19.7263L17.3508 25.5458C20.1721 26.1924 23.2307 31.704 24.1643 37.6851L27.6948 60.3165L63.6266 55.4233L62.185 32.1992C61.8033 26.0539 59.2218 20.3935 56.4211 19.7263Z" stroke="#5C2929" stroke-width="4" stroke-linecap="round" stroke-linejoin="round"/>
<path d="M68.0415 30.8805C67.6882 23.9834 65.295 17.5557 62.6903 16.7347C62.4411 16.6526 62.1758 16.6315 61.9167 16.6731L57.2256 17.0913C57.1689 17.0913 57.1173 17.0913 57.0632 17.1067H57.0219C55.8975 17.2812 54.9588 18.3486 54.3244 20.0421L56.4288 19.7265C59.1134 20.3654 61.5995 25.6024 62.1333 31.4579L51.6088 32.9256C50.8873 31.937 49.9204 31.1515 48.8026 30.646C47.6847 30.1405 46.4542 29.9322 45.2312 30.0415C43.8645 30.1541 42.5577 30.6496 41.4624 31.4707C40.367 32.2917 39.5277 33.4046 39.0418 34.6806L25.1313 36.6205C24.0223 29.8516 21.0695 23.5651 18.5138 22.7415C18.2702 22.6585 18.01 22.6356 17.7556 22.6747L13.307 23.0545C13.2544 23.0561 13.2019 23.0604 13.1497 23.0673H13.1136C10.741 23.4342 9.78423 28.1991 10.9499 34.4087L15.7312 59.8343C15.7632 59.9824 15.8374 60.1182 15.9448 60.2256C16.0523 60.3329 16.1885 60.4073 16.3372 60.4398L25.1854 62.5439C25.4691 62.613 25.764 62.6235 26.0519 62.5747L28.3729 62.1744C28.5173 62.1552 28.6564 62.1077 28.7822 62.0345C28.9079 61.9613 29.0178 61.864 29.1054 61.7482C29.193 61.6324 29.2566 61.5004 29.2924 61.3599C29.3283 61.2194 29.3357 61.0733 29.3142 60.9299L26.4207 44.1335L40.6898 42.0807C41.4208 42.7869 42.2958 43.3285 43.2555 43.6689C44.2153 44.0093 45.2373 44.1406 46.2524 44.0539C47.4252 43.9592 48.5573 43.5828 49.5517 42.9571C50.5462 42.3315 51.3733 41.4752 51.9621 40.4616L62.6026 38.9401L63.6342 55.4055L60.6298 55.8161L65.0526 56.8424C65.4368 56.9306 65.8348 56.9419 66.2234 56.8758L68.7017 56.4575C68.98 56.4164 69.2337 56.2756 69.415 56.0616C69.5964 55.8475 69.6931 55.575 69.6869 55.2952L68.0415 30.8805Z" fill="#FFBE33"/>
<path d="M69.6789 55.3052C69.6851 55.585 69.5885 55.8576 69.4071 56.0716C69.2257 56.2856 68.9721 56.4264 68.6938 56.4675L66.2155 56.8858C65.8268 56.9519 65.4288 56.9406 65.0446 56.8524L60.6218 55.8261L63.6263 55.4155L62.5947 38.9475L51.9542 40.4716C51.3653 41.4852 50.5382 42.3415 49.5438 42.9671C48.5493 43.5928 47.4172 43.9692 46.2445 44.0639C45.2296 44.1505 44.2078 44.0193 43.2481 43.6794C42.2885 43.3394 41.4134 42.7986 40.6818 42.0933L26.4127 44.146L29.314 60.9348C29.3359 61.0781 29.3288 61.2244 29.2933 61.365C29.2578 61.5057 29.1945 61.6378 29.1071 61.7539C29.0198 61.87 28.9101 61.9676 28.7844 62.041C28.6588 62.1145 28.5197 62.1624 28.3753 62.1818L26.0543 62.5795C25.7664 62.6283 25.4715 62.6178 25.1878 62.5487L22.0931 61.8149C20.4942 56.5189 21.6186 40.9874 21.6186 40.9874L40.3775 38.4215C40.6858 39.6741 41.4354 40.7752 42.4901 41.5248C43.5449 42.2743 44.8349 42.6226 46.1258 42.5064C47.5303 42.3971 48.8405 41.7604 49.7906 40.7255C50.7408 39.6906 51.2598 38.3348 51.2424 36.9332L68.2786 34.5957L69.6789 55.3052Z" fill="#FFD952"/>
<path d="M68.8074 42.3037L62.8605 43.0914L63.3221 50.4992L69.3051 49.7089L68.8074 42.3037Z" fill="#FFBE33"/>
<path d="M27.058 47.833L20.5618 48.6926L19.9454 48.5181L21.0079 56.0901L28.3191 55.1253L27.058 47.833Z" fill="#FFBE33"/>
<path d="M21.8014 26.3545L16.9376 27.0678L16.9557 32.1406L23.8259 31.2066C23.3044 29.53 22.6267 27.9056 21.8014 26.3545Z" fill="#FFD952"/>
<path d="M65.5302 19.9521L58.3634 21.0016C59.4259 22.1563 60.3724 23.9729 61.0635 26.1334L67.3096 25.2892C66.9274 23.4473 66.3302 21.6561 65.5302 19.9521Z" fill="#FFD952"/>
<path d="M13.9853 23.124C16.9666 23.8938 20.3114 30.2393 21.4332 37.0698L25.5594 62.1567C25.5657 62.2132 25.5578 62.2704 25.5364 62.3232C25.5151 62.3759 25.4809 62.4226 25.4369 62.4589C25.3929 62.4953 25.3406 62.5202 25.2846 62.5315C25.2286 62.5428 25.1706 62.5401 25.1159 62.5236L16.3605 60.4401C16.2075 60.4116 16.0663 60.339 15.9545 60.2314C15.8426 60.1237 15.765 59.9857 15.7313 59.8346L10.95 34.4141C9.64764 27.4964 10.9912 22.344 13.9853 23.124Z" fill="#E88827"/>
<path d="M62.1254 31.4582C61.5916 25.6028 59.1055 20.3658 56.4209 19.7269L54.3165 20.0425C54.5223 19.4724 54.8005 18.9309 55.1444 18.4311V18.4157C55.1934 18.349 55.2398 18.2848 55.2888 18.2232L55.3171 18.1848C55.3661 18.1232 55.4177 18.0667 55.4667 18.0103C55.6226 17.8379 55.7954 17.6815 55.9825 17.5433C56.0367 17.5048 56.096 17.4689 56.1527 17.4329C56.1629 17.4246 56.1742 17.4177 56.1862 17.4124C56.243 17.3791 56.2997 17.3508 56.359 17.32H56.3796C56.5555 17.2362 56.742 17.1766 56.9341 17.143H57.0141C57.0619 17.1361 57.1101 17.1318 57.1585 17.1302C57.4002 17.1141 57.643 17.1357 57.878 17.1943C60.7483 17.9179 63.3968 23.6963 64.0029 30.1676C64.0242 30.4516 63.9365 30.7332 63.7576 30.9555C63.5786 31.1778 63.3216 31.3245 63.0384 31.3658L62.1254 31.4582Z" fill="#E88827"/>
<path d="M65.5788 56.3038C65.5781 56.3832 65.5595 56.4614 65.5245 56.5327C65.4894 56.604 65.4387 56.6666 65.3761 56.7158C65.3135 56.765 65.2406 56.7997 65.1628 56.8172C65.0849 56.8347 65.0042 56.8346 64.9264 56.817L60.6222 55.8291L63.6266 55.4186L62.595 38.9531L63.8226 38.7325C63.9123 38.7122 64.0054 38.7116 64.0954 38.7307C64.1853 38.7498 64.2701 38.7881 64.3437 38.843C64.4173 38.898 64.478 38.9682 64.5216 39.0487C64.5652 39.1293 64.5907 39.2184 64.5963 39.3098L65.5788 56.3038Z" fill="#E88827"/>
<path d="M17.4823 58.9158L12.9434 34.1856C11.9119 28.5252 12.9434 25.4871 13.5598 25.1484H13.5907C15.1768 25.559 18.3333 30.6805 19.45 37.2878L23.339 60.3168L17.4823 58.9158Z" fill="#CC5B22"/>
<path d="M29.3223 60.9303L26.421 44.1338L40.6901 42.0811C41.4211 42.7872 42.2961 43.3288 43.2559 43.6693C44.2156 44.0097 45.2376 44.141 46.2528 44.0543C47.4255 43.9595 48.5576 43.5832 49.5521 42.9575C50.5465 42.3319 51.3736 41.4755 51.9624 40.462L62.603 38.9404L63.5752 54.5489C63.5795 54.7897 63.4937 55.0236 63.3346 55.2052C63.1755 55.3867 62.9543 55.5031 62.7139 55.5316L60.8596 55.7882" stroke="#783A30" stroke-width="4" stroke-linecap="round" stroke-linejoin="round"/>
<path d="M54.3167 20.0419L56.421 19.7263C59.1057 20.3652 61.5917 25.6023 62.1256 31.4577L51.6011 32.9254C50.8796 31.9368 49.9127 31.1513 48.7948 30.6458C47.677 30.1403 46.4464 29.932 45.2235 30.0413C43.8567 30.1539 42.55 30.6495 41.4546 31.4705C40.3593 32.2915 39.52 33.4045 39.0341 34.6805L25.1235 36.6203C24.3834 32.0684 22.8025 27.732 21.0618 25.1199" stroke="#783A30" stroke-width="4" stroke-linecap="round" stroke-linejoin="round"/>
<path d="M50.1232 36.8152C50.1867 37.9608 49.7969 39.0856 49.0372 39.9488C48.2776 40.812 47.2086 41.3451 46.0589 41.4338C45.4951 41.485 44.9267 41.4251 44.3862 41.2574C43.8457 41.0898 43.3437 40.8178 42.909 40.457C42.4743 40.0962 42.1153 39.6537 41.8526 39.1547C41.5899 38.6557 41.4287 38.1101 41.3782 37.5491C41.2892 36.3907 41.6659 35.2445 42.4255 34.3622C43.1851 33.4799 44.2655 32.9336 45.4296 32.8432C46.0015 32.7894 46.5783 32.8503 47.1261 33.022C47.674 33.1938 48.1816 33.4731 48.6191 33.8434C49.0567 34.2136 49.4152 34.6674 49.6735 35.1778C49.9318 35.6882 50.0848 36.245 50.1232 36.8152Z" fill="#E88827"/>
<path d="M67.7529 44.1698C67.5185 43.8127 67.191 43.5257 66.8053 43.3395C66.4197 43.1533 65.9904 43.0749 65.5634 43.1127C65.1206 43.1536 64.695 43.3038 64.3252 43.5498C63.9555 43.7958 63.6533 44.1297 63.4462 44.5213C63.0583 43.8827 62.5212 43.3468 61.8804 42.959C61.2397 42.5713 60.5144 42.3432 59.7661 42.2941C58.9903 42.2483 58.214 42.3754 57.4939 42.6662C56.7738 42.9569 56.128 43.404 55.6037 43.9748C55.227 43.4745 54.7349 43.0716 54.169 42.8001C53.603 42.5286 52.9798 42.3964 52.3517 42.4147C51.7149 42.4354 51.0913 42.6012 50.5288 42.8992C49.9664 43.1972 49.4802 43.6196 49.1075 44.1339C48.9388 43.8489 48.7215 43.5954 48.4653 43.3846C49.7648 42.7323 50.7681 41.6148 51.2738 40.2568C51.9323 40.6587 52.682 40.889 53.4536 40.9267C54.2252 40.9644 54.9939 40.8081 55.6888 40.4723C56.387 40.1268 56.9872 39.6128 57.4345 38.9773C57.8818 38.3417 58.1621 37.6048 58.2497 36.8339C58.7794 37.1002 59.3673 37.2315 59.9606 37.2158C60.5539 37.2001 61.1339 37.038 61.6487 36.7441C62.1694 36.4428 62.6086 36.02 62.9285 35.5122C63.2484 35.0044 63.4393 34.4268 63.4848 33.8292C64.0761 33.9724 64.6931 33.9747 65.2855 33.8361C65.8779 33.6974 66.429 33.4217 66.8942 33.0312C67.8432 32.2358 68.3383 31.194 68.23 30.0111C69.2616 29.0951 69.0398 27.2143 67.838 26.7011C66.6363 26.1879 64.9754 27.2733 64.9213 28.6076C62.884 28.351 60.7409 30.2549 60.777 32.2871C58.1388 31.6841 55.1034 33.5854 54.4613 36.2001C51.5806 35.0044 47.7561 36.6645 46.6782 39.5614C44.4552 39.0021 42.0207 39.5101 40.1045 40.7392C38.0027 39.8386 35.5218 39.7359 33.4381 40.6494C31.8727 37.9757 27.8522 36.9827 25.2501 38.6223C24.1876 36.1642 20.8943 34.8068 18.4418 35.8255C18.1272 33.8343 15.7236 32.3204 13.7998 32.9132C13.5213 31.6302 11.7367 30.8348 10.6613 31.5353C9.58587 32.2358 9.70708 34.1012 10.8521 34.8248C10.9045 35.3913 11.0968 35.9363 11.4117 36.4112C11.7266 36.8861 12.1545 37.2763 12.6573 37.5472C13.1695 37.853 13.7476 38.033 14.3436 38.0722C14.9396 38.1115 15.5365 38.0089 16.0847 37.773C16.2309 38.3486 16.5141 38.8809 16.9105 39.3247C17.3068 39.7686 17.8046 40.1112 18.3619 40.3235C18.9093 40.5272 19.4993 40.5914 20.0781 40.5103C20.6569 40.4292 21.2061 40.2053 21.6757 39.8591C21.8933 40.5994 22.292 41.2746 22.8361 41.824C23.3803 42.3734 24.0528 42.7801 24.7936 43.0075C25.5251 43.2253 26.3001 43.2548 27.0462 43.0932C27.7922 42.9317 28.4848 42.5843 29.0591 42.0837C29.7888 43.3361 30.9639 44.2709 32.3524 44.7035C32.1371 44.9516 31.9677 45.2357 31.8521 45.5426C31.4002 45.0949 30.8511 44.7565 30.2471 44.5532C29.643 44.3499 29.0002 44.2872 28.368 44.37C27.7539 44.453 27.1692 44.6832 26.6643 45.0408C26.1594 45.3984 25.7493 45.8726 25.4693 46.4227C24.8671 45.9503 24.167 45.6168 23.4195 45.4464C22.6721 45.276 21.8959 45.273 21.1471 45.4374C20.43 45.6048 19.765 45.9442 19.2099 46.4258C18.6548 46.9075 18.2264 47.5168 17.9621 48.2009C17.6954 47.8555 17.347 47.581 16.9479 47.402C16.5488 47.2229 16.1114 47.1448 15.6746 47.1745C15.2564 47.2049 14.8547 47.3497 14.5138 47.5928C14.173 47.836 13.9063 48.168 13.7431 48.5524C12.5619 48.9809 12.2189 50.3331 13.1705 51.1978C14.1221 52.0626 15.9042 51.7239 16.3168 50.6026C16.5235 51.1569 16.892 51.6373 17.3749 51.982C17.8578 52.3267 18.4331 52.52 19.0272 52.5373C19.6028 52.5488 20.1663 52.3728 20.6319 52.036C21.0975 51.6992 21.4397 51.2201 21.6061 50.6718C22.1064 51.1605 22.7285 51.5076 23.4084 51.6777C24.0883 51.8477 24.8014 51.8344 25.4745 51.6392C26.1173 51.4365 26.6858 51.0497 27.1088 50.5271C27.5317 50.0045 27.7903 49.3694 27.8522 48.7012C28.3406 49.2391 28.9609 49.6418 29.6525 49.8698C30.3441 50.0978 31.0833 50.1434 31.7979 50.0021C32.4935 49.853 33.1339 49.5151 33.6483 49.026C34.1627 48.5368 34.5309 47.9155 34.7121 47.2309C35.3491 48.2573 36.8139 48.5729 37.9976 48.2394C39.0291 47.9468 39.8828 47.2643 40.6126 46.492C41.4662 47.136 42.4178 47.6723 43.4958 47.7955C44.7259 47.9366 46.1185 47.3798 46.5699 46.2713C46.8712 46.9206 47.3452 47.4756 47.9407 47.8763C48.5361 48.277 49.2303 48.5081 49.9482 48.5447C50.6786 48.5719 51.4036 48.4089 52.0513 48.0719C52.699 47.7348 53.247 47.2353 53.6412 46.6228C53.8278 47.2762 54.201 47.8616 54.7156 48.308C55.2301 48.7544 55.8639 49.0425 56.5399 49.1374C57.2407 49.2242 57.9521 49.1235 58.6008 48.8457C59.2495 48.5679 59.8119 48.123 60.2303 47.5568C60.4972 48.0748 60.924 48.4939 61.4481 48.7525C61.9722 49.0112 62.5659 49.0957 63.1418 48.9937C63.7318 48.8848 64.2749 48.6012 64.7001 48.18C65.1253 47.7588 65.4127 47.2196 65.5247 46.6331C66.1359 47.6826 67.9928 47.7287 68.7974 46.7152C69.602 45.7017 69.0166 44.4033 67.7529 44.1698Z" fill="#A3DFFF"/>
<path d="M48.5553 43.9486L43.0984 44.916L41.2441 47.1201L44.9036 47.6333L46.567 46.2836C46.567 46.2836 48.2433 48.2671 49.5405 48.3825C50.8376 48.498 52.1323 48.3492 52.1787 48.1696C52.2251 47.9899 53.1174 47.3151 53.2438 47.1663C53.3701 47.0175 53.6409 46.6223 53.6409 46.6223C53.6409 46.6223 54.3707 48.0182 54.6389 48.2388C54.9071 48.4595 55.8897 48.5262 56.2146 48.8316C56.5396 49.1369 57.192 49.178 57.3958 49.1523C57.5995 49.1266 58.7652 49.0445 58.7652 49.0445L59.8561 48.0002L60.23 47.5563C60.6277 47.8388 61.0067 48.1465 61.3647 48.4775C61.7825 48.8854 62.796 48.8777 63.0436 48.8444C63.5075 48.754 63.9611 48.6173 64.3975 48.4364C64.511 48.3466 65.1712 47.5717 65.1712 47.5717L65.5193 46.6326C65.5193 46.6326 66.605 47.1124 66.7108 47.2689C66.8165 47.4254 67.322 47.3767 67.4638 47.3895C67.6056 47.4023 68.2916 46.8609 68.2916 46.8609L69.0653 46.2272L68.9854 45.0263C68.9854 45.0263 68.3148 44.7441 68.2117 44.5131C68.1067 44.3486 67.944 44.2288 67.7552 44.177C67.7552 44.177 68.0131 43.8152 67.3452 43.6972C66.6772 43.5791 66.3961 43.592 65.8288 43.379C65.3838 43.1802 64.8795 43.1573 64.4181 43.3148C64.0983 43.4637 63.4871 43.7151 63.4871 43.9589C63.4871 44.2027 63.7063 44.4285 63.4871 44.2155C63.2679 44.0025 64.5677 43.5971 62.8605 43.1121C61.1532 42.6272 61.1661 42.5836 60.7251 42.4835C60.2841 42.3834 59.8071 42.0396 59.232 42.3064C58.6569 42.5733 57.8522 42.5887 57.5222 42.7426C57.1921 42.8966 56.7485 43.2558 56.3307 43.3379C55.9129 43.42 55.4023 43.379 55.5029 43.6869C55.6034 43.9948 54.9355 44.159 54.9381 43.7331C54.9407 43.3072 54.7421 43.0557 54.2108 42.8427C53.6796 42.6297 53.5197 42.3937 52.9369 42.4142C52.354 42.4347 52.5732 42.3372 51.8408 42.504C51.1084 42.6708 51.3096 42.4347 50.7087 42.8325C50.4006 43.0604 50.0794 43.2703 49.7468 43.4611C49.378 43.6561 49.623 43.5124 49.378 43.6561C49.1123 43.7758 48.8371 43.8737 48.5553 43.9486Z" fill="#7DB7FF"/>
<path d="M32.2847 44.7746C32.2847 44.7746 35.0725 42.6629 36.7797 43.7483C38.487 44.8336 39.3458 40.7436 39.3458 40.7436C37.9454 40.1124 35.9313 40.1278 33.4375 40.6538C31.0726 37.5567 28.3313 37.4002 25.4584 38.4958L22.9285 36.1865L21.2109 37.839C21.2109 37.839 23.0162 41.3697 22.8821 41.7494C22.7299 42.2267 26.4538 43.0324 27.114 42.804L28.976 42.5166L32.2847 44.7746Z" fill="#7DB7FF"/>
<path d="M51.6403 42.499C50.941 43.7936 49.7669 44.7701 48.3623 45.2251C46.9577 45.6801 45.4309 45.5786 44.0996 44.9418C43.2614 45.6346 42.6116 46.4813 41.9204 47.3075C41.4821 47.0899 41.0651 46.8322 40.6748 46.5378C40.8244 46.3864 40.9714 46.2273 41.1106 46.0682C41.9101 45.1522 42.6219 44.1463 43.5709 43.356C44.2926 43.6974 45.0772 43.8872 45.8758 43.9137C46.6744 43.9401 47.47 43.8027 48.2129 43.51C48.298 43.4766 48.3831 43.4381 48.4708 43.3997C48.7239 43.6094 48.9385 43.8611 49.1052 44.1438C49.7125 43.2981 50.6176 42.7109 51.6403 42.499Z" fill="#6277D4"/>
<path d="M10.8522 34.8242C10.9046 35.3908 11.0968 35.9357 11.4118 36.4106C11.7267 36.8855 12.1546 37.2757 12.6574 37.5466C13.1696 37.8524 13.7476 38.0324 14.3437 38.0717C14.9397 38.111 15.5365 38.0084 16.0848 37.7724C16.231 38.3481 16.5142 38.8803 16.9105 39.3242C17.3069 39.7681 17.8047 40.1106 18.3619 40.3229C18.9094 40.5266 19.4994 40.5908 20.0782 40.5097C20.657 40.4286 21.2062 40.2047 21.6758 39.8585C21.8657 40.5035 22.1932 41.1001 22.6361 41.6076C23.0789 42.1151 23.6266 42.5215 24.2418 42.7991C23.8319 42.4835 23.5426 42.0381 23.4217 41.5366C23.3512 41.2237 23.3542 40.8987 23.4307 40.5872C23.5072 40.2756 23.6551 39.9858 23.8627 39.7405C23.267 39.3941 22.6816 38.9374 22.4443 38.3036C22.2071 37.6698 22.4701 36.8307 23.1252 36.664C23.0684 36.5049 23.004 36.3509 22.9343 36.1995C21.5469 35.4528 19.8577 35.2501 18.447 35.8352C18.1324 33.844 15.7289 32.3301 13.805 32.9229C13.5265 31.6399 11.7419 30.8445 10.6665 31.545C9.59111 32.2455 9.70716 34.1006 10.8522 34.8242Z" fill="#7DB7FF"/>
<path d="M27.8366 48.8114L26.4157 48.6831L25.8457 48.6318C25.3489 48.6123 24.8577 48.5189 24.3886 48.3547C23.29 47.9082 22.6298 46.6124 22.9574 45.5322L22.2121 45.5578L21.7298 45.332C21.5329 45.3539 21.3374 45.3873 21.1444 45.4321C20.4273 45.5996 19.7623 45.9389 19.2072 46.4205C18.6521 46.9022 18.2237 47.5116 17.9595 48.1956C17.6927 47.8502 17.3443 47.5758 16.9452 47.3967C16.5461 47.2176 16.1087 47.1395 15.672 47.1692C15.2537 47.1997 14.852 47.3444 14.5112 47.5875C14.1703 47.8307 13.9036 48.1627 13.7404 48.5471C12.5592 48.9756 12.2162 50.3279 13.1679 51.1926C14.1195 52.0573 15.9015 51.7186 16.3141 50.5973C16.5209 51.1517 16.8893 51.632 17.3722 51.9767C17.8551 52.3214 18.4305 52.5147 19.0245 52.532C19.6001 52.5436 20.1636 52.3675 20.6293 52.0307C21.0949 51.6939 21.437 51.2149 21.6034 50.6666C22.1037 51.1552 22.7258 51.5024 23.4057 51.6724C24.0856 51.8424 24.7988 51.8291 25.4718 51.6339C26.0954 51.4366 26.6493 51.0661 27.0683 50.5661C27.4872 50.066 27.7538 49.4572 27.8366 48.8114Z" fill="#7DB7FF"/>
<path d="M67.7529 44.1698C67.5185 43.8127 67.191 43.5257 66.8053 43.3395C66.4197 43.1533 65.9904 43.0749 65.5634 43.1127C65.1206 43.1536 64.695 43.3038 64.3252 43.5498C63.9555 43.7958 63.6533 44.1297 63.4462 44.5213C63.0583 43.8827 62.5212 43.3468 61.8804 42.959C61.2397 42.5713 60.5144 42.3432 59.7661 42.2941C58.9903 42.2483 58.214 42.3754 57.4939 42.6662C56.7738 42.9569 56.128 43.404 55.6037 43.9748C55.227 43.4745 54.7349 43.0716 54.169 42.8001C53.603 42.5286 52.9798 42.3964 52.3517 42.4147C51.7149 42.4354 51.0913 42.6012 50.5288 42.8992C49.9664 43.1972 49.4802 43.6196 49.1075 44.1339C48.9388 43.8489 48.7215 43.5954 48.4653 43.3846C49.7648 42.7323 50.7681 41.6148 51.2738 40.2568C51.9323 40.6587 52.682 40.889 53.4536 40.9267C54.2252 40.9644 54.9939 40.8081 55.6888 40.4723C56.387 40.1268 56.9872 39.6128 57.4345 38.9773C57.8818 38.3417 58.1621 37.6048 58.2497 36.8339C58.7794 37.1002 59.3673 37.2315 59.9606 37.2158C60.5539 37.2001 61.1339 37.038 61.6487 36.7441C62.1694 36.4428 62.6086 36.02 62.9285 35.5122C63.2484 35.0044 63.4393 34.4268 63.4848 33.8292C64.0762 33.9724 64.6931 33.9747 65.2855 33.8361C65.8779 33.6974 66.429 33.4217 66.8942 33.0312C67.8432 32.2358 68.3383 31.194 68.23 30.0111C69.2616 29.0951 69.0398 27.2143 67.838 26.7011C66.6363 26.1879 64.9754 27.2733 64.9213 28.6076C62.884 28.351 60.7409 30.2549 60.777 32.2871C58.1388 31.6841 55.1034 33.5854 54.4613 36.2001C51.5806 35.0044 47.7561 36.6645 46.6782 39.5614C44.4552 39.0021 42.0207 39.5101 40.1045 40.7392C38.0027 39.8386 35.5218 39.7359 33.4381 40.6494C31.8727 37.9757 27.8522 36.9827 25.2501 38.6223C24.1876 36.1642 20.8943 34.8068 18.4418 35.8255C18.1272 33.8343 15.7236 32.3204 13.7998 32.9132C13.5213 31.6302 11.7367 30.8348 10.6613 31.5353C9.58587 32.2358 9.70708 34.1012 10.8521 34.8248C10.9045 35.3913 11.0968 35.9363 11.4117 36.4112C11.7266 36.8861 12.1545 37.2763 12.6573 37.5472C13.1695 37.853 13.7476 38.033 14.3436 38.0722C14.9396 38.1115 15.5365 38.0089 16.0847 37.773C16.2309 38.3486 16.5141 38.8809 16.9105 39.3247C17.3068 39.7686 17.8046 40.1112 18.3619 40.3235C18.9093 40.5272 19.4993 40.5914 20.0781 40.5103C20.6569 40.4292 21.2061 40.2053 21.6757 39.8591C21.8933 40.5994 22.292 41.2746 22.8361 41.824C23.3803 42.3734 24.0528 42.7801 24.7936 43.0075C25.5251 43.2253 26.3001 43.2548 27.0462 43.0932C27.7922 42.9317 28.4848 42.5843 29.0591 42.0837C29.7888 43.3361 30.9639 44.2709 32.3524 44.7035C32.1371 44.9516 31.9677 45.2357 31.8521 45.5426C31.4002 45.0949 30.8511 44.7565 30.2471 44.5532C29.643 44.3499 29.0002 44.2872 28.368 44.37C27.7539 44.453 27.1692 44.6832 26.6643 45.0408C26.1594 45.3984 25.7493 45.8726 25.4693 46.4227C24.8671 45.9503 24.167 45.6168 23.4195 45.4464C22.6721 45.276 21.8959 45.273 21.1471 45.4374C20.43 45.6048 19.765 45.9442 19.2099 46.4258C18.6548 46.9075 18.2264 47.5168 17.9621 48.2009C17.6954 47.8555 17.347 47.581 16.9479 47.402C16.5488 47.2229 16.1114 47.1448 15.6746 47.1745C15.2564 47.2049 14.8547 47.3497 14.5138 47.5928C14.173 47.836 13.9063 48.168 13.7431 48.5524C12.5619 48.9809 12.2189 50.3331 13.1705 51.1978C14.1221 52.0626 15.9042 51.7239 16.3168 50.6026C16.5235 51.1569 16.892 51.6373 17.3749 51.982C17.8578 52.3267 18.4331 52.52 19.0272 52.5373C19.6028 52.5488 20.1663 52.3728 20.6319 52.036C21.0975 51.6992 21.4397 51.2201 21.6061 50.6718C22.1064 51.1605 22.7285 51.5076 23.4084 51.6777C24.0883 51.8477 24.8014 51.8344 25.4745 51.6392C26.1173 51.4365 26.6858 51.0497 27.1088 50.5271C27.5317 50.0045 27.7903 49.3694 27.8522 48.7012C28.3406 49.2391 28.9609 49.6418 29.6525 49.8698C30.3441 50.0978 31.0833 50.1434 31.7979 50.0021C32.4935 49.853 33.1339 49.5151 33.6483 49.026C34.1627 48.5369 34.5309 47.9155 34.7121 47.231C35.3491 48.2573 36.8139 48.5729 37.9976 48.2394C39.0291 47.9468 39.8828 47.2643 40.6126 46.492C41.4662 47.136 42.4178 47.6723 43.4958 47.7955C44.7259 47.9366 46.1185 47.3798 46.5699 46.2713C46.8712 46.9206 47.3452 47.4756 47.9407 47.8763C48.5361 48.277 49.2303 48.5081 49.9482 48.5447C50.6786 48.5719 51.4036 48.4089 52.0513 48.0719C52.699 47.7348 53.247 47.2353 53.6412 46.6228C53.8278 47.2762 54.201 47.8616 54.7156 48.308C55.2301 48.7544 55.8639 49.0425 56.5399 49.1374C57.2407 49.2242 57.9521 49.1235 58.6008 48.8457C59.2495 48.5679 59.8119 48.123 60.2303 47.5568C60.4972 48.0748 60.924 48.4939 61.4481 48.7525C61.9722 49.0112 62.5659 49.0957 63.1419 48.9937C63.7318 48.8848 64.2749 48.6012 64.7001 48.18C65.1253 47.7588 65.4127 47.2196 65.5247 46.6331C66.1359 47.6826 67.9928 47.7287 68.7974 46.7152C69.602 45.7017 69.0166 44.4033 67.7529 44.1698Z" stroke="#6277D4" stroke-width="4" stroke-linecap="round" stroke-linejoin="round"/>
<path d="M28.1383 48.8367L27.9629 48.8213C28.0635 48.9265 28.1718 49.0266 28.2827 49.1215C28.2388 49.024 28.1898 48.9316 28.1383 48.8367Z" fill="#9ECAFF"/>
<path d="M32.2856 44.7753C33.3739 43.3948 35.7078 42.9381 37.2138 44.0055C37.8358 42.6729 38.8305 41.5468 40.079 40.7622L38.658 40.2695C37.5542 40.5646 36.974 41.4422 36.711 42.6687C34.5395 42.5942 32.7523 43.0305 31.4629 44.1338L32.2856 44.7753Z" fill="#6277D4" stroke="#6277D4" stroke-width="4" stroke-linecap="round" stroke-linejoin="round"/>
<path d="M30.7171 30.2449C30.7413 30.4476 30.7243 30.653 30.667 30.849C30.6097 31.0449 30.5133 31.2274 30.3835 31.3854C30.2538 31.5435 30.0934 31.6739 29.9119 31.7689C29.7303 31.8639 29.5314 31.9216 29.327 31.9384C28.909 31.967 28.4959 31.8346 28.1733 31.5685C27.8508 31.3025 27.6433 30.9232 27.594 30.5092C27.5683 30.3056 27.5841 30.099 27.6407 29.9017C27.6973 29.7044 27.7934 29.5205 27.9233 29.3611C28.0531 29.2017 28.214 29.0701 28.3963 28.9741C28.5786 28.8782 28.7785 28.82 28.984 28.8029C29.4043 28.7732 29.8198 28.907 30.143 29.1759C30.4663 29.4449 30.672 29.8281 30.7171 30.2449Z" fill="#733C32"/>
<path d="M37.4068 53.2113C37.4207 53.399 37.3969 53.5876 37.3365 53.7659C37.2762 53.9443 37.1806 54.1088 37.0554 54.2499C36.9303 54.3909 36.778 54.5057 36.6076 54.5873C36.4371 54.6689 36.252 54.7158 36.0631 54.7252C35.6783 54.7625 35.294 54.6494 34.9914 54.4101C34.6887 54.1707 34.4914 53.8237 34.441 53.4423C34.4259 53.2544 34.4488 53.0654 34.5084 52.8865C34.5679 52.7076 34.6628 52.5423 34.7876 52.4005C34.9123 52.2587 35.0644 52.1432 35.2347 52.0607C35.4051 51.9783 35.5903 51.9307 35.7795 51.9207C36.1664 51.8815 36.5534 51.9947 36.8576 52.2359C37.1617 52.4771 37.3589 52.8273 37.4068 53.2113Z" fill="#5E3228"/>
<path d="M55.6064 50.372C55.6158 50.7617 55.473 51.1399 55.208 51.427C54.9431 51.7141 54.5765 51.8878 54.1855 51.9116C53.997 51.9321 53.8063 51.9151 53.6246 51.8614C53.4428 51.8078 53.2737 51.7187 53.1269 51.5992C52.9802 51.4797 52.8589 51.3324 52.7701 51.1657C52.6813 50.9991 52.6268 50.8165 52.6098 50.6286C52.601 50.2391 52.744 49.8613 53.0089 49.5744C53.2737 49.2874 53.6399 49.1135 54.0307 49.0891C54.2193 49.0678 54.4102 49.0843 54.5923 49.1377C54.7743 49.1911 54.9438 49.2802 55.0907 49.3997C55.2375 49.5193 55.3588 49.667 55.4474 49.834C55.536 50.001 55.5901 50.1839 55.6064 50.372Z" fill="#9E5149"/>
<path d="M34.279 32.0996C34.289 32.2008 34.2787 32.3029 34.2487 32.4001C34.2188 32.4973 34.1698 32.5876 34.1046 32.6659C34.0393 32.7441 33.9592 32.8087 33.8687 32.856C33.7783 32.9033 33.6793 32.9322 33.5776 32.9412C33.3695 32.9578 33.1632 32.8927 33.0027 32.7599C32.8422 32.627 32.7403 32.4371 32.7188 32.2305C32.7085 32.1293 32.7184 32.0271 32.748 31.9298C32.7777 31.8324 32.8264 31.7419 32.8913 31.6634C32.9563 31.5849 33.0363 31.52 33.1266 31.4725C33.217 31.4249 33.3159 31.3956 33.4177 31.3863C33.6264 31.3698 33.8334 31.4352 33.9943 31.5684C34.1553 31.7017 34.2575 31.8924 34.279 32.0996Z" fill="#733C32"/>
<path d="M35.6352 50.4818C35.6433 50.5766 35.6321 50.672 35.6024 50.7625C35.5727 50.853 35.5251 50.9366 35.4623 51.0083C35.3995 51.0801 35.3229 51.1386 35.237 51.1804C35.1511 51.2222 35.0576 51.2464 34.9621 51.2515C34.7678 51.2705 34.5737 51.2137 34.4207 51.0931C34.2677 50.9725 34.1678 50.7974 34.142 50.6049C34.1343 50.5102 34.1457 50.4149 34.1755 50.3246C34.2053 50.2343 34.253 50.1508 34.3157 50.0791C34.3784 50.0074 34.4549 49.9488 34.5406 49.907C34.6264 49.8651 34.7197 49.8407 34.8151 49.8352C35.0092 49.8168 35.203 49.8739 35.3558 49.9944C35.5087 50.1149 35.6088 50.2895 35.6352 50.4818Z" fill="#5E3228"/>
<path d="M48.7771 24.574C48.7908 24.7871 48.7208 24.9973 48.5817 25.1601C48.4426 25.3229 48.2455 25.4255 48.0318 25.4464C47.928 25.4533 47.8239 25.4397 47.7255 25.4064C47.627 25.3731 47.5362 25.3206 47.4583 25.2521C47.3803 25.1837 47.3168 25.1005 47.2714 25.0074C47.226 24.9143 47.1995 24.8132 47.1936 24.7099C47.1778 24.4964 47.2467 24.2853 47.3856 24.1217C47.5244 23.9581 47.7221 23.8552 47.9364 23.835C48.0409 23.8259 48.1462 23.838 48.2459 23.8706C48.3455 23.9033 48.4375 23.9558 48.5161 24.0249C48.5948 24.094 48.6585 24.1784 48.7033 24.2727C48.7482 24.3671 48.7733 24.4696 48.7771 24.574Z" fill="#CF7D53"/>
<path d="M47.3017 22.7849C47.3176 22.999 47.2489 23.2107 47.1101 23.3751C46.9714 23.5395 46.7737 23.6435 46.559 23.665C46.4536 23.6737 46.3474 23.6614 46.2468 23.6286C46.1463 23.5958 46.0533 23.5433 45.9735 23.4742C45.8937 23.405 45.8286 23.3207 45.7821 23.2261C45.7356 23.1315 45.7087 23.0286 45.7028 22.9235C45.6856 22.7088 45.7538 22.496 45.8927 22.3309C46.0316 22.1658 46.2302 22.0616 46.4455 22.0408C46.5512 22.0321 46.6576 22.0445 46.7583 22.0775C46.859 22.1104 46.9521 22.1631 47.0319 22.2325C47.1118 22.3019 47.1768 22.3866 47.2232 22.4815C47.2695 22.5764 47.2962 22.6796 47.3017 22.7849Z" fill="#CF7D53"/>
<path d="M44.553 23.8375C44.5853 24.2312 44.4606 24.6218 44.2058 24.9248C43.951 25.2277 43.5865 25.4188 43.1913 25.4566C42.9962 25.472 42.8 25.4487 42.6139 25.3881C42.4279 25.3275 42.2558 25.2308 42.1076 25.1037C41.9594 24.9765 41.838 24.8213 41.7504 24.6471C41.6629 24.4729 41.6109 24.2832 41.5976 24.0889C41.5624 23.6935 41.6858 23.3003 41.9409 22.9951C42.196 22.6898 42.562 22.4973 42.9592 22.4596C43.1552 22.4439 43.3524 22.4672 43.5392 22.5283C43.726 22.5894 43.8987 22.687 44.0471 22.8153C44.1956 22.9436 44.3168 23.1001 44.4036 23.2756C44.4905 23.4512 44.5413 23.6422 44.553 23.8375Z" fill="#CF7D53"/>
<path d="M35.8467 29.018C35.8584 29.121 35.8491 29.2253 35.8194 29.3246C35.7897 29.4239 35.7401 29.5162 35.6736 29.596C35.6071 29.6758 35.5252 29.7414 35.4326 29.7889C35.34 29.8364 35.2388 29.8648 35.1349 29.8725C34.9248 29.8882 34.7168 29.8217 34.5554 29.6869C34.394 29.5522 34.2919 29.36 34.271 29.1515C34.2589 29.0483 34.2679 28.9437 34.2974 28.8441C34.327 28.7445 34.3765 28.6519 34.443 28.5718C34.5095 28.4917 34.5916 28.4259 34.6844 28.3782C34.7771 28.3305 34.8786 28.302 34.9827 28.2944C35.1934 28.278 35.4021 28.3447 35.5637 28.4801C35.7254 28.6155 35.827 28.8087 35.8467 29.018Z" fill="#CF7D53"/>
<path d="M51.3403 52.9862C51.346 53.1781 51.2761 53.3647 51.1455 53.5061C51.015 53.6475 50.8341 53.7325 50.6414 53.7432C50.5473 53.7535 50.4521 53.745 50.3613 53.7184C50.2705 53.6917 50.1859 53.6474 50.1125 53.588C50.0391 53.5285 49.9783 53.4551 49.9336 53.3721C49.8889 53.2891 49.8613 53.198 49.8523 53.1043C49.8438 52.9103 49.9124 52.7209 50.0431 52.5769C50.1739 52.4328 50.3564 52.3458 50.5511 52.3345C50.6463 52.3239 50.7426 52.3325 50.8344 52.3598C50.9261 52.3871 51.0114 52.4325 51.085 52.4933C51.1587 52.5542 51.2193 52.6292 51.2632 52.7139C51.307 52.7986 51.3333 52.8912 51.3403 52.9862Z" fill="#9E5149"/>
<path d="M55.5544 28.8924C55.5626 29.1032 55.4894 29.3092 55.3499 29.468C55.2103 29.6269 55.015 29.7267 54.8039 29.7468C54.7014 29.7545 54.5984 29.7418 54.501 29.7094C54.4035 29.677 54.3135 29.6257 54.2362 29.5583C54.1589 29.4909 54.0958 29.4089 54.0507 29.3171C54.0056 29.2252 53.9794 29.1253 53.9735 29.0232C53.964 28.8118 54.0366 28.6049 54.1763 28.4453C54.3161 28.2857 54.5122 28.1858 54.7239 28.1662C54.8266 28.1586 54.9298 28.1714 55.0274 28.2039C55.1251 28.2364 55.2152 28.288 55.2925 28.3556C55.3699 28.4233 55.4329 28.5056 55.4778 28.5977C55.5228 28.6899 55.5488 28.7901 55.5544 28.8924Z" fill="#733C32"/>
<path d="M69.2179 48.4244L69.0709 46.228C69.1444 46.0337 69.1754 45.8261 69.1616 45.6189C69.1478 45.4118 69.0896 45.21 68.9909 45.0271L68.2895 34.5864L68.0832 31.3765C68.1535 31.1656 68.2018 30.948 68.2276 30.7273C68.2288 30.7222 68.2288 30.717 68.2276 30.7119C68.2398 30.6071 68.2467 30.5018 68.2482 30.3963V30.3398C68.2482 30.2346 68.2482 30.1269 68.2353 30.0191C68.291 29.9684 68.3435 29.9145 68.3927 29.8575C68.4086 29.8415 68.4233 29.8244 68.4365 29.8061C68.47 29.7625 68.5035 29.7215 68.5319 29.6778L68.5732 29.6188C68.6067 29.5649 68.6376 29.5085 68.666 29.452C68.6944 29.3956 68.6995 29.3802 68.715 29.3417L68.7434 29.2724C68.8003 29.1215 68.8409 28.9649 68.8646 28.8054C69.0006 28.6262 69.0863 28.4143 69.1129 28.1913C69.1396 27.9683 69.1062 27.7422 69.0162 27.5363C68.9262 27.3303 68.7829 27.1519 68.6008 27.0192C68.4187 26.8864 68.2045 26.8042 67.98 26.7809C67.9336 26.7578 67.8923 26.7322 67.8433 26.7116C67.7853 26.6877 67.7259 26.6671 67.6654 26.6501L67.5622 26.6244C67.441 25.929 67.3043 25.2516 67.1445 24.5973C67.1445 24.5537 67.1238 24.5101 67.1109 24.4639C67.0619 24.2638 67.0104 24.0636 66.9588 23.8686C66.9588 23.8378 66.9407 23.807 66.933 23.7762C66.8066 23.3118 66.6751 22.8653 66.5281 22.4317C66.5281 22.4137 66.5152 22.3932 66.51 22.3727C66.4404 22.1674 66.3708 21.9673 66.2986 21.7697C66.2986 21.7697 66.2986 21.7492 66.2986 21.7363C66.0789 21.131 65.8276 20.5374 65.5455 19.9582C64.6997 18.2339 63.7171 17.0587 62.7088 16.7405C62.4596 16.6585 62.1942 16.6374 61.9351 16.6789L57.2441 17.0972H57.226C57.1777 17.0988 57.1295 17.1031 57.0816 17.11H57.0403H57.0068C56.9197 17.1254 56.8336 17.1459 56.7489 17.1716H56.7128C56.625 17.199 56.5389 17.2315 56.4549 17.2691H56.4317C56.3724 17.2999 56.3157 17.3281 56.2589 17.3615L56.2331 17.3769L56.1764 17.4128C56.1351 17.4384 56.0939 17.4641 56.0552 17.4923L56.0371 17.5077C55.957 17.5656 55.8804 17.6282 55.8076 17.695L55.7741 17.7233C55.6942 17.7951 55.6168 17.8721 55.5394 17.9568L55.4105 18.1081C55.3434 18.1928 55.2738 18.2801 55.2093 18.3647C55.1423 18.4597 55.0752 18.5623 55.0133 18.6675L54.9617 18.7496C54.8973 18.86 54.8328 18.9729 54.7735 19.0909V19.1089C54.7142 19.2243 54.6574 19.3449 54.6007 19.4706L54.5594 19.563C54.5027 19.6964 54.4485 19.8196 54.3944 19.9684L20.9822 25.0053C20.1647 23.807 19.3162 23.0013 18.5142 22.7422C18.2706 22.6592 18.0104 22.6363 17.756 22.6755L13.3074 23.0552C13.2558 23.0552 13.2016 23.0552 13.1501 23.0681H13.114C12.6587 23.1469 12.2439 23.3777 11.938 23.7224C11.8864 23.7788 11.8374 23.8378 11.7858 23.8994L11.7678 23.9225C11.7188 23.9841 11.6749 24.0457 11.6285 24.1124L11.6053 24.1483C11.5615 24.2124 11.5202 24.2817 11.4789 24.3536C11.4706 24.3646 11.4636 24.3767 11.4583 24.3895C11.4145 24.4639 11.3758 24.5383 11.3345 24.6179V24.641C11.1483 25.03 10.9989 25.4354 10.8884 25.8521C10.8652 25.9419 10.842 26.0368 10.8187 26.1317L10.7955 26.2267L10.7414 26.4833C10.7414 26.5269 10.7233 26.5705 10.7156 26.6167C10.7078 26.6629 10.6846 26.7861 10.6692 26.8733L10.646 27.0324C10.6331 27.1145 10.6202 27.1992 10.6099 27.289L10.5866 27.4686C10.5866 27.5533 10.5686 27.6379 10.5583 27.7252C10.548 27.8124 10.5583 27.8586 10.5402 27.9253C10.5222 27.992 10.5402 28.0947 10.5196 28.1819C10.499 28.2692 10.5196 28.3307 10.5067 28.4026C10.4938 28.4744 10.5067 28.5694 10.5067 28.6592C10.5067 28.749 10.5067 28.8337 10.5067 28.9158V29.1878C10.5067 29.3314 10.5067 29.4777 10.5067 29.6265C10.5067 29.6932 10.5067 29.7625 10.5067 29.8318C10.5067 29.9011 10.5067 30.0422 10.5067 30.1474V30.3732L10.5222 30.6837C10.5222 30.7607 10.5222 30.8402 10.5222 30.9197L10.5454 31.2328C10.5454 31.3123 10.5454 31.3944 10.566 31.474V31.574V31.5971C9.6144 32.3464 9.75624 34.1092 10.86 34.8071C10.8995 35.3003 11.0503 35.7783 11.301 36.2055L13.622 48.5732C13.3679 48.6818 13.1434 48.8489 12.967 49.0607C12.9269 49.1089 12.8899 49.1594 12.8561 49.2121C12.8251 49.2634 12.7968 49.3148 12.771 49.3661V49.3866C12.7477 49.436 12.727 49.4865 12.7091 49.538V49.5688C12.6936 49.6167 12.6807 49.6654 12.6704 49.715V49.7587C12.6704 49.8049 12.6704 49.851 12.6549 49.8972C12.6536 49.9169 12.6536 49.9366 12.6549 49.9562C12.6549 49.9973 12.6549 50.0383 12.6549 50.082C12.6536 50.1059 12.6536 50.1299 12.6549 50.1538C12.6453 50.1995 12.6392 50.2458 12.6369 50.2924C12.6422 50.3201 12.6491 50.3475 12.6575 50.3745L12.6859 50.4797C12.6859 50.5105 12.7117 50.5413 12.7245 50.5721C12.7359 50.6026 12.7488 50.6326 12.7632 50.6619C12.7796 50.6974 12.7986 50.7317 12.82 50.7645C12.8354 50.7902 12.8483 50.8184 12.8664 50.844C12.8844 50.8697 12.9231 50.9185 12.9515 50.9544C12.9799 50.9903 12.9799 50.9954 12.9979 51.016C13.0479 51.0738 13.1013 51.1287 13.1578 51.1802C13.2245 51.2407 13.2961 51.2956 13.3719 51.3444L13.4363 51.3829C13.4931 51.4162 13.5524 51.447 13.6117 51.4753L13.6787 51.506C13.7432 51.5317 13.8103 51.5548 13.8773 51.5753L13.9289 51.5907C14.0137 51.6137 14.0998 51.6317 14.1868 51.6446L14.7954 54.8777L15.2467 57.2742L15.729 59.8401C15.761 59.9883 15.8352 60.1241 15.9426 60.2314C16.0501 60.3388 16.1863 60.4132 16.335 60.4457L22.0911 61.8159L22.7204 61.9647L25.1832 62.5497L25.2399 62.5626C25.5054 62.6198 25.7794 62.6259 26.0471 62.5805L28.3681 62.1828C28.5376 62.1557 28.6988 62.0914 28.8402 61.9947C28.9815 61.8979 29.0996 61.7711 29.1857 61.6234C29.3056 61.4154 29.3485 61.172 29.3069 60.9358L29.165 60.1198L41.9435 58.3827L60.8442 55.8168L60.607 55.8501L65.0298 56.8765C65.414 56.9647 65.8119 56.976 66.2006 56.9099L68.6789 56.4916C68.9572 56.4504 69.2108 56.3096 69.3922 56.0956C69.5736 55.8816 69.6702 55.6091 69.664 55.3293L69.2179 48.4244Z" stroke="#5C2929" stroke-width="5" stroke-linecap="round" stroke-linejoin="round"/>
</g>
<defs>
<radialGradient id="paint0_radial_1_13084" cx="0" cy="0" r="1" gradientUnits="userSpaceOnUse" gradientTransform="translate(40.001 40) scale(37.67 37.4803)">
<stop offset="0.13" stop-color="#FF5CF7"/>
<stop offset="0.36" stop-color="#EB51D4"/>
<stop offset="0.87" stop-color="#B9357C"/>
<stop offset="1" stop-color="#AB2E64"/>
</radialGradient>
<clipPath id="clip0_1_13084">
<rect width="80" height="80" rx="4" fill="white"/>
</clipPath>
</defs>
</svg>
