<svg width="80" height="80" viewBox="0 0 80 80" fill="none" xmlns="http://www.w3.org/2000/svg">
<g clip-path="url(#clip0_1_13140)">
<path d="M69.4391 2.4248L10.5603 2.4248C6.06663 2.4248 2.42383 6.04926 2.42383 10.5203L2.42383 69.4798C2.42383 73.9508 6.06663 77.5752 10.5603 77.5752H69.4391C73.9327 77.5752 77.5755 73.9508 77.5755 69.4798V10.5203C77.5755 6.04926 73.9327 2.4248 69.4391 2.4248Z" fill="url(#paint0_radial_1_13140)"/>
<path d="M48.272 67.6042C49.2533 67.6042 50.0488 66.8127 50.0488 65.8363C50.0488 64.8599 49.2533 64.0684 48.272 64.0684C47.2906 64.0684 46.4951 64.8599 46.4951 65.8363C46.4951 66.8127 47.2906 67.6042 48.272 67.6042Z" fill="#49C5D8"/>
<path d="M29.0669 17.697C30.0482 17.697 30.8438 16.9054 30.8438 15.929C30.8438 14.9527 30.0482 14.1611 29.0669 14.1611C28.0856 14.1611 27.29 14.9527 27.29 15.929C27.29 16.9054 28.0856 17.697 29.0669 17.697Z" fill="#49C5D8"/>
<path d="M64.4366 62.5156C64.928 62.5156 65.3263 62.1193 65.3263 61.6304C65.3263 61.1415 64.928 60.7451 64.4366 60.7451C63.9452 60.7451 63.5469 61.1415 63.5469 61.6304C63.5469 62.1193 63.9452 62.5156 64.4366 62.5156Z" fill="#49C5D8"/>
<path d="M16.5899 19.7705C17.0813 19.7705 17.4796 19.3741 17.4796 18.8852C17.4796 18.3963 17.0813 18 16.5899 18C16.0985 18 15.7002 18.3963 15.7002 18.8852C15.7002 19.3741 16.0985 19.7705 16.5899 19.7705Z" fill="#49C5D8"/>
<path d="M0 6.04272L0 73.9547C-1.45114e-07 75.5576 0.639782 77.0948 1.77867 78.2285C2.91757 79.3621 4.46233 79.9993 6.07331 80H73.9267C74.7245 80 75.5144 79.8436 76.2514 79.5398C76.9885 79.236 77.6581 78.7906 78.2221 78.2292C78.7861 77.6678 79.2334 77.0014 79.5384 76.268C79.8435 75.5345 80.0003 74.7485 80 73.9547V6.04272C80 4.44009 79.3601 2.9031 78.2212 1.76987C77.0822 0.636642 75.5374 0 73.9267 0L6.07331 0C4.46277 0.000680001 2.9184 0.637541 1.77958 1.77062C0.640767 2.90371 0.000683442 4.4403 0 6.04272ZM71.4793 75.2171H8.52326C7.53151 75.2171 6.58038 74.8252 5.8791 74.1274C5.17783 73.4297 4.78386 72.4833 4.78386 71.4966L4.78386 8.50343C4.78386 7.51667 5.17783 6.57033 5.8791 5.87259C6.58038 5.17485 7.53151 4.78286 8.52326 4.78286L71.4793 4.78286C72.4711 4.78286 73.4222 5.17485 74.1235 5.87259C74.8248 6.57033 75.2187 7.51667 75.2187 8.50343V71.4966C75.218 72.4831 74.8239 73.4291 74.1227 74.1267C73.4216 74.8243 72.4709 75.2165 71.4793 75.2171Z" fill="#FFBE33"/>
<path d="M76.7661 40.0791V71.4961C76.764 72.8906 76.2064 74.2273 75.2154 75.2133C74.2243 76.1994 72.8808 76.7542 71.4793 76.7563H8.52326C7.12155 76.7549 5.77764 76.2003 4.78648 75.2141C3.79532 74.2279 3.23788 72.8908 3.23652 71.4961L3.23652 40.0791H0L0 73.9491C-1.45114e-07 75.552 0.639782 77.0893 1.77867 78.2229C2.91757 79.3565 4.46233 79.9938 6.07331 79.9944H73.9267C74.7245 79.9944 75.5144 79.838 76.2514 79.5342C76.9885 79.2304 77.6581 78.785 78.2221 78.2236C78.7861 77.6623 79.2334 76.9958 79.5384 76.2624C79.8435 75.5289 80.0003 74.7429 80 73.9491V40.0791H76.7661Z" fill="#E88827"/>
<path d="M71.4791 4.78271C72.4709 4.78271 73.422 5.1747 74.1233 5.87244C74.8246 6.57018 75.2185 7.51653 75.2185 8.50328V71.4964C75.2179 72.483 74.8237 73.4289 74.1225 74.1265C73.4214 74.8241 72.4707 75.2163 71.4791 75.217H8.52307C7.53132 75.217 6.58019 74.825 5.87891 74.1273C5.17764 73.4295 4.78367 72.4832 4.78367 71.4964L4.78367 8.50328C4.78367 7.51653 5.17764 6.57018 5.87891 5.87244C6.58019 5.1747 7.53132 4.78271 8.52307 4.78271L71.4791 4.78271ZM71.4791 3.24316L8.52307 3.24316C7.12136 3.24452 5.77745 3.79915 4.78629 4.78532C3.79513 5.77149 3.23769 7.10863 3.23633 8.50328L3.23633 71.4964C3.23769 72.8911 3.79513 74.2282 4.78629 75.2144C5.77745 76.2005 7.12136 76.7552 8.52307 76.7565H71.4791C72.8806 76.7545 74.2242 76.1997 75.2152 75.2136C76.2062 74.2276 76.7638 72.8909 76.7659 71.4964V8.50328C76.7638 7.10884 76.2062 5.77209 75.2152 4.78607C74.2242 3.80004 72.8806 3.2452 71.4791 3.24316Z" fill="#FFD952"/>
<path d="M0 6.04272L0 73.9547C-1.45114e-07 75.5576 0.639782 77.0948 1.77867 78.2285C2.91757 79.3621 4.46233 79.9993 6.07331 80H73.9267C74.7245 80 75.5144 79.8436 76.2514 79.5398C76.9885 79.236 77.6581 78.7906 78.2221 78.2292C78.7861 77.6678 79.2334 77.0014 79.5384 76.268C79.8435 75.5345 80.0003 74.7485 80 73.9547V6.04272C80 4.44009 79.3601 2.9031 78.2212 1.76987C77.0822 0.636642 75.5374 0 73.9267 0L6.07331 0C4.46277 0.000680001 2.9184 0.637541 1.77958 1.77062C0.640767 2.90371 0.000683442 4.4403 0 6.04272ZM71.4793 75.2171H8.52326C7.53151 75.2171 6.58038 74.8252 5.8791 74.1274C5.17783 73.4297 4.78386 72.4833 4.78386 71.4966L4.78386 8.50343C4.78386 7.51668 5.17783 6.57033 5.8791 5.87259C6.58038 5.17485 7.53151 4.78286 8.52326 4.78286L71.4793 4.78286C72.4711 4.78286 73.4222 5.17485 74.1235 5.87259C74.8248 6.57033 75.2187 7.51668 75.2187 8.50343V71.4966C75.218 72.4831 74.8239 73.4291 74.1227 74.1267C73.4216 74.8243 72.4709 75.2165 71.4793 75.2171Z" stroke="#5C2929" stroke-width="4" stroke-linecap="round" stroke-linejoin="round"/>
<path d="M49.9326 15.4546H50.2576H50.7347L51.0776 15.4751C51.2496 15.4854 51.4146 15.4982 51.5728 15.5136L51.8977 15.5444C52.0937 15.5649 52.2923 15.5906 52.4909 15.6188L52.7152 15.6496C52.9869 15.6906 53.2577 15.7394 53.5276 15.7958L53.7623 15.8472C53.9609 15.8882 54.1594 15.9344 54.358 15.9832L54.6572 16.0601L55.2013 16.2141L55.503 16.3065C55.6939 16.3655 55.8821 16.4296 56.073 16.4963C56.1607 16.5271 56.2483 16.5554 56.3309 16.5887C56.6068 16.6888 56.8802 16.794 57.1561 16.9094C57.4321 17.0249 57.7493 17.166 58.0381 17.302L58.216 17.3893C58.443 17.5022 58.6725 17.6125 58.8969 17.7331L59.0129 17.7998C59.2528 17.9281 59.4926 18.0564 59.7273 18.2001L59.7943 18.2437C60.0522 18.3925 60.2895 18.5465 60.5319 18.7056L60.5577 18.7235C60.8156 18.8929 61.0735 19.0648 61.3081 19.2367C62.0654 19.787 62.7848 20.387 63.4615 21.0329C65.0103 22.5159 66.3211 24.2268 67.3479 26.1057C67.5009 26.3828 67.6453 26.6625 67.7812 26.9447C67.8224 27.0268 67.856 27.1089 67.8946 27.1885C67.9952 27.3989 68.0932 27.6093 68.1835 27.8223C68.2247 27.9146 68.2608 28.007 68.2995 28.0994C68.3614 28.2508 68.4259 28.3996 68.4852 28.551C68.5084 28.6074 68.5265 28.6639 68.5471 28.7203C68.5677 28.7768 68.6142 28.9025 68.6451 28.9949C68.725 29.2104 68.7998 29.426 68.8695 29.6441L68.9468 29.9007C69.019 30.1316 69.0861 30.3625 69.148 30.5935C69.166 30.6679 69.1867 30.7397 69.2047 30.8141C69.2692 31.0707 69.3285 31.3273 69.3827 31.5634C69.3956 31.6224 69.4085 31.6788 69.4188 31.7379C69.4755 32.0124 69.5271 32.2895 69.5709 32.5666C69.5709 32.6026 69.5838 32.6359 69.589 32.6718C69.9283 34.8212 69.8785 37.0137 69.442 39.1456C69.3176 39.7393 69.1618 40.326 68.9752 40.9033C68.8927 41.1599 68.7998 41.4165 68.7044 41.6731C68.6735 41.7552 68.6399 41.8373 68.609 41.9168C68.5419 42.0887 68.4723 42.2581 68.3975 42.43C68.3588 42.5198 68.3202 42.6122 68.2789 42.702C68.2041 42.8662 68.1242 43.0304 68.0442 43.1921C67.9978 43.287 67.9514 43.382 67.9024 43.4743C67.8018 43.6693 67.6961 43.8592 67.5903 44.0465C67.5207 44.1671 67.4485 44.2826 67.3789 44.4006L67.2035 44.6829C67.121 44.8112 67.0384 44.9395 66.9456 45.0626L66.8063 45.2628C66.6954 45.4193 66.5846 45.5758 66.4711 45.7272C65.9837 46.3764 65.486 47.0102 65.0114 47.6747C61.9941 51.8931 57.1097 54.3076 51.7894 54.3076C49.3166 54.296 46.8708 53.7954 44.5943 52.8348C44.2075 52.6731 43.8206 52.4961 43.457 52.3216C43.4235 52.3986 43.39 52.4781 43.3538 52.5551L42.6601 54.1434L42.428 54.6745C41.0045 57.9897 38.1342 60.5146 34.9157 62.2183C30.9468 64.3275 28.0429 64.9177 25.9128 64.9177C24.5495 64.9085 23.1984 64.6619 21.9206 64.1889C18.9394 63.2113 15.4966 60.707 13.3922 57.0044C13.2908 56.8333 13.1954 56.6563 13.106 56.4732C13.0698 56.4065 13.0389 56.3398 13.0054 56.2731C12.9461 56.1525 12.8867 56.0319 12.83 55.9087C12.7939 55.8318 12.7604 55.7574 12.7269 55.6804C12.6727 55.5598 12.6211 55.4366 12.5695 55.3135L12.4767 55.0877C12.42 54.944 12.3658 54.8003 12.3142 54.654C12.2936 54.5976 12.273 54.5437 12.2549 54.4872C12.1853 54.2871 12.1208 54.0869 12.0589 53.8817L12.0048 53.6918C11.9635 53.5455 11.9222 53.3967 11.8861 53.2453C11.8655 53.1658 11.8474 53.0862 11.8294 53.0041C11.7959 52.8656 11.7649 52.7244 11.7366 52.5833C11.7211 52.5012 11.703 52.4191 11.6876 52.3267C11.6583 52.1728 11.6325 52.0163 11.6102 51.8572C11.6102 51.7905 11.587 51.7237 11.5792 51.6545C11.5483 51.4312 11.5199 51.2054 11.4993 50.9745V50.8667C11.3703 49.7053 11.3703 48.5333 11.4993 47.372C11.6013 46.4507 11.779 45.5393 12.0306 44.647V45.2217C12.2705 44.347 12.5703 43.4897 12.928 42.6558C13.2891 41.8108 13.6553 40.97 14.0266 40.1335C14.171 39.8128 14.3206 39.4972 14.4805 39.1841C15.5946 36.9954 17.1187 35.035 18.9239 33.7418C22.733 31.0143 25.7039 29.3618 28.5278 28.8897C28.9008 28.8281 29.2619 28.7794 29.6109 28.7434C30.1145 28.6894 30.6207 28.662 31.1273 28.6613C31.6942 28.6597 32.2605 28.6991 32.8216 28.7794C33.3645 27.1061 34.1781 25.5322 35.2303 24.1197C35.7255 23.4551 36.2361 22.8033 36.7183 22.1311C36.7725 22.0567 36.8215 21.9771 36.8757 21.9027C37.5436 20.9995 38.308 20.1711 39.1554 19.4317C39.2921 19.3111 39.4313 19.2008 39.5706 19.0853C39.7382 18.9493 39.911 18.8287 40.0864 18.6851L40.1405 18.644C40.3133 18.5157 40.4887 18.3874 40.6563 18.2719C41.212 17.893 41.7918 17.5502 42.3919 17.2456L42.428 17.2251C42.5982 17.1404 42.771 17.0583 42.9438 16.9685L43.1063 16.8941C43.2713 16.8222 43.4338 16.7504 43.5988 16.6836L43.7948 16.6067C43.9599 16.5425 44.1249 16.4784 44.29 16.4194L44.4447 16.368C44.8058 16.2449 45.1694 16.132 45.5408 16.0319L45.6439 16.0037L45.7471 15.9755C45.8631 15.9447 45.9792 15.9216 46.0952 15.8959L46.3995 15.8266C46.5414 15.7958 46.6832 15.7702 46.825 15.7445L47.1732 15.6829C47.3099 15.6598 47.4466 15.6393 47.5858 15.6214L47.9752 15.5726L48.3569 15.529C48.5581 15.511 48.7618 15.4982 48.9655 15.4854H49.1332C49.2131 15.4854 49.2982 15.4854 49.391 15.4854L49.9068 15.4725H49.9223M49.9223 13.4198H49.9017L49.3163 13.4326H49.2569C49.1873 13.4326 49.1151 13.4326 49.0455 13.4326H48.883H48.8546C48.5967 13.448 48.3801 13.4634 48.1764 13.4814L47.8386 13.5173H47.7483H47.7328L47.3125 13.5686C47.1577 13.5892 47.003 13.6148 46.8508 13.6405L46.4588 13.7072L45.9817 13.7996L45.6929 13.8663H45.6388L45.533 13.8894C45.4376 13.9099 45.3422 13.9304 45.2493 13.9561L45.1204 13.9894L45.0121 14.0202H44.9966C44.5995 14.1254 44.1842 14.2512 43.7716 14.3949L43.7304 14.4077L43.5988 14.4539C43.4028 14.5231 43.212 14.595 43.0392 14.6643L42.998 14.6797L42.82 14.7515C42.6369 14.8259 42.4487 14.9055 42.263 14.9876L42.1082 15.0594H42.0799C41.8529 15.1621 41.6672 15.2519 41.497 15.3365L41.448 15.3622C40.776 15.7029 40.1265 16.086 39.5036 16.5092H39.4907C39.2998 16.6375 39.1064 16.7658 38.8949 16.9325L38.8485 16.9659C38.6474 17.1173 38.4514 17.2687 38.2657 17.4201L38.1986 17.4765C38.0774 17.574 37.9407 17.6844 37.8041 17.805C36.8455 18.6428 35.9808 19.5814 35.2252 20.6044C35.1787 20.6659 35.1349 20.7301 35.0885 20.7942C35.0756 20.8173 35.0601 20.8379 35.0472 20.8584C34.7429 21.2792 34.4283 21.6974 34.093 22.1413C33.9228 22.3646 33.7526 22.5852 33.5772 22.811C32.7189 23.9611 32.0004 25.2083 31.4368 26.5265H31.1273C30.549 26.5497 29.9722 26.6028 29.3994 26.6856C29.0049 26.7266 28.5974 26.7831 28.1873 26.8498C25.2268 27.3424 22.194 28.8538 17.717 32.074C15.7313 33.4852 13.9725 35.6226 12.6366 38.2322C12.4638 38.576 12.2936 38.9301 12.1389 39.2816C11.7366 40.1848 11.3652 41.0162 11.0274 41.8296C10.8185 42.3145 10.6302 42.8072 10.4574 43.3024C10.2651 43.5264 10.1235 43.7889 10.0422 44.0722C9.75837 45.0746 9.5574 46.0984 9.44134 47.1333C9.2995 48.4296 9.2995 49.7373 9.44134 51.0335V51.1413C9.46455 51.3979 9.49549 51.6545 9.5316 51.9111C9.5316 51.9701 9.54965 52.024 9.55739 52.0804V52.142C9.58576 52.3242 9.61412 52.5012 9.64765 52.6757C9.66312 52.7681 9.68118 52.8604 9.70181 52.9528C9.73533 53.117 9.76886 53.2761 9.80496 53.4352V53.4865L9.85912 53.7123C9.90038 53.8791 9.9468 54.051 9.9958 54.2255L10.0113 54.282C10.0242 54.3358 10.0396 54.3897 10.0551 54.4436C10.1247 54.6745 10.1995 54.908 10.2769 55.1313C10.295 55.18 10.313 55.2262 10.3285 55.275L10.3465 55.3212C10.4058 55.4854 10.4677 55.6496 10.5296 55.8112C10.5632 55.8908 10.5941 55.9703 10.6276 56.0473V56.0704C10.6844 56.209 10.7437 56.3475 10.8056 56.4835L10.9216 56.7401C10.9887 56.8838 11.0557 57.0223 11.1228 57.1583L11.1511 57.2148L11.2363 57.3841C11.3471 57.6022 11.4529 57.7998 11.5612 57.9871C13.6888 61.7462 17.3998 64.8663 21.2424 66.1262L21.3378 66.157C22.8039 66.6898 24.3519 66.965 25.9128 66.9704C28.8888 66.9704 32.1511 66.0082 35.8879 64.0273C38.6551 62.5596 42.3352 59.9218 44.2694 55.665C44.2951 55.6188 44.3184 55.57 44.3416 55.5187L44.5453 55.0492C46.8648 55.9321 49.3265 56.3877 51.8101 56.3937C54.7242 56.3996 57.5997 55.7311 60.2095 54.441C62.7978 53.1466 65.0301 51.2443 66.7135 48.8987C67.0256 48.465 67.3479 48.0417 67.6883 47.5901L68.1422 46.9896C68.2841 46.8049 68.4182 46.615 68.5187 46.4765L68.5394 46.4482L68.676 46.2558C68.774 46.1095 68.8669 45.9658 68.9597 45.8221C69.0268 45.7169 69.0913 45.6117 69.1557 45.504L69.1841 45.4578C69.2537 45.3423 69.3259 45.2269 69.393 45.1088C69.5116 44.8984 69.6302 44.6829 69.7463 44.4596C69.7901 44.375 69.834 44.2903 69.8752 44.2031L69.9062 44.1389C70.0093 43.9311 70.0944 43.7566 70.1641 43.5872C70.2105 43.4846 70.2543 43.382 70.2982 43.2793C70.3781 43.0971 70.4555 42.9047 70.5354 42.7097L70.5561 42.6558C70.5844 42.5814 70.6154 42.507 70.6412 42.4326C70.7598 42.1195 70.8604 41.8373 70.9455 41.5704C71.1512 40.9245 71.3233 40.2685 71.4613 39.6049C71.9501 37.2325 72.006 34.792 71.6263 32.3999C71.6263 32.3716 71.6263 32.3383 71.6108 32.3049V32.2793C71.5593 31.9739 71.5051 31.6634 71.4432 31.3684L71.4123 31.2221V31.1734C71.3504 30.8937 71.2859 30.614 71.2163 30.3471L71.1544 30.1059C71.0847 29.8493 71.0125 29.5928 70.9326 29.3362L70.9171 29.2848C70.8939 29.2079 70.8707 29.1335 70.8449 29.0565C70.7727 28.8332 70.6927 28.5997 70.5999 28.3432L70.5741 28.2687C70.5483 28.1943 70.52 28.1174 70.4916 28.0429V28.0045L70.4374 27.8556C70.3884 27.7299 70.3369 27.599 70.2853 27.4836L70.2311 27.3578L70.1976 27.2706C70.1667 27.1988 70.1383 27.1243 70.1048 27.0525C69.9964 26.7959 69.883 26.5598 69.7875 26.3571L69.754 26.2802L69.6638 26.0877C69.5116 25.7772 69.3543 25.4745 69.1996 25.1871L69.1763 25.146C67.5551 22.1806 65.2954 19.6081 62.5589 17.6125H62.5434C62.2855 17.4252 62.0276 17.2379 61.7388 17.0531L61.6795 17.0121C61.4448 16.8607 61.1869 16.6965 60.8929 16.522L60.8053 16.4655C60.5732 16.3296 60.323 16.1884 60.0161 16.0216L59.8897 15.9498C59.6319 15.8112 59.374 15.6932 59.1444 15.5752L59.1058 15.5546L58.9459 15.4751C58.6287 15.3237 58.3011 15.18 57.9762 15.044C57.6925 14.926 57.3959 14.8105 57.0658 14.6899L56.8544 14.6155L56.7744 14.5873C56.5423 14.5078 56.3386 14.4385 56.1452 14.3769L55.8099 14.2768C55.6139 14.2178 55.4102 14.1614 55.2065 14.1049H55.16L54.8764 14.0331C54.6752 13.9817 54.4637 13.933 54.2162 13.8817L54.1414 13.8637L53.9557 13.8252C53.6514 13.7636 53.3471 13.7098 53.0505 13.6636L52.8674 13.6379H52.8004C52.5425 13.602 52.3361 13.5763 52.1402 13.5532L51.8358 13.4917H51.7714C51.5883 13.4737 51.4026 13.4609 51.2195 13.448L50.8352 13.4275C50.6633 13.4275 50.4854 13.4224 50.3014 13.4121H50.2266H49.9429L49.9223 13.4198Z" fill="#6FF2EE"/>
<path d="M43.4566 52.5729L43.5959 52.2573L43.7274 51.9545C44.113 50.9776 44.3628 49.9529 44.4701 48.9088C45.1174 42.6326 44.9395 36.3666 40.1943 32.6435C37.2157 30.3059 34.6059 27.8683 28.6125 28.8665C25.7757 29.3386 22.8203 30.9885 19.0113 33.7186C16.9481 35.1966 15.2512 37.547 14.1113 40.1103C13.7365 40.9502 13.3695 41.791 13.0102 42.6326C12.2934 44.2733 11.82 46.0088 11.6047 47.7849C10.653 56.5706 16.9817 62.5364 21.9976 64.1811C23.9344 64.8175 27.5964 66.1286 34.9875 62.2105C38.206 60.5042 41.066 57.987 42.5153 54.6924L43.4566 52.5729Z" fill="#FFB95E"/>
<path d="M44.0085 47.3646C43.8983 48.409 43.6485 49.4342 43.2657 50.4129L43.1342 50.7156C43.0852 50.8208 43.0414 50.9286 42.995 51.0338L42.0665 53.1533C40.6198 56.4505 37.7598 58.9676 34.5413 60.6739C27.1502 64.5895 23.4856 63.2783 21.5488 62.642C18.1421 61.5233 14.119 58.4082 12.1977 53.7614C11.5364 51.6981 11.3228 49.5187 11.5711 47.3671C11.6784 46.4419 11.8621 45.5271 12.1204 44.6319V45.4478C11.8625 47.8033 11.6046 50.2486 12.3654 52.4887C13.1262 54.7287 15.2537 56.7019 17.6263 56.4992C18.4954 56.4248 19.3542 56.0733 20.2052 56.2426C21.1439 56.4171 21.8454 57.1561 22.5881 57.7539C24.2979 59.149 26.4862 59.8273 28.6898 59.645C29.7798 59.5408 30.8323 59.1944 31.7697 58.6312C32.707 58.0681 33.5053 57.3026 34.1055 56.3914C34.7734 55.3317 35.137 54.0975 35.872 53.0814C37.2853 51.1211 39.9209 50.1717 40.9757 47.9983C41.5611 46.7847 41.5533 45.3837 41.5327 44.0366C41.4966 41.758 41.4614 39.4778 41.427 37.1959C41.4038 35.5229 41.3264 33.7165 40.3284 32.3848C41.7235 33.5286 42.8086 35.0018 43.4849 36.6698C44.4856 39.8618 44.3953 43.6209 44.0085 47.3646Z" fill="#D9724C"/>
<path d="M12.3605 49.2914C12.5683 47.5139 13.0366 45.7763 13.7505 44.1339C14.109 43.2923 14.4778 42.4507 14.8491 41.6116C15.9864 39.0457 17.6859 36.6979 19.749 35.2199C23.5581 32.4924 26.529 30.8399 29.3503 30.3678C35.3436 29.3696 37.9535 31.8098 40.9321 34.1448C41.9932 34.9743 42.8867 35.9965 43.5652 37.1572C42.8612 35.3805 41.6964 33.8213 40.1894 32.6386C37.2107 30.3011 34.6009 27.8635 28.6075 28.8616C25.7708 29.3337 22.8153 30.9836 19.0063 33.7137C16.9432 35.1917 15.2463 37.5421 14.1064 40.1054C13.7316 40.9453 13.3645 41.7861 13.0052 42.6277C12.2898 44.2703 11.818 46.0076 11.6049 47.7852C11.2307 50.9703 11.8827 54.1913 13.4668 56.984C12.4345 54.5584 12.0533 51.9076 12.3605 49.2914Z" fill="#FFEA5E"/>
<path d="M34.5498 43.5187C35.1089 42.3852 34.734 41.0619 33.7123 40.5631C32.6907 40.0643 31.4093 40.5788 30.8502 41.7123C30.2911 42.8458 30.6661 44.169 31.6877 44.6679C32.7093 45.1667 33.9907 44.6522 34.5498 43.5187Z" fill="#78422F"/>
<path d="M25.9075 39.2989C26.5827 37.9301 26.1298 36.332 24.8959 35.7295C23.6621 35.127 22.1145 35.7483 21.4393 37.1172C20.7641 38.486 21.217 40.0841 22.4509 40.6866C23.6848 41.2891 25.2323 40.6678 25.9075 39.2989Z" fill="#78422F"/>
<path d="M24.7725 50.1203C25.3316 48.9868 24.9566 47.6635 23.935 47.1647C22.9134 46.6658 21.632 47.1803 21.0729 48.3138C20.5138 49.4473 20.8887 50.7706 21.9103 51.2694C22.9319 51.7683 24.2134 51.2538 24.7725 50.1203Z" fill="#78422F"/>
<path d="M28.7394 44.2438C29.0864 43.5403 28.8536 42.719 28.2194 42.4093C27.5852 42.0996 26.7898 42.4189 26.4428 43.1224C26.0958 43.8259 26.3286 44.6473 26.9628 44.9569C27.5969 45.2666 28.3924 44.9473 28.7394 44.2438Z" fill="#78422F"/>
<path d="M15.5185 50.5646C15.6917 50.2135 15.5751 49.8033 15.258 49.6485C14.9409 49.4937 14.5434 49.6528 14.3702 50.0039C14.197 50.355 14.3137 50.7652 14.6308 50.92C14.9479 51.0748 15.3453 50.9157 15.5185 50.5646Z" fill="#78422F"/>
<path d="M28.5937 57.6078C28.7669 57.2567 28.6503 56.8465 28.3332 56.6917C28.0161 56.5369 27.6186 56.696 27.4454 57.0471C27.2722 57.3982 27.3889 57.8084 27.706 57.9632C28.0231 58.118 28.4205 57.9589 28.5937 57.6078Z" fill="#78422F"/>
<path d="M31.253 53.665C31.6 52.9615 31.3672 52.1401 30.733 51.8304C30.0988 51.5208 29.3034 51.8401 28.9564 52.5436C28.6094 53.2471 28.8422 54.0684 29.4764 54.3781C30.1106 54.6878 30.906 54.3685 31.253 53.665Z" fill="#78422F"/>
<path d="M18.5421 54.5351C18.8891 53.8316 18.6563 53.0102 18.0221 52.7006C17.3879 52.3909 16.5925 52.7102 16.2455 53.4137C15.8985 54.1172 16.1313 54.9385 16.7655 55.2482C17.3997 55.5579 18.1951 55.2386 18.5421 54.5351Z" fill="#78422F"/>
<path d="M17.4779 43.2155C17.7032 42.7588 17.5521 42.2256 17.1403 42.0246C16.7286 41.8235 16.2123 42.0308 15.987 42.4875C15.7617 42.9442 15.9129 43.4774 16.3246 43.6785C16.7363 43.8795 17.2527 43.6722 17.4779 43.2155Z" fill="#78422F"/>
<path d="M38.5307 37.1484C38.7559 36.6917 38.6048 36.1585 38.1931 35.9574C37.7814 35.7564 37.265 35.9637 37.0397 36.4204C36.8145 36.8771 36.9656 37.4103 37.3773 37.6113C37.789 37.8124 38.3054 37.6051 38.5307 37.1484Z" fill="#78422F"/>
<path d="M43.4566 52.5729L43.5959 52.2573L43.7274 51.9545C44.113 50.9776 44.3628 49.9529 44.4701 48.9088C45.1174 42.6326 44.9395 36.3666 40.1943 32.6435C37.2157 30.3059 34.6058 27.8683 28.6125 28.8665C25.7757 29.3386 22.8203 30.9885 19.0113 33.7186C16.9481 35.1966 15.2512 37.547 14.1113 40.1103C13.7365 40.9502 13.3695 41.791 13.0102 42.6326C12.2934 44.2733 11.82 46.0088 11.6047 47.7849C10.653 56.5706 16.9817 62.5364 21.9976 64.1811C23.9344 64.8175 27.5964 66.1286 34.9875 62.2105C38.206 60.5042 41.066 57.987 42.5153 54.6924L43.4566 52.5729Z" stroke="#5C2929" stroke-width="4" stroke-linecap="round" stroke-linejoin="round"/>
<path d="M29.4301 33.7543C28.8034 33.9108 28.9427 34.8448 29.5745 34.8679C30.5777 34.8961 30.3998 33.5157 29.4301 33.7543Z" fill="#78422F"/>
<path d="M36.4291 47.5599C35.8024 47.7164 35.9417 48.6504 36.5735 48.6735C37.5741 48.7068 37.3936 47.3212 36.4291 47.5599Z" fill="#78422F"/>
<path d="M38.4255 45.1913C37.5074 45.4171 37.7111 46.7873 38.637 46.8206C40.1018 46.872 39.8413 44.8397 38.4255 45.1913Z" fill="#78422F"/>
<path d="M40.1867 32.6433C38.2964 31.1602 36.553 29.6386 33.9973 28.9766C33.3713 30.0402 32.867 31.1703 32.4938 32.3456C29.7267 40.9337 34.0412 50.7612 42.2292 55.3362C42.3375 55.1258 42.4407 54.9102 42.5387 54.6921L43.4671 52.5701L43.6063 52.2545L43.7378 51.9517C44.1234 50.9748 44.3733 49.9501 44.4806 48.906C45.1098 42.6323 44.9319 36.3664 40.1867 32.6433Z" fill="#5C2929"/>
<path d="M57.251 16.9199C49.4292 13.6612 41.1896 15.9936 36.8339 22.0774C36.3439 22.7625 35.8255 23.4245 35.32 24.0968C34.247 25.5352 33.4216 27.1411 32.8778 28.8488C29.8837 38.1426 35.1782 48.8937 44.7047 52.8606C52.529 56.1194 60.7686 53.7869 65.1244 47.7032C65.6144 47.0181 66.1327 46.3561 66.6356 45.6838C67.7084 44.2457 68.5345 42.6409 69.0804 40.9343C72.0642 31.638 66.7671 20.8868 57.251 16.9199Z" fill="#E88827"/>
<path d="M64.149 48.3013C71.455 42.1757 71.8586 30.6933 65.0503 22.6547C58.2421 14.6161 46.8003 13.0653 39.4943 19.1909C32.1883 25.3165 31.7848 36.7988 38.593 44.8374C45.4012 52.876 56.843 54.4268 64.149 48.3013Z" fill="#FFBE33"/>
<path d="M43.5187 49.9533C44.0058 49.9533 44.4007 49.5604 44.4007 49.0758C44.4007 48.5911 44.0058 48.1982 43.5187 48.1982C43.0316 48.1982 42.6367 48.5911 42.6367 49.0758C42.6367 49.5604 43.0316 49.9533 43.5187 49.9533Z" fill="#FFBE33"/>
<path d="M33.835 33.8446C34.1991 37.1866 35.3919 40.3863 37.3062 43.1563C48.0215 39.6461 58.8941 36.4695 69.8003 33.647C69.519 31.0098 68.7143 28.4543 67.4329 26.1289L33.835 33.8446Z" fill="#FFD952"/>
<path d="M50.0461 16.7292C52.3508 16.7373 54.6306 17.2041 56.7512 18.102C65.6613 21.8123 70.6412 31.8784 67.8405 40.5409C67.3391 42.1129 66.5792 43.5912 65.5917 44.9158L65.094 45.5752C64.7536 46.0217 64.4028 46.4861 64.0624 46.9583C61.2875 50.8302 56.8415 53.0523 51.8874 53.0523C49.5826 53.0427 47.303 52.5751 45.1823 51.677C36.2722 47.9667 31.2949 37.9006 34.093 29.2381C34.5968 27.671 35.3566 26.1973 36.3418 24.876C36.5069 24.6553 36.6745 24.4347 36.8422 24.2166C37.1826 23.7675 37.5333 23.3057 37.8737 22.8335C40.646 18.9616 45.0817 16.7421 50.0461 16.7421M50.0461 15.4591C44.7284 15.4591 39.8414 17.8736 36.8241 22.0894C36.3341 22.7745 35.8157 23.4365 35.3103 24.1088C34.2372 25.5472 33.4119 27.1532 32.8681 28.8609C29.874 38.1546 35.1684 48.9058 44.6949 52.8727C46.9709 53.8353 49.4169 54.3369 51.89 54.3481C57.2103 54.3481 62.0947 51.9336 65.1146 47.7152C65.6046 47.0301 66.123 46.3681 66.6258 45.6958C67.6987 44.2578 68.5248 42.6529 69.0706 40.9463C72.0647 31.6372 66.7677 20.886 57.2516 16.9191C54.9755 15.9571 52.5294 15.4564 50.0564 15.4463L50.0461 15.4591Z" fill="#FFD952"/>
<path d="M63.547 21.053C61.7241 19.299 59.5895 17.8973 57.2519 16.9193C47.7254 12.9498 37.5749 17.2682 34.5808 26.5645C34.4106 27.0777 34.2739 27.6166 34.1553 28.1477L63.547 21.053Z" fill="#FFD952"/>
<path d="M57.251 16.9199C49.4292 13.6612 41.1896 15.9936 36.8339 22.0774C36.3439 22.7625 35.8255 23.4245 35.32 24.0968C34.247 25.5352 33.4216 27.1411 32.8778 28.8488C29.8837 38.1426 35.1782 48.8937 44.7047 52.8606C52.529 56.1194 60.7686 53.7869 65.1244 47.7032C65.6144 47.0181 66.1327 46.3561 66.6356 45.6838C67.7084 44.2457 68.5345 42.6409 69.0804 40.9343C72.0642 31.638 66.7671 20.8868 57.251 16.9199Z" stroke="#5C2929" stroke-width="4" stroke-linecap="round" stroke-linejoin="round"/>
<path d="M61.9667 45.7249C67.981 40.6823 68.3143 31.2314 62.7111 24.6157C57.108 17.9999 47.6902 16.7246 41.6759 21.7671C35.6617 26.8097 35.3284 36.2606 40.9315 42.8763C46.5347 49.4921 55.9525 50.7674 61.9667 45.7249Z" fill="#E88827"/>
<path d="M45.1593 43.9361C45.4641 43.9361 45.7112 43.6903 45.7112 43.387C45.7112 43.0837 45.4641 42.8379 45.1593 42.8379C44.8545 42.8379 44.6074 43.0837 44.6074 43.387C44.6074 43.6903 44.8545 43.9361 45.1593 43.9361Z" fill="#FFD952"/>
<path d="M61.6408 41.7197C62.1991 41.7197 62.6517 41.2694 62.6517 40.7138C62.6517 40.1583 62.1991 39.708 61.6408 39.708C61.0825 39.708 60.6299 40.1583 60.6299 40.7138C60.6299 41.2694 61.0825 41.7197 61.6408 41.7197Z" fill="#CC5B22"/>
<path d="M49.4299 46.5459C49.9882 46.5459 50.4408 46.0955 50.4408 45.54C50.4408 44.9845 49.9882 44.5342 49.4299 44.5342C48.8716 44.5342 48.4189 44.9845 48.4189 45.54C48.4189 46.0955 48.8716 46.5459 49.4299 46.5459Z" fill="#CC5B22"/>
<path d="M56.7687 23.206C57.3271 23.206 57.7797 22.7557 57.7797 22.2002C57.7797 21.6447 57.3271 21.1943 56.7687 21.1943C56.2104 21.1943 55.7578 21.6447 55.7578 22.2002C55.7578 22.7557 56.2104 23.206 56.7687 23.206Z" fill="#CC5B22"/>
<path d="M40.6564 30.5315C41.1435 30.5315 41.5384 30.1386 41.5384 29.6539C41.5384 29.1693 41.1435 28.7764 40.6564 28.7764C40.1693 28.7764 39.7744 29.1693 39.7744 29.6539C39.7744 30.1386 40.1693 30.5315 40.6564 30.5315Z" fill="#FFD952"/>
<path d="M52.9445 21.5363C53.4316 21.5363 53.8265 21.1434 53.8265 20.6588C53.8265 20.1741 53.4316 19.7812 52.9445 19.7812C52.4574 19.7812 52.0625 20.1741 52.0625 20.6588C52.0625 21.1434 52.4574 21.5363 52.9445 21.5363Z" fill="#FFD952"/>
<path d="M61.4212 29.3C61.8243 29.3 62.1511 28.9749 62.1511 28.5738C62.1511 28.1728 61.8243 27.8477 61.4212 27.8477C61.0182 27.8477 60.6914 28.1728 60.6914 28.5738C60.6914 28.9749 61.0182 29.3 61.4212 29.3Z" fill="#FFD952"/>
<path d="M59.5723 39.1683C59.7916 38.655 59.909 38.1043 59.9178 37.5466C59.9311 36.8611 59.8237 36.1785 59.6006 35.5298C59.331 34.6854 58.8992 33.9012 58.3292 33.2205C57.7821 32.5666 57.1018 32.0358 56.3332 31.663C55.2073 31.327 54.0421 31.1389 52.8671 31.1036L51.6963 31.0549C51.4494 31.0326 51.2014 31.0257 50.9536 31.0343C50.6055 31.0343 50.3063 31.0343 50.0665 31.0343C49.7917 31.0216 49.5217 30.959 49.2696 30.8496C49.1313 30.7936 49.0068 30.7083 48.9049 30.5998C48.8029 30.4913 48.7259 30.362 48.679 30.2209C48.6457 30.119 48.6292 30.0125 48.63 29.9053C48.631 29.792 48.6631 29.6811 48.7229 29.5846C48.7618 29.5203 48.8049 29.4586 48.8518 29.3998C48.9184 29.3212 48.9988 29.2551 49.0891 29.2048C49.1767 29.1535 49.2464 29.115 49.2954 29.0919L49.5223 28.9842L49.7338 28.8841L49.7776 28.8687C50.0322 28.8009 50.3012 28.8089 50.5513 28.8918C50.7541 28.9641 50.9327 29.0911 51.0671 29.2587C51.1702 29.3896 51.2682 29.5153 51.3636 29.6513C51.4346 29.7491 51.5321 29.8248 51.6447 29.8694C51.7816 29.9185 51.9306 29.923 52.0703 29.8822C52.6015 29.7591 53.3907 29.5589 54.4171 29.2818C55.3867 29.0252 56.1449 28.8251 56.6762 28.6993C56.3259 27.954 55.8851 27.2543 55.3635 26.6158C54.9384 26.0902 54.4124 25.6541 53.8162 25.3329C53.2715 25.048 52.6788 24.8654 52.0677 24.794C51.3656 24.7272 50.6579 24.7471 49.9607 24.853L49.7725 24.889L49.708 24.6965C49.6796 24.6042 49.6229 24.4143 49.5429 24.1243C49.463 23.8344 49.4037 23.6317 49.3547 23.4828C49.0968 22.7131 48.8931 22.5899 48.8595 22.6002C48.6249 22.6541 48.2896 22.7336 47.8538 22.8568C47.4179 22.9799 47.0801 23.0466 46.8377 23.1134L46.1001 23.2827C46.0903 23.331 46.0903 23.3807 46.1001 23.429C46.1207 23.5034 46.1543 23.6111 46.1981 23.7497L46.5127 24.6324C46.6133 24.9429 46.6933 25.1661 46.7474 25.2892L46.8377 25.4971L46.6365 25.5997C46.3116 25.7614 46.0176 25.9205 45.7649 26.0744C45.4776 26.2521 45.2012 26.4466 44.937 26.6569C44.6668 26.8674 44.4195 27.1056 44.1995 27.3676C43.9829 27.6385 43.7977 27.9329 43.6476 28.2452C43.4818 28.5815 43.3704 28.9417 43.3175 29.3126C43.2608 29.751 43.2565 30.1946 43.3046 30.634C43.364 31.1786 43.4816 31.7154 43.6553 32.2352C44.1015 33.5951 44.8339 34.583 45.8345 35.1654C46.8351 35.7479 48.4134 36.0994 50.4559 36.1764L51.4874 36.2354C51.6318 36.2354 51.8511 36.2354 52.1425 36.2534C52.4339 36.2714 52.6583 36.2688 52.8078 36.2842C52.9574 36.2996 53.107 36.3252 53.2952 36.3637C53.4813 36.3882 53.6562 36.4659 53.7987 36.5876C53.9411 36.7092 54.0448 36.8695 54.0973 37.0488C54.1729 37.2357 54.2008 37.4383 54.1782 37.6385C54.1557 37.8387 54.0836 38.0302 53.9683 38.1958C53.7353 38.5027 53.3963 38.7129 53.0167 38.7859C52.8427 38.8351 52.6606 38.8488 52.4811 38.8263C52.3017 38.8038 52.1286 38.7456 51.9723 38.6551C51.713 38.5054 51.5068 38.2795 51.3817 38.0085C51.298 37.8192 51.197 37.638 51.08 37.4671C51.031 37.3952 50.982 37.3465 50.9536 37.3542L45.819 38.5345C45.5095 38.6063 45.4451 38.6961 45.4373 38.7141C45.4296 38.7321 45.4219 38.7398 45.4373 38.7885C45.9712 40.1613 46.6907 41.221 47.5752 41.9395C48.4598 42.6579 49.6229 43.0633 51.0516 43.1583C51.1599 43.1583 51.3095 43.1583 51.49 43.1583C51.6299 43.1468 51.7705 43.1468 51.9104 43.1583C52.0379 43.1822 52.1585 43.2339 52.2637 43.3096C52.4245 43.4146 52.5516 43.5633 52.6299 43.7382C52.7312 43.9596 52.8173 44.1877 52.8878 44.4207L53.0141 44.8081C53.0528 44.9262 53.0812 45.0211 53.0992 45.1007L53.272 45.2213C53.3228 45.2612 53.3772 45.2964 53.4345 45.3265C53.7646 45.2803 54.2546 45.1982 54.8916 45.0699L56.3822 44.726C56.4334 44.7202 56.4809 44.6966 56.5163 44.6593C56.5334 44.6094 56.5334 44.5553 56.5163 44.5054L56.3951 44.1307C56.329 44.0115 56.2729 43.8871 56.2274 43.7587L55.7839 42.4013L55.9618 42.3372C56.4639 42.0931 56.9498 41.8171 57.4163 41.5109C57.862 41.2087 58.2736 40.8594 58.6439 40.4692C59.0259 40.0916 59.3399 39.6516 59.5723 39.1683Z" fill="#CC5B22"/>
<path d="M60.2763 38.5684C60.496 38.0552 60.6133 37.5045 60.6219 36.9468C60.6364 36.2612 60.529 35.5784 60.3047 34.93C60.0354 34.086 59.6046 33.3018 59.0359 32.6206C58.4878 31.9667 57.8066 31.4359 57.0372 31.0631C55.9176 30.7256 54.7585 30.535 53.5893 30.4961L52.4159 30.4499C52.1699 30.4264 51.9227 30.4187 51.6757 30.4268C51.3276 30.4268 51.0284 30.4268 50.786 30.4268C50.5119 30.4156 50.2424 30.3529 49.9917 30.242C49.8527 30.1871 49.7277 30.1022 49.6256 29.9935C49.5235 29.8849 49.4469 29.755 49.4011 29.6134C49.3658 29.5119 49.3484 29.4052 49.3495 29.2978C49.3514 29.1842 49.3844 29.0733 49.445 28.9771C49.483 28.9122 49.5261 28.8504 49.5739 28.7923C49.6406 28.7137 49.721 28.6476 49.8112 28.5973C49.8963 28.546 49.9659 28.5101 50.0175 28.4844L50.2418 28.3766L50.4559 28.2766H50.4997C50.7539 28.2067 51.0233 28.2138 51.2734 28.2971C51.4759 28.3701 51.6543 28.497 51.7892 28.664C51.8923 28.7949 51.9903 28.9206 52.0858 29.0566C52.1562 29.1539 52.2527 29.2294 52.3643 29.2747C52.5034 29.3194 52.6532 29.3194 52.7924 29.2747C53.3236 29.1541 54.1128 28.9514 55.1392 28.6743C56.1088 28.4177 56.867 28.2175 57.3983 28.0944C57.0467 27.349 56.6059 26.6486 56.0856 26.0083C55.6594 25.4839 55.1336 25.0479 54.5383 24.7253C53.9935 24.4413 53.4008 24.2595 52.7898 24.1891C52.0879 24.12 51.38 24.1389 50.6828 24.2455L50.4817 24.2737L50.4198 24.0839C50.3888 23.9889 50.3347 23.799 50.2547 23.5091C50.1748 23.2191 50.1155 23.0164 50.0665 22.8676C49.8086 22.0978 49.6049 21.9747 49.5713 21.9849C49.3341 22.0388 48.9988 22.1184 48.563 22.2415C48.1271 22.3647 47.7893 22.4314 47.5495 22.4853L46.8119 22.6572C46.8024 22.7046 46.8024 22.7535 46.8119 22.8009C46.8325 22.8753 46.8661 22.9831 46.9125 23.1216L47.2091 24.03C47.3122 24.343 47.3922 24.5637 47.4463 24.6868L47.5366 24.8947L47.3328 24.9973C47.0105 25.159 46.7165 25.3206 46.4612 25.4746C46.1746 25.6511 45.899 25.8448 45.6359 26.0545C45.3648 26.2649 45.1168 26.5031 44.8958 26.7652C44.6797 27.0365 44.4946 27.3308 44.3439 27.6428C44.1781 27.9791 44.0667 28.3393 44.0138 28.7102C43.9615 29.1491 43.9615 29.5927 44.0138 30.0316C44.072 30.5764 44.1896 31.1133 44.3645 31.6328C44.8107 32.9953 45.5431 33.9806 46.5411 34.563C47.5392 35.1455 49.12 35.497 51.1625 35.574L52.1941 35.633C52.3385 35.633 52.5577 35.633 52.8517 35.651C53.1457 35.669 53.3675 35.6664 53.5145 35.6818C53.6615 35.6972 53.8162 35.7228 54.0045 35.7613C54.2014 35.7958 54.3846 35.8847 54.5331 36.0179C54.6594 36.1389 54.7526 36.2899 54.8039 36.4567C54.8799 36.6433 54.9082 36.8458 54.8861 37.046C54.8641 37.2462 54.7924 37.4378 54.6776 37.6036C54.4435 37.9107 54.1037 38.1209 53.7234 38.1938C53.5513 38.2416 53.3714 38.2546 53.1943 38.2321C53.0171 38.2097 52.8463 38.1521 52.6918 38.0629C52.4327 37.9135 52.2257 37.6888 52.0987 37.4189C52.0148 37.2294 51.9147 37.0474 51.7995 36.8749C51.7505 36.8031 51.6989 36.7543 51.6731 36.762L46.5385 37.9423C46.2291 38.0142 46.1646 38.104 46.1543 38.122C46.144 38.1399 46.1414 38.1476 46.1543 38.1989C46.6881 39.5691 47.4076 40.6314 48.2896 41.3499C49.1716 42.0683 50.3373 42.4737 51.766 42.5661C51.8769 42.5661 52.0239 42.5661 52.207 42.5661C52.346 42.5545 52.4857 42.5545 52.6247 42.5661C52.7526 42.5916 52.8738 42.6431 52.9806 42.7175C53.1415 42.8236 53.2685 42.9731 53.3468 43.1486C53.4474 43.3704 53.5336 43.5983 53.6047 43.8311L53.7311 44.216C53.7672 44.334 53.7956 44.4315 53.8162 44.5085L53.9864 44.6291C54.038 44.6692 54.0933 44.7044 54.1515 44.7343C54.4816 44.6881 54.969 44.606 55.6085 44.4777L57.0991 44.1339C57.1261 44.1367 57.1534 44.1318 57.1777 44.1197C57.2019 44.1076 57.2222 44.0888 57.236 44.0655C57.2499 44.0423 57.2567 44.0156 57.2558 43.9886C57.2548 43.9616 57.2461 43.9354 57.2307 43.9132L57.1069 43.5386C57.0425 43.4189 56.9873 43.2945 56.9418 43.1665L56.5008 41.8246L56.6865 41.7322C57.1883 41.4875 57.6741 41.2116 58.141 40.906C58.5863 40.6032 58.9978 40.2539 59.3686 39.8642C59.7429 39.4867 60.0499 39.0485 60.2763 38.5684Z" fill="#FAFF5C"/>
</g>
<defs>
<radialGradient id="paint0_radial_1_13140" cx="0" cy="0" r="1" gradientUnits="userSpaceOnUse" gradientTransform="translate(40.001 40) scale(37.67 37.4803)">
<stop offset="0.13" stop-color="#45FFC4"/>
<stop offset="0.42" stop-color="#34DCBE"/>
<stop offset="1" stop-color="#0E8BB0"/>
</radialGradient>
<clipPath id="clip0_1_13140">
<rect width="80" height="80" rx="4" fill="white"/>
</clipPath>
</defs>
</svg>
