<svg width="80" height="80" viewBox="0 0 80 80" fill="none" xmlns="http://www.w3.org/2000/svg">
<g clip-path="url(#clip0_1_12924)">
<path d="M68.5239 3.76147L9.64509 3.76147C5.15147 3.76147 1.50867 7.38593 1.50867 11.8569L1.50867 70.8165C1.50867 75.2874 5.15147 78.9119 9.64509 78.9119H68.5239C73.0175 78.9119 76.6603 75.2874 76.6603 70.8165V11.8569C76.6603 7.38593 73.0175 3.76147 68.5239 3.76147Z" fill="url(#paint0_radial_1_12924)"/>
<path d="M68.7715 21.7489C69.5249 21.7489 70.1357 21.1412 70.1357 20.3915C70.1357 19.6419 69.5249 19.0342 68.7715 19.0342C68.018 19.0342 67.4072 19.6419 67.4072 20.3915C67.4072 21.1412 68.018 21.7489 68.7715 21.7489Z" fill="#FF6445"/>
<path d="M18.777 70.4216C19.7583 70.4216 20.5538 69.63 20.5538 68.6537C20.5538 67.6773 19.7583 66.8857 18.777 66.8857C17.7956 66.8857 17.0001 67.6773 17.0001 68.6537C17.0001 69.63 17.7956 70.4216 18.777 70.4216Z" fill="#FF6445"/>
<path d="M50.9229 12.0009C51.4143 12.0009 51.8126 11.6046 51.8126 11.1157C51.8126 10.6268 51.4143 10.2305 50.9229 10.2305C50.4315 10.2305 50.0332 10.6268 50.0332 11.1157C50.0332 11.6046 50.4315 12.0009 50.9229 12.0009Z" fill="#FF6445"/>
<path d="M12.6983 60.3447C13.1897 60.3447 13.588 59.9484 13.588 59.4595C13.588 58.9706 13.1897 58.5742 12.6983 58.5742C12.2069 58.5742 11.8086 58.9706 11.8086 59.4595C11.8086 59.9484 12.2069 60.3447 12.6983 60.3447Z" fill="#FF6445"/>
<path d="M0 6.04272L0 73.9547C-1.45114e-07 75.5576 0.639782 77.0948 1.77867 78.2285C2.91757 79.3621 4.46233 79.9993 6.07331 80H73.9267C74.7245 80 75.5144 79.8436 76.2514 79.5398C76.9885 79.236 77.6581 78.7906 78.2221 78.2292C78.7861 77.6678 79.2334 77.0014 79.5384 76.268C79.8435 75.5345 80.0003 74.7485 80 73.9547V6.04272C80 4.44009 79.3601 2.9031 78.2212 1.76987C77.0822 0.636642 75.5374 0 73.9267 0L6.07331 0C4.46277 0.000680001 2.9184 0.637541 1.77958 1.77062C0.640767 2.90371 0.000683442 4.4403 0 6.04272ZM71.4793 75.2171H8.52326C7.53151 75.2171 6.58038 74.8252 5.8791 74.1274C5.17783 73.4297 4.78386 72.4833 4.78386 71.4966L4.78386 8.50343C4.78386 7.51667 5.17783 6.57033 5.8791 5.87259C6.58038 5.17485 7.53151 4.78286 8.52326 4.78286L71.4793 4.78286C72.4711 4.78286 73.4222 5.17485 74.1235 5.87259C74.8248 6.57033 75.2187 7.51667 75.2187 8.50343V71.4966C75.218 72.4831 74.8239 73.4291 74.1227 74.1267C73.4216 74.8243 72.4709 75.2165 71.4793 75.2171Z" fill="#FFBE33"/>
<path d="M76.7661 40.0791V71.4961C76.764 72.8906 76.2064 74.2273 75.2154 75.2133C74.2243 76.1994 72.8808 76.7542 71.4793 76.7563H8.52326C7.12155 76.7549 5.77764 76.2003 4.78648 75.2141C3.79532 74.2279 3.23788 72.8908 3.23652 71.4961L3.23652 40.0791H0L0 73.9491C-1.45114e-07 75.552 0.639782 77.0893 1.77867 78.2229C2.91757 79.3565 4.46233 79.9938 6.07331 79.9944H73.9267C74.7245 79.9944 75.5144 79.838 76.2514 79.5342C76.9885 79.2304 77.6581 78.785 78.2221 78.2236C78.7861 77.6623 79.2334 76.9958 79.5384 76.2624C79.8435 75.5289 80.0003 74.7429 80 73.9491V40.0791H76.7661Z" fill="#E88827"/>
<path d="M71.4791 4.78271C72.4709 4.78271 73.422 5.1747 74.1233 5.87244C74.8246 6.57018 75.2185 7.51653 75.2185 8.50328V71.4964C75.2179 72.483 74.8237 73.4289 74.1225 74.1265C73.4214 74.8241 72.4707 75.2163 71.4791 75.217H8.52307C7.53132 75.217 6.58019 74.825 5.87891 74.1273C5.17764 73.4295 4.78367 72.4832 4.78367 71.4964L4.78367 8.50328C4.78367 7.51653 5.17764 6.57018 5.87891 5.87244C6.58019 5.1747 7.53132 4.78271 8.52307 4.78271L71.4791 4.78271ZM71.4791 3.24316L8.52307 3.24316C7.12136 3.24452 5.77745 3.79915 4.78629 4.78532C3.79513 5.77149 3.23769 7.10863 3.23633 8.50328L3.23633 71.4964C3.23769 72.8911 3.79513 74.2282 4.78629 75.2144C5.77745 76.2005 7.12136 76.7552 8.52307 76.7565H71.4791C72.8806 76.7545 74.2242 76.1997 75.2152 75.2136C76.2062 74.2276 76.7638 72.8909 76.7659 71.4964V8.50328C76.7638 7.10884 76.2062 5.77209 75.2152 4.78607C74.2242 3.80004 72.8806 3.2452 71.4791 3.24316Z" fill="#FFD952"/>
<path d="M0 6.04272L0 73.9547C-1.45114e-07 75.5576 0.639782 77.0948 1.77867 78.2285C2.91757 79.3621 4.46233 79.9993 6.07331 80H73.9267C74.7245 80 75.5144 79.8436 76.2514 79.5398C76.9885 79.236 77.6581 78.7906 78.2221 78.2292C78.7861 77.6678 79.2334 77.0014 79.5384 76.268C79.8435 75.5345 80.0003 74.7485 80 73.9547V6.04272C80 4.44009 79.3601 2.9031 78.2212 1.76987C77.0822 0.636642 75.5374 0 73.9267 0L6.07331 0C4.46277 0.000680001 2.9184 0.637541 1.77958 1.77062C0.640767 2.90371 0.000683442 4.4403 0 6.04272ZM71.4793 75.2171H8.52326C7.53151 75.2171 6.58038 74.8252 5.8791 74.1274C5.17783 73.4297 4.78386 72.4833 4.78386 71.4966L4.78386 8.50343C4.78386 7.51668 5.17783 6.57033 5.8791 5.87259C6.58038 5.17485 7.53151 4.78286 8.52326 4.78286L71.4793 4.78286C72.4711 4.78286 73.4222 5.17485 74.1235 5.87259C74.8248 6.57033 75.2187 7.51668 75.2187 8.50343V71.4966C75.218 72.4831 74.8239 73.4291 74.1227 74.1267C73.4216 74.8243 72.4709 75.2165 71.4793 75.2171Z" stroke="#5C2929" stroke-width="4" stroke-linecap="round" stroke-linejoin="round"/>
<path d="M70.1457 27.4549L61.166 28.2247C59.0126 26.9263 56.2661 26.5902 53.9451 27.5575C54.778 25.6382 54.2339 22.9107 53.2823 21.0453C52.7971 20.1155 52.1258 19.2945 51.3098 18.6325C50.4937 17.9706 49.5501 17.4819 48.5371 17.1964C47.5066 16.9221 46.4315 16.8541 45.3744 16.9964C44.3172 17.1387 43.299 17.4884 42.3787 18.0252C41.9849 15.733 41.3718 13.4836 40.5477 11.3076C40.5477 11.3076 39.9055 15.0128 39.4568 18.9643C37.5587 17.9636 34.9076 18.292 33.0354 19.4108C29.8891 18.6641 26.387 19.0387 23.7307 20.8733C21.0744 22.708 19.4652 26.1232 20.2002 29.251C18.8772 30.4955 18.3099 32.6714 18.4465 34.4804C18.5207 35.3874 18.794 36.2672 19.2472 37.0577C19.7003 37.8482 20.3223 38.5302 21.0693 39.0554C18.8201 40.8592 17.2186 43.3393 16.5046 46.1245C15.7954 48.8931 16.2467 52.0004 17.972 54.2789C18.8015 55.3557 19.8945 56.2029 21.1466 56.7397L13.3223 66.0796L25.1955 57.2862C25.3193 57.2657 25.4534 57.2451 25.5695 57.2169C24.739 59.1439 26.1342 61.6688 27.8905 62.8414C29.6467 64.014 31.8774 64.2065 33.9715 63.9807C36.3131 63.7241 38.6522 62.9697 40.4703 61.4789C42.2884 59.9881 43.5237 57.7019 43.4051 55.3618C45.2174 56.6841 47.2978 57.5973 49.5011 58.0378C51.7045 58.4783 53.9779 58.4355 56.1629 57.9123C58.9301 57.2477 61.6431 55.662 62.8681 53.1038C64.093 50.5455 63.3065 46.9738 60.7379 45.7422C63.2085 43.887 64.8306 40.7925 65.3025 37.7468C65.674 35.3228 65.1381 32.8474 63.7965 30.7906L70.1457 27.4549Z" fill="#FFD478"/>
<path d="M51.3557 67.0838C51.1698 67.0841 50.9874 67.0344 50.8276 66.94C50.6678 66.8456 50.5366 66.71 50.4479 66.5476C47.9335 61.9289 44.4881 55.6168 38.2265 55.2575C38.0486 55.2575 37.8732 55.2421 37.7107 55.2421C31.9417 55.2421 27.7433 60.8743 24.9658 64.6026C24.8695 64.7312 24.7442 64.8356 24.6 64.9074C24.4557 64.9791 24.2966 65.0162 24.1354 65.0157C23.9267 65.0151 23.7228 64.9525 23.55 64.8361C23.3301 64.6847 23.1779 64.4543 23.1255 64.1934C23.073 63.9325 23.1244 63.6616 23.2689 63.4377C25.2624 60.3432 26.4874 53.4306 25.02 49.4663C24.303 47.529 22.1135 47.0441 13.304 46.8619C13.0709 46.8568 12.8465 46.7732 12.6672 46.6249C12.4879 46.4766 12.3644 46.2722 12.3169 46.0451C12.2693 45.818 12.3005 45.5816 12.4053 45.3744C12.5101 45.1672 12.6823 45.0014 12.894 44.9041C16.2285 43.3645 18.2504 40.8884 18.7429 37.7195C19.4495 33.1779 16.9196 27.9075 11.8005 23.2606C11.6424 23.1219 11.5309 22.9384 11.4807 22.7348C11.4306 22.5311 11.4444 22.317 11.5203 22.1214C11.5961 21.9257 11.7304 21.7579 11.905 21.6405C12.0796 21.523 12.2861 21.4616 12.4968 21.4645C12.6418 21.4641 12.7852 21.4947 12.9172 21.5543C16.1904 22.9415 19.7037 23.6814 23.2612 23.7327C26.9438 23.7327 29.7368 22.7628 31.5652 20.8538C33.4633 18.8678 34.322 15.8195 34.1183 11.791C34.1054 11.5354 34.189 11.2842 34.3527 11.0867C34.5163 10.8892 34.7482 10.7597 35.0029 10.7236C35.0518 10.7197 35.1009 10.7197 35.1499 10.7236C35.3814 10.7235 35.6062 10.8008 35.7882 10.9432C35.9701 11.0857 36.0987 11.2848 36.1531 11.5087C37.8474 18.5034 40.1478 22.6551 43.1883 24.2023C44.8467 25.0922 46.6967 25.5701 48.5808 25.5956C53.9114 25.5956 58.4193 21.4209 62.7647 17.3847C63.3785 16.815 63.9871 16.2505 64.5931 15.704C64.795 15.5294 65.0571 15.4396 65.3242 15.4535C65.5913 15.4675 65.8425 15.5841 66.0248 15.7789C66.2071 15.9736 66.3063 16.2311 66.3014 16.4972C66.2966 16.7633 66.188 17.0171 65.9987 17.2051L65.7253 17.4617C61.3154 21.6467 53.9397 28.649 56.4258 36.7547C57.8906 41.5273 62.2953 44.8066 69.8928 46.7823C70.1233 46.843 70.3256 46.9813 70.4653 47.1736C70.6049 47.366 70.6732 47.6005 70.6586 47.8374C70.644 48.0742 70.5474 48.2987 70.3852 48.4726C70.223 48.6466 70.0053 48.7592 69.769 48.7914C69.1778 48.863 68.5825 48.8956 67.987 48.8889C67.0663 48.8889 66.0502 48.8351 64.9722 48.7786C63.7679 48.7145 62.5223 48.6478 61.2664 48.6478C56.8332 48.6478 54.1641 49.5458 52.6167 51.5575C50.5897 54.1978 50.4995 58.9807 52.3589 65.7778C52.4251 66.0205 52.3994 66.279 52.2868 66.5041C52.1741 66.7293 51.9823 66.9054 51.7477 66.9991C51.624 67.0532 51.4907 67.082 51.3557 67.0838Z" fill="#FFD478"/>
<path d="M35.1379 11.7539C36.283 16.4777 38.359 22.9054 42.707 25.1197C44.5112 26.0826 46.5217 26.5992 48.5689 26.6259C55.096 26.6259 60.3132 20.9604 65.2878 16.4675C60.9037 20.6474 52.7106 28.1706 55.439 37.0641C57.3113 43.1658 63.4336 46.173 69.623 47.7844C69.077 47.8486 68.5274 47.8778 67.9776 47.8717C66.077 47.8717 63.6786 47.6305 61.257 47.6305C54.1728 47.6305 46.89 49.7114 51.3463 66.0563C48.7674 61.3402 45.077 54.62 38.2765 54.2377C38.0779 54.2377 37.8819 54.2197 37.6885 54.2197C31.592 54.2197 27.3729 59.639 24.1157 63.9933C26.3001 60.6037 27.5379 53.3576 25.9674 49.111C24.9977 46.4963 22.2925 46.0319 13.305 45.8395C22.1068 41.7956 22.2744 31.3985 12.472 22.5025C15.8802 23.9429 19.5364 24.7132 23.2389 24.7708C29.4927 24.7708 35.6434 22.0278 35.1276 11.7513M35.1405 9.70117C35.0413 9.70162 34.9423 9.70848 34.844 9.7217C34.3351 9.79458 33.8719 10.0539 33.5452 10.4487C33.2184 10.8436 33.0516 11.3457 33.0774 11.8565C33.2657 15.5925 32.4997 18.3868 30.8054 20.1598C29.1807 21.8585 26.6379 22.7257 23.2492 22.7257C19.8385 22.6666 16.4707 21.9576 13.3282 20.6371C13.0634 20.5171 12.7759 20.455 12.4849 20.4549C12.069 20.4545 11.6626 20.5793 11.3192 20.8127C10.9758 21.0462 10.7113 21.3774 10.5604 21.7631C10.4096 22.1488 10.3794 22.5708 10.4738 22.9738C10.5683 23.3768 10.783 23.742 11.0897 24.0215C15.9509 28.4323 18.3622 33.3691 17.7098 37.5644C17.2713 40.3869 15.4532 42.5962 12.4462 43.9792C12.0228 44.1739 11.6782 44.5057 11.4686 44.9204C11.2591 45.3351 11.1969 45.8082 11.2924 46.2625C11.3879 46.7168 11.6352 47.1256 11.9942 47.422C12.3532 47.7185 12.8025 47.8851 13.2689 47.8948C21.9907 48.0744 23.5845 48.6107 24.0384 49.8269C25.3691 53.4192 24.2421 60.0084 22.3853 62.89C22.2317 63.1124 22.1237 63.3627 22.0673 63.6266C22.0109 63.8906 22.0074 64.163 22.0568 64.4283C22.1063 64.6936 22.2078 64.9466 22.3555 65.1729C22.5032 65.3992 22.6943 65.5943 22.9178 65.7471C23.1414 65.8999 23.3929 66.0074 23.6582 66.0635C23.9235 66.1196 24.1973 66.1231 24.4639 66.0739C24.7306 66.0247 24.9849 65.9237 25.2123 65.7767C25.4398 65.6298 25.6359 65.4396 25.7894 65.2172C29.3045 60.5037 32.8582 56.2725 37.7065 56.2725C37.8613 56.2725 38.0212 56.2725 38.1759 56.2853C43.8624 56.606 47.1505 62.6334 49.5514 67.0339C49.793 67.4755 50.1891 67.8136 50.6645 67.9839C51.14 68.1543 51.6618 68.1451 52.1308 67.958C52.5999 67.771 52.9837 67.4192 53.2094 66.9694C53.4351 66.5195 53.487 66.0029 53.3553 65.5175C51.5913 59.0462 51.6223 54.5636 53.4455 52.1901C54.7788 50.4556 57.1953 49.6832 61.2751 49.6832C62.5052 49.6832 63.7354 49.7474 64.9268 49.8115C66.0177 49.8705 67.0467 49.927 67.9957 49.927C68.6369 49.9329 69.2779 49.8969 69.9144 49.8192C70.3888 49.7577 70.8269 49.5341 71.1538 49.1866C71.4808 48.8391 71.6762 48.3894 71.7067 47.9144C71.7371 47.4394 71.6007 46.9687 71.3209 46.5827C71.041 46.1967 70.6349 45.9194 70.1723 45.7984C62.9514 43.9202 58.7813 40.8667 57.4299 36.4636C55.127 28.9635 62.2164 22.2331 66.4561 18.2149L66.714 17.9737C67.0175 17.6941 67.2295 17.3302 67.3225 16.9293C67.4156 16.5283 67.3854 16.1088 67.2358 15.7251C67.0862 15.3414 66.8242 15.0114 66.4838 14.7777C66.1433 14.544 65.7401 14.4176 65.3265 14.4148H65.1873C64.9569 14.43 64.7305 14.482 64.5168 14.5687C64.3546 14.6336 64.2019 14.7199 64.0629 14.8253C64.0113 14.8638 63.9649 14.9048 63.9185 14.9459C63.3073 15.4976 62.6857 16.0723 62.0849 16.6291C57.8503 20.5268 53.4945 24.5732 48.5689 24.5732C46.8487 24.5468 45.1604 24.1066 43.6483 23.2902C40.9302 21.9072 38.7484 17.8633 37.1443 11.2741C37.0361 10.8262 36.7797 10.4276 36.4162 10.1423C36.0528 9.85703 35.6035 9.70165 35.1405 9.70117Z" fill="#FFD478"/>
<path d="M42.317 67.1066C42.6184 67.3326 42.9741 67.4759 43.3486 67.5223C43.5027 67.5351 43.6579 67.5221 43.8076 67.4838C44.0266 67.4291 44.2231 67.3081 44.3699 67.1374C44.5868 66.83 44.6789 66.4524 44.6277 66.0802C44.4266 63.0935 39.5628 65.1924 42.317 67.1066Z" fill="#FFD478"/>
<path d="M63.6314 61.2813C63.9233 61.954 64.3842 62.5407 64.9698 62.9851C65.5037 63.4213 66.12 63.7907 66.8421 63.7728C67.0525 63.7696 67.2599 63.7224 67.4507 63.6342C68.4178 63.1801 68.4101 62.0177 68.1161 61.1171C67.7602 60.0214 66.8086 58.2202 65.4727 58.1611C63.8687 58.0893 63.1337 60.0086 63.6314 61.2813Z" fill="#FFD478"/>
<path d="M12.4824 22.5051C18.2127 25.071 36.002 28.9404 35.138 11.7539C36.2831 16.4778 38.3591 22.9054 42.7071 25.1197C52.133 29.9154 58.9103 22.228 65.2879 16.4675C60.9038 20.6474 52.7107 28.1706 55.4391 37.0641C57.3114 43.1658 63.4337 46.173 69.6231 47.7844C63.1139 48.6492 44.8837 42.3473 51.3464 66.0563C48.7675 61.3402 45.0771 54.62 38.2766 54.2377C31.8628 53.8759 27.4658 59.5004 24.1158 63.9882C26.3002 60.5986 27.538 53.3525 25.9675 49.1059C24.9978 46.4912 22.2925 46.0268 13.3051 45.8344C22.1172 41.7982 22.2848 31.4011 12.4824 22.5051Z" fill="#FD3F4D"/>
<path d="M55.4467 37.0648C55.139 36.065 54.9604 35.0304 54.9154 33.9857L54.0025 33.7291C54.5183 36.0385 54.9954 38.6223 53.7446 40.6263C52.5712 42.4917 50.1135 43.2795 47.9266 42.9356C45.7397 42.5918 43.8004 41.3242 42.1808 39.8283C40.3256 41.216 38.1601 42.1358 35.8697 42.5091C33.5792 42.8823 31.2319 42.6979 29.0287 41.9716C26.8255 41.2452 24.832 39.9986 23.2187 38.3384C21.6054 36.6782 20.4204 34.6538 19.7651 32.4385L19.3421 32.5873C20.9952 38.2323 18.8779 43.3 13.3281 45.8505C22.3156 46.0327 25.0208 46.5074 25.9905 49.122C27.5611 53.3661 26.3232 60.6122 24.1389 64.0043C27.4914 59.5114 31.8756 53.8869 38.2996 54.2539C45.1001 54.6362 48.7983 61.3563 51.3695 66.0725C44.8938 42.3378 63.1241 48.6499 69.6306 47.7852C63.4413 46.1866 57.3138 43.1666 55.4467 37.0648Z" fill="#CC333F"/>
<path d="M19.2692 34.5265C18.8263 32.2668 17.9213 30.1218 16.6104 28.2246C15.9647 27.2641 15.2538 26.3485 14.4828 25.4842C13.7064 24.6176 12.8816 23.7953 12.0122 23.021C11.8903 22.9112 11.8114 22.762 11.7894 22.5999C11.7675 22.4377 11.8039 22.2731 11.8922 22.1351C11.9806 21.9971 12.1151 21.8947 12.2721 21.846C12.429 21.7973 12.5983 21.8054 12.7498 21.8689H12.7678C13.9444 22.3584 15.1554 22.7615 16.3912 23.0748C17.6298 23.3992 18.8884 23.6427 20.159 23.8036C22.694 24.1192 25.2729 24.1192 27.6507 23.4238C28.8245 23.0957 29.9247 22.5479 30.8923 21.8098C31.8429 21.069 32.6155 20.1267 33.154 19.0515C33.6953 17.9469 34.0607 16.7653 34.2372 15.549C34.2784 15.2385 34.3249 14.9306 34.361 14.6202L34.4177 13.681C34.4177 13.5219 34.4435 13.368 34.4435 13.2089V12.7393V11.79V11.7515C34.4425 11.5791 34.5054 11.4123 34.6202 11.2832C34.735 11.1541 34.8937 11.0716 35.0658 11.0516C35.2379 11.0316 35.4114 11.0754 35.553 11.1747C35.6947 11.274 35.7945 11.4218 35.8335 11.5898C36.4086 14.0839 37.0353 16.5523 38.0282 18.8539C38.4972 20.0006 39.1033 21.087 39.8334 22.0895C40.5499 23.0739 41.4696 23.8945 42.5309 24.4963C42.6374 24.5584 42.7159 24.6587 42.7503 24.7766C42.7847 24.8944 42.7724 25.021 42.7159 25.1301C42.6594 25.2392 42.563 25.3227 42.4466 25.3632C42.3301 25.4038 42.2025 25.3984 42.0899 25.3482C40.8662 24.7339 39.7944 23.8576 38.9514 22.7823C38.128 21.7307 37.4353 20.584 36.8883 19.3671C35.7845 16.9603 35.0985 14.4277 34.4615 11.9259L35.8516 11.7284L35.8799 12.7368V13.25C35.8799 13.4167 35.8799 13.5861 35.8645 13.7631L35.8155 14.7895C35.7819 15.1282 35.7329 15.4669 35.6917 15.8159C35.5052 17.1908 35.1041 18.5284 34.5028 19.7802C33.8727 21.0572 32.9623 22.177 31.8388 23.0569C30.7168 23.8984 29.4443 24.5201 28.0891 24.8889C26.762 25.2629 25.3932 25.4707 24.0144 25.5073C22.6592 25.5484 21.303 25.4746 19.9604 25.2867C18.6272 25.1025 17.3075 24.8326 16.0095 24.4784C14.705 24.1331 13.4303 23.6844 12.1979 23.1364L12.9535 21.992C13.8431 22.8238 14.6843 23.7053 15.4731 24.6323C16.2692 25.5567 16.9951 26.5387 17.6445 27.5703C18.2942 28.6078 18.8459 29.703 19.2925 30.8418C19.7445 31.9805 20.0562 33.1695 20.2209 34.3828C20.2403 34.508 20.2091 34.6358 20.1338 34.7381C20.0586 34.8403 19.9457 34.9087 19.8198 34.9281C19.694 34.9475 19.5655 34.9163 19.4628 34.8415C19.36 34.7667 19.2913 34.6543 19.2718 34.5291L19.2692 34.5265Z" fill="#5E171D"/>
<path d="M36.0557 54.8413C34.8515 55.1486 33.7023 55.6393 32.6489 56.2962C32.1204 56.6256 31.6123 56.9863 31.1274 57.3764C30.6374 57.7613 30.168 58.177 29.709 58.6106C29.2499 59.0443 28.8089 59.4933 28.3783 59.9629C27.9476 60.4324 27.5247 60.9046 27.112 61.3946C26.2842 62.3723 25.4925 63.3884 24.6776 64.4019V64.4199C24.5729 64.5692 24.4129 64.6711 24.2328 64.7031C24.0526 64.7351 23.867 64.6946 23.7169 64.5905C23.5668 64.4864 23.4644 64.3272 23.4322 64.1479C23.4 63.9687 23.4408 63.7841 23.5454 63.6347C24.1242 62.6765 24.5586 61.6391 24.8349 60.5556C25.1343 59.4457 25.3396 58.3127 25.4486 57.1686C25.5642 56.022 25.5935 54.8684 25.5363 53.7174C25.4881 52.5771 25.3222 51.4447 25.0412 50.3381C24.9124 49.807 24.7274 49.2909 24.4893 48.7986C24.2664 48.3671 23.9305 48.0037 23.517 47.7466C23.0605 47.477 22.5646 47.2796 22.0471 47.1615C21.4958 47.0247 20.9369 46.9202 20.3734 46.8485C18.0524 46.5611 15.6798 46.5047 13.3072 46.4354C13.172 46.432 13.042 46.3829 12.9386 46.2963C12.8352 46.2096 12.7644 46.0905 12.738 45.9586C12.7116 45.8266 12.7311 45.6897 12.7933 45.5702C12.8555 45.4508 12.9567 45.3559 13.0802 45.3012C14.4939 44.6878 15.773 43.8047 16.8454 42.702C17.9036 41.5947 18.6738 40.247 19.0891 38.7761C19.1282 38.6612 19.2096 38.5653 19.3169 38.5077C19.4242 38.4501 19.5494 38.4351 19.6674 38.4657C19.7854 38.4962 19.8873 38.5701 19.9528 38.6725C20.0182 38.7748 20.0422 38.8981 20.0201 39.0173C19.8161 39.8367 19.5112 40.6279 19.1123 41.3728C18.7095 42.1136 18.2176 42.8029 17.6475 43.4256C16.4938 44.6668 15.1069 45.671 13.5651 46.3815L13.3252 45.2474C14.5193 45.2653 15.7159 45.2936 16.9151 45.3423C18.1143 45.3911 19.316 45.4578 20.5255 45.5989C21.1439 45.671 21.7572 45.7815 22.3617 45.9299C23.0077 46.0764 23.6265 46.3232 24.1953 46.6612C24.7991 47.0328 25.2923 47.5581 25.624 48.1828C25.7807 48.4737 25.9119 48.7777 26.016 49.0911C26.1217 49.3862 26.2146 49.6864 26.2945 49.9866C26.6056 51.178 26.7923 52.3981 26.8516 53.6276C26.9191 54.8448 26.895 56.0653 26.7794 57.2789C26.6691 58.4978 26.4569 59.7054 26.1449 60.8892C25.8409 62.1086 25.3559 63.276 24.7059 64.3531L23.5712 63.5834C24.3139 62.5108 25.0953 61.4485 25.9335 60.4222C26.7733 59.3834 27.6878 58.4067 28.6697 57.4996C29.1718 57.0456 29.6968 56.6174 30.2428 56.2166C30.7975 55.8187 31.3782 55.4578 31.981 55.1364C33.1905 54.4736 34.5186 54.0526 35.8906 53.8971C36.0111 53.886 36.1313 53.9203 36.2275 53.9933C36.3237 54.0663 36.3888 54.1726 36.4099 54.2912C36.431 54.4097 36.4066 54.5318 36.3414 54.6332C36.2763 54.7346 36.1752 54.808 36.0582 54.8387L36.0557 54.8413Z" fill="#5E171D"/>
<path d="M46.5495 25.839C48.3 26.0676 50.0797 25.9046 51.7589 25.3618C53.4449 24.7939 55.0416 23.9913 56.5014 22.978C57.9893 21.9601 59.4082 20.8458 60.7489 19.6424C62.1105 18.4415 63.4284 17.1765 64.7952 15.9423C64.9374 15.8106 65.1265 15.7406 65.3206 15.7475C65.5148 15.7545 65.6983 15.838 65.8306 15.9795C65.963 16.1211 66.0334 16.3091 66.0264 16.5023C66.0193 16.6955 65.9355 16.878 65.7932 17.0097C64.5038 18.2388 63.2143 19.4576 62.028 20.7406C60.8287 22.0087 59.727 23.3647 58.7322 24.7973C57.7497 26.2047 56.9589 27.7353 56.3802 29.3492C55.822 30.9307 55.5921 32.6084 55.7046 34.2809C55.8283 35.9487 56.314 37.5699 57.1281 39.0329C57.963 40.4963 59.0836 41.7787 60.424 42.8048C61.7911 43.849 63.2859 44.7164 64.8726 45.3861C66.4812 46.0708 68.14 46.6327 69.8344 47.0668C70.0023 47.1097 70.1499 47.2097 70.2515 47.3495C70.3532 47.4893 70.4024 47.6601 70.3908 47.8322C70.3792 48.0043 70.3074 48.167 70.1878 48.292C70.0683 48.417 69.9086 48.4964 69.7364 48.5166C68.9847 48.5998 68.228 48.629 67.4721 48.6038C66.7371 48.5884 66.0124 48.5499 65.2929 48.5114C63.8565 48.4319 62.4381 48.3498 61.0326 48.3575C59.6472 48.3459 58.2644 48.4774 56.9063 48.7501C55.5994 48.998 54.3706 49.5521 53.3217 50.3666C52.3194 51.213 51.5841 52.3294 51.2044 53.5817C50.812 54.8861 50.6275 56.2437 50.6577 57.605C50.6809 60.3736 51.2379 63.1628 51.9471 65.8929V65.9057C51.987 66.0513 51.9714 66.2063 51.9033 66.3411C51.8351 66.4758 51.7192 66.5807 51.578 66.6355C51.4368 66.6903 51.2802 66.6911 51.1383 66.6379C50.9965 66.5846 50.8795 66.4811 50.8098 66.3471C49.5719 64.0378 48.3109 61.7284 46.7016 59.7219C45.9122 58.7147 45.0108 57.7997 44.0144 56.9943C43.0288 56.2003 41.9118 55.583 40.7134 55.17C40.5999 55.1248 40.5078 55.0384 40.4558 54.9282C40.4039 54.818 40.3959 54.6923 40.4336 54.5765C40.4713 54.4608 40.5518 54.3636 40.6588 54.3046C40.7659 54.2457 40.8914 54.2294 41.01 54.2591C42.3287 54.6812 43.5628 55.33 44.6566 56.1758C45.7322 57.0128 46.7074 57.9702 47.563 59.0291C49.2831 61.1203 50.6138 63.4553 51.893 65.7621L50.7582 66.2137C49.9846 63.4322 49.3888 60.5686 49.3295 57.6153C49.2842 56.1133 49.4765 54.6136 49.8995 53.1711C50.1284 52.4301 50.4535 51.7219 50.8666 51.0645C51.2898 50.4009 51.8115 49.8049 52.4139 49.2966C53.6268 48.3272 55.0546 47.6595 56.5788 47.3491C58.0359 47.0403 59.5223 46.8898 61.0119 46.9C62.4793 46.9 63.9313 46.9693 65.3625 47.0412C66.0769 47.0796 66.7887 47.113 67.4901 47.1284C68.1703 47.1483 68.8511 47.1208 69.5275 47.0463L69.4372 48.4986C67.6674 48.0519 65.9344 47.4711 64.2536 46.7615C62.5456 46.0442 60.9356 45.1148 59.462 43.9954C57.9622 42.8454 56.7076 41.4096 55.7716 39.7719C54.8421 38.1156 54.2909 36.2759 54.1572 34.3835C54.0329 32.5012 54.2962 30.6135 54.9309 28.836C55.5567 27.0971 56.4127 25.449 57.4763 23.9351C59.5394 20.915 62.1724 18.3697 64.7668 15.932L65.7649 17.002C64.4109 18.2234 63.0518 19.4627 61.6386 20.6636C60.2331 21.8855 58.7479 23.0136 57.1926 24.0403C55.6227 25.0921 53.9045 25.9058 52.0941 26.4548C51.1687 26.7177 50.2177 26.8811 49.2573 26.9424C48.2999 26.9988 47.339 26.9428 46.3947 26.7756C46.2689 26.7559 46.1561 26.6872 46.0811 26.5847C46.0062 26.4822 45.9752 26.3543 45.995 26.229C46.0149 26.1038 46.0839 25.9916 46.1869 25.917C46.2899 25.8424 46.4185 25.8116 46.5443 25.8313L46.5495 25.839Z" fill="#5E171D"/>
<path d="M45.6696 46.2785C46.8069 44.8006 53.7983 45.0854 55.1755 44.2258C54.5926 43.1225 48.4368 40.5386 48.0603 39.3121C47.5265 37.5724 52.1711 31.1012 52.0988 29.4641C46.5568 33.2001 42.6188 32.2635 40.009 30.9344C38.5106 30.1646 37.0768 27.2728 36.2154 24.1963C34.4901 33.0974 27.7489 30.6111 23.2255 28.5763C26.0881 31.9761 31.9937 37.1208 22.4854 42.4502C25.1648 43.6254 31.9937 43.1686 33.2161 46.4658C33.2884 46.6634 29.5618 52.4778 29.6263 52.6779C30.9673 52.3495 36.187 46.5505 37.6983 46.5505C38.0387 46.5505 38.3817 46.5505 38.7298 46.5813C40.8961 46.7019 44.4395 53.0602 46.1957 53.7813C46.5129 53.2142 45.2751 46.7917 45.6696 46.2785ZM42.8329 47.0355C41.8761 46.6429 39.9445 43.1866 38.7659 43.1148C38.5803 43.1045 38.3946 43.0994 38.2089 43.0994C37.3862 43.0994 34.5443 46.2554 33.8248 46.435C33.7887 46.3247 35.8183 43.1609 35.7796 43.0532C35.1142 41.257 31.3954 41.5136 29.9358 40.8645C35.1142 37.965 31.8983 35.163 30.3381 33.3104C32.8035 34.4112 36.4733 35.7737 37.412 30.9267C37.8814 32.6022 38.6628 34.1803 39.4751 34.5959C40.8961 35.3195 43.0417 35.8301 46.0565 33.7954C46.0977 34.6806 43.5678 38.2087 43.8593 39.1581C44.063 39.8253 47.4156 41.2314 47.7276 41.8318C46.9771 42.3065 43.1707 42.15 42.5518 42.9557C42.3403 43.2354 43.0134 46.7301 42.838 47.0355H42.8329Z" fill="#FFDC5E"/>
<path d="M61.0989 15.4495C60.6192 16.0602 60.106 16.6375 59.5825 17.202C59.059 17.7665 58.5149 18.3182 57.9656 18.857C57.4163 19.3958 56.854 19.9244 56.2764 20.4376C55.6987 20.9508 55.1133 21.464 54.4944 21.9233C54.4161 21.9839 54.3182 22.0138 54.2192 22.0073C54.1203 22.0009 54.0271 21.9585 53.9575 21.8882C53.8878 21.818 53.8465 21.7248 53.8414 21.6262C53.8362 21.5277 53.8676 21.4307 53.9296 21.3536C54.4144 20.7455 54.9302 20.1682 55.446 19.6037C55.9618 19.0392 56.5111 18.4875 57.0578 17.9461C57.6045 17.4047 58.1667 16.8761 58.7444 16.3629C59.3221 15.8498 59.9075 15.3366 60.529 14.8798C60.6073 14.8192 60.7052 14.7893 60.8041 14.7958C60.9031 14.8022 60.9962 14.8446 61.0659 14.9149C61.1355 14.9851 61.1768 15.0783 61.182 15.1769C61.1871 15.2754 61.1557 15.3724 61.0938 15.4495H61.0989Z" fill="#5E171D"/>
<path d="M60.5858 49.7787C61.1266 49.7555 61.6684 49.7657 62.2079 49.8094C62.7443 49.8479 63.2782 49.9018 63.8094 49.9814C64.3407 50.0609 64.8694 50.143 65.3954 50.2559C65.9255 50.3612 66.449 50.4965 66.9634 50.6613C67.0542 50.691 67.1316 50.7514 67.1821 50.832C67.2327 50.9127 67.2531 51.0085 67.2399 51.1026C67.2267 51.1967 67.1807 51.2832 67.1099 51.347C67.0391 51.4108 66.948 51.4479 66.8525 51.4516C66.3124 51.4718 65.7716 51.4598 65.233 51.4157C64.6966 51.3798 64.1627 51.3182 63.6315 51.2489C63.1002 51.1796 62.569 51.0847 62.0429 50.9769C61.5119 50.8736 60.9882 50.7364 60.4749 50.5664C60.3858 50.5356 60.3102 50.475 60.261 50.3949C60.2118 50.3148 60.192 50.2202 60.2051 50.1272C60.2182 50.0342 60.2633 49.9487 60.3327 49.8851C60.4022 49.8215 60.4916 49.7839 60.5858 49.7787Z" fill="#5E171D"/>
<path d="M31.6376 60.4707C31.2791 61.143 30.8794 61.787 30.4667 62.4208C30.0541 63.0546 29.6209 63.6755 29.1773 64.2888C28.7337 64.902 28.2798 65.505 27.8053 66.0849C27.3308 66.6648 26.8486 67.2601 26.325 67.8143C26.2578 67.8851 26.1671 67.9292 26.0697 67.9385C25.9723 67.9479 25.8749 67.9218 25.7953 67.8652C25.7157 67.8085 25.6594 67.7251 25.6369 67.6304C25.6143 67.5357 25.627 67.4361 25.6726 67.3499C26.0362 66.6802 26.4462 66.0362 26.8486 65.4024C27.2509 64.7686 27.6944 64.1477 28.138 63.5318C28.5816 62.916 29.0329 62.313 29.5074 61.7357C29.9819 61.1584 30.4667 60.5605 30.9928 60.0088C31.059 59.9351 31.1502 59.8882 31.249 59.8774C31.3478 59.8666 31.4471 59.8925 31.5278 59.9502C31.6085 60.0078 31.6649 60.0932 31.6861 60.1898C31.7073 60.2864 31.6919 60.3873 31.6427 60.4733L31.6376 60.4707Z" fill="#5E171D"/>
<path d="M17.983 49.1241C17.3385 49.2535 16.6878 49.3503 16.0334 49.4141C15.3809 49.4859 14.7259 49.5295 14.0734 49.5654C13.4209 49.6014 12.7633 49.6142 12.1083 49.6091C11.4532 49.6039 10.7956 49.5885 10.138 49.5218C10.0417 49.5122 9.952 49.4686 9.88522 49.3989C9.81843 49.3292 9.77897 49.2379 9.77398 49.1417C9.76899 49.0456 9.7988 48.9508 9.85802 48.8746C9.91723 48.7984 10.0019 48.7458 10.0967 48.7264C10.7441 48.593 11.3862 48.5083 12.049 48.439C12.7118 48.3697 13.3539 48.3235 14.0064 48.2851C14.6588 48.2466 15.3164 48.2312 15.9715 48.2363C16.6302 48.2331 17.2887 48.263 17.9443 48.3261C18.0512 48.3378 18.1491 48.3909 18.2167 48.4741C18.2844 48.5572 18.3162 48.6636 18.3054 48.77C18.2955 48.8551 18.2591 48.935 18.2013 48.9985C18.1435 49.062 18.0672 49.1059 17.983 49.1241Z" fill="#5E171D"/>
<path d="M17.8824 18.8748C18.4137 19.2725 19.0971 19.6164 19.7212 19.388C20.4794 19.1083 20.7115 18.1384 20.6187 17.3353C20.4227 15.6187 18.7051 12.9989 16.6549 13.9996C14.4241 15.1081 16.642 17.946 17.8824 18.8748Z" fill="#FFD478"/>
</g>
<defs>
<radialGradient id="paint0_radial_1_12924" cx="0" cy="0" r="1" gradientUnits="userSpaceOnUse" gradientTransform="translate(39.0832 41.3367) scale(37.67 37.4803)">
<stop offset="0.38" stop-color="#FFB24F"/>
<stop offset="0.49" stop-color="#F2914A"/>
<stop offset="0.7" stop-color="#DE5A42"/>
<stop offset="0.86" stop-color="#D1383D"/>
<stop offset="0.94" stop-color="#CC2B3B"/>
</radialGradient>
<clipPath id="clip0_1_12924">
<rect width="80" height="80" rx="4" fill="white"/>
</clipPath>
</defs>
</svg>
