<svg width="80" height="80" viewBox="0 0 80 80" fill="none" xmlns="http://www.w3.org/2000/svg">
<g clip-path="url(#clip0_1_13190)">
<path d="M68.524 3.76147L9.64521 3.76147C5.15159 3.76147 1.50879 7.38593 1.50879 11.8569L1.50879 70.8165C1.50879 75.2874 5.15159 78.9119 9.64521 78.9119H68.524C73.0177 78.9119 76.6605 75.2874 76.6605 70.8165V11.8569C76.6605 7.38593 73.0177 3.76147 68.524 3.76147Z" fill="url(#paint0_radial_1_13190)"/>
<path d="M69.0908 21.7489C69.8442 21.7489 70.455 21.1412 70.455 20.3915C70.455 19.6419 69.8442 19.0342 69.0908 19.0342C68.3374 19.0342 67.7266 19.6419 67.7266 20.3915C67.7266 21.1412 68.3374 21.7489 69.0908 21.7489Z" fill="#F5912C"/>
<path d="M17.5259 71.4684C18.5072 71.4684 19.3027 70.6769 19.3027 69.7005C19.3027 68.7241 18.5072 67.9326 17.5259 67.9326C16.5446 67.9326 15.749 68.7241 15.749 69.7005C15.749 70.6769 16.5446 71.4684 17.5259 71.4684Z" fill="#F5912C"/>
<path d="M65.1202 15.1777C65.6116 15.1777 66.0099 14.7814 66.0099 14.2925C66.0099 13.8036 65.6116 13.4072 65.1202 13.4072C64.6288 13.4072 64.2305 13.8036 64.2305 14.2925C64.2305 14.7814 64.6288 15.1777 65.1202 15.1777Z" fill="#F5912C"/>
<path d="M10.5606 64.6328C11.052 64.6328 11.4503 64.2364 11.4503 63.7475C11.4503 63.2586 11.052 62.8623 10.5606 62.8623C10.0692 62.8623 9.6709 63.2586 9.6709 63.7475C9.6709 64.2364 10.0692 64.6328 10.5606 64.6328Z" fill="#F5912C"/>
<path d="M0 6.04272L0 73.9547C-1.45114e-07 75.5576 0.639782 77.0948 1.77867 78.2285C2.91757 79.3621 4.46233 79.9993 6.07331 80H73.9267C74.7245 80 75.5144 79.8436 76.2514 79.5398C76.9885 79.236 77.6581 78.7906 78.2221 78.2292C78.7861 77.6678 79.2334 77.0014 79.5384 76.268C79.8435 75.5345 80.0003 74.7485 80 73.9547V6.04272C80 4.44009 79.3601 2.9031 78.2212 1.76987C77.0822 0.636642 75.5374 0 73.9267 0L6.07331 0C4.46277 0.000680001 2.9184 0.637541 1.77958 1.77062C0.640767 2.90371 0.000683442 4.4403 0 6.04272ZM71.4793 75.2171H8.52326C7.53151 75.2171 6.58038 74.8252 5.8791 74.1274C5.17783 73.4297 4.78386 72.4833 4.78386 71.4966L4.78386 8.50343C4.78386 7.51667 5.17783 6.57033 5.8791 5.87259C6.58038 5.17485 7.53151 4.78286 8.52326 4.78286L71.4793 4.78286C72.4711 4.78286 73.4222 5.17485 74.1235 5.87259C74.8248 6.57033 75.2187 7.51667 75.2187 8.50343V71.4966C75.218 72.4831 74.8239 73.4291 74.1227 74.1267C73.4216 74.8243 72.4709 75.2165 71.4793 75.2171Z" fill="#FFBE33"/>
<path d="M76.7661 40.0791V71.4961C76.764 72.8906 76.2064 74.2273 75.2154 75.2133C74.2243 76.1994 72.8808 76.7542 71.4793 76.7563H8.52326C7.12155 76.7549 5.77764 76.2003 4.78648 75.2141C3.79532 74.2279 3.23788 72.8908 3.23652 71.4961L3.23652 40.0791H0L0 73.9491C-1.45114e-07 75.552 0.639782 77.0893 1.77867 78.2229C2.91757 79.3565 4.46233 79.9938 6.07331 79.9944H73.9267C74.7245 79.9944 75.5144 79.838 76.2514 79.5342C76.9885 79.2304 77.6581 78.785 78.2221 78.2236C78.7861 77.6623 79.2334 76.9958 79.5384 76.2624C79.8435 75.5289 80.0003 74.7429 80 73.9491V40.0791H76.7661Z" fill="#E88827"/>
<path d="M71.4791 4.78271C72.4709 4.78271 73.422 5.1747 74.1233 5.87244C74.8246 6.57018 75.2185 7.51653 75.2185 8.50328V71.4964C75.2179 72.483 74.8237 73.4289 74.1225 74.1265C73.4214 74.8241 72.4707 75.2163 71.4791 75.217H8.52307C7.53132 75.217 6.58019 74.825 5.87891 74.1273C5.17764 73.4295 4.78367 72.4832 4.78367 71.4964L4.78367 8.50328C4.78367 7.51653 5.17764 6.57018 5.87891 5.87244C6.58019 5.1747 7.53132 4.78271 8.52307 4.78271L71.4791 4.78271ZM71.4791 3.24316L8.52307 3.24316C7.12136 3.24452 5.77745 3.79915 4.78629 4.78532C3.79513 5.77149 3.23769 7.10863 3.23633 8.50328L3.23633 71.4964C3.23769 72.8911 3.79513 74.2282 4.78629 75.2144C5.77745 76.2005 7.12136 76.7552 8.52307 76.7565H71.4791C72.8806 76.7545 74.2242 76.1997 75.2152 75.2136C76.2062 74.2276 76.7638 72.8909 76.7659 71.4964V8.50328C76.7638 7.10884 76.2062 5.77209 75.2152 4.78607C74.2242 3.80004 72.8806 3.2452 71.4791 3.24316Z" fill="#FFD952"/>
<path d="M0 6.04272L0 73.9547C-1.45114e-07 75.5576 0.639782 77.0948 1.77867 78.2285C2.91757 79.3621 4.46233 79.9993 6.07331 80H73.9267C74.7245 80 75.5144 79.8436 76.2514 79.5398C76.9885 79.236 77.6581 78.7906 78.2221 78.2292C78.7861 77.6678 79.2334 77.0014 79.5384 76.268C79.8435 75.5345 80.0003 74.7485 80 73.9547V6.04272C80 4.44009 79.3601 2.9031 78.2212 1.76987C77.0822 0.636642 75.5374 0 73.9267 0L6.07331 0C4.46277 0.000680001 2.9184 0.637541 1.77958 1.77062C0.640767 2.90371 0.000683442 4.4403 0 6.04272ZM71.4793 75.2171H8.52326C7.53151 75.2171 6.58038 74.8252 5.8791 74.1274C5.17783 73.4297 4.78386 72.4833 4.78386 71.4966L4.78386 8.50343C4.78386 7.51668 5.17783 6.57033 5.8791 5.87259C6.58038 5.17485 7.53151 4.78286 8.52326 4.78286L71.4793 4.78286C72.4711 4.78286 73.4222 5.17485 74.1235 5.87259C74.8248 6.57033 75.2187 7.51668 75.2187 8.50343V71.4966C75.218 72.4831 74.8239 73.4291 74.1227 74.1267C73.4216 74.8243 72.4709 75.2165 71.4793 75.2171Z" stroke="#5C2929" stroke-width="4" stroke-linecap="round" stroke-linejoin="round"/>
<path d="M57.9092 69.6954C56.3764 69.6652 54.8582 69.3924 53.4116 68.8871C51.9226 68.424 50.5567 67.6349 49.4143 66.5778L49.3472 66.5984C45.7206 67.6776 41.953 68.2146 38.1677 68.1918C34.5005 68.1918 31.0164 67.6991 28.11 66.7651C20.8633 64.4558 15.7674 59.9424 13.7584 54.0716C12.1698 49.4298 12.7011 44.1825 15.1124 40.7032C16.0176 39.3946 17.1394 38.2989 18.2251 37.2392C19.5532 35.9408 20.804 34.7169 21.508 33.2543C21.5519 33.1594 21.5957 33.0619 21.637 32.9644C21.8094 32.5533 21.929 32.1223 21.9929 31.6814C22.0296 31.4324 22.0494 31.1813 22.0522 30.9296V30.8655C22.0522 30.7474 22.0522 30.6294 22.0393 30.5088V30.4754C22.0393 30.3651 22.0186 30.2394 22.0006 30.1137V30.0649C21.9851 29.9494 21.9645 29.834 21.9413 29.7211C21.9413 29.7211 21.9413 29.6954 21.9413 29.6928C21.9129 29.5517 21.882 29.4363 21.8484 29.3003C21.8473 29.29 21.8473 29.2797 21.8484 29.2695C21.8201 29.1694 21.784 29.0565 21.7453 28.941L21.7221 28.8769C21.6808 28.7614 21.6344 28.6408 21.5854 28.5228L21.5544 28.4484C21.4926 28.3021 21.4307 28.143 21.3713 27.9814L21.3172 27.8223C21.2682 27.6837 21.2218 27.54 21.1779 27.3964L21.1341 27.2424C21.0877 27.0884 21.0464 26.9294 21.0051 26.7677L20.9794 26.6522C20.9329 26.4649 20.8943 26.2725 20.8556 26.0775V26.0492C20.6735 25.1607 20.5785 24.2567 20.5719 23.3499C20.5719 23.3499 20.5719 23.2858 20.5719 23.2755C20.6364 18.9134 22.5808 15.334 25.9128 13.4711L25.9334 13.4583C26.0366 13.389 26.1423 13.3249 26.2506 13.2607C26.2764 13.2447 26.3031 13.2301 26.3306 13.2171L26.4466 13.1658L26.4776 13.1504C26.9025 12.951 27.3401 12.7796 27.7876 12.6372C28.19 12.5089 28.5613 12.4063 28.9507 12.3216H29.0049C29.6753 12.2068 30.3523 12.1339 31.0319 12.1035C31.2253 12.1035 31.4136 12.1035 31.5993 12.1035C35.7796 12.1035 38.1522 14.1332 41.4352 16.9403L41.461 16.9634C42.949 15.6291 44.7852 14.4667 47.9082 14.3974H48.0552C49.8346 14.3974 51.7766 14.9953 54.5437 16.3963C55.9879 17.125 57.2902 18.4772 58.2109 20.199C58.4507 20.6429 58.7009 21.115 58.9717 21.641C59.1578 22.0042 59.3248 22.3767 59.472 22.7572C59.6049 23.1018 59.7203 23.453 59.8176 23.8092L59.8382 23.8862C59.8795 24.0427 59.913 24.1813 59.9439 24.3198L59.9723 24.4481C60.0058 24.6175 60.0393 24.7868 60.0651 24.9613C60.109 25.2487 60.1399 25.5438 60.1605 25.8363L60.3643 26.0929C60.4262 26.1827 60.4881 26.2699 60.5474 26.3495C60.6067 26.429 60.6505 26.5137 60.6995 26.6061L60.7717 26.7241C60.8156 26.8011 60.8594 26.8755 60.9007 26.9524L60.9523 27.05C60.9935 27.1295 61.0348 27.2116 61.0735 27.3065L61.1302 27.4271C61.1508 27.4708 61.1741 27.5144 61.1921 27.558C61.2463 27.6863 61.2978 27.8146 61.3443 27.9378C61.4531 28.2485 61.5392 28.5667 61.6022 28.8897C61.6022 28.8897 61.6022 28.941 61.615 28.9487C61.7516 29.62 61.7638 30.3104 61.6512 30.9861C61.3365 32.7591 60.2276 34.0652 59.1574 35.3199C58.3476 36.2744 57.5817 37.1725 57.1742 38.2373C57.0241 38.6325 56.9186 39.043 56.8596 39.4613C56.8338 39.6306 56.8157 39.8077 56.8054 39.9745C56.7951 40.1412 56.7874 40.3285 56.7899 40.5133C56.7899 42.1657 57.2928 43.985 57.8911 45.8684C58.0768 45.8863 58.2651 45.912 58.4507 45.9428C58.5797 45.9659 58.7086 45.9889 58.8427 46.0172C59.1006 46.0711 59.3585 46.1352 59.6345 46.2122C59.7686 46.2507 59.8923 46.2892 60.0368 46.3328C60.3875 46.4457 60.7537 46.5894 61.1534 46.7382C61.8575 47.0179 62.6208 47.3668 63.4873 47.8056C64.3753 48.2717 65.1636 48.9053 65.8083 49.671C66.3163 50.2565 66.7566 50.8969 67.121 51.5801C67.3772 52.0539 67.6282 52.5295 67.874 53.0067C68.0133 53.2787 68.1319 53.5584 68.2609 53.8432C68.3872 53.9579 68.4822 54.1027 68.5368 54.264C68.7362 54.8435 68.8837 55.4394 68.9778 56.0448C69.0956 56.8207 69.1259 57.6073 69.0681 58.39V58.4439C69.0681 58.6132 69.0449 58.7698 69.0294 58.9237L69.0139 59.0623C69.001 59.1752 68.9881 59.2829 68.9726 59.3907L68.9443 59.5626C68.9288 59.6627 68.9108 59.7602 68.8927 59.8577C68.8927 59.9167 68.8695 59.9732 68.8592 60.0296C68.836 60.1348 68.8128 60.24 68.787 60.3452L68.756 60.4812C68.7199 60.6249 68.6812 60.7686 68.6374 60.9097L68.6013 61.0303C68.5703 61.133 68.5368 61.2382 68.5007 61.3408C68.4827 61.3947 68.4646 61.446 68.444 61.4999C68.4104 61.5948 68.3795 61.6795 68.346 61.7565C68.3124 61.8335 68.3021 61.8694 68.2815 61.9233C68.2609 61.9771 68.2067 62.1003 68.1706 62.1799L68.1087 62.3235C68.0494 62.4544 67.9901 62.5801 67.9256 62.7136C66.7342 65.1512 64.5885 67.3835 62.3217 68.5407L62.2624 68.569C60.9331 69.3115 59.4336 69.6995 57.9092 69.6954Z" fill="#EFC743"/>
<path d="M31.6017 13.1038C35.5577 13.1038 37.7446 15.1154 41.172 18.0406L41.4969 18.3177C43.0442 16.8089 44.6715 15.4695 47.9442 15.4079H48.0705C49.819 15.4079 51.6939 16.0802 54.0922 17.2939C55.423 17.9662 56.5448 19.2183 57.3184 20.6655C57.5763 21.1376 57.8342 21.6149 58.0689 22.0921C58.2409 22.4252 58.3933 22.7679 58.5254 23.1185C58.6485 23.4325 58.7544 23.7528 58.8426 24.0782L58.8658 24.1654C58.8993 24.2886 58.9277 24.422 58.956 24.54C58.956 24.5785 58.9741 24.617 58.9818 24.6529C59.0128 24.8069 59.0411 24.9583 59.0644 25.1097C59.12 25.476 59.1544 25.8453 59.1675 26.2156L59.2268 26.2849C59.2578 26.3233 59.2913 26.3618 59.3197 26.4003C59.348 26.4388 59.4099 26.5158 59.4538 26.5722L59.544 26.6954C59.6008 26.7724 59.6523 26.8519 59.7065 26.9315L59.8406 27.1444L59.9025 27.2471C59.9412 27.3112 59.9773 27.3779 60.0108 27.4421L60.0572 27.5293C60.0959 27.5986 60.1294 27.6679 60.163 27.7397C60.1735 27.7598 60.183 27.7803 60.1913 27.8013C60.2171 27.8526 60.2429 27.9065 60.2661 27.9578C60.3125 28.0682 60.3564 28.1759 60.3976 28.2837C60.4932 28.5489 60.5691 28.8208 60.6246 29.0971C60.6246 29.0971 60.6246 29.0971 60.6246 29.1125C60.7405 29.6675 60.7527 30.2389 60.6607 30.7983C60.1759 33.5412 57.2772 35.1603 56.2353 37.8597C56.058 38.3269 55.9334 38.8123 55.8639 39.3069C55.8356 39.5044 55.8149 39.7046 55.8021 39.9047C55.7892 40.1049 55.7814 40.3101 55.784 40.5128C55.784 42.504 56.4339 44.6491 57.1508 46.8506C57.5381 46.8538 57.9245 46.8881 58.3062 46.9533C58.4222 46.9712 58.5408 46.9943 58.6569 47.0174C58.8941 47.0687 59.134 47.1278 59.3764 47.197C59.5002 47.2304 59.6343 47.2689 59.7478 47.3074C60.0882 47.4151 60.4363 47.5434 60.7974 47.6871C61.4963 47.9668 62.2416 48.3106 63.0462 48.7135C63.8162 49.1211 64.5 49.6726 65.0603 50.3377C65.5181 50.8651 65.9151 51.4417 66.244 52.0569C66.4967 52.5256 66.7452 52.9968 66.9893 53.4707C67.2328 53.9436 67.4397 54.4342 67.6082 54.9384L67.5928 54.5894C67.7731 55.1113 67.9069 55.6479 67.9925 56.1931C68.0986 56.8987 68.1246 57.614 68.0699 58.3254C68.0712 58.3476 68.0712 58.3699 68.0699 58.3921C68.0699 58.5358 68.0518 58.6769 68.0363 58.8155C68.0363 58.8591 68.0364 58.9027 68.0209 58.9438C68.0209 59.0438 67.9977 59.1413 67.9848 59.2389C67.9848 59.2902 67.9693 59.3415 67.959 59.3954C67.9487 59.4493 67.9306 59.5724 67.9126 59.652L67.8816 59.8059C67.8636 59.9009 67.8404 59.9958 67.8171 60.0907C67.8171 60.1318 67.7991 60.1728 67.7888 60.2139C67.7552 60.3448 67.7191 60.4705 67.683 60.6039L67.6469 60.7117C67.6186 60.8092 67.5876 60.9041 67.5567 60.9965C67.5386 61.0478 67.5231 61.0966 67.5051 61.1453C67.487 61.1941 67.4458 61.307 67.4148 61.3865C67.3839 61.4661 67.3761 61.4866 67.3555 61.5354C67.3349 61.5841 67.2885 61.6996 67.2549 61.7919L67.1982 61.9228C67.1441 62.0434 67.0899 62.1614 67.0306 62.2795C65.9137 64.553 64.1163 66.4264 61.8857 67.6422C60.677 68.3247 59.3091 68.6786 57.9193 68.6686C56.4969 68.6405 55.0881 68.3859 53.7467 67.9142C52.1993 67.401 50.7526 66.5748 49.7236 65.3945L49.6204 65.4304L49.4812 65.474L49.133 65.5869L49.0479 65.6126C45.5174 66.6588 41.8513 67.1819 38.1676 67.165C34.7118 67.165 31.3128 66.7159 28.4116 65.7871C12.8428 60.8118 11.7828 47.2868 15.94 41.2852C17.8948 38.4627 21.0411 36.5742 22.4182 33.6952C22.4698 33.5849 22.5214 33.472 22.5678 33.3591C22.7731 32.8718 22.9153 32.3605 22.9907 31.8375C23.034 31.5417 23.0581 31.2434 23.0629 30.9445V30.8701C23.0629 30.729 23.0629 30.5879 23.05 30.4493C23.0488 30.4425 23.0488 30.4356 23.05 30.4288C23.05 30.28 23.0243 30.1286 23.0036 29.9798V29.9233C22.9856 29.7899 22.9624 29.6667 22.9366 29.5256C22.9356 29.5085 22.9356 29.4914 22.9366 29.4743C22.9056 29.3255 22.8695 29.1792 22.8283 29.0329C22.8298 29.0271 22.8298 29.0209 22.8283 29.015C22.7896 28.879 22.7483 28.7584 22.7019 28.6121C22.7019 28.589 22.6864 28.5634 22.6761 28.5403C22.6271 28.4017 22.573 28.2632 22.5162 28.1272C22.5087 28.1054 22.5001 28.084 22.4904 28.063C22.4337 27.9245 22.377 27.7833 22.3228 27.6371C22.3073 27.5909 22.2919 27.5421 22.2738 27.4934C22.23 27.3651 22.1861 27.2368 22.1474 27.1034C22.1474 27.0572 22.1216 27.011 22.1062 26.9674C22.0649 26.8211 22.0262 26.6774 21.9901 26.5286C21.9901 26.4927 21.9721 26.4593 21.9643 26.4234C21.9231 26.2489 21.8844 26.0719 21.8509 25.8923C21.8521 25.8829 21.8521 25.8734 21.8509 25.864C21.698 25.0347 21.6254 24.1926 21.6342 23.3494V23.3187C21.6781 19.8932 23.0552 16.2342 26.4851 14.338L26.5316 14.3072C26.6244 14.2482 26.7172 14.1891 26.8127 14.1353L26.9442 14.0762C27.3222 13.8965 27.7116 13.7414 28.1098 13.6118C28.4477 13.504 28.801 13.4065 29.1852 13.3219C29.8147 13.213 30.4503 13.1435 31.0885 13.114C31.2638 13.114 31.4392 13.114 31.6043 13.114M31.6043 11.0613C31.4057 11.0613 31.1994 11.0613 30.9931 11.0613C30.2702 11.0944 29.5502 11.1724 28.8371 11.2948L28.7339 11.3153C28.3213 11.4051 27.9113 11.5155 27.478 11.654C26.9889 11.8065 26.5108 11.9917 26.0467 12.2083H26.0338L25.8739 12.2827C25.8249 12.3083 25.7759 12.334 25.7295 12.3622C25.6161 12.4289 25.5 12.5008 25.3865 12.5752C23.4346 13.671 21.8702 15.3395 20.907 17.3529C20.026 19.1879 19.5603 21.1928 19.5427 23.2263C19.5415 23.2485 19.5415 23.2708 19.5427 23.293V23.3494C19.5357 24.3177 19.6221 25.2843 19.8006 26.2361V26.2746C19.8419 26.4799 19.8857 26.6877 19.9347 26.893L19.9528 26.9751V27.0033C19.9992 27.1881 20.0456 27.3625 20.0946 27.5319C20.1101 27.5806 20.123 27.632 20.1385 27.6807C20.1849 27.8295 20.2339 27.9835 20.2906 28.1503L20.3035 28.1811L20.3499 28.3196C20.4093 28.4813 20.4737 28.6481 20.5434 28.8148C20.5551 28.849 20.5689 28.8824 20.5846 28.9149C20.6207 29.0021 20.6594 29.0997 20.7007 29.2126V29.2408V29.269C20.7368 29.3691 20.7651 29.464 20.7909 29.5513C20.7909 29.5513 20.7909 29.5718 20.7909 29.582C20.8141 29.6693 20.8399 29.7668 20.8606 29.872V29.9182C20.8786 30.008 20.8941 30.1029 20.907 30.1953V30.2389C20.907 30.3416 20.9302 30.4442 20.9379 30.5391V30.5571C20.9379 30.6546 20.9379 30.7495 20.9379 30.8573V30.9189C20.9355 31.1208 20.9191 31.3222 20.8889 31.5219C20.8373 31.8746 20.7411 32.2195 20.6027 32.5482C20.5691 32.6329 20.5305 32.715 20.4918 32.8048C19.8728 34.1032 18.6866 35.2655 17.4177 36.4997C16.3011 37.5928 15.1431 38.7218 14.1812 40.1125C11.6023 43.8485 11.0092 49.455 12.6984 54.3944C13.7173 57.3401 15.4508 59.9903 17.7453 62.1101C20.4196 64.5708 23.7721 66.4568 27.7746 67.7397C30.7945 68.7045 34.3869 69.2151 38.1598 69.2151C41.8768 69.232 45.5777 68.7284 49.1537 67.7192C50.316 68.6747 51.6508 69.401 53.0865 69.8592C54.6381 70.3981 56.2659 70.6882 57.909 70.7187C59.6038 70.7283 61.2729 70.3061 62.7573 69.4922L62.8167 69.4614C65.3079 68.1785 67.5721 65.8409 68.8771 63.1724C68.9441 63.0338 69.0112 62.8927 69.0731 62.749C69.0937 62.708 69.1117 62.6643 69.1298 62.6207L69.1427 62.5899L69.2639 62.3026L69.331 62.1255C69.3696 62.028 69.4032 61.9331 69.4367 61.8381V61.8176C69.4573 61.7637 69.4754 61.7124 69.4934 61.6585C69.5321 61.5482 69.5682 61.4327 69.6017 61.3198V61.2967C69.6146 61.2608 69.6249 61.2249 69.6353 61.1889C69.6817 61.0376 69.7229 60.8785 69.7642 60.7194C69.7642 60.6809 69.7823 60.6424 69.7926 60.6039V60.5757C69.8209 60.4577 69.8467 60.3422 69.8725 60.2242C69.8725 60.1729 69.8932 60.1164 69.9035 60.06V60.0446C69.9241 59.9342 69.9422 59.8239 69.9602 59.7161V59.6982C69.9602 59.6417 69.9783 59.5853 69.986 59.5288C70.004 59.4108 70.0195 59.2902 70.0324 59.1721V59.1414C70.0324 59.0977 70.0324 59.0567 70.0453 59.0131C70.0634 58.8411 70.0763 58.6692 70.0866 58.4999C70.0866 58.4716 70.0866 58.4486 70.0866 58.428C70.1482 57.5777 70.1154 56.7232 69.9886 55.8801C69.8857 55.2134 69.7226 54.5573 69.5012 53.9197C69.42 53.6795 69.294 53.4566 69.1298 53.2628C69.0215 53.0063 68.9054 52.7651 68.7791 52.5239C68.5418 52.062 68.2942 51.5924 68.0209 51.0844C67.6205 50.3329 67.136 49.6287 66.5767 48.9855C65.8421 48.1188 64.9452 47.4025 63.9359 46.8763C63.041 46.4247 62.2493 46.0629 61.5195 45.7704C61.0965 45.601 60.7071 45.4625 60.3332 45.3419L59.8999 45.211C59.6085 45.1289 59.3171 45.0571 59.036 44.998C58.9122 44.9724 58.7781 44.9493 58.6621 44.9288C58.1798 43.3482 57.8084 41.8368 57.8033 40.4949C57.8033 40.3358 57.8033 40.1767 57.8162 40.0279C57.8291 39.8791 57.842 39.7302 57.8626 39.5865C57.9103 39.2435 57.9968 38.907 58.1205 38.5833C58.4661 37.6801 59.1753 36.8461 59.9257 35.9635C61.0295 34.6626 62.2828 33.1897 62.6465 31.1421C62.7802 30.3459 62.7671 29.532 62.6078 28.7404C62.6088 28.7293 62.6088 28.7182 62.6078 28.7071C62.6078 28.6917 62.6078 28.6737 62.6078 28.6532C62.5317 28.2843 62.4282 27.9215 62.2983 27.5678C62.2441 27.4215 62.1874 27.2753 62.1255 27.1342C62.0997 27.0752 62.0714 27.0187 62.0456 26.9597L62.0275 26.9238V26.9084L61.994 26.8442C61.9527 26.7518 61.9037 26.6595 61.8573 26.5671L61.7954 26.4542C61.749 26.367 61.7026 26.2823 61.6536 26.1976L61.5891 26.095L61.5736 26.0693C61.5169 25.9744 61.4602 25.882 61.3983 25.7922C61.3364 25.7024 61.2642 25.5895 61.192 25.4894L61.1533 25.4381C61.1326 25.22 61.1068 25.0045 61.0733 24.7915C61.0398 24.5785 61.014 24.4323 60.9702 24.227C60.9702 24.1859 60.9624 24.1474 60.947 24.1115V24.0859C60.916 23.937 60.8773 23.7831 60.8386 23.6317V23.6137L60.8154 23.5239C60.7097 23.1416 60.5833 22.7542 60.4389 22.3847C60.4404 22.3788 60.4404 22.3726 60.4389 22.3667C60.2777 21.9502 60.0944 21.5425 59.8896 21.1453C59.6317 20.6321 59.3738 20.1421 59.1159 19.6879C58.0998 17.7891 56.6376 16.2829 55.0052 15.4593C52.0859 13.9813 50.0073 13.3501 48.0421 13.3501H47.8771C44.9011 13.4065 42.954 14.3995 41.4531 15.585C38.4229 13.0191 35.8517 11.0459 31.5862 11.0459L31.6043 11.0613Z" fill="#FFD64F"/>
<path d="M60.653 30.7904C60.1682 33.5334 57.2695 35.1525 56.2276 37.8518C53.9247 43.8561 61.3132 52.0541 58.381 58.8923C55.16 66.395 38.6576 69.0713 28.4039 65.792C12.8428 60.8116 11.7829 47.2867 15.9401 41.285C17.8949 38.4625 21.0411 36.574 22.4183 33.695C22.4699 33.5847 22.5214 33.4718 22.5679 33.3589C22.9074 32.526 23.0755 31.6338 23.0622 30.7352C23.0489 29.8365 22.8545 28.9496 22.4905 28.127C20.5073 23.5084 21.4589 15.0203 29.1776 13.3217C34.7815 12.3826 37.1051 14.5713 41.1694 18.0404C48.3181 24.1421 45.1667 22.0381 51.1885 22.5769C58.136 23.1953 61.2049 27.6651 60.653 30.7904Z" fill="#9D479E"/>
<path d="M57.198 47.0146C57.0896 46.8863 56.9865 46.758 56.8808 46.6245C57.3398 47.7689 56.5687 49.0468 55.5913 49.6626C54.6139 50.2784 53.4276 50.4683 52.3961 50.9994C50.2943 52.0874 49.028 54.4403 47.1428 55.9568C44.8889 57.7734 41.8948 58.2507 39.0657 57.9043C35.4063 57.1627 32.26 53.9374 31.5276 50.0398C31.2973 48.7021 31.2626 47.3383 31.4245 45.9908C30.8015 45.8181 30.2553 45.4416 29.8739 44.922C29.4926 44.4024 29.2984 43.7701 29.3227 43.1272C29.3459 41.5132 30.5992 40.2123 32.1208 40.2123C32.2312 40.2134 32.3414 40.2212 32.4509 40.2354C32.7504 38.7872 32.8888 37.3106 32.8635 35.8323C32.8282 34.3248 32.4236 32.8486 31.6849 31.5318C29.4463 31.4367 27.2923 30.6542 25.5188 29.2918C23.5872 27.785 22.2108 25.6847 21.604 23.3184C21.5697 24.9644 21.8715 26.6003 22.4912 28.1269C23.0013 29.3033 23.1736 30.5974 22.9889 31.8654C23.0573 31.8473 23.1272 31.8353 23.1978 31.8295C22.7233 36.4635 18.2076 39.6709 16.4926 44.1664C15.1232 47.7587 15.719 51.9796 17.617 55.2511C19.5151 58.5227 22.6459 60.9475 26.0475 62.4357C29.449 63.9239 31.5895 64.9246 35.2876 65.3352C39.5506 65.8073 45.5104 65.6174 49.6134 64.355C53.5901 63.1362 57.2753 60.4266 59.0161 56.4571C59.3617 53.3908 58.2192 50.1475 57.198 47.0146ZM28.3685 51.5075C28.1489 51.5 27.9331 51.4488 27.7338 51.357C27.5344 51.2653 27.3556 51.1347 27.2078 50.973C27.0599 50.8114 26.9461 50.6219 26.8731 50.4158C26.8001 50.2097 26.7692 49.9911 26.7824 49.7729C26.7774 49.3288 26.9463 48.9001 27.2534 48.5777C27.5605 48.2554 27.9817 48.0647 28.4278 48.0461C28.6465 48.0539 28.8615 48.105 29.0601 48.1965C29.2588 48.2879 29.4371 48.4178 29.5848 48.5785C29.7324 48.7393 29.8464 48.9277 29.9201 49.1328C29.9937 49.3378 30.0256 49.5555 30.0138 49.7729C30.0216 50.2186 29.8538 50.6496 29.5463 50.9737C29.2388 51.2979 28.8161 51.4894 28.3685 51.5075Z" fill="#75357D"/>
<path d="M60.6526 30.7908C61.2045 27.6629 58.1356 23.1931 51.188 22.5799C45.1663 22.041 48.3177 24.1451 41.169 18.0433C37.1046 14.5742 34.7811 12.3855 29.1771 13.3246C28.7275 13.4226 28.2847 13.5495 27.8516 13.7044C33.3008 12.8551 35.614 15.0335 39.6191 18.4744C46.7549 24.5864 43.6061 22.4798 49.6304 23.0186C56.5934 23.6396 59.6416 28.1145 59.0794 31.2475C58.8809 32.3534 58.2903 33.2772 57.5888 34.1598C57.5043 33.3238 57.0998 32.5521 56.4593 32.0045C55.772 31.4378 54.985 31.0028 54.1383 30.7215C50.4247 29.318 46.4918 28.8099 42.608 28.3147C41.4785 28.171 40.3257 28.0273 39.209 28.2531C38.6242 28.3742 38.0753 28.628 37.6052 28.9947C37.1351 29.3615 36.7564 29.8312 36.4986 30.3674C37.6024 30.8652 38.4818 31.7915 39.1832 32.8153C39.8847 33.8391 40.4392 34.9784 41.0736 36.0637C42.1748 37.9497 43.5725 39.7279 45.419 40.8492C47.2655 41.9705 49.62 42.3451 51.531 41.4162C52.756 40.8209 53.6844 39.7766 54.5045 38.6451C52.5961 44.6108 60.4359 52.2444 57.5424 58.9542C56.2788 61.8819 52.1267 64.5146 47.9438 65.9104C52.9133 64.5762 56.9493 62.1976 58.3702 58.885C61.3025 52.0545 53.9139 43.8564 56.2169 37.8445C57.2691 35.1528 60.1677 33.5363 60.6526 30.7908Z" fill="#EB71CA"/>
<path d="M34.7945 29.8619C42.4847 30.0261 42.7271 38.3654 47.7354 39.5457C49.8552 40.046 51.3742 39.5252 52.1195 38.1652C52.5821 37.2794 53.2491 36.5152 54.0659 35.9354C54.8826 35.3556 55.8259 34.9766 56.8182 34.8295C59.9336 34.4164 60.782 30.6343 60.6247 29.1101C60.0444 26.2543 56.9575 23.0931 51.1885 22.5799C45.1668 22.041 48.3182 24.1451 41.1695 18.0433C37.1051 14.5742 34.7816 12.3855 29.1776 13.3246C28.3513 13.4973 27.5487 13.7677 26.787 14.1303C20.8452 17.5815 21.7788 29.4437 34.7945 29.8619Z" fill="#5C2929"/>
<path d="M25.5958 16.6449C26.361 16.2777 27.168 16.0037 27.9993 15.829C33.6342 14.8821 35.9629 17.0914 40.0402 20.5939C47.2121 26.752 44.0478 24.6326 50.0979 25.174C55.8952 25.6872 58.9899 28.8869 59.5573 31.7658C59.5923 32.2263 59.568 32.6894 59.4851 33.1437C60.2866 31.952 60.6792 30.5344 60.6043 29.1024C60.0447 26.2543 56.9578 23.0931 51.1888 22.5799C45.167 22.041 48.3184 24.1451 41.1697 18.0433C37.1054 14.5742 34.7844 12.3855 29.1779 13.3246C28.3515 13.4973 27.5489 13.7677 26.7872 14.1303C25.9842 14.6088 25.2843 15.2406 24.7275 15.9892C24.1707 16.7378 23.7682 17.5885 23.543 18.4924C24.0926 17.7429 24.7914 17.1141 25.5958 16.6449Z" fill="#8C3232"/>
<path d="M34.7945 29.8619C42.4847 30.0262 42.7271 38.3654 47.7354 39.5457C49.8552 40.046 51.3742 39.5252 52.1195 38.1652C52.5821 37.2794 53.2491 36.5152 54.0659 35.9354C54.8826 35.3556 55.8259 34.9766 56.8182 34.8295C59.9336 34.4164 60.782 30.6343 60.6247 29.1101C60.0444 26.2543 56.9575 23.0931 51.1885 22.5799C45.1668 22.041 48.3182 24.1451 41.1695 18.0433C37.1051 14.5742 34.7816 12.3855 29.1776 13.3246C28.3513 13.4973 27.5487 13.7677 26.787 14.1303C20.8452 17.5815 21.7788 29.4437 34.7945 29.8619Z" stroke="#5C2929" stroke-width="4" stroke-linecap="round" stroke-linejoin="round"/>
<path d="M60.653 30.7904C60.1682 33.5334 57.2695 35.1525 56.2276 37.8518C53.9247 43.8561 61.3132 52.0541 58.381 58.8923C55.16 66.395 38.6576 69.0713 28.4039 65.792C12.8428 60.8116 11.7829 47.2867 15.9401 41.285C17.8949 38.4625 21.0411 36.574 22.4183 33.695C22.4699 33.5847 22.5214 33.4718 22.5679 33.3589C22.9074 32.526 23.0755 31.6338 23.0622 30.7352C23.0489 29.8365 22.8545 28.9496 22.4905 28.127C20.5073 23.5084 21.4589 15.0203 29.1776 13.3217C34.7815 12.3826 37.1051 14.5713 41.1694 18.0404C48.3181 24.1421 45.1667 22.0381 51.1885 22.5769C58.136 23.1953 61.2049 27.6651 60.653 30.7904Z" stroke="#5C2929" stroke-width="4" stroke-linecap="round" stroke-linejoin="round"/>
<path d="M37.4145 43.4045C37.4246 43.6222 37.3911 43.8398 37.3161 44.0446C37.2411 44.2494 37.1261 44.4374 36.9777 44.5978C36.8293 44.7581 36.6504 44.8876 36.4513 44.9787C36.2523 45.0698 36.0371 45.1208 35.8182 45.1288C35.3751 45.1114 34.957 44.9203 34.655 44.5972C34.353 44.2742 34.1917 43.8454 34.2064 43.4045C34.1977 43.1875 34.2322 42.9711 34.3078 42.7674C34.3834 42.5638 34.4987 42.377 34.647 42.2178C34.7953 42.0586 34.9737 41.93 35.172 41.8395C35.3704 41.749 35.5847 41.6984 35.8027 41.6904C36.2439 41.7078 36.6605 41.8975 36.9622 42.2183C37.2639 42.5391 37.4264 42.9653 37.4145 43.4045Z" fill="#7E3987"/>
<path d="M25.6599 42.9016C25.6609 43.4786 25.4367 44.0333 25.0344 44.4489C24.6322 44.8644 24.0834 45.1082 23.5039 45.1288C23.2214 45.1212 22.9433 45.0568 22.6863 44.9396C22.4294 44.8224 22.1989 44.6548 22.0086 44.4468C21.8184 44.2388 21.6723 43.9948 21.5792 43.7293C21.486 43.4637 21.4477 43.1822 21.4666 42.9016C21.4702 42.3282 21.6962 41.7784 22.0974 41.3667C22.4986 40.9551 23.0441 40.7135 23.62 40.6924C23.901 40.7002 24.1776 40.764 24.4334 40.88C24.6892 40.9961 24.9191 41.162 25.1093 41.368C25.2995 41.574 25.4462 41.8159 25.5408 42.0793C25.6354 42.3427 25.6759 42.6224 25.6599 42.9016Z" fill="#FF6B9F" stroke="#75357D" stroke-width="3" stroke-linecap="round" stroke-linejoin="round"/>
<path d="M45.0636 49.7783C45.0946 51.0613 44.161 52.0876 42.9747 52.0876C41.7884 52.0876 40.811 51.0613 40.7904 49.7783C40.7697 48.4953 41.7059 47.4844 42.8793 47.4844C44.0527 47.4844 45.0327 48.4953 45.0636 49.7783Z" fill="#FFBE33" stroke="#75357D" stroke-width="3" stroke-linecap="round" stroke-linejoin="round"/>
<path d="M35.5317 55.8162C35.5317 57.0991 34.5569 58.1511 33.368 58.1511C32.1791 58.1511 31.2249 57.1042 31.2404 55.8162C31.2559 54.5281 32.223 53.5068 33.4041 53.5068C34.5853 53.5068 35.5369 54.5358 35.5317 55.8162Z" fill="#3591D6" stroke="#75357D" stroke-width="3" stroke-linecap="round" stroke-linejoin="round"/>
<path d="M32.4401 38.7913C32.4272 40.3744 31.1893 41.6625 29.6781 41.6625C28.1669 41.6625 26.9677 40.3796 26.9986 38.7913C27.0296 37.203 28.2675 35.9482 29.7606 35.9482C30.1249 35.9575 30.4838 36.0386 30.8163 36.187C31.1488 36.3353 31.4484 36.5479 31.6977 36.8124C31.947 37.0769 32.141 37.388 32.2684 37.7277C32.3959 38.0674 32.4542 38.4289 32.4401 38.7913Z" fill="#5FCC96" stroke="#75357D" stroke-width="3" stroke-linecap="round" stroke-linejoin="round"/>
<path d="M50.031 47.8027C50.0401 47.9315 50.023 48.0607 49.9807 48.1828C49.9384 48.3048 49.8718 48.4171 49.7849 48.5129C49.698 48.6087 49.5926 48.6861 49.4749 48.7404C49.3572 48.7948 49.2297 48.8249 49.1001 48.8291C48.8349 48.8191 48.5842 48.7059 48.4019 48.514C48.2197 48.3221 48.1203 48.0667 48.1252 47.8027C48.1165 47.6738 48.134 47.5445 48.1765 47.4225C48.2191 47.3005 48.286 47.1882 48.3731 47.0924C48.4602 46.9966 48.5658 46.9193 48.6836 46.865C48.8014 46.8107 48.929 46.7806 49.0588 46.7764C49.3235 46.7871 49.5735 46.9005 49.7553 47.0923C49.937 47.2841 50.036 47.5392 50.031 47.8027Z" fill="#7E3987"/>
<path d="M56.8077 34.8216L56.6555 34.8473C55.6927 35.0144 54.7817 35.4006 53.9935 35.9756C53.2053 36.5507 52.5612 37.2991 52.1115 38.1625C51.3739 39.525 49.855 40.0458 47.7274 39.5455C43.7353 38.6038 42.7733 33.1153 38.6522 30.8445L38.4305 30.7239C37.2985 30.1618 36.0516 29.8668 34.7865 29.8617C28.7338 29.6667 25.2987 27.0007 23.9551 23.8549C23.1814 22.0619 23.0682 20.0548 23.6353 18.1868C24.1359 16.4871 25.2621 15.0376 26.7893 14.1276C27.551 13.765 28.3536 13.4945 29.18 13.3219C34.7865 12.3827 37.1075 14.5689 41.1744 18.0406C43.3097 19.8624 44.527 20.9555 45.3419 21.6021C47.2554 23.1211 46.9692 22.1999 51.1883 22.5771C54.0741 22.8337 56.2893 23.7523 57.8521 24.9634C59.415 26.1745 60.333 27.6781 60.6193 29.1048C60.7715 30.6264 59.9256 34.4085 56.8077 34.8216Z" fill="#5C2929"/>
<path d="M41.3193 19.8988C41.0976 19.4728 40.8758 19.0494 40.6488 18.6158C39.9577 17.3328 38.9597 16.2064 37.7708 15.6086C35.5787 14.5001 33.8818 13.8971 32.288 13.9279C28.9123 13.992 27.5016 15.5983 25.8795 17.184C24.4405 18.5927 23.8164 20.2913 23.6255 22.1003C23.6023 22.3261 23.5894 22.5519 23.5791 22.7803C23.678 23.1495 23.803 23.5114 23.953 23.8631C25.307 27.0115 28.7421 29.6774 34.7844 29.8725C36.0495 29.8775 37.2964 30.1725 38.4284 30.7346L38.6502 30.8552C38.7559 30.9142 38.8591 30.9758 38.9597 31.0374C40.507 29.5799 41.8661 27.4862 42.2091 25.0485C42.3224 24.2335 42.3172 23.4065 42.1936 22.593C42.0488 21.6542 41.7537 20.7445 41.3193 19.8988Z" fill="#FFB95E"/>
<path d="M42.2036 22.5805C42.0545 21.6446 41.7559 20.7385 41.319 19.8966C41.0972 19.4706 40.8754 19.0472 40.6485 18.6136C40.5608 18.4494 40.468 18.2903 40.3725 18.1338C40.8561 19.1487 41.0735 20.2689 41.0044 21.3899C40.978 21.6871 40.9192 21.9804 40.829 22.2649C40.9451 20.769 40.4112 19.1396 39.6504 17.8644C38.7782 18.162 38.0269 18.7339 37.51 19.4937C37.1282 20.1164 36.8291 20.7857 36.6202 21.4849C36.2177 22.5551 35.9029 23.6561 35.6789 24.7769C35.2003 24.746 34.7206 24.8195 34.2734 24.9925C33.4998 25.3158 32.984 26.0188 32.2361 26.4011C31.3232 26.8656 30.1885 26.7578 29.2755 26.2908C28.3743 25.7891 27.6178 25.0655 27.0783 24.1893C26.6218 23.5469 26.304 22.8174 26.1448 22.0468C25.9668 21.0204 26.2092 19.9607 26.5161 18.9677C26.8998 17.7138 27.3845 16.4928 27.9655 15.3164C27.2233 15.8938 26.5251 16.5251 25.8765 17.2049C24.4375 18.6136 23.8134 20.3122 23.6226 22.1212C23.5994 22.347 23.5865 22.5728 23.5762 22.8012C23.6768 23.1635 23.8026 23.5185 23.9527 23.8635C25.3066 27.0118 28.7417 29.6778 34.7841 29.8728C36.0492 29.8779 37.2961 30.1729 38.428 30.735L38.6498 30.8556C38.7556 30.9146 38.8587 30.9762 38.9593 31.0377C40.5066 29.5803 41.8657 27.4865 42.2087 25.0489C42.3267 24.2302 42.325 23.3987 42.2036 22.5805Z" fill="#D9724C"/>
<path d="M29.0747 25.4352C29.665 25.0673 29.8413 24.2892 29.4686 23.6971C29.0959 23.105 28.3153 22.9232 27.725 23.291C27.1347 23.6588 26.9584 24.437 27.3311 25.0291C27.7038 25.6212 28.4845 25.803 29.0747 25.4352Z" fill="#78422F"/>
<path d="M36.3043 20.4092C37.0177 19.9647 37.2307 19.024 36.7801 18.3082C36.3295 17.5924 35.3859 17.3726 34.6725 17.8171C33.9592 18.2617 33.7461 19.2023 34.1967 19.9181C34.6473 20.6339 35.5909 20.8538 36.3043 20.4092Z" fill="#78422F"/>
<path d="M36.8492 26.3561C37.4394 25.9882 37.6158 25.2101 37.243 24.618C36.8703 24.0259 36.0897 23.8441 35.4994 24.2119C34.9092 24.5797 34.7328 25.3579 35.1055 25.95C35.4782 26.5421 36.2589 26.7239 36.8492 26.3561Z" fill="#78422F"/>
<path d="M31.6575 23.1492C32.0244 22.9206 32.1343 22.4373 31.903 22.0697C31.6717 21.7022 31.1866 21.5897 30.8197 21.8184C30.4527 22.047 30.3428 22.5303 30.5742 22.8978C30.8055 23.2654 31.2905 23.3779 31.6575 23.1492Z" fill="#78422F"/>
<path d="M32.387 28.6473C32.7539 28.4186 32.8638 27.9353 32.6325 27.5678C32.4011 27.2003 31.9161 27.0877 31.5492 27.3164C31.1822 27.5451 31.0723 28.0284 31.3036 28.3959C31.535 28.7634 32.02 28.8759 32.387 28.6473Z" fill="#78422F"/>
<path d="M40.0078 21.6827C40.2468 21.5338 40.3186 21.2193 40.1682 20.9803C40.0177 20.7413 39.702 20.6683 39.463 20.8172C39.224 20.9662 39.1522 21.2807 39.3027 21.5197C39.4531 21.7587 39.7688 21.8317 40.0078 21.6827Z" fill="#78422F"/>
<path d="M27.2959 19.7355C27.5349 19.5865 27.6067 19.272 27.4563 19.033C27.3058 18.794 26.9901 18.721 26.7511 18.87C26.5121 19.0189 26.4403 19.3334 26.5908 19.5724C26.7412 19.8114 27.0569 19.8844 27.2959 19.7355Z" fill="#78422F"/>
<path d="M30.5887 16.9348C30.9678 16.9784 30.9033 17.5147 30.5268 17.5737C29.9285 17.6737 30.0059 16.8757 30.5887 16.9348Z" fill="#78422F"/>
<path d="M42.2034 22.5798C42.0543 21.6439 41.7557 20.7378 41.3188 19.8958C41.097 19.4699 40.8753 19.0465 40.6483 18.6129C39.9572 17.3299 38.9591 16.2035 37.7703 15.6056C35.5782 14.4972 33.8813 13.8942 32.2875 13.925C28.9117 13.9891 27.5011 15.5954 25.879 17.1811C24.7111 18.341 23.9551 19.848 23.7256 21.4739C24.0873 20.3289 24.7278 19.2906 25.5901 18.4512C27.2097 16.8629 28.6229 15.2592 31.9987 15.1925C33.5925 15.1617 35.2894 15.7647 37.4814 16.8732C38.6677 17.4736 39.6683 18.5898 40.3595 19.8804C40.5864 20.3012 40.8082 20.7272 41.03 21.1634C41.4669 22.0063 41.7655 22.9132 41.9146 23.8499C42.0373 24.6636 42.0417 25.4906 41.9274 26.3055C41.9274 26.3773 41.9042 26.4492 41.8913 26.521C42.046 26.0413 42.1598 25.5494 42.2318 25.0507C42.3423 24.23 42.3328 23.3977 42.2034 22.5798Z" fill="#FFEA5E"/>
<path d="M41.3193 19.8988C41.0976 19.4728 40.8758 19.0494 40.6488 18.6158C39.9577 17.3328 38.9597 16.2064 37.7708 15.6086C35.5787 14.5001 33.8818 13.8971 32.288 13.9279C28.9123 13.992 27.5016 15.5983 25.8795 17.184C24.4405 18.5927 23.8164 20.2913 23.6255 22.1003C23.6023 22.3261 23.5894 22.5519 23.5791 22.7803C23.678 23.1495 23.803 23.5114 23.953 23.8631C25.307 27.0115 28.7421 29.6774 34.7844 29.8725C36.0495 29.8775 37.2964 30.1725 38.4284 30.7346L38.6502 30.8552C38.7559 30.9142 38.8591 30.9758 38.9597 31.0374C40.507 29.5799 41.8661 27.4862 42.2091 25.0485C42.3224 24.2335 42.3172 23.4065 42.1936 22.593C42.0489 21.6542 41.7537 20.7445 41.3193 19.8988Z" stroke="#5C2929" stroke-width="4" stroke-linecap="round" stroke-linejoin="round"/>
<path d="M52.906 36.3871C51.7017 37.0003 49.4323 38.2294 44.6948 36.6642C44.3415 36.5487 43.996 36.4076 43.6633 36.2665C42.2939 34.3831 41.0044 32.1867 38.7866 30.9191C38.6184 30.4811 38.4999 30.0259 38.4333 29.5617C37.8814 25.7719 37.8453 21.8974 40.7388 19.062C40.9967 18.8054 41.2546 18.5488 41.497 18.3179C43.0443 16.8092 44.6716 15.4697 47.9442 15.4082C49.7288 15.3748 51.6346 16.0496 54.0923 17.2941C55.423 17.9664 56.5449 19.2185 57.3185 20.6657C57.5764 21.1378 57.8343 21.6151 58.069 22.0924C58.5584 23.0364 58.8919 24.0527 59.0567 25.1022C59.1123 25.4685 59.1468 25.8378 59.1599 26.2081C59.3146 31.0063 55.7996 34.9117 52.906 36.3871Z" fill="#FFB95E"/>
<path d="M59.0562 25.1025C58.95 24.4204 58.7692 23.7519 58.5173 23.1088C58.4238 24.4997 58.2342 25.8826 57.9499 27.2476C57.7745 28.0841 57.4341 29.0438 56.6218 29.3004C56.106 29.4543 55.5464 29.2619 55.0744 29.0001C54.6025 28.7384 54.1666 28.4023 53.6534 28.2304C52.3949 27.8147 50.9972 28.487 49.7026 28.2047C48.8747 28.02 48.1939 27.4606 47.5054 26.9705C46.8168 26.4804 46.0199 26.0237 45.1843 26.0981C44.5216 26.1546 43.9336 26.5317 43.3069 26.7575C42.6802 26.9833 41.8808 27.0141 41.4424 26.5189C41.0658 26.0878 41.1123 25.4438 41.1845 24.8767L41.5868 21.5C41.654 20.7178 41.7991 19.9443 42.02 19.1907C42.3924 18.0739 43.0887 17.0917 44.0213 16.3682C43.0973 16.9002 42.2534 17.5593 41.5146 18.326C41.2567 18.5825 41.0117 18.8212 40.7564 19.0701C37.8629 21.8926 37.899 25.7799 38.4508 29.5698C38.5175 30.0339 38.636 30.4892 38.8042 30.9271C41.004 32.187 42.2934 34.3834 43.6576 36.2668C43.9955 36.4156 44.341 36.5491 44.6892 36.6645C49.4266 38.2297 51.6961 37.0007 52.9004 36.3874C55.7939 34.912 59.3141 30.999 59.1491 26.2084C59.1394 25.8383 59.1084 25.4691 59.0562 25.1025Z" fill="#D9724C"/>
<path d="M46.6401 24.8901C46.9531 24.2285 46.7023 23.4558 46.0799 23.1643C45.4575 22.8728 44.6992 23.1727 44.3861 23.8343C44.0731 24.4959 44.3239 25.2686 44.9463 25.5601C45.5687 25.8516 46.327 25.5517 46.6401 24.8901Z" fill="#78422F"/>
<path d="M52.1586 21.4435C52.5366 20.6447 52.2329 19.7114 51.4803 19.3589C50.7278 19.0064 49.8113 19.3682 49.4334 20.167C49.0554 20.9657 49.3591 21.899 50.1116 22.2515C50.8642 22.604 51.7807 22.2423 52.1586 21.4435Z" fill="#78422F"/>
<path d="M52.6166 27.6791C52.9297 27.0176 52.6789 26.2449 52.0565 25.9534C51.4341 25.6618 50.6757 25.9618 50.3627 26.6234C50.0497 27.285 50.3005 28.0576 50.9229 28.3492C51.5453 28.6407 52.3036 28.3407 52.6166 27.6791Z" fill="#78422F"/>
<path d="M49.2827 24.7556C49.4768 24.3454 49.3208 23.866 48.9342 23.6849C48.5476 23.5038 48.0769 23.6896 47.8828 24.0999C47.6886 24.5102 47.8446 24.9896 48.2312 25.1706C48.6178 25.3517 49.0886 25.1659 49.2827 24.7556Z" fill="#78422F"/>
<path d="M56.6199 27.0707C56.7169 26.8656 56.6389 26.6259 56.4456 26.5353C56.2523 26.4448 56.017 26.5377 55.9199 26.7428C55.8228 26.948 55.9008 27.1877 56.0941 27.2782C56.2874 27.3687 56.5228 27.2758 56.6199 27.0707Z" fill="#78422F"/>
<path d="M48.9802 32.6049C49.0773 32.3997 48.9993 32.16 48.806 32.0695C48.6127 31.979 48.3773 32.0719 48.2802 32.277C48.1832 32.4821 48.2612 32.7218 48.4545 32.8124C48.6478 32.9029 48.8832 32.81 48.9802 32.6049Z" fill="#78422F"/>
<path d="M47.9936 30.5281C48.1878 30.1178 48.0318 29.6384 47.6452 29.4573C47.2586 29.2763 46.7878 29.4621 46.5937 29.8724C46.3996 30.2826 46.5556 30.762 46.9422 30.9431C47.3288 31.1242 47.7995 30.9384 47.9936 30.5281Z" fill="#78422F"/>
<path d="M55.5903 29.6548C55.7845 29.2445 55.6284 28.7651 55.2419 28.584C54.8553 28.403 54.3845 28.5888 54.1904 28.9991C53.9962 29.4093 54.1523 29.8887 54.5388 30.0698C54.9254 30.2509 55.3962 30.0651 55.5903 29.6548Z" fill="#78422F"/>
<path d="M55.492 22.9756C55.6182 22.7089 55.5167 22.3973 55.2655 22.2796C55.0142 22.1619 54.7082 22.2827 54.582 22.5494C54.4558 22.816 54.5572 23.1276 54.8085 23.2453C55.0598 23.363 55.3658 23.2423 55.492 22.9756Z" fill="#78422F"/>
<path d="M42.8054 21.7217C42.9316 21.455 42.8302 21.1434 42.5789 21.0257C42.3277 20.908 42.0217 21.0288 41.8955 21.2954C41.7693 21.5621 41.8707 21.8737 42.122 21.9914C42.3733 22.1091 42.6793 21.9884 42.8054 21.7217Z" fill="#78422F"/>
<path d="M45.9041 18.8566C46.2806 18.8771 46.2187 19.4391 45.8422 19.5212C45.2491 19.6495 45.3238 18.8207 45.9041 18.8566Z" fill="#78422F"/>
<path d="M43.4028 27.6533C43.7794 27.6764 43.7175 28.2384 43.3409 28.3205C42.7452 28.4488 42.8097 27.62 43.4028 27.6533Z" fill="#78422F"/>
<path d="M42.163 26.4884C42.7149 26.5218 42.622 27.3428 42.0727 27.4609C41.1985 27.6508 41.3068 26.4294 42.163 26.4884Z" fill="#78422F"/>
<path d="M59.1548 26.2081C59.1417 25.8378 59.1073 25.4685 59.0517 25.1022C58.8844 24.0522 58.5483 23.0359 58.0562 22.0924C57.7983 21.6151 57.5611 21.1378 57.3057 20.6657C56.5321 19.2185 55.4103 17.9664 54.0795 17.2941C51.6219 16.0496 49.716 15.3748 47.9314 15.4082C44.6717 15.4697 43.0315 16.8092 41.4842 18.3179C41.2263 18.5745 40.9813 18.8131 40.726 19.062C40.6022 19.1852 40.4836 19.3186 40.3701 19.4366L40.5377 19.2724C42.0851 17.7637 43.7124 16.4243 46.9721 16.3627C48.7567 16.3293 50.6625 17.0042 53.1202 18.2486C54.4509 18.9209 55.5727 20.1731 56.3464 21.6202C56.6043 22.0924 56.8622 22.5696 57.0968 23.0469C57.5889 23.9905 57.9251 25.0068 58.0923 26.0567C58.1479 26.4231 58.1824 26.7923 58.1955 27.1626C58.2986 30.1596 56.9653 32.8076 55.2426 34.732C57.4063 32.782 59.276 29.7362 59.1548 26.2081Z" fill="#FFEA5E"/>
<path d="M52.906 36.3871C51.7017 37.0003 49.4323 38.2294 44.6948 36.6642C44.3415 36.5487 43.996 36.4076 43.6633 36.2665C42.2939 34.3831 41.0044 32.1867 38.7866 30.9191C38.6184 30.4811 38.4999 30.0259 38.4333 29.5617C37.8814 25.7719 37.8453 21.8974 40.7388 19.062C40.9967 18.8054 41.2546 18.5488 41.497 18.3179C43.0443 16.8092 44.6716 15.4697 47.9442 15.4082C49.7288 15.3748 51.6346 16.0496 54.0923 17.2941C55.423 17.9664 56.5449 19.2185 57.3185 20.6657C57.5764 21.1378 57.8343 21.6151 58.069 22.0924C58.5584 23.0364 58.8919 24.0527 59.0567 25.1022C59.1123 25.4685 59.1468 25.8378 59.1599 26.2081C59.3146 31.0063 55.7996 34.9117 52.906 36.3871Z" stroke="#5C2929" stroke-width="4" stroke-linecap="round" stroke-linejoin="round"/>
<path d="M54.8116 35.4638C54.7092 35.2013 54.593 34.9443 54.4634 34.694C54.2674 34.3117 54.0688 33.9242 53.8651 33.5573C53.2462 32.4 52.3539 31.4019 51.2862 30.8656C49.3237 29.8752 47.8021 29.3261 46.3863 29.362C43.3638 29.421 42.1002 30.8579 40.6508 32.2743C40.6328 32.2923 40.6147 32.3128 40.5967 32.3282C43.2194 34.9352 44.465 38.7789 47.7351 39.5512C49.8549 40.0516 51.3739 39.5307 52.1192 38.1682C52.7277 37.0214 53.6647 36.0801 54.8116 35.4638Z" fill="#FFB95E"/>
<path d="M47.9373 32.1338C48.0635 31.8671 47.9621 31.5555 47.7108 31.4378C47.4595 31.3201 47.1535 31.4409 47.0273 31.7076C46.9011 31.9742 47.0025 32.2858 47.2538 32.4035C47.5051 32.5213 47.8111 32.4005 47.9373 32.1338Z" fill="#78422F"/>
<path d="M54.4892 35.6482C54.2313 35.33 53.9399 35.017 53.6743 34.709C53.487 35.3479 53.1219 35.921 52.6211 36.3621C52.1203 36.8031 51.5042 37.0942 50.8442 37.2015C50.1841 37.3089 49.507 37.2282 48.8911 36.9687C48.2752 36.7093 47.7456 36.2817 47.3637 35.7354C47.0181 35.2428 46.786 34.65 46.3064 34.2882C45.7906 33.8905 45.0633 33.8546 44.4857 33.5364C44.119 33.3294 43.825 33.0156 43.643 32.6372C43.461 32.2589 43.3999 31.8341 43.4679 31.4202C43.5359 31.0062 43.7297 30.6229 44.0232 30.3219C44.3168 30.0208 44.696 29.8165 45.1098 29.7363L44.4573 29.626C42.7346 30.1135 41.7469 31.1963 40.6508 32.2663C40.6328 32.2843 40.6147 32.3048 40.5967 32.3202C43.2194 34.9272 44.465 38.7709 47.7351 39.5432C49.8549 40.0436 51.3739 39.5227 52.1192 38.1602C52.6705 37.128 53.4886 36.2608 54.4892 35.6482Z" fill="#D9724C"/>
<path d="M48.6531 37.4268C48.7793 37.1601 48.6779 36.8485 48.4266 36.7308C48.1753 36.6131 47.8693 36.7338 47.7431 37.0005C47.6169 37.2672 47.7184 37.5788 47.9696 37.6965C48.2209 37.8142 48.5269 37.6934 48.6531 37.4268Z" fill="#78422F"/>
<path d="M50.2368 34.7146C50.4309 34.3043 50.2749 33.8249 49.8883 33.6439C49.5017 33.4628 49.031 33.6486 48.8369 34.0589C48.6427 34.4692 48.7987 34.9486 49.1853 35.1296C49.5719 35.3107 50.0427 35.1249 50.2368 34.7146Z" fill="#78422F"/>
<path d="M45.4037 35.7094C45.7168 35.0478 45.466 34.2752 44.8436 33.9836C44.2212 33.6921 43.4628 33.9921 43.1498 34.6537C42.8368 35.3152 43.0876 36.0879 43.71 36.3794C44.3324 36.671 45.0907 36.371 45.4037 35.7094Z" fill="#78422F"/>
<path d="M45.7267 30.4679C47.1503 30.4397 48.6693 30.9811 50.6266 31.9715C51.6891 32.5078 52.5814 33.5111 53.2055 34.6606C53.4067 35.0404 53.6053 35.4176 53.8013 35.7999C53.8425 35.8769 53.8786 35.959 53.9173 36.0385C54.1981 35.8225 54.4966 35.6302 54.8096 35.4638C54.7072 35.2013 54.591 34.9443 54.4615 34.694C54.2655 34.3117 54.0669 33.9242 53.8632 33.5573C53.2442 32.4 52.3519 31.4019 51.2843 30.8656C49.3217 29.8752 47.8002 29.3261 46.3844 29.362C43.3619 29.421 42.0982 30.8579 40.6489 32.2743C40.6308 32.2923 40.6128 32.3128 40.5947 32.3282C40.6755 32.4086 40.7529 32.4881 40.8268 32.5668C42.0002 31.4558 43.2923 30.5141 45.7267 30.4679Z" fill="#FFEA5E"/>
<path d="M54.8116 35.4638C54.7092 35.2013 54.593 34.9443 54.4634 34.694C54.2674 34.3117 54.0688 33.9242 53.8651 33.5573C53.2462 32.4 52.3539 31.4019 51.2862 30.8656C49.3237 29.8752 47.8021 29.3261 46.3863 29.362C43.3638 29.421 42.1002 30.8579 40.6508 32.2743C40.6328 32.2923 40.6147 32.3128 40.5967 32.3282C43.2194 34.9352 44.465 38.7789 47.7351 39.5512C49.8549 40.0516 51.3739 39.5307 52.1192 38.1682C52.7277 37.0214 53.6647 36.0801 54.8116 35.4638Z" stroke="#5C2929" stroke-width="4" stroke-linecap="round" stroke-linejoin="round"/>
<path d="M47.9937 52.201C45.1234 55.0107 45.1569 58.8544 45.7088 62.6109C45.7978 63.2249 45.9777 63.8224 46.2426 64.3839L46.3329 64.5533L46.4257 64.7303L47.0524 65.9209C47.091 65.9928 47.1323 66.0595 47.171 66.1287C52.4784 64.8458 56.8805 62.3953 58.384 58.8903C59.7225 55.7727 58.8998 52.3703 57.8528 49.0218C56.9734 48.7286 56.0518 48.5804 55.1243 48.583C51.3643 48.6523 49.7963 50.4356 47.9937 52.201Z" fill="#5C2929"/>
<path d="M48.2433 62.9954C48.2097 62.9364 48.1788 62.8774 48.1478 62.8184L48.0602 62.649C47.7946 62.087 47.6155 61.4884 47.5289 60.8734C46.9796 57.1169 46.9435 53.2757 49.8138 50.4635C51.619 48.7007 53.1844 46.9148 56.9419 46.843C58.711 46.8096 60.5988 47.4793 63.0358 48.711C64.3562 49.3781 65.4651 50.62 66.2337 52.0467C66.4864 52.5154 66.7348 52.9866 66.979 53.4605C67.4664 54.3981 67.7999 55.4073 67.9667 56.4498C68.7661 61.7022 64.9597 66.0617 61.8753 67.6371C60.6839 68.2453 58.4325 69.4615 53.7363 67.9117C51.6912 67.2369 49.8499 66.0257 48.8725 64.1809L48.2433 62.9954Z" fill="#FFB95E"/>
<path d="M47.777 59.8808C47.8669 60.4946 48.0467 61.092 48.3108 61.6538L48.4011 61.8232C48.432 61.8822 48.463 61.9412 48.4965 62.0002L49.1232 63.1882C50.1006 65.0357 51.9419 66.2442 53.987 66.9216C58.6831 68.4612 60.9345 67.2527 62.126 66.6445C64.7233 65.2289 66.719 62.927 67.7454 60.163C68.1055 58.8706 68.1881 57.5173 67.9878 56.191C67.9022 55.6458 67.7684 55.1091 67.5881 54.5873L67.6087 55.0851C67.8279 56.4912 68.0471 57.9538 67.6087 59.4087C67.1703 60.8635 65.9066 62.3081 64.4238 62.4518C63.8822 62.5057 63.338 62.3877 62.8068 62.5827C62.2265 62.7957 61.8062 63.3268 61.36 63.7758C60.3607 64.8065 59.0325 65.4595 57.6026 65.6233C56.2435 65.7413 54.9179 65.2461 54.1494 64.2557C53.7084 63.686 53.4506 62.9727 52.9709 62.4364C52.0451 61.4101 50.392 61.1227 49.675 59.9167C49.2805 59.2419 49.2521 58.3772 49.2341 57.5638L49.149 53.3711C49.1257 52.3447 49.1309 51.2362 49.7215 50.3125C48.8875 51.1546 48.25 52.169 47.8543 53.2838C47.305 55.3571 47.452 57.633 47.777 59.8808Z" fill="#D9724C"/>
<path d="M67.5392 57.4589C67.3731 56.4174 67.0405 55.4091 66.5541 54.4722C66.3082 54 66.0598 53.5288 65.8088 53.0584C65.0351 51.624 63.9313 50.3847 62.6109 49.7227C60.1739 48.4885 58.2835 47.8188 56.5144 47.8521C52.7595 47.924 51.189 49.7098 49.3889 51.4752C48.7501 52.0953 48.2193 52.8167 47.8184 53.61C48.2306 52.423 48.9149 51.3478 49.817 50.4693C51.6222 48.7066 53.1876 46.9207 56.9451 46.8488C58.7142 46.8155 60.602 47.4852 63.039 48.7168C64.3594 49.384 65.4683 50.6259 66.2368 52.0525C66.4896 52.5212 66.738 52.9925 66.9822 53.4663C67.6963 54.8245 68.0725 56.3333 68.0793 57.866C68.086 59.3988 67.723 60.9108 67.0208 62.2751C67.6034 60.7399 67.7819 59.082 67.5392 57.4589Z" fill="#FFEA5E"/>
<path d="M55.8891 56.2481C56.2161 55.557 55.9536 54.7497 55.3029 54.4448C54.6521 54.14 53.8595 54.4531 53.5325 55.1442C53.2055 55.8353 53.468 56.6426 54.1187 56.9474C54.7695 57.2523 55.5621 56.9391 55.8891 56.2481Z" fill="#78422F"/>
<path d="M61.6525 52.6463C62.0474 51.8116 61.7304 50.8365 60.9443 50.4683C60.1582 50.1001 59.2008 50.4782 58.8059 51.3129C58.411 52.1476 58.728 53.1227 59.5141 53.4909C60.3002 53.8591 61.2576 53.4809 61.6525 52.6463Z" fill="#78422F"/>
<path d="M62.1332 59.1621C62.4602 58.471 62.1978 57.6637 61.547 57.3589C60.8962 57.0541 60.1036 57.3672 59.7766 58.0583C59.4496 58.7493 59.7121 59.5567 60.3629 59.8615C61.0136 60.1663 61.8062 59.8532 62.1332 59.1621Z" fill="#78422F"/>
<path d="M58.6497 56.1079C58.8529 55.6783 58.6896 55.1765 58.285 54.987C57.8804 54.7974 57.3876 54.992 57.1844 55.4215C56.9812 55.851 57.1444 56.3529 57.5491 56.5424C57.9537 56.7319 58.4464 56.5374 58.6497 56.1079Z" fill="#78422F"/>
<path d="M66.3155 58.5248C66.4168 58.3107 66.3349 58.0603 66.1326 57.9655C65.9303 57.8708 65.6842 57.9675 65.5829 58.1816C65.4815 58.3958 65.5634 58.6462 65.7657 58.7409C65.9681 58.8357 66.2142 58.7389 66.3155 58.5248Z" fill="#78422F"/>
<path d="M58.3341 64.309C58.4354 64.0949 58.3535 63.8445 58.1512 63.7497C57.9489 63.6549 57.7027 63.7517 57.6014 63.9658C57.5001 64.1799 57.582 64.4303 57.7843 64.5251C57.9866 64.6199 58.2327 64.5231 58.3341 64.309Z" fill="#78422F"/>
<path d="M57.3059 62.1401C57.5092 61.7106 57.3459 61.2087 56.9413 61.0192C56.5366 60.8297 56.0439 61.0242 55.8406 61.4537C55.6374 61.8833 55.8007 62.3851 56.2053 62.5746C56.6099 62.7642 57.1027 62.5696 57.3059 62.1401Z" fill="#78422F"/>
<path d="M65.2405 61.228C65.4437 60.7985 65.2805 60.2966 64.8758 60.1071C64.4712 59.9176 63.9784 60.1121 63.7752 60.5416C63.572 60.9711 63.7352 61.473 64.1399 61.6625C64.5445 61.852 65.0373 61.6575 65.2405 61.228Z" fill="#78422F"/>
<path d="M65.1377 54.2484C65.27 53.9689 65.1641 53.6425 64.9012 53.5194C64.6383 53.3962 64.318 53.523 64.1858 53.8025C64.0535 54.082 64.1594 54.4084 64.4223 54.5315C64.6852 54.6547 65.0055 54.5279 65.1377 54.2484Z" fill="#78422F"/>
<path d="M51.8828 52.9388C52.0151 52.6593 51.9092 52.3329 51.6463 52.2098C51.3834 52.0867 51.0631 52.2134 50.9309 52.4929C50.7986 52.7724 50.9045 53.0988 51.1674 53.222C51.4303 53.3451 51.7506 53.2184 51.8828 52.9388Z" fill="#78422F"/>
<path d="M48.2433 62.9954C48.2097 62.9364 48.1788 62.8774 48.1478 62.8184L48.0602 62.649C47.7946 62.087 47.6155 61.4884 47.5289 60.8734C46.9796 57.1169 46.9435 53.2757 49.8138 50.4635C51.619 48.7007 53.1844 46.9148 56.9419 46.843C58.711 46.8096 60.5988 47.4793 63.0358 48.711C64.3562 49.3781 65.4651 50.62 66.2337 52.0467C66.4864 52.5154 66.7348 52.9866 66.979 53.4605C67.4664 54.3981 67.7999 55.4073 67.9667 56.4498C68.7661 61.7022 64.9597 66.0617 61.8753 67.6371C60.6839 68.2453 58.4325 69.4615 53.7363 67.9117C51.6912 67.2369 49.8499 66.0257 48.8725 64.1809L48.2433 62.9954Z" stroke="#5C2929" stroke-width="4" stroke-linecap="round" stroke-linejoin="round"/>
<path d="M55.1211 49.9454C55.5157 49.9685 55.4486 50.5536 55.0566 50.6382C54.4325 50.7742 54.5125 49.9095 55.1211 49.9454Z" fill="#78422F"/>
<path d="M52.5039 59.1368C52.8985 59.1625 52.834 59.7475 52.4394 59.8322C51.8153 59.9682 51.8953 59.1009 52.5039 59.1368Z" fill="#78422F"/>
<path d="M51.2061 57.9175C51.7837 57.9535 51.6883 58.8105 51.1132 58.9439C50.2003 59.1338 50.3138 57.8662 51.2061 57.9175Z" fill="#78422F"/>
</g>
<defs>
<radialGradient id="paint0_radial_1_13190" cx="0" cy="0" r="1" gradientUnits="userSpaceOnUse" gradientTransform="translate(39.0833 41.3367) scale(37.67 37.4803)">
<stop offset="0.38" stop-color="#FFD952"/>
<stop offset="0.48" stop-color="#F4BC4A"/>
<stop offset="0.7" stop-color="#DE853A"/>
<stop offset="0.85" stop-color="#D16331"/>
<stop offset="0.94" stop-color="#CC562D"/>
</radialGradient>
<clipPath id="clip0_1_13190">
<rect width="80" height="80" rx="4" fill="white"/>
</clipPath>
</defs>
</svg>
