<svg width="81" height="80" viewBox="0 0 81 80" fill="none" xmlns="http://www.w3.org/2000/svg">
<g clip-path="url(#clip0_1_13362)">
<path d="M70.0602 2.4248L11.1813 2.4248C6.68772 2.4248 3.04492 6.04926 3.04492 10.5203L3.04492 69.4798C3.04492 73.9508 6.68772 77.5752 11.1813 77.5752H70.0602C74.5538 77.5752 78.1966 73.9508 78.1966 69.4798V10.5203C78.1966 6.04926 74.5538 2.4248 70.0602 2.4248Z" fill="url(#paint0_radial_1_13362)"/>
<path d="M59.7344 64.1865C60.2258 64.1865 60.6242 63.7902 60.6242 63.3013C60.6242 62.8124 60.2258 62.416 59.7344 62.416C59.2431 62.416 58.8447 62.8124 58.8447 63.3013C58.8447 63.7902 59.2431 64.1865 59.7344 64.1865Z" fill="#5AB8FF"/>
<path d="M40.6226 65.0847C41.6039 65.0847 42.3994 64.2931 42.3994 63.3167C42.3994 62.3403 41.6039 61.5488 40.6226 61.5488C39.6412 61.5488 38.8457 62.3403 38.8457 63.3167C38.8457 64.2931 39.6412 65.0847 40.6226 65.0847Z" fill="#5AB8FF"/>
<path d="M26.8921 18.4079C27.8734 18.4079 28.669 17.6164 28.669 16.64C28.669 15.6636 27.8734 14.8721 26.8921 14.8721C25.9108 14.8721 25.1152 15.6636 25.1152 16.64C25.1152 17.6164 25.9108 18.4079 26.8921 18.4079Z" fill="#5AB8FF"/>
<path d="M19.2335 15.4961C19.7248 15.4961 20.1232 15.0997 20.1232 14.6108C20.1232 14.1219 19.7248 13.7256 19.2335 13.7256C18.7421 13.7256 18.3438 14.1219 18.3438 14.6108C18.3438 15.0997 18.7421 15.4961 19.2335 15.4961Z" fill="#5AB8FF"/>
<path d="M0.621094 6.04272L0.621094 73.9547C0.621094 75.5576 1.26088 77.0948 2.39977 78.2285C3.53866 79.3621 5.08342 79.9993 6.6944 80H74.5478C75.3456 80 76.1355 79.8436 76.8725 79.5398C77.6096 79.236 78.2792 78.7906 78.8432 78.2292C79.4072 77.6678 79.8545 77.0014 80.1595 76.268C80.4646 75.5345 80.6214 74.7485 80.6211 73.9547V6.04272C80.6211 4.44009 79.9812 2.9031 78.8423 1.76987C77.7033 0.636642 76.1585 0 74.5478 0L6.6944 0C5.08387 0.000680001 3.5395 0.637541 2.40068 1.77062C1.26186 2.90371 0.621777 4.4403 0.621094 6.04272ZM72.1004 75.2171H9.14435C8.1526 75.2171 7.20147 74.8252 6.5002 74.1274C5.79892 73.4297 5.40495 72.4833 5.40495 71.4966L5.40495 8.50343C5.40495 7.51667 5.79892 6.57033 6.5002 5.87259C7.20147 5.17485 8.1526 4.78286 9.14435 4.78286L72.1004 4.78286C73.0922 4.78286 74.0433 5.17485 74.7446 5.87259C75.4458 6.57033 75.8398 7.51667 75.8398 8.50343V71.4966C75.8391 72.4831 75.445 73.4291 74.7438 74.1267C74.0427 74.8243 73.092 75.2165 72.1004 75.2171Z" fill="#FFBE33"/>
<path d="M77.3872 40.0791V71.4961C77.3851 72.8906 76.8275 74.2273 75.8364 75.2133C74.8454 76.1994 73.5019 76.7542 72.1004 76.7563H9.14435C7.74264 76.7549 6.39873 76.2003 5.40757 75.2141C4.41641 74.2279 3.85898 72.8908 3.85761 71.4961L3.85761 40.0791H0.621094L0.621094 73.9491C0.621094 75.552 1.26088 77.0893 2.39977 78.2229C3.53866 79.3565 5.08342 79.9938 6.6944 79.9944H74.5478C75.3456 79.9944 76.1355 79.838 76.8725 79.5342C77.6096 79.2304 78.2792 78.785 78.8432 78.2236C79.4072 77.6623 79.8545 76.9958 80.1595 76.2624C80.4646 75.5289 80.6214 74.7429 80.6211 73.9491V40.0791H77.3872Z" fill="#E88827"/>
<path d="M0.621094 6.04272L0.621094 73.9547C0.621094 75.5576 1.26088 77.0948 2.39977 78.2285C3.53866 79.3621 5.08342 79.9993 6.6944 80H74.5478C75.3456 80 76.1355 79.8436 76.8725 79.5398C77.6096 79.236 78.2792 78.7906 78.8432 78.2292C79.4072 77.6678 79.8545 77.0014 80.1595 76.268C80.4646 75.5345 80.6214 74.7485 80.6211 73.9547V6.04272C80.6211 4.44009 79.9812 2.9031 78.8423 1.76987C77.7033 0.636642 76.1585 0 74.5478 0L6.6944 0C5.08387 0.000680001 3.5395 0.637541 2.40068 1.77062C1.26186 2.90371 0.621777 4.4403 0.621094 6.04272ZM72.1004 75.2171H9.14435C8.1526 75.2171 7.20147 74.8252 6.5002 74.1274C5.79892 73.4297 5.40495 72.4833 5.40495 71.4966L5.40495 8.50343C5.40495 7.51668 5.79892 6.57033 6.5002 5.87259C7.20147 5.17485 8.1526 4.78286 9.14435 4.78286L72.1004 4.78286C73.0922 4.78286 74.0433 5.17485 74.7446 5.87259C75.4458 6.57033 75.8398 7.51668 75.8398 8.50343V71.4966C75.8391 72.4831 75.445 73.4291 74.7438 74.1267C74.0427 74.8243 73.092 75.2165 72.1004 75.2171Z" stroke="#5C2929" stroke-width="4" stroke-linecap="round" stroke-linejoin="round"/>
<path d="M56.5831 18.8209C52.6322 17.9023 48.1114 18.6336 45.3082 21.5793C45.0877 21.81 44.8459 22.0196 44.5861 22.2054C44.3285 21.96 44.0312 21.7596 43.7067 21.6126C43.4668 20.6094 43.4307 19.5599 44.1013 18.6644C45.4294 16.8914 56.0673 13.8251 56.5831 18.8209Z" fill="#D457B2"/>
<path d="M26.0051 25.6589C21.5746 25.174 16.1769 26.7417 13.2318 29.7644C12.7519 30.2558 12.3415 30.81 12.012 31.4117C11.9335 30.8622 11.9492 30.3035 12.0584 29.7593C13.3169 23.4394 23.3514 22.5747 24.9529 23.6652C25.6209 24.1194 25.8942 24.8455 26.0051 25.6589Z" fill="#D457B2"/>
<path d="M63.458 23.2833C60.2318 18.0309 50.1844 16.4631 45.318 21.5821C44.5741 22.348 43.6165 22.8744 42.5689 23.0934C41.6353 23.2987 32.1011 25.6593 31.1598 25.9313C30.0135 26.2374 28.8071 26.2436 27.6577 25.9493C23.0157 24.7946 16.5556 26.3547 13.2314 29.7545C10.6525 32.3974 10.5003 36.4746 11.0341 39.2022C11.0341 39.2022 14.5311 66.4009 25.2335 66.1007C33.6433 66.4419 32.8568 57.4202 34.0302 50.269C34.5073 50.269 35.5104 49.9662 35.9824 49.8302C38.3833 49.1426 40.1086 46.7691 39.384 44.6189L45.9266 43.1075C46.8421 45.2526 49.8594 46.3252 52.214 45.6504C61.6141 53.2583 65.2864 56.3425 70.6582 52.6861C77.776 47.8237 63.458 23.2833 63.458 23.2833Z" fill="#FFB95E"/>
<path d="M32.9216 30.0901C32.625 30.8419 32.7849 31.6296 32.9499 32.3584C33.2646 33.7747 33.7236 35.3707 35.1704 35.8531C36.0601 36.1533 37.1071 35.9301 38.0871 35.6838C39.6671 35.2869 41.2359 34.8328 42.7936 34.3213C44.0108 33.9236 45.3725 33.3668 45.9037 32.2686C46.3525 31.3423 46.0714 30.3416 45.7825 29.4461C45.4937 28.5505 45.0089 27.4549 44.1037 27.0495C43.2913 26.6826 42.2675 26.8981 41.3236 27.1162C40.3797 27.3343 33.2517 28.5788 32.9216 30.0901Z" fill="#D9724C"/>
<path d="M70.7341 49.8534C70.4762 51.6059 69.3028 55.0545 64.029 53.8126C61.0271 52.8093 57.5405 49.9509 52.2176 45.6427C49.8657 46.3175 46.8458 45.245 45.9303 43.0999L39.3902 44.6215C40.1149 46.7717 38.387 49.1452 35.986 49.8328C35.5141 49.9688 34.5135 50.269 34.0338 50.2716C34.0183 50.3588 34.008 50.4435 33.9925 50.5282C33.8636 50.3563 33.549 50.5615 33.549 50.5615C33.5288 49.8914 33.5469 49.2206 33.6031 48.5524C33.6078 48.3738 33.6819 48.204 33.8098 48.0786C33.9378 47.9532 34.1096 47.8821 34.2891 47.8802C36.0608 47.8468 39.5913 47.2079 39.0137 43.3205C38.9927 43.1692 39.0314 43.0157 39.1219 42.8922C39.2123 42.7688 39.3473 42.685 39.4985 42.6585C42.2399 42.1659 44.2591 41.4833 47.1114 41.0215C47.3491 41.6747 47.7156 42.274 48.1894 42.7843C48.7174 43.3568 49.4411 43.7128 50.219 43.7824C50.9617 43.844 53.3549 43.7362 54.5825 42.3481L54.8971 42.3224C55.547 42.792 56.1865 43.2641 56.8519 43.7285C59.209 45.4049 61.6246 46.9907 64.0986 48.4857C65.3145 49.2667 66.605 49.9259 67.9515 50.4538C68.4253 50.6228 68.9373 50.6561 69.4292 50.5499C69.9211 50.4438 70.3732 50.2025 70.7341 49.8534Z" fill="#D9724C"/>
<path d="M30.6372 58.9725C31.0034 58.4773 31.3387 57.9872 31.6507 57.4946C31.7307 60.7405 29.0048 67.4709 21.7478 63.5963C19.0315 62.1229 16.8957 59.7791 15.6873 56.9455C12.3116 49.1477 11.0453 39.2048 11.0453 39.2048C10.5115 36.4798 10.6611 32.4 13.2425 29.7571C13.9368 29.0632 14.7167 28.4596 15.5636 27.9609C14.7787 28.5407 14.1968 29.3512 13.9002 30.278C13.5108 31.543 13.6423 32.9029 13.8202 34.2115C14.9905 42.8451 17.9434 51.1444 22.4931 58.5877C23.2667 59.8706 24.2493 61.228 25.7167 61.5718C27.6354 62.0311 29.4664 60.5557 30.6372 58.9725Z" fill="#D9724C"/>
<path d="M19.6653 49.8115C19.8745 49.0354 19.3894 48.2316 18.5819 48.0161C17.7743 47.8007 16.9502 48.2552 16.741 49.0313C16.5319 49.8074 17.0169 50.6112 17.8245 50.8266C18.632 51.042 19.4562 50.5875 19.6653 49.8115Z" fill="#FFB95E"/>
<path d="M64.8724 48.1152C65.0815 47.3391 64.5964 46.5353 63.7889 46.3199C62.9814 46.1044 62.1572 46.5589 61.948 47.335C61.7389 48.1111 62.224 48.9149 63.0315 49.1303C63.839 49.3458 64.6632 48.8913 64.8724 48.1152Z" fill="#FFB95E"/>
<path d="M17.2907 52.7669C17.3837 52.422 17.1691 52.065 16.8114 51.9696C16.4537 51.8742 16.0884 52.0764 15.9955 52.4214C15.9025 52.7663 16.1171 53.1233 16.4748 53.2187C16.8325 53.3141 17.1978 53.1118 17.2907 52.7669Z" fill="#FFB95E"/>
<path d="M60.9821 48.3978C61.0751 48.0528 60.8605 47.6959 60.5028 47.6004C60.1451 47.505 59.7798 47.7073 59.6869 48.0522C59.5939 48.3971 59.8085 48.7541 60.1662 48.8495C60.5239 48.945 60.8892 48.7427 60.9821 48.3978Z" fill="#FFB95E"/>
<path d="M12.9714 31.1299C16.2931 27.73 22.7403 26.1725 27.3952 27.3272C28.5447 27.6215 29.751 27.6153 30.8974 27.3092C31.8412 27.0526 41.3729 24.674 42.3064 24.4713C43.3548 24.2512 44.3125 23.7229 45.0555 22.9549C49.9219 17.8384 59.9693 19.4062 63.1955 24.6586C63.1955 24.6586 73.1861 41.7835 72.3248 50.251C74.6458 42.443 63.4585 23.2833 63.4585 23.2833C60.2323 18.0309 50.1849 16.4631 45.3186 21.5821C44.5747 22.348 43.6171 22.8744 42.5695 23.0934C41.6359 23.2987 32.1017 25.6593 31.1604 25.9313C30.0141 26.2374 28.8077 26.2436 27.6583 25.9493C23.0163 24.7946 16.5561 26.3547 13.2319 29.7545C11.8058 31.2145 11.1224 33.1133 10.8877 34.9813C11.2285 33.537 11.9474 32.2082 12.9714 31.1299Z" fill="#FFEA5E"/>
<path d="M56.519 19.1317C55.4701 18.9676 54.4084 18.8989 53.3469 18.9264C52.2972 18.9515 51.2538 19.0952 50.2368 19.3549C49.2272 19.6103 48.2584 20.005 47.3587 20.5275C47.137 20.6635 46.9229 20.8098 46.7037 20.9484C46.4845 21.0869 46.2833 21.2563 46.0848 21.4205L45.7882 21.6771C45.6902 21.7643 45.5974 21.8413 45.4839 21.9491C45.2677 22.1416 45.0337 22.3134 44.785 22.4622C44.7166 22.5123 44.631 22.5332 44.5471 22.5204C44.4632 22.5077 44.3878 22.4623 44.3376 22.3943C44.2873 22.3262 44.2662 22.2411 44.2791 22.1576C44.2919 22.0741 44.3375 21.9991 44.4059 21.9491C44.5996 21.7841 44.783 21.6075 44.9552 21.4205C45.03 21.3332 45.1357 21.2229 45.2311 21.1203L45.5226 20.8072C45.7263 20.6071 45.9481 20.4275 46.1621 20.2376C46.3762 20.0477 46.6186 19.8938 46.8533 19.7244C47.8116 19.1007 48.8668 18.6386 49.9763 18.3568C52.1774 17.7995 54.4896 17.851 56.6634 18.5056C56.7462 18.5247 56.8179 18.5757 56.8629 18.6473C56.9079 18.719 56.9224 18.8056 56.9032 18.8879C56.8841 18.9703 56.8328 19.0417 56.7608 19.0864C56.6887 19.1312 56.6017 19.1456 56.519 19.1266V19.1317Z" fill="#9C5237"/>
<path d="M25.9691 25.9795C24.6752 25.9279 23.3794 26.0044 22.1007 26.2078C20.8273 26.4085 19.5766 26.7324 18.3665 27.1752C17.1639 27.6134 16.0192 28.195 14.9572 28.9072C14.6838 29.074 14.4414 29.2844 14.1835 29.4717C13.9256 29.659 13.7064 29.8848 13.4692 30.0952C13.0158 30.5332 12.6174 31.0243 12.2829 31.5578C12.2377 31.6236 12.1694 31.6703 12.0915 31.6888C12.0135 31.7073 11.9315 31.6963 11.8612 31.6578C11.791 31.6194 11.7377 31.5563 11.7118 31.4809C11.6858 31.4054 11.6889 31.3231 11.7207 31.2499C12.0224 30.6257 12.4085 30.0456 12.8683 29.5256C13.1081 29.269 13.348 29.0304 13.6033 28.7969C13.8586 28.5634 14.1191 28.3401 14.4001 28.1451C15.5064 27.3355 16.7219 26.685 18.0106 26.213C19.2895 25.7439 20.6202 25.4286 21.9744 25.2739C23.3251 25.1104 24.6921 25.1346 26.0361 25.3457C26.1206 25.3542 26.1982 25.3958 26.2519 25.4612C26.3056 25.5266 26.3309 25.6106 26.3224 25.6947C26.3138 25.7787 26.2721 25.8559 26.2063 25.9093C26.1405 25.9628 26.0561 25.988 25.9717 25.9795H25.9691Z" fill="#9C5237"/>
<path d="M27.8522 59.3296C27.99 58.8183 27.6716 58.2891 27.1411 58.1476C26.6106 58.0061 26.0688 58.3059 25.9311 58.8173C25.7933 59.3286 26.1117 59.8579 26.6422 59.9993C27.1727 60.1408 27.7145 59.841 27.8522 59.3296Z" fill="#A85C42"/>
<path d="M68.1644 42.7671C68.3016 42.2579 67.9846 41.7309 67.4564 41.59C66.9281 41.4491 66.3886 41.7476 66.2514 42.2568C66.1142 42.7659 66.4312 43.293 66.9594 43.4339C67.4877 43.5748 68.0272 43.2763 68.1644 42.7671Z" fill="#A85C42"/>
<path d="M29.0615 56.2749C29.1611 55.9053 28.9307 55.5227 28.5468 55.4203C28.163 55.3179 27.7711 55.5345 27.6715 55.9041C27.5719 56.2737 27.8024 56.6563 28.1862 56.7586C28.57 56.861 28.9619 56.6445 29.0615 56.2749Z" fill="#A85C42"/>
<path d="M23.5517 47.019C23.6513 46.6495 23.4209 46.2669 23.0371 46.1645C22.6533 46.0621 22.2614 46.2787 22.1618 46.6482C22.0622 47.0178 22.2926 47.4004 22.6764 47.5028C23.0602 47.6052 23.4521 47.3886 23.5517 47.019Z" fill="#A85C42"/>
<path d="M30.8984 30.3227C30.998 29.9532 30.7676 29.5706 30.3838 29.4682C29.9999 29.3658 29.6081 29.5824 29.5085 29.9519C29.4089 30.3215 29.6393 30.7041 30.0231 30.8065C30.4069 30.9089 30.7988 30.6923 30.8984 30.3227Z" fill="#A85C42"/>
<path d="M63.3837 39.0659C63.4833 38.6963 63.2529 38.3137 62.8691 38.2113C62.4853 38.109 62.0934 38.3255 61.9938 38.6951C61.8942 39.0647 62.1246 39.4473 62.5084 39.5497C62.8923 39.6521 63.2841 39.4355 63.3837 39.0659Z" fill="#A85C42"/>
<path d="M51.4511 30.6089C51.5507 30.2393 51.3203 29.8567 50.9365 29.7543C50.5527 29.6519 50.1608 29.8685 50.0612 30.2381C49.9616 30.6076 50.192 30.9902 50.5758 31.0926C50.9596 31.195 51.3515 30.9784 51.4511 30.6089Z" fill="#A85C42"/>
<path d="M54.6665 32.5419C54.821 31.9684 54.4634 31.3747 53.8678 31.2158C53.2721 31.0568 52.6639 31.3929 52.5093 31.9664C52.3548 32.54 52.7124 33.1337 53.3081 33.2926C53.9037 33.4515 54.5119 33.1155 54.6665 32.5419Z" fill="#A85C42"/>
<path d="M21.2983 45.2333C21.4669 44.6078 21.0761 43.96 20.4254 43.7864C19.7747 43.6128 19.1105 43.9792 18.942 44.6047C18.7734 45.2302 19.1642 45.878 19.8149 46.0516C20.4656 46.2252 21.1298 45.8589 21.2983 45.2333Z" fill="#A85C42"/>
<path d="M28.0008 33.1441L25.5302 33.706C25.3875 33.7365 25.2385 33.7112 25.1141 33.6352C24.9897 33.5592 24.8995 33.4384 24.8623 33.298L24.1892 30.7911C24.152 30.6524 24.0629 30.5332 23.9401 30.4578C23.8174 30.3824 23.6703 30.3566 23.529 30.3857L21.0636 30.5166C20.7773 30.5833 20.5659 31.3094 20.6432 31.5994L21.3086 34.1063C21.3287 34.1733 21.3349 34.2438 21.3266 34.3133C21.3184 34.3828 21.296 34.4499 21.2607 34.5105C21.2254 34.5711 21.1781 34.6238 21.1216 34.6655C21.065 34.7072 21.0006 34.7369 20.9321 34.7529L18.4795 34.8042C18.1933 34.8683 18.0024 35.6715 18.0798 35.9666L18.7529 38.5556C18.7885 38.6958 18.8768 38.8171 18.9996 38.8945C19.1225 38.9718 19.2705 38.9993 19.4131 38.9712L21.8991 38.4042C22.0421 38.3754 22.1908 38.4025 22.3142 38.4799C22.4376 38.5573 22.5264 38.6791 22.5619 38.8198L23.2428 41.3858C23.2784 41.5279 23.3676 41.6509 23.492 41.7293C23.6164 41.8077 23.7663 41.8353 23.9107 41.8066L26.4612 41.2241C26.7501 41.1574 27.1704 40.4235 27.0905 40.1259L26.1517 38.0065C26.1304 37.9389 26.1233 37.8677 26.1309 37.7973C26.1385 37.7269 26.1607 37.6588 26.1961 37.5973C26.2315 37.5359 26.2792 37.4824 26.3364 37.4402C26.3936 37.398 26.4589 37.368 26.5283 37.3521L29.0117 36.7851C29.3006 36.7209 29.6952 36.0307 29.6126 35.7356L28.6713 33.552C28.6336 33.4114 28.5429 33.2906 28.4181 33.2147C28.2932 33.1387 28.1439 33.1134 28.0008 33.1441Z" fill="#873737"/>
<path d="M28.0558 33.3768L26.3873 33.7643L25.5362 33.9593C25.3276 33.991 25.1148 33.9403 24.9431 33.8182C24.775 33.7016 24.655 33.5284 24.6053 33.3306L24.1539 31.6859L23.9218 30.8648C23.9029 30.7943 23.8578 30.7336 23.7955 30.695C23.7332 30.6564 23.6585 30.6428 23.5866 30.657H23.5556H23.5376L21.0722 30.8109H21.1237C21.1779 30.793 21.1237 30.8109 21.0954 30.8699C21.0578 30.933 21.0275 31.0002 21.0051 31.0701C20.9537 31.2078 20.9301 31.3543 20.9355 31.5012L21.2527 32.5865L21.5647 33.7104L21.6421 33.9901V34.026V34.0825C21.6421 34.1184 21.6421 34.1594 21.6576 34.1979C21.6641 34.2769 21.6589 34.3565 21.6421 34.434C21.6101 34.5949 21.5323 34.7433 21.418 34.8616C21.3037 34.9799 21.1577 35.063 20.9974 35.1011C20.9734 35.1037 20.9492 35.1037 20.9252 35.1011L18.4752 35.1678H18.55C18.6403 35.137 18.6093 35.1294 18.5913 35.1678C18.5621 35.2139 18.5379 35.2629 18.5191 35.3141C18.4733 35.4382 18.4429 35.5675 18.4288 35.699C18.4225 35.7535 18.4225 35.8086 18.4288 35.8632C18.4281 35.8683 18.4281 35.8735 18.4288 35.8786L18.4417 35.9299L18.4726 36.0479L18.599 36.5201L19.0993 38.4163L19.1148 38.4702C19.1148 38.4702 19.1148 38.483 19.1148 38.4881C19.1192 38.5008 19.1253 38.5129 19.1328 38.5241C19.1479 38.5472 19.1682 38.5665 19.1921 38.5805C19.214 38.5924 19.2374 38.601 19.2618 38.6062H19.2953H19.3159H19.3752L20.3372 38.3906L21.2965 38.1751L21.7788 38.0699C21.9119 38.0389 22.0505 38.0389 22.1837 38.0699C22.3163 38.0994 22.4411 38.1566 22.55 38.2375C22.6589 38.3184 22.7494 38.4213 22.8155 38.5394C22.8466 38.5987 22.8724 38.6605 22.8929 38.7242C22.9109 38.7909 22.9161 38.8114 22.929 38.8551L23.0528 39.3297L23.3106 40.2791L23.5685 41.2285L23.5943 41.3312C23.5992 41.347 23.6053 41.3624 23.6124 41.3773C23.6281 41.4058 23.6491 41.4311 23.6743 41.4518C23.6989 41.4716 23.7277 41.4855 23.7585 41.4927C23.7893 41.4998 23.8214 41.4998 23.8522 41.4928L25.7735 41.054L26.2557 40.9488L26.3744 40.9232C26.4155 40.8947 26.4528 40.8611 26.4853 40.8231C26.5714 40.7201 26.6433 40.6062 26.6993 40.4844C26.7263 40.4284 26.7479 40.37 26.7638 40.3099C26.7793 40.2586 26.7793 40.1996 26.7818 40.2176L26.7973 40.2637L25.8947 38.1212C25.8936 38.1084 25.8936 38.0955 25.8947 38.0827C25.8556 37.9389 25.8565 37.7873 25.8974 37.644C25.9383 37.5007 26.0176 37.3712 26.1268 37.2693C26.1841 37.2199 26.2474 37.1777 26.3151 37.1436C26.3494 37.1277 26.3847 37.114 26.4208 37.1025L26.5136 37.0794L26.7999 37.0179L27.9423 36.7613L28.5123 36.6355L28.7985 36.5714L28.9404 36.538H28.9739C28.9739 36.538 28.9868 36.538 28.9945 36.538C29.1038 36.4378 29.19 36.3153 29.2473 36.1788C29.2854 36.1084 29.3165 36.0345 29.3401 35.9581C29.3567 35.9094 29.3645 35.8582 29.3633 35.8068V35.8401L28.4298 33.654V33.6309C28.4123 33.5488 28.3637 33.4765 28.294 33.4292C28.2244 33.3819 28.139 33.3631 28.0558 33.3768ZM27.9475 32.9098C28.1527 32.8639 28.3679 32.9008 28.5458 33.0125C28.7195 33.1213 28.8463 33.2905 28.9017 33.4872V33.4564L29.8533 35.6348V35.6605C29.8834 35.801 29.8763 35.9469 29.8327 36.0839C29.7991 36.1935 29.756 36.2999 29.7037 36.402C29.5971 36.6176 29.4407 36.8049 29.2473 36.9486C29.2128 36.972 29.1756 36.9909 29.1364 37.005L29.0693 37.0281H29.0306L28.8888 37.0589L28.6025 37.1256L28.0352 37.2591L26.8953 37.5157L26.6116 37.5849C26.5623 37.5909 26.5162 37.6125 26.4801 37.6465C26.4474 37.6797 26.4244 37.7211 26.4135 37.7663C26.4026 37.8115 26.4042 37.8588 26.4182 37.9031L26.4053 37.862L27.3698 39.9712C27.3753 39.9836 27.3796 39.9965 27.3827 40.0097C27.4162 40.1393 27.4162 40.2753 27.3827 40.4049C27.3591 40.5023 27.3272 40.5976 27.2873 40.6897C27.2097 40.8668 27.1081 41.0325 26.9856 41.1823C26.9115 41.2716 26.8246 41.3494 26.7277 41.4133C26.6954 41.4334 26.6618 41.4514 26.6271 41.4672L26.5626 41.4902H26.5317H26.5162L26.4105 41.5672L25.9334 41.6827L24.0173 42.1394C23.8877 42.1704 23.7528 42.1726 23.6223 42.146C23.4917 42.1194 23.3686 42.0646 23.2616 41.9855C23.1563 41.9068 23.0684 41.8072 23.0038 41.693C22.9717 41.6369 22.9457 41.5775 22.9264 41.5159C22.9032 41.4466 22.9006 41.4287 22.8877 41.3825L22.6298 40.4357L22.3719 39.4914L22.243 39.0167C22.243 38.9834 22.2198 38.9243 22.2146 38.9115C22.2097 38.8974 22.2037 38.8836 22.1966 38.8705C22.1817 38.845 22.1615 38.8232 22.1372 38.8063C22.1156 38.7887 22.0899 38.7767 22.0625 38.7713C22.035 38.766 22.0067 38.7674 21.9799 38.7755L21.5003 38.8884L20.5409 39.1116L19.5816 39.3349L19.5222 39.3477L19.4217 39.3657C19.3515 39.3746 19.2804 39.3746 19.2102 39.3657C19.071 39.3501 18.937 39.3036 18.8182 39.2297C18.7019 39.1575 18.6025 39.0612 18.5268 38.9474C18.489 38.8909 18.457 38.8307 18.4314 38.7678C18.4185 38.737 18.4107 38.7037 18.4004 38.6703L18.3824 38.6062L17.8821 36.692L17.7609 36.2173L17.7325 36.0993L17.7144 36.0326C17.7144 35.9915 17.7144 35.9581 17.6964 35.9274C17.6845 35.819 17.6845 35.7098 17.6964 35.6015C17.7189 35.4074 17.7657 35.2169 17.8356 35.0344C17.8741 34.9324 17.9243 34.8351 17.9852 34.7445C18.0758 34.5932 18.2219 34.4828 18.3927 34.4366C18.4132 34.4341 18.434 34.4341 18.4546 34.4366L20.9071 34.4032H20.8349C20.8658 34.3973 20.8943 34.3825 20.9168 34.3606C20.9392 34.3387 20.9547 34.3107 20.9613 34.28C20.9638 34.2622 20.9638 34.244 20.9613 34.2262C20.9613 34.2262 20.9613 34.2082 20.9613 34.1979V34.162L20.8891 33.8798L20.6002 32.7508L20.4584 32.1863L20.3862 31.904L20.3501 31.7629L20.332 31.691C20.3224 31.6531 20.3155 31.6145 20.3114 31.5756C20.2963 31.3343 20.3342 31.0927 20.4223 30.8674C20.4624 30.7528 20.516 30.6434 20.5822 30.5415C20.6266 30.4644 20.6859 30.3968 20.7567 30.3426C20.8275 30.2884 20.9085 30.2487 20.9948 30.2259H21.0335L23.5015 30.1181H23.4525C23.6634 30.0744 23.8832 30.1132 24.0662 30.2264C24.2491 30.3396 24.3812 30.5186 24.435 30.7262L24.6517 31.5499L25.0901 33.1998C25.1046 33.279 25.149 33.3497 25.2142 33.3974C25.2794 33.4451 25.3605 33.4662 25.4408 33.4564L26.2609 33.2768L27.9475 32.9098Z" fill="#873737"/>
<path d="M28.2613 32.4977L25.7881 33.0622C25.6461 33.0918 25.4981 33.0655 25.375 32.989C25.252 32.9125 25.1634 32.7916 25.1279 32.6517L24.4471 30.1499C24.411 30.0111 24.3225 29.8914 24.2 29.8159C24.0775 29.7404 23.9305 29.7148 23.7895 29.7445L21.2802 30.3167C21.2121 30.3324 21.1478 30.3618 21.0915 30.403C21.0351 30.4442 20.9877 30.4964 20.9522 30.5564C20.9168 30.6164 20.894 30.683 20.8852 30.7521C20.8764 30.8211 20.8818 30.8912 20.9011 30.9582L21.569 33.465C21.5892 33.5323 21.5952 33.6029 21.5868 33.6726C21.5784 33.7422 21.5557 33.8094 21.5202 33.87C21.4847 33.9306 21.437 33.9833 21.3802 34.0249C21.3234 34.0665 21.2587 34.096 21.1899 34.1117L18.7194 34.6762C18.6504 34.6915 18.5854 34.7209 18.5283 34.7623C18.4712 34.8037 18.4232 34.8564 18.3874 34.917C18.3516 34.9777 18.3288 35.045 18.3202 35.1148C18.3116 35.1846 18.3176 35.2554 18.3377 35.3228L19.0133 37.9118C19.0472 38.0532 19.1351 38.1759 19.2583 38.254C19.3815 38.332 19.5305 38.3593 19.6735 38.33L22.157 37.7629C22.3004 37.7341 22.4493 37.7611 22.5732 37.8385C22.697 37.9159 22.7862 38.0376 22.8224 38.1786L23.5006 40.7445C23.5374 40.8865 23.6272 41.0092 23.7519 41.0874C23.8765 41.1657 24.0265 41.1935 24.1711 41.1653L26.7191 40.5829C26.7893 40.5674 26.8555 40.5375 26.9134 40.4951C26.9713 40.4527 27.0196 40.3987 27.0553 40.3366C27.091 40.2745 27.1133 40.2057 27.1206 40.1346C27.128 40.0634 27.1204 39.9915 27.0982 39.9234L26.4045 37.3575C26.3831 37.29 26.376 37.2188 26.3836 37.1484C26.3913 37.0779 26.4135 37.0099 26.4488 36.9484C26.4842 36.8869 26.532 36.8334 26.5891 36.7912C26.6463 36.749 26.7116 36.7191 26.781 36.7032L29.2645 36.1362C29.3333 36.12 29.3981 36.0899 29.4547 36.0477C29.5114 36.0056 29.5587 35.9523 29.5938 35.8912C29.6289 35.83 29.6509 35.7624 29.6586 35.6924C29.6663 35.6224 29.6594 35.5516 29.6384 35.4844L28.9266 32.9031C28.8878 32.7644 28.7976 32.6454 28.6741 32.5702C28.5507 32.495 28.4031 32.4691 28.2613 32.4977Z" fill="#3591D6"/>
<path d="M28.3129 32.7309L27.0518 33.026L26.42 33.1722L26.1028 33.2467L25.9455 33.2826C25.8913 33.2826 25.8475 33.3082 25.7598 33.3211C25.6025 33.337 25.4439 33.3074 25.303 33.236C25.1622 33.1645 25.045 33.0542 24.9655 32.9182C24.9282 32.8517 24.8988 32.7811 24.8778 32.7078L24.8365 32.5539L24.7489 32.2408L24.4059 30.9963L24.2331 30.3754L24.1892 30.2189C24.1798 30.1921 24.1677 30.1663 24.1531 30.1419C24.1221 30.0942 24.0783 30.056 24.0268 30.0316C23.9785 30.0092 23.9248 30.0012 23.872 30.0085L23.578 30.0777L22.9488 30.2291L21.6877 30.5345L21.3731 30.6089C21.3247 30.6144 21.2803 30.6383 21.2493 30.6756C21.2205 30.7078 21.2024 30.7482 21.1977 30.7911C21.1967 30.8589 21.2099 30.9262 21.2364 30.9886L21.582 32.2331L21.7677 32.8438L21.8528 33.1543C21.8917 33.2758 21.921 33.4002 21.9404 33.5263C21.9564 33.7064 21.9152 33.8869 21.8227 34.0425C21.7301 34.198 21.591 34.3208 21.4247 34.3936C21.3831 34.4119 21.3399 34.4265 21.2957 34.4372L21.2106 34.4578L21.0533 34.4963L20.7387 34.5707L19.475 34.8683L18.8432 35.0171H18.7993H18.7813C18.7676 35.0219 18.7559 35.0309 18.7478 35.0428C18.7255 35.066 18.711 35.0956 18.7065 35.1275C18.7311 35.2902 18.769 35.4507 18.82 35.6073L18.985 36.2308L19.3151 37.4804L19.3976 37.7883C19.4084 37.8234 19.4279 37.8552 19.4544 37.8807C19.4802 37.9028 19.5113 37.9178 19.5446 37.9243C19.5591 37.9268 19.574 37.9268 19.5885 37.9243L19.7123 37.8986L20.9785 37.6164L21.6103 37.4727L21.9275 37.4034L22.0849 37.3675C22.1754 37.3478 22.2683 37.3409 22.3608 37.347C22.5401 37.3635 22.7109 37.4304 22.8534 37.5399C22.9958 37.6494 23.1041 37.797 23.1654 37.9654C23.1874 38.0275 23.2055 38.0909 23.2196 38.1552L23.2608 38.3118L23.3434 38.6222L23.6709 39.8718L23.8308 40.5415L23.8488 40.6185V40.6596V40.675C23.8557 40.6958 23.8652 40.7156 23.8772 40.734C23.8992 40.7709 23.9327 40.7998 23.9726 40.8161C24.006 40.833 24.0438 40.8392 24.0809 40.8341L24.3852 40.7699L25.0171 40.6313L26.2859 40.3568L26.6031 40.2875H26.6418H26.6598H26.6882C26.7061 40.2788 26.7226 40.2676 26.7372 40.2542C26.7688 40.225 26.7896 40.1861 26.7965 40.1438C26.8004 40.1209 26.8004 40.0975 26.7965 40.0745C26.7979 40.0626 26.7979 40.0505 26.7965 40.0386L26.7785 39.9616L26.126 37.4573C26.0844 37.297 26.0932 37.1279 26.1513 36.9728C26.2095 36.8177 26.314 36.6841 26.4509 36.59C26.5203 36.5435 26.597 36.5088 26.6779 36.4874C26.7604 36.4643 26.7913 36.4592 26.8507 36.4463L27.1679 36.3771L28.4341 36.0999L29.0685 35.9588L29.2155 35.9229C29.2414 35.9174 29.2659 35.9069 29.2877 35.8921C29.3337 35.8635 29.3683 35.82 29.3857 35.7689C29.4027 35.7137 29.4027 35.6548 29.3857 35.5996L29.3032 35.2942L29.1433 34.6399L28.8029 33.3929L28.7204 33.0824C28.7074 33.0051 28.6794 32.931 28.6378 32.8643C28.6018 32.8139 28.5522 32.7746 28.4947 32.751C28.4372 32.7274 28.3742 32.7204 28.3129 32.7309ZM28.2072 32.2665C28.3591 32.2334 28.5175 32.2449 28.663 32.2996C28.8086 32.3542 28.9351 32.4497 29.0273 32.5744C29.1061 32.6872 29.1613 32.8146 29.1897 32.949L29.2774 33.262L29.6281 34.5039L29.8009 35.1249L29.8912 35.4431C29.93 35.5967 29.9219 35.7584 29.868 35.9075C29.8133 36.0621 29.7091 36.1946 29.5714 36.2847C29.5032 36.3295 29.4284 36.3633 29.3496 36.3848L29.182 36.4232L28.5527 36.5695L27.2891 36.8697L26.9745 36.9441L26.83 36.9801C26.8072 36.9873 26.7855 36.9977 26.7656 37.0108C26.7255 37.0424 26.6958 37.0851 26.6802 37.1336C26.6646 37.182 26.6638 37.234 26.6779 37.2828L27.3793 39.7641L27.4025 39.8436C27.4025 39.8847 27.4206 39.9257 27.4258 39.9668C27.4378 40.0519 27.4378 40.1383 27.4258 40.2234C27.396 40.3943 27.3141 40.552 27.1911 40.675C27.1288 40.7378 27.0565 40.7898 26.977 40.8289C26.9371 40.8482 26.8957 40.8645 26.8532 40.8777L26.7939 40.8956H26.7527L26.438 40.9726L25.177 41.2728L24.5451 41.4242L24.215 41.5012C24.0408 41.533 23.861 41.5115 23.6992 41.4396C23.5389 41.3712 23.4012 41.2591 23.3021 41.1163C23.2533 41.0448 23.2142 40.9671 23.186 40.8854L23.1654 40.8238V40.7853L23.1448 40.7083L22.972 40.0848L22.6367 38.8403L22.4769 38.2502C22.4626 38.2154 22.4394 38.1849 22.4095 38.1619C22.3796 38.1389 22.3441 38.1242 22.3066 38.1193H22.2602L22.1029 38.1552L21.7677 38.2322L21.1358 38.3785L19.8722 38.671C19.8103 38.6838 19.7896 38.6941 19.6787 38.712C19.5866 38.7274 19.4924 38.7274 19.4002 38.712C19.2195 38.6809 19.0519 38.598 18.918 38.4734C18.7858 38.3502 18.6903 38.193 18.642 38.0192L18.5621 37.7011L18.2423 36.4515L18.0824 35.8254L18.0025 35.5123L17.9818 35.4354C17.9818 35.4148 17.9638 35.3558 17.956 35.3173C17.9443 35.2322 17.9443 35.1459 17.956 35.0608C17.9843 34.8772 18.0689 34.7069 18.1985 34.5732C18.2591 34.4979 18.3324 34.4337 18.4151 34.3833C18.4569 34.3628 18.5 34.3448 18.544 34.3295L18.6575 34.2987L19.2919 34.1575L20.5581 33.8779L20.8754 33.8112L21.0327 33.7752L21.1075 33.7598H21.1307C21.1642 33.7459 21.1925 33.7218 21.2115 33.6909C21.2305 33.66 21.2392 33.624 21.2364 33.5879C21.2364 33.5879 21.1977 33.4288 21.1745 33.3313L21.0971 33.0183L20.9372 32.3922L20.6175 31.1426C20.6175 31.0836 20.5943 31.0554 20.5762 30.9579C20.563 30.8728 20.563 30.7863 20.5762 30.7013C20.6017 30.5338 20.6789 30.3783 20.7972 30.2565C20.9155 30.1346 21.069 30.0524 21.2364 30.0213L21.5536 29.952L22.8198 29.6775L23.4543 29.5415L23.6116 29.5056C23.6735 29.5056 23.6992 29.485 23.7947 29.4696C23.9573 29.4488 24.1224 29.4765 24.2692 29.5492C24.4072 29.6216 24.5231 29.7297 24.6044 29.8622C24.6449 29.9305 24.6761 30.0039 24.6973 30.0803L24.7385 30.2368L24.901 30.8604L25.2337 32.1074L25.3188 32.4204L25.3781 32.5872C25.3857 32.6175 25.397 32.6468 25.4116 32.6745C25.4417 32.726 25.4856 32.7682 25.5385 32.7963C25.5913 32.8244 25.651 32.8373 25.7108 32.8335L28.2072 32.2665Z" fill="#873737"/>
<path d="M61.1322 32.6105C62.2852 31.7451 62.594 30.2182 61.822 29.2C61.0501 28.1818 59.4896 28.0579 58.3366 28.9233C57.1837 29.7887 56.8748 31.3156 57.6468 32.3338C58.4188 33.352 59.9793 33.4759 61.1322 32.6105Z" fill="#873737"/>
<path d="M62.4397 30.0217C62.5682 30.7257 62.4185 31.4518 62.0219 32.0487C61.6403 32.6533 61.0653 33.1124 60.3895 33.3522C59.6923 33.6112 58.9208 33.5872 58.2412 33.2855C57.8935 33.125 57.5891 32.8844 57.3532 32.5837C57.1173 32.283 56.9567 31.9307 56.8847 31.5561C56.8145 31.1863 56.8233 30.806 56.9105 30.4399C56.9984 30.083 57.1504 29.7448 57.3593 29.4418C57.7771 28.8482 58.3827 28.411 59.0794 28.1999C59.7737 27.983 60.5253 28.04 61.1786 28.3589C61.5026 28.5217 61.7848 28.7562 62.0034 29.0444C62.2221 29.3327 62.3713 29.667 62.4397 30.0217ZM61.9678 30.1115C61.9133 29.8322 61.7924 29.57 61.6152 29.3468C61.4379 29.1236 61.2095 28.9459 60.9491 28.8285C60.4177 28.5975 59.8162 28.5846 59.2754 28.7926C58.1845 29.1672 57.4237 30.3552 57.6429 31.4098C57.6932 31.6699 57.8026 31.9151 57.9626 32.1268C58.1225 32.3384 58.329 32.511 58.5662 32.6312C59.071 32.8808 59.6534 32.9259 60.1909 32.7569C60.7551 32.5918 61.2468 32.2419 61.5861 31.7639C61.7587 31.527 61.8816 31.2579 61.9472 30.9726C62.0127 30.6873 62.0197 30.3918 61.9678 30.1038V30.1115Z" fill="#873737"/>
<path d="M56.2123 27.1023C57.6745 26.0048 58.0665 24.0687 57.0878 22.7778C56.1091 21.487 54.1303 21.3303 52.6681 22.4278C51.2059 23.5253 50.8139 25.4615 51.7926 26.7523C52.7713 28.0431 54.75 28.1998 56.2123 27.1023Z" fill="#873737"/>
<path d="M57.8078 23.8221C57.9692 24.6976 57.7845 25.6013 57.2921 26.3444C56.8117 27.0928 56.0937 27.66 55.2521 27.9558C54.3887 28.2721 53.435 28.239 52.5959 27.8635C52.1717 27.6638 51.8 27.3686 51.5102 27.0013C51.2202 26.6311 51.023 26.1975 50.9351 25.7363C50.7776 24.8261 50.986 23.8907 51.5153 23.1319C52.0309 22.3959 52.7803 21.8536 53.6429 21.5924C54.5031 21.3161 55.4373 21.3813 56.2502 21.7746C56.6544 21.9748 57.0073 22.2645 57.2817 22.6213C57.5493 22.975 57.7295 23.3864 57.8078 23.8221ZM57.3359 23.9145C57.2619 23.5506 57.1036 23.209 56.8735 22.9167C56.6433 22.6245 56.3478 22.3898 56.0103 22.2313C55.3203 21.9267 54.5375 21.9046 53.8312 22.1697C53.1221 22.4196 52.518 22.8995 52.1162 23.5322C51.7076 24.1338 51.552 24.8706 51.6829 25.5849C51.7501 25.9297 51.896 26.2545 52.1093 26.5343C52.3226 26.8141 52.5976 27.0415 52.9131 27.1989C53.5766 27.525 54.3419 27.5803 55.0458 27.3528C55.7778 27.1342 56.414 26.6757 56.8511 26.0519C57.071 25.7458 57.2272 25.399 57.3104 25.0319C57.3937 24.6649 57.4024 24.285 57.3359 23.9145Z" fill="#873737"/>
<path d="M61.4398 32.0545C62.5906 31.3016 62.9455 29.8167 62.2325 28.7381C61.5196 27.6595 60.0088 27.3954 58.858 28.1484C57.7073 28.9013 57.3524 30.3861 58.0653 31.4648C58.7782 32.5434 60.2891 32.8075 61.4398 32.0545Z" fill="#5FCC96"/>
<path d="M62.7905 29.4829C62.9235 30.175 62.7791 30.8915 62.3882 31.4791C62.0034 32.0747 61.4125 32.5092 60.7274 32.7005C60.0244 32.9053 59.2685 32.8241 58.6256 32.4747C58.3006 32.2948 58.0191 32.0462 57.8008 31.7466C57.5825 31.447 57.4327 31.1035 57.3619 30.7402C57.293 30.3784 57.2992 30.0064 57.38 29.6471C57.4624 29.2924 57.6131 28.957 57.8236 28.6592C58.2425 28.0717 58.8639 27.658 59.5695 27.4968C60.2664 27.3319 61.0006 27.4452 61.6145 27.8125C61.9178 27.9927 62.1793 28.2347 62.382 28.5226C62.5846 28.8105 62.7239 29.1377 62.7905 29.4829ZM62.3186 29.5752C62.2647 29.2989 62.1503 29.0377 61.9836 28.8102C61.817 28.5827 61.602 28.3945 61.3541 28.2589C60.8531 27.9943 60.2678 27.9363 59.7242 28.0973C59.1904 28.2528 58.7319 28.5968 58.4348 29.0646C58.1342 29.5182 58.024 30.0708 58.1279 30.6042C58.1777 30.8624 58.2814 31.1073 58.4325 31.323C58.5836 31.5387 58.7785 31.7204 59.0047 31.8563C59.4755 32.1422 60.0399 32.2343 60.5778 32.1129C61.1363 31.9922 61.6299 31.6694 61.9627 31.2072C62.1312 30.9739 62.2498 30.7087 62.311 30.428C62.3722 30.1472 62.3748 29.857 62.3186 29.5752Z" fill="#873737"/>
<path d="M57.8509 24.0983C57.8543 22.487 56.4831 21.178 54.7882 21.1745C53.0933 21.1709 51.7166 22.4742 51.7132 24.0855C51.7098 25.6967 53.081 27.0058 54.7759 27.0093C56.4708 27.0129 57.8475 25.7095 57.8509 24.0983Z" fill="#FF6B9F"/>
<path d="M57.9502 23.1805C58.0809 23.5865 58.1255 24.0151 58.0811 24.4391C58.0368 24.8631 57.9043 25.2734 57.6923 25.6438C57.2632 26.3969 56.5567 26.9545 55.722 27.1988C54.8787 27.4516 53.9705 27.3783 53.1792 26.9935C52.7788 26.8011 52.4219 26.5296 52.1302 26.1957C51.8385 25.8618 51.6181 25.4724 51.4823 25.0511C51.3487 24.6258 51.3065 24.1773 51.3585 23.7348C51.4164 23.2946 51.5648 22.871 51.7944 22.4903C52.259 21.7424 52.9996 21.2054 53.8575 20.9944C54.6952 20.7845 55.5815 20.8924 56.3436 21.2972C57.108 21.6893 57.6856 22.3663 57.9502 23.1805ZM57.4912 23.3242C57.3796 22.9823 57.1993 22.6666 56.9612 22.3962C56.7231 22.1258 56.4323 21.9064 56.1063 21.7513C55.4552 21.4376 54.7089 21.3808 54.0174 21.5923C53.3398 21.7918 52.7665 22.2453 52.4185 22.8572C52.2502 23.1527 52.1451 23.4795 52.1096 23.8173C52.0741 24.155 52.109 24.4965 52.2122 24.8202C52.4263 25.4752 52.8889 26.0211 53.5016 26.3418C54.1267 26.6768 54.8549 26.7683 55.5441 26.5983C56.2434 26.4287 56.8486 25.9942 57.2307 25.3872C57.4215 25.0796 57.5437 24.7349 57.5892 24.3763C57.6302 24.0226 57.5968 23.6644 57.4912 23.3242Z" fill="#873737"/>
<path d="M37.3412 43.1073C37.786 41.4566 36.7549 39.7471 35.038 39.289C33.3211 38.831 31.5687 39.7979 31.1238 41.4486C30.679 43.0993 31.7101 44.8088 33.427 45.2668C35.1439 45.7249 36.8963 44.758 37.3412 43.1073Z" fill="#D9724C"/>
<path d="M54.391 38.8924C54.8358 37.2417 53.8047 35.5322 52.0878 35.0742C50.3709 34.6162 48.6185 35.583 48.1737 37.2337C47.7288 38.8845 48.76 40.594 50.4768 41.052C52.1937 41.51 53.9461 40.5432 54.391 38.8924Z" fill="#D9724C"/>
<path d="M30.6236 28.0576C31.2735 28.9942 31.6552 30.1104 32.3412 31.011C33.0272 31.9116 34.216 32.625 35.2992 32.2555C36.1631 31.9604 36.6815 31.0854 36.9806 30.2258C37.2798 29.3663 37.4422 28.4451 37.9425 27.6856C38.3499 27.0717 38.9489 26.6083 39.6472 26.3667C40.5782 26.0485 41.5968 26.1537 42.582 26.087C43.5671 26.0203 44.6451 25.6893 45.1222 24.8323C45.2735 24.5362 45.3523 24.2087 45.3523 23.8765C45.3523 23.5443 45.2735 23.2168 45.1222 22.9207C44.8111 22.3299 44.3046 21.8641 43.6883 21.6018C42.5536 21.0886 41.2538 21.2169 40.0186 21.3452C37.8162 21.5787 35.6061 21.8122 33.463 22.3716C32.5534 22.6048 31.6635 22.9085 30.8016 23.2799C30.0279 23.6161 28.9577 24.0266 28.3903 24.6706C27.8229 25.3147 28.1092 25.8766 28.7152 26.2897C29.4576 26.7542 30.1051 27.354 30.6236 28.0576Z" fill="#FFABF1"/>
<path d="M45.1308 22.9209C44.9436 22.5525 44.6736 22.232 44.3416 21.9844H44.303C44.1325 22.6469 43.7704 23.2451 43.2616 23.7048C42.7527 24.1645 42.1195 24.4657 41.4404 24.5708C40.6435 24.6786 39.8415 24.5092 39.0472 24.404C38.2529 24.2988 37.4044 24.268 36.6875 24.6298C35.4419 25.2559 34.9596 26.8699 33.7321 27.5319C33.3279 27.7259 32.8865 27.8309 32.4379 27.8397C31.9893 27.8486 31.5441 27.7611 31.1325 27.5832C30.3125 27.2197 29.5702 26.7032 28.9456 26.0616C28.8569 26.1263 28.7779 26.2032 28.7109 26.29C29.4512 26.7542 30.0969 27.3531 30.6142 28.0553C31.264 28.9919 31.6457 30.1081 32.3317 31.0087C33.0177 31.9093 34.2066 32.6226 35.2897 32.2532C36.1536 31.9581 36.672 31.0831 36.9711 30.2235C37.2703 29.3639 37.4328 28.4428 37.9331 27.6833C38.3404 27.0694 38.9394 26.6059 39.6377 26.3644C40.5687 26.0462 41.5874 26.1514 42.5725 26.0847C43.5577 26.018 44.6356 25.687 45.1127 24.83C45.2664 24.5356 45.3481 24.2093 45.3513 23.8776C45.3544 23.5459 45.2789 23.2181 45.1308 22.9209Z" fill="#FF7DDC"/>
<path d="M28.9041 26.031C29.3872 26.3283 29.8399 26.6721 30.2554 27.0574C30.6748 27.4567 31.0367 27.9118 31.3308 28.4096C31.6197 28.8946 31.8466 29.3847 32.12 29.8388C32.3554 30.2807 32.6485 30.6896 32.9917 31.0551C33.3175 31.3884 33.7178 31.6407 34.1599 31.7915C34.3537 31.8598 34.5597 31.8873 34.7648 31.8723C34.9699 31.8573 35.1696 31.8001 35.3513 31.7043C35.7319 31.4681 36.0348 31.1266 36.223 30.7215C36.4407 30.2627 36.6134 29.7841 36.7388 29.2923C36.8877 28.7327 37.0987 28.1914 37.368 27.6783C37.6724 27.1318 38.1072 26.6683 38.6343 26.3287C39.1563 25.9961 39.7485 25.788 40.3647 25.7205C40.9233 25.6644 41.4849 25.6429 42.0462 25.6564C42.5495 25.6689 43.0522 25.611 43.5393 25.4845C43.9818 25.3779 44.3779 25.1322 44.6689 24.784C44.7989 24.6088 44.8909 24.4086 44.9388 24.1961C44.9868 23.9836 44.9897 23.7635 44.9474 23.5498C44.8614 23.0884 44.6248 22.6681 44.2743 22.3541C44.2192 22.2963 44.1876 22.2201 44.1858 22.1405C44.184 22.0608 44.2121 21.9833 44.2646 21.9231C44.317 21.8629 44.3901 21.8243 44.4696 21.8148C44.5492 21.8053 44.6294 21.8256 44.6947 21.8717C45.1896 22.2579 45.5364 22.8013 45.6773 23.4112C45.7535 23.7275 45.7631 24.0561 45.7054 24.3763C45.6477 24.6965 45.5239 25.0013 45.342 25.2715C44.9567 25.7837 44.4131 26.156 43.7947 26.3312C43.2337 26.4974 42.652 26.5838 42.0668 26.5878C41.5098 26.6109 40.9811 26.6161 40.4911 26.6828C40.0217 26.7361 39.5713 26.8977 39.1759 27.1549C38.7877 27.4109 38.4688 27.7582 38.2474 28.1659C38.0237 28.6177 37.8508 29.0927 37.7317 29.5822C37.6569 29.8388 37.5744 30.0954 37.4738 30.3777C37.3763 30.6583 37.2573 30.9311 37.1179 31.1936C36.8341 31.7708 36.3856 32.2519 35.8284 32.5767C35.5232 32.7351 35.1872 32.8261 34.8433 32.8435C34.5094 32.8607 34.1753 32.8154 33.8582 32.7101C33.2651 32.5081 32.7329 32.1603 32.3108 31.6991C31.4778 30.7882 31.1116 29.7182 30.601 28.8125C30.3692 28.3608 30.0749 27.9436 29.7268 27.5731C29.3596 27.199 28.9619 26.8557 28.5379 26.5468C28.4839 26.4939 28.4505 26.4236 28.4437 26.3485C28.4369 26.2734 28.4571 26.1983 28.5008 26.1366C28.5445 26.075 28.6088 26.0308 28.6822 26.0119C28.7555 25.993 28.8333 26.0007 28.9015 26.0336L28.9041 26.031Z" fill="#9C5237"/>
<path d="M63.4582 23.2835C62.0888 21.0588 59.497 19.5013 56.5828 18.8239C56.0438 13.8255 45.4188 16.8918 44.101 18.6648C43.4304 19.5629 43.4665 20.6098 43.7038 21.6131H43.6832C42.5485 21.0999 41.2487 21.2282 40.0134 21.3565C37.811 21.59 35.6009 21.8235 33.4578 22.3829C32.5482 22.6161 31.6584 22.9198 30.7964 23.2912C30.0227 23.6273 28.9525 24.0379 28.3851 24.6819C27.9209 25.2131 28.0473 25.7083 28.4754 26.1137C28.1968 26.078 27.9204 26.0266 27.6476 25.9597C27.1036 25.8274 26.5514 25.7314 25.9945 25.6724C25.8939 24.8487 25.6206 24.12 24.9578 23.6581C23.3511 22.5599 13.3166 23.4323 12.0633 29.7547C11.9558 30.2982 11.9392 30.8557 12.0143 31.4046C10.6243 33.9038 10.6088 36.9983 11.0395 39.205C11.0395 39.205 14.5365 66.4036 25.2389 66.1034C33.6487 66.4447 32.8621 57.4229 34.0355 50.2718C34.5126 50.2718 35.5158 49.969 35.9877 49.833C38.3887 49.1453 40.114 46.7718 39.3893 44.6216L45.9268 43.1077C46.8423 45.2528 49.8596 46.3254 52.2142 45.6505C61.6143 53.2585 65.2866 56.3427 70.6584 52.6863C77.7762 47.8239 63.4582 23.2835 63.4582 23.2835Z" stroke="#5C2929" stroke-width="4" stroke-linecap="round" stroke-linejoin="round"/>
<path d="M41.5074 29.4822C41.384 29.6564 41.3028 29.8565 41.2701 30.0671C41.2375 30.2777 41.2542 30.4929 41.3191 30.6959C41.394 30.9657 41.5288 31.2152 41.7136 31.4262C41.8984 31.6372 42.1284 31.8041 42.3868 31.9147C42.6469 32.0204 42.9297 32.0588 43.2088 32.0265C43.4879 31.9942 43.7543 31.8922 43.9831 31.73C44.2078 31.5624 44.3812 31.3358 44.4837 31.0756C44.5861 30.8155 44.6138 30.532 44.5634 30.2571C44.3132 29.064 42.3043 28.4995 41.5074 29.4822Z" fill="#FFABF1" stroke="#5C2929" stroke-width="4" stroke-linecap="round" stroke-linejoin="round"/>
</g>
<defs>
<radialGradient id="paint0_radial_1_13362" cx="0" cy="0" r="1" gradientUnits="userSpaceOnUse" gradientTransform="translate(40.622 40) scale(37.67 37.4803)">
<stop offset="0.1" stop-color="#80E4FF"/>
<stop offset="0.32" stop-color="#6EC1FA"/>
<stop offset="0.81" stop-color="#4069EC"/>
<stop offset="1" stop-color="#2D44E6"/>
</radialGradient>
<clipPath id="clip0_1_13362">
<rect x="0.621094" width="80" height="80" rx="4" fill="white"/>
</clipPath>
</defs>
</svg>
