<svg width="80" height="80" viewBox="0 0 80 80" fill="none" xmlns="http://www.w3.org/2000/svg">
<g clip-path="url(#clip0_1_13313)">
<path d="M69.4391 2.4248L10.5603 2.4248C6.06663 2.4248 2.42383 6.04926 2.42383 10.5203L2.42383 69.4798C2.42383 73.9508 6.06663 77.5752 10.5603 77.5752H69.4391C73.9327 77.5752 77.5755 73.9508 77.5755 69.4798V10.5203C77.5755 6.04926 73.9327 2.4248 69.4391 2.4248Z" fill="url(#paint0_radial_1_13313)"/>
<path d="M64.519 14.5309C65.5004 14.5309 66.2959 13.7394 66.2959 12.763C66.2959 11.7866 65.5004 10.9951 64.519 10.9951C63.5377 10.9951 62.7422 11.7866 62.7422 12.763C62.7422 13.7394 63.5377 14.5309 64.519 14.5309Z" fill="#DB5ECF"/>
<path d="M13.854 56.4059C14.8353 56.4059 15.6309 55.6144 15.6309 54.638C15.6309 53.6616 14.8353 52.8701 13.854 52.8701C12.8727 52.8701 12.0771 53.6616 12.0771 54.638C12.0771 55.6144 12.8727 56.4059 13.854 56.4059Z" fill="#DB5ECF"/>
<path d="M68.9542 22.5234C69.4456 22.5234 69.8439 22.1271 69.8439 21.6382C69.8439 21.1493 69.4456 20.7529 68.9542 20.7529C68.4628 20.7529 68.0645 21.1493 68.0645 21.6382C68.0645 22.1271 68.4628 22.5234 68.9542 22.5234Z" fill="#DB5ECF"/>
<path d="M24.6417 62.6181C25.1331 62.6181 25.5314 62.2218 25.5314 61.7329C25.5314 61.244 25.1331 60.8477 24.6417 60.8477C24.1503 60.8477 23.752 61.244 23.752 61.7329C23.752 62.2218 24.1503 62.6181 24.6417 62.6181Z" fill="#DB5ECF"/>
<path d="M0 6.04272L0 73.9547C-1.45114e-07 75.5576 0.639782 77.0948 1.77867 78.2285C2.91757 79.3621 4.46233 79.9993 6.07331 80H73.9267C74.7245 80 75.5144 79.8436 76.2514 79.5398C76.9885 79.236 77.6581 78.7906 78.2221 78.2292C78.7861 77.6678 79.2334 77.0014 79.5384 76.268C79.8435 75.5345 80.0003 74.7485 80 73.9547V6.04272C80 4.44009 79.3601 2.9031 78.2212 1.76987C77.0822 0.636642 75.5374 0 73.9267 0L6.07331 0C4.46277 0.000680001 2.9184 0.637541 1.77958 1.77062C0.640767 2.90371 0.000683442 4.4403 0 6.04272ZM71.4793 75.2171H8.52326C7.53151 75.2171 6.58038 74.8252 5.8791 74.1274C5.17783 73.4297 4.78386 72.4833 4.78386 71.4966L4.78386 8.50343C4.78386 7.51667 5.17783 6.57033 5.8791 5.87259C6.58038 5.17485 7.53151 4.78286 8.52326 4.78286L71.4793 4.78286C72.4711 4.78286 73.4222 5.17485 74.1235 5.87259C74.8248 6.57033 75.2187 7.51667 75.2187 8.50343V71.4966C75.218 72.4831 74.8239 73.4291 74.1227 74.1267C73.4216 74.8243 72.4709 75.2165 71.4793 75.2171Z" fill="#FFBE33"/>
<path d="M76.7661 40.0791V71.4961C76.764 72.8906 76.2064 74.2273 75.2154 75.2133C74.2243 76.1994 72.8808 76.7542 71.4793 76.7563H8.52326C7.12155 76.7549 5.77764 76.2003 4.78648 75.2141C3.79532 74.2279 3.23788 72.8908 3.23652 71.4961L3.23652 40.0791H0L0 73.9491C-1.45114e-07 75.552 0.639782 77.0893 1.77867 78.2229C2.91757 79.3565 4.46233 79.9938 6.07331 79.9944H73.9267C74.7245 79.9944 75.5144 79.838 76.2514 79.5342C76.9885 79.2304 77.6581 78.785 78.2221 78.2236C78.7861 77.6623 79.2334 76.9958 79.5384 76.2624C79.8435 75.5289 80.0003 74.7429 80 73.9491V40.0791H76.7661Z" fill="#E88827"/>
<path d="M71.4791 4.78271C72.4709 4.78271 73.422 5.1747 74.1233 5.87244C74.8246 6.57018 75.2185 7.51653 75.2185 8.50328V71.4964C75.2179 72.483 74.8237 73.4289 74.1225 74.1265C73.4214 74.8241 72.4707 75.2163 71.4791 75.217H8.52307C7.53132 75.217 6.58019 74.825 5.87891 74.1273C5.17764 73.4295 4.78367 72.4832 4.78367 71.4964L4.78367 8.50328C4.78367 7.51653 5.17764 6.57018 5.87891 5.87244C6.58019 5.1747 7.53132 4.78271 8.52307 4.78271L71.4791 4.78271ZM71.4791 3.24316L8.52307 3.24316C7.12136 3.24452 5.77745 3.79915 4.78629 4.78532C3.79513 5.77149 3.23769 7.10863 3.23633 8.50328L3.23633 71.4964C3.23769 72.8911 3.79513 74.2282 4.78629 75.2144C5.77745 76.2005 7.12136 76.7552 8.52307 76.7565H71.4791C72.8806 76.7545 74.2242 76.1997 75.2152 75.2136C76.2062 74.2276 76.7638 72.8909 76.7659 71.4964V8.50328C76.7638 7.10884 76.2062 5.77209 75.2152 4.78607C74.2242 3.80004 72.8806 3.2452 71.4791 3.24316Z" fill="#FFD952"/>
<path d="M0 6.04272L0 73.9547C-1.45114e-07 75.5576 0.639782 77.0948 1.77867 78.2285C2.91757 79.3621 4.46233 79.9993 6.07331 80H73.9267C74.7245 80 75.5144 79.8436 76.2514 79.5398C76.9885 79.236 77.6581 78.7906 78.2221 78.2292C78.7861 77.6678 79.2334 77.0014 79.5384 76.268C79.8435 75.5345 80.0003 74.7485 80 73.9547V6.04272C80 4.44009 79.3601 2.9031 78.2212 1.76987C77.0822 0.636642 75.5374 0 73.9267 0L6.07331 0C4.46277 0.000680001 2.9184 0.637541 1.77958 1.77062C0.640767 2.90371 0.000683442 4.4403 0 6.04272ZM71.4793 75.2171H8.52326C7.53151 75.2171 6.58038 74.8252 5.8791 74.1274C5.17783 73.4297 4.78386 72.4833 4.78386 71.4966L4.78386 8.50343C4.78386 7.51668 5.17783 6.57033 5.8791 5.87259C6.58038 5.17485 7.53151 4.78286 8.52326 4.78286L71.4793 4.78286C72.4711 4.78286 73.4222 5.17485 74.1235 5.87259C74.8248 6.57033 75.2187 7.51668 75.2187 8.50343V71.4966C75.218 72.4831 74.8239 73.4291 74.1227 74.1267C73.4216 74.8243 72.4709 75.2165 71.4793 75.2171Z" stroke="#5C2929" stroke-width="4" stroke-linecap="round" stroke-linejoin="round"/>
<path d="M48.5914 12.1367C53.138 12.1367 56.4545 13.004 56.9393 15.0952C57.2514 18.1897 57.4345 21.025 57.5093 23.6269C58.0749 23.4736 58.6586 23.3959 59.2449 23.3959C60.1735 23.3904 61.091 23.5966 61.9269 23.9989C62.9435 24.5282 63.7997 25.3178 64.4072 26.2862C65.0147 27.2546 65.3514 28.3668 65.3826 29.5079C65.3855 31.0443 64.9246 32.546 64.0597 33.8187C64.0494 33.8372 64.0382 33.8552 64.0261 33.8726C63.9488 33.9906 63.8688 34.1061 63.7837 34.2215C62.7799 35.5319 61.5158 36.6228 60.0701 37.4263L59.8122 37.5777C59.5208 37.7419 59.2475 37.8985 58.9921 38.0755C58.5842 38.354 58.2763 38.7549 58.1135 39.2197C57.9506 39.6845 57.9414 40.1889 58.0869 40.6594C58.1478 40.8626 58.2493 41.0514 58.3854 41.2145C58.5214 41.3777 58.6892 41.5118 58.8787 41.6088C59.152 41.7464 59.4544 41.8167 59.7607 41.8141C59.9775 41.8135 60.1931 41.7806 60.4002 41.7165C60.5018 41.6833 60.6079 41.666 60.7148 41.6652C60.8641 41.6673 61.011 41.7024 61.1448 41.7681C61.2786 41.8338 61.3961 41.9284 61.4885 42.045C61.629 42.2145 61.7148 42.4223 61.7346 42.6412C61.7544 42.86 61.7073 43.0797 61.5994 43.2715C61.2936 43.8422 60.843 44.3234 60.2924 44.6673C59.7418 45.0112 59.1104 45.2058 58.4609 45.2318H58.3835C57.6382 45.2088 56.9107 44.9996 56.2681 44.6234C55.6254 44.2472 55.0882 43.7161 54.706 43.079C52.924 47.0793 50.474 49.3886 47.8616 50.7588L47.9983 50.6844C48.3151 51.3114 48.6637 51.9221 49.0428 52.5139L48.9525 52.5652C49.9557 54.0688 51.0569 55.3877 51.9801 56.527C56.537 56.5783 59.6627 58.4489 59.3738 61.3124C59.3609 61.4279 59.3454 61.5459 59.3248 61.6588C58.6698 65.0612 53.4398 68.538 47.3484 69.5285C46.3049 69.6985 45.2493 69.7843 44.1918 69.7851C39.6968 69.7851 36.5403 68.0402 36.5712 65.3178C36.5715 65.2106 36.5784 65.1035 36.5918 64.9971C36.5968 64.9107 36.6089 64.8249 36.6279 64.7405C36.94 62.8982 38.6034 61.0276 41.025 59.5368C41.4917 57.4405 42.1261 54.8078 42.1803 52.4061C41.8889 52.4267 41.5949 52.4369 41.2957 52.4369C37.7627 52.4369 33.8763 51.0436 30.1575 48.1057C30.0517 49.6452 29.2136 51.1334 27.9319 51.8724C27.3935 52.1826 26.7823 52.3455 26.1602 52.3446C25.4983 52.3464 24.8484 52.169 24.2802 51.8314C24.0946 51.7203 23.9465 51.5568 23.8546 51.3617C23.7628 51.1666 23.7314 50.9487 23.7644 50.7357C23.7916 50.5306 23.8798 50.3382 24.0177 50.1832C24.1555 50.0282 24.3367 49.9177 24.5381 49.8659C25.4484 49.6401 26.2711 48.7651 26.0699 47.6951C25.9881 47.2264 25.7495 46.799 25.3928 46.4822C25.036 46.1655 24.5821 45.978 24.1048 45.9503C23.9681 45.9503 23.8289 45.9503 23.687 45.9503C23.5452 45.9503 23.3415 45.9503 23.1712 45.9503H22.8695H22.6116H22.2635H22.083C21.9437 45.9503 21.8044 45.9503 21.6652 45.9298H21.4821C21.3101 45.9161 21.1451 45.9007 20.9869 45.8836H20.9173C20.7393 45.8605 20.564 45.8348 20.4015 45.804L20.2158 45.7707L19.8832 45.6732L19.6923 45.6296C19.5608 45.5988 19.4344 45.5628 19.3003 45.5269L19.1894 45.4961C18.8381 45.3917 18.4936 45.2657 18.1579 45.1189C16.612 44.4767 15.3365 43.3228 14.5474 41.8525C14.0908 40.9506 13.8508 39.9555 13.8463 38.9456C13.8417 37.9356 14.0728 36.9385 14.5212 36.0324C14.9696 35.1264 15.6232 34.3363 16.4306 33.7242C17.2379 33.1121 18.177 32.6947 19.174 32.5049C18.0741 29.8237 17.1566 27.072 16.4274 24.2683C15.8394 23.3959 16.185 22.3029 16.9097 21.4458C17.44 20.8846 18.0573 20.4116 18.7381 20.0449C19.0141 19.8806 19.29 19.719 19.5685 19.5599C20.8915 18.7275 22.2821 18.0066 23.7257 17.4045C31.0389 14.006 39.0037 12.2196 47.0751 12.1675C47.5908 12.147 48.0937 12.1367 48.5837 12.1367M56.9187 35.0041C57.2823 34.7013 57.6563 34.414 58.0251 34.1317L58.6801 33.6185C58.8477 33.4851 59.0205 33.344 59.1959 33.2003L59.2294 33.1746C59.4013 33.0292 59.5732 32.8778 59.7452 32.7205C60.5188 31.9815 61.1842 31.1142 61.4344 30.0647C61.6104 29.3749 61.5269 28.6449 61.1997 28.012C61.0498 27.6948 60.8107 27.4276 60.5114 27.2427C60.2121 27.0578 59.8653 26.9632 59.5131 26.9703C59.071 26.9815 58.6362 27.0847 58.2365 27.273C57.9909 27.388 57.7546 27.5218 57.5299 27.6733C57.4885 30.1209 57.2913 32.5634 56.9393 34.9862M24.5742 42.222C23.202 40.3566 21.985 38.3828 20.9353 36.3204C20.5485 36.3564 20.1617 36.4179 19.78 36.4641C19.2642 36.5231 17.5054 36.5822 17.5054 38.4142C17.5144 39.1143 17.7804 39.7869 18.2533 40.3053C18.6601 40.7356 19.1529 41.0765 19.7 41.306C20.2083 41.5196 20.7384 41.6779 21.2809 41.7781H21.3248C21.4124 41.7935 21.5001 41.8115 21.5826 41.8243L21.6523 41.8371L21.8947 41.8756H21.9669L22.2661 41.9167C22.5239 41.9526 22.8025 41.9834 23.0732 42.0142C23.5684 42.0706 24.0713 42.1297 24.569 42.2118M48.5914 10.084C48.0911 10.084 47.5599 10.084 47.0441 10.1148C38.6948 10.1772 30.4566 12.0245 22.8876 15.5314C21.3559 16.1738 19.8793 16.9393 18.4725 17.8202L17.655 18.3C16.7853 18.7774 16.001 19.3947 15.334 20.127C14.011 21.6665 13.7041 23.5576 14.4958 25.0586C15.0709 27.2191 15.7337 29.3052 16.4738 31.2835C15.1675 31.947 14.0528 32.9308 13.2348 34.142C12.3951 35.4111 11.9041 36.8769 11.8104 38.3935C11.7168 39.9101 12.0238 41.4246 12.7009 42.7865C13.7136 44.6822 15.3534 46.1715 17.3429 47.0023C17.7631 47.1817 18.1937 47.3359 18.6324 47.4642L18.7562 47.4975H18.7716L19.241 47.6207L19.4525 47.6695H19.4679C19.6046 47.7003 19.7439 47.7285 19.8832 47.7541H19.927L20.1049 47.7875C20.3293 47.826 20.5305 47.8542 20.7239 47.8799H20.8141C20.9998 47.903 21.1958 47.9209 21.3918 47.9363L21.5698 47.9491H21.6059L22.0881 47.9722H22.1294H22.2918H22.6838H22.9727H23.2899C23.442 47.9722 23.589 47.9722 23.736 47.9722C23.1857 48.1816 22.7053 48.5399 22.349 49.0068C21.9928 49.4737 21.775 50.0304 21.7203 50.614C21.6655 51.1977 21.776 51.7849 22.0393 52.3093C22.3026 52.8337 22.7081 53.2743 23.2099 53.5813C24.1024 54.1231 25.1276 54.4099 26.1731 54.4101C27.1591 54.4103 28.1278 54.1519 28.9815 53.6609C29.9188 53.109 30.699 52.3283 31.2484 51.3926C34.0851 53.1605 37.0328 54.1971 39.9521 54.4435C39.7716 55.7264 39.4828 57.0581 39.2068 58.2923C36.6279 60.0628 35.0032 62.1925 34.6164 64.3607C34.5851 64.5098 34.5627 64.6606 34.5493 64.8123C34.5339 64.9765 34.5236 65.1459 34.521 65.3127C34.514 66.0375 34.654 66.7563 34.9328 67.426C35.2115 68.0957 35.6231 68.7026 36.1431 69.2103C37.8374 70.9141 40.7 71.8532 44.2047 71.8532C45.3729 71.8496 46.5389 71.7526 47.6914 71.5632C50.8362 71.0696 53.8444 69.9339 56.5267 68.2275C59.2242 66.4494 60.9418 64.2606 61.3621 62.0694V62.0514C61.3905 61.8872 61.4111 61.7358 61.4292 61.6024V61.5408C61.5101 60.7866 61.4285 60.0238 61.1896 59.3035C60.9508 58.5832 60.5604 57.9218 60.0443 57.3635C58.5744 55.729 56.096 54.7411 52.9962 54.541C52.3592 53.7584 51.6707 52.8988 51.0233 51.9751C50.9707 51.7875 50.8907 51.6085 50.7861 51.4439L50.7526 51.3926C52.5723 50.0565 54.1072 48.3741 55.2682 46.443C56.2103 46.9981 57.2835 47.2948 58.3784 47.3025H58.5047C59.5153 47.2682 60.4993 46.9715 61.3588 46.4416C62.2184 45.9118 62.9237 45.1674 63.4046 44.2825C63.7135 43.7312 63.848 43.1 63.7905 42.4714C63.733 41.8428 63.4861 41.2462 63.0823 40.7595C62.7951 40.4074 62.4326 40.1235 62.0214 39.9282C61.6101 39.7329 61.1602 39.6312 60.7045 39.6305C60.5882 39.6309 60.472 39.6378 60.3564 39.651C60.4956 39.5663 60.653 39.4765 60.8257 39.3764L61.1043 39.2173C62.795 38.2728 64.2717 36.9914 65.442 35.4532C65.5374 35.3223 65.6328 35.1966 65.7411 35.0246L65.7824 34.9605C66.8773 33.3433 67.4553 31.4347 67.4406 29.4848C67.3957 27.9696 66.9448 26.4937 66.1346 25.2099C65.3244 23.9261 64.1843 22.8808 62.8321 22.1823C61.786 21.6756 60.6427 21.3982 59.4796 21.3689C59.379 19.3161 59.2217 17.1479 58.9896 14.913C58.9802 14.8267 58.9655 14.741 58.9457 14.6564C58.2468 11.6389 54.7602 10.1071 48.5889 10.1071L48.5914 10.084ZM19.5737 38.5605L19.7619 38.5348C19.8935 38.776 20.0198 39.0146 20.1617 39.2507C20.0163 39.164 19.8843 39.0568 19.7697 38.9325C19.6733 38.8273 19.6058 38.6992 19.5737 38.5605Z" fill="#FF91F5"/>
<path d="M56.2203 61.3539C55.7329 63.7377 51.8362 66.2035 47.2896 66.9374C42.743 67.6712 39.2228 66.3883 39.2511 64.061C39.251 63.9863 39.2562 63.9117 39.2666 63.8377C39.2705 63.7764 39.2791 63.7155 39.2924 63.6556C39.7257 61.2487 43.6585 58.747 48.2334 58.0106C52.9296 57.2562 56.522 58.6392 56.259 61.1102C56.2461 61.1923 56.2358 61.2718 56.2203 61.3539Z" fill="#FF952B"/>
<path d="M30.0649 46.9564C29.8802 46.0539 29.4788 45.2091 28.895 44.4943C28.3113 43.7794 27.5624 43.2156 26.7123 42.851C25.5337 42.3378 24.2546 42.1813 23.0193 42.0401C22.7614 42.0093 22.4803 41.9786 22.2121 41.9426C20.7963 41.7579 19.2103 41.4295 18.1968 40.3107C17.7229 39.7929 17.4567 39.1199 17.4489 38.4196C17.4489 36.5876 19.1948 36.5286 19.7235 36.4695C20.4688 36.3823 21.227 36.213 21.9877 36.3387C22.0741 36.3493 22.1618 36.337 22.2419 36.3031C22.322 36.2693 22.3917 36.215 22.444 36.1458C22.4963 36.0766 22.5293 35.9949 22.5398 35.9089C22.5502 35.823 22.5377 35.7358 22.5035 35.6562L21.2141 32.7028C21.1784 32.6219 21.1214 32.5521 21.0493 32.5007C20.9772 32.4492 20.8925 32.418 20.804 32.4103C19.6532 32.3314 18.5018 32.5546 17.4649 33.0576C16.428 33.5606 15.5421 34.3257 14.8958 35.2764C14.2639 36.244 13.8936 37.3575 13.8209 38.5091C13.7481 39.6607 13.9754 40.8116 14.4806 41.8503C15.27 43.3203 16.5454 44.4741 18.091 45.1167C19.5922 45.7312 21.2091 46.0157 22.831 45.9506H23.1302C23.4603 45.9506 23.7698 45.9326 24.0741 45.9506C24.5514 45.9783 25.0053 46.1658 25.362 46.4825C25.7188 46.7993 25.9574 47.2267 26.0392 47.6954C26.2404 48.7654 25.4177 49.6404 24.4919 49.8662C24.2905 49.918 24.1093 50.0285 23.9715 50.1835C23.8336 50.3385 23.7454 50.5309 23.7182 50.736C23.6855 50.9498 23.7179 51.1684 23.8113 51.3636C23.9046 51.5589 24.0545 51.7219 24.2417 51.8317C24.8125 52.1762 25.467 52.359 26.1346 52.3602C26.7559 52.3616 27.3665 52.1986 27.9037 51.8881C29.5001 50.9618 30.4104 48.8886 30.0649 46.9564Z" fill="#FFBE33"/>
<path d="M30.0651 46.9565C29.8804 46.054 29.4791 45.2092 28.8953 44.4944C28.3115 43.7795 27.5627 43.2157 26.7125 42.8511C25.534 42.3379 24.2549 42.1814 23.0196 42.0402C22.7617 42.0095 22.4806 41.9787 22.2124 41.9427C21.3274 41.853 20.4593 41.6405 19.6335 41.3115L19.5767 41.35C20.157 41.758 20.7527 42.1814 21.1241 42.7792C21.4954 43.3771 21.6063 44.2033 21.186 44.7729C20.9178 45.1077 20.5382 45.3361 20.1157 45.417C19.793 45.4794 19.4644 45.5061 19.1357 45.4965C20.3383 45.8374 21.5866 45.9915 22.8365 45.9533H23.1356C23.4657 45.9533 23.7752 45.9353 24.0795 45.9533C24.5568 45.981 25.0107 46.1684 25.3674 46.4852C25.7242 46.8019 25.9628 47.2294 26.0446 47.6981C26.2458 48.7681 25.4231 49.643 24.4973 49.8688C24.2959 49.9207 24.1147 50.0312 23.9769 50.1862C23.8391 50.3411 23.7509 50.5335 23.7236 50.7387C23.691 50.9515 23.7229 51.1692 23.8152 51.3639C23.9076 51.5586 24.0561 51.7215 24.242 51.8318C24.8127 52.1763 25.4673 52.3591 26.1349 52.3603C26.7562 52.3617 27.3667 52.1987 27.904 51.8882C29.5003 50.9619 30.4107 48.8887 30.0651 46.9565Z" fill="#E37B26"/>
<path d="M30.0649 46.9564C29.8802 46.0539 29.4788 45.2091 28.895 44.4943C28.3113 43.7794 27.5624 43.2156 26.7123 42.851C25.5337 42.3378 24.2546 42.1813 23.0193 42.0401C22.7614 42.0093 22.4803 41.9786 22.2121 41.9426C20.7963 41.7579 19.2103 41.4295 18.1968 40.3107C17.7229 39.7929 17.4567 39.1199 17.4489 38.4196C17.4489 36.5876 19.1948 36.5286 19.7235 36.4695C20.4688 36.3823 21.227 36.213 21.9877 36.3387C22.0741 36.3493 22.1618 36.337 22.2419 36.3031C22.322 36.2693 22.3917 36.215 22.444 36.1458C22.4963 36.0766 22.5293 35.9949 22.5398 35.9089C22.5502 35.823 22.5377 35.7358 22.5035 35.6562L21.2141 32.7028C21.1784 32.6219 21.1214 32.5521 21.0493 32.5007C20.9772 32.4492 20.8925 32.418 20.804 32.4103C19.6532 32.3314 18.5018 32.5546 17.4649 33.0576C16.428 33.5606 15.5421 34.3257 14.8958 35.2764C14.2639 36.244 13.8936 37.3575 13.8209 38.5091C13.7481 39.6607 13.9754 40.8116 14.4806 41.8503C15.27 43.3203 16.5454 44.4741 18.091 45.1167C19.5922 45.7312 21.2091 46.0157 22.831 45.9506H23.1302C23.4603 45.9506 23.7698 45.9326 24.0741 45.9506C24.5514 45.9783 25.0053 46.1658 25.362 46.4825C25.7188 46.7993 25.9574 47.2267 26.0392 47.6954C26.2404 48.7654 25.4177 49.6404 24.4919 49.8662C24.2905 49.918 24.1093 50.0285 23.9715 50.1835C23.8336 50.3385 23.7454 50.5309 23.7182 50.736C23.6855 50.9498 23.7179 51.1684 23.8113 51.3636C23.9046 51.5589 24.0545 51.7219 24.2417 51.8317C24.8125 52.1762 25.467 52.359 26.1346 52.3602C26.7559 52.3616 27.3665 52.1986 27.9037 51.8881C29.5001 50.9618 30.4104 48.8886 30.0649 46.9564Z" stroke="#5C2929" stroke-width="4" stroke-linecap="round" stroke-linejoin="round"/>
<path d="M61.8754 23.9989C60.838 23.5151 59.6893 23.3165 58.5487 23.4239C57.4081 23.5313 56.3172 23.9407 55.3895 24.6096C55.3213 24.6592 55.2671 24.7254 55.2319 24.8017C55.1967 24.8781 55.1817 24.9621 55.1883 25.0458L55.4462 28.2917C55.4527 28.382 55.4842 28.4687 55.5373 28.5422C55.5903 28.6158 55.6627 28.6733 55.7466 28.7083C55.8305 28.7434 55.9224 28.7547 56.0123 28.7409C56.1022 28.7272 56.1866 28.6889 56.256 28.6304C56.8367 28.1035 57.4834 27.6534 58.1798 27.291C58.6595 27.0678 60.2971 26.4648 61.1404 28.03C61.4685 28.6625 61.5529 29.3926 61.3777 30.0827C61.014 31.594 59.7916 32.7282 58.6414 33.6365C58.4274 33.8059 58.2082 33.9752 57.989 34.1497C56.9832 34.9195 55.9439 35.7175 55.1702 36.7874C54.0201 38.3706 53.6461 40.4002 54.1954 42.0835C54.7937 43.9284 56.5164 45.2447 58.3423 45.2447H58.4222C59.0717 45.2182 59.7029 45.0234 60.2533 44.6795C60.8038 44.3357 61.2545 43.8547 61.5608 43.2843C61.6683 43.0923 61.715 42.8725 61.6947 42.6536C61.6745 42.4347 61.5882 42.2271 61.4473 42.0578C61.3201 41.8976 61.1465 41.7802 60.95 41.7214C60.7535 41.6627 60.5435 41.6655 60.3487 41.7294C59.8465 41.8901 59.3014 41.8514 58.8271 41.6216C58.6383 41.5241 58.4712 41.3898 58.3356 41.2267C58.2 41.0636 58.0988 40.875 58.038 40.6722C57.8924 40.2018 57.9017 39.6974 58.0645 39.2325C58.2274 38.7677 58.5352 38.3668 58.9432 38.0884C59.2011 37.9113 59.4718 37.7548 59.7607 37.5906L60.0186 37.4392C61.4635 36.6356 62.7267 35.5447 63.7296 34.2344C64.7704 32.876 65.3355 31.216 65.3388 29.5079C65.3068 28.366 64.9689 27.2533 64.3601 26.2848C63.7512 25.3163 62.8934 24.5272 61.8754 23.9989Z" fill="#FFBE33"/>
<path d="M61.9914 34.1263C61.576 34.0356 61.1903 33.8417 60.8706 33.5626C60.5508 33.2835 60.3074 32.9283 60.163 32.5303L59.6885 32.7176C59.3506 33.0409 58.9922 33.3385 58.6414 33.6157C58.4274 33.785 58.2082 33.9544 57.989 34.1288C56.9832 34.8986 55.9439 35.6966 55.1702 36.7666C54.0201 38.3498 53.6461 40.3794 54.1954 42.0626C54.7937 43.9075 56.5164 45.2238 58.3423 45.2238H58.4222C59.0717 45.1973 59.7029 45.0025 60.2533 44.6587C60.8038 44.3148 61.2545 43.8339 61.5608 43.2635C61.6683 43.0715 61.715 42.8516 61.6947 42.6328C61.6745 42.4139 61.5882 42.2062 61.4473 42.037C61.3201 41.8768 61.1465 41.7593 60.95 41.7006C60.7535 41.6418 60.5435 41.6446 60.3487 41.7085C59.8465 41.8692 59.3014 41.8306 58.8271 41.6008C58.6383 41.5033 58.4712 41.369 58.3356 41.2059C58.2 41.0428 58.0988 40.8542 58.038 40.6514C57.8924 40.1809 57.9017 39.6765 58.0645 39.2117C58.2274 38.7469 58.5352 38.346 58.9432 38.0675C59.2011 37.8905 59.4718 37.7339 59.7607 37.5697L60.0186 37.4183C61.4635 36.6148 62.7267 35.5238 63.7296 34.2135C63.9083 33.9721 64.0736 33.7211 64.2248 33.4617C63.9338 33.7433 63.5788 33.9507 63.19 34.0664C62.8011 34.1821 62.39 34.2027 61.9914 34.1263Z" fill="#E37B26"/>
<path d="M61.8754 23.9989C60.838 23.5151 59.6893 23.3165 58.5487 23.4239C57.4081 23.5313 56.3172 23.9407 55.3895 24.6096C55.3213 24.6592 55.2671 24.7254 55.2319 24.8017C55.1967 24.8781 55.1817 24.9621 55.1883 25.0458L55.4462 28.2917C55.4527 28.382 55.4842 28.4687 55.5373 28.5422C55.5903 28.6158 55.6627 28.6733 55.7466 28.7083C55.8305 28.7434 55.9224 28.7547 56.0123 28.7409C56.1022 28.7272 56.1866 28.6889 56.256 28.6304C56.8367 28.1035 57.4834 27.6534 58.1798 27.291C58.6595 27.0678 60.2971 26.4648 61.1404 28.03C61.4685 28.6625 61.5529 29.3926 61.3777 30.0827C61.014 31.594 59.7916 32.7282 58.6414 33.6365C58.4274 33.8059 58.2082 33.9752 57.989 34.1497C56.9832 34.9195 55.9439 35.7175 55.1702 36.7874C54.0201 38.3706 53.6461 40.4002 54.1954 42.0835C54.7937 43.9284 56.5164 45.2447 58.3423 45.2447H58.4222C59.0717 45.2182 59.7029 45.0234 60.2533 44.6795C60.8038 44.3357 61.2545 43.8547 61.5608 43.2843C61.6683 43.0923 61.715 42.8725 61.6947 42.6536C61.6745 42.4347 61.5882 42.2271 61.4473 42.0578C61.3201 41.8976 61.1465 41.7802 60.95 41.7214C60.7535 41.6627 60.5435 41.6655 60.3487 41.7294C59.8465 41.8901 59.3014 41.8514 58.8271 41.6216C58.6383 41.5241 58.4712 41.3898 58.3356 41.2267C58.2 41.0636 58.0988 40.875 58.038 40.6722C57.8924 40.2018 57.9017 39.6974 58.0645 39.2325C58.2274 38.7677 58.5352 38.3668 58.9432 38.0884C59.2011 37.9113 59.4718 37.7548 59.7607 37.5906L60.0186 37.4392C61.4635 36.6356 62.7267 35.5447 63.7296 34.2344C64.7704 32.876 65.3355 31.216 65.3388 29.5079C65.3068 28.366 64.9689 27.2533 64.3601 26.2848C63.7512 25.3163 62.8934 24.5272 61.8754 23.9989Z" stroke="#5C2929" stroke-width="4" stroke-linecap="round" stroke-linejoin="round"/>
<path d="M51.9445 56.5317C50.6679 54.9536 49.0458 53.0446 47.8182 50.7532C54.0076 47.5022 59.3098 38.95 56.8908 15.087C55.0856 7.34826 14.5246 16.37 16.3196 24.1037C21.6269 44.4642 33.2036 53.0112 42.1446 52.4108C42.0879 54.8125 41.4561 57.4451 40.9893 59.5415C38.5677 61.0323 36.9018 62.9028 36.5897 64.7451C36.5719 64.8298 36.5598 64.9155 36.5536 65.0017C36.5536 65.1069 36.5355 65.2121 36.5355 65.3225C36.4969 68.6582 41.2111 70.5107 47.3128 69.5254C53.4144 68.5401 58.6341 65.0582 59.2866 61.6558C59.3072 61.5429 59.3227 61.4249 59.3382 61.3094C59.627 58.4535 56.504 56.583 51.9445 56.5317Z" fill="#FFBE33"/>
<path d="M43.7995 61.0381C43.7118 61.6077 43.6396 62.2441 43.98 62.7085C44.372 63.2422 45.1328 63.3192 45.7853 63.2987C46.9308 63.2642 48.0667 63.0796 49.1636 62.7496C49.6072 62.6399 50.0244 62.4436 50.3912 62.1722C50.5738 62.0351 50.7207 61.8563 50.8195 61.6509C50.9182 61.4455 50.9659 61.2195 50.9585 60.9919C50.8867 60.612 50.715 60.2579 50.4608 59.9656C49.192 58.231 47.924 56.4947 46.6569 54.7568C46.3604 54.3513 45.8601 53.3866 45.2231 53.6226C44.5861 53.8587 44.6789 55.2032 44.5964 55.7369C44.3351 57.504 44.0694 59.2711 43.7995 61.0381Z" fill="#FF952B"/>
<path d="M48.5448 13.9331C53.4293 13.9331 54.907 14.9595 55.1133 15.4393C56.1732 26.0109 55.7554 34.309 53.8703 40.1028C52.4338 44.5213 50.1799 47.4875 46.9795 49.1656C46.7691 49.2758 46.5828 49.4262 46.431 49.6082C46.2792 49.7902 46.1651 50.0003 46.0951 50.2263C46.0252 50.4523 46.0008 50.6898 46.0233 50.9252C46.0458 51.1606 46.1148 51.3893 46.2264 51.5981C47.4153 53.8202 48.942 55.7036 50.167 57.1995L50.5383 57.6588C50.7055 57.8647 50.9163 58.0312 51.1558 58.1465C51.3952 58.2619 51.6572 58.3231 51.9232 58.326C54.3164 58.3542 56.2609 58.9469 57.1274 59.9091C57.2814 60.0681 57.3986 60.2586 57.4708 60.4674C57.5429 60.6761 57.5683 60.8981 57.5452 61.1177C57.5452 61.1972 57.5246 61.2742 57.5143 61.3358C57.0552 63.6913 52.733 66.832 47.0233 67.7505C46.0762 67.9069 45.1181 67.9876 44.1581 67.9917C41.7649 67.9917 39.774 67.4298 38.8456 66.4907C38.6851 66.3446 38.5574 66.1665 38.4707 65.968C38.3841 65.7695 38.3404 65.555 38.3427 65.3386C38.3401 65.2959 38.3401 65.253 38.3427 65.2103C38.3427 65.1872 38.3427 65.1667 38.3427 65.1461C38.3427 65.1256 38.3427 65.1282 38.3427 65.1205L38.3582 65.0409C38.5671 63.799 39.9055 62.3134 41.9248 61.0689C42.1301 60.9423 42.3078 60.7761 42.4473 60.5799C42.5868 60.3838 42.6854 60.1618 42.7372 59.9271L42.8558 59.4139C43.3123 57.3766 43.8874 54.8414 43.9338 52.4577C43.9393 52.2184 43.8966 51.9804 43.8084 51.7577C43.7201 51.5351 43.588 51.3322 43.4198 51.161C43.2517 50.9899 43.0508 50.8539 42.829 50.7611C42.6073 50.6682 42.3691 50.6205 42.1285 50.6205H42.0048C41.7469 50.6359 41.489 50.6462 41.244 50.6462C33.2056 50.6462 22.9338 42.3095 18.0597 23.6887C18.003 23.3911 18.2892 22.9754 18.4672 22.7521C20.0145 20.8123 24.6385 18.5774 30.8201 16.7787C36.9553 14.9826 43.5727 13.9254 48.5268 13.9254M48.5448 12.137C36.2667 12.137 15.0114 18.4748 16.3215 24.1198C21.4535 43.8132 32.4551 52.4577 41.262 52.4577C41.5586 52.4577 41.8526 52.4577 42.1466 52.4269C42.0899 54.8286 41.458 57.4612 40.9912 59.5576C38.5697 61.0484 36.9037 62.9189 36.5917 64.7613C36.5738 64.8459 36.5618 64.9316 36.5555 65.0178C36.5555 65.1231 36.5375 65.2283 36.5375 65.3386C36.5065 68.0533 39.6631 69.793 44.1581 69.793C45.2156 69.7922 46.2712 69.7064 47.3147 69.5364C53.4035 68.546 58.6361 65.0692 59.2885 61.6668C59.3092 61.5539 59.3246 61.4358 59.3401 61.3204C59.6264 58.4568 56.5033 56.5863 51.9438 56.5349C50.6673 54.9569 49.0451 53.0479 47.8176 50.7565C54.007 47.5055 59.3092 38.9533 56.8902 15.0903C56.4053 12.9991 53.0889 12.1318 48.5423 12.1318L48.5448 12.137Z" fill="#FFD952"/>
<path d="M48.999 52.5189C47.7817 53.263 46.4645 53.8314 45.0868 54.2073C44.0967 54.4792 43.0758 54.6241 42.0488 54.6384C42.1396 53.9044 42.1904 53.166 42.201 52.4266C43.0376 52.3739 43.8665 52.2346 44.6741 52.0109C45.8196 51.6986 46.9247 51.2552 47.9674 50.6895C48.2846 51.3181 48.6379 51.9339 48.999 52.5189Z" fill="#CC5B22"/>
<path d="M49.2416 52.5704C49.1609 52.6671 49.0682 52.7533 48.9657 52.827L48.8909 52.8783L48.8419 52.9091L48.7413 52.9706C48.6098 53.0553 48.4834 53.1323 48.339 53.2093C48.0674 53.3666 47.7914 53.5129 47.5112 53.648C46.9479 53.9207 46.3673 54.1564 45.773 54.3537C45.1786 54.5625 44.5679 54.7221 43.9472 54.8309C43.3246 54.9342 42.6955 54.9942 42.0646 55.0105C42.0151 55.0119 41.9659 55.0036 41.9197 54.986C41.8735 54.9684 41.8312 54.942 41.7953 54.9081C41.7593 54.8743 41.7305 54.8337 41.7103 54.7888C41.6901 54.7438 41.6791 54.6954 41.6777 54.6462C41.6764 54.6291 41.6764 54.612 41.6777 54.5949C41.7602 53.8713 41.8092 53.1486 41.8247 52.4267C41.8277 52.3318 41.8661 52.2414 41.9323 52.1731C41.9986 52.1048 42.088 52.0635 42.1832 52.0572C42.6721 52.0297 43.1588 51.9715 43.6403 51.8827C44.1224 51.7935 44.5987 51.6752 45.0664 51.5286C46.0159 51.2541 46.9358 50.8871 47.8129 50.433H47.8284C47.8968 50.3976 47.9763 50.3899 48.0503 50.4114C48.1243 50.4329 48.187 50.482 48.2255 50.5484V50.5613C48.37 50.8743 48.5247 51.1822 48.6872 51.4875L48.9451 51.9443L49.074 52.1726L49.1385 52.2855C49.194 52.3715 49.2293 52.4689 49.2416 52.5704ZM48.7723 52.4652C48.7581 52.4707 48.7461 52.4807 48.7381 52.4937C48.7302 52.5067 48.7268 52.5219 48.7284 52.537L48.6536 52.4267L48.5066 52.206C48.4086 52.0572 48.3158 51.9058 48.223 51.7544C48.0373 51.4516 47.8593 51.1411 47.6891 50.8281L48.1121 50.959C47.2162 51.4705 46.2699 51.8892 45.2882 52.2086C44.7945 52.3694 44.2916 52.5005 43.7821 52.6012C43.2711 52.7015 42.7543 52.7701 42.2348 52.8064L42.5906 52.4318C42.5849 53.1844 42.5324 53.936 42.4333 54.6821L42.0491 54.2613C42.645 54.2551 43.2397 54.2062 43.8285 54.115C44.4163 54.0195 44.997 53.8849 45.5667 53.7122C46.1422 53.5414 46.7079 53.3393 47.261 53.1066C47.5396 52.9912 47.8129 52.868 48.0811 52.7346L48.4834 52.5293L48.584 52.478L48.633 52.4498H48.6562C48.6794 52.4395 48.713 52.4575 48.7723 52.4652Z" fill="#CC5B22"/>
<path d="M20.4533 26.5798C22.1992 27.0263 24.025 27.0596 25.8277 27.016C34.9292 26.7829 43.8792 24.6435 52.0938 20.7372C53.3471 20.1394 54.6133 19.4774 55.5082 18.4279C56.4031 17.3784 56.8467 15.8286 56.2561 14.579C55.4618 12.9086 53.311 12.4673 51.4594 12.3287C39.9924 11.483 28.5428 14.1822 18.6764 20.0573C17.9948 20.424 17.3766 20.8969 16.8454 21.4582C16.0253 22.4153 15.6875 23.6983 16.6545 24.6092C17.7349 25.5722 19.0411 26.2498 20.4533 26.5798Z" fill="#FFD952"/>
<path d="M30.8304 28.5615C30.1006 28.7206 29.3424 28.9028 28.7673 29.3826C28.4914 29.6297 28.2682 29.9294 28.111 30.264C27.9537 30.5985 27.8656 30.9611 27.8518 31.3301C27.8276 32.0717 28.0058 32.8059 28.3676 33.4547C29.3372 35.2816 31.3075 36.4286 33.3448 36.8238C35.3822 37.2189 37.4917 36.9444 39.5213 36.5107C41.3059 36.1258 43.0905 35.6075 44.6378 34.6402C46.1852 33.6728 47.4746 32.2026 47.913 30.4372C48.1993 29.28 48.0188 27.8713 47.0543 27.1734C46.5024 26.7705 45.7906 26.6602 45.1098 26.5935C41.5148 26.2599 37.8889 27.1734 34.3764 27.8405C33.1901 28.0646 32.0081 28.3049 30.8304 28.5615Z" fill="#FF952B"/>
<path d="M43.4048 48.4105C48.2093 47.0942 53.2201 42.9605 52.9054 27.8652C52.6299 29.198 52.0955 30.4644 51.3323 31.5935C48.8625 35.4816 45.0747 38.361 40.6552 39.71C36.2356 41.0591 31.4766 40.7885 27.2402 38.9474C27.3537 39.2245 27.4775 39.4991 27.6064 39.7685C32.3929 47.1301 38.657 49.714 43.4048 48.4105Z" fill="#FF952B"/>
<path d="M51.9445 56.5317C50.6679 54.9536 49.0458 53.0446 47.8182 50.7532C54.0076 47.5022 59.3098 38.95 56.8908 15.087C55.0856 7.34826 14.5246 16.37 16.3196 24.1037C21.6269 44.4642 33.2036 53.0112 42.1446 52.4108C42.0879 54.8125 41.4561 57.4451 40.9893 59.5415C38.5677 61.0323 36.9017 62.9028 36.5897 64.7451C36.5719 64.8298 36.5598 64.9155 36.5536 65.0017C36.5536 65.1069 36.5355 65.2121 36.5355 65.3225C36.4969 68.6582 41.2111 70.5107 47.3128 69.5254C53.4144 68.5401 58.6341 65.0582 59.2866 61.6558C59.3072 61.5429 59.3227 61.4249 59.3382 61.3094C59.627 58.4535 56.504 56.583 51.9445 56.5317Z" stroke="#5C2929" stroke-width="4" stroke-linecap="round" stroke-linejoin="round"/>
<path d="M53.3498 15.9419C53.324 17.7381 46.3584 20.6324 37.3813 22.544C28.4041 24.4556 20.6907 24.6711 19.8035 23.0572C19.7741 23.008 19.7532 22.9542 19.7416 22.8981C19.7263 22.8563 19.7202 22.8116 19.7236 22.7672C19.6307 20.9711 26.6479 18.0434 35.6921 16.119C44.9761 14.1432 52.865 13.979 53.3318 15.7572C53.3419 15.8183 53.348 15.88 53.3498 15.9419Z" fill="#CC5B22"/>
<path d="M36.5325 19.483C42.6109 18.2 48.0937 17.674 51.2838 17.9717C52.5939 17.225 53.3469 16.5245 53.3469 15.942C53.3447 15.8827 53.3387 15.8235 53.3288 15.765C52.8621 13.9868 44.9706 14.151 35.6892 16.1268C26.645 18.0512 19.6278 20.9866 19.7206 22.7751C19.7172 22.8195 19.7234 22.8641 19.7387 22.9059C19.7503 22.962 19.7712 23.0158 19.8006 23.065C20.0868 23.5782 21.09 23.9143 22.6374 24.0554C25.3478 22.5108 30.485 20.7839 36.5325 19.483Z" fill="#E88827"/>
<path d="M29.8218 31.7818C30.7633 31.7818 31.5265 31.0224 31.5265 30.0857C31.5265 29.149 30.7633 28.3896 29.8218 28.3896C28.8804 28.3896 28.1172 29.149 28.1172 30.0857C28.1172 31.0224 28.8804 31.7818 29.8218 31.7818Z" fill="#E86D20"/>
<path d="M50.1364 27.2653C50.7602 27.2653 51.2659 26.7621 51.2659 26.1414C51.2659 25.5208 50.7602 25.0176 50.1364 25.0176C49.5126 25.0176 49.0068 25.5208 49.0068 26.1414C49.0068 26.7621 49.5126 27.2653 50.1364 27.2653Z" fill="#E86D20"/>
<path d="M50.2883 38.4144C50.241 38.7896 50.3046 39.1703 50.4714 39.51C50.5408 39.6827 50.6608 39.8306 50.8158 39.9345C50.9708 40.0384 51.1536 40.0934 51.3405 40.0925C51.8563 40.0232 51.962 39.351 52.0832 38.8301C53.205 34.0575 53.7982 23.9914 53.1612 23.0087C52.7718 22.4108 49.3625 23.4603 49.8989 24.8228C50.2419 25.7337 50.8041 34.9376 50.2883 38.4144Z" fill="#FAFF5C"/>
<path d="M37.3786 47.0358C38.0024 47.0358 38.5081 46.5326 38.5081 45.912C38.5081 45.2913 38.0024 44.7881 37.3786 44.7881C36.7547 44.7881 36.249 45.2913 36.249 45.912C36.249 46.5326 36.7547 47.0358 37.3786 47.0358Z" fill="#E86D20"/>
<path d="M50.9743 61.1716C51.5981 61.1716 52.1038 60.6684 52.1038 60.0477C52.1038 59.427 51.5981 58.9238 50.9743 58.9238C50.3504 58.9238 49.8447 59.427 49.8447 60.0477C49.8447 60.6684 50.3504 61.1716 50.9743 61.1716Z" fill="#E86D20"/>
<path d="M29.8229 38.2243C30.4468 38.2243 30.9525 37.7211 30.9525 37.1004C30.9525 36.4797 30.4468 35.9766 29.8229 35.9766C29.1991 35.9766 28.6934 36.4797 28.6934 37.1004C28.6934 37.7211 29.1991 38.2243 29.8229 38.2243Z" fill="#FFD952"/>
<path d="M47.2507 45.9117C47.8745 45.9117 48.3802 45.4085 48.3802 44.7878C48.3802 44.1671 47.8745 43.6639 47.2507 43.6639C46.6268 43.6639 46.1211 44.1671 46.1211 44.7878C46.1211 45.4085 46.6268 45.9117 47.2507 45.9117Z" fill="#FFD952"/>
<path d="M21.7272 29.5156C22.3511 29.5156 22.8568 29.0124 22.8568 28.3917C22.8568 27.771 22.3511 27.2678 21.7272 27.2678C21.1034 27.2678 20.5977 27.771 20.5977 28.3917C20.5977 29.0124 21.1034 29.5156 21.7272 29.5156Z" fill="#FFD952"/>
<path d="M41.1849 28.0583C41.4968 28.0583 41.7497 27.8067 41.7497 27.4964C41.7497 27.186 41.4968 26.9344 41.1849 26.9344C40.873 26.9344 40.6201 27.186 40.6201 27.4964C40.6201 27.8067 40.873 28.0583 41.1849 28.0583Z" fill="#FFD952"/>
<path d="M53.9456 20.7528C54.2576 20.7528 54.5104 20.5012 54.5104 20.1908C54.5104 19.8805 54.2576 19.6289 53.9456 19.6289C53.6337 19.6289 53.3809 19.8805 53.3809 20.1908C53.3809 20.5012 53.6337 20.7528 53.9456 20.7528Z" fill="#FFD952"/>
<path d="M52.3538 38.5448C52.6658 38.5448 52.9186 38.2932 52.9186 37.9828C52.9186 37.6725 52.6658 37.4209 52.3538 37.4209C52.0419 37.4209 51.7891 37.6725 51.7891 37.9828C51.7891 38.2932 52.0419 38.5448 52.3538 38.5448Z" fill="#FFD952"/>
<path d="M55.0775 62.2948C55.3894 62.2948 55.6423 62.0432 55.6423 61.7328C55.6423 61.4225 55.3894 61.1709 55.0775 61.1709C54.7656 61.1709 54.5127 61.4225 54.5127 61.7328C54.5127 62.0432 54.7656 62.2948 55.0775 62.2948Z" fill="#FFD952"/>
<path d="M45.5335 60.6092C45.8454 60.6092 46.0983 60.3576 46.0983 60.0473C46.0983 59.7369 45.8454 59.4854 45.5335 59.4854C45.2216 59.4854 44.9688 59.7369 44.9688 60.0473C44.9688 60.3576 45.2216 60.6092 45.5335 60.6092Z" fill="#FFD952"/>
<path d="M43.3148 67.1317C43.6267 67.1317 43.8796 66.8801 43.8796 66.5697C43.8796 66.2594 43.6267 66.0078 43.3148 66.0078C43.0029 66.0078 42.75 66.2594 42.75 66.5697C42.75 66.8801 43.0029 67.1317 43.3148 67.1317Z" fill="#FFD952"/>
<path d="M40.0428 29.5669C40.1379 29.5643 40.2302 29.5983 40.3007 29.6618L43.2045 32.3304C43.2744 32.3951 43.367 32.4301 43.4624 32.4279L47.4262 32.3868C47.4894 32.3876 47.5515 32.4041 47.6066 32.435C47.6617 32.4659 47.7081 32.5101 47.7415 32.5636C47.7749 32.617 47.7943 32.678 47.7977 32.7408C47.8012 32.8036 47.7887 32.8663 47.7614 32.9231L46.1084 36.618C46.069 36.7043 46.0626 36.8019 46.0903 36.8926L47.2611 40.7081C47.2807 40.7665 47.286 40.8286 47.2768 40.8894C47.2676 40.9503 47.244 41.0081 47.2081 41.0581C47.1721 41.1082 47.1248 41.149 47.0699 41.1774C47.015 41.2057 46.9542 41.2208 46.8924 41.2213H46.8563L42.9209 40.8492H42.8848C42.8026 40.8492 42.7228 40.8763 42.6578 40.9262L39.4213 43.3228C39.3557 43.3713 39.2761 43.3974 39.1943 43.3972C39.1084 43.3975 39.025 43.3679 38.9586 43.3136C38.8922 43.2593 38.847 43.1835 38.8307 43.0995L38.0571 39.1737C38.0398 39.0821 37.9882 39.0004 37.9126 38.9453L34.7406 36.6103C34.69 36.5716 34.6498 36.5211 34.6235 36.4632C34.5972 36.4054 34.5856 36.342 34.5896 36.2787C34.5937 36.2153 34.6134 36.1539 34.6469 36.0999C34.6804 36.0459 34.7268 36.0009 34.7819 35.9688L38.235 33.9161C38.3172 33.8678 38.3787 33.7911 38.4078 33.7006L39.6972 29.8517C39.7241 29.776 39.7741 29.7106 39.8403 29.6646C39.9064 29.6186 39.9853 29.5943 40.066 29.5951M40.066 28.5688C39.7673 28.5692 39.4763 28.6634 39.2346 28.838C38.9929 29.0126 38.8127 29.2587 38.7198 29.5412L37.5155 33.1592L34.2661 35.0913C34.0651 35.2103 33.8967 35.3767 33.7757 35.5758C33.6547 35.7749 33.5848 36.0006 33.5723 36.2329C33.5599 36.4653 33.6051 36.6971 33.704 36.9079C33.803 37.1188 33.9526 37.3021 34.1397 37.4417L37.108 39.6227L37.8378 43.3022C37.8841 43.5337 37.9884 43.7498 38.1412 43.9304C38.294 44.111 38.4902 44.2501 38.7116 44.3349C38.933 44.4197 39.1723 44.4473 39.4073 44.4153C39.6424 44.3832 39.8654 44.2925 40.0557 44.1515L43.0679 41.873L46.7531 42.222C46.7978 42.2245 46.8425 42.2245 46.8872 42.222C47.1085 42.2217 47.3267 42.1698 47.5242 42.0704C47.7217 41.971 47.8931 41.827 48.0245 41.6498C48.157 41.4712 48.2458 41.2644 48.2839 41.0457C48.3219 40.8269 48.3082 40.6024 48.2437 40.3899L47.1399 36.7976L48.6873 33.3183C48.7851 33.1043 48.8272 32.8692 48.8097 32.6348C48.7923 32.4004 48.7158 32.1741 48.5873 31.9768C48.4589 31.7794 48.2826 31.6175 48.0748 31.5057C47.8669 31.394 47.6341 31.3361 47.3978 31.3374L43.6971 31.3759L40.9764 28.8946C40.7184 28.6603 40.3818 28.5304 40.0325 28.5303L40.066 28.5688Z" fill="#E86D20"/>
<path d="M46.8511 41.2002L42.9157 40.8282C42.8235 40.8206 42.7317 40.8471 42.6578 40.9026L39.4213 43.2991C39.3711 43.3374 39.3118 43.3623 39.2492 43.3715C39.1866 43.3806 39.1227 43.3737 39.0635 43.3513C39.0043 43.3289 38.9519 43.2919 38.9111 43.2437C38.8704 43.1955 38.8427 43.1377 38.8307 43.0759L38.0571 39.15C38.0398 39.0584 37.9882 38.9768 37.9127 38.9217L34.7406 36.5867C34.6901 36.548 34.6499 36.4974 34.6235 36.4396C34.5972 36.3818 34.5856 36.3184 34.5897 36.255C34.5937 36.1917 34.6134 36.1303 34.6469 36.0763C34.6804 36.0222 34.7268 35.9772 34.7819 35.9452L38.235 33.8925C38.3172 33.8442 38.3787 33.7674 38.4078 33.677L39.6972 29.8281C39.7159 29.7675 39.7495 29.7125 39.795 29.6681C39.8405 29.6237 39.8965 29.5914 39.9577 29.5741C40.019 29.5567 40.0837 29.5549 40.1458 29.5688C40.208 29.5827 40.2657 29.6118 40.3136 29.6536L43.2046 32.3299C43.2389 32.3622 43.2794 32.3875 43.3237 32.4043C43.368 32.421 43.4151 32.4289 43.4624 32.4274L47.4262 32.3863C47.4897 32.3866 47.552 32.4029 47.6075 32.4336C47.6629 32.4643 47.7097 32.5085 47.7434 32.562C47.7771 32.6155 47.7967 32.6766 47.8003 32.7396C47.8039 32.8027 47.7914 32.8656 47.764 32.9226L46.111 36.6175C46.0716 36.7038 46.0652 36.8014 46.0929 36.892L47.2637 40.7076C47.2807 40.7683 47.2825 40.8322 47.2692 40.8939C47.2558 40.9555 47.2277 41.013 47.1871 41.0614C47.1466 41.1099 47.0948 41.1478 47.0363 41.172C46.9778 41.1961 46.9142 41.2058 46.8511 41.2002Z" fill="#FAFF5C"/>
<path d="M53.4633 60.4399C54.206 60.8812 55.0106 61.5535 54.9075 62.4079C54.8637 62.6436 54.7679 62.8666 54.627 63.061C54.486 63.2553 54.3035 63.4161 54.0926 63.5318C53.6686 63.7578 53.2132 63.9195 52.7412 64.0116C52.0243 64.1887 51.2429 64.358 50.5698 64.0629C49.8967 63.7679 49.5382 63.152 49.1875 62.5567L48.0347 60.6169C47.8242 60.3019 47.6658 59.9554 47.5654 59.5905C47.2533 58.11 48.6408 58.2101 49.5202 58.6155C50.8457 59.2288 52.1971 59.6855 53.4633 60.4399Z" fill="#FAFF5C"/>
</g>
<defs>
<radialGradient id="paint0_radial_1_13313" cx="0" cy="0" r="1" gradientUnits="userSpaceOnUse" gradientTransform="translate(40.001 40) scale(37.67 37.4803)">
<stop offset="0.1" stop-color="#FF7AD5"/>
<stop offset="0.4" stop-color="#DC5FCF"/>
<stop offset="1" stop-color="#8C22C2"/>
</radialGradient>
<clipPath id="clip0_1_13313">
<rect width="80" height="80" rx="4" fill="white"/>
</clipPath>
</defs>
</svg>
