<svg width="80" height="80" viewBox="0 0 80 80" fill="none" xmlns="http://www.w3.org/2000/svg">
<g clip-path="url(#clip0_1_13274)">
<path d="M69.4391 2.4248L10.5603 2.4248C6.06663 2.4248 2.42383 6.04926 2.42383 10.5203L2.42383 69.4798C2.42383 73.9508 6.06663 77.5752 10.5603 77.5752H69.4391C73.9327 77.5752 77.5755 73.9508 77.5755 69.4798V10.5203C77.5755 6.04926 73.9327 2.4248 69.4391 2.4248Z" fill="url(#paint0_radial_1_13274)"/>
<path d="M64.1138 13.3425C65.0951 13.3425 65.8906 12.5509 65.8906 11.5746C65.8906 10.5982 65.0951 9.80664 64.1138 9.80664C63.1324 9.80664 62.3369 10.5982 62.3369 11.5746C62.3369 12.5509 63.1324 13.3425 64.1138 13.3425Z" fill="#67C95C"/>
<path d="M11.8374 64.2839C12.8187 64.2839 13.6143 63.4924 13.6143 62.516C13.6143 61.5396 12.8187 60.748 11.8374 60.748C10.8561 60.748 10.0605 61.5396 10.0605 62.516C10.0605 63.4924 10.8561 64.2839 11.8374 64.2839Z" fill="#67C95C"/>
<path d="M69.8419 22.957C70.3333 22.957 70.7316 22.5607 70.7316 22.0718C70.7316 21.5829 70.3333 21.1865 69.8419 21.1865C69.3505 21.1865 68.9521 21.5829 68.9521 22.0718C68.9521 22.5607 69.3505 22.957 69.8419 22.957Z" fill="#67C95C"/>
<path d="M23.8165 67.958C24.3079 67.958 24.7062 67.5616 24.7062 67.0727C24.7062 66.5838 24.3079 66.1875 23.8165 66.1875C23.3251 66.1875 22.9268 66.5838 22.9268 67.0727C22.9268 67.5616 23.3251 67.958 23.8165 67.958Z" fill="#67C95C"/>
<path d="M0 6.04272L0 73.9547C-1.45114e-07 75.5576 0.639782 77.0948 1.77867 78.2285C2.91757 79.3621 4.46233 79.9993 6.07331 80H73.9267C74.7245 80 75.5144 79.8436 76.2514 79.5398C76.9885 79.236 77.6581 78.7906 78.2221 78.2292C78.7861 77.6678 79.2334 77.0014 79.5384 76.268C79.8435 75.5345 80.0003 74.7485 80 73.9547V6.04272C80 4.44009 79.3601 2.9031 78.2212 1.76987C77.0822 0.636642 75.5374 0 73.9267 0L6.07331 0C4.46277 0.000680001 2.9184 0.637541 1.77958 1.77062C0.640767 2.90371 0.000683442 4.4403 0 6.04272ZM71.4793 75.2171H8.52326C7.53151 75.2171 6.58038 74.8252 5.8791 74.1274C5.17783 73.4297 4.78386 72.4833 4.78386 71.4966L4.78386 8.50343C4.78386 7.51667 5.17783 6.57033 5.8791 5.87259C6.58038 5.17485 7.53151 4.78286 8.52326 4.78286L71.4793 4.78286C72.4711 4.78286 73.4222 5.17485 74.1235 5.87259C74.8248 6.57033 75.2187 7.51667 75.2187 8.50343V71.4966C75.218 72.4831 74.8239 73.4291 74.1227 74.1267C73.4216 74.8243 72.4709 75.2165 71.4793 75.2171Z" fill="#FFBE33"/>
<path d="M76.7661 40.0791V71.4961C76.764 72.8906 76.2064 74.2273 75.2154 75.2133C74.2243 76.1994 72.8808 76.7542 71.4793 76.7563H8.52326C7.12155 76.7549 5.77764 76.2003 4.78648 75.2141C3.79532 74.2279 3.23788 72.8908 3.23652 71.4961L3.23652 40.0791H0L0 73.9491C-1.45114e-07 75.552 0.639782 77.0893 1.77867 78.2229C2.91757 79.3565 4.46233 79.9938 6.07331 79.9944H73.9267C74.7245 79.9944 75.5144 79.838 76.2514 79.5342C76.9885 79.2304 77.6581 78.785 78.2221 78.2236C78.7861 77.6623 79.2334 76.9958 79.5384 76.2624C79.8435 75.5289 80.0003 74.7429 80 73.9491V40.0791H76.7661Z" fill="#E88827"/>
<path d="M71.4791 4.78271C72.4709 4.78271 73.422 5.1747 74.1233 5.87244C74.8246 6.57018 75.2185 7.51653 75.2185 8.50328V71.4964C75.2179 72.483 74.8237 73.4289 74.1225 74.1265C73.4214 74.8241 72.4707 75.2163 71.4791 75.217H8.52307C7.53132 75.217 6.58019 74.825 5.87891 74.1273C5.17764 73.4295 4.78367 72.4832 4.78367 71.4964L4.78367 8.50328C4.78367 7.51653 5.17764 6.57018 5.87891 5.87244C6.58019 5.1747 7.53132 4.78271 8.52307 4.78271L71.4791 4.78271ZM71.4791 3.24316L8.52307 3.24316C7.12136 3.24452 5.77745 3.79915 4.78629 4.78532C3.79513 5.77149 3.23769 7.10863 3.23633 8.50328L3.23633 71.4964C3.23769 72.8911 3.79513 74.2282 4.78629 75.2144C5.77745 76.2005 7.12136 76.7552 8.52307 76.7565H71.4791C72.8806 76.7545 74.2242 76.1997 75.2152 75.2136C76.2062 74.2276 76.7638 72.8909 76.7659 71.4964V8.50328C76.7638 7.10884 76.2062 5.77209 75.2152 4.78607C74.2242 3.80004 72.8806 3.2452 71.4791 3.24316Z" fill="#FFD952"/>
<path d="M0 6.04272L0 73.9547C-1.45114e-07 75.5576 0.639782 77.0948 1.77867 78.2285C2.91757 79.3621 4.46233 79.9993 6.07331 80H73.9267C74.7245 80 75.5144 79.8436 76.2514 79.5398C76.9885 79.236 77.6581 78.7906 78.2221 78.2292C78.7861 77.6678 79.2334 77.0014 79.5384 76.268C79.8435 75.5345 80.0003 74.7485 80 73.9547V6.04272C80 4.44009 79.3601 2.9031 78.2212 1.76987C77.0822 0.636642 75.5374 0 73.9267 0L6.07331 0C4.46277 0.000680001 2.9184 0.637541 1.77958 1.77062C0.640767 2.90371 0.000683442 4.4403 0 6.04272ZM71.4793 75.2171H8.52326C7.53151 75.2171 6.58038 74.8252 5.8791 74.1274C5.17783 73.4297 4.78386 72.4833 4.78386 71.4966L4.78386 8.50343C4.78386 7.51668 5.17783 6.57033 5.8791 5.87259C6.58038 5.17485 7.53151 4.78286 8.52326 4.78286L71.4793 4.78286C72.4711 4.78286 73.4222 5.17485 74.1235 5.87259C74.8248 6.57033 75.2187 7.51668 75.2187 8.50343V71.4966C75.218 72.4831 74.8239 73.4291 74.1227 74.1267C73.4216 74.8243 72.4709 75.2165 71.4793 75.2171Z" stroke="#5C2929" stroke-width="4" stroke-linecap="round" stroke-linejoin="round"/>
<path d="M45.4122 11.5751C47.9911 11.5751 50.1574 12.6502 51.1915 16.5992H56.8006C59.7431 16.5992 62.3994 18.9778 62.7321 21.9132L64.674 39.0124L66.701 41.119C66.8248 41.2495 66.8998 41.4183 66.9134 41.5972C66.927 41.7761 66.8784 41.9543 66.7758 42.1018L65.2671 44.2392L66.9151 58.7597C66.9383 58.9598 66.9504 59.1612 66.9512 59.3627C66.9512 59.455 66.9512 59.5448 66.9512 59.6346V59.7322C66.9512 59.7937 66.9512 59.8553 66.9357 59.9143C66.9202 59.9733 66.9357 59.9503 66.9357 59.9656C66.9293 60.0414 66.919 60.1168 66.9047 60.1915V60.2479C66.9047 60.3018 66.8841 60.3531 66.8712 60.407C66.8636 60.4546 66.8533 60.5017 66.8403 60.5481C66.8196 60.6328 66.7964 60.7149 66.7706 60.8047C66.7449 60.8945 66.7242 60.9535 66.6984 61.0254C66.6726 61.0972 66.6365 61.1922 66.603 61.282C66.603 61.282 66.603 61.2974 66.603 61.2999C66.5772 61.3641 66.5489 61.4282 66.5179 61.4898L66.4766 61.5745C66.4457 61.6386 66.4122 61.6976 66.3761 61.7592C66.3345 61.836 66.2889 61.9105 66.2394 61.9825C66.193 62.0543 66.1414 62.1287 66.0898 62.2006C66.0382 62.2724 65.9686 62.3571 65.9041 62.4315C65.8397 62.5059 65.8036 62.5495 65.7494 62.606C65.6952 62.6624 65.6282 62.7317 65.5663 62.7933C65.5018 62.8523 65.4399 62.9088 65.3703 62.9652C65.3007 63.0217 65.2414 63.073 65.1717 63.1243L63.6631 64.533C63.4419 64.7734 63.1945 64.9885 62.9255 65.1744C62.0812 65.8002 61.0538 66.1328 60.001 66.1213H31.0297C30.962 65.4102 30.7882 64.7132 30.5139 64.0532C30.003 62.7994 29.1297 61.7246 28.0044 60.965C26.8792 60.2054 25.5528 59.7951 24.193 59.786C23.9344 59.7862 23.6761 59.8016 23.4194 59.8322H23.3833C23.3021 59.8322 23.2241 59.8005 23.1662 59.7439C23.1083 59.6872 23.0751 59.6102 23.0738 59.5294C23.1215 58.2033 22.7351 56.8976 21.9726 55.8089C21.3918 54.9632 20.5752 54.305 19.6232 53.9152L19.4943 53.8665C19.0217 53.6983 18.5237 53.6115 18.0217 53.6099C17.687 53.6089 17.3535 53.6494 17.0289 53.7305L16.9747 53.2507L13.6531 23.9993C13.6296 23.7982 13.6176 23.5961 13.617 23.3937C13.6043 22.2175 14.0338 21.079 14.8213 20.2017C14.9805 20.028 15.153 19.8667 15.3371 19.7193L17.1423 18.0309C17.2406 17.9276 17.3448 17.8299 17.4544 17.7384C17.5008 17.6999 17.5498 17.6589 17.6014 17.6204C17.6529 17.5819 17.7071 17.5383 17.7638 17.4998C17.8206 17.4613 17.8618 17.428 17.9134 17.3972C18.209 17.2037 18.5267 17.0461 18.8599 16.9276C18.9183 16.9037 18.9776 16.8831 19.0378 16.866H19.0688C19.1152 16.866 19.159 16.8378 19.2054 16.8275C19.2519 16.8173 19.3138 16.7967 19.3705 16.7839C19.4272 16.7711 19.5098 16.7506 19.582 16.7377H19.6L19.8321 16.6992L20.0462 16.6736H20.09C20.1699 16.6736 20.2499 16.6582 20.3273 16.6556C20.4046 16.6531 20.4975 16.6556 20.5852 16.6556H24.9203C24.8455 14.5772 26.9834 13.1018 28.1748 12.8068C28.5993 12.7227 29.0317 12.6857 29.4643 12.6964C31.4191 12.6964 34.3823 13.1583 35.829 13.1583H35.9915C38.9031 13.0762 42.4387 11.6187 45.4251 11.6187M45.4251 9.56601C43.6353 9.56601 41.7992 9.98938 40.0249 10.3999C38.5343 10.7438 37.1262 11.0671 35.9348 11.1004H35.829C35.2617 11.1004 34.31 11.008 33.3043 10.9054C32.0458 10.7822 30.6171 10.6488 29.4643 10.6488C28.8716 10.6353 28.2795 10.6921 27.7003 10.8182C26.1685 11.1851 24.1053 12.5553 23.2569 14.6029H20.5903C20.4743 14.6029 20.3582 14.6029 20.2447 14.6029C20.1313 14.6029 20.0204 14.6029 19.9172 14.6234H19.8063L19.5484 14.6542C19.435 14.6696 19.3395 14.6876 19.2596 14.703H19.239L19.1435 14.7235L18.8857 14.7774L18.6278 14.8415L18.473 14.8877L18.3957 14.9108L18.1378 14.9929C17.6697 15.1637 17.2218 15.3848 16.8019 15.6523L16.5698 15.8114C16.4847 15.873 16.4048 15.932 16.33 15.991C16.2552 16.0501 16.2242 16.0757 16.1727 16.1193L16.0901 16.1861C15.9483 16.3067 15.8116 16.4427 15.6852 16.5632L13.9754 18.1695C13.7368 18.3662 13.5119 18.5788 13.3023 18.8059L13.2301 18.888C12.1393 20.1351 11.5432 21.7353 11.5539 23.3886C11.5549 23.6656 11.5721 23.9423 11.6054 24.2174L14.9296 53.4688L14.9812 53.946C15.0379 54.45 15.28 54.9152 15.661 55.252C16.0419 55.5889 16.5347 55.7735 17.0443 55.7704C17.2181 55.7708 17.3913 55.7501 17.5601 55.7088C17.7178 55.6693 17.8798 55.6495 18.0424 55.6498C18.3061 55.651 18.5678 55.697 18.816 55.7858L18.8599 55.8012L18.8934 55.814C19.4647 56.0595 19.954 56.4618 20.3041 56.9738C20.8085 57.6966 21.0637 58.5628 21.0313 59.4422C21.0202 59.7587 21.0732 60.0743 21.1872 60.37C21.3011 60.6658 21.4736 60.9357 21.6944 61.1638C21.9153 61.3919 22.1799 61.5735 22.4727 61.6979C22.7655 61.8222 23.0804 61.8867 23.3987 61.8875C23.4919 61.8879 23.5849 61.8819 23.6772 61.8696C23.8544 61.849 24.0327 61.8387 24.2111 61.8388C24.8595 61.8441 25.5 61.9798 26.0943 62.2378C26.6887 62.4958 27.2244 62.8706 27.6694 63.3398C28.0813 63.7708 28.4069 64.2758 28.6287 64.8281C28.8236 65.3016 28.9461 65.8015 28.9924 66.3111C29.0382 66.8234 29.2757 67.2999 29.6577 67.6462C30.0398 67.9926 30.5386 68.1837 31.0555 68.1817H59.9778C61.4804 68.1949 62.9457 67.7162 64.1479 66.8192L64.2253 66.7576C64.536 66.5181 64.8243 66.251 65.0866 65.9596L66.4457 64.6895C66.5102 64.6382 66.5824 64.5817 66.6572 64.515C66.732 64.4483 66.8506 64.3482 66.9434 64.2584L66.9615 64.2405C67.0492 64.1558 67.1291 64.0737 67.2039 63.9839C67.2787 63.8941 67.3689 63.8017 67.4463 63.7093C67.5237 63.6169 67.6268 63.4886 67.7042 63.386L67.7248 63.3603C67.7945 63.2603 67.8641 63.1628 67.9286 63.0627C67.993 62.9626 68.0704 62.8395 68.1271 62.7368L68.1504 62.6932C68.1942 62.6214 68.238 62.5367 68.287 62.4366C68.3051 62.4033 68.3206 62.3699 68.3386 62.334C68.3567 62.2981 68.4031 62.198 68.434 62.1236C68.465 62.0492 68.4701 62.044 68.4882 62.003C68.5398 61.8798 68.5836 61.7695 68.6197 61.6566C68.6558 61.5437 68.6919 61.4564 68.7306 61.323C68.7693 61.1896 68.7873 61.1229 68.8131 61.0177C68.826 60.9612 68.8441 60.8868 68.8621 60.7996C68.8802 60.7123 68.8957 60.6405 68.9085 60.5686C68.9085 60.5686 68.9085 60.5507 68.9085 60.5404C68.9085 60.5302 68.9085 60.5173 68.9085 60.5071C68.9266 60.4019 68.9421 60.2941 68.955 60.1786V60.1581C68.955 60.1453 68.955 60.135 68.955 60.1247C68.955 60.0324 68.9756 59.9323 68.9808 59.822V59.7424C68.9808 59.7424 68.9808 59.7219 68.9808 59.7116C68.9808 59.5859 68.9808 59.455 68.9808 59.3319C68.9797 59.0524 68.9633 58.7731 68.9318 58.4954L67.3715 44.7575L68.4289 43.2564C68.8115 42.7201 68.9938 42.0676 68.9444 41.4117C68.8949 40.7558 68.6168 40.1377 68.1581 39.6642L66.6107 38.0579L64.7488 21.6361C64.5135 19.6856 63.5686 17.8884 62.0925 16.5838C60.6366 15.2593 58.7398 14.5172 56.7671 14.5003L52.6899 14.5003C51.372 11.1646 48.9298 9.47363 45.4122 9.47363L45.4251 9.56601Z" fill="#7CF26F"/>
<path d="M66.9482 59.3577C66.9482 59.4501 66.9482 59.5399 66.9482 59.6143V59.7144C66.9482 59.776 66.9482 59.8375 66.9327 59.8965V59.9479C66.9327 60.0248 66.9146 60.0993 66.9017 60.1737C66.9017 60.1916 66.9017 60.2122 66.9017 60.2301C66.9017 60.2481 66.8837 60.3353 66.8708 60.3892C66.8579 60.4431 66.8502 60.4841 66.8398 60.5303L66.7702 60.7869C66.7496 60.8613 66.7238 60.9357 66.698 61.0076C66.6722 61.0794 66.6361 61.1744 66.6 61.2642V61.2821C66.5742 61.3463 66.5458 61.4104 66.5149 61.4695C66.484 61.5285 66.4865 61.5285 66.4711 61.5567C66.4556 61.5849 66.4066 61.6799 66.3731 61.7414C66.3318 61.8158 66.2828 61.8928 66.2364 61.9647C66.19 62.0365 66.1384 62.1109 66.0842 62.1828C66.0301 62.2546 65.9656 62.3367 65.9011 62.4137C65.8367 62.4907 65.8005 62.5317 65.7464 62.5882C65.6922 62.6446 65.6252 62.7139 65.5607 62.7755C65.4962 62.8371 65.4318 62.8935 65.3647 62.95C65.2977 63.0064 65.2332 63.0578 65.1661 63.1091L63.6601 64.5178C63.4398 64.7627 63.1934 64.983 62.9251 65.1746C62.0808 65.8004 61.0533 66.133 60.0006 66.1215H31.0267C30.9616 65.41 30.7877 64.7125 30.5109 64.0533C30.1918 63.26 29.7235 62.5346 29.1312 61.9159C28.4049 61.1492 27.5093 60.5612 26.5152 60.1982C25.5211 59.8353 24.4558 59.7074 23.4035 59.8247C23.3621 59.8278 23.3205 59.8226 23.2813 59.8093C23.242 59.796 23.2059 59.775 23.175 59.7474C23.1441 59.7198 23.1192 59.6863 23.1018 59.6489C23.0843 59.6114 23.0746 59.5709 23.0734 59.5296C23.1214 58.2034 22.735 56.8976 21.9722 55.8091C21.3903 54.9633 20.5729 54.3052 19.6202 53.9154L19.4938 53.8667C18.7033 53.5814 17.8458 53.5341 17.0284 53.7307L16.9743 53.2508L13.6501 23.9994C13.6275 23.7984 13.6163 23.5962 13.6165 23.3939C13.6026 22.2175 14.0323 21.0786 14.8209 20.2019C14.98 20.0281 15.1525 19.8668 15.3367 19.7195L17.1419 18.0311C17.2417 17.9283 17.3467 17.8307 17.4565 17.7386L17.6035 17.6206C17.6551 17.5795 17.7093 17.5385 17.766 17.5L17.9181 17.3948C18.2146 17.2029 18.5322 17.0454 18.8646 16.9252C18.9213 16.9047 18.9806 16.8842 19.0425 16.8662H19.0735C19.1173 16.8662 19.1637 16.838 19.2102 16.8277C19.2635 16.8102 19.3177 16.7956 19.3726 16.7841C19.4423 16.7661 19.5145 16.7507 19.5841 16.7379H19.6047C19.6821 16.7225 19.7569 16.7097 19.8343 16.6994L20.0509 16.6738H20.0947C20.1721 16.6738 20.252 16.6609 20.3294 16.6584C20.4068 16.6558 20.4996 16.6584 20.5873 16.6584H56.8002C59.7401 16.6584 62.3964 19.037 62.7317 21.9724L66.9146 58.7598C66.9369 58.9584 66.9481 59.158 66.9482 59.3577Z" fill="#BF6234"/>
<path d="M65.1171 63.1215C65.1842 63.0702 65.2512 63.0189 65.3157 62.9625C65.3802 62.906 65.4472 62.8496 65.5117 62.788C65.5762 62.7264 65.6381 62.6648 65.6974 62.6007C65.7232 62.575 65.7464 62.5442 65.7696 62.5186C65.1739 62.5853 64.738 62.652 64.738 62.652L34.1136 64.0709C34.1136 64.0709 32.7107 64.4353 30.8126 64.951C30.9166 65.3404 30.9873 65.7378 31.0241 66.1391H59.9774C61.0301 66.1506 62.0575 65.818 62.9019 65.1922C63.1532 65.0028 63.3839 64.7878 63.5904 64.5508L65.0965 63.1421L65.1171 63.1215Z" fill="#9E522B"/>
<path d="M66.9146 58.7593L62.7291 21.9153C62.4093 18.9876 59.7401 16.6013 56.8002 16.6013H20.5873C20.503 16.6013 20.4171 16.6013 20.3294 16.6013C20.252 16.6013 20.1721 16.6013 20.0947 16.6167H20.0509L19.8342 16.6424C19.7569 16.6424 19.6821 16.6655 19.6047 16.6809H19.5841C19.5145 16.6809 19.4422 16.7091 19.3726 16.727C19.3177 16.7385 19.2634 16.7531 19.2101 16.7707C19.1637 16.7707 19.1173 16.7963 19.0735 16.8092H19.0425C18.9806 16.8271 18.9213 16.8476 18.8646 16.8682C18.5321 16.9883 18.2146 17.1459 17.9181 17.3377L17.766 17.4429C17.7092 17.4814 17.6551 17.5225 17.6035 17.5635L17.4591 17.7047C17.3492 17.7968 17.2442 17.8944 17.1444 17.9972C16.8233 18.3311 16.5538 18.7107 16.345 19.1236L13.6268 21.4329V24.2554L15.8859 21.9949L19.2488 51.7004L19.5067 53.8609L19.6331 53.9097C20.5857 54.2994 21.4032 54.9576 21.985 55.8033C22.7443 56.8949 23.1263 58.2026 23.0733 59.529C23.0716 59.5729 23.0794 59.6167 23.0962 59.6574C23.113 59.698 23.1384 59.7346 23.1708 59.7645C23.2031 59.7945 23.2415 59.8172 23.2835 59.831C23.3254 59.8448 23.3698 59.8495 23.4137 59.8446C24.8999 59.6834 26.3984 60.0091 27.6817 60.7723C28.9649 61.5355 29.9628 62.6945 30.5238 64.0733H62.1926C63.2408 64.084 64.264 63.7543 65.1068 63.1341C65.1738 63.0828 65.2409 63.0315 65.3054 62.975C65.3698 62.9186 65.4369 62.8621 65.5014 62.8006C65.5658 62.739 65.6277 62.6774 65.687 62.6133C65.7464 62.5491 65.7928 62.4978 65.8418 62.4388C65.8908 62.3798 65.9681 62.2874 66.0249 62.2078C66.0816 62.1283 66.1306 62.0616 66.177 61.9897C66.2235 61.9179 66.2725 61.8409 66.3137 61.7665C66.3472 61.7049 66.3808 61.6459 66.4117 61.5818C66.4427 61.5176 66.4401 61.5253 66.4556 61.4945C66.471 61.4637 66.5149 61.3713 66.5407 61.3072V61.2892C66.5768 61.2071 66.6103 61.125 66.6387 61.0326C66.667 60.9403 66.6902 60.8864 66.7109 60.812L66.7805 60.5554C66.7805 60.5092 66.8037 60.463 66.8114 60.4143C66.8192 60.3655 66.8347 60.3091 66.8424 60.2552C66.8501 60.2013 66.8424 60.2167 66.8424 60.1987C66.8553 60.1243 66.8656 60.0499 66.8733 59.9729V59.9216C66.8733 59.8626 66.8862 59.801 66.8888 59.7394V59.6394C66.8888 59.5521 66.8888 59.4623 66.8888 59.3828C66.9095 59.1756 66.9181 58.9674 66.9146 58.7593Z" fill="#FC9B4C"/>
<path d="M66.9144 58.7593L64.7507 39.7228C36.6201 46.7688 21.647 39.5149 17.5801 37.0234L19.2486 51.7005L19.5065 53.861L19.6329 53.9097C20.5855 54.2995 21.403 54.9576 21.9848 55.8033C22.7441 56.8949 23.1261 58.2026 23.0731 59.5291C23.0714 59.573 23.0792 59.6168 23.096 59.6574C23.1128 59.698 23.1382 59.7346 23.1706 59.7646C23.2029 59.7945 23.2413 59.8172 23.2833 59.831C23.3252 59.8448 23.3696 59.8495 23.4135 59.8447C24.8997 59.6834 26.3982 60.0092 27.6814 60.7724C28.9647 61.5355 29.9626 62.6945 30.5236 64.0733H62.1512L59.9772 66.1414C60.4844 66.2335 61.0065 66.2038 61.4999 66.0548C61.9933 65.9057 62.4438 65.6416 62.814 65.2844L64.7765 63.3882H64.6991C64.8367 63.3095 64.9701 63.2238 65.0989 63.1316C65.1659 63.0803 65.233 63.029 65.2974 62.9725C65.3619 62.9161 65.429 62.8596 65.4934 62.798C65.5579 62.7364 65.6198 62.6749 65.6791 62.6107C65.7384 62.5466 65.7848 62.4952 65.8338 62.4362C65.8828 62.3772 65.9602 62.2848 66.0169 62.2053C66.0737 62.1258 66.1227 62.059 66.1691 61.9872C66.2155 61.9154 66.2645 61.8384 66.3058 61.764C66.3393 61.7024 66.3728 61.6434 66.4038 61.5792C66.4347 61.5151 66.4321 61.5228 66.4476 61.492C66.4631 61.4612 66.5069 61.3688 66.5327 61.3047V61.2867C66.5688 61.2046 66.6024 61.1225 66.6307 61.0301C66.6591 60.9377 66.6823 60.8839 66.7029 60.8094L66.7726 60.5529C66.7726 60.5067 66.7958 60.4605 66.8035 60.4117C66.8112 60.363 66.8267 60.3065 66.8345 60.2526C66.8422 60.1988 66.8345 60.2142 66.8345 60.1962C66.8473 60.1218 66.8577 60.0474 66.8654 59.9704V59.9191C66.8654 59.8601 66.8783 59.7985 66.8809 59.7369V59.6368C66.8809 59.5496 66.8809 59.4598 66.8809 59.3802C66.9041 59.1741 66.9152 58.9667 66.9144 58.7593Z" fill="#E38444"/>
<path d="M59.423 60.2988H33.2678L32.752 60.2321C32.5891 60.0071 32.4108 59.7937 32.2182 59.5932C31.4485 58.7815 30.4894 58.1711 29.426 57.8162C28.3626 57.4613 27.2277 57.3728 26.1217 57.5585C26.2667 56.1062 25.8853 54.6501 25.0463 53.453C24.5304 52.7126 23.8361 52.1127 23.027 51.7082L22.9419 51.6671L22.9032 50.6408L19.9065 24.3068C19.8352 23.8182 19.8718 23.32 20.0136 22.8468C20.1555 22.3737 20.3992 21.937 20.7278 21.567C21.0564 21.1971 21.4621 20.9028 21.9166 20.7046C22.3711 20.5064 22.8635 20.4091 23.3597 20.4194H54.8944C55.9645 20.4456 56.9899 20.8519 57.785 21.565C58.5801 22.278 59.0925 23.2505 59.2296 24.3068L62.8761 56.4089C62.9492 56.898 62.9139 57.397 62.7728 57.871C62.6317 58.3451 62.3881 58.7827 62.0592 59.1533C61.7302 59.5238 61.3238 59.8183 60.8685 60.0162C60.4131 60.2141 59.9197 60.3106 59.423 60.2988Z" fill="#FFDFB8"/>
<path d="M28.1749 12.7578C29.8099 12.3652 34.2611 13.1555 35.9786 13.1093C41.3943 12.9579 48.9556 8.06213 51.1941 16.6015C51.1941 16.6015 52.4965 21.6871 50.9672 23.0342C50.1935 23.7116 48.5146 23.8938 47.0369 23.219C44.9738 22.2773 42.6966 18.7569 38.0572 20.4221C36.0895 21.1278 34.2843 22.6519 31.6976 21.2458C30.434 20.5607 29.797 19.1135 28.7809 18.082C27.4915 16.758 24.9126 16.6015 24.9126 16.6015C24.8481 14.5205 26.9808 13.0451 28.1749 12.7578Z" fill="#BDE8FF"/>
<path d="M41.9794 14.8206C43.2413 14.8206 44.2643 14.3106 44.2643 13.6814C44.2643 13.0522 43.2413 12.5421 41.9794 12.5421C40.7174 12.5421 39.6945 13.0522 39.6945 13.6814C39.6945 14.3106 40.7174 14.8206 41.9794 14.8206Z" fill="white"/>
<path d="M31.9138 15.8188C32.7555 15.8188 33.4379 15.4788 33.4379 15.0593C33.4379 14.6398 32.7555 14.2998 31.9138 14.2998C31.072 14.2998 30.3896 14.6398 30.3896 15.0593C30.3896 15.4788 31.072 15.8188 31.9138 15.8188Z" fill="white"/>
<path d="M49.8861 18.8008C49.5098 18.9951 49.0788 19.0577 48.6625 18.9785C48.2461 18.8994 47.8687 18.6832 47.5909 18.3646C47.0751 17.7462 46.8791 16.7276 46.0874 16.5839C45.4529 16.471 44.9294 17.0329 44.3698 17.3536C43.3976 17.9079 42.17 17.7308 41.1152 17.3536C40.0605 16.9765 39.0521 16.4222 37.9561 16.24C36.9245 16.0681 35.893 16.24 34.8614 16.4248C33.8299 16.6095 32.8138 16.8507 31.7667 16.8174C30.7197 16.784 29.6495 16.453 28.948 15.6909C28.2465 14.9289 28.0376 13.6741 28.654 12.8428C28.3755 12.8428 28.097 12.8428 27.8159 12.8684C26.5986 13.3226 24.845 14.7108 24.912 16.6018C24.912 16.6018 27.4677 16.7584 28.7804 18.0824C29.7965 19.1087 30.4334 20.561 31.6971 21.2461C34.276 22.6523 36.0812 21.1281 38.0567 20.4225C42.6987 18.7572 44.9784 22.2776 47.0364 23.2193C48.5141 23.8942 50.1981 23.712 50.9666 23.0346C52.3644 21.8029 51.3973 17.4512 51.2245 16.7122C51.0646 16.6839 50.9022 16.6557 50.7423 16.6352C50.8654 17.0394 50.8479 17.4731 50.6925 17.8661C50.5371 18.2591 50.253 18.5885 49.8861 18.8008Z" fill="#9ECAFF"/>
<path d="M51.5008 16.522C51.7015 17.2568 51.8565 18.0032 51.965 18.7569C52.0843 19.5206 52.1309 20.2938 52.1043 21.0662C52.0836 21.4725 52.0179 21.8752 51.9083 22.2671C51.7892 22.7126 51.5407 23.1134 51.194 23.4192C50.8445 23.694 50.4372 23.8869 50.0025 23.9837C49.5957 24.0805 49.1775 24.1219 48.7595 24.1068C47.9263 24.0804 47.1129 23.8485 46.392 23.432C45.6957 23.0112 45.1181 22.5314 44.5198 22.1029C43.9509 21.6716 43.338 21.3009 42.6913 20.997C42.0663 20.7084 41.3912 20.5429 40.703 20.5094L40.4451 20.494C40.3574 20.494 40.2723 20.494 40.1872 20.494C40.0144 20.494 39.8442 20.494 39.6714 20.53C39.3222 20.5771 38.9773 20.6517 38.6399 20.7532C37.946 20.9723 37.2708 21.246 36.6206 21.5717C35.9002 21.9203 35.1306 22.1574 34.3383 22.2748C33.5019 22.3661 32.6566 22.2249 31.8961 21.8668C31.713 21.7719 31.5324 21.6975 31.3493 21.582C31.2599 21.5281 31.1738 21.469 31.0914 21.4049C31.0021 21.3454 30.916 21.2811 30.8336 21.2125C30.5285 20.9479 30.2495 20.6549 30.0006 20.3375C29.5157 19.7243 29.1186 19.0982 28.6544 18.5645L28.479 18.3695L28.3011 18.2001C28.24 18.1439 28.1754 18.0917 28.1077 18.0436C28.0432 17.9891 27.9742 17.9402 27.9013 17.8973C27.6105 17.7062 27.2991 17.5478 26.9729 17.4252C26.3024 17.1689 25.6025 16.9965 24.8892 16.912H24.8711C24.7875 16.9035 24.7106 16.8625 24.6571 16.798C24.6036 16.7335 24.5778 16.6506 24.5852 16.5673C24.5927 16.484 24.6328 16.4069 24.697 16.3528C24.7611 16.2987 24.844 16.2719 24.9279 16.2782C25.7126 16.322 26.4875 16.4731 27.2308 16.7273C27.6123 16.8579 27.9781 17.03 28.3217 17.2405C28.4122 17.2897 28.4985 17.3463 28.5796 17.4098C28.669 17.4675 28.7551 17.53 28.8375 17.5971L29.0722 17.8075L29.2811 18.0205C29.8175 18.6055 30.2352 19.2393 30.6943 19.7859C30.9128 20.0569 31.1582 20.3053 31.4267 20.5274C31.4886 20.5806 31.554 20.6295 31.6227 20.6737C31.6887 20.7215 31.7576 20.7652 31.829 20.8045C31.9631 20.8866 32.1359 20.9508 32.2855 21.0278C32.8963 21.2976 33.5687 21.3995 34.2325 21.3228C34.9246 21.209 35.5957 20.9928 36.2235 20.6814C37.5387 20.0527 39.1144 19.3984 40.7572 19.501C41.5732 19.5411 42.3733 19.7408 43.1117 20.0886C43.8192 20.4212 44.4899 20.8262 45.1129 21.2972C45.7267 21.7488 46.3044 22.2286 46.8924 22.5801C47.4748 22.917 48.1283 23.1138 48.8007 23.1549C49.1326 23.1751 49.4656 23.1509 49.791 23.083C50.0941 23.0263 50.3805 22.9027 50.6292 22.7213C50.8488 22.5293 51.0074 22.2779 51.0856 21.9977C51.1835 21.6708 51.2457 21.3345 51.2713 20.9944C51.3848 19.5857 51.1656 18.0923 50.8793 16.6683V16.6785C50.8697 16.6378 50.8682 16.5955 50.875 16.5542C50.8817 16.5128 50.8966 16.4732 50.9188 16.4376C50.9409 16.402 50.9699 16.371 51.0041 16.3465C51.0382 16.3221 51.0769 16.3045 51.1179 16.2949C51.1589 16.2853 51.2013 16.2838 51.2429 16.2906C51.2844 16.2973 51.3243 16.3121 51.3601 16.3342C51.3959 16.3562 51.4269 16.385 51.4515 16.419C51.4761 16.453 51.4938 16.4915 51.5034 16.5323L51.5008 16.522Z" fill="#6277D4"/>
<path d="M54.84 29.536H23.821C23.5539 29.5362 23.2962 29.438 23.0977 29.2603C22.8991 29.0826 22.7737 28.8381 22.7456 28.5738L22.5238 26.5031C22.5075 26.353 22.5232 26.2011 22.5698 26.0574C22.6165 25.9137 22.693 25.7813 22.7944 25.669C22.8959 25.5567 23.02 25.4669 23.1587 25.4055C23.2973 25.344 23.4474 25.3124 23.5992 25.3125H54.6182C54.8869 25.3104 55.1468 25.4076 55.3475 25.5855C55.5481 25.7633 55.6752 26.0089 55.7039 26.2748L55.9257 28.3454C55.9417 28.4964 55.9255 28.649 55.8781 28.7932C55.8307 28.9375 55.7532 29.0701 55.6507 29.1825C55.5482 29.2949 55.423 29.3845 55.2833 29.4454C55.1436 29.5064 54.9925 29.5372 54.84 29.536Z" fill="#6271B0"/>
<path d="M55.9263 39.0171H24.9047C24.6374 39.0166 24.3797 38.9179 24.1812 38.7398C23.9826 38.5617 23.8573 38.3168 23.8293 38.0523L23.6075 35.9816C23.5916 35.8315 23.6076 35.6798 23.6544 35.5363C23.7012 35.3927 23.7777 35.2606 23.8791 35.1483C23.9805 35.0361 24.1044 34.9463 24.2429 34.8848C24.3813 34.8232 24.5313 34.7913 24.6829 34.791H55.7045C55.9714 34.7914 56.2288 34.8898 56.4272 35.0674C56.6257 35.245 56.7513 35.4892 56.7799 35.7532L57.0017 37.8265C57.0176 37.9766 57.0016 38.1283 56.9548 38.2718C56.908 38.4154 56.8315 38.5475 56.7301 38.6597C56.6287 38.772 56.5048 38.8618 56.3663 38.9233C56.2279 38.9849 56.0779 39.0168 55.9263 39.0171Z" fill="#6271B0"/>
<path d="M57.0093 48.496H25.9903C25.7229 48.4962 25.4649 48.3981 25.2659 48.2205C25.0669 48.0428 24.941 47.7982 24.9123 47.5337L24.6905 45.463C24.6746 45.3128 24.6907 45.1608 24.7376 45.0171C24.7845 44.8734 24.8613 44.7411 24.963 44.6288C25.0646 44.5166 25.1889 44.4268 25.3276 44.3654C25.4664 44.304 25.6166 44.2723 25.7685 44.2725H56.7875C57.0546 44.2723 57.3123 44.3705 57.5108 44.5482C57.7094 44.7259 57.8349 44.9704 57.8629 45.2347L58.0847 47.3054C58.101 47.4555 58.0853 47.6074 58.0387 47.7511C57.9921 47.8948 57.9155 48.0272 57.8141 48.1395C57.7126 48.2518 57.5885 48.3416 57.4498 48.403C57.3112 48.4644 57.1611 48.4961 57.0093 48.496Z" fill="#6271B0"/>
<path d="M34.1164 64.0682L31.0218 66.1363C30.9541 65.4253 30.7803 64.7282 30.506 64.0682C29.9474 62.6921 28.953 61.5348 27.6736 60.7717C26.3943 60.0086 24.8997 59.6813 23.4166 59.8396C23.373 59.8443 23.3289 59.8398 23.2872 59.8263C23.2455 59.8128 23.2072 59.7906 23.1748 59.7613C23.1424 59.7319 23.1166 59.696 23.0991 59.656C23.0817 59.616 23.073 59.5727 23.0736 59.5291C23.1213 58.203 22.7349 56.8973 21.9724 55.8085C21.3916 54.9629 20.575 54.3047 19.623 53.9149L19.4941 53.8661C18.7045 53.5808 17.8478 53.5335 17.0312 53.7301C17.0312 53.7301 19.2414 51.2386 19.3935 51.1822C20.3477 50.8178 21.7403 51.2002 22.6919 51.5748C22.7745 51.6081 22.857 51.6415 22.9498 51.68L23.0349 51.721C23.844 52.1255 24.5383 52.7254 25.0542 53.4659C25.8932 54.663 26.2746 56.119 26.1296 57.5713C27.2356 57.3856 28.3706 57.4742 29.434 57.8291C30.4974 58.184 31.4564 58.7944 32.2261 59.6061C32.4187 59.8065 32.5971 60.02 32.76 60.245L32.8115 60.3117C33.5975 61.4145 34.0502 62.7179 34.1164 64.0682Z" fill="#BF6234"/>
<path d="M32.7986 60.2991L32.7471 60.2324C32.5842 60.0074 32.4058 59.7939 32.2132 59.5935C31.4954 58.8369 30.6129 58.254 29.6334 57.8897C28.6539 57.5254 27.6035 57.3894 26.5629 57.492C26.3256 57.5639 26.0909 57.6357 25.8588 57.7127L26.1296 57.4818C26.1308 57.4595 26.1308 57.4373 26.1296 57.415C25.3473 57.9744 24.5737 58.5517 23.8086 59.147L24.0407 59.7962C25.4274 59.7745 26.7882 60.171 27.9441 60.9336C29.1 61.6961 29.9967 62.789 30.5163 64.0685C30.7906 64.7285 30.9644 65.4255 31.0321 66.1366L34.1268 64.0685C34.0561 62.7114 33.5951 61.403 32.7986 60.2991Z" fill="#9E522B"/>
<path d="M55.3145 28.8768H24.2955C24.0269 28.879 23.7669 28.7817 23.5663 28.6039C23.3657 28.4261 23.2386 28.1804 23.2098 27.9146L22.9906 25.8439C22.9743 25.6938 22.99 25.5419 23.0366 25.3982C23.0833 25.2544 23.1598 25.1221 23.2612 25.0098C23.3627 24.8975 23.4868 24.8077 23.6255 24.7463C23.7641 24.6848 23.9142 24.6532 24.066 24.6533H55.0928C55.3601 24.6531 55.6181 24.7512 55.8171 24.9288C56.0161 25.1065 56.1421 25.3511 56.1707 25.6155L56.3899 27.6862C56.4062 27.8364 56.3906 27.9883 56.3439 28.132C56.2973 28.2757 56.2208 28.408 56.1193 28.5203C56.0179 28.6327 55.8938 28.7225 55.7551 28.7839C55.6164 28.8453 55.4663 28.877 55.3145 28.8768Z" fill="#7EA2CC"/>
<path d="M56.3979 38.3581H25.3789C25.1114 38.3583 24.8534 38.2597 24.6548 38.0815C24.4561 37.9033 24.3309 37.6581 24.3035 37.3934L24.0817 35.3227C24.065 35.1722 24.0804 35.0199 24.1269 34.8758C24.1733 34.7316 24.2497 34.5988 24.3512 34.486C24.4526 34.3732 24.5768 34.2829 24.7157 34.221C24.8546 34.1592 25.005 34.1271 25.1571 34.127H56.1787C56.446 34.1274 56.7037 34.2262 56.9022 34.4043C57.1008 34.5824 57.2261 34.8272 57.2541 35.0917L57.4759 37.1624C57.4925 37.3131 57.4771 37.4656 57.4305 37.6099C57.3839 37.7543 57.3073 37.8872 57.2055 38.0001C57.1038 38.1129 56.9793 38.2031 56.8401 38.2648C56.7009 38.3265 56.5503 38.3583 56.3979 38.3581Z" fill="#7EA2CC"/>
<path d="M57.4839 47.8368H26.4623C26.1952 47.837 25.9376 47.7388 25.739 47.5611C25.5404 47.3834 25.415 47.1388 25.3869 46.8746L25.1651 44.8039C25.1493 44.6538 25.1652 44.5021 25.212 44.3585C25.2588 44.215 25.3353 44.0828 25.4367 43.9706C25.5381 43.8584 25.662 43.7686 25.8005 43.707C25.939 43.6455 26.0889 43.6135 26.2405 43.6133H57.2518C57.5187 43.6136 57.7761 43.7121 57.9745 43.8896C58.173 44.0672 58.2986 44.3115 58.3272 44.5755L58.549 46.6462C58.5648 46.7954 58.5491 46.9463 58.5029 47.0891C58.4568 47.2319 58.3811 47.3636 58.2809 47.4757C58.1806 47.5877 58.0579 47.6778 57.9207 47.7399C57.7835 47.8021 57.6347 47.8351 57.4839 47.8368Z" fill="#7EA2CC"/>
<path d="M66.7009 41.1217L62.652 36.911C62.5693 36.8233 62.467 36.7561 62.3534 36.7147C62.2398 36.6734 62.1181 36.6592 61.998 36.6732C61.8779 36.6871 61.7627 36.7289 61.6618 36.7952C61.5608 36.8615 61.4769 36.9503 61.4167 37.0547C61.4167 37.0547 60.6173 38.0015 60.5141 38.176L54.7632 47.87C54.663 47.9019 54.5574 47.913 54.4527 47.9029C54.3481 47.8928 54.2466 47.8615 54.1545 47.811L49.644 45.317C49.5487 45.2632 49.443 45.2302 49.3339 45.2202C49.2248 45.2101 49.1148 45.2232 49.0112 45.2586C48.9076 45.2941 48.8127 45.351 48.7329 45.4256C48.653 45.5002 48.59 45.5909 48.548 45.6916C48.2162 46.0406 47.9143 46.4165 47.6454 46.8154L45.9407 50.8362C45.8657 51.01 45.8576 51.2053 45.918 51.3846C45.9784 51.564 46.1031 51.715 46.2683 51.8087L55.2764 57.0124C55.4451 57.1118 55.6454 57.1438 55.8369 57.1019C56.0284 57.06 56.1967 56.9473 56.3079 56.7866C56.3079 56.7866 57.1357 55.7602 57.2105 55.6627L66.7782 42.1044C66.8806 41.9566 66.9287 41.7783 66.9146 41.5994C66.9005 41.4205 66.8251 41.2518 66.7009 41.1217Z" fill="#488737"/>
<path d="M48.5477 45.6916L46.8431 49.7124C46.768 49.8862 46.76 50.0814 46.8204 50.2608C46.8808 50.4402 47.0055 50.5911 47.1706 50.6848L56.1787 55.8885C56.3474 55.9879 56.5477 56.0199 56.7392 55.978C56.9307 55.9361 57.0991 55.8234 57.2103 55.6627L66.778 42.1044C66.8806 41.9569 66.9292 41.7788 66.9156 41.5999C66.902 41.421 66.827 41.2521 66.7032 41.1217L62.6543 36.911C62.5716 36.8233 62.4693 36.7561 62.3557 36.7147C62.2421 36.6734 62.1204 36.6592 62.0003 36.6732C61.8802 36.6871 61.765 36.7289 61.6641 36.7952C61.5631 36.8615 61.4792 36.9503 61.419 37.0547L55.2065 47.5262C55.1044 47.7016 54.937 47.8299 54.7405 47.8832C54.544 47.9365 54.3343 47.9106 54.1568 47.811L49.6464 45.317C49.5509 45.2628 49.445 45.2294 49.3356 45.2191C49.2262 45.2088 49.1159 45.2218 49.012 45.2573C48.908 45.2927 48.8129 45.3498 48.7328 45.4247C48.6528 45.4996 48.5897 45.5905 48.5477 45.6916Z" fill="#77DB5A"/>
<path d="M59.2631 44.8262C58.9035 45.219 58.6013 45.6605 58.3657 46.1374C58.1322 46.618 58.0962 47.1702 58.2651 47.6769C58.3575 47.9263 58.5255 48.141 58.7459 48.2914C58.9663 48.4417 59.2281 48.5201 59.4952 48.516C60.1503 48.4595 60.5835 47.8334 60.9188 47.2715L62.8117 44.1077C63.0169 43.8387 63.1192 43.5058 63.1005 43.1686C62.9742 42.5015 61.891 42.0653 61.3649 42.4861C60.5758 43.1224 59.9105 44.059 59.2631 44.8262Z" fill="#56B03E"/>
<path d="M66.7009 41.1217L62.652 36.911C62.5693 36.8233 62.467 36.7561 62.3534 36.7147C62.2398 36.6734 62.1181 36.6592 61.998 36.6732C61.8779 36.6871 61.7627 36.7289 61.6618 36.7952C61.5608 36.8615 61.4769 36.9503 61.4167 37.0547C61.4167 37.0547 60.6173 38.0015 60.5141 38.176L54.7632 47.87C54.663 47.9019 54.5574 47.913 54.4527 47.9029C54.3481 47.8928 54.2466 47.8615 54.1545 47.811L49.644 45.317C49.5487 45.2632 49.443 45.2302 49.3339 45.2202C49.2248 45.2101 49.1148 45.2232 49.0112 45.2586C48.9076 45.2941 48.8127 45.351 48.7329 45.4256C48.653 45.5002 48.59 45.5909 48.548 45.6916C48.2162 46.0406 47.9143 46.4165 47.6454 46.8154L45.9407 50.8362C45.8657 51.01 45.8576 51.2053 45.918 51.3846C45.9784 51.564 46.1031 51.715 46.2683 51.8087L55.2764 57.0124C55.4451 57.1118 55.6454 57.1438 55.8369 57.1019C56.0284 57.06 56.1967 56.9473 56.3079 56.7866C56.3079 56.7866 57.1357 55.7602 57.2105 55.6627L66.7782 42.1044C66.8806 41.9566 66.9287 41.7783 66.9146 41.5994C66.9005 41.4205 66.8251 41.2518 66.7009 41.1217Z" stroke="#488737" stroke-width="4" stroke-linecap="round" stroke-linejoin="round"/>
<path d="M66.9149 58.7593L65.267 44.2465L66.7756 42.1091C66.8783 41.9615 66.9269 41.7834 66.9133 41.6045C66.8996 41.4256 66.8247 41.2568 66.7009 41.1263L64.6738 39.0197L62.7319 21.9205C62.4096 18.9876 59.743 16.6013 56.8005 16.6013H51.1914C48.9555 8.06197 41.3916 12.9603 35.9759 13.1117C34.2583 13.1604 29.8071 12.3676 28.1721 12.7602C26.9781 13.0475 24.8428 14.5229 24.9175 16.609H20.5902C20.5042 16.609 20.4182 16.609 20.3323 16.609C20.2549 16.609 20.175 16.609 20.095 16.627H20.0512L19.8371 16.6526L19.605 16.6911H19.587C19.5148 16.6911 19.4425 16.7194 19.3755 16.7373C19.3084 16.7553 19.2646 16.763 19.2104 16.7809C19.1563 16.7989 19.1202 16.8066 19.0738 16.8194H19.0428C18.9844 16.8365 18.925 16.8571 18.8649 16.881C18.5317 16.9995 18.214 17.1571 17.9184 17.3506C17.8668 17.3814 17.8178 17.4173 17.7688 17.4532C17.7198 17.4891 17.6579 17.5328 17.6064 17.5738C17.5548 17.6149 17.5058 17.6533 17.4594 17.6918C17.3498 17.7833 17.2456 17.881 17.1473 17.9844L15.3421 19.6727C15.158 19.8201 14.9855 19.9814 14.8263 20.1551C14.0297 21.0395 13.5978 22.1904 13.6168 23.3779C13.6174 23.5803 13.6295 23.7824 13.6529 23.9835L16.9745 53.2349L17.0313 53.7147C17.8478 53.518 18.7045 53.5653 19.4941 53.8507L19.6231 53.8994C20.575 54.2892 21.3916 54.9474 21.9724 55.7931C22.7381 56.8861 23.1247 58.1977 23.0736 59.529C23.0723 59.5731 23.0804 59.6169 23.0975 59.6575C23.1146 59.6982 23.1403 59.7347 23.1728 59.7646C23.2054 59.7945 23.2439 59.8172 23.286 59.831C23.3281 59.8448 23.3726 59.8494 23.4166 59.8446C24.9027 59.6823 26.4013 60.0076 27.6843 60.7709C28.9674 61.5343 29.9646 62.6939 30.5241 64.0733C30.7984 64.7333 30.9722 65.4303 31.0399 66.1414H59.9777C61.0304 66.1529 62.0578 65.8203 62.9021 65.1946C63.154 65.0058 63.3849 64.7908 63.5907 64.5531L65.0994 63.1444C65.169 63.0931 65.2335 63.0418 65.2979 62.9853C65.3624 62.9289 65.4295 62.8724 65.4939 62.8134C65.5584 62.7518 65.6177 62.6902 65.677 62.6261C65.7364 62.5619 65.7828 62.5132 65.8344 62.4516C65.8859 62.39 65.9581 62.3002 66.0174 62.2207C66.0768 62.1411 66.1206 62.0744 66.167 62.0026C66.2165 61.9306 66.2621 61.8561 66.3037 61.7793C66.3398 61.7178 66.3733 61.6587 66.4043 61.5946L66.4455 61.5099C66.4765 61.4483 66.5049 61.3842 66.5307 61.32C66.5307 61.32 66.5307 61.32 66.5307 61.3021C66.5642 61.22 66.5977 61.1379 66.6261 61.0455C66.6544 60.9531 66.6777 60.8992 66.6983 60.8248C66.7189 60.7504 66.7473 60.6606 66.7679 60.5682C66.7809 60.5218 66.7913 60.4747 66.7989 60.4271C66.8118 60.3732 66.8221 60.3219 66.8324 60.268V60.2116C66.8467 60.1369 66.857 60.0615 66.8633 59.9858C66.8633 59.9704 66.8633 59.955 66.8633 59.9344C66.8633 59.9139 66.8762 59.8138 66.8788 59.7523V59.6548C66.8788 59.565 66.8788 59.4751 66.8788 59.3828C66.9029 59.1758 66.9149 58.9676 66.9149 58.7593Z" stroke="#5C2929" stroke-width="4" stroke-linecap="round" stroke-linejoin="round"/>
<path d="M48.7698 49.4173C48.8755 50.0126 49.448 50.3949 49.969 50.7002L53.8838 53.0352C54.1778 53.2277 54.4949 53.3829 54.8276 53.4971C55.1651 53.6114 55.5334 53.595 55.8592 53.4509C56.2563 53.2533 56.4833 52.8376 56.6844 52.4425C56.8598 52.1038 57.0403 51.7163 56.9191 51.3545C56.777 51.055 56.5357 50.8131 56.2357 50.6694C55.1113 49.9852 53.9585 49.3437 52.7774 48.745C52.1662 48.4371 51.5498 48.142 50.9258 47.8649C50.4977 47.6776 50.1057 47.5057 49.675 47.7674C49.1463 48.0933 48.6589 48.7809 48.7698 49.4173Z" fill="#56B03E"/>
<path d="M62.6308 39.4172L62.1976 39.3018C60.0716 42.0335 58.1487 44.9158 56.444 47.9258C56.185 48.3329 55.9943 48.7792 55.8793 49.2472C55.8224 49.482 55.8202 49.7266 55.873 49.9623C55.9257 50.198 56.032 50.4186 56.1836 50.6072C56.9065 50.2988 57.5397 49.8144 58.0249 49.1985C58.5093 48.5831 58.9406 47.9282 59.3144 47.2407L62.7623 41.257C62.9643 40.9611 63.0957 40.6232 63.1466 40.2691C63.167 40.0904 63.1275 39.91 63.0342 39.7559C62.941 39.6019 62.7991 39.4828 62.6308 39.4172Z" fill="#C5FF7D"/>
</g>
<defs>
<radialGradient id="paint0_radial_1_13274" cx="0" cy="0" r="1" gradientUnits="userSpaceOnUse" gradientTransform="translate(40.001 40) scale(37.67 37.4803)">
<stop offset="0.22" stop-color="#ABF0A1"/>
<stop offset="0.47" stop-color="#88D77E"/>
<stop offset="1" stop-color="#339929"/>
</radialGradient>
<clipPath id="clip0_1_13274">
<rect width="80" height="80" rx="4" fill="white"/>
</clipPath>
</defs>
</svg>
