<svg width="80" height="80" viewBox="0 0 80 80" fill="none" xmlns="http://www.w3.org/2000/svg">
<g clip-path="url(#clip0_1_12953)">
<path d="M69.4391 2.4248L10.5603 2.4248C6.06663 2.4248 2.42383 6.04926 2.42383 10.5203L2.42383 69.4798C2.42383 73.9508 6.06663 77.5752 10.5603 77.5752H69.4391C73.9327 77.5752 77.5755 73.9508 77.5755 69.4798V10.5203C77.5755 6.04926 73.9327 2.4248 69.4391 2.4248Z" fill="url(#paint0_radial_1_12953)"/>
<path d="M63.7759 15.4001C64.7572 15.4001 65.5527 14.6086 65.5527 13.6322C65.5527 12.6558 64.7572 11.8643 63.7759 11.8643C62.7946 11.8643 61.999 12.6558 61.999 13.6322C61.999 14.6086 62.7946 15.4001 63.7759 15.4001Z" fill="#3CF294"/>
<path d="M24.2671 65.8102C25.2484 65.8102 26.044 65.0187 26.044 64.0423C26.044 63.0659 25.2484 62.2744 24.2671 62.2744C23.2858 62.2744 22.4902 63.0659 22.4902 64.0423C22.4902 65.0187 23.2858 65.8102 24.2671 65.8102Z" fill="#3CF294"/>
<path d="M68.7716 22.2881C69.2629 22.2881 69.6613 21.8917 69.6613 21.4028C69.6613 20.9139 69.2629 20.5176 68.7716 20.5176C68.2802 20.5176 67.8818 20.9139 67.8818 21.4028C67.8818 21.8917 68.2802 22.2881 68.7716 22.2881Z" fill="#3CF294"/>
<path d="M13.7969 55.4258C14.2883 55.4258 14.6867 55.0294 14.6867 54.5405C14.6867 54.0516 14.2883 53.6553 13.7969 53.6553C13.3056 53.6553 12.9072 54.0516 12.9072 54.5405C12.9072 55.0294 13.3056 55.4258 13.7969 55.4258Z" fill="#3CF294"/>
<path d="M0 6.04272L0 73.9547C-1.45114e-07 75.5576 0.639782 77.0948 1.77867 78.2285C2.91757 79.3621 4.46233 79.9993 6.07331 80H73.9267C74.7245 80 75.5144 79.8436 76.2514 79.5398C76.9885 79.236 77.6581 78.7906 78.2221 78.2292C78.7861 77.6678 79.2334 77.0014 79.5384 76.268C79.8435 75.5345 80.0003 74.7485 80 73.9547V6.04272C80 4.44009 79.3601 2.9031 78.2212 1.76987C77.0822 0.636642 75.5374 0 73.9267 0L6.07331 0C4.46277 0.000680001 2.9184 0.637541 1.77958 1.77062C0.640767 2.90371 0.000683442 4.4403 0 6.04272ZM71.4793 75.2171H8.52326C7.53151 75.2171 6.58038 74.8252 5.8791 74.1274C5.17783 73.4297 4.78386 72.4833 4.78386 71.4966L4.78386 8.50343C4.78386 7.51667 5.17783 6.57033 5.8791 5.87259C6.58038 5.17485 7.53151 4.78286 8.52326 4.78286L71.4793 4.78286C72.4711 4.78286 73.4222 5.17485 74.1235 5.87259C74.8248 6.57033 75.2187 7.51667 75.2187 8.50343V71.4966C75.218 72.4831 74.8239 73.4291 74.1227 74.1267C73.4216 74.8243 72.4709 75.2165 71.4793 75.2171Z" fill="#FFBE33"/>
<path d="M76.7661 40.0791V71.4961C76.764 72.8906 76.2064 74.2273 75.2154 75.2133C74.2243 76.1994 72.8808 76.7542 71.4793 76.7563H8.52326C7.12155 76.7549 5.77764 76.2003 4.78648 75.2141C3.79532 74.2279 3.23788 72.8908 3.23652 71.4961L3.23652 40.0791H0L0 73.9491C-1.45114e-07 75.552 0.639782 77.0893 1.77867 78.2229C2.91757 79.3565 4.46233 79.9938 6.07331 79.9944H73.9267C74.7245 79.9944 75.5144 79.838 76.2514 79.5342C76.9885 79.2304 77.6581 78.785 78.2221 78.2236C78.7861 77.6623 79.2334 76.9958 79.5384 76.2624C79.8435 75.5289 80.0003 74.7429 80 73.9491V40.0791H76.7661Z" fill="#E88827"/>
<path d="M71.4791 4.78271C72.4709 4.78271 73.422 5.1747 74.1233 5.87244C74.8246 6.57018 75.2185 7.51653 75.2185 8.50328V71.4964C75.2179 72.483 74.8237 73.4289 74.1225 74.1265C73.4214 74.8241 72.4707 75.2163 71.4791 75.217H8.52307C7.53132 75.217 6.58019 74.825 5.87891 74.1273C5.17764 73.4295 4.78367 72.4832 4.78367 71.4964L4.78367 8.50328C4.78367 7.51653 5.17764 6.57018 5.87891 5.87244C6.58019 5.1747 7.53132 4.78271 8.52307 4.78271L71.4791 4.78271ZM71.4791 3.24316L8.52307 3.24316C7.12136 3.24452 5.77745 3.79915 4.78629 4.78532C3.79513 5.77149 3.23769 7.10863 3.23633 8.50328L3.23633 71.4964C3.23769 72.8911 3.79513 74.2282 4.78629 75.2144C5.77745 76.2005 7.12136 76.7552 8.52307 76.7565H71.4791C72.8806 76.7545 74.2242 76.1997 75.2152 75.2136C76.2062 74.2276 76.7638 72.8909 76.7659 71.4964V8.50328C76.7638 7.10884 76.2062 5.77209 75.2152 4.78607C74.2242 3.80004 72.8806 3.2452 71.4791 3.24316Z" fill="#FFD952"/>
<path d="M0 6.04272L0 73.9547C-1.45114e-07 75.5576 0.639782 77.0948 1.77867 78.2285C2.91757 79.3621 4.46233 79.9993 6.07331 80H73.9267C74.7245 80 75.5144 79.8436 76.2514 79.5398C76.9885 79.236 77.6581 78.7906 78.2221 78.2292C78.7861 77.6678 79.2334 77.0014 79.5384 76.268C79.8435 75.5345 80.0003 74.7485 80 73.9547V6.04272C80 4.44009 79.3601 2.9031 78.2212 1.76987C77.0822 0.636642 75.5374 0 73.9267 0L6.07331 0C4.46277 0.000680001 2.9184 0.637541 1.77958 1.77062C0.640767 2.90371 0.000683442 4.4403 0 6.04272ZM71.4793 75.2171H8.52326C7.53151 75.2171 6.58038 74.8252 5.8791 74.1274C5.17783 73.4297 4.78386 72.4833 4.78386 71.4966L4.78386 8.50343C4.78386 7.51668 5.17783 6.57033 5.8791 5.87259C6.58038 5.17485 7.53151 4.78286 8.52326 4.78286L71.4793 4.78286C72.4711 4.78286 73.4222 5.17485 74.1235 5.87259C74.8248 6.57033 75.2187 7.51668 75.2187 8.50343V71.4966C75.218 72.4831 74.8239 73.4291 74.1227 74.1267C73.4216 74.8243 72.4709 75.2165 71.4793 75.2171Z" stroke="#5C2929" stroke-width="4" stroke-linecap="round" stroke-linejoin="round"/>
<path d="M38.2707 11.5795C43.5885 11.6005 48.7795 13.1968 53.1819 16.1648C55.3392 17.614 57.259 19.3856 58.8735 21.4172C58.8812 21.426 58.8881 21.4354 58.8941 21.4454C59.0592 21.6533 59.2217 21.8662 59.379 22.0792L59.4899 22.2357C59.6162 22.4102 59.7478 22.5847 59.8612 22.7489C59.9102 22.8182 59.9566 22.8875 60.0031 22.9593C60.1114 23.121 60.2171 23.2852 60.3229 23.4494C60.3744 23.5289 60.4234 23.6085 60.4724 23.6906C60.5704 23.8497 60.6658 24.0088 60.7613 24.1704L60.9108 24.427C61.0011 24.5861 61.0888 24.7477 61.1687 24.9094C61.2177 24.9992 61.2667 25.089 61.3132 25.1814C61.3983 25.3456 61.4834 25.5124 61.571 25.6946C61.6149 25.7818 61.6613 25.869 61.7026 25.9512C61.798 26.1487 61.8857 26.3489 61.9733 26.549L62.0533 26.7209C62.2235 27.1161 62.3731 27.4907 62.5098 27.8628C62.5278 27.9115 62.5484 27.9628 62.5665 28.0141C62.6232 28.1732 62.6774 28.3298 62.729 28.4863L62.7754 28.6248C62.8089 28.7275 62.8373 28.8275 62.8682 28.9276C62.8992 29.0277 62.9095 29.0559 62.9275 29.1201C62.9456 29.1842 62.9456 29.1816 62.9533 29.2099C63.0049 29.3869 63.0487 29.5614 63.0926 29.723C63.0926 29.723 63.0926 29.7487 63.0926 29.7615C63.1364 29.9437 63.1751 30.1208 63.2112 30.2952C63.2834 30.6519 63.3376 30.9957 63.3737 31.3216C63.4578 32.0196 63.4578 32.7251 63.3737 33.4231C63.3027 33.9784 63.1695 34.5241 62.9765 35.0499C62.6764 36.171 62.064 37.185 61.21 37.975L61.1687 38.0238L61.0862 38.1187H61.0501L61.0217 38.1444C60.9108 38.247 60.7922 38.3471 60.6736 38.4471L60.6297 38.4856C60.3408 38.722 60.0395 38.943 59.7271 39.1476L59.6936 39.1682C59.5518 39.2605 59.4022 39.3529 59.2526 39.4427L59.1288 39.512C59.005 39.5838 58.8709 39.6531 58.7497 39.7224L58.5898 39.8045C58.4695 39.8695 58.3457 39.9311 58.2185 39.9893L58.0431 40.0714C57.9142 40.1304 57.7852 40.1894 57.6485 40.2433L57.4783 40.3177C57.3184 40.3818 57.156 40.4434 56.9883 40.505L56.8955 40.5409C56.6969 40.6102 56.4958 40.6795 56.292 40.7436L56.1244 40.7924L55.753 40.9027L55.557 42.1857L55.6473 42.2678C55.7453 42.3602 55.8407 42.4551 55.9361 42.55C56.127 42.745 56.3101 42.9478 56.488 43.1556C56.5783 43.2608 56.6634 43.366 56.7459 43.4738C57.0895 43.9092 57.4047 44.366 57.6898 44.8414C57.762 44.9594 57.8316 45.08 57.8987 45.2006C58.2546 45.837 58.6053 46.4742 58.9509 47.1122C59.2948 47.7498 59.5863 48.4139 59.8225 49.0982L59.8045 48.6261C60.3903 50.2427 60.6199 51.9658 60.4776 53.6784C60.4776 53.7092 60.4776 53.74 60.4776 53.7682C60.4647 53.9632 60.4492 54.1531 60.4286 54.343C60.4286 54.3994 60.4157 54.4559 60.408 54.5149C60.3925 54.6483 60.3744 54.7817 60.3538 54.9152C60.3538 54.9844 60.3332 55.0537 60.3203 55.1256C60.2996 55.2462 60.2764 55.3668 60.2532 55.4874C60.2403 55.5566 60.2249 55.6259 60.212 55.6952C60.1836 55.8235 60.1526 55.9518 60.1191 56.0827L60.0804 56.2443C60.0314 56.4239 59.9824 56.601 59.9283 56.7755C59.9128 56.8242 59.8948 56.873 59.8793 56.9217C59.838 57.05 59.7968 57.1783 59.7503 57.3066L59.6781 57.5067C59.6369 57.6145 59.5956 57.7248 59.5518 57.8326C59.5234 57.8993 59.4976 57.9686 59.4692 58.0353C59.4228 58.1456 59.3738 58.256 59.3248 58.3663C59.2965 58.4253 59.2707 58.4844 59.2449 58.5434C59.1675 58.7076 59.0901 58.8667 59.0102 59.0258C57.2798 62.4153 54.3295 65.012 51.7377 66.277C50.0189 67.2077 48.0905 67.688 46.1338 67.6729C44.1281 67.6344 42.1405 67.2882 40.241 66.6465C37.3526 65.7331 34.7505 64.096 33.3682 61.6019L32.494 60.0008C32.4475 59.9213 32.4037 59.8417 32.3624 59.7596L32.2361 59.5287C31.8626 58.7723 31.6086 57.963 31.483 57.1296C31.0188 54.0915 30.8151 51.0098 31.5939 48.213L30.0646 46.9018L29.9666 46.9403C28.4678 47.5626 26.9052 48.0203 25.3066 48.3054C24.5044 48.4462 23.6918 48.5192 22.8772 48.5235C21.2809 48.5235 19.8135 48.2002 18.6659 47.4124C18.5645 47.3419 18.4672 47.2656 18.3745 47.1841L18.3539 47.1687C18.3049 47.126 18.2584 47.0806 18.2146 47.0327C18.1682 46.9865 18.1166 46.9403 18.0728 46.8916C18.0289 46.8428 18.0289 46.8325 18.0031 46.8043C17.9464 46.735 17.8897 46.6632 17.8407 46.5914C17.8211 46.5623 17.803 46.5324 17.7865 46.5015C17.737 46.4252 17.6913 46.3464 17.6498 46.2655C17.5054 46.0499 17.3661 45.8293 17.232 45.6086C17.1934 45.547 17.1573 45.4829 17.1211 45.4213C17.0257 45.2596 16.9329 45.098 16.8401 44.9338L16.7214 44.7131C16.6286 44.5412 16.5409 44.3693 16.4635 44.1999C16.4326 44.1409 16.4016 44.0819 16.3733 44.0229C16.2624 43.7945 16.1566 43.561 16.0561 43.3275C16.0303 43.2711 16.0071 43.212 15.9839 43.1556C15.9065 42.976 15.8317 42.7938 15.7621 42.6116C15.7285 42.5269 15.6976 42.4397 15.6667 42.355C15.6048 42.184 15.5454 42.0197 15.4887 41.8624L15.4036 41.6058C15.3366 41.4005 15.2747 41.1952 15.2153 40.99C15.2153 40.9463 15.187 40.9053 15.1767 40.8617C15.107 40.6051 15.0426 40.369 14.9807 40.1201C14.96 40.038 14.9446 39.9559 14.9239 39.8635C14.8827 39.689 14.844 39.512 14.8079 39.335L14.7537 39.0604C14.7202 38.8782 14.6892 38.696 14.6583 38.5113L14.6196 38.2778C14.5809 38.0212 14.5474 37.7646 14.5165 37.508C14.5165 37.4618 14.5165 37.4156 14.5036 37.372C14.4804 37.1514 14.4597 36.9333 14.4417 36.7126L14.4262 36.456C14.4133 36.2687 14.403 36.0814 14.3953 35.8915V35.6349C14.3953 35.4142 14.3953 35.191 14.3953 34.9652C14.3953 34.9216 14.3953 34.878 14.3953 34.8318C14.3953 34.5624 14.3953 34.2904 14.4159 34.0184C14.4159 33.9568 14.4159 33.8952 14.4159 33.8311C14.4159 33.7669 14.4159 33.7207 14.4159 33.6643C14.4146 33.6549 14.4146 33.6454 14.4159 33.6361C14.4159 33.4889 14.4262 33.3427 14.4468 33.1973C14.4468 33.1229 14.4468 33.0485 14.4649 32.9741C14.4661 32.9681 14.4661 32.962 14.4649 32.9561C14.4829 32.7508 14.5061 32.5481 14.5294 32.3454C14.5306 32.33 14.5306 32.3146 14.5294 32.2992C14.5294 32.2428 14.5294 32.1863 14.55 32.1324C14.5706 31.981 14.5912 31.8322 14.6145 31.6808C14.6145 31.65 14.6145 31.6193 14.6145 31.5885C14.6454 31.3986 14.6764 31.2061 14.7125 31.0137C14.7125 30.9778 14.7125 30.9419 14.7305 30.9059C14.7563 30.7674 14.7821 30.6288 14.813 30.4877C14.813 30.4312 14.8362 30.3748 14.8466 30.3183L14.8698 30.2234C14.9085 30.0438 14.9497 29.8616 14.9936 29.682L15.009 29.6076C15.0245 29.5511 15.0374 29.4947 15.0529 29.4382C15.089 29.2971 15.1251 29.156 15.1638 29.0174C15.1638 28.9661 15.1921 28.9148 15.2076 28.8635L15.2386 28.7506C15.2386 28.7095 15.2618 28.6685 15.2721 28.6248C15.3004 28.535 15.3288 28.4427 15.3546 28.3528L15.4088 28.1861C15.4474 28.0578 15.4861 27.9295 15.53 27.8037L15.5687 27.6883L15.6305 27.5087C15.6873 27.3496 15.744 27.1931 15.8033 27.034C15.8033 27.0083 15.8214 26.9827 15.8317 26.957C15.842 26.9313 15.8755 26.8415 15.8988 26.7851C15.9503 26.6491 16.0019 26.5131 16.0586 26.3797C16.0844 26.3129 16.1128 26.2462 16.1412 26.177L16.2263 25.9768C16.2624 25.8947 16.2959 25.8126 16.3346 25.7202C16.3733 25.6278 16.4042 25.5688 16.4377 25.4919C16.4713 25.4149 16.5254 25.2943 16.5718 25.1942V25.1762L16.6028 25.1121C16.7214 24.8555 16.8426 24.6194 16.969 24.3757L17.0464 24.232C17.1547 24.0293 17.2656 23.8266 17.379 23.6264C17.4255 23.5443 17.4745 23.4622 17.5235 23.3698C17.6266 23.1954 17.7298 23.0183 17.8381 22.8567L17.9773 22.6309C18.1321 22.3897 18.2894 22.151 18.4519 21.915L18.4983 21.8508C18.6479 21.6327 18.8026 21.4198 18.9625 21.2042L19.125 20.9912C19.2565 20.8193 19.3828 20.65 19.5247 20.4781L19.6897 20.2728C19.878 20.0444 20.0688 19.8186 20.2674 19.5954C23.115 16.3567 26.8033 13.9599 30.9286 12.6674C31.107 12.5523 31.2931 12.4494 31.4856 12.3595C32.4298 12.0257 33.4236 11.8522 34.4256 11.8463H34.4746C35.6202 11.6722 36.7766 11.577 37.9354 11.5615H38.2526M38.2526 9.50879H37.9096C36.7072 9.52468 35.5071 9.61983 34.3172 9.7936C33.123 9.81145 31.9395 10.0211 30.8125 10.4146C30.7423 10.4381 30.6734 10.4656 30.6062 10.4967C30.4283 10.5813 30.2503 10.6737 30.0672 10.7815C25.6777 12.1943 21.7559 14.7661 18.7201 18.2226C18.5266 18.4407 18.3203 18.6819 18.0934 18.9565L17.9567 19.1233L17.9129 19.1797C17.7659 19.3619 17.6215 19.5466 17.4796 19.7314L17.4384 19.7878L17.3017 19.9649C17.1211 20.2215 16.9561 20.4396 16.7859 20.6654L16.7343 20.7398C16.5718 20.9733 16.4042 21.2299 16.2185 21.5096C16.1824 21.5686 16.1463 21.6302 16.1076 21.6892L16.069 21.7533C15.9503 21.9432 15.8369 22.1331 15.7234 22.323L15.5712 22.5795C15.4449 22.7976 15.3133 23.0209 15.2076 23.2416L15.1844 23.2826L15.1225 23.3981C14.9936 23.6547 14.8646 23.9113 14.7305 24.1832L14.6918 24.2577L14.6712 24.3038C14.6377 24.3757 14.6041 24.4475 14.5732 24.5194L14.5294 24.6143L14.501 24.681L14.4159 24.8658C14.3772 24.9504 14.3385 25.0403 14.2998 25.1224L14.2328 25.2814L14.207 25.3405L14.1812 25.402C14.1606 25.4559 14.1374 25.5098 14.1142 25.5637C14.0574 25.7048 14.0007 25.8536 13.9414 26.0025L13.9233 26.0512L13.8692 26.1898L13.8459 26.2565V26.2745C13.7841 26.4455 13.7222 26.6166 13.6603 26.7876V26.8287L13.6061 26.9801V27.0109L13.5752 27.1058C13.5365 27.2213 13.5004 27.3367 13.4643 27.4522L13.4411 27.5215V27.5574L13.3946 27.7011L13.374 27.7729L13.3044 28.0013C13.3044 28.0347 13.2863 28.068 13.276 28.104V28.1347L13.2502 28.2246V28.2579L13.2373 28.3067L13.2038 28.4247C13.1625 28.5786 13.1213 28.7326 13.0826 28.884V28.9199L13.0439 29.0687L13.0284 29.1406V29.156C12.982 29.3484 12.9382 29.5434 12.8943 29.741V29.7692L12.8789 29.8411L12.866 29.8975L12.8402 30.0284C12.8067 30.1798 12.7783 30.3337 12.7499 30.4851C12.7499 30.5236 12.737 30.5672 12.7293 30.6109C12.6932 30.811 12.6571 31.0188 12.6261 31.2292L12.6107 31.3216C12.5849 31.491 12.5617 31.6552 12.541 31.8194C12.541 31.8553 12.541 31.8964 12.5256 31.94V31.9939V32.0734V32.1196C12.4972 32.3377 12.4766 32.5532 12.4559 32.7637V32.7867C12.4559 32.8791 12.4404 32.9587 12.4327 33.0433C12.4327 33.1999 12.4095 33.3615 12.3992 33.5206V33.5514V33.731V33.79V33.9388C12.3992 34.239 12.3786 34.5393 12.376 34.8241C12.376 34.86 12.376 34.9011 12.376 34.9395V34.9703C12.376 35.2141 12.376 35.4604 12.376 35.7016V35.9351V35.9813C12.376 36.1866 12.3863 36.3919 12.4069 36.5971V36.6715L12.4224 36.8768C12.4404 37.1129 12.4611 37.3541 12.4894 37.6004V37.6286C12.4894 37.6697 12.4894 37.7107 12.4894 37.7492C12.523 38.0238 12.5591 38.3009 12.6029 38.5985L12.6339 38.7807V38.8551C12.6648 39.0578 12.7009 39.258 12.737 39.4555C12.7577 39.5556 12.7757 39.6583 12.7963 39.7583C12.8376 39.9508 12.8789 40.1458 12.9253 40.3408L12.9433 40.4255C12.9433 40.4845 12.9717 40.5461 12.9872 40.6076C13.0594 40.9027 13.129 41.1696 13.2012 41.4236C13.2012 41.4647 13.2244 41.5031 13.2347 41.5416V41.5699C13.2992 41.7957 13.3689 42.024 13.4411 42.2447L13.5133 42.4551L13.5365 42.5218C13.5984 42.7066 13.6628 42.8887 13.7299 43.0684L13.8382 43.3557C13.9104 43.543 13.9904 43.7381 14.0806 43.9536L14.1038 44.01C14.1219 44.0537 14.1399 44.0998 14.1606 44.1435C14.2689 44.4001 14.3875 44.6567 14.5139 44.9132L14.5835 45.0544L14.6119 45.1108C14.715 45.3187 14.8105 45.506 14.9059 45.6856L15.0426 45.9422C15.138 46.1141 15.2411 46.2988 15.352 46.4836L15.3778 46.5298L15.4758 46.6914C15.6202 46.9275 15.7518 47.1379 15.8807 47.3329C15.9349 47.4278 15.9864 47.5125 16.0303 47.5895C16.0741 47.6665 16.0896 47.6921 16.1386 47.764C16.234 47.9077 16.3268 48.0206 16.3965 48.1078C16.4274 48.1463 16.4713 48.2053 16.5306 48.272C16.5899 48.3387 16.6982 48.4465 16.7472 48.4953L16.7678 48.5158H16.7833C16.8272 48.562 16.9019 48.6389 16.9974 48.7262L17.0721 48.7878C17.2166 48.9084 17.3558 49.0161 17.4951 49.1136C18.9264 50.0964 20.7393 50.5916 22.885 50.5916C23.8164 50.5836 24.7455 50.4978 25.6625 50.335C26.8743 50.121 28.0676 49.8139 29.2317 49.4164C28.7829 52.2748 29.0924 55.1512 29.4431 57.4452C29.5936 58.4292 29.8854 59.3867 30.3096 60.2882C30.3432 60.3677 30.3793 60.4473 30.4205 60.5243L30.5417 60.7398C30.5882 60.8305 30.6372 60.9203 30.6887 61.0092L31.5656 62.6001C31.5913 62.6463 31.6197 62.6924 31.6481 62.7386C33.1954 65.42 35.9419 67.4496 39.6272 68.6146C41.7296 69.3155 43.9272 69.6927 46.1441 69.7333C48.3843 69.7521 50.594 69.215 52.5733 68.1707L52.6584 68.1296C56.0238 66.4849 59.0876 63.434 60.8593 59.9649C60.9469 59.793 61.0346 59.6134 61.1172 59.4158L61.1868 59.2567L61.21 59.2079C61.2642 59.0873 61.3183 58.9513 61.3725 58.8333C61.4034 58.758 61.4344 58.6811 61.4653 58.6024C61.5169 58.4767 61.5659 58.3458 61.6123 58.2278L61.6278 58.1816C61.651 58.12 61.6742 58.061 61.6948 57.9994C61.749 57.8506 61.798 57.7043 61.8444 57.5555L61.8573 57.517C61.8728 57.4734 61.8857 57.4298 61.9011 57.3836C61.9605 57.1886 62.0198 56.9833 62.0739 56.7729C62.0739 56.7293 62.0997 56.6805 62.11 56.6343V56.5881C62.1487 56.4342 62.1848 56.2854 62.2158 56.1365C62.2338 56.0596 62.2493 55.9877 62.2622 55.9133V55.8953C62.2906 55.7568 62.3163 55.6157 62.3396 55.4745C62.3396 55.3924 62.3679 55.3103 62.3782 55.2179C62.4014 55.0666 62.4221 54.91 62.4427 54.7535V54.7073C62.4427 54.656 62.4556 54.6047 62.4608 54.5508C62.484 54.325 62.502 54.0992 62.5149 53.8837C62.5149 53.8554 62.5149 53.8272 62.5149 53.7964C62.6005 52.6831 62.5555 51.5637 62.3808 50.4607C62.2406 49.5965 62.0205 48.747 61.7232 47.9231C61.6249 47.647 61.4684 47.395 61.2642 47.1841C61.1043 46.8248 60.9323 46.4725 60.7484 46.1269C60.4157 45.5111 60.0675 44.8773 59.6807 44.1871C59.6033 44.0485 59.5234 43.91 59.4383 43.7714C59.1082 43.221 58.7429 42.6922 58.3448 42.1882L58.3294 42.1677L58.3784 42.1472L58.4274 42.1267L58.8787 41.9291L59.0695 41.8393C59.2139 41.77 59.3583 41.7007 59.4976 41.6263L59.6833 41.5314C59.8277 41.4544 59.9721 41.3749 60.1243 41.2876L60.1604 41.2671L60.2661 41.2055C60.4389 41.1029 60.6091 40.9977 60.7819 40.8925L60.8335 40.8591C61.2071 40.6146 61.5669 40.3499 61.9115 40.0662L61.9733 40.0175L62.2312 39.8045C62.3751 39.7067 62.506 39.5912 62.6207 39.4607L62.7006 39.3683C63.764 38.3568 64.5367 37.0813 64.9391 35.6734C65.1647 35.0365 65.322 34.3777 65.4084 33.7079C65.5105 32.8487 65.5105 31.9806 65.4084 31.1215C65.3646 30.7263 65.3001 30.3209 65.2176 29.9129C65.1763 29.7051 65.1299 29.5024 65.0809 29.3048L65.068 29.2509C65.0139 29.0354 64.9649 28.8481 64.9133 28.6685C64.9133 28.6377 64.8952 28.6069 64.8849 28.5761C64.8643 28.5119 64.8437 28.4427 64.823 28.3734L64.8024 28.3041C64.7766 28.2169 64.7508 28.127 64.7199 28.0475C64.707 28.0064 64.6967 27.9705 64.6838 27.9346L64.6683 27.8935C64.6116 27.7191 64.5522 27.5446 64.4878 27.3675L64.4723 27.1982L64.4568 27.1597C64.2944 26.7209 64.1319 26.3155 63.9591 25.9152C63.9385 25.8665 63.9153 25.8177 63.8946 25.7715L63.874 25.7279C63.7889 25.5329 63.6883 25.3071 63.58 25.0787L63.482 24.8786L63.4382 24.7888C63.3479 24.6066 63.2576 24.4244 63.1648 24.2448L63.0462 24.0216L63.0049 23.9497C62.9121 23.7787 62.8166 23.6076 62.7187 23.4366C62.6645 23.3391 62.6078 23.2467 62.5536 23.1517C62.453 22.9798 62.3473 22.8053 62.2416 22.6386L62.0791 22.382C61.9656 22.2049 61.8496 22.0279 61.7309 21.8483L61.6948 21.7969L61.5788 21.6225C61.4576 21.4454 61.3209 21.2581 61.1739 21.0528L61.1378 20.9989L61.0527 20.8809C60.8825 20.65 60.7071 20.4216 60.5369 20.2035L60.5111 20.165C58.7639 17.9663 56.6867 16.0485 54.3527 14.479C52.5202 13.2394 50.5508 12.2132 48.4831 11.4204C45.2285 10.173 41.7713 9.53111 38.2836 9.52675L38.2526 9.50879Z" fill="#8AFFC0"/>
<path d="M62.974 35.1014C63.7631 32.982 63.6368 30.4058 62.0508 26.7288C55.3173 11.0973 32.7106 5.64475 20.2855 19.6033C13.2554 27.5012 12.6081 38.7604 17.6318 46.258C17.8697 46.7258 18.225 47.1244 18.6634 47.4152C22.3228 49.9273 29.2188 47.7206 33.149 45.3625C39.5009 46.6634 46.1132 45.537 51.1678 41.5393C55.4024 41.4828 58.9535 40.0639 61.0553 38.1189H61.0914L61.2204 37.9675C62.0627 37.1941 62.6703 36.2011 62.974 35.1014Z" fill="#EB5BD3"/>
<path d="M62.9763 35.1017C62.6688 36.2038 62.0589 37.1989 61.215 37.9755C61.1737 38.0243 61.1298 38.0781 61.0834 38.1269H61.0499C58.9481 40.0693 55.397 41.4882 51.165 41.5447C46.1078 45.545 39.4955 46.6765 33.1437 45.3705C29.2134 47.7183 22.3123 49.925 18.658 47.4232C18.2201 47.1329 17.8648 46.7352 17.6264 46.2685C13.6962 40.4029 13.2423 32.2407 16.5794 25.1844L16.7238 25.8362C16.2122 26.3058 15.8542 26.9174 15.6961 27.5919C15.5381 28.2663 15.5874 28.9725 15.8375 29.6187C16.0876 30.265 16.5271 30.8216 17.099 31.2164C17.6709 31.6111 18.3488 31.8259 19.0448 31.8327C20.6411 31.8327 22.0389 30.7781 23.1324 29.6209C24.2778 28.4025 25.2441 27.0289 26.0027 25.5411C26.202 28.0183 27.0474 30.4009 28.4552 32.4537C28.8549 29.3387 29.2959 26.2442 29.7086 23.1368C32.0554 24.4352 34.74 25.0356 37.4169 24.5943C39.1576 24.3043 40.8674 23.6269 42.1569 22.4261C43.1046 21.5527 43.7516 20.4044 44.006 19.1443C45.931 21.5947 47.5552 24.2651 48.844 27.0986C48.6871 24.8494 48.2399 22.6296 47.5133 20.494C49.5701 21.9159 51.8258 23.0294 54.2081 23.7989C54.9818 24.0554 55.8096 24.2607 56.6013 24.0811C56.9511 24.0012 57.2792 23.8461 57.5625 23.6268C57.8458 23.4075 58.0775 23.1292 58.2414 22.8114C58.4052 22.4937 58.4973 22.1441 58.5111 21.7872C58.5249 21.4304 58.4602 21.0748 58.3214 20.7454C59.8575 22.5451 61.1153 24.5628 62.0531 26.7317C63.6365 30.4061 63.7629 32.9823 62.9763 35.1017Z" fill="#B04392"/>
<path d="M20.6821 21.6182C33.1072 7.66221 55.7036 13.1122 62.4474 28.7386C62.8193 29.5881 63.1329 30.4616 63.3861 31.3533C63.1713 29.7568 62.7211 28.2005 62.0502 26.7346C55.3167 11.098 32.7101 5.6454 20.285 19.604C14.9699 25.5748 13.3065 33.4599 14.9802 40.2057C14.5221 36.8815 14.7947 33.4979 15.7791 30.2888C16.7636 27.0796 18.4364 24.1213 20.6821 21.6182Z" fill="#C2EAFF"/>
<path d="M31.5004 12.3749C23.9185 15.9261 29.1794 36.0942 29.1794 36.0942L50.0969 31.5192C50.0969 31.5192 43.8405 8.14629 31.5004 12.3749Z" fill="#CCEDFF"/>
<path d="M44.0994 18.292C44.068 19.0727 43.881 19.8394 43.5494 20.5477C43.2179 21.256 42.7482 21.8917 42.1678 22.418C40.8783 23.6188 39.1685 24.2962 37.4278 24.5862C33.8483 25.1789 30.2559 23.9011 27.4655 21.5892C27.45 21.6533 27.4345 21.7201 27.4165 21.7842C27.1895 28.4787 29.1779 36.0943 29.1779 36.0943L50.0953 31.5193C50.0953 31.5193 48.0915 24.0242 44.0994 18.292Z" fill="#9ECAFF"/>
<path d="M62.974 35.1014C63.7631 32.982 63.6368 30.4058 62.0508 26.7288C55.3173 11.0973 32.7106 5.64475 20.2855 19.6033C13.2554 27.5012 12.6081 38.7604 17.6318 46.258C17.8697 46.7258 18.225 47.1244 18.6634 47.4152C22.3228 49.9273 29.2188 47.7206 33.149 45.3625C39.5009 46.6634 46.1132 45.537 51.1678 41.5393C55.4024 41.4828 58.9535 40.0639 61.0553 38.1189H61.0914L61.2204 37.9675C62.0627 37.1941 62.6703 36.2011 62.974 35.1014Z" stroke="#5C2929" stroke-width="4" stroke-linecap="round" stroke-linejoin="round"/>
<path d="M55.7532 40.9131C54.9025 41.1485 54.0353 41.3201 53.1588 41.4263C52.4962 41.5044 51.8299 41.5481 51.1627 41.5572C46.1055 45.5523 39.4958 46.689 33.1414 45.3804C29.2137 47.7282 22.31 49.9323 18.6583 47.4331C15.0066 44.9339 18.7975 37.6826 29.1854 36.1123C31.0989 29.4743 43.7381 25.9128 50.1028 31.5373C51.3544 30.873 52.6928 30.3851 54.0795 30.0875C55.1986 29.8293 56.3426 29.6926 57.4913 29.6795C59.1779 29.6795 60.7021 30.0234 61.6408 30.8855C65.1868 34.447 61.9193 39.2093 55.7532 40.9131Z" fill="#B04392"/>
<path d="M54.079 30.0695C52.6924 30.3671 51.354 30.855 50.1024 31.5192C43.7376 25.8948 31.0985 29.4665 29.1849 36.0943C22.3354 37.1206 18.3535 40.6359 17.4922 43.6226C21.2857 45.3854 27.5267 43.3224 31.1887 41.1337C37.5405 42.4346 44.1528 41.3056 49.2101 37.3105C49.8772 37.3013 50.5435 37.2576 51.2061 37.1796C52.0827 37.0742 52.95 36.9026 53.8005 36.6665C57.8984 35.5349 60.7145 33.0485 61.1014 30.4569C60.1678 29.8899 58.8835 29.6538 57.4909 29.6538C56.3418 29.6693 55.1979 29.8087 54.079 30.0695Z" fill="#5C2929"/>
<path d="M55.7532 40.9131C54.9025 41.1485 54.0353 41.3201 53.1588 41.4263C52.4962 41.5044 51.8299 41.5481 51.1627 41.5572C46.1055 45.5523 39.4958 46.689 33.1414 45.3804C29.2137 47.7282 22.31 49.9323 18.6583 47.4331C15.0066 44.9339 18.7975 37.6826 29.1854 36.1123C31.0989 29.4743 43.7381 25.9128 50.1028 31.5373C51.3544 30.873 52.6928 30.3851 54.0795 30.0875C55.1986 29.8293 56.3426 29.6926 57.4913 29.6795C59.1779 29.6795 60.7021 30.0234 61.6408 30.8855C65.1868 34.447 61.9193 39.2093 55.7532 40.9131Z" stroke="#5C2929" stroke-width="4" stroke-linecap="round" stroke-linejoin="round"/>
<path d="M35.7357 48.8834L34.4308 50.6539L30.0467 46.9051L21.0205 39.1714C22.0073 38.4745 23.0717 37.8933 24.1926 37.4395L32.5327 45.7171L35.7357 48.8834Z" fill="#9ECAFF" stroke="#5C2929" stroke-width="4" stroke-linecap="round" stroke-linejoin="round"/>
<path d="M57.4908 29.6621L55.7526 40.9136L54.9557 46.0891L52.8281 45.5117L53.1582 41.4063L54.0789 30.0573C55.1985 29.8034 56.3425 29.6709 57.4908 29.6621Z" fill="#9ECAFF" stroke="#5C2929" stroke-width="4" stroke-linecap="round" stroke-linejoin="round"/>
<path d="M32.4937 60.0008C32.4473 59.9213 32.4035 59.8417 32.3622 59.7596L32.2358 59.5287C31.8623 58.7723 31.6083 57.963 31.4828 57.1296C30.7091 52.049 30.6576 46.8505 34.7116 43.0504C37.257 40.6641 39.4722 38.2496 44.7693 38.1521C47.2708 38.1059 49.9271 39.0142 53.3802 40.6795C55.2448 41.5827 56.8153 43.2608 57.901 45.2006C58.2569 45.837 58.6068 46.4742 58.9506 47.1122C59.6381 48.3718 60.1088 49.7369 60.3433 51.151C61.4728 58.2534 56.0984 64.1499 51.7375 66.277C50.0534 67.1007 46.8737 68.748 40.2407 66.6491C37.3524 65.7356 34.7503 64.0986 33.368 61.6045L32.4937 60.0008Z" fill="#FFB95E"/>
<path d="M31.8238 55.7875C31.9501 56.6208 32.2041 57.4299 32.5768 58.1867L32.7032 58.4176L32.8347 58.6588L33.7219 60.2625C35.1067 62.7591 37.7063 64.3962 40.5946 65.3096C47.2276 67.406 50.4099 65.7587 52.0914 64.9376C55.0571 63.4904 58.4922 60.301 60.0318 56.1699C60.5393 54.4279 60.6555 52.5962 60.3722 50.8045C60.252 50.0659 60.0629 49.3401 59.8074 48.6364L59.8358 49.3086C60.1478 51.21 60.4573 53.1883 59.8513 55.1563C59.2452 57.1244 57.4477 59.077 55.3537 59.2618C54.58 59.3336 53.8063 59.1746 53.0688 59.4388C52.2487 59.7262 51.6555 60.4447 51.0237 61.0502C49.587 62.4548 47.7162 63.3362 45.7137 63.552C43.795 63.7085 41.9202 63.0388 40.8371 61.6994C40.213 60.9296 39.8493 59.9649 39.1737 59.2413C37.8662 57.8403 35.5142 57.4605 34.5136 55.8312C33.9591 54.9203 33.9179 53.763 33.8921 52.6469L33.7606 46.9865C33.727 45.6034 33.7373 44.0973 34.5703 42.8477C33.3996 43.9746 32.4981 45.3487 31.9321 46.8684C31.1559 49.6679 31.3596 52.7495 31.8238 55.7875Z" fill="#D9724C"/>
<path d="M59.7423 52.5113C59.5051 51.0978 59.0345 49.7332 58.3497 48.4725C58.0058 47.8328 57.6551 47.1956 57.2975 46.5609C56.2118 44.6211 54.6438 42.943 52.7793 42.0398C49.3364 40.3745 46.6673 39.4739 44.1683 39.5124C38.861 39.6099 36.6431 42.0244 34.0977 44.4107C33.2024 45.2446 32.4529 46.2211 31.8799 47.2999C32.4712 45.6825 33.4389 44.2273 34.7038 43.0533C37.2492 40.667 39.4644 38.2525 44.7615 38.155C47.263 38.1088 49.9193 39.0171 53.3724 40.6824C55.237 41.5856 56.8075 43.2637 57.8932 45.2036C58.2491 45.8399 58.599 46.4771 58.9428 47.1152C59.9501 48.9392 60.483 50.9849 60.4929 53.066C60.5028 55.1472 59.9894 57.1978 58.9996 59.0313C59.8256 56.9624 60.082 54.7116 59.7423 52.5113Z" fill="#FFEA5E"/>
<path d="M42.875 51.4369C43.6357 50.7111 43.6898 49.539 42.9958 48.8189C42.3018 48.0988 41.1225 48.1035 40.3618 48.8293C39.6011 49.5552 39.547 50.7273 40.241 51.4473C40.935 52.1674 42.1143 52.1627 42.875 51.4369Z" fill="#78422F"/>
<path d="M50.9387 46.6856C51.8577 45.8088 51.9235 44.3931 51.0855 43.5237C50.2476 42.6543 48.8233 42.6604 47.9043 43.5373C46.9853 44.4142 46.9195 45.8298 47.7575 46.6992C48.5954 47.5686 50.0197 47.5625 50.9387 46.6856Z" fill="#78422F"/>
<path d="M51.6973 55.3822C52.458 54.6564 52.5121 53.4843 51.818 52.7642C51.124 52.0441 49.9448 52.0488 49.184 52.7746C48.4233 53.5005 48.3692 54.6726 49.0633 55.3927C49.7573 56.1127 50.9366 56.108 51.6973 55.3822Z" fill="#78422F"/>
<path d="M46.932 51.0388C47.4038 50.5886 47.4371 49.8613 47.0063 49.4143C46.5755 48.9673 45.8438 48.97 45.3719 49.4202C44.9001 49.8704 44.8668 50.5977 45.2976 51.0447C45.7284 51.4916 46.4601 51.489 46.932 51.0388Z" fill="#78422F"/>
<path d="M57.889 54.1334C58.1254 53.9078 58.1429 53.5441 57.928 53.3212C57.7131 53.0982 57.3472 53.1003 57.1107 53.3259C56.8743 53.5515 56.8568 53.9151 57.0717 54.1381C57.2866 54.3611 57.6525 54.359 57.889 54.1334Z" fill="#78422F"/>
<path d="M46.6116 61.9576C46.8481 61.732 46.8655 61.3683 46.6506 61.1454C46.4357 60.9224 46.0698 60.9245 45.8334 61.1501C45.5969 61.3757 45.5795 61.7393 45.7944 61.9623C46.0093 62.1853 46.3752 62.1832 46.6116 61.9576Z" fill="#78422F"/>
<path d="M45.0316 59.197C45.5035 58.7468 45.5367 58.0195 45.1059 57.5725C44.6751 57.1256 43.9434 57.1282 43.4715 57.5784C42.9997 58.0286 42.9664 58.7559 43.3972 59.2029C43.828 59.6498 44.5598 59.6472 45.0316 59.197Z" fill="#78422F"/>
<path d="M56.2455 57.9636C56.7173 57.5134 56.7506 56.7861 56.3198 56.3391C55.889 55.8921 55.1573 55.8948 54.6854 56.345C54.2136 56.7952 54.1803 57.5225 54.6111 57.9695C55.0419 58.4164 55.7736 58.4138 56.2455 57.9636Z" fill="#78422F"/>
<path d="M56.1866 48.3998C56.494 48.1065 56.5162 47.6333 56.2362 47.3428C55.9563 47.0524 55.4801 47.0546 55.1728 47.3479C54.8654 47.6412 54.8432 48.1144 55.1231 48.4049C55.4031 48.6953 55.8792 48.6931 56.1866 48.3998Z" fill="#78422F"/>
<path d="M37.4591 46.6313C37.7664 46.338 37.7887 45.8648 37.5087 45.5743C37.2287 45.2838 36.7526 45.2861 36.4452 45.5793C36.1378 45.8726 36.1156 46.3458 36.3956 46.6363C36.6756 46.9268 37.1517 46.9245 37.4591 46.6313Z" fill="#78422F"/>
<path d="M32.4937 60.0008C32.4473 59.9213 32.4035 59.8417 32.3622 59.7596L32.2358 59.5287C31.8623 58.7723 31.6083 57.963 31.4828 57.1296C30.7091 52.049 30.6576 46.8505 34.7116 43.0504C37.257 40.6641 39.4722 38.2496 44.7693 38.1521C47.2708 38.1059 49.9271 39.0142 53.3802 40.6795C55.2448 41.5827 56.8153 43.2608 57.901 45.2006C58.2569 45.837 58.6068 46.4742 58.9506 47.1122C59.6381 48.3718 60.1088 49.7369 60.3433 51.151C61.4728 58.2534 56.0984 64.1499 51.7375 66.277C50.0534 67.1007 46.8737 68.748 40.2407 66.6491C37.3524 65.7356 34.7503 64.0986 33.368 61.6045L32.4937 60.0008Z" stroke="#5C2929" stroke-width="4" stroke-linecap="round" stroke-linejoin="round"/>
<path d="M42.1981 42.3501C42.7552 42.3809 42.6623 43.1738 42.1079 43.2892C41.2259 43.4714 41.3368 42.3014 42.1981 42.3501Z" fill="#78422F"/>
<path d="M38.5002 54.7848C39.0572 54.8156 38.967 55.6085 38.4099 55.724C37.5305 55.9061 37.6517 54.7335 38.5002 54.7848Z" fill="#78422F"/>
<path d="M36.6693 53.135C37.4842 53.1812 37.3501 54.3436 36.5352 54.5129C35.2458 54.7798 35.4082 53.0632 36.6693 53.135Z" fill="#78422F"/>
<path d="M24.187 22.1182C24.5658 22.1182 24.873 21.8127 24.873 21.4357C24.873 21.0588 24.5658 20.7532 24.187 20.7532C23.8081 20.7532 23.501 21.0588 23.501 21.4357C23.501 21.8127 23.8081 22.1182 24.187 22.1182Z" fill="#FF87EB"/>
<path d="M22.4873 31.4505C23.2764 31.4505 23.916 30.814 23.916 30.0289C23.916 29.2439 23.2764 28.6074 22.4873 28.6074C21.6982 28.6074 21.0586 29.2439 21.0586 30.0289C21.0586 30.814 21.6982 31.4505 22.4873 31.4505Z" fill="#EB5BD3"/>
<path d="M20.0482 35.5381C20.467 35.5381 20.8064 35.2003 20.8064 34.7837C20.8064 34.367 20.467 34.0293 20.0482 34.0293C19.6295 34.0293 19.29 34.367 19.29 34.7837C19.29 35.2003 19.6295 35.5381 20.0482 35.5381Z" fill="#EB5BD3"/>
<path d="M47.895 18.4412C48.2738 18.4412 48.581 18.1357 48.581 17.7587C48.581 17.3818 48.2738 17.0762 47.895 17.0762C47.5161 17.0762 47.209 17.3818 47.209 17.7587C47.209 18.1357 47.5161 18.4412 47.895 18.4412Z" fill="#FF87EB"/>
<path d="M21.8943 25.7437C22.1094 25.7437 22.2837 25.5702 22.2837 25.3562C22.2837 25.1422 22.1094 24.9688 21.8943 24.9688C21.6792 24.9688 21.5049 25.1422 21.5049 25.3562C21.5049 25.5702 21.6792 25.7437 21.8943 25.7437Z" fill="#B04392"/>
<path d="M52.0886 20.3452C52.3037 20.3452 52.478 20.1718 52.478 19.9578C52.478 19.7438 52.3037 19.5703 52.0886 19.5703C51.8736 19.5703 51.6992 19.7438 51.6992 19.9578C51.6992 20.1718 51.8736 20.3452 52.0886 20.3452Z" fill="#B04392"/>
<path d="M35.3464 18.146C35.5615 18.146 35.7359 17.9725 35.7359 17.7585C35.7359 17.5446 35.5615 17.3711 35.3464 17.3711C35.1314 17.3711 34.957 17.5446 34.957 17.7585C34.957 17.9725 35.1314 18.146 35.3464 18.146Z" fill="#9ECAFF"/>
<path d="M38.5598 18.5645C39.007 18.5645 39.3695 18.2038 39.3695 17.7588C39.3695 17.3138 39.007 16.9531 38.5598 16.9531C38.1125 16.9531 37.75 17.3138 37.75 17.7588C37.75 18.2038 38.1125 18.5645 38.5598 18.5645Z" fill="#9ECAFF"/>
<path d="M32.8734 25.3585C33.55 25.3585 34.0984 24.8128 34.0984 24.1397C34.0984 23.4666 33.55 22.9209 32.8734 22.9209C32.1969 22.9209 31.6484 23.4666 31.6484 24.1397C31.6484 24.8128 32.1969 25.3585 32.8734 25.3585Z" fill="#CCEDFF"/>
<path d="M34.6606 27.0701C35.0395 27.0701 35.3466 26.7646 35.3466 26.3876C35.3466 26.0107 35.0395 25.7051 34.6606 25.7051C34.2817 25.7051 33.9746 26.0107 33.9746 26.3876C33.9746 26.7646 34.2817 27.0701 34.6606 27.0701Z" fill="#CCEDFF"/>
</g>
<defs>
<radialGradient id="paint0_radial_1_12953" cx="0" cy="0" r="1" gradientUnits="userSpaceOnUse" gradientTransform="translate(40.001 40) scale(37.67 37.4803)">
<stop offset="0.38" stop-color="#70FFCF"/>
<stop offset="0.98" stop-color="#0FAB6A"/>
</radialGradient>
<clipPath id="clip0_1_12953">
<rect width="80" height="80" rx="4" fill="white"/>
</clipPath>
</defs>
</svg>
