<svg width="80" height="80" viewBox="0 0 80 80" fill="none" xmlns="http://www.w3.org/2000/svg">
<g clip-path="url(#clip0_1_13006)">
<path d="M69.4391 2.4248L10.5603 2.4248C6.06663 2.4248 2.42383 6.04926 2.42383 10.5203L2.42383 69.4798C2.42383 73.9508 6.06663 77.5752 10.5603 77.5752H69.4391C73.9327 77.5752 77.5755 73.9508 77.5755 69.4798V10.5203C77.5755 6.04926 73.9327 2.4248 69.4391 2.4248Z" fill="url(#paint0_radial_1_13006)"/>
<path d="M64.0517 16.9296C64.8052 16.9296 65.416 16.3219 65.416 15.5722C65.416 14.8226 64.8052 14.2148 64.0517 14.2148C63.2983 14.2148 62.6875 14.8226 62.6875 15.5722C62.6875 16.3219 63.2983 16.9296 64.0517 16.9296Z" fill="#51BCFC"/>
<path d="M21.9517 69.528C22.933 69.528 23.7285 68.7365 23.7285 67.7601C23.7285 66.7837 22.933 65.9922 21.9517 65.9922C20.9703 65.9922 20.1748 66.7837 20.1748 67.7601C20.1748 68.7365 20.9703 69.528 21.9517 69.528Z" fill="#51BCFC"/>
<path d="M59.753 10.5818C60.2444 10.5818 60.6427 10.1854 60.6427 9.69652C60.6427 9.20761 60.2444 8.81128 59.753 8.81128C59.2616 8.81128 58.8633 9.20761 58.8633 9.69652C58.8633 10.1854 59.2616 10.5818 59.753 10.5818Z" fill="#51BCFC"/>
<path d="M12.337 62.6933C12.8284 62.6933 13.2267 62.297 13.2267 61.8081C13.2267 61.3192 12.8284 60.9229 12.337 60.9229C11.8456 60.9229 11.4473 61.3192 11.4473 61.8081C11.4473 62.297 11.8456 62.6933 12.337 62.6933Z" fill="#51BCFC"/>
<path d="M0 6.04272L0 73.9547C-1.45114e-07 75.5576 0.639782 77.0948 1.77867 78.2285C2.91757 79.3621 4.46233 79.9993 6.07331 80H73.9267C74.7245 80 75.5144 79.8436 76.2514 79.5398C76.9885 79.236 77.6581 78.7906 78.2221 78.2292C78.7861 77.6678 79.2334 77.0014 79.5384 76.268C79.8435 75.5345 80.0003 74.7485 80 73.9547V6.04272C80 4.44009 79.3601 2.9031 78.2212 1.76987C77.0822 0.636642 75.5374 0 73.9267 0L6.07331 0C4.46277 0.000680001 2.9184 0.637541 1.77958 1.77062C0.640767 2.90371 0.000683442 4.4403 0 6.04272ZM71.4793 75.2171H8.52326C7.53151 75.2171 6.58038 74.8252 5.8791 74.1274C5.17783 73.4297 4.78386 72.4833 4.78386 71.4966L4.78386 8.50343C4.78386 7.51667 5.17783 6.57033 5.8791 5.87259C6.58038 5.17485 7.53151 4.78286 8.52326 4.78286L71.4793 4.78286C72.4711 4.78286 73.4222 5.17485 74.1235 5.87259C74.8248 6.57033 75.2187 7.51667 75.2187 8.50343V71.4966C75.218 72.4831 74.8239 73.4291 74.1227 74.1267C73.4216 74.8243 72.4709 75.2165 71.4793 75.2171Z" fill="#FFBE33"/>
<path d="M76.7661 40.0791V71.4961C76.764 72.8906 76.2064 74.2273 75.2154 75.2133C74.2243 76.1994 72.8808 76.7542 71.4793 76.7563H8.52326C7.12155 76.7549 5.77764 76.2003 4.78648 75.2141C3.79532 74.2279 3.23788 72.8908 3.23652 71.4961L3.23652 40.0791H0L0 73.9491C-1.45114e-07 75.552 0.639782 77.0893 1.77867 78.2229C2.91757 79.3565 4.46233 79.9938 6.07331 79.9944H73.9267C74.7245 79.9944 75.5144 79.838 76.2514 79.5342C76.9885 79.2304 77.6581 78.785 78.2221 78.2236C78.7861 77.6623 79.2334 76.9958 79.5384 76.2624C79.8435 75.5289 80.0003 74.7429 80 73.9491V40.0791H76.7661Z" fill="#E88827"/>
<path d="M71.4791 4.78271C72.4709 4.78271 73.422 5.1747 74.1233 5.87244C74.8246 6.57018 75.2185 7.51653 75.2185 8.50328V71.4964C75.2179 72.483 74.8237 73.4289 74.1225 74.1265C73.4214 74.8241 72.4707 75.2163 71.4791 75.217H8.52307C7.53132 75.217 6.58019 74.825 5.87891 74.1273C5.17764 73.4295 4.78367 72.4832 4.78367 71.4964L4.78367 8.50328C4.78367 7.51653 5.17764 6.57018 5.87891 5.87244C6.58019 5.1747 7.53132 4.78271 8.52307 4.78271L71.4791 4.78271ZM71.4791 3.24316L8.52307 3.24316C7.12136 3.24452 5.77745 3.79915 4.78629 4.78532C3.79513 5.77149 3.23769 7.10863 3.23633 8.50328L3.23633 71.4964C3.23769 72.8911 3.79513 74.2282 4.78629 75.2144C5.77745 76.2005 7.12136 76.7552 8.52307 76.7565H71.4791C72.8806 76.7545 74.2242 76.1997 75.2152 75.2136C76.2062 74.2276 76.7638 72.8909 76.7659 71.4964V8.50328C76.7638 7.10884 76.2062 5.77209 75.2152 4.78607C74.2242 3.80004 72.8806 3.2452 71.4791 3.24316Z" fill="#FFD952"/>
<path d="M0 6.04272L0 73.9547C-1.45114e-07 75.5576 0.639782 77.0948 1.77867 78.2285C2.91757 79.3621 4.46233 79.9993 6.07331 80H73.9267C74.7245 80 75.5144 79.8436 76.2514 79.5398C76.9885 79.236 77.6581 78.7906 78.2221 78.2292C78.7861 77.6678 79.2334 77.0014 79.5384 76.268C79.8435 75.5345 80.0003 74.7485 80 73.9547V6.04272C80 4.44009 79.3601 2.9031 78.2212 1.76987C77.0822 0.636642 75.5374 0 73.9267 0L6.07331 0C4.46277 0.000680001 2.9184 0.637541 1.77958 1.77062C0.640767 2.90371 0.000683442 4.4403 0 6.04272ZM71.4793 75.2171H8.52326C7.53151 75.2171 6.58038 74.8252 5.8791 74.1274C5.17783 73.4297 4.78386 72.4833 4.78386 71.4966L4.78386 8.50343C4.78386 7.51668 5.17783 6.57033 5.8791 5.87259C6.58038 5.17485 7.53151 4.78286 8.52326 4.78286L71.4793 4.78286C72.4711 4.78286 73.4222 5.17485 74.1235 5.87259C74.8248 6.57033 75.2187 7.51668 75.2187 8.50343V71.4966C75.218 72.4831 74.8239 73.4291 74.1227 74.1267C73.4216 74.8243 72.4709 75.2165 71.4793 75.2171Z" stroke="#5C2929" stroke-width="4" stroke-linecap="round" stroke-linejoin="round"/>
<path d="M40.5607 70.7445H40.4524H40.3079H40.2538C40.1893 70.7445 40.1223 70.7445 40.0578 70.7291L39.7457 70.6777L39.5936 70.6521L39.4775 70.6187C39.3744 70.5931 39.2609 70.5623 39.15 70.5238L39.101 70.5058L38.9695 70.4545L38.8973 70.4237C38.8302 70.3981 38.7632 70.3698 38.6987 70.339H38.6807C38.5398 70.2706 38.4029 70.1944 38.2706 70.1107L16.3912 56.2932C15.7157 55.8656 15.1539 55.282 14.7536 54.592C14.6579 54.426 14.5718 54.2547 14.4957 54.0789C14.2567 53.53 14.1212 52.942 14.096 52.3443L13.4616 36.7153L12.7498 36.2817C12.4343 36.0896 12.1677 35.8276 11.9708 35.516C11.774 35.2044 11.6522 34.8517 11.6151 34.4856C11.6088 34.3787 11.6088 34.2716 11.6151 34.1648L11.7956 28.3736C11.8053 28.0857 11.8742 27.8029 11.9979 27.5425C12.1217 27.2822 12.2977 27.0498 12.5152 26.8597C12.7243 26.6801 12.9659 26.5417 13.2269 26.4517L12.1696 23.2982C11.6828 21.8614 11.7574 20.295 12.3785 18.9105C12.3881 18.8825 12.3993 18.8551 12.412 18.8284L12.4455 18.7616C12.4455 18.7334 12.479 18.6872 12.4919 18.6616L12.5461 18.5564C12.5977 18.4563 12.6596 18.3485 12.724 18.2408C13.1765 17.4876 13.7878 16.8411 14.5158 16.3459C15.2437 15.8506 16.071 15.5184 16.9405 15.3721L47.0595 10.3172C47.4421 10.2527 47.8294 10.2201 48.2174 10.2197C49.713 10.2278 51.1672 10.7086 52.3701 11.5928C53.5731 12.4769 54.4624 13.7187 54.9097 15.1386L57.3673 23.0929C57.5247 22.9211 57.7156 22.7831 57.9285 22.6874C58.1414 22.5916 58.3716 22.5401 58.6052 22.5361H58.6826C59.0217 22.5545 59.3464 22.6784 59.611 22.8902C59.6829 22.9463 59.7502 23.0081 59.8121 23.0749C60.0019 23.2764 60.1593 23.5058 60.2789 23.7549C60.5466 24.2778 60.77 24.8219 60.9469 25.3817L60.9623 25.3637C62.6147 23.1255 64.7705 21.303 67.2574 20.042C67.407 19.9676 67.5437 19.906 67.6726 19.8522C68.0076 19.7081 68.3677 19.6305 68.7325 19.6238H68.8022C68.9192 19.627 69.0358 19.6408 69.1503 19.6648C69.2743 19.6887 69.3953 19.7257 69.5114 19.7752C69.8616 19.9317 70.1647 20.1764 70.3908 20.4851C70.617 20.7937 70.7583 21.1558 70.8008 21.5354C70.8458 21.9339 70.824 22.3371 70.7364 22.7285C70.708 22.862 70.677 22.9851 70.6435 23.1263C70.5404 23.524 70.4243 23.9243 70.3005 24.3168C69.6721 26.2639 68.7681 28.1119 67.6159 29.8053H67.7062C67.7964 29.8053 67.8867 29.7899 67.9769 29.7874H68.0827C68.422 29.7817 68.7593 29.8418 69.0755 29.9644C69.1705 30.0028 69.2619 30.0492 69.3489 30.103C69.5835 30.243 69.7822 30.4354 69.9292 30.6649C70.1009 30.9562 70.194 31.2867 70.1995 31.6244C70.2049 31.962 70.1224 32.2953 69.9601 32.5919C69.8933 32.7197 69.8157 32.8416 69.728 32.9563C69.5984 33.1233 69.4552 33.2795 69.2999 33.4233C69.2354 33.4848 69.1658 33.5464 69.0988 33.6054C68.9079 33.7722 68.7145 33.9365 68.5211 34.0955L68.4514 34.152L68.3044 34.27L67.9408 34.56L67.7758 34.6883L67.6804 34.7601L71.149 36.7769C71.1927 36.8027 71.2349 36.831 71.2753 36.8616C71.5206 37.0343 71.7176 37.2662 71.848 37.5355C71.9784 37.8048 72.0378 38.1027 72.0206 38.4011C72.0155 38.4954 72.0017 38.5891 71.9794 38.6808L70.726 44.2206C70.6799 44.4239 70.608 44.6205 70.512 44.8057C70.3717 45.0811 70.179 45.3268 69.9446 45.5292C69.8632 45.5984 69.777 45.6618 69.6867 45.7191C69.5136 45.8359 69.3264 45.9307 69.1297 46.0014L67.5334 46.5633L64.0905 60.1164C64.0778 60.166 64.0623 60.2148 64.0441 60.2627C63.8602 60.9102 63.5443 61.5131 63.1162 62.034C62.688 62.5549 62.1568 62.9826 61.5555 63.2905C61.3756 63.3818 61.1905 63.4623 61.001 63.5317L41.9945 70.4904C41.8594 70.5398 41.7217 70.5818 41.5819 70.6162L41.4659 70.6444C41.3318 70.6752 41.208 70.6957 41.0893 70.7111L40.9681 70.7239H40.9398L40.6819 70.7419H40.5529L40.5607 70.7445Z" fill="#51F3FC"/>
<path d="M48.2252 11.2466C49.4996 11.251 50.7394 11.6597 51.7644 12.4133C52.7893 13.1668 53.546 14.2259 53.9246 15.4367L57.0399 25.5131L57.0089 25.5772L57.0683 25.4669C57.1508 25.3027 57.2385 25.141 57.3261 24.9793C57.3622 24.9126 57.3984 24.8459 57.437 24.7792C57.5634 24.5611 57.6949 24.3456 57.8342 24.1352C58.0199 23.8555 58.27 23.5527 58.6079 23.5527H58.6336C58.7586 23.5597 58.8779 23.6064 58.9741 23.6861C59.0077 23.7123 59.0396 23.7405 59.0695 23.7708C59.187 23.9032 59.2859 24.0508 59.3635 24.2096C59.675 24.8239 59.9213 25.4689 60.0985 26.134C60.276 26.8001 60.3823 27.483 60.4157 28.1713C60.715 27.5919 61.05 27.0315 61.4189 26.4932C61.5401 26.3136 61.6767 26.1366 61.7954 25.9621C63.3538 23.8566 65.3849 22.1424 67.7268 20.956C67.8352 20.9021 67.9486 20.8482 68.0647 20.802C68.276 20.708 68.5038 20.6557 68.7352 20.6481H68.7713C68.8302 20.6488 68.8889 20.6549 68.9467 20.666C69.005 20.6786 69.062 20.6966 69.1169 20.7199C69.2996 20.8095 69.4561 20.9443 69.5713 21.1115C69.6865 21.2787 69.7565 21.4726 69.7745 21.6745C69.8063 21.9567 69.7889 22.2423 69.7229 22.5186C69.6971 22.6367 69.6713 22.7547 69.6404 22.8702C69.5424 23.2499 69.4341 23.6271 69.3154 24.0017C68.471 26.6285 67.0988 29.0572 65.282 31.1401L67.6031 30.8399C67.6675 30.8399 67.7372 30.8219 67.8042 30.8168L68.0131 30.804H68.0827C68.2877 30.798 68.4918 30.832 68.6836 30.904C68.7277 30.9213 68.7701 30.9428 68.81 30.9682C68.9083 31.0266 68.9921 31.1064 69.055 31.2017C69.1309 31.3421 69.1696 31.4994 69.1673 31.6588C69.1651 31.8182 69.122 31.9744 69.0421 32.1126C69.0027 32.1887 68.956 32.2609 68.9028 32.3281C68.8107 32.4506 68.7071 32.564 68.5934 32.6668C68.5366 32.7207 68.4747 32.7746 68.4154 32.8259C68.2349 32.985 68.0492 33.1415 67.8635 33.2955L67.7939 33.3545L67.6804 33.4443L67.652 33.4674C67.536 33.5598 67.4225 33.6521 67.3039 33.7419L67.144 33.8677L67.0666 33.9241L67.0254 33.9549L66.7469 34.1627L66.4735 34.3629L66.4451 34.3834L66.4116 34.4039L66.2079 34.5476C66.0686 34.6451 65.9268 34.7401 65.7849 34.835L70.6281 37.6575L70.6771 37.6909C70.7804 37.762 70.8637 37.8583 70.9188 37.9707C70.9739 38.083 70.999 38.2076 70.9917 38.3324C70.9897 38.3722 70.9836 38.4117 70.9737 38.4504L69.7203 43.9902C69.6927 44.1084 69.6512 44.223 69.5965 44.3315C69.5126 44.4916 69.3998 44.6351 69.2639 44.7548C69.22 44.7933 69.171 44.8292 69.122 44.8652C69.02 44.933 68.91 44.9882 68.7945 45.0294L66.2517 45.9275L66.6231 45.9967L66.3059 47.213L63.0951 59.8501C63.0951 59.8886 63.0719 59.9245 63.059 59.9604C62.9839 60.2273 62.8802 60.4854 62.7496 60.7302C62.6017 61.0081 62.4198 61.2666 62.208 61.5C61.8905 61.8518 61.5112 62.1431 61.0888 62.3596C60.9456 62.432 60.7983 62.4962 60.6478 62.552L41.6439 69.5364C41.5407 69.5723 41.4376 69.6031 41.3318 69.6288L41.2441 69.6519C41.1513 69.6724 41.0559 69.6904 40.9605 69.7032H40.8496L40.6433 69.716H40.5633H40.4885H40.3518H40.1765H40.1533L40.0424 69.6981L39.9598 69.6852L39.8232 69.6621L39.7484 69.639C39.661 69.6192 39.5749 69.5944 39.4905 69.5646L39.3409 69.503C39.2816 69.4774 39.2197 69.4569 39.1604 69.4286C39.0489 69.3772 38.9412 69.3181 38.838 69.2516L30.0878 63.7323L16.9432 55.4239C16.4106 55.0858 15.9682 54.6245 15.6537 54.0794C15.5764 53.9439 15.5067 53.8042 15.4448 53.6611C15.2588 53.2259 15.1531 52.7609 15.1328 52.2883L14.4803 36.1231L13.2863 35.4098C13.0815 35.2841 12.9134 35.1072 12.7989 34.8966C12.7117 34.738 12.6582 34.5634 12.6416 34.3834C12.6377 34.3236 12.6377 34.2636 12.6416 34.2038L12.8221 28.4074C12.8321 28.1691 12.923 27.9411 13.08 27.7608C13.1164 27.7152 13.1569 27.6731 13.2012 27.6351C13.3353 27.5179 13.4966 27.4359 13.6706 27.3964L14.2895 27.2579L14.568 27.1937L13.1522 22.9805C12.7298 21.757 12.7991 20.4184 13.3456 19.2445L13.3766 19.1778L13.3998 19.1291L13.4565 19.0162C13.5029 18.9289 13.5545 18.8391 13.6061 18.7596C13.9829 18.1325 14.4922 17.5943 15.0987 17.1823C15.7051 16.7702 16.3943 16.4942 17.1185 16.3733L47.2375 11.3184C47.5639 11.2645 47.8943 11.237 48.2252 11.2363M48.2252 9.18359C47.7794 9.18442 47.3343 9.22132 46.8945 9.29393L16.7627 14.3693C15.7456 14.5394 14.7776 14.9268 13.9255 15.5049C13.0734 16.0829 12.3573 16.8379 11.8266 17.7178C11.7544 17.841 11.6822 17.9744 11.6203 18.0873C11.6074 18.1104 11.5971 18.1335 11.5842 18.154L11.5688 18.1848C11.5455 18.231 11.5223 18.2746 11.5017 18.3208C11.5017 18.3413 11.4811 18.3593 11.4733 18.3773C11.4501 18.4231 11.4294 18.4702 11.4114 18.5184C10.6948 20.1337 10.6138 21.9578 11.1845 23.6297L11.9582 25.9749C11.9092 26.0108 11.8602 26.0519 11.8137 26.0904C11.6869 26.2028 11.5688 26.3246 11.4604 26.4547C11.0195 26.9886 10.7684 27.6526 10.7461 28.3433L10.5733 34.1448C10.5677 34.2964 10.5738 34.4482 10.5914 34.599C10.6427 35.1223 10.8158 35.6266 11.0969 36.072C11.378 36.5173 11.7594 36.8915 12.2109 37.1649L12.4533 37.3137L13.0645 52.3807C13.0924 53.1025 13.2533 53.8131 13.539 54.4771C13.6332 54.6952 13.7399 54.9076 13.8588 55.1134C14.3432 55.9464 15.0227 56.6506 15.8394 57.1661L28.966 65.431L37.7188 70.9502C37.8795 71.0516 38.0456 71.1441 38.2165 71.2273H38.232H38.2526C38.3635 71.2812 38.4589 71.3172 38.5105 71.3402L38.5363 71.3531H38.5492L38.7349 71.4275L38.8019 71.4506C38.9317 71.5038 39.0643 71.55 39.1991 71.5891L39.3615 71.6328C39.4312 71.6482 39.5034 71.661 39.5756 71.6712H39.5885L39.6994 71.6892L39.8206 71.7097L39.9263 71.7251C40.0321 71.7251 40.1249 71.7405 40.1842 71.7431H40.2255H40.3854H40.5427H40.5633C40.62 71.7431 40.6794 71.7431 40.7361 71.7431C40.7928 71.7431 40.9218 71.7431 41.0249 71.7226H41.0481L41.2158 71.7046C41.3602 71.6841 41.5123 71.6584 41.6774 71.6199L41.8244 71.5866C42.0126 71.5378 42.1803 71.4865 42.3402 71.4301L61.3466 64.4713C61.5764 64.3857 61.8012 64.2871 62.0197 64.1762C63.0984 63.6253 63.982 62.7596 64.5522 61.695C64.7476 61.332 64.9033 60.9492 65.0164 60.5532C65.0345 60.5044 65.0577 60.43 65.0809 60.3427L68.3071 47.7262L68.4025 47.3438L69.4805 46.9615C69.761 46.8628 70.0279 46.7291 70.2748 46.5638C70.3947 46.4847 70.5101 46.3991 70.6204 46.3072C70.9514 46.0188 71.2245 45.6705 71.425 45.2808C71.5612 45.0187 71.6626 44.7401 71.7267 44.4521L72.9826 38.902C73.0162 38.7544 73.0369 38.6041 73.0445 38.453C73.0715 37.9822 72.978 37.5124 72.7728 37.0874C72.5676 36.6624 72.2574 36.2962 71.8711 36.023C71.805 35.9739 71.7361 35.9285 71.6648 35.887L69.4882 34.6195L69.7745 34.3629L70.0014 34.1602C70.2012 33.9748 70.3849 33.7731 70.5507 33.5572C70.6717 33.3949 70.7795 33.2233 70.8731 33.044C71.1173 32.5883 71.2385 32.0773 71.2249 31.561C71.2114 31.0447 71.0635 30.5408 70.7957 30.0983C70.5645 29.737 70.2531 29.4333 69.8854 29.2105C69.7515 29.1287 69.6109 29.0583 69.465 29.0001L69.3515 28.9565C70.1453 27.587 70.791 26.1377 71.278 24.6329C71.4095 24.2224 71.5359 23.8016 71.6364 23.3859C71.6751 23.2371 71.7087 23.0883 71.7396 22.942C71.8543 22.4371 71.8805 21.9163 71.817 21.4025C71.7495 20.8466 71.5378 20.3178 71.2028 19.8679C70.8677 19.418 70.4208 19.0626 69.906 18.8366C69.7295 18.7637 69.5465 18.7078 69.3593 18.6698C69.1895 18.6341 69.0169 18.6135 68.8435 18.6082H68.7403C68.2418 18.6145 67.7493 18.7182 67.291 18.9135C67.1388 18.9751 66.9764 19.0495 66.801 19.1368C64.7032 20.1987 62.8228 21.6406 61.2564 23.3885C61.2409 23.3577 61.2254 23.3243 61.2074 23.2935C61.0407 22.9526 60.8234 22.6386 60.5627 22.3621C60.4665 22.2623 60.363 22.1697 60.2532 22.085C59.8212 21.7417 59.2916 21.5424 58.7394 21.5154H58.613C58.4028 21.5156 58.1933 21.5406 57.9889 21.5898L55.9052 14.8491C55.3918 13.2197 54.3712 11.7947 52.9907 10.7801C51.6103 9.7654 49.9415 9.21352 48.2252 9.20412V9.18359Z" fill="#51F3FC"/>
<path d="M70.623 37.6578L42.7297 21.431C42.2629 21.1593 41.7095 21.0748 41.1823 21.1949L13.6681 27.4019C13.4357 27.4545 13.2274 27.5823 13.0758 27.7652C12.9241 27.9481 12.8377 28.1759 12.8299 28.4128L12.6365 34.2092C12.6284 34.4487 12.6843 34.686 12.7985 34.897C12.9127 35.1079 13.081 35.285 13.2864 35.4101L14.4727 36.1311L15.1251 52.2964C15.1522 52.925 15.3316 53.5377 15.6482 54.0824C15.9648 54.6271 16.4091 55.0874 16.9433 55.4242L38.8226 69.2211C39.237 69.4856 39.7071 69.6516 40.1963 69.7063C40.6855 69.7611 41.1809 69.703 41.644 69.5367L60.6479 62.578C61.246 62.3591 61.7815 61.9984 62.208 61.5271C62.6345 61.0559 62.939 60.4883 63.0952 59.8735L66.618 46.0176L66.2466 45.9483L68.7894 45.0502C69.0191 44.9683 69.2243 44.8302 69.3861 44.6486C69.5479 44.4669 69.6611 44.2477 69.7153 44.011L70.9686 38.4712C71.0075 38.3167 70.9949 38.1538 70.9325 38.007C70.8702 37.8603 70.7616 37.7377 70.623 37.6578Z" fill="#437BBF"/>
<path d="M19.6025 40.2441L19.6386 51.5778L40.6902 64.8179L59.3614 58.983L62.8816 46.9489L19.6025 40.2441Z" fill="#36649C"/>
<path d="M40.9531 68.2865L16.5051 53.1938L14.4678 36.1279L15.1202 52.2932C15.1474 52.9227 15.3274 53.5363 15.645 54.0815C15.9625 54.6266 16.4081 55.0871 16.9435 55.4236L38.8229 69.2205C39.2312 69.4787 39.6932 69.6413 40.1738 69.6959C40.6545 69.7506 41.1414 69.696 41.5978 69.5361C41.2471 68.7946 40.9531 68.2865 40.9531 68.2865Z" fill="#5BBAF5"/>
<path d="M40.4501 68.3539L42.8872 54.0386C42.9165 53.8682 42.9924 53.7091 43.1066 53.5787C43.2208 53.4484 43.3688 53.3518 43.5345 53.2997L66.6182 45.9971L63.0954 59.853C62.9392 60.4678 62.6347 61.0354 62.2082 61.5066C61.7818 61.9779 61.2462 62.3386 60.6481 62.5575L41.7989 69.4598C41.633 69.5201 41.4542 69.5362 41.2801 69.5066C41.106 69.477 40.9427 69.4026 40.8064 69.2908C40.6702 69.1791 40.5656 69.0338 40.5031 68.8695C40.4406 68.7051 40.4223 68.5274 40.4501 68.3539Z" fill="#5BBAF5"/>
<path d="M43.5346 53.2992C43.3686 53.3509 43.2202 53.4473 43.106 53.5777C42.9917 53.7082 42.916 53.8676 42.8873 54.0382L41.082 64.6996L51.0624 61.582C50.9537 61.3225 50.9078 61.0413 50.9283 60.7609C50.9597 60.3244 51.1482 59.9138 51.4593 59.6043C51.7703 59.2949 52.183 59.1074 52.6218 59.0762C53.0605 59.0451 53.4958 59.1723 53.8479 59.4346C54.2 59.6969 54.4453 60.0767 54.5387 60.5043L59.3664 58.9956L62.8067 47.2129L43.5346 53.2992ZM54.6238 58.0487C54.3881 58.0329 54.1624 57.9479 53.9753 57.8045C53.7881 57.661 53.648 57.4655 53.5725 57.2428C53.4971 57.02 53.4898 56.78 53.5515 56.5531C53.6132 56.3262 53.7411 56.1226 53.9192 55.9681C54.0972 55.8136 54.3173 55.7151 54.5517 55.6851C54.786 55.6551 55.024 55.6949 55.2355 55.7996C55.4471 55.9042 55.6227 56.0689 55.7401 56.2729C55.8575 56.4769 55.9115 56.7109 55.8952 56.9454C55.874 57.2577 55.7295 57.549 55.4933 57.7557C55.257 57.9624 54.9482 58.0677 54.6341 58.0487H54.6238Z" fill="#4E97DE"/>
<path d="M70.6232 37.6571L42.7299 21.4303C42.2788 21.1628 41.7439 21.0713 41.229 21.1737C41.3512 21.2185 41.4693 21.2734 41.5823 21.3379L69.4756 37.5802C69.6102 37.6582 69.7163 37.7769 69.7784 37.919C69.8406 38.0612 69.8556 38.2193 69.8212 38.3705L68.5679 43.9103C68.5146 44.1473 68.4017 44.367 68.2398 44.5488C68.0778 44.7305 67.8722 44.8684 67.642 44.9495L65.0992 45.8475L65.4706 45.9194L61.9478 59.7753C61.792 60.3903 61.4876 60.9581 61.0611 61.4294C60.6346 61.9007 60.0989 62.2613 59.5005 62.4798L40.4888 69.4437C40.2494 69.5319 39.9999 69.5905 39.7461 69.6181C40.3716 69.7754 41.0301 69.7423 41.6364 69.5232L60.6403 62.5644C61.2385 62.3456 61.774 61.9849 62.2005 61.5136C62.6269 61.0424 62.9315 60.4748 63.0877 59.86L66.6105 46.004L66.2391 45.9348L68.7819 45.0367C69.0115 44.9548 69.2167 44.8167 69.3786 44.635C69.5404 44.4534 69.6536 44.2342 69.7077 43.9975L70.9611 38.4577C70.9977 38.3059 70.9847 38.1463 70.9239 38.0024C70.8632 37.8584 70.7578 37.7375 70.6232 37.6571Z" fill="#96E3FF"/>
<path d="M69.7153 43.9896L70.7056 39.6275C70.6494 39.5547 70.5793 39.4936 70.4992 39.4479L42.6059 23.2108C42.1398 22.9372 41.586 22.8518 41.0585 22.9722L13.534 29.1791C13.3639 29.2173 13.2057 29.2961 13.0732 29.4088C12.9406 29.5215 12.8376 29.6646 12.7732 29.8258L12.6365 34.2083C12.6284 34.4478 12.6843 34.6851 12.7985 34.8961C12.9127 35.107 13.081 35.2841 13.2864 35.4092L14.4727 36.1302L14.55 38.0469C15.1561 38.4036 15.5223 39.158 15.6151 39.8816C15.7286 40.7668 15.5584 41.6777 15.6306 42.5578C15.7028 43.4379 16.118 44.413 16.9613 44.7209C18.9007 45.4291 20.5305 42.196 22.5395 42.6681C24.631 43.1813 24.2648 46.9122 26.3176 47.5613C27.2279 47.8487 28.2105 47.3484 29.1544 47.4459C30.0982 47.5434 30.8925 48.2285 31.398 49.0265C31.9035 49.8245 32.1717 50.7482 32.4889 51.636C32.9814 52.9959 33.6442 54.343 34.7274 55.3053C35.8105 56.2675 37.3914 56.7807 38.7607 56.2931C40.0502 55.8261 41.2958 54.515 42.5698 55.0538C43.6013 55.4977 43.8257 56.9115 44.6922 57.6402C45.7238 58.5024 47.3639 58.1047 48.3594 57.204C49.3549 56.3034 49.9067 55.0333 50.6108 53.894C51.3148 52.7547 52.3077 51.6411 53.6384 51.4384C54.9691 51.2357 56.3179 52.0363 57.6924 52.0773C59.2785 52.1235 60.6994 51.169 61.9915 50.2556L66.306 47.2124L66.618 45.9859L66.2466 45.9166L68.7894 45.0185C69.0178 44.9376 69.2222 44.801 69.3839 44.6213C69.5456 44.4415 69.6595 44.2244 69.7153 43.9896Z" fill="#315A8C"/>
<path d="M70.623 37.6578L42.7297 21.431C42.2629 21.1593 41.7095 21.0748 41.1823 21.1949L13.6681 27.4019C13.4357 27.4545 13.2274 27.5823 13.0758 27.7652C12.9241 27.9481 12.8377 28.1759 12.8299 28.4128L12.6365 34.2092C12.6284 34.4487 12.6843 34.686 12.7985 34.897C12.9127 35.1079 13.081 35.285 13.2864 35.4101L14.4727 36.1311V36.167C15.2025 36.4621 15.6358 37.3037 15.7389 38.1017C15.8524 38.9895 15.6796 39.8979 15.7544 40.7805C15.8292 41.6632 16.2418 42.6357 17.0851 42.941C19.0244 43.6492 20.6543 40.4187 22.6607 40.8883C24.7548 41.4015 24.3885 45.1323 26.4413 45.7789C27.3517 46.0663 28.3343 45.5685 29.2781 45.666C30.222 45.7635 31.0189 46.4358 31.5218 47.2466C32.0247 48.0575 32.2954 48.9684 32.6152 49.8562C33.1078 51.2161 33.768 52.5632 34.8537 53.5254C35.9394 54.4876 37.5177 55.0008 38.8845 54.5107C40.174 54.0463 41.4222 52.7326 42.6936 53.274C43.738 53.7179 43.9495 55.1317 44.8186 55.8578C45.8501 56.72 47.4903 56.3248 48.4858 55.4242C49.4812 54.5236 50.0331 53.2534 50.7371 52.1116C51.4412 50.9698 52.4341 49.8587 53.7648 49.6586C55.0955 49.4585 56.4442 50.2539 57.8188 50.2949C59.4048 50.3411 60.8232 49.3892 62.1178 48.4757L66.4323 45.4428C66.6611 45.5158 66.8946 45.5732 67.1312 45.6147L68.7894 45.0297C69.0191 44.9478 69.2243 44.8097 69.3861 44.628C69.5479 44.4464 69.6611 44.2271 69.7153 43.9905L70.9686 38.4507C71.0027 38.2992 70.9877 38.1408 70.9256 37.9983C70.8635 37.8558 70.7575 37.7366 70.623 37.6578Z" fill="#BDE8FF"/>
<path d="M61.2772 43.4092C61.3187 42.8196 60.7496 42.2998 60.0061 42.248C59.2627 42.1962 58.6263 42.6321 58.5849 43.2216C58.5434 43.8112 59.1125 44.331 59.856 44.3828C60.5994 44.4346 61.2358 43.9987 61.2772 43.4092Z" fill="#9ECAFF"/>
<path d="M42.3886 45.7979C42.4293 45.2098 41.8611 44.6918 41.1193 44.6409C40.3776 44.5901 39.7433 45.0257 39.7026 45.6138C39.6619 46.2019 40.2302 46.7199 40.9719 46.7707C41.7136 46.8216 42.3479 46.386 42.3886 45.7979Z" fill="#9ECAFF"/>
<path d="M57.6095 41.3875C57.6329 41.0496 57.3063 40.7521 56.88 40.7228C56.4537 40.6936 56.0892 40.9439 56.0658 41.2818C56.0424 41.6196 56.369 41.9172 56.7953 41.9464C57.2216 41.9757 57.5861 41.7254 57.6095 41.3875Z" fill="#9ECAFF"/>
<path d="M15.3673 27.2282C15.2046 27.1586 15.0225 27.1461 14.8516 27.1927L15.3673 27.2282Z" fill="#9ECAFF"/>
<path d="M69.7153 43.9902L70.9686 38.4504C71.0027 38.2989 70.9877 38.1405 70.9256 37.998C70.8635 37.8555 70.7575 37.7363 70.623 37.6575L70.0273 37.3111L69.9448 37.2906C70.0891 37.3496 70.2167 37.443 70.3162 37.5625C70.4157 37.6821 70.4842 37.8242 70.5155 37.9763C70.5469 38.1284 70.5401 38.2858 70.4959 38.4347C70.4517 38.5836 70.3714 38.7194 70.262 38.8302C69.8571 39.2458 69.0808 39.2792 68.5161 39.1355C68.5402 39.5214 68.4316 39.904 68.208 40.2202C67.9844 40.5365 67.6592 40.7675 67.2859 40.8752C66.471 41.0856 65.6096 40.6596 64.7767 40.7854C63.8895 40.9214 63.2113 41.6604 62.8064 42.4558C62.4015 43.2512 62.1952 44.1365 61.8058 44.9396C61.4164 45.7427 60.7742 46.5048 59.9025 46.6972C58.9406 46.9076 57.9348 46.3508 57.3675 45.5503C56.8001 44.7497 56.5938 43.7541 56.4881 42.7842C55.8321 43.5272 54.9842 44.0773 54.0364 44.375C53.0885 44.6726 52.0769 44.7064 51.1111 44.4726C51.5005 45.3322 50.8094 46.3637 49.9274 46.7075C49.0454 47.0513 48.0577 46.9102 47.1164 46.7947C46.1751 46.6793 45.1641 46.6126 44.3389 47.0744C43.5137 47.5363 43.0495 48.4215 42.2577 48.9296C40.7413 49.9098 38.5854 49.0681 37.5332 47.6056C36.481 46.143 36.2437 44.2699 36.04 42.4737C35.4701 42.7133 34.8448 42.792 34.2329 42.701C33.621 42.6101 33.0461 42.3531 32.5715 41.9582C32.0968 41.5634 31.7407 41.046 31.5423 40.4629C31.344 39.8798 31.311 39.2536 31.447 38.6531C30.3664 39.1894 29.0873 38.5582 28.0944 37.8833C27.1015 37.2085 25.9823 36.4233 24.7986 36.662C23.6149 36.9006 22.7716 38.0732 21.593 38.0578C20.6956 38.0424 19.9503 37.306 19.6047 36.4849C19.2591 35.6638 19.2153 34.7504 19.0889 33.8677C18.9625 32.985 18.7098 32.0715 18.0574 31.448C17.4049 30.8245 16.5977 30.6449 15.8163 30.337C15.0349 30.0291 14.2251 29.5262 14.0111 28.7179C13.9422 28.4043 13.9907 28.0765 14.1473 27.7959C14.304 27.5154 14.5581 27.3012 14.8621 27.1937L14.6635 27.1758L13.6603 27.4016C13.428 27.4542 13.2197 27.582 13.068 27.7649C12.9164 27.9478 12.8299 28.1756 12.8222 28.4126L12.6365 34.2089C12.6284 34.4484 12.6843 34.6857 12.7985 34.8967C12.9127 35.1076 13.081 35.2847 13.2864 35.4098L14.4727 36.1308V36.1667C15.2025 36.4618 15.6358 37.3034 15.7389 38.1014C15.8524 38.9892 15.6796 39.8976 15.7544 40.7802C15.8292 41.6629 16.2418 42.6354 17.0851 42.9407C19.0244 43.6489 20.6543 40.4185 22.6607 40.888C24.7548 41.4012 24.3885 45.132 26.4413 45.7786C27.3517 46.066 28.3343 45.5682 29.2781 45.6657C30.222 45.7632 31.0189 46.4355 31.5218 47.2463C32.0247 48.0572 32.2954 48.9681 32.6152 49.8559C33.1078 51.2158 33.768 52.5629 34.8537 53.5251C35.9394 54.4873 37.5177 55.0005 38.8845 54.5104C40.174 54.046 41.4222 52.7323 42.6936 53.2737C43.738 53.7176 43.9495 55.1314 44.8186 55.8575C45.8501 56.7197 47.4903 56.3245 48.4858 55.4239C49.4812 54.5233 50.0331 53.2531 50.7371 52.1113C51.4412 50.9695 52.4341 49.8584 53.7648 49.6583C55.0955 49.4582 56.4442 50.2536 57.8188 50.2946C59.4048 50.3408 60.8232 49.3889 62.1178 48.4754L66.4323 45.4425C66.6611 45.5155 66.8946 45.5729 67.1312 45.6144L68.7894 45.0294C69.0191 44.9475 69.2243 44.8094 69.3861 44.6277C69.5479 44.4461 69.6611 44.2269 69.7153 43.9902Z" fill="#9ECAFF"/>
<path d="M39.2293 44.4755C39.3429 42.8614 37.8346 41.4414 35.8606 41.3039C33.8865 41.1665 32.1942 42.3635 32.0806 43.9776C31.9671 45.5917 33.4753 47.0116 35.4494 47.1491C37.4234 47.2866 39.1158 46.0896 39.2293 44.4755Z" fill="#9ECAFF"/>
<path d="M45.2801 52.6292C45.191 52.7963 45.1402 52.981 45.1313 53.17C45.1224 53.3589 45.1556 53.5475 45.2285 53.7222C45.302 53.8421 45.4007 53.9447 45.5178 54.0231C45.6348 54.1014 45.7675 54.1538 45.9068 54.1764C46.1846 54.2196 46.4681 54.21 46.7423 54.1482C47.4191 54.0447 48.0523 53.752 48.5682 53.304C48.8216 53.0768 49.0128 52.7892 49.1238 52.4683C49.2347 52.1474 49.2619 51.8036 49.2026 51.4694C49.1234 51.1386 48.9312 50.8454 48.6589 50.64C48.3865 50.4345 48.0509 50.3295 47.7094 50.3429C47.057 50.4045 46.3297 51.0896 45.9326 51.5669C45.6609 51.8851 45.4407 52.2435 45.2801 52.6292Z" fill="#BDE8FF"/>
<path d="M38.0429 52.3448C38.0836 51.7566 37.5154 51.2387 36.7736 51.1878C36.0319 51.137 35.3976 51.5726 35.3569 52.1607C35.3162 52.7488 35.8845 53.2668 36.6262 53.3176C37.3679 53.3684 38.0022 52.9329 38.0429 52.3448Z" fill="#BDE8FF"/>
<path d="M65.2072 36.8079L43.9983 43.6871L19.7051 28.9434L41.3188 23.75L65.2072 36.8079Z" fill="#315A8C"/>
<path d="M39.5316 40.975L41.3188 23.75L19.7051 28.9434L39.5316 40.975Z" fill="#9ECAFF"/>
<path d="M25.07 36.5431C25.1354 35.5987 24.2531 34.7691 23.0993 34.69C21.9455 34.6109 20.9572 35.3124 20.8918 36.2568C20.8264 37.2012 21.7088 38.0309 22.8626 38.11C24.0163 38.189 25.0047 37.4875 25.07 36.5431Z" fill="#F05B5B"/>
<path d="M65.483 43.1001C66.2735 43.1001 66.9143 42.4625 66.9143 41.676C66.9143 40.8895 66.2735 40.252 65.483 40.252C64.6926 40.252 64.0518 40.8895 64.0518 41.676C64.0518 42.4625 64.6926 43.1001 65.483 43.1001Z" fill="#6BC251"/>
<path d="M40.5534 51.2593C41.3438 51.2593 41.9846 50.6217 41.9846 49.8352C41.9846 49.0487 41.3438 48.4111 40.5534 48.4111C39.7629 48.4111 39.1221 49.0487 39.1221 49.8352C39.1221 50.6217 39.7629 51.2593 40.5534 51.2593Z" fill="#6BC251"/>
<path d="M61.1203 53.9974C61.7142 53.9974 62.1957 53.5183 62.1957 52.9274C62.1957 52.3365 61.7142 51.8574 61.1203 51.8574C60.5264 51.8574 60.0449 52.3365 60.0449 52.9274C60.0449 53.5183 60.5264 53.9974 61.1203 53.9974Z" fill="#96E3FF"/>
<path d="M58.4298 55.1367C58.7702 55.1367 59.0462 54.8621 59.0462 54.5234C59.0462 54.1847 58.7702 53.9102 58.4298 53.9102C58.0894 53.9102 57.8135 54.1847 57.8135 54.5234C57.8135 54.8621 58.0894 55.1367 58.4298 55.1367Z" fill="#96E3FF"/>
<path d="M45.1311 62.2494C45.8874 62.2494 46.5005 61.6394 46.5005 60.8869C46.5005 60.1344 45.8874 59.5244 45.1311 59.5244C44.3748 59.5244 43.7617 60.1344 43.7617 60.8869C43.7617 61.6394 44.3748 62.2494 45.1311 62.2494Z" fill="#3A6CA8"/>
<path d="M36.9145 59.786C37.2934 59.786 37.6005 59.4804 37.6005 59.1034C37.6005 58.7265 37.2934 58.4209 36.9145 58.4209C36.5356 58.4209 36.2285 58.7265 36.2285 59.1034C36.2285 59.4804 36.5356 59.786 36.9145 59.786Z" fill="#4E97DE"/>
<path d="M21.9516 51.9285C22.3305 51.9285 22.6376 51.623 22.6376 51.246C22.6376 50.8691 22.3305 50.5635 21.9516 50.5635C21.5728 50.5635 21.2656 50.8691 21.2656 51.246C21.2656 51.623 21.5728 51.9285 21.9516 51.9285Z" fill="#4E97DE"/>
<path d="M28.6743 52.0448C29.0531 52.0448 29.3603 51.7392 29.3603 51.3622C29.3603 50.9853 29.0531 50.6797 28.6743 50.6797C28.2954 50.6797 27.9883 50.9853 27.9883 51.3622C27.9883 51.7392 28.2954 52.0448 28.6743 52.0448Z" fill="#4E97DE"/>
<path d="M37.2397 44.4927C37.3208 43.3221 36.2254 42.2936 34.7931 42.1954C33.3608 42.0973 32.134 42.9667 32.053 44.1373C31.9719 45.3079 33.0673 46.3364 34.4996 46.4346C35.9319 46.5327 37.1587 45.6633 37.2397 44.4927Z" fill="#EB5BD3"/>
<path d="M58.029 45.0969C58.0944 44.1525 57.2121 43.3228 56.0583 43.2437C54.9045 43.1646 53.9162 43.8661 53.8508 44.8105C53.7854 45.7549 54.6677 46.5846 55.8215 46.6637C56.9753 46.7427 57.9636 46.0413 58.029 45.0969Z" fill="#F09966"/>
<path d="M42.4719 42.761L23.5557 31.2812C23.6412 30.1038 23.8938 28.9445 24.3061 27.8377C24.8737 26.338 25.8302 25.0145 27.0784 24.0017C29.3272 22.167 31.3027 20.2939 35.7049 20.5146C37.768 20.6198 39.9394 21.5204 42.6962 23.0985C43.9274 23.8436 44.9486 24.8871 45.6646 26.1314C45.8528 26.447 46.0256 26.7703 46.1803 27.1039C46.4382 27.6478 46.6961 28.1969 46.954 28.746C47.4489 29.8295 47.76 30.987 47.8747 32.1715C48.2847 36.7927 45.4918 40.5852 42.4719 42.761Z" fill="#FFB95E"/>
<path d="M47.8775 32.1709C47.7913 31.2604 47.5858 30.365 47.2663 29.5075C47.1632 29.4459 47.0548 29.3869 46.9465 29.333C47.2693 30.1141 47.2857 30.9872 46.9925 31.7798C46.6993 32.5723 46.1178 33.2265 45.3631 33.6129C44.6178 33.9619 43.7074 34.0543 43.1659 34.6675C42.6243 35.2808 42.6501 36.184 42.3329 36.9332C41.7784 38.2649 40.1976 38.9398 38.7482 38.8885C37.2989 38.8371 35.9372 38.2085 34.622 37.5927L32.7781 36.728C32.4033 36.5569 32.0293 36.3799 31.6562 36.1968L42.4696 42.7604C45.492 40.5845 48.285 36.7921 47.8775 32.1709Z" fill="#D9724C"/>
<path d="M26.9336 33.1C26.2192 32.1891 25.8376 30.9472 26.2038 29.8516C26.6009 28.661 27.7717 27.8527 28.1663 26.6621C28.3649 26.0668 28.3494 25.4228 28.4629 24.8044C28.6432 23.8953 29.0886 23.0591 29.7436 22.4002C30.3985 21.7413 31.2339 21.2888 32.1455 21.0992C32.0321 21.0582 31.916 21.0197 31.8026 20.9863C29.8658 21.6278 28.5325 22.8364 27.078 24.0013C25.826 25.0128 24.8659 26.3364 24.2954 27.8373C23.8831 28.9441 23.6304 30.1035 23.5449 31.2808L27.3952 33.6157C27.2296 33.4546 27.0753 33.2823 26.9336 33.1Z" fill="#D9724C"/>
<path d="M47.2975 33.2623C47.1828 32.0785 46.8717 30.9219 46.3768 29.8394C46.1189 29.2877 45.861 28.7412 45.6031 28.1946C44.814 26.5242 43.6096 25.0437 42.1165 24.1892C39.3596 22.6138 37.1985 21.7106 35.1251 21.6054C30.7203 21.3847 28.7449 23.2604 26.4986 25.0924C25.7094 25.7318 25.0338 26.4986 24.5 27.3607C25.0803 26.0538 25.9642 24.9026 27.0789 24.0019C29.3277 22.1673 31.3031 20.2942 35.7079 20.5148C37.771 20.62 39.9399 21.5232 42.6967 23.0987C44.1925 23.9532 45.3968 25.4337 46.1834 27.1041C46.4413 27.6506 46.6992 28.1972 46.9441 28.7463C47.6748 30.315 47.9993 32.0408 47.8881 33.7662C47.7768 35.4917 47.2333 37.1621 46.3072 38.625C47.1117 36.9572 47.4536 35.1057 47.2975 33.2623Z" fill="#FFEA5E"/>
<path d="M31.7359 32.2139C32.4083 31.6554 32.5212 30.6876 31.9881 30.0523C31.455 29.417 30.4777 29.3548 29.8053 29.9134C29.133 30.472 29.0201 31.4398 29.5532 32.0751C30.0863 32.7103 31.0635 32.7725 31.7359 32.2139Z" fill="#78422F"/>
<path d="M40.9902 28.0915C41.8025 27.4166 41.9386 26.247 41.2941 25.479C40.6497 24.711 39.4687 24.6355 38.6564 25.3103C37.8441 25.9852 37.708 27.1548 38.3525 27.9228C38.9969 28.6908 40.1779 28.7663 40.9902 28.0915Z" fill="#78422F"/>
<path d="M41.4859 36.0536C42.1604 35.4958 42.2756 34.5271 41.7433 33.8898C41.2109 33.2526 40.2326 33.1881 39.5582 33.7459C38.8837 34.3037 38.7685 35.2724 39.3008 35.9097C39.8331 36.5469 40.8115 36.6114 41.4859 36.0536Z" fill="#78422F"/>
<path d="M35.4503 32.0556C35.868 31.7087 35.9379 31.1073 35.6065 30.7125C35.2752 30.3176 34.668 30.2787 34.2503 30.6257C33.8327 30.9726 33.7628 31.574 34.0941 31.9689C34.4255 32.3638 35.0327 32.4026 35.4503 32.0556Z" fill="#78422F"/>
<path d="M45.6688 34.4985C45.8776 34.325 45.913 34.0248 45.7478 33.8279C45.5825 33.631 45.2793 33.612 45.0705 33.7855C44.8617 33.959 44.8263 34.2592 44.9915 34.4561C45.1568 34.653 45.46 34.672 45.6688 34.4985Z" fill="#78422F"/>
<path d="M36.1388 35.9072C36.5564 35.5603 36.6264 34.9589 36.295 34.564C35.9637 34.1692 35.3565 34.1303 34.9388 34.4773C34.5212 34.8242 34.4512 35.4256 34.7826 35.8204C35.114 36.2153 35.7212 36.2542 36.1388 35.9072Z" fill="#78422F"/>
<path d="M43.0792 39.7099C43.4969 39.363 43.5668 38.7616 43.2354 38.3668C42.9041 37.9719 42.2969 37.933 41.8793 38.28C41.4616 38.6269 41.3917 39.2283 41.723 39.6232C42.0544 40.018 42.6616 40.0569 43.0792 39.7099Z" fill="#78422F"/>
<path d="M44.5855 29.6497C44.8567 29.4245 44.9018 29.0338 44.6864 28.7771C44.471 28.5204 44.0765 28.4948 43.8054 28.7201C43.5343 28.9453 43.4891 29.336 43.7045 29.5928C43.92 29.8495 44.3144 29.875 44.5855 29.6497Z" fill="#78422F"/>
<path d="M31.399 26.5609C31.6702 26.3356 31.7153 25.9449 31.4999 25.6882C31.2845 25.4315 30.89 25.406 30.6189 25.6312C30.3477 25.8565 30.3026 26.2472 30.518 26.5039C30.7334 26.7606 31.1279 26.7861 31.399 26.5609Z" fill="#78422F"/>
<path d="M23.5557 31.2812C23.6412 30.1038 23.8938 28.9445 24.3061 27.8377C24.8737 26.338 25.8302 25.0145 27.0784 24.0017C29.3272 22.167 31.3027 20.2939 35.7049 20.5146C37.768 20.6198 39.9394 21.5204 42.6962 23.0985C43.9274 23.8436 44.9486 24.8871 45.6646 26.1314C45.8528 26.447 46.0256 26.7703 46.1803 27.1039C46.4382 27.6478 46.6961 28.1969 46.954 28.746C47.4489 29.8295 47.76 30.987 47.8747 32.1715C48.2821 36.7902 45.4892 40.5852 42.459 42.7611" stroke="#9C4528" stroke-width="4" stroke-linecap="round" stroke-linejoin="round"/>
<path d="M35.0733 23.5626C35.5323 23.6216 35.4111 24.2733 34.9443 24.3323C34.2093 24.4375 34.3666 23.4727 35.0733 23.5626Z" fill="#78422F"/>
<path d="M42.4719 42.7611L23.5557 31.2812" stroke="#315A8C" stroke-width="4" stroke-linecap="round" stroke-linejoin="round"/>
<path d="M55.6426 30.4192C55.8449 28.1772 56.5986 26.0191 57.8372 24.1353C58.0255 23.8479 58.2885 23.5374 58.6315 23.5554C58.9745 23.5734 59.204 23.9069 59.3613 24.2123C59.987 25.445 60.3455 26.7947 60.4135 28.1741C62.0353 25.0696 64.5915 22.547 67.7247 20.9587C68.158 20.7406 68.666 20.5379 69.1147 20.7252C69.2975 20.8147 69.454 20.9496 69.5692 21.1168C69.6844 21.284 69.7543 21.4778 69.7724 21.6797C69.8062 22.0832 69.7606 22.4893 69.6383 22.8754C68.8498 25.9311 67.3577 28.7624 65.2799 31.1454L67.6009 30.8452C68.1167 30.7759 68.7743 30.7605 69.058 31.207C69.134 31.3473 69.1726 31.5047 69.1704 31.6641C69.1681 31.8235 69.125 31.9797 69.0451 32.1179C68.8822 32.392 68.6697 32.6339 68.4184 32.8312C66.8317 34.2202 65.0722 35.4007 63.1833 36.3439C61.0634 34.0038 58.4794 31.8176 55.6426 30.4192Z" fill="#6DD44F"/>
<path d="M64.3179 35.3379C63.4101 34.6245 62.7938 33.706 62.064 32.8079C61.2638 31.8088 60.2403 31.0093 59.075 30.4729C58.077 30.0375 57.1057 29.544 56.166 28.9949C56.2656 28.421 56.4824 27.8734 56.803 27.3861C56.9665 27.1447 57.1905 26.95 57.4528 26.8213C57.7152 26.6926 58.0068 26.6343 58.2988 26.6523C58.4828 26.6779 58.6589 26.7436 58.8145 26.8447C59.0291 27.0044 59.2027 27.2121 59.3215 27.4511C59.4402 27.69 59.5007 27.9535 59.498 28.22C59.4854 28.7537 59.3879 29.282 59.2091 29.7852C61.1243 27.6251 63.3729 25.7819 65.8704 24.325C66.2985 24.0684 66.8736 23.8452 67.2501 24.1685C67.6266 24.4918 67.4848 25.0973 67.2914 25.5566C66.2061 28.1579 64.6532 30.5404 62.7087 32.5872L64.2844 32.7309C64.4593 32.7406 64.6324 32.7707 64.8002 32.8207C65.0416 32.9057 65.2447 33.0736 65.3728 33.2942C65.5009 33.5149 65.5457 33.7738 65.4991 34.0243C65.4524 34.2749 65.3175 34.5007 65.1184 34.661C64.9194 34.8214 64.6694 34.9058 64.4133 34.8991" fill="#4D9139"/>
<path d="M60.1164 29.9448C58.8266 29.2177 57.3892 28.788 55.9102 28.6875C55.7869 29.2587 55.7008 29.8372 55.6523 30.4195C58.4891 31.823 61.068 34.0118 63.1982 36.3442C63.8859 36.0021 64.5513 35.6283 65.1943 35.2229C63.9409 33.0752 62.2724 31.1636 60.1164 29.9448Z" fill="#9C4528"/>
<path d="M64.583 36.8418C64.5675 36.9034 64.5494 36.965 64.5314 37.0266L43.9982 43.6979L40.8906 41.812C40.9168 41.7565 40.946 41.7025 40.9783 41.6503L45.4914 34.5402C46.6467 32.7158 47.8665 30.8325 49.7053 29.6906C50.1178 29.4354 50.556 29.2239 51.0128 29.0594C53.4499 28.1639 56.3382 28.5462 58.6283 29.8523C61.1814 31.2969 63.0563 33.7011 64.3457 36.3466C64.4257 36.5057 64.5082 36.6725 64.583 36.8418Z" fill="#FFB53D"/>
<path d="M62.0069 37.3982C62.0069 37.4443 61.9837 37.4931 61.9682 37.5418L46.1467 42.6737L43.0107 43.3254C43.0314 43.2818 43.7844 41.1341 43.8205 41.0956L47.2969 35.6174C48.1866 34.2113 49.1279 32.759 50.5437 31.8814C50.8611 31.6848 51.1982 31.5214 51.5495 31.3939C53.4295 30.7037 55.6551 31.0065 57.419 32.0046C59.3867 33.1182 60.8309 34.9785 61.8238 37.0107C61.8934 37.139 61.9476 37.2673 62.0069 37.3982Z" fill="#FF853D"/>
<path d="M52.0029 37.093C51.8407 36.9783 51.6602 36.8916 51.4691 36.8364C51.3689 36.8009 51.2605 36.7951 51.157 36.8195C51.0535 36.8439 50.9592 36.8976 50.8857 36.974C50.8121 37.0505 50.7623 37.1465 50.7423 37.2504C50.7223 37.3544 50.7329 37.4619 50.7728 37.56C50.8421 37.7667 50.9478 37.9596 51.0848 38.1296L52.6631 40.3337C52.73 40.4454 52.8287 40.5347 52.9468 40.5903C53.0623 40.6163 53.1828 40.61 53.295 40.5724C53.7643 40.4595 55.2343 40.3697 55.1157 39.5973C55.0615 39.2509 54.5638 38.9764 54.3136 38.7737C53.9595 38.4863 53.5984 38.2083 53.2305 37.9397C53.0938 37.8371 51.9952 37.2059 52.0029 37.093Z" fill="#BF532C"/>
<path d="M43.8412 37.3848C44.7205 37.8465 45.4248 38.5806 45.8475 39.476C45.8826 39.5589 45.8951 39.6496 45.8838 39.7389C45.8726 39.8282 45.8379 39.913 45.7833 39.9847C45.7287 40.0564 45.6561 40.1126 45.5727 40.1477C45.4894 40.1827 45.3983 40.1953 45.3085 40.1842L42.2139 39.712C42.3067 38.7447 43.0469 37.9441 43.8412 37.3848Z" fill="#BF532C"/>
<path d="M52.3823 32.1866C52.4938 32.2798 52.5821 32.3975 52.6402 32.5304C52.6696 32.5972 52.6778 32.6714 52.6635 32.743C52.6492 32.8146 52.6131 32.8801 52.5603 32.9307C52.4981 32.9678 52.4292 32.9922 52.3574 33.0023C52.2856 33.0125 52.2125 33.0082 52.1425 32.9897L47.1162 32.3482C47.1162 32.3482 47.4773 31.6349 47.5185 31.5784C47.6958 31.321 47.9026 31.0851 48.1349 30.8754C48.4521 30.5829 48.7848 30.3134 49.2386 30.3622C50.363 30.4648 51.6035 31.4373 52.3823 32.1866Z" fill="#BF532C"/>
<path d="M58.5752 31.7505C58.8008 31.0625 58.002 30.1861 56.791 29.7929C55.58 29.3998 54.4154 29.6387 54.1898 30.3266C53.9642 31.0146 54.763 31.891 55.974 32.2842C57.185 32.6774 58.3496 32.4384 58.5752 31.7505Z" fill="#FFDF61"/>
<path d="M56.9461 34.5684C57.0696 34.1941 56.6354 33.7162 55.9764 33.501C55.3173 33.2858 54.683 33.4147 54.5595 33.789C54.436 34.1634 54.8702 34.6413 55.5292 34.8565C56.1883 35.0717 56.8226 34.9427 56.9461 34.5684Z" fill="#FFDF61"/>
<path d="M64.5832 36.8417C64.5084 36.6724 64.4259 36.5056 64.3459 36.3285C64.266 36.1515 64.186 36.0103 64.1035 35.8513C65.6433 34.9974 67.0871 33.9824 68.4103 32.8235C68.6615 32.6262 68.874 32.3843 69.0369 32.1102C69.1168 31.972 69.1599 31.8158 69.1622 31.6564C69.1644 31.497 69.1258 31.3396 69.0498 31.1993C68.7661 30.7528 68.1188 30.7682 67.5927 30.8375L65.2717 31.1377C67.3485 28.7569 68.8405 25.9284 69.6301 22.8754C69.7524 22.4893 69.798 22.0832 69.7642 21.6797C69.7469 21.4786 69.6781 21.2853 69.5643 21.1181C69.4506 20.951 69.2956 20.8157 69.1143 20.7252C68.6656 20.5379 68.1575 20.7406 67.7243 20.9587C64.591 22.547 62.0348 25.0696 60.4131 28.1741C60.3451 26.7947 59.9866 25.445 59.3609 24.2123C59.2036 23.9069 58.9741 23.5708 58.6311 23.5554C58.2881 23.54 58.025 23.8479 57.8368 24.1353C56.9033 25.5554 56.2423 27.1353 55.8871 28.795C54.2712 28.4145 52.5795 28.5036 51.013 29.0516C50.5562 29.216 50.118 29.4276 49.7055 29.6828C47.8668 30.8246 46.6469 32.708 45.4916 34.5324L40.9785 41.6425" stroke="#9C4528" stroke-width="4" stroke-linecap="round" stroke-linejoin="round"/>
<path d="M40.8906 41.8012L43.9982 43.6872L64.5314 37.0158C64.5494 36.9542 64.5675 36.8926 64.583 36.8311" stroke="#315A8C" stroke-width="4" stroke-linecap="round" stroke-linejoin="round"/>
<path d="M70.623 37.6576L65.7799 34.8351C66.7011 34.2249 67.5799 33.5537 68.4103 32.8259C68.6616 32.6286 68.8741 32.3868 69.037 32.1126C69.1169 31.9744 69.16 31.8182 69.1623 31.6588C69.1645 31.4994 69.1258 31.3421 69.0499 31.2017C68.7662 30.7553 68.1189 30.7707 67.5928 30.8399L65.2718 31.1401C67.3489 28.7586 68.841 25.9292 69.6302 22.8753C69.7525 22.4892 69.7981 22.0831 69.7643 21.6796C69.747 21.4785 69.6782 21.2852 69.5644 21.118C69.4506 20.9509 69.2957 20.8156 69.1144 20.7251C68.6656 20.5378 68.1576 20.7405 67.7243 20.9586C64.5911 22.5469 62.0349 25.0695 60.4132 28.174C60.3451 26.7946 59.9867 25.4449 59.361 24.2122C59.2037 23.9068 58.9741 23.5707 58.6312 23.5553C58.2882 23.5399 58.0251 23.8478 57.8369 24.1352C56.9034 25.5553 56.2423 27.1352 55.8872 28.7949C55.6474 28.741 55.4049 28.7 55.1625 28.664L42.7297 21.4307C42.2629 21.159 41.7095 21.0746 41.1823 21.1947L39.6556 21.5539C38.4151 20.9781 37.0801 20.6304 35.7151 20.5275C31.3129 20.3069 29.3375 22.18 27.0887 24.0146C26.8927 24.1763 26.707 24.343 26.529 24.5124L13.6681 27.4016C13.4357 27.4542 13.2274 27.582 13.0758 27.7649C12.9241 27.9478 12.8377 28.1756 12.8299 28.4126L12.6365 34.209C12.6284 34.4484 12.6843 34.6857 12.7985 34.8967C12.9127 35.1077 13.081 35.2847 13.2864 35.4098L14.4727 36.1308L15.1251 52.2961C15.1522 52.9247 15.3316 53.5375 15.6482 54.0821C15.9648 54.6268 16.4091 55.0872 16.9433 55.4239L38.8226 69.2208C39.237 69.4853 39.7071 69.6513 40.1963 69.7061C40.6855 69.7608 41.1809 69.7028 41.644 69.5365L60.6479 62.5777C61.246 62.3588 61.7815 61.9981 62.208 61.5269C62.6345 61.0556 62.939 60.488 63.0952 59.8732L66.618 46.0173L66.2466 45.948L68.7894 45.05C69.0191 44.9681 69.2243 44.8299 69.3861 44.6483C69.5479 44.4667 69.6611 44.2474 69.7153 44.0108L70.9686 38.471C71.0075 38.3164 70.9949 38.1535 70.9325 38.0068C70.8702 37.86 70.7616 37.7374 70.623 37.6576Z" stroke="#5C2929" stroke-width="4" stroke-linecap="round" stroke-linejoin="round"/>
<path d="M57.0399 25.513C56.8263 25.9399 56.6353 26.3776 56.4674 26.8242C56.3977 27.009 56.3333 27.1963 56.2714 27.381C56.1174 27.8449 55.9891 28.3169 55.8871 28.7948C55.6473 28.741 55.4074 28.6999 55.165 28.664L53.0323 27.4246L50.5926 19.537L49.7235 16.7145C49.607 16.3576 49.3657 16.0542 49.0435 15.8593C48.7212 15.6643 48.3394 15.5909 47.9673 15.6522L17.8432 20.6943C17.745 20.7109 17.6517 20.7487 17.5697 20.805C17.4877 20.8612 17.4191 20.9347 17.3687 21.0201C17.3163 21.1045 17.2836 21.1994 17.2729 21.298C17.2622 21.3965 17.2738 21.4962 17.3068 21.5898L18.8541 26.2289L20.9379 32.4641L24.9687 44.511C25.0613 44.7831 25.099 45.0707 25.0796 45.3573C25.0602 45.6439 24.9841 45.9239 24.8557 46.1811C24.7273 46.4384 24.549 46.6678 24.3312 46.8564C24.1134 47.0449 23.8603 47.1887 23.5864 47.2797C23.313 47.3725 23.0236 47.4101 22.7354 47.39C22.3016 47.3596 21.8866 47.2021 21.5429 46.9372C21.1991 46.6723 20.9419 46.312 20.8038 45.9018L15.1302 28.9668L14.5525 27.1988L13.1522 22.9805C12.7298 21.757 12.7991 20.4184 13.3456 19.2445L13.392 19.1393L13.4488 19.0264C13.4952 18.9392 13.5468 18.8494 13.5983 18.7698C13.9752 18.1427 14.4845 17.6045 15.0909 17.1925C15.6974 16.7805 16.3866 16.5045 17.1108 16.3835L47.2297 11.3287C48.6573 11.0912 50.1231 11.3762 51.3557 12.1309C52.5884 12.8857 53.5047 14.0591 53.9349 15.4341L57.0399 25.513Z" fill="#FFBE33"/>
<path d="M57.04 25.5126C56.8264 25.9395 56.6353 26.3771 56.4675 26.8237L53.2722 16.4882C52.8424 15.1129 51.9263 13.9391 50.6935 13.1843C49.4607 12.4295 47.9947 12.1447 46.5671 12.3828L16.461 17.4479C15.2363 17.6461 14.1275 18.2853 13.3457 19.244C13.3818 19.1671 13.4179 19.0901 13.4566 19.0157C13.4953 18.9413 13.5546 18.8386 13.6062 18.7591C13.983 18.132 14.4923 17.5938 15.0988 17.1818C15.7052 16.7697 16.3944 16.4937 17.1186 16.3728L47.2376 11.3179C48.6652 11.0804 50.1309 11.3654 51.3636 12.1202C52.5963 12.8749 53.5125 14.0484 53.9427 15.4234L57.04 25.5126Z" fill="#FAFF5C"/>
<path d="M56.2715 27.3811C56.1175 27.845 55.9893 28.317 55.8873 28.7949C55.6474 28.741 55.4076 28.7 55.1652 28.6641L53.0324 27.4247L50.5928 19.5371C50.5928 19.5371 52.1788 21.2896 53.5301 21.5667C53.8354 21.6461 54.1592 21.6115 54.4405 21.4692L56.2715 27.3811Z" fill="#DE8225"/>
<path d="M23.5346 44.9192L19.4083 32.4386C19.0375 32.6125 18.6285 32.6902 18.2194 32.6644C17.2214 32.5977 16.4142 31.8818 15.8984 31.248L20.7983 45.902C20.93 46.2908 21.1693 46.6348 21.4886 46.8944C21.8079 47.154 22.1944 47.3187 22.6036 47.3697C22.8203 47.3633 23.0349 47.3253 23.2406 47.2568C23.8434 46.9809 24.396 46.6071 24.8756 46.1509C24.1715 46.4152 23.5346 44.9192 23.5346 44.9192Z" fill="#DE8225"/>
<path d="M57.0399 25.513C56.8263 25.9399 56.6353 26.3776 56.4674 26.8242C56.3977 27.009 56.3333 27.1963 56.2714 27.381C56.1174 27.8449 55.9891 28.3169 55.8871 28.7948C55.6473 28.741 55.4074 28.6999 55.165 28.664L53.0323 27.4246L50.5926 19.537L49.7235 16.7145C49.607 16.3576 49.3657 16.0542 49.0435 15.8593C48.7212 15.6643 48.3394 15.5909 47.9673 15.6522L17.8432 20.6943C17.745 20.7109 17.6517 20.7487 17.5697 20.805C17.4877 20.8612 17.4191 20.9347 17.3687 21.0201C17.3163 21.1045 17.2836 21.1994 17.2729 21.298C17.2622 21.3965 17.2738 21.4962 17.3068 21.5898L18.8541 26.2289L20.9379 32.4641L24.9687 44.511C25.0613 44.7831 25.099 45.0707 25.0796 45.3573C25.0602 45.6439 24.9841 45.9238 24.8557 46.1811C24.7273 46.4384 24.549 46.6678 24.3312 46.8564C24.1134 47.0449 23.8603 47.1887 23.5864 47.2797C23.313 47.3725 23.0236 47.4101 22.7354 47.39C22.3016 47.3596 21.8866 47.2021 21.5429 46.9372C21.1991 46.6723 20.9419 46.312 20.8038 45.9018L15.1302 28.9668L14.5525 27.1988L13.1522 22.9805C12.7298 21.757 12.7991 20.4184 13.3456 19.2445L13.392 19.1393L13.4488 19.0264C13.4952 18.9392 13.5468 18.8494 13.5983 18.7698C13.9752 18.1427 14.4845 17.6045 15.0909 17.1925C15.6974 16.7805 16.3866 16.5045 17.1108 16.3835L47.2297 11.3287C48.6573 11.0912 50.1231 11.3762 51.3557 12.1309C52.5884 12.8857 53.5047 14.0591 53.9349 15.4341L57.0399 25.513Z" stroke="#5C2929" stroke-width="4" stroke-linecap="round" stroke-linejoin="round"/>
</g>
<defs>
<radialGradient id="paint0_radial_1_13006" cx="0" cy="0" r="1" gradientUnits="userSpaceOnUse" gradientTransform="translate(40.001 40) scale(37.67 37.4803)">
<stop offset="0.38" stop-color="#8DF5FF"/>
<stop offset="0.98" stop-color="#5C33FF"/>
</radialGradient>
<clipPath id="clip0_1_13006">
<rect width="80" height="80" rx="4" fill="white"/>
</clipPath>
</defs>
</svg>
