<svg width="42" height="42" viewBox="0 0 42 42" fill="none" xmlns="http://www.w3.org/2000/svg">
<path d="M35.262 2.88086L5.82261 2.88086C3.5758 2.88086 1.75439 4.69309 1.75439 6.92859L1.75439 36.4083C1.75439 38.6438 3.5758 40.4561 5.82261 40.4561H35.262C37.5088 40.4561 39.3302 38.6438 39.3302 36.4083V6.92859C39.3302 4.69309 37.5088 2.88086 35.262 2.88086Z" fill="url(#paint0_radial_1_17390)"/>
<path d="M35.5454 11.8745C35.9221 11.8745 36.2275 11.5706 36.2275 11.1958C36.2275 10.8209 35.9221 10.5171 35.5454 10.5171C35.1687 10.5171 34.8633 10.8209 34.8633 11.1958C34.8633 11.5706 35.1687 11.8745 35.5454 11.8745Z" fill="#F5912C"/>
<path d="M9.76294 36.7342C10.2536 36.7342 10.6514 36.3385 10.6514 35.8503C10.6514 35.3621 10.2536 34.9663 9.76294 34.9663C9.27228 34.9663 8.87451 35.3621 8.87451 35.8503C8.87451 36.3385 9.27228 36.7342 9.76294 36.7342Z" fill="#F5912C"/>
<path d="M33.5601 8.58885C33.8058 8.58885 34.005 8.39069 34.005 8.14623C34.005 7.90178 33.8058 7.70361 33.5601 7.70361C33.3144 7.70361 33.1152 7.90178 33.1152 8.14623C33.1152 8.39069 33.3144 8.58885 33.5601 8.58885Z" fill="#F5912C"/>
<path d="M6.28031 33.3164C6.526 33.3164 6.72517 33.1182 6.72517 32.8738C6.72517 32.6293 6.526 32.4312 6.28031 32.4312C6.03462 32.4312 5.83545 32.6293 5.83545 32.8738C5.83545 33.1182 6.03462 33.3164 6.28031 33.3164Z" fill="#F5912C"/>
<path d="M1 4.02136L1 37.9774C1 38.7788 1.31989 39.5474 1.88934 40.1142C2.45878 40.6811 3.23116 40.9997 4.03665 41H37.9634C38.3622 41 38.7572 40.9218 39.1257 40.7699C39.4942 40.618 39.829 40.3953 40.111 40.1146C40.393 39.8339 40.6167 39.5007 40.7692 39.134C40.9218 38.7673 41.0002 38.3742 41 37.9774V4.02136C41 3.22005 40.6801 2.45155 40.1106 1.88494C39.5411 1.31832 38.7687 1 37.9634 1L4.03665 1C3.23139 1.00034 2.4592 1.31877 1.88979 1.88531C1.32038 2.45185 1.00034 3.22015 1 4.02136ZM36.7397 38.6086H5.26163C4.76575 38.6086 4.29019 38.4126 3.93955 38.0637C3.58891 37.7148 3.39193 37.2417 3.39193 36.7483L3.39193 5.25172C3.39193 4.75834 3.58891 4.28517 3.93955 3.9363C4.29019 3.58742 4.76575 3.39143 5.26163 3.39143L36.7397 3.39143C37.2355 3.39143 37.7111 3.58742 38.0617 3.9363C38.4124 4.28517 38.6094 4.75834 38.6094 5.25172V36.7483C38.609 37.2416 38.4119 37.7145 38.0614 38.0633C37.7108 38.4121 37.2354 38.6082 36.7397 38.6086Z" fill="#FFBE33"/>
<path d="M39.383 21.0396V36.7481C39.382 37.4453 39.1032 38.1137 38.6077 38.6067C38.1122 39.0997 37.4404 39.3771 36.7397 39.3781H5.26163C4.56077 39.3774 3.88882 39.1001 3.39324 38.607C2.89766 38.114 2.61894 37.4454 2.61826 36.7481L2.61826 21.0396H1L1 37.9746C1 38.776 1.31989 39.5446 1.88934 40.1114C2.45878 40.6783 3.23116 40.9969 4.03665 40.9972H37.9634C38.3622 40.9972 38.7572 40.919 39.1257 40.7671C39.4942 40.6152 39.829 40.3925 40.111 40.1118C40.393 39.8311 40.6167 39.4979 40.7692 39.1312C40.9218 38.7645 41.0002 38.3715 41 37.9746V21.0396H39.383Z" fill="#E88827"/>
<path d="M36.7396 3.39136C37.2354 3.39136 37.711 3.58735 38.0616 3.93622C38.4123 4.28509 38.6093 4.75826 38.6093 5.25164V36.7482C38.6089 37.2415 38.4118 37.7145 38.0613 38.0633C37.7107 38.4121 37.2353 38.6082 36.7396 38.6085H5.26153C4.76566 38.6085 4.29009 38.4125 3.93946 38.0636C3.58882 37.7148 3.39183 37.2416 3.39183 36.7482L3.39183 5.25164C3.39183 4.75826 3.58882 4.28509 3.93946 3.93622C4.29009 3.58735 4.76566 3.39136 5.26153 3.39136L36.7396 3.39136ZM36.7396 2.62158L5.26153 2.62158C4.56068 2.62226 3.88872 2.89957 3.39314 3.39266C2.89756 3.88574 2.61885 4.55432 2.61816 5.25164L2.61816 36.7482C2.61885 37.4455 2.89756 38.1141 3.39314 38.6072C3.88872 39.1003 4.56068 39.3776 5.26153 39.3783H36.7396C37.4403 39.3773 38.1121 39.0998 38.6076 38.6068C39.1031 38.1138 39.3819 37.4454 39.3829 36.7482V5.25164C39.3819 4.55442 39.1031 3.88604 38.6076 3.39303C38.1121 2.90002 37.4403 2.6226 36.7396 2.62158Z" fill="#FFD952"/>
<path d="M1 4.02136L1 37.9774C1 38.7788 1.31989 39.5474 1.88934 40.1142C2.45878 40.6811 3.23116 40.9997 4.03665 41H37.9634C38.3622 41 38.7572 40.9218 39.1257 40.7699C39.4942 40.618 39.829 40.3953 40.111 40.1146C40.393 39.8339 40.6167 39.5007 40.7692 39.134C40.9218 38.7673 41.0002 38.3742 41 37.9774V4.02136C41 3.22005 40.6801 2.45155 40.1106 1.88494C39.5411 1.31832 38.7687 1 37.9634 1L4.03665 1C3.23139 1.00034 2.4592 1.31877 1.88979 1.88531C1.32038 2.45185 1.00034 3.22015 1 4.02136ZM36.7397 38.6086H5.26163C4.76575 38.6086 4.29019 38.4126 3.93955 38.0637C3.58891 37.7148 3.39193 37.2417 3.39193 36.7483L3.39193 5.25172C3.39193 4.75834 3.58891 4.28517 3.93955 3.9363C4.29019 3.58742 4.76575 3.39143 5.26163 3.39143L36.7397 3.39143C37.2355 3.39143 37.7111 3.58742 38.0617 3.9363C38.4124 4.28517 38.6094 4.75834 38.6094 5.25172V36.7483C38.609 37.2416 38.4119 37.7145 38.0614 38.0633C37.7108 38.4121 37.2354 38.6082 36.7397 38.6086Z" stroke="#5C2929" stroke-width="1.2" stroke-linecap="round" stroke-linejoin="round"/>
<path d="M29.9546 35.8477C29.1882 35.8326 28.4291 35.6962 27.7058 35.4436C26.9613 35.212 26.2783 34.8175 25.7071 34.2889L25.6736 34.2992C23.8603 34.8388 21.9765 35.1073 20.0839 35.0959C18.2503 35.0959 16.5082 34.8496 15.055 34.3826C11.4317 33.2279 8.8837 30.9712 7.87922 28.0358C7.08492 25.7149 7.35055 23.0913 8.55618 21.3516C9.00878 20.6973 9.56969 20.1495 10.1125 19.6196C10.7766 18.9704 11.402 18.3584 11.754 17.6272C11.7759 17.5797 11.7979 17.5309 11.8185 17.4822C11.9047 17.2767 11.9645 17.0611 11.9964 16.8407C12.0148 16.7162 12.0247 16.5906 12.0261 16.4648V16.4327C12.0261 16.3737 12.0261 16.3147 12.0196 16.2544V16.2377C12.0196 16.1826 12.0093 16.1197 12.0003 16.0568V16.0324C11.9926 15.9747 11.9822 15.917 11.9706 15.8605C11.9706 15.8605 11.9706 15.8477 11.9706 15.8464C11.9565 15.7759 11.941 15.7181 11.9242 15.6501C11.9237 15.645 11.9237 15.6399 11.9242 15.6347C11.91 15.5847 11.892 15.5282 11.8726 15.4705L11.861 15.4384C11.8404 15.3807 11.8172 15.3204 11.7927 15.2614L11.7772 15.2242C11.7463 15.1511 11.7153 15.0715 11.6857 14.9907L11.6586 14.9111C11.6341 14.8419 11.6109 14.77 11.589 14.6982L11.567 14.6212C11.5438 14.5442 11.5232 14.4647 11.5026 14.3839L11.4897 14.3261C11.4665 14.2325 11.4471 14.1362 11.4278 14.0387V14.0246C11.3367 13.5804 11.2892 13.1283 11.2859 12.675C11.2859 12.675 11.2859 12.6429 11.2859 12.6377C11.3182 10.4567 12.2904 8.667 13.9564 7.73557L13.9667 7.72916C14.0183 7.69452 14.0712 7.66245 14.1253 7.63037C14.1382 7.62234 14.1515 7.61506 14.1653 7.60856L14.2233 7.5829L14.2388 7.5752C14.4513 7.47552 14.6701 7.38981 14.8938 7.31861C15.095 7.25447 15.2807 7.20315 15.4754 7.16081H15.5024C15.8377 7.10338 16.1762 7.06696 16.5159 7.05176C16.6127 7.05176 16.7068 7.05176 16.7996 7.05176C18.8898 7.05176 20.0761 8.06658 21.7176 9.47013L21.7305 9.48168C22.4745 8.81454 23.3926 8.23336 24.9541 8.19872H25.0276C25.9173 8.19872 26.8883 8.49765 28.2719 9.19814C28.9939 9.5625 29.6451 10.2386 30.1055 11.0995C30.2254 11.3214 30.3504 11.5575 30.4858 11.8205C30.5789 12.0021 30.6624 12.1884 30.736 12.3786C30.8025 12.5509 30.8601 12.7265 30.9088 12.9046L30.9191 12.9431C30.9397 13.0214 30.9565 13.0906 30.972 13.1599L30.9861 13.2241C31.0029 13.3087 31.0197 13.3934 31.0326 13.4807C31.0545 13.6243 31.07 13.7719 31.0803 13.9181L31.1821 14.0464C31.2131 14.0913 31.244 14.135 31.2737 14.1747C31.3034 14.2145 31.3253 14.2568 31.3498 14.303L31.3859 14.362C31.4078 14.4005 31.4297 14.4377 31.4503 14.4762L31.4761 14.525C31.4968 14.5647 31.5174 14.6058 31.5367 14.6533L31.5651 14.7136C31.5754 14.7354 31.587 14.7572 31.5961 14.779C31.6231 14.8432 31.6489 14.9073 31.6721 14.9689C31.7265 15.1243 31.7696 15.2833 31.8011 15.4449C31.8011 15.4449 31.8011 15.4705 31.8075 15.4744C31.8758 15.81 31.8819 16.1552 31.8256 16.493C31.6683 17.3796 31.1138 18.0326 30.5787 18.6599C30.1738 19.1372 29.7908 19.5862 29.5871 20.1187C29.5121 20.3162 29.4593 20.5215 29.4298 20.7306C29.4169 20.8153 29.4079 20.9038 29.4027 20.9872C29.3975 21.0706 29.3937 21.1643 29.395 21.2566C29.395 22.0829 29.6464 22.9925 29.9456 23.9342C30.0384 23.9432 30.1325 23.956 30.2254 23.9714C30.2898 23.9829 30.3543 23.9945 30.4214 24.0086C30.5503 24.0355 30.6793 24.0676 30.8172 24.1061C30.8843 24.1253 30.9462 24.1446 31.0184 24.1664C31.1937 24.2228 31.3769 24.2947 31.5767 24.3691C31.9287 24.5089 32.3104 24.6834 32.7437 24.9028C33.1877 25.1358 33.5818 25.4526 33.9042 25.8355C34.1582 26.1283 34.3783 26.4484 34.5605 26.79C34.6886 27.027 34.8141 27.2647 34.937 27.5034C35.0066 27.6394 35.066 27.7792 35.1304 27.9216C35.1936 27.979 35.2411 28.0514 35.2684 28.132C35.3681 28.4218 35.4419 28.7197 35.4889 29.0224C35.5478 29.4104 35.5629 29.8037 35.534 30.195V30.2219C35.534 30.3066 35.5224 30.3849 35.5147 30.4619L35.507 30.5311C35.5005 30.5876 35.4941 30.6415 35.4863 30.6954L35.4721 30.7813C35.4644 30.8313 35.4554 30.8801 35.4464 30.9289C35.4464 30.9584 35.4347 30.9866 35.4296 31.0148C35.418 31.0674 35.4064 31.12 35.3935 31.1726L35.378 31.2406C35.36 31.3125 35.3406 31.3843 35.3187 31.4549L35.3006 31.5152C35.2852 31.5665 35.2684 31.6191 35.2504 31.6704C35.2413 31.6973 35.2323 31.723 35.222 31.7499C35.2052 31.7974 35.1897 31.8398 35.173 31.8782C35.1562 31.9167 35.1511 31.9347 35.1407 31.9616C35.1304 31.9886 35.1034 32.0502 35.0853 32.0899L35.0544 32.1618C35.0247 32.2272 34.995 32.2901 34.9628 32.3568C34.3671 33.5756 33.2943 34.6918 32.1608 35.2704L32.1312 35.2845C31.4666 35.6558 30.7168 35.8498 29.9546 35.8477Z" fill="#EFC743"/>
<path d="M16.8008 7.55188C18.7789 7.55188 19.8723 8.55772 21.586 10.0203L21.7485 10.1588C22.5221 9.40447 23.3358 8.73477 24.9721 8.70397H25.0353C25.9095 8.70397 26.8469 9.04011 28.0461 9.64695C28.7115 9.98308 29.2724 10.6092 29.6592 11.3328C29.7882 11.5688 29.9171 11.8074 30.0345 12.0461C30.1204 12.2126 30.1967 12.3839 30.2627 12.5593C30.3242 12.7162 30.3772 12.8764 30.4213 13.0391L30.4329 13.0827C30.4497 13.1443 30.4638 13.211 30.478 13.27C30.478 13.2893 30.487 13.3085 30.4909 13.3265C30.5064 13.4034 30.5206 13.4791 30.5322 13.5548C30.56 13.738 30.5772 13.9226 30.5838 14.1078L30.6134 14.1424C30.6289 14.1617 30.6457 14.1809 30.6598 14.2002C30.674 14.2194 30.705 14.2579 30.7269 14.2861L30.772 14.3477C30.8004 14.3862 30.8262 14.426 30.8533 14.4657L30.9203 14.5722L30.9513 14.6235C30.9706 14.6556 30.9886 14.689 31.0054 14.721L31.0286 14.7647C31.048 14.7993 31.0647 14.8339 31.0815 14.8699C31.0867 14.8799 31.0915 14.8902 31.0957 14.9007C31.1086 14.9263 31.1215 14.9533 31.1331 14.9789C31.1563 15.0341 31.1782 15.088 31.1988 15.1418C31.2466 15.2745 31.2845 15.4104 31.3123 15.5485C31.3123 15.5485 31.3123 15.5485 31.3123 15.5562C31.3702 15.8337 31.3764 16.1195 31.3303 16.3991C31.0879 17.7706 29.6386 18.5802 29.1177 19.9298C29.029 20.1634 28.9667 20.4061 28.932 20.6534C28.9178 20.7522 28.9075 20.8523 28.901 20.9524C28.8946 21.0524 28.8907 21.1551 28.892 21.2564C28.892 22.252 29.2169 23.3245 29.5754 24.4253C29.769 24.4269 29.9622 24.444 30.1531 24.4766C30.2111 24.4856 30.2704 24.4972 30.3284 24.5087C30.4471 24.5344 30.567 24.5639 30.6882 24.5985C30.7501 24.6152 30.8171 24.6344 30.8739 24.6537C31.0441 24.7076 31.2182 24.7717 31.3987 24.8436C31.7481 24.9834 32.1208 25.1553 32.5231 25.3567C32.9081 25.5606 33.25 25.8363 33.5301 26.1689C33.759 26.4325 33.9575 26.7208 34.122 27.0284C34.2484 27.2628 34.3726 27.4984 34.4947 27.7353C34.6164 27.9718 34.7199 28.2171 34.8041 28.4692L34.7964 28.2947C34.8866 28.5556 34.9534 28.824 34.9963 29.0966C35.0493 29.4494 35.0623 29.807 35.0349 30.1627C35.0356 30.1738 35.0356 30.1849 35.0349 30.1961C35.0349 30.2679 35.0259 30.3385 35.0182 30.4077C35.0182 30.4296 35.0182 30.4514 35.0104 30.4719C35.0104 30.5219 34.9988 30.5707 34.9924 30.6194C34.9924 30.6451 34.9846 30.6707 34.9795 30.6977C34.9743 30.7246 34.9653 30.7862 34.9563 30.826L34.9408 30.903C34.9318 30.9504 34.9202 30.9979 34.9086 31.0454C34.9086 31.0659 34.8995 31.0864 34.8944 31.107C34.8776 31.1724 34.8596 31.2352 34.8415 31.302L34.8235 31.3558C34.8093 31.4046 34.7938 31.4521 34.7783 31.4983C34.7693 31.5239 34.7616 31.5483 34.7525 31.5727C34.7435 31.597 34.7229 31.6535 34.7074 31.6933C34.6919 31.733 34.6881 31.7433 34.6778 31.7677C34.6674 31.7921 34.6442 31.8498 34.6275 31.896L34.5991 31.9614C34.572 32.0217 34.5449 32.0807 34.5153 32.1397C33.9568 33.2765 33.0582 34.2132 31.9428 34.8211C31.3385 35.1623 30.6545 35.3393 29.9597 35.3343C29.2484 35.3203 28.5441 35.1929 27.8733 34.9571C27.0997 34.7005 26.3763 34.2874 25.8618 33.6972L25.8102 33.7152L25.7406 33.737L25.5665 33.7935L25.524 33.8063C23.7587 34.3294 21.9256 34.5909 20.0838 34.5825C18.3559 34.5825 16.6564 34.358 15.2058 33.8935C7.42139 31.4059 6.89142 24.6434 8.97001 21.6426C9.94742 20.2313 11.5205 19.2871 12.2091 17.8476C12.2349 17.7924 12.2607 17.736 12.2839 17.6795C12.3866 17.4359 12.4576 17.1802 12.4954 16.9187C12.517 16.7708 12.5291 16.6217 12.5315 16.4723V16.4351C12.5315 16.3645 12.5315 16.2939 12.525 16.2247C12.5244 16.2213 12.5244 16.2178 12.525 16.2144C12.525 16.14 12.5121 16.0643 12.5018 15.9899V15.9617C12.4928 15.8949 12.4812 15.8334 12.4683 15.7628C12.4678 15.7543 12.4678 15.7457 12.4683 15.7371C12.4528 15.6627 12.4348 15.5896 12.4141 15.5165C12.4149 15.5135 12.4149 15.5104 12.4141 15.5075C12.3948 15.4395 12.3742 15.3792 12.3509 15.3061C12.3509 15.2945 12.3432 15.2817 12.3381 15.2701C12.3136 15.2009 12.2865 15.1316 12.2581 15.0636C12.2544 15.0527 12.2501 15.042 12.2452 15.0315C12.2168 14.9622 12.1885 14.8917 12.1614 14.8185C12.1537 14.7955 12.1459 14.7711 12.1369 14.7467C12.115 14.6826 12.0931 14.6184 12.0737 14.5517C12.0737 14.5286 12.0608 14.5055 12.0531 14.4837C12.0325 14.4106 12.0131 14.3387 11.9951 14.2643C11.9951 14.2463 11.986 14.2297 11.9822 14.2117C11.9615 14.1245 11.9422 14.0359 11.9254 13.9461C11.926 13.9414 11.926 13.9367 11.9254 13.932C11.849 13.5173 11.8127 13.0963 11.8171 12.6747V12.6593C11.839 10.9466 12.5276 9.11709 14.2426 8.16898L14.2658 8.15359C14.3122 8.12408 14.3586 8.09457 14.4063 8.06763L14.4721 8.03812C14.6611 7.94825 14.8558 7.87068 15.0549 7.80591C15.2238 7.75202 15.4005 7.70327 15.5926 7.66093C15.9073 7.60648 16.2252 7.57177 16.5442 7.55701C16.6319 7.55701 16.7196 7.55701 16.8021 7.55701M16.8021 6.53065C16.7028 6.53065 16.5997 6.53065 16.4965 6.53065C16.1351 6.54721 15.7751 6.58621 15.4185 6.6474L15.367 6.65766C15.1607 6.70256 14.9556 6.75773 14.739 6.82701C14.4945 6.90327 14.2554 6.99586 14.0234 7.10413H14.0169L13.937 7.14133C13.9125 7.15416 13.888 7.16699 13.8648 7.18111C13.808 7.21446 13.75 7.25039 13.6933 7.28759C12.7173 7.83549 11.9351 8.66975 11.4535 9.67645C11.013 10.5939 10.7801 11.5964 10.7714 12.6131C10.7707 12.6243 10.7707 12.6354 10.7714 12.6465V12.6747C10.7679 13.1588 10.811 13.6421 10.9003 14.118V14.1373C10.9209 14.2399 10.9429 14.3438 10.9674 14.4465L10.9764 14.4875V14.5017C10.9996 14.594 11.0228 14.6813 11.0473 14.7659C11.0551 14.7903 11.0615 14.816 11.0692 14.8404C11.0924 14.9148 11.1169 14.9917 11.1453 15.0751L11.1518 15.0905L11.175 15.1598C11.2046 15.2406 11.2369 15.324 11.2717 15.4074C11.2775 15.4245 11.2844 15.4412 11.2923 15.4575C11.3104 15.5011 11.3297 15.5498 11.3503 15.6063V15.6204V15.6345C11.3684 15.6845 11.3826 15.732 11.3955 15.7756C11.3955 15.7756 11.3955 15.7859 11.3955 15.791C11.4071 15.8346 11.42 15.8834 11.4303 15.936V15.9591C11.4393 16.004 11.447 16.0515 11.4535 16.0977V16.1195C11.4535 16.1708 11.4651 16.2221 11.469 16.2696V16.2785C11.469 16.3273 11.469 16.3748 11.469 16.4287V16.4594C11.4678 16.5604 11.4596 16.6611 11.4445 16.7609C11.4187 16.9373 11.3706 17.1097 11.3013 17.2741C11.2846 17.3165 11.2652 17.3575 11.2459 17.4024C10.9364 18.0516 10.3433 18.6328 9.70887 19.2499C9.15054 19.7964 8.57157 20.3609 8.09061 21.0563C6.80116 22.9243 6.50459 25.7275 7.34918 28.1972C7.85867 29.6701 8.72542 30.9951 9.87263 32.0551C11.2098 33.2854 12.8861 34.2284 14.8873 34.8699C16.3972 35.3523 18.1934 35.6076 20.0799 35.6076C21.9384 35.616 23.7888 35.3642 25.5768 34.8596C26.158 35.3374 26.8254 35.7005 27.5432 35.9296C28.319 36.1991 29.1329 36.3441 29.9545 36.3594C30.8019 36.3642 31.6365 36.153 32.3787 35.7461L32.4083 35.7307C33.6539 35.0892 34.7861 33.9205 35.4385 32.5862C35.4721 32.5169 35.5056 32.4464 35.5365 32.3745C35.5468 32.354 35.5559 32.3322 35.5649 32.3104L35.5713 32.295L35.6319 32.1513L35.6655 32.0628C35.6848 32.014 35.7016 31.9665 35.7183 31.9191V31.9088C35.7287 31.8819 35.7377 31.8562 35.7467 31.8293C35.7661 31.7741 35.7841 31.7164 35.8009 31.6599V31.6484C35.8073 31.6304 35.8125 31.6124 35.8176 31.5945C35.8408 31.5188 35.8615 31.4392 35.8821 31.3597C35.8821 31.3405 35.8911 31.3212 35.8963 31.302V31.2878C35.9105 31.2288 35.9234 31.1711 35.9363 31.1121C35.9363 31.0864 35.9466 31.0582 35.9517 31.03V31.0223C35.962 30.9671 35.9711 30.9119 35.9801 30.8581V30.8491C35.9801 30.8209 35.9891 30.7926 35.993 30.7644C36.002 30.7054 36.0098 30.6451 36.0162 30.5861V30.5707C36.0162 30.5489 36.0162 30.5283 36.0227 30.5065C36.0317 30.4206 36.0381 30.3346 36.0433 30.2499C36.0433 30.2358 36.0433 30.2243 36.0433 30.214C36.0741 29.7889 36.0577 29.3616 35.9943 28.94C35.9428 28.6067 35.8613 28.2786 35.7506 27.9599C35.71 27.8397 35.647 27.7283 35.5649 27.6314C35.5107 27.5031 35.4527 27.3825 35.3895 27.2619C35.2709 27.031 35.1471 26.7962 35.0104 26.5422C34.8102 26.1664 34.568 25.8144 34.2883 25.4927C33.921 25.0594 33.4726 24.7012 32.9679 24.4381C32.5205 24.2123 32.1246 24.0315 31.7597 23.8852C31.5483 23.8005 31.3536 23.7312 31.1666 23.6709L30.95 23.6055C30.8043 23.5645 30.6585 23.5285 30.518 23.499C30.4561 23.4862 30.3891 23.4746 30.331 23.4644C30.0899 22.6741 29.9042 21.9184 29.9016 21.2474C29.9016 21.1679 29.9016 21.0883 29.9081 21.0139C29.9145 20.9395 29.921 20.8651 29.9313 20.7933C29.9552 20.6218 29.9984 20.4535 30.0602 20.2916C30.233 19.84 30.5876 19.4231 30.9629 18.9817C31.5147 18.3313 32.1414 17.5949 32.3232 16.5711C32.3901 16.1729 32.3836 15.766 32.3039 15.3702C32.3044 15.3647 32.3044 15.3591 32.3039 15.3535C32.3039 15.3458 32.3039 15.3369 32.3039 15.3266C32.2658 15.1421 32.2141 14.9608 32.1491 14.7839C32.1221 14.7108 32.0937 14.6376 32.0628 14.5671C32.0499 14.5376 32.0357 14.5094 32.0228 14.4798L32.0138 14.4619V14.4542L31.997 14.4221C31.9764 14.3759 31.9519 14.3297 31.9287 14.2836L31.8977 14.2271C31.8745 14.1835 31.8513 14.1411 31.8268 14.0988L31.7946 14.0475L31.7868 14.0347C31.7584 13.9872 31.7301 13.941 31.6991 13.8961C31.6682 13.8512 31.6321 13.7947 31.596 13.7447L31.5766 13.719C31.5663 13.61 31.5534 13.5022 31.5367 13.3957C31.5199 13.2893 31.507 13.2161 31.4851 13.1135C31.4851 13.093 31.4812 13.0737 31.4735 13.0558V13.0429C31.458 12.9685 31.4387 12.8915 31.4193 12.8158V12.8069L31.4077 12.762C31.3548 12.5708 31.2917 12.3771 31.2195 12.1923C31.2202 12.1894 31.2202 12.1863 31.2195 12.1834C31.1389 11.9751 31.0472 11.7712 30.9448 11.5727C30.8159 11.3161 30.6869 11.071 30.558 10.8439C30.0499 9.89456 29.3188 9.14146 28.5026 8.72963C27.0429 7.99065 26.0036 7.67504 25.0211 7.67504H24.9385C23.4505 7.70327 22.477 8.19977 21.7265 8.7925C20.2114 7.50954 18.9259 6.52295 16.7931 6.52295L16.8021 6.53065Z" fill="#FFD64F"/>
<path d="M31.3265 16.3952C31.0841 17.7667 29.6348 18.5762 29.1138 19.9259C27.9623 22.928 31.6566 27.0271 30.1905 30.4461C28.58 34.1975 20.3288 35.5356 15.2019 33.896C7.42141 31.4058 6.89145 24.6433 8.97004 21.6425C9.94744 20.2313 11.5206 19.287 12.2091 17.8475C12.2349 17.7924 12.2607 17.7359 12.2839 17.6795C12.4537 17.263 12.5377 16.8169 12.5311 16.3676C12.5245 15.9182 12.4272 15.4748 12.2452 15.0635C11.2537 12.7542 11.7295 8.51017 15.5888 7.66085C18.3908 7.19129 19.5526 8.28565 21.5847 10.0202C25.1591 13.0711 23.5834 12.0191 26.5942 12.2885C30.068 12.5977 31.6025 14.8326 31.3265 16.3952Z" fill="#9D479E"/>
<path d="M29.599 24.5073C29.5448 24.4431 29.4932 24.379 29.4404 24.3123C29.6699 24.8845 29.2844 25.5234 28.7957 25.8313C28.307 26.1392 27.7138 26.2341 27.198 26.4997C26.1471 27.0437 25.514 28.2202 24.5714 28.9784C23.4444 29.8867 21.9474 30.1253 20.5329 29.9521C18.7031 29.5814 17.13 27.9687 16.7638 26.0199C16.6487 25.351 16.6313 24.6692 16.7122 23.9954C16.4008 23.9091 16.1276 23.7208 15.937 23.461C15.7463 23.2012 15.6492 22.8851 15.6613 22.5636C15.6729 21.7566 16.2996 21.1062 17.0604 21.1062C17.1156 21.1067 17.1707 21.1106 17.2254 21.1177C17.3752 20.3936 17.4444 19.6553 17.4317 18.9162C17.4141 18.1624 17.2118 17.4243 16.8425 16.7659C15.7232 16.7184 14.6461 16.3271 13.7594 15.6459C12.7936 14.8925 12.1054 13.8424 11.802 12.6592C11.7849 13.4822 11.9358 14.3001 12.2456 15.0634C12.5007 15.6516 12.5868 16.2987 12.4944 16.9327C12.5286 16.9236 12.5636 16.9176 12.5989 16.9147C12.3616 19.2318 10.1038 20.8355 9.24632 23.0832C8.56162 24.8793 8.85948 26.9898 9.80852 28.6256C10.7576 30.2613 12.3229 31.4737 14.0237 32.2178C15.7245 32.962 16.7948 33.4623 18.6438 33.6676C20.7753 33.9036 23.7552 33.8087 25.8067 33.1775C27.795 32.5681 29.6377 31.2133 30.508 29.2286C30.6808 27.6954 30.1096 26.0738 29.599 24.5073ZM15.1842 26.7537C15.0745 26.75 14.9666 26.7244 14.8669 26.6785C14.7672 26.6326 14.6778 26.5673 14.6039 26.4865C14.53 26.4057 14.4731 26.3109 14.4365 26.2079C14.4 26.1048 14.3846 25.9955 14.3912 25.8865C14.3887 25.6644 14.4731 25.45 14.6267 25.2889C14.7803 25.1277 14.9909 25.0323 15.2139 25.023C15.3233 25.027 15.4307 25.0525 15.5301 25.0982C15.6294 25.144 15.7186 25.2089 15.7924 25.2893C15.8662 25.3697 15.9232 25.4639 15.96 25.5664C15.9969 25.6689 16.0128 25.7777 16.0069 25.8865C16.0108 26.1093 15.9269 26.3248 15.7732 26.4869C15.6194 26.6489 15.408 26.7447 15.1842 26.7537Z" fill="#75357D"/>
<path d="M31.3263 16.3954C31.6022 14.8315 30.0678 12.5966 26.594 12.2899C23.5831 12.0205 25.1588 13.0725 21.5845 10.0217C19.5523 8.28711 18.3905 7.19275 15.5886 7.66231C15.3637 7.71132 15.1424 7.77474 14.9258 7.85219C17.6504 7.42753 18.807 8.51676 20.8095 10.2372C24.3774 13.2932 22.803 12.2399 25.8152 12.5093C29.2967 12.8198 30.8208 15.0573 30.5397 16.6238C30.4404 17.1767 30.1451 17.6386 29.7944 18.0799C29.7521 17.6619 29.5499 17.276 29.2296 17.0022C28.886 16.7189 28.4925 16.5014 28.0691 16.3608C26.2123 15.659 24.2459 15.405 22.304 15.1573C21.7392 15.0855 21.1628 15.0137 20.6045 15.1266C20.3121 15.1871 20.0377 15.314 19.8026 15.4974C19.5675 15.6807 19.3782 15.9156 19.2493 16.1837C19.8012 16.4326 20.2409 16.8957 20.5916 17.4076C20.9424 17.9195 21.2196 18.4892 21.5368 19.0319C22.0874 19.9748 22.7863 20.8639 23.7095 21.4246C24.6328 21.9852 25.81 22.1725 26.7655 21.7081C27.378 21.4105 27.8422 20.8883 28.2522 20.3225C27.298 23.3054 31.218 27.1222 29.7712 30.4771C29.1394 31.941 27.0634 33.2573 24.9719 33.9552C27.4566 33.2881 29.4746 32.0988 30.1851 30.4425C31.6512 27.0273 27.957 22.9282 29.1084 19.9222C29.6345 18.5764 31.0839 17.7682 31.3263 16.3954Z" fill="#EB71CA"/>
<path d="M18.3972 15.931C22.2424 16.0131 22.3636 20.1827 24.8677 20.7728C25.9276 21.023 26.6871 20.7626 27.0597 20.0826C27.291 19.6397 27.6246 19.2576 28.0329 18.9677C28.4413 18.6778 28.9129 18.4883 29.4091 18.4148C30.9668 18.2082 31.391 16.3171 31.3123 15.5551C31.0222 14.1271 29.4788 12.5465 26.5943 12.2899C23.5834 12.0205 25.1591 13.0725 21.5847 10.0217C19.5526 8.28711 18.3908 7.19275 15.5888 7.66231C15.1756 7.74863 14.7743 7.88387 14.3935 8.06516C11.4226 9.79074 11.8894 15.7218 18.3972 15.931Z" fill="#5C2929"/>
<path d="M13.7979 9.32246C14.1805 9.13885 14.584 9.00187 14.9997 8.91448C17.8171 8.44107 18.9815 9.54569 21.0201 11.2969C24.606 14.376 23.0239 13.3163 26.0489 13.587C28.9476 13.8436 30.495 15.4434 30.7786 16.8829C30.7962 17.1132 30.784 17.3447 30.7425 17.5719C31.1433 16.976 31.3396 16.2672 31.3022 15.5512C31.0223 14.1271 29.4789 12.5465 26.5944 12.2899C23.5835 12.0205 25.1592 13.0725 21.5849 10.0217C19.5527 8.28711 18.3922 7.19275 15.5889 7.66231C15.1758 7.74863 14.7745 7.88387 14.3936 8.06516C13.9921 8.30442 13.6421 8.62028 13.3637 8.99458C13.0854 9.36888 12.8841 9.79423 12.7715 10.2462C13.0463 9.87147 13.3957 9.55704 13.7979 9.32246Z" fill="#8C3232"/>
<path d="M18.3972 15.931C22.2424 16.0131 22.3636 20.1827 24.8677 20.7728C25.9276 21.023 26.6871 20.7626 27.0597 20.0826C27.291 19.6397 27.6246 19.2576 28.0329 18.9677C28.4413 18.6778 28.9129 18.4883 29.4091 18.4148C30.9668 18.2082 31.391 16.3171 31.3123 15.5551C31.0222 14.1271 29.4788 12.5465 26.5943 12.2899C23.5834 12.0205 25.1591 13.0725 21.5847 10.0217C19.5526 8.28711 18.3908 7.19275 15.5888 7.66231C15.1756 7.74863 14.7743 7.88387 14.3935 8.06516C11.4226 9.79074 11.8894 15.7218 18.3972 15.931Z" stroke="#5C2929" stroke-width="1.2" stroke-linecap="round" stroke-linejoin="round"/>
<path d="M31.3265 16.3952C31.0841 17.7667 29.6348 18.5762 29.1138 19.9259C27.9623 22.928 31.6566 27.0271 30.1905 30.4461C28.58 34.1975 20.3288 35.5356 15.2019 33.896C7.42141 31.4058 6.89145 24.6433 8.97004 21.6425C9.94744 20.2313 11.5206 19.287 12.2091 17.8475C12.2349 17.7924 12.2607 17.7359 12.2839 17.6795C12.4537 17.263 12.5377 16.8169 12.5311 16.3676C12.5245 15.9182 12.4272 15.4748 12.2452 15.0635C11.2537 12.7542 11.7295 8.51017 15.5888 7.66085C18.3908 7.19129 19.5526 8.28565 21.5847 10.0202C25.1591 13.0711 23.5834 12.0191 26.5942 12.2885C30.068 12.5977 31.6025 14.8326 31.3265 16.3952Z" stroke="#5C2929" stroke-width="1.2" stroke-linecap="round" stroke-linejoin="round"/>
<path d="M19.7073 22.7022C19.7123 22.8111 19.6956 22.9199 19.6581 23.0223C19.6206 23.1247 19.5631 23.2187 19.4888 23.2989C19.4146 23.379 19.3252 23.4438 19.2257 23.4894C19.1262 23.5349 19.0186 23.5604 18.9091 23.5644C18.6876 23.5557 18.4785 23.4602 18.3275 23.2986C18.1765 23.1371 18.0959 22.9227 18.1032 22.7022C18.0989 22.5938 18.1161 22.4855 18.1539 22.3837C18.1917 22.2819 18.2494 22.1885 18.3235 22.1089C18.3976 22.0293 18.4869 21.965 18.586 21.9198C18.6852 21.8745 18.7923 21.8492 18.9014 21.8452C19.122 21.8539 19.3303 21.9487 19.4811 22.1091C19.6319 22.2696 19.7132 22.4826 19.7073 22.7022Z" fill="#7E3987"/>
<path d="M13.8299 22.4508C13.8305 22.7393 13.7183 23.0167 13.5172 23.2244C13.3161 23.4322 13.0417 23.5541 12.752 23.5644C12.6107 23.5606 12.4716 23.5284 12.3432 23.4698C12.2147 23.4112 12.0995 23.3274 12.0043 23.2234C11.9092 23.1194 11.8362 22.9974 11.7896 22.8646C11.743 22.7319 11.7239 22.5911 11.7333 22.4508C11.7351 22.1641 11.8481 21.8892 12.0487 21.6834C12.2493 21.4776 12.522 21.3568 12.81 21.3462C12.9505 21.3501 13.0888 21.382 13.2167 21.44C13.3446 21.498 13.4595 21.581 13.5546 21.684C13.6497 21.787 13.7231 21.9079 13.7704 22.0396C13.8177 22.1714 13.8379 22.3112 13.8299 22.4508Z" fill="#FF6B9F" stroke="#75357D" stroke-width="1.2" stroke-linecap="round" stroke-linejoin="round"/>
<path d="M23.5318 25.8892C23.5473 26.5306 23.0805 27.0438 22.4874 27.0438C21.8942 27.0438 21.4055 26.5306 21.3952 25.8892C21.3849 25.2477 21.8529 24.7422 22.4396 24.7422C23.0263 24.7422 23.5163 25.2477 23.5318 25.8892Z" fill="#FFBE33" stroke="#75357D" stroke-width="1.2" stroke-linecap="round" stroke-linejoin="round"/>
<path d="M18.7659 28.9081C18.7659 29.5496 18.2784 30.0756 17.684 30.0756C17.0896 30.0756 16.6125 29.5521 16.6202 28.9081C16.6279 28.264 17.1115 27.7534 17.7021 27.7534C18.2926 27.7534 18.7684 28.2679 18.7659 28.9081Z" fill="#3591D6" stroke="#75357D" stroke-width="1.2" stroke-linecap="round" stroke-linejoin="round"/>
<path d="M17.2201 20.3956C17.2136 21.1872 16.5947 21.8313 15.8391 21.8313C15.0834 21.8313 14.4838 21.1898 14.4993 20.3956C14.5148 19.6015 15.1337 18.9741 15.8803 18.9741C16.0625 18.9787 16.2419 19.0193 16.4082 19.0935C16.5744 19.1677 16.7242 19.274 16.8489 19.4062C16.9735 19.5385 17.0705 19.694 17.1342 19.8639C17.1979 20.0337 17.2271 20.2145 17.2201 20.3956Z" fill="#5FCC96" stroke="#75357D" stroke-width="1.2" stroke-linecap="round" stroke-linejoin="round"/>
<path d="M26.0155 24.9014C26.0201 24.9657 26.0115 25.0304 25.9904 25.0914C25.9692 25.1524 25.9359 25.2085 25.8925 25.2565C25.849 25.3044 25.7963 25.3431 25.7374 25.3702C25.6786 25.3974 25.6149 25.4125 25.55 25.4145C25.4174 25.4095 25.2921 25.353 25.201 25.257C25.1098 25.1611 25.0602 25.0334 25.0626 24.9014C25.0583 24.8369 25.067 24.7723 25.0883 24.7112C25.1096 24.6502 25.143 24.5941 25.1865 24.5462C25.2301 24.4983 25.2829 24.4596 25.3418 24.4325C25.4007 24.4053 25.4645 24.3903 25.5294 24.3882C25.6618 24.3935 25.7868 24.4502 25.8776 24.5462C25.9685 24.6421 26.018 24.7696 26.0155 24.9014Z" fill="#7E3987"/>
<path d="M29.4038 18.4108L29.3278 18.4236C28.8463 18.5072 28.3908 18.7003 27.9967 18.9878C27.6026 19.2753 27.2806 19.6495 27.0558 20.0812C26.687 20.7625 25.9275 21.0229 24.8637 20.7727C22.8676 20.3019 22.3867 17.5577 20.3261 16.4222L20.2152 16.3619C19.6492 16.0809 19.0258 15.9334 18.3932 15.9309C15.3669 15.8334 13.6494 14.5004 12.9776 12.9275C12.5907 12.0309 12.5341 11.0274 12.8177 10.0934C13.0679 9.24354 13.631 8.5188 14.3947 8.06378C14.7755 7.88249 15.1768 7.74724 15.59 7.66093C18.3932 7.19137 19.5537 8.28445 21.5872 10.0203C22.6549 10.9312 23.2635 11.4777 23.671 11.801C24.6277 12.5605 24.4846 12.1 26.5941 12.2886C28.037 12.4168 29.1447 12.8761 29.9261 13.4817C30.7075 14.0873 31.1665 14.8391 31.3096 15.5524C31.3857 16.3132 30.9628 18.2043 29.4038 18.4108Z" fill="#5C2929"/>
<path d="M21.6597 10.9494C21.5488 10.7364 21.4379 10.5247 21.3244 10.3079C20.9788 9.66642 20.4798 9.10321 19.8854 8.80428C18.7894 8.25004 17.9409 7.94855 17.144 7.96394C15.4561 7.99601 14.7508 8.79915 13.9397 9.59201C13.2202 10.2964 12.9082 11.1457 12.8128 12.0502C12.8012 12.1631 12.7947 12.276 12.7896 12.3901C12.839 12.5748 12.9015 12.7557 12.9765 12.9315C13.6535 14.5057 15.371 15.8387 18.3922 15.9362C19.0248 15.9388 19.6482 16.0863 20.2142 16.3673L20.3251 16.4276C20.378 16.4571 20.4295 16.4879 20.4798 16.5187C21.2535 15.79 21.933 14.7431 22.1045 13.5243C22.1612 13.1168 22.1586 12.7033 22.0968 12.2965C22.0244 11.8271 21.8768 11.3723 21.6597 10.9494Z" fill="#FFB95E"/>
<path d="M22.1018 12.2903C22.0272 11.8223 21.8779 11.3693 21.6595 10.9483C21.5486 10.7353 21.4377 10.5236 21.3242 10.3068C21.2804 10.2247 21.234 10.1451 21.1863 10.0669C21.428 10.5743 21.5367 11.1344 21.5022 11.695C21.489 11.8435 21.4596 11.9902 21.4145 12.1324C21.4725 11.3845 21.2056 10.5698 20.8252 9.93218C20.3891 10.081 20.0135 10.367 19.755 10.7469C19.5641 11.0582 19.4146 11.3928 19.3101 11.7424C19.1089 12.2776 18.9515 12.828 18.8395 13.3885C18.6001 13.373 18.3603 13.4098 18.1367 13.4962C17.7499 13.6579 17.492 14.0094 17.1181 14.2006C16.6616 14.4328 16.0942 14.3789 15.6378 14.1454C15.1872 13.8945 14.8089 13.5327 14.5392 13.0947C14.3109 12.7735 14.152 12.4087 14.0724 12.0234C13.9834 11.5102 14.1046 10.9804 14.2581 10.4838C14.4499 9.85691 14.6922 9.24638 14.9827 8.6582C14.6117 8.94691 14.2626 9.26253 13.9383 9.60246C13.2188 10.3068 12.9067 11.1561 12.8113 12.0606C12.7997 12.1735 12.7932 12.2864 12.7881 12.4006C12.8384 12.5818 12.9013 12.7592 12.9763 12.9317C13.6533 14.5059 15.3709 15.8389 18.392 15.9364C19.0246 15.9389 19.648 16.0864 20.214 16.3675L20.3249 16.4278C20.3778 16.4573 20.4294 16.4881 20.4797 16.5189C21.2533 15.7902 21.9329 14.7433 22.1044 13.5245C22.1634 13.1151 22.1625 12.6994 22.1018 12.2903Z" fill="#D9724C"/>
<path d="M15.5374 13.7176C15.8325 13.5337 15.9207 13.1446 15.7343 12.8485C15.548 12.5525 15.1576 12.4616 14.8625 12.6455C14.5674 12.8294 14.4792 13.2185 14.6656 13.5146C14.8519 13.8106 15.2422 13.9015 15.5374 13.7176Z" fill="#78422F"/>
<path d="M19.1521 11.2046C19.5088 10.9823 19.6153 10.512 19.39 10.1541C19.1648 9.79622 18.693 9.68628 18.3363 9.90856C17.9796 10.1308 17.8731 10.6012 18.0984 10.9591C18.3237 11.317 18.7954 11.4269 19.1521 11.2046Z" fill="#78422F"/>
<path d="M19.4246 14.178C19.7197 13.9941 19.8079 13.605 19.6215 13.309C19.4352 13.0129 19.0448 12.922 18.7497 13.106C18.4546 13.2899 18.3664 13.679 18.5528 13.975C18.7391 14.271 19.1294 14.3619 19.4246 14.178Z" fill="#78422F"/>
<path d="M16.8287 12.5746C17.0122 12.4603 17.0672 12.2186 16.9515 12.0349C16.8358 11.8511 16.5933 11.7948 16.4098 11.9092C16.2264 12.0235 16.1714 12.2652 16.2871 12.4489C16.4027 12.6327 16.6453 12.6889 16.8287 12.5746Z" fill="#78422F"/>
<path d="M17.1935 15.3236C17.377 15.2093 17.4319 14.9676 17.3162 14.7839C17.2006 14.6001 16.9581 14.5439 16.7746 14.6582C16.5911 14.7725 16.5362 15.0142 16.6518 15.1979C16.7675 15.3817 17.01 15.438 17.1935 15.3236Z" fill="#78422F"/>
<path d="M21.0039 11.8414C21.1234 11.7669 21.1593 11.6097 21.0841 11.4902C21.0089 11.3707 20.851 11.3341 20.7315 11.4086C20.612 11.4831 20.5761 11.6403 20.6513 11.7598C20.7266 11.8793 20.8844 11.9158 21.0039 11.8414Z" fill="#78422F"/>
<path d="M14.648 10.8677C14.7675 10.7933 14.8034 10.636 14.7281 10.5165C14.6529 10.397 14.4951 10.3605 14.3756 10.435C14.2561 10.5095 14.2202 10.6667 14.2954 10.7862C14.3706 10.9057 14.5285 10.9422 14.648 10.8677Z" fill="#78422F"/>
<path d="M16.2943 9.46738C16.4839 9.48919 16.4517 9.75733 16.2634 9.78684C15.9642 9.83687 16.0029 9.43787 16.2943 9.46738Z" fill="#78422F"/>
<path d="M22.1017 12.2899C22.0272 11.822 21.8779 11.3689 21.6594 10.9479C21.5485 10.7349 21.4376 10.5233 21.3242 10.3064C20.9786 9.66496 20.4796 9.10174 19.8851 8.80281C18.7891 8.24858 17.9406 7.94708 17.1438 7.96248C15.4559 7.99455 14.7505 8.79768 13.9395 9.59055C13.3555 10.1705 12.9776 10.924 12.8628 11.7369C13.0437 11.1644 13.3639 10.6453 13.7951 10.2256C14.6048 9.43146 15.3115 8.62961 16.9993 8.59626C17.7962 8.58086 18.6447 8.88236 19.7407 9.43659C20.3339 9.7368 20.8342 10.2949 21.1797 10.9402C21.2932 11.1506 21.4041 11.3636 21.515 11.5817C21.7334 12.0031 21.8828 12.4566 21.9573 12.9249C22.0187 13.3318 22.0208 13.7453 21.9637 14.1527C21.9637 14.1887 21.9521 14.2246 21.9457 14.2605C22.023 14.0206 22.0799 13.7747 22.1159 13.5254C22.1712 13.115 22.1664 12.6989 22.1017 12.2899Z" fill="#FFEA5E"/>
<path d="M21.6597 10.9494C21.5488 10.7364 21.4379 10.5247 21.3244 10.3079C20.9788 9.66642 20.4798 9.10321 19.8854 8.80428C18.7894 8.25004 17.9409 7.94855 17.144 7.96394C15.4561 7.99601 14.7508 8.79915 13.9397 9.59201C13.2202 10.2964 12.9082 11.1457 12.8128 12.0502C12.8012 12.1631 12.7947 12.276 12.7896 12.3901C12.839 12.5748 12.9015 12.7557 12.9765 12.9315C13.6535 14.5057 15.371 15.8387 18.3922 15.9362C19.0248 15.9388 19.6482 16.0863 20.2142 16.3673L20.3251 16.4276C20.378 16.4571 20.4295 16.4879 20.4798 16.5187C21.2535 15.79 21.933 14.7431 22.1045 13.5243C22.1612 13.1168 22.1586 12.7033 22.0968 12.2965C22.0244 11.8271 21.8768 11.3723 21.6597 10.9494Z" stroke="#5C2929" stroke-width="1.2" stroke-linecap="round" stroke-linejoin="round"/>
<path d="M27.453 19.1937C26.8508 19.5003 25.7161 20.1148 23.3474 19.3322C23.1708 19.2745 22.998 19.2039 22.8316 19.1334C22.1469 18.1917 21.5022 17.0935 20.3933 16.4597C20.3092 16.2407 20.25 16.013 20.2166 15.781C19.9407 13.8861 19.9226 11.9488 21.3694 10.5311C21.4983 10.4028 21.6273 10.2745 21.7485 10.1591C22.5222 9.4047 23.3358 8.73499 24.9721 8.7042C25.8644 8.68752 26.8173 9.02494 28.0462 9.64718C28.7115 9.98331 29.2724 10.6094 29.6593 11.333C29.7882 11.569 29.9172 11.8077 30.0345 12.0463C30.2792 12.5183 30.446 13.0265 30.5284 13.5512C30.5562 13.7344 30.5734 13.919 30.5799 14.1042C30.6573 16.5033 28.8998 18.456 27.453 19.1937Z" fill="#FFB95E"/>
<path d="M30.5281 13.5513C30.475 13.2102 30.3846 12.876 30.2586 12.5544C30.2119 13.2499 30.1171 13.9413 29.9749 14.6238C29.8873 15.0421 29.7171 15.5219 29.3109 15.6502C29.053 15.7272 28.7732 15.6309 28.5372 15.5001C28.3012 15.3692 28.0833 15.2011 27.8267 15.1152C27.1975 14.9073 26.4986 15.2435 25.8513 15.1024C25.4374 15.01 25.097 14.7303 24.7527 14.4853C24.4084 14.2402 24.01 14.0118 23.5922 14.0491C23.2608 14.0773 22.9668 14.2659 22.6535 14.3788C22.3401 14.4917 21.9404 14.5071 21.7212 14.2595C21.5329 14.0439 21.5561 13.7219 21.5922 13.4384L21.7934 11.75C21.827 11.3589 21.8996 10.9721 22.01 10.5953C22.1962 10.0369 22.5444 9.54587 23.0106 9.18408C22.5487 9.4501 22.1267 9.77964 21.7573 10.163C21.6283 10.2913 21.5058 10.4106 21.3782 10.535C19.9314 11.9463 19.9495 13.89 20.2254 15.7849C20.2588 16.017 20.318 16.2446 20.4021 16.4636C21.502 17.0935 22.1467 18.1917 22.8288 19.1334C22.9977 19.2078 23.1705 19.2745 23.3446 19.3323C25.7133 20.1149 26.848 19.5003 27.4502 19.1937C28.897 18.456 30.6571 16.4995 30.5745 14.1042C30.5697 13.9192 30.5542 13.7345 30.5281 13.5513Z" fill="#D9724C"/>
<path d="M24.32 13.445C24.4766 13.1142 24.3512 12.7279 24.0399 12.5822C23.7287 12.4364 23.3496 12.5864 23.1931 12.9172C23.0366 13.248 23.1619 13.6343 23.4732 13.7801C23.7844 13.9258 24.1635 13.7758 24.32 13.445Z" fill="#78422F"/>
<path d="M27.0793 11.7218C27.2683 11.3224 27.1164 10.8557 26.7402 10.6795C26.3639 10.5032 25.9057 10.6841 25.7167 11.0835C25.5277 11.4829 25.6795 11.9495 26.0558 12.1258C26.4321 12.302 26.8903 12.1211 27.0793 11.7218Z" fill="#78422F"/>
<path d="M27.3083 14.8396C27.4648 14.5088 27.3394 14.1225 27.0282 13.9767C26.717 13.8309 26.3379 13.9809 26.1813 14.3117C26.0248 14.6425 26.1502 15.0288 26.4614 15.1746C26.7726 15.3204 27.1518 15.1704 27.3083 14.8396Z" fill="#78422F"/>
<path d="M25.6414 13.3778C25.7384 13.1727 25.6604 12.933 25.4671 12.8424C25.2738 12.7519 25.0384 12.8448 24.9414 13.0499C24.8443 13.2551 24.9223 13.4948 25.1156 13.5853C25.3089 13.6759 25.5443 13.583 25.6414 13.3778Z" fill="#78422F"/>
<path d="M29.3099 14.5353C29.3585 14.4328 29.3195 14.3129 29.2228 14.2677C29.1262 14.2224 29.0085 14.2688 28.9599 14.3714C28.9114 14.474 28.9504 14.5938 29.0471 14.6391C29.1437 14.6844 29.2614 14.6379 29.3099 14.5353Z" fill="#78422F"/>
<path d="M25.4901 17.3024C25.5386 17.1999 25.4996 17.08 25.403 17.0347C25.3063 16.9895 25.1887 17.0359 25.1401 17.1385C25.0916 17.2411 25.1306 17.3609 25.2272 17.4062C25.3239 17.4515 25.4416 17.405 25.4901 17.3024Z" fill="#78422F"/>
<path d="M24.9968 16.2641C25.0939 16.0589 25.0159 15.8192 24.8226 15.7287C24.6293 15.6381 24.3939 15.731 24.2968 15.9362C24.1998 16.1413 24.2778 16.381 24.4711 16.4716C24.6644 16.5621 24.8998 16.4692 24.9968 16.2641Z" fill="#78422F"/>
<path d="M28.7952 15.8275C28.8922 15.6224 28.8142 15.3827 28.6209 15.2921C28.4276 15.2016 28.1923 15.2945 28.0952 15.4996C27.9981 15.7048 28.0761 15.9445 28.2694 16.035C28.4627 16.1256 28.6981 16.0327 28.7952 15.8275Z" fill="#78422F"/>
<path d="M28.746 12.4878C28.8091 12.3545 28.7584 12.1986 28.6327 12.1398C28.5071 12.0809 28.3541 12.1413 28.291 12.2747C28.2279 12.408 28.2786 12.5638 28.4043 12.6227C28.5299 12.6815 28.6829 12.6211 28.746 12.4878Z" fill="#78422F"/>
<path d="M22.4027 11.8608C22.4658 11.7275 22.4151 11.5717 22.2895 11.5128C22.1638 11.454 22.0108 11.5144 21.9477 11.6477C21.8846 11.7811 21.9353 11.9369 22.061 11.9957C22.1866 12.0546 22.3396 11.9942 22.4027 11.8608Z" fill="#78422F"/>
<path d="M23.9521 10.4283C24.1403 10.4386 24.1094 10.7195 23.9211 10.7606C23.6245 10.8247 23.6619 10.4103 23.9521 10.4283Z" fill="#78422F"/>
<path d="M22.7014 14.8267C22.8897 14.8382 22.8587 15.1192 22.6705 15.1602C22.3726 15.2244 22.4048 14.81 22.7014 14.8267Z" fill="#78422F"/>
<path d="M22.0815 14.2442C22.3574 14.2609 22.311 14.6714 22.0364 14.7304C21.5992 14.8254 21.6534 14.2147 22.0815 14.2442Z" fill="#78422F"/>
<path d="M30.5774 14.1042C30.5709 13.919 30.5536 13.7344 30.5258 13.5512C30.4422 13.0262 30.2741 12.5181 30.0281 12.0463C29.8992 11.8077 29.7805 11.569 29.6529 11.333C29.266 10.6094 28.7051 9.98331 28.0398 9.64718C26.8109 9.02494 25.858 8.68752 24.9657 8.7042C23.3359 8.73499 22.5158 9.4047 21.7421 10.1591C21.6132 10.2874 21.4907 10.4067 21.363 10.5311C21.3011 10.5927 21.2418 10.6594 21.1851 10.7184L21.2689 10.6363C22.0425 9.88196 22.8562 9.21225 24.486 9.18146C25.3783 9.16478 26.3313 9.5022 27.5601 10.1244C28.2255 10.4606 28.7864 11.0867 29.1732 11.8102C29.3021 12.0463 29.4311 12.2849 29.5484 12.5236C29.7945 12.9954 29.9625 13.5035 30.0462 14.0285C30.074 14.2117 30.0912 14.3963 30.0977 14.5814C30.1493 16.0799 29.4827 17.4039 28.6213 18.3661C29.7032 17.3911 30.638 15.8682 30.5774 14.1042Z" fill="#FFEA5E"/>
<path d="M27.453 19.1937C26.8508 19.5003 25.7161 20.1148 23.3474 19.3322C23.1708 19.2745 22.998 19.2039 22.8316 19.1334C22.1469 18.1917 21.5022 17.0935 20.3933 16.4597C20.3092 16.2407 20.25 16.013 20.2166 15.781C19.9407 13.8861 19.9226 11.9488 21.3694 10.5311C21.4983 10.4028 21.6273 10.2745 21.7485 10.1591C22.5222 9.4047 23.3358 8.73499 24.9721 8.7042C25.8644 8.68752 26.8173 9.02494 28.0462 9.64718C28.7115 9.98331 29.2724 10.6094 29.6593 11.333C29.7882 11.569 29.9172 11.8077 30.0345 12.0463C30.2792 12.5183 30.446 13.0265 30.5284 13.5512C30.5562 13.7344 30.5734 13.919 30.5799 14.1042C30.6573 16.5033 28.8998 18.456 27.453 19.1937Z" stroke="#5C2929" stroke-width="1.2" stroke-linecap="round" stroke-linejoin="round"/>
<path d="M28.4058 18.7319C28.3546 18.6006 28.2965 18.4722 28.2317 18.347C28.1337 18.1558 28.0344 17.9621 27.9326 17.7786C27.6231 17.2 27.1769 16.701 26.6431 16.4328C25.6618 15.9376 24.9011 15.663 24.1932 15.681C22.6819 15.7105 22.0501 16.429 21.3254 17.1372C21.3164 17.1461 21.3074 17.1564 21.2983 17.1641C22.6097 18.4676 23.2325 20.3895 24.8675 20.7756C25.9275 21.0258 26.6869 20.7654 27.0596 20.0841C27.3638 19.5107 27.8324 19.04 28.4058 18.7319Z" fill="#FFB95E"/>
<path d="M24.9686 17.0669C25.0317 16.9336 24.981 16.7777 24.8554 16.7189C24.7297 16.66 24.5767 16.7204 24.5137 16.8538C24.4506 16.9871 24.5013 17.1429 24.6269 17.2018C24.7525 17.2606 24.9055 17.2002 24.9686 17.0669Z" fill="#78422F"/>
<path d="M28.2446 18.8241C28.1157 18.665 27.97 18.5085 27.8371 18.3545C27.7435 18.674 27.561 18.9605 27.3106 19.181C27.0601 19.4016 26.7521 19.5471 26.4221 19.6008C26.0921 19.6544 25.7535 19.6141 25.4455 19.4844C25.1376 19.3546 24.8728 19.1408 24.6819 18.8677C24.5091 18.6214 24.393 18.325 24.1532 18.1441C23.8953 17.9453 23.5317 17.9273 23.2428 17.7682C23.0595 17.6647 22.9125 17.5078 22.8215 17.3186C22.7305 17.1294 22.7 16.9171 22.734 16.7101C22.768 16.5031 22.8649 16.3115 23.0116 16.1609C23.1584 16.0104 23.348 15.9082 23.5549 15.8682L23.2286 15.813C22.3673 16.0567 21.8734 16.5982 21.3254 17.1331C21.3164 17.1421 21.3074 17.1524 21.2983 17.1601C22.6097 18.4636 23.2325 20.3854 24.8675 20.7716C25.9275 21.0218 26.6869 20.7613 27.0596 20.0801C27.3352 19.564 27.7443 19.1304 28.2446 18.8241Z" fill="#D9724C"/>
<path d="M25.3265 19.7134C25.3896 19.58 25.3389 19.4242 25.2133 19.3654C25.0877 19.3065 24.9347 19.3669 24.8716 19.5003C24.8085 19.6336 24.8592 19.7894 24.9848 19.8483C25.1105 19.9071 25.2635 19.8467 25.3265 19.7134Z" fill="#78422F"/>
<path d="M26.1184 18.3573C26.2155 18.1522 26.1375 17.9125 25.9442 17.8219C25.7509 17.7314 25.5155 17.8243 25.4184 18.0294C25.3214 18.2346 25.3994 18.4743 25.5927 18.5648C25.786 18.6554 26.0213 18.5625 26.1184 18.3573Z" fill="#78422F"/>
<path d="M23.7019 18.8547C23.8584 18.5239 23.733 18.1376 23.4218 17.9918C23.1106 17.846 22.7314 17.996 22.5749 18.3268C22.4184 18.6576 22.5438 19.044 22.855 19.1897C23.1662 19.3355 23.5454 19.1855 23.7019 18.8547Z" fill="#78422F"/>
<path d="M23.8634 16.234C24.5751 16.2198 25.3346 16.4906 26.3133 16.9858C26.8446 17.2539 27.2907 17.7555 27.6028 18.3303C27.7033 18.5202 27.8026 18.7088 27.9006 18.8999C27.9213 18.9384 27.9393 18.9795 27.9587 19.0193C28.099 18.9112 28.2483 18.8151 28.4048 18.7319C28.3536 18.6006 28.2955 18.4722 28.2307 18.347C28.1327 18.1558 28.0334 17.9621 27.9316 17.7786C27.6221 17.2 27.176 16.701 26.6421 16.4328C25.6609 15.9376 24.9001 15.663 24.1922 15.681C22.6809 15.7105 22.0491 16.429 21.3244 17.1372C21.3154 17.1461 21.3064 17.1564 21.2974 17.1641C21.3378 17.2043 21.3764 17.2441 21.4134 17.2834C22.0001 16.7279 22.6461 16.2571 23.8634 16.234Z" fill="#FFEA5E"/>
<path d="M28.4058 18.7319C28.3546 18.6006 28.2965 18.4722 28.2317 18.347C28.1337 18.1558 28.0344 17.9621 27.9326 17.7786C27.6231 17.2 27.1769 16.701 26.6431 16.4328C25.6618 15.9376 24.9011 15.663 24.1932 15.681C22.6819 15.7105 22.0501 16.429 21.3254 17.1372C21.3164 17.1461 21.3074 17.1564 21.2983 17.1641C22.6097 18.4676 23.2325 20.3895 24.8675 20.7756C25.9275 21.0258 26.6869 20.7654 27.0596 20.0841C27.3638 19.5107 27.8324 19.04 28.4058 18.7319Z" stroke="#5C2929" stroke-width="1.2" stroke-linecap="round" stroke-linejoin="round"/>
<path d="M24.9968 27.1005C23.5617 28.5053 23.5784 30.4272 23.8544 32.3054C23.8989 32.6124 23.9888 32.9112 24.1213 33.192L24.1664 33.2766L24.2128 33.3652L24.5262 33.9605C24.5455 33.9964 24.5662 34.0297 24.5855 34.0644C27.2392 33.4229 29.4403 32.1977 30.192 30.4452C30.8612 28.8864 30.4499 27.1852 29.9264 25.5109C29.4867 25.3643 29.0259 25.2902 28.5622 25.2915C26.6821 25.3262 25.8982 26.2178 24.9968 27.1005Z" fill="#5C2929"/>
<path d="M25.1216 32.4977C25.1049 32.4682 25.0894 32.4387 25.0739 32.4092L25.0301 32.3245C24.8973 32.0435 24.8078 31.7442 24.7645 31.4367C24.4898 29.5584 24.4717 27.6379 25.9069 26.2317C26.8095 25.3504 27.5922 24.4574 29.4709 24.4215C30.3555 24.4048 31.2994 24.7397 32.5179 25.3555C33.1781 25.6891 33.7326 26.31 34.1168 27.0233C34.2432 27.2577 34.3674 27.4933 34.4895 27.7302C34.7332 28.199 34.8999 28.7036 34.9833 29.2249C35.3831 31.8511 33.4798 34.0308 31.9377 34.8186C31.3419 35.1226 30.2162 35.7308 27.8682 34.9558C26.8456 34.6184 25.925 34.0129 25.4363 33.0904L25.1216 32.4977Z" fill="#FFB95E"/>
<path d="M24.8885 30.9404C24.9334 31.2473 25.0234 31.546 25.1554 31.8269L25.2005 31.9116C25.216 31.9411 25.2315 31.9706 25.2482 32.0001L25.5616 32.5941C26.0503 33.5179 26.971 34.1221 27.9935 34.4608C30.3416 35.2306 31.4673 34.6263 32.063 34.3223C33.3617 33.6144 34.3595 32.4635 34.8727 31.0815C35.0527 30.4353 35.094 29.7586 34.9939 29.0955C34.9511 28.8229 34.8842 28.5546 34.794 28.2937L34.8044 28.5425C34.914 29.2456 35.0236 29.9769 34.8044 30.7043C34.5851 31.4318 33.9533 32.1541 33.2119 32.2259C32.9411 32.2529 32.669 32.1938 32.4034 32.2913C32.1133 32.3978 31.9031 32.6634 31.68 32.8879C31.1803 33.4032 30.5162 33.7298 29.8013 33.8116C29.1218 33.8707 28.459 33.6231 28.0747 33.1278C27.8542 32.843 27.7253 32.4864 27.4854 32.2182C27.0225 31.705 26.196 31.5613 25.8375 30.9584C25.6402 30.6209 25.6261 30.1886 25.617 29.7819L25.5745 27.6855C25.5629 27.1724 25.5655 26.6181 25.8607 26.1562C25.4437 26.5773 25.125 27.0845 24.9272 27.6419C24.6525 28.6785 24.726 29.8165 24.8885 30.9404Z" fill="#D9724C"/>
<path d="M34.7696 29.7294C34.6865 29.2087 34.5203 28.7045 34.277 28.2361C34.1541 28 34.0299 27.7644 33.9044 27.5292C33.5175 26.812 32.9657 26.1923 32.3055 25.8613C31.0869 25.2442 30.1418 24.9094 29.2572 24.9261C27.3798 24.962 26.5945 25.8549 25.6945 26.7376C25.375 27.0476 25.1097 27.4084 24.9092 27.805C25.1153 27.2115 25.4574 26.6739 25.9085 26.2347C26.8111 25.3533 27.5938 24.4603 29.4725 24.4244C30.3571 24.4077 31.301 24.7426 32.5195 25.3584C33.1797 25.692 33.7342 26.3129 34.1184 27.0263C34.2448 27.2606 34.369 27.4962 34.4911 27.7332C34.8482 28.4122 35.0363 29.1666 35.0396 29.933C35.043 30.6994 34.8615 31.4554 34.5104 32.1376C34.8017 31.37 34.8909 30.541 34.7696 29.7294Z" fill="#FFEA5E"/>
<path d="M28.9445 29.124C29.108 28.7785 28.9768 28.3748 28.6514 28.2224C28.3261 28.07 27.9297 28.2266 27.7662 28.5721C27.6028 28.9176 27.734 29.3213 28.0594 29.4737C28.3847 29.6261 28.7811 29.4696 28.9445 29.124Z" fill="#78422F"/>
<path d="M31.8262 27.3231C32.0237 26.9058 31.8652 26.4182 31.4721 26.2341C31.0791 26.05 30.6004 26.2391 30.403 26.6565C30.2055 27.0738 30.364 27.5614 30.7571 27.7454C31.1501 27.9295 31.6288 27.7405 31.8262 27.3231Z" fill="#78422F"/>
<path d="M32.0666 30.5811C32.2301 30.2355 32.0989 29.8319 31.7735 29.6795C31.4481 29.527 31.0518 29.6836 30.8883 30.0291C30.7248 30.3747 30.8561 30.7783 31.1814 30.9307C31.5068 31.0832 31.9031 30.9266 32.0666 30.5811Z" fill="#78422F"/>
<path d="M30.3248 29.0539C30.4265 28.8392 30.3448 28.5883 30.1425 28.4935C29.9402 28.3987 29.6938 28.496 29.5922 28.7108C29.4906 28.9255 29.5722 29.1764 29.7745 29.2712C29.9768 29.366 30.2232 29.2687 30.3248 29.0539Z" fill="#78422F"/>
<path d="M34.1577 30.2624C34.2084 30.1554 34.1675 30.0302 34.0663 29.9828C33.9652 29.9354 33.8421 29.9838 33.7914 30.0908C33.7408 30.1979 33.7817 30.3231 33.8829 30.3705C33.984 30.4178 34.1071 30.3695 34.1577 30.2624Z" fill="#78422F"/>
<path d="M30.167 33.1545C30.2177 33.0474 30.1767 32.9222 30.0756 32.8749C29.9744 32.8275 29.8514 32.8759 29.8007 32.9829C29.75 33.09 29.791 33.2152 29.8921 33.2626C29.9933 33.3099 30.1164 33.2616 30.167 33.1545Z" fill="#78422F"/>
<path d="M29.653 32.07C29.7546 31.8553 29.6729 31.6044 29.4706 31.5096C29.2683 31.4148 29.0219 31.5121 28.9203 31.7269C28.8187 31.9416 28.9003 32.1925 29.1027 32.2873C29.305 32.3821 29.5513 32.2848 29.653 32.07Z" fill="#78422F"/>
<path d="M33.6202 31.614C33.7219 31.3992 33.6402 31.1483 33.4379 31.0535C33.2356 30.9588 32.9892 31.0561 32.8876 31.2708C32.786 31.4856 32.8676 31.7365 33.0699 31.8313C33.2723 31.926 33.5186 31.8287 33.6202 31.614Z" fill="#78422F"/>
<path d="M33.5689 28.1242C33.635 27.9845 33.582 27.8213 33.4506 27.7597C33.3192 27.6981 33.159 27.7615 33.0929 27.9013C33.0268 28.041 33.0797 28.2042 33.2111 28.2658C33.3426 28.3273 33.5027 28.264 33.5689 28.1242Z" fill="#78422F"/>
<path d="M26.9414 27.4694C27.0075 27.3297 26.9546 27.1665 26.8232 27.1049C26.6917 27.0433 26.5316 27.1067 26.4654 27.2465C26.3993 27.3862 26.4523 27.5494 26.5837 27.611C26.7151 27.6726 26.8753 27.6092 26.9414 27.4694Z" fill="#78422F"/>
<path d="M25.1216 32.4977C25.1049 32.4682 25.0894 32.4387 25.0739 32.4092L25.0301 32.3245C24.8973 32.0435 24.8078 31.7442 24.7645 31.4367C24.4898 29.5584 24.4717 27.6379 25.9069 26.2317C26.8095 25.3504 27.5922 24.4574 29.4709 24.4215C30.3555 24.4048 31.2994 24.7397 32.5179 25.3555C33.1781 25.6891 33.7326 26.31 34.1168 27.0233C34.2432 27.2577 34.3674 27.4933 34.4895 27.7302C34.7332 28.199 34.8999 28.7036 34.9833 29.2249C35.3831 31.8511 33.4798 34.0308 31.9377 34.8186C31.3419 35.1226 30.2162 35.7308 27.8682 34.9558C26.8456 34.6184 25.925 34.0129 25.4363 33.0904L25.1216 32.4977Z" stroke="#5C2929" stroke-width="1.2" stroke-linecap="round" stroke-linejoin="round"/>
<path d="M28.5605 25.9727C28.7578 25.9843 28.7243 26.2768 28.5283 26.3191C28.2163 26.3871 28.2562 25.9548 28.5605 25.9727Z" fill="#78422F"/>
<path d="M27.2519 30.5684C27.4492 30.5812 27.417 30.8738 27.2197 30.9161C26.9077 30.9841 26.9476 30.5505 27.2519 30.5684Z" fill="#78422F"/>
<path d="M26.603 29.9588C26.8919 29.9767 26.8442 30.4052 26.5566 30.4719C26.1001 30.5669 26.1569 29.9331 26.603 29.9588Z" fill="#78422F"/>
<defs>
<radialGradient id="paint0_radial_1_17390" cx="0" cy="0" r="1" gradientUnits="userSpaceOnUse" gradientTransform="translate(20.5417 21.6685) scale(18.835 18.7401)">
<stop offset="0.38" stop-color="#FFD952"/>
<stop offset="0.48" stop-color="#F4BC4A"/>
<stop offset="0.7" stop-color="#DE853A"/>
<stop offset="0.85" stop-color="#D16331"/>
<stop offset="0.94" stop-color="#CC562D"/>
</radialGradient>
</defs>
</svg>
