<svg width="40" height="40" viewBox="0 0 40 40" fill="none" xmlns="http://www.w3.org/2000/svg">
<path d="M10.5406 5.22989H30.9219C32.7945 5.22989 34.5905 5.94022 35.9146 7.20461C37.2387 8.469 37.9826 10.1839 37.9826 11.972V31.2352C37.9826 33.0233 37.2387 34.7382 35.9146 36.0026C34.5905 37.267 32.7945 37.9773 30.9219 37.9773H10.5406C8.27918 37.9748 6.11128 37.1151 4.51314 35.5873C2.915 34.0595 2.01733 31.9884 2.01733 29.829V13.3686C2.01733 12.2998 2.2378 11.2415 2.66613 10.254C3.09447 9.26661 3.72229 8.3694 4.51375 7.61366C5.30521 6.85791 6.24481 6.25842 7.27891 5.84941C8.313 5.4404 9.42134 5.22989 10.5406 5.22989Z" fill="#B86041"/>
<path d="M30.9219 1.92632C34.8356 1.92632 37.9827 5.23959 37.9827 9.32338V30.6092C37.9827 34.7026 34.8053 38.0159 30.9219 38.0159H10.5406C5.83014 38.0159 2.01735 34.0188 2.01735 29.1067V10.8644C2.01735 5.96195 5.83014 1.96484 10.5406 1.96484H30.9219M30.9219 0.0385236H10.5406C4.73068 0.0385236 0 4.85432 0 10.8644V29.1645C0 35.136 4.73068 40 10.5406 40H30.9219C35.9653 40 40 35.8103 40 30.667V9.32338C40 4.18011 35.9149 0 30.9219 0V0.0385236Z" fill="#4C2B28"/>
<path d="M10.5408 1.92627H30.9221C32.8234 1.96173 34.6328 2.7138 35.9556 4.01839C37.2784 5.32298 38.0071 7.0742 37.9828 8.88991V28.7117C38.0098 30.5291 37.2823 32.2828 35.9592 33.5895C34.6361 34.8961 32.8251 35.6495 30.9221 35.685H10.5408C8.24624 35.6495 6.06018 34.7463 4.46226 33.1735C2.86435 31.6008 1.9851 29.4869 2.01746 27.2959V10.3058C1.98512 8.11561 2.86468 6.0028 4.46288 4.43157C6.06108 2.86034 8.24715 1.95924 10.5408 1.92627Z" fill="#FFBA6B"/>
<path d="M4.22607 16.8941V25.7167C4.22607 30.7444 7.25209 33.239 12.7695 33.239H28.1175C33.7056 33.239 35.3901 30.3495 35.3901 25.264V16.8941H4.22607Z" fill="#F6A45D"/>
<g filter="url(#filter0_d_1_26879)">
<path d="M26.0002 16.5223L24.5902 15L20.0002 19.9447L15.4102 15L14.0002 16.5223L20.0002 23L26.0002 16.5223Z" fill="white"/>
<path d="M26.22 16.7266L20.22 23.2041L20.0002 23.4414L19.7805 23.2041L13.7805 16.7266L13.5911 16.5225L13.7805 16.3184L15.1897 14.7959L15.4104 14.5586L15.6301 14.7959L20.0002 19.5029L24.3704 14.7959L24.5901 14.5586L24.8108 14.7959L26.22 16.3184L26.4094 16.5225L26.22 16.7266Z" stroke="#B35E40" stroke-width="0.6"/>
</g>
<defs>
<filter id="filter0_d_1_26879" x="13.1824" y="14.1176" width="13.6357" height="10.9654" filterUnits="userSpaceOnUse" color-interpolation-filters="sRGB">
<feFlood flood-opacity="0" result="BackgroundImageFix"/>
<feColorMatrix in="SourceAlpha" type="matrix" values="0 0 0 0 0 0 0 0 0 0 0 0 0 0 0 0 0 0 127 0" result="hardAlpha"/>
<feOffset dy="1.2"/>
<feComposite in2="hardAlpha" operator="out"/>
<feColorMatrix type="matrix" values="0 0 0 0 0.701961 0 0 0 0 0.368627 0 0 0 0 0.25098 0 0 0 1 0"/>
<feBlend mode="normal" in2="BackgroundImageFix" result="effect1_dropShadow_1_26879"/>
<feBlend mode="normal" in="SourceGraphic" in2="effect1_dropShadow_1_26879" result="shape"/>
</filter>
</defs>
</svg>
