<svg width="162" height="28" viewBox="0 0 162 28" fill="none" xmlns="http://www.w3.org/2000/svg">
<path d="M0 10C0 4.47715 4.47715 0 10 0H152C157.523 0 162 4.47715 162 10V18C162 23.5228 157.523 28 152 28H10C4.47716 28 0 23.5228 0 18V10Z" fill="#B86041"/>
<path d="M0 10C0 4.47715 4.47715 0 10 0H152C157.523 0 162 4.47715 162 10V16C162 21.5228 157.523 26 152 26H10C4.47716 26 0 21.5228 0 16V10Z" fill="#FFBE33"/>
<path d="M2 14H160C160 19.5228 155.523 24 150 24H12C6.47715 24 2 19.5228 2 14Z" fill="#F08F2D"/>
</svg>
