<svg width="1920" height="12" viewBox="0 0 1920 12" fill="none" xmlns="http://www.w3.org/2000/svg">
<g filter="url(#filter0_i_1_11783)">
<path d="M1920 11.824V0H0V12C4 12 7.45 11.464 8.82 10.896C9.82 11.384 12.17 11.76 15.19 11.912C16.19 11.968 17.29 12 18.41 12C19.53 12 20.61 12 21.62 11.912C23.6584 11.8835 25.6803 11.6139 27.62 11.112C30.5129 11.7341 33.5066 12.0038 36.5 11.912C40.78 11.912 44.42 11.488 45.88 10.896C46.88 11.384 49.22 11.76 52.25 11.912C53.25 11.968 54.33 12 55.46 12C56.59 12 57.76 12 58.8 11.912C61.95 11.736 64.38 11.328 65.19 10.808C66.49 11.448 70.29 11.912 74.8 11.912C79.08 11.912 82.72 11.488 84.17 10.896C85.17 11.384 87.51 11.76 90.53 11.912C91.53 11.968 92.64 12 93.76 12C94.88 12 95.95 12 96.96 11.912C98.9985 11.8844 101.021 11.6148 102.96 11.112C105.856 11.7335 108.853 12.0031 111.85 11.912C116.13 11.912 119.77 11.488 121.23 10.896C122.23 11.384 124.58 11.76 127.6 11.912C128.6 11.968 129.69 12 130.81 12C131.93 12 133.05 12 134.06 11.912C137.12 11.752 139.5 11.36 140.45 10.872C141.85 11.48 145.53 11.912 149.87 11.912C154.21 11.912 157.8 11.488 159.25 10.896C160.25 11.384 162.59 11.76 165.61 11.912C166.61 11.968 167.72 12 168.84 12C169.96 12 171.03 12 172.03 11.912C174.068 11.8835 176.09 11.6139 178.03 11.112C180.927 11.7326 183.923 12.0023 186.92 11.912C191.2 11.912 194.86 11.488 196.29 10.896C197.29 11.384 199.65 11.76 202.67 11.912C203.67 11.968 204.76 12 205.88 12C207 12 208.2 12 209.23 11.912C212.38 11.736 214.79 11.328 215.63 10.808C216.9 11.448 220.71 11.912 225.21 11.912C229.49 11.912 233.14 11.488 234.59 10.896C235.59 11.384 237.93 11.76 240.96 11.912C241.96 11.968 243.04 12 244.18 12C245.32 12 246.37 12 247.37 11.912C249.409 11.8868 251.431 11.6172 253.37 11.112C256.263 11.733 259.257 12.0027 262.25 11.912C266.54 11.912 270.19 11.488 271.63 10.896C272.63 11.384 274.99 11.76 278.01 11.912C279.01 11.968 280.08 12 281.22 12C282.36 12 283.44 12 284.46 11.912C287.46 11.752 289.89 11.376 290.84 10.88C292.26 11.48 295.93 11.912 300.25 11.912C304.57 11.912 308.19 11.488 309.63 10.896C310.63 11.384 312.98 11.76 316 11.912C317 11.968 318.08 12 319.21 12C320.34 12 321.42 12 322.42 11.912C324.458 11.8835 326.48 11.6139 328.42 11.112C331.316 11.7341 334.313 12.0037 337.31 11.912C341.59 11.912 345.23 11.488 346.68 10.896C347.68 11.384 350.02 11.76 353.04 11.912C354.04 11.968 355.15 12 356.27 12C357.39 12 358.57 12 359.63 11.912C362.76 11.736 365.18 11.328 366 10.808C367.29 11.448 371.1 11.912 375.6 11.912C379.88 11.912 383.53 11.488 384.98 10.896C385.98 11.384 388.32 11.76 391.35 11.912C392.35 11.968 393.43 12 394.57 12C395.71 12 396.76 12 397.76 11.912C399.798 11.8835 401.82 11.6139 403.76 11.112C406.653 11.7335 409.647 12.0032 412.64 11.912C416.93 11.912 420.57 11.488 422.02 10.896C423.02 11.384 425.38 11.76 428.4 11.912C429.4 11.968 430.47 12 431.61 12C432.75 12 433.85 12 434.87 11.912C437.92 11.752 440.32 11.36 441.24 10.872C442.65 11.48 446.32 11.912 450.67 11.912C455.02 11.912 458.59 11.488 460.05 10.896C461.05 11.384 463.39 11.76 466.42 11.912C467.42 11.968 468.5 12 469.63 12C470.76 12 471.82 12 472.83 11.912C474.868 11.8835 476.89 11.6139 478.83 11.112C481.723 11.733 484.717 12.0027 487.71 11.912C491.99 11.912 495.65 11.488 497.09 10.896C498.09 11.384 500.44 11.76 503.46 11.912C504.46 11.968 505.54 12 506.68 12C507.82 12 508.98 12 510.03 11.912C513.18 11.736 515.59 11.328 516.42 10.808C517.7 11.448 521.5 11.912 526.01 11.912C530.29 11.912 533.93 11.488 535.39 10.896C536.34 11.384 538.73 11.76 541.75 11.912C542.75 11.968 543.85 12 544.97 12C546.09 12 547.16 12 548.17 11.912C550.208 11.8843 552.23 11.6147 554.17 11.112C557.063 11.733 560.057 12.0027 563.05 11.912C567.33 11.912 570.99 11.488 572.43 10.896C573.43 11.384 575.78 11.76 578.8 11.912C579.8 11.968 580.9 12 582.01 12C583.12 12 584.28 12 585.32 11.912C588.5 11.736 590.93 11.32 591.76 10.8C593.23 11.448 597.61 11.912 602.13 11.912C606.41 11.912 610.05 11.488 611.51 10.896C612.51 11.384 614.85 11.76 617.87 11.912C618.87 11.968 619.98 12 621.09 12C622.2 12 623.28 12 624.29 11.912C626.328 11.8843 628.35 11.6147 630.29 11.112C633.183 11.733 636.177 12.0027 639.17 11.912C643.45 11.912 647.11 11.488 648.55 10.896C649.55 11.384 651.91 11.76 654.93 11.912C655.93 11.968 657.02 12 658.14 12C659.26 12 660.45 12 661.49 11.912C664.64 11.736 667.05 11.328 667.88 10.808C669.16 11.448 672.96 11.912 677.47 11.912C681.75 11.912 685.39 11.488 686.85 10.896C687.85 11.384 690.2 11.76 693.22 11.912C694.22 11.968 695.3 12 696.43 12C697.56 12 698.62 12 699.63 11.912C701.669 11.886 703.691 11.6163 705.63 11.112C708.53 11.7334 711.53 12.0031 714.53 11.912C718.81 11.912 722.45 11.488 723.91 10.896C724.91 11.384 727.24 11.76 730.26 11.912C731.26 11.968 732.37 12 733.49 12C734.61 12 735.71 12 736.73 11.912C739.79 11.752 742.18 11.36 743.11 10.872C744.52 11.48 748.21 11.912 752.54 11.912C756.87 11.912 760.46 11.488 761.91 10.896C762.91 11.384 765.27 11.76 768.29 11.912C769.29 11.968 770.37 12 771.5 12C772.63 12 773.69 12 774.7 11.912C776.739 11.887 778.761 11.6173 780.7 11.112C783.6 11.7327 786.6 12.0024 789.6 11.912C793.89 11.912 797.53 11.488 798.98 10.896C799.98 11.384 802.32 11.76 805.34 11.912C806.34 11.968 807.45 12 808.57 12C809.69 12 810.87 12 811.92 11.912C815.06 11.736 817.47 11.328 818.3 10.808C819.59 11.448 823.4 11.912 827.88 11.912C832.17 11.912 835.88 11.488 837.26 10.896C838.26 11.384 840.62 11.76 843.64 11.912C844.64 11.968 845.73 12 846.85 12C847.97 12 849.05 12 850.06 11.912C852.098 11.8835 854.12 11.6139 856.06 11.112C858.953 11.7335 861.947 12.0032 864.94 11.912C869.22 11.912 872.87 11.488 874.32 10.896C875.32 11.384 877.66 11.76 880.7 11.912C881.7 11.968 882.77 12 883.91 12C885.05 12 886.13 12 887.13 11.912C890.19 11.752 892.58 11.376 893.53 10.88C894.95 11.48 898.62 11.912 902.94 11.912C907.26 11.912 910.86 11.488 912.31 10.896C913.31 11.384 915.65 11.76 918.69 11.912C919.69 11.968 920.77 12 921.9 12C923.03 12 924.09 12 925.1 11.912C927.138 11.8827 929.16 11.6131 931.1 11.112C933.993 11.733 936.987 12.0027 939.98 11.912C944.26 11.912 947.92 11.488 949.36 10.896C950.36 11.384 952.71 11.76 955.73 11.912C956.73 11.968 957.81 12 958.94 12C960.07 12 961.24 12 962.3 11.912C965.45 11.736 967.86 11.328 968.69 10.808C969.97 11.448 973.77 11.912 978.27 11.912C982.56 11.912 986.2 11.488 987.65 10.896C988.65 11.384 991.01 11.76 994.03 11.912C995.03 11.968 996.12 12 997.24 12C998.36 12 999.43 12 1000.43 11.912C1002.47 11.886 1004.49 11.6163 1006.43 11.112C1009.33 11.7327 1012.33 12.0024 1015.33 11.912C1019.61 11.912 1023.26 11.488 1024.71 10.896C1025.71 11.384 1028.05 11.76 1031.09 11.912C1032.09 11.968 1033.16 12 1034.3 12C1035.44 12 1036.52 12 1037.54 11.912C1040.54 11.752 1042.97 11.36 1043.92 10.872C1045.32 11.48 1049.01 11.912 1053.34 11.912C1057.67 11.912 1061.27 11.488 1062.72 10.896C1063.72 11.384 1066.08 11.76 1069.1 11.912C1070.1 11.968 1071.19 12 1072.31 12C1073.43 12 1074.5 12 1075.5 11.912C1077.54 11.8852 1079.56 11.6155 1081.5 11.112C1084.4 11.7334 1087.4 12.0031 1090.4 11.912C1094.68 11.912 1098.32 11.488 1099.78 10.896C1100.78 11.384 1103.12 11.76 1106.15 11.912C1107.15 11.968 1108.23 12 1109.36 12C1110.49 12 1111.67 12 1112.7 11.912C1115.85 11.736 1118.26 11.328 1119.09 10.808C1120.39 11.448 1124.19 11.912 1128.68 11.912C1132.96 11.912 1136.62 11.488 1138.06 10.896C1139.06 11.384 1141.41 11.76 1144.43 11.912C1145.43 11.968 1146.51 12 1147.65 12C1148.79 12 1149.85 12 1150.86 11.912C1152.9 11.8835 1154.92 11.6139 1156.86 11.112C1159.75 11.7341 1162.75 12.0038 1165.74 11.912C1170.02 11.912 1173.66 11.488 1175.12 10.896C1176.12 11.384 1178.46 11.76 1181.48 11.912C1182.48 11.968 1183.59 12 1184.7 12C1185.81 12 1186.96 12 1187.98 11.912C1191.08 11.744 1193.47 11.352 1194.37 10.848C1195.73 11.464 1199.47 11.912 1203.84 11.912C1208.21 11.912 1211.78 11.488 1213.22 10.896C1214.22 11.384 1216.58 11.76 1219.6 11.912C1220.6 11.968 1221.67 12 1222.81 12C1223.95 12 1225.01 12 1226.02 11.912C1228.06 11.8835 1230.08 11.6139 1232.02 11.112C1234.91 11.7335 1237.91 12.0032 1240.9 11.912C1245.18 11.912 1248.83 11.488 1250.28 10.896C1251.28 11.384 1253.62 11.76 1256.64 11.912C1257.64 11.968 1258.75 12 1259.87 12C1260.99 12 1262.17 12 1263.22 11.912C1266.35 11.736 1268.78 11.328 1269.6 10.808C1270.89 11.448 1274.69 11.912 1279.2 11.912C1283.48 11.912 1287.12 11.488 1288.58 10.896C1289.58 11.384 1291.92 11.76 1294.95 11.912C1295.95 11.968 1297.03 12 1298.16 12C1299.29 12 1300.35 12 1301.36 11.912C1303.4 11.8835 1305.42 11.6139 1307.36 11.112C1310.25 11.7335 1313.25 12.0032 1316.24 11.912C1320.52 11.912 1324.17 11.488 1325.62 10.896C1326.62 11.384 1328.97 11.76 1331.99 11.912C1332.99 11.968 1334.07 12 1335.21 12C1336.35 12 1337.44 12 1338.46 11.912C1341.52 11.752 1343.91 11.36 1344.84 10.872C1346.25 11.48 1349.92 11.912 1354.27 11.912C1358.62 11.912 1362.19 11.488 1363.64 10.896C1364.64 11.384 1366.98 11.76 1370.02 11.912C1371.02 11.968 1372.1 12 1373.23 12C1374.36 12 1375.42 12 1376.43 11.912C1378.47 11.8827 1380.49 11.6131 1382.43 11.112C1385.32 11.733 1388.32 12.0027 1391.31 11.912C1395.59 11.912 1399.25 11.488 1400.69 10.896C1401.69 11.384 1404.04 11.76 1407.06 11.912C1408.06 11.968 1409.14 12 1410.27 12C1411.4 12 1412.57 12 1413.63 11.912C1416.78 11.736 1419.19 11.328 1420.02 10.808C1421.3 11.448 1425.1 11.912 1429.6 11.912C1433.89 11.912 1437.53 11.488 1438.98 10.896C1439.98 11.384 1442.32 11.76 1445.34 11.912C1446.34 11.968 1447.45 12 1448.57 12C1449.69 12 1450.76 12 1451.76 11.912C1453.8 11.886 1455.82 11.6163 1457.76 11.112C1460.66 11.7326 1463.65 12.0023 1466.65 11.912C1470.93 11.912 1474.59 11.488 1476.03 10.896C1477.03 11.384 1479.38 11.76 1482.4 11.912C1483.4 11.968 1484.49 12 1485.61 12C1486.73 12 1487.83 12 1488.85 11.912C1491.91 11.752 1494.3 11.376 1495.23 10.88C1496.65 11.48 1500.33 11.912 1504.64 11.912C1508.95 11.912 1512.58 11.488 1514.02 10.896C1515.02 11.384 1517.37 11.76 1520.39 11.912C1521.39 11.968 1522.49 12 1523.6 12C1524.71 12 1525.81 12 1526.82 11.912C1528.86 11.8827 1530.88 11.6131 1532.82 11.112C1535.71 11.7341 1538.71 12.0038 1541.7 11.912C1545.98 11.912 1549.62 11.488 1551.08 10.896C1552.08 11.384 1554.42 11.76 1557.45 11.912C1558.45 11.968 1559.53 12 1560.66 12C1561.79 12 1562.96 12 1564 11.912C1567.15 11.736 1569.58 11.328 1570.39 10.808C1571.69 11.448 1575.49 11.912 1579.99 11.912C1584.28 11.912 1587.92 11.488 1589.37 10.896C1590.37 11.384 1592.71 11.76 1595.73 11.912C1596.73 11.968 1597.84 12 1598.96 12C1600.08 12 1601.15 12 1602.15 11.912C1604.19 11.8843 1606.21 11.6147 1608.15 11.112C1611.05 11.7335 1614.04 12.0031 1617.04 11.912C1621.32 11.912 1624.96 11.488 1626.42 10.896C1627.42 11.384 1629.77 11.76 1632.79 11.912C1633.79 11.968 1634.88 12 1636 12C1637.12 12 1638.24 12 1639.24 11.912C1642.31 11.752 1644.69 11.36 1645.64 10.872C1647.04 11.48 1650.72 11.912 1655.06 11.912C1659.4 11.912 1662.99 11.488 1664.44 10.896C1665.44 11.384 1667.78 11.76 1670.8 11.912C1671.8 11.968 1672.91 12 1674.03 12C1675.15 12 1676.22 12 1677.22 11.912C1679.26 11.8835 1681.28 11.6139 1683.22 11.112C1686.11 11.733 1689.11 12.0027 1692.1 11.912C1696.39 11.912 1700.03 11.488 1701.48 10.896C1702.48 11.384 1704.84 11.76 1707.86 11.912C1708.86 11.968 1709.95 12 1711.07 12C1712.19 12 1713.39 12 1714.42 11.912C1717.57 11.736 1719.98 11.328 1720.81 10.808C1722.09 11.448 1725.9 11.912 1730.4 11.912C1734.68 11.912 1738.33 11.488 1739.78 10.896C1740.78 11.384 1743.12 11.76 1746.15 11.912C1747.15 11.968 1748.23 12 1749.37 12C1750.51 12 1751.55 12 1752.56 11.912C1754.6 11.8868 1756.62 11.6172 1758.56 11.112C1761.45 11.733 1764.45 12.0027 1767.44 11.912C1771.73 11.912 1775.38 11.488 1776.82 10.896C1777.82 11.384 1780.18 11.76 1783.2 11.912C1784.2 11.968 1785.27 12 1786.41 12C1787.55 12 1788.68 12 1789.7 11.912C1792.91 11.736 1795.35 11.32 1796.15 10.792C1797.61 11.448 1801.99 11.912 1806.52 11.912C1810.8 11.912 1814.45 11.488 1815.9 10.896C1816.9 11.384 1819.24 11.76 1822.28 11.912C1823.28 11.968 1824.35 12 1825.49 12C1826.63 12 1827.68 12 1828.68 11.912C1830.72 11.8835 1832.74 11.6139 1834.68 11.112C1837.58 11.7326 1840.57 12.0023 1843.57 11.912C1847.85 11.912 1851.51 11.488 1852.94 10.896C1853.94 11.384 1856.3 11.76 1859.32 11.912C1860.32 11.968 1861.4 12 1862.53 12C1863.66 12 1864.83 12 1865.88 11.912C1869.03 11.736 1871.44 11.328 1872.28 10.808C1873.55 11.448 1877.36 11.912 1881.86 11.912C1886.14 11.912 1889.79 11.488 1891.24 10.896C1892.24 11.384 1894.58 11.76 1897.61 11.912C1898.61 11.968 1899.71 12 1900.83 12C1901.95 12 1903.01 12 1904.02 11.912C1906.06 11.8852 1908.08 11.6155 1910.02 11.112C1912.91 11.733 1915.91 12.0027 1918.9 11.912C1919.27 11.8906 1919.63 11.8613 1920 11.824Z" fill="#FE9846"/>
</g>
<path d="M46.5703 8.57617C49.0556 8.57617 51.0703 7.23303 51.0703 5.57617C51.0703 3.91932 49.0556 2.57617 46.5703 2.57617C44.085 2.57617 42.0703 3.91932 42.0703 5.57617C42.0703 7.23303 44.085 8.57617 46.5703 8.57617Z" fill="#FCD592" fill-opacity="0.4"/>
<path d="M115 3.25586C112.29 3.25586 110.17 4.46386 110.17 5.99986C110.17 7.53586 112.29 8.74386 115 8.74386C117.71 8.74386 119.83 7.53586 119.83 5.99986C119.83 4.46386 117.75 3.25586 115 3.25586Z" fill="#FCD592" fill-opacity="0.4"/>
<path d="M261.08 1.14355C258.38 1.14355 256.26 2.34355 256.26 3.87955C256.26 5.41555 258.38 6.62355 261.08 6.62355C263.78 6.62355 265.92 5.41555 265.92 3.87955C265.92 2.34355 263.79 1.14355 261.08 1.14355Z" fill="#FCD592" fill-opacity="0.4"/>
<path d="M518.45 2.56836C515.74 2.56836 513.62 3.77636 513.62 5.31236C513.62 6.84836 515.74 8.04836 518.45 8.04836C521.16 8.04836 523.28 6.84836 523.28 5.31236C523.28 3.77636 521.15 2.56836 518.45 2.56836Z" fill="#FCD592" fill-opacity="0.4"/>
<path d="M725 6.11202C727.667 6.11202 729.83 4.88349 729.83 3.36802C729.83 1.85255 727.667 0.624023 725 0.624023C722.332 0.624023 720.17 1.85255 720.17 3.36802C720.17 4.88349 722.332 6.11202 725 6.11202Z" fill="#FCD592" fill-opacity="0.4"/>
<path d="M960 0.631836C957.29 0.631836 955.17 1.83183 955.17 3.36783C955.17 4.90383 957.29 6.11183 960 6.11183C962.71 6.11183 964.83 4.90383 964.83 3.36783C964.83 1.83183 962.71 0.631836 960 0.631836Z" fill="#FCD592" fill-opacity="0.4"/>
<path d="M1107.72 0.631836C1105.02 0.631836 1102.89 1.83183 1102.89 3.36783C1102.89 4.90383 1105.02 6.11183 1107.72 6.11183C1110.42 6.11183 1112.55 4.90383 1112.55 3.36783C1112.55 1.83183 1110.43 0.631836 1107.72 0.631836Z" fill="#FCD592" fill-opacity="0.4"/>
<path d="M1439.13 2.56836C1436.42 2.56836 1434.3 3.77636 1434.3 5.31236C1434.3 6.84836 1436.42 8.04836 1439.13 8.04836C1441.84 8.04836 1443.96 6.84836 1443.96 5.31236C1443.96 3.77636 1441.84 2.56836 1439.13 2.56836Z" fill="#FCD592" fill-opacity="0.4"/>
<path d="M1685.13 1.14355C1682.42 1.14355 1680.3 2.34355 1680.3 3.87955C1680.3 5.41555 1682.42 6.62355 1685.13 6.62355C1687.84 6.62355 1689.96 5.41555 1689.96 3.87955C1689.96 2.34355 1687.84 1.14355 1685.13 1.14355Z" fill="#FCD592" fill-opacity="0.4"/>
<path d="M1826.09 2.56836C1823.39 2.56836 1821.26 3.77636 1821.26 5.31236C1821.26 6.84836 1823.39 8.04836 1826.09 8.04836C1828.79 8.04836 1830.92 6.84836 1830.92 5.31236C1830.92 3.77636 1828.8 2.56836 1826.09 2.56836Z" fill="#FCD592" fill-opacity="0.4"/>
<path d="M1901.51 1.14355C1898.8 1.14355 1896.68 2.34355 1896.68 3.87955C1896.68 5.41555 1898.8 6.62355 1901.51 6.62355C1904.22 6.62355 1906.34 5.41555 1906.34 3.87955C1906.34 2.34355 1904.22 1.14355 1901.51 1.14355Z" fill="#FCD592" fill-opacity="0.4"/>
<path d="M1288.49 2.56836C1285.78 2.56836 1283.66 3.77636 1283.66 5.31236C1283.66 6.84836 1285.78 8.04836 1288.49 8.04836C1291.2 8.04836 1293.32 6.84836 1293.32 5.31236C1293.32 3.77636 1291.2 2.56836 1288.49 2.56836Z" fill="#FCD592" fill-opacity="0.4"/>
<path d="M196 0H178.64C178.64 2.624 182.44 4.68 187.3 4.68C192.16 4.68 196 2.624 196 0Z" fill="#FCD592" fill-opacity="0.4"/>
<path d="M290.429 1.432C290.422 0.934899 290.275 0.445467 289.999 0H273.519C273.246 0.445438 273.105 0.93569 273.109 1.432C273.109 4.056 276.909 6.112 281.769 6.112C286.629 6.112 290.429 4.056 290.429 1.432Z" fill="#FCD592" fill-opacity="0.4"/>
<path d="M490.6 1.432C490.603 0.936746 490.466 0.447404 490.2 0H473.69C473.417 0.445438 473.276 0.93569 473.28 1.432C473.28 4.056 477.08 6.112 481.94 6.112C486.8 6.112 490.6 4.056 490.6 1.432Z" fill="#FCD592" fill-opacity="0.4"/>
<path d="M754.24 1.432C754.24 0.936922 754.104 0.447929 753.84 0H737.33C737.056 0.445438 736.916 0.93569 736.92 1.432C736.92 4.056 740.72 6.112 745.58 6.112C750.44 6.112 754.24 4.056 754.24 1.432Z" fill="#FCD592" fill-opacity="0.4"/>
<path d="M1240.88 0H1223.56C1223.56 2.624 1227.36 4.68 1232.22 4.68C1237.08 4.68 1240.88 2.624 1240.88 0Z" fill="#FCD592" fill-opacity="0.4"/>
<path d="M1472 1.432C1472 0.936922 1471.86 0.447929 1471.6 0H1455.09C1454.82 0.446113 1454.68 0.935913 1454.68 1.432C1454.68 4.056 1458.48 6.112 1463.34 6.112C1468.2 6.112 1472 4.056 1472 1.432Z" fill="#FCD592" fill-opacity="0.4"/>
<path d="M1674.73 1.432C1674.73 0.936746 1674.6 0.447404 1674.33 0H1657.82C1657.55 0.445438 1657.41 0.93569 1657.41 1.432C1657.41 4.056 1661.21 6.112 1666.07 6.112C1670.93 6.112 1674.73 4.056 1674.73 1.432Z" fill="#FCD592" fill-opacity="0.4"/>
<path d="M1854.47 1.944C1854.46 1.25009 1854.2 0.5735 1853.71 0H1837.92C1837.42 0.57062 1837.15 1.24855 1837.15 1.944C1837.15 4.568 1840.95 6.624 1845.81 6.624C1850.67 6.624 1854.47 4.568 1854.47 1.944Z" fill="#FCD592" fill-opacity="0.4"/>
<path d="M940.719 1.432C940.722 0.936746 940.585 0.447404 940.319 0H923.809C923.536 0.445438 923.395 0.93569 923.399 1.432C923.399 4.056 927.199 6.112 932.059 6.112C936.919 6.112 940.719 4.056 940.719 1.432Z" fill="#FCD592" fill-opacity="0.4"/>
<path d="M1826.09 7.25616C1828.2 7.25616 1829.92 6.38581 1829.92 5.31216C1829.92 4.23852 1828.2 3.36816 1826.09 3.36816C1823.97 3.36816 1822.26 4.23852 1822.26 5.31216C1822.26 6.38581 1823.97 7.25616 1826.09 7.25616Z" fill="#B5503C"/>
<path d="M1901.51 5.82355C1903.63 5.82355 1905.34 4.95319 1905.34 3.87955C1905.34 2.80591 1903.63 1.93555 1901.51 1.93555C1899.4 1.93555 1897.68 2.80591 1897.68 3.87955C1897.68 4.95319 1899.4 5.82355 1901.51 5.82355Z" fill="#B5503C"/>
<path d="M1853.47 1.944C1853.45 1.21835 1853.1 0.524054 1852.47 0H1839.21C1838.58 0.524054 1838.23 1.21835 1838.21 1.944C1838.21 4.08 1841.64 5.824 1845.87 5.824C1850.1 5.824 1853.47 4.08 1853.47 1.944Z" fill="#B5503C"/>
<path d="M1685.13 5.82355C1687.25 5.82355 1688.96 4.95319 1688.96 3.87955C1688.96 2.80591 1687.25 1.93555 1685.13 1.93555C1683.02 1.93555 1681.3 2.80591 1681.3 3.87955C1681.3 4.95319 1683.02 5.82355 1685.13 5.82355Z" fill="#B5503C"/>
<path d="M1673.73 1.432C1673.72 0.923342 1673.54 0.426662 1673.19 0H1659C1658.65 0.426662 1658.47 0.923342 1658.46 1.432C1658.46 3.576 1661.89 5.312 1666.12 5.312C1670.35 5.312 1673.73 3.576 1673.73 1.432Z" fill="#B5503C"/>
<path d="M1439.13 7.25616C1441.25 7.25616 1442.96 6.38581 1442.96 5.31216C1442.96 4.23852 1441.25 3.36816 1439.13 3.36816C1437.02 3.36816 1435.3 4.23852 1435.3 5.31216C1435.3 6.38581 1437.02 7.25616 1439.13 7.25616Z" fill="#B5503C"/>
<path d="M1471 1.432C1470.99 0.923342 1470.81 0.426662 1470.46 0H1456.22C1455.87 0.426662 1455.69 0.923342 1455.68 1.432C1455.68 3.576 1459.11 5.312 1463.34 5.312C1467.57 5.312 1471 3.576 1471 1.432Z" fill="#B5503C"/>
<path d="M1288.49 7.25616C1290.61 7.25616 1292.32 6.38581 1292.32 5.31216C1292.32 4.23852 1290.61 3.36816 1288.49 3.36816C1286.37 3.36816 1284.66 4.23852 1284.66 5.31216C1284.66 6.38581 1286.37 7.25616 1288.49 7.25616Z" fill="#B5503C"/>
<path d="M1239.88 0H1224.56C1224.56 2.144 1227.99 3.88 1232.22 3.88C1236.45 3.88 1239.88 2.144 1239.88 0Z" fill="#B5503C"/>
<path d="M1107.72 5.31183C1109.84 5.31183 1111.55 4.44147 1111.55 3.36783C1111.55 2.29419 1109.84 1.42383 1107.72 1.42383C1105.61 1.42383 1103.89 2.29419 1103.89 3.36783C1103.89 4.44147 1105.61 5.31183 1107.72 5.31183Z" fill="#B5503C"/>
<path d="M960 5.31183C962.115 5.31183 963.83 4.44147 963.83 3.36783C963.83 2.29419 962.115 1.42383 960 1.42383C957.885 1.42383 956.17 2.29419 956.17 3.36783C956.17 4.44147 957.885 5.31183 960 5.31183Z" fill="#B5503C"/>
<path d="M725 5.31183C727.115 5.31183 728.83 4.44147 728.83 3.36783C728.83 2.29419 727.115 1.42383 725 1.42383C722.885 1.42383 721.17 2.29419 721.17 3.36783C721.17 4.44147 722.885 5.31183 725 5.31183Z" fill="#B5503C"/>
<path d="M518.45 7.25616C520.565 7.25616 522.28 6.38581 522.28 5.31216C522.28 4.23852 520.565 3.36816 518.45 3.36816C516.335 3.36816 514.62 4.23852 514.62 5.31216C514.62 6.38581 516.335 7.25616 518.45 7.25616Z" fill="#B5503C"/>
<path d="M46.5703 7.57617C48.5033 7.57617 50.0703 6.68074 50.0703 5.57617C50.0703 4.4716 48.5033 3.57617 46.5703 3.57617C44.6373 3.57617 43.0703 4.4716 43.0703 5.57617C43.0703 6.68074 44.6373 7.57617 46.5703 7.57617Z" fill="#B5503C"/>
<path d="M115.04 7.94366C117.155 7.94366 118.87 7.07331 118.87 5.99966C118.87 4.92602 117.155 4.05566 115.04 4.05566C112.925 4.05566 111.21 4.92602 111.21 5.99966C111.21 7.07331 112.925 7.94366 115.04 7.94366Z" fill="#B5503C"/>
<path d="M261.09 1.94434C258.97 1.94434 257.26 2.80833 257.26 3.88033C257.26 4.95233 258.97 5.82433 261.09 5.82433C263.21 5.82433 264.91 4.95233 264.91 3.88033C264.91 2.80833 263.2 1.94434 261.09 1.94434Z" fill="#B5503C"/>
<path d="M187.3 3.88C191.53 3.88 194.96 2.144 194.96 0H179.64C179.64 2.144 183.07 3.88 187.3 3.88Z" fill="#B5503C"/>
<path d="M288.889 0H274.649C274.303 0.426662 274.116 0.923342 274.109 1.432C274.109 3.576 277.539 5.312 281.769 5.312C285.999 5.312 289.429 3.576 289.429 1.432C289.423 0.923342 289.236 0.426662 288.889 0Z" fill="#B5503C"/>
<path d="M489.6 1.432C489.594 0.923342 489.407 0.426662 489.06 0H474.82C474.474 0.426662 474.287 0.923342 474.28 1.432C474.28 3.576 477.71 5.312 481.94 5.312C486.17 5.312 489.6 3.576 489.6 1.432Z" fill="#B5503C"/>
<path d="M753.24 1.432C753.233 0.923342 753.046 0.426662 752.7 0H738.46C738.114 0.426662 737.926 0.923342 737.92 1.432C737.92 3.576 741.35 5.312 745.58 5.312C749.81 5.312 753.24 3.576 753.24 1.432Z" fill="#B5503C"/>
<path d="M939.719 1.432C939.713 0.923342 939.526 0.426662 939.179 0H924.939C924.593 0.426662 924.406 0.923342 924.399 1.432C924.399 3.576 927.829 5.312 932.059 5.312C936.289 5.312 939.719 3.576 939.719 1.432Z" fill="#B5503C"/>
<defs>
<filter id="filter0_i_1_11783" x="0" y="0" width="1920" height="16" filterUnits="userSpaceOnUse" color-interpolation-filters="sRGB">
<feFlood flood-opacity="0" result="BackgroundImageFix"/>
<feBlend mode="normal" in="SourceGraphic" in2="BackgroundImageFix" result="shape"/>
<feColorMatrix in="SourceAlpha" type="matrix" values="0 0 0 0 0 0 0 0 0 0 0 0 0 0 0 0 0 0 127 0" result="hardAlpha"/>
<feOffset dy="4"/>
<feGaussianBlur stdDeviation="2"/>
<feComposite in2="hardAlpha" operator="arithmetic" k2="-1" k3="1"/>
<feColorMatrix type="matrix" values="0 0 0 0 1 0 0 0 0 1 0 0 0 0 1 0 0 0 0.08 0"/>
<feBlend mode="normal" in2="shape" result="effect1_innerShadow_1_11783"/>
</filter>
</defs>
</svg>
