<svg width="1920" height="118" viewBox="0 0 1920 118" fill="none" xmlns="http://www.w3.org/2000/svg">
<path d="M1920 0H0V118H1920V0Z" fill="#734039"/>
<path d="M69.3022 55.8163C69.3658 56.1663 69.3184 56.5272 69.1663 56.8498C69.0143 57.1724 68.7649 57.4412 68.4522 57.6194C68.1395 57.7977 67.7787 57.877 67.4186 57.8463C67.0586 57.8157 66.7168 57.6767 66.4398 57.4483C66.1629 57.2198 65.9641 56.913 65.8705 56.5695C65.777 56.226 65.7932 55.8625 65.9169 55.5283C66.0407 55.1942 66.266 54.9057 66.5622 54.702C66.8584 54.4983 67.2112 54.3892 67.5726 54.3897C67.9934 54.3569 68.4105 54.4879 68.734 54.7548C69.0575 55.0216 69.2616 55.4028 69.3022 55.8163Z" fill="#402121"/>
<path d="M84.5983 46.9515C84.7008 47.5259 84.6214 48.1175 84.3707 48.646C84.12 49.1745 83.7101 49.6144 83.1968 49.9059C82.6834 50.1975 82.0914 50.3266 81.5009 50.2758C80.9105 50.225 80.3502 49.9967 79.896 49.6219C79.4419 49.2472 79.1158 48.744 78.9621 48.1807C78.8084 47.6174 78.8345 47.0212 79.0368 46.473C79.2391 45.9247 79.6078 45.451 80.093 45.116C80.5781 44.781 81.1563 44.6009 81.749 44.6002C82.4425 44.5454 83.1302 44.7613 83.6633 45.2013C84.1964 45.6412 84.5323 46.2699 84.5983 46.9515Z" fill="#402121"/>
<path d="M69.3022 55.8163C69.3658 56.1663 69.3184 56.5272 69.1663 56.8498C69.0143 57.1724 68.7649 57.4412 68.4522 57.6194C68.1395 57.7977 67.7787 57.877 67.4186 57.8463C67.0586 57.8157 66.7168 57.6767 66.4398 57.4483C66.1629 57.2198 65.9641 56.913 65.8705 56.5695C65.777 56.226 65.7932 55.8625 65.9169 55.5283C66.0407 55.1942 66.266 54.9057 66.5622 54.702C66.8584 54.4983 67.2112 54.3892 67.5726 54.3897C67.9934 54.3569 68.4105 54.4879 68.734 54.7548C69.0575 55.0216 69.2616 55.4028 69.3022 55.8163Z" fill="#734039"/>
<path d="M84.5983 46.9515C84.7008 47.5259 84.6214 48.1175 84.3707 48.646C84.12 49.1745 83.7101 49.6144 83.1968 49.9059C82.6834 50.1975 82.0914 50.3266 81.5009 50.2758C80.9105 50.225 80.3502 49.9967 79.896 49.6219C79.4419 49.2472 79.1158 48.744 78.9621 48.1807C78.8084 47.6174 78.8345 47.0212 79.0368 46.473C79.2391 45.9247 79.6078 45.451 80.093 45.116C80.5781 44.781 81.1563 44.6009 81.749 44.6002C82.4425 44.5454 83.1302 44.7613 83.6633 45.2013C84.1964 45.6412 84.5323 46.2699 84.5983 46.9515Z" fill="#734039"/>
<path d="M1793.73 78.1204C1794.34 77.6103 1794.33 76.6162 1793.72 75.8999C1793.1 75.1837 1792.1 75.0166 1791.49 75.5267C1790.88 76.0367 1790.89 77.0308 1791.51 77.7471C1792.12 78.4633 1793.12 78.6305 1793.73 78.1204Z" fill="#AD6156"/>
<path d="M1810.51 83.8449C1811.51 83.0077 1811.5 81.3725 1810.48 80.1925C1809.46 79.0126 1807.82 78.7348 1806.82 79.572C1805.82 80.4092 1805.83 82.0444 1806.85 83.2244C1807.87 84.4043 1809.51 84.6821 1810.51 83.8449Z" fill="#AD6156"/>
<path d="M67.572 54.3897C67.297 54.4384 67.0418 54.5631 66.8363 54.7494C66.6307 54.9357 66.4835 55.1758 66.4117 55.4415C66.3399 55.7072 66.3465 55.9876 66.4309 56.2497C66.5152 56.5119 66.6738 56.7449 66.8879 56.9215C67.1021 57.0981 67.3629 57.211 67.6399 57.247C67.917 57.2829 68.1986 57.2403 68.452 57.1243C68.7053 57.0083 68.9198 56.8237 69.0703 56.592C69.2207 56.3603 69.301 56.0912 69.3016 55.8163C69.261 55.4028 69.0569 55.0216 68.7334 54.7548C68.4099 54.4879 67.9928 54.3569 67.572 54.3897Z" fill="#59332F"/>
<path d="M81.7483 44.6002C81.2958 44.6805 80.876 44.8861 80.5381 45.1929C80.2001 45.4996 79.9579 45.8947 79.8399 46.332C79.7218 46.7692 79.7329 47.2305 79.8717 47.6619C80.0105 48.0932 80.2713 48.4767 80.6236 48.7674C80.9759 49.0581 81.405 49.244 81.8608 49.3033C82.3166 49.3627 82.7801 49.293 83.1971 49.1025C83.6141 48.9119 83.9673 48.6084 84.2154 48.2275C84.4634 47.8465 84.596 47.4039 84.5976 46.9515C84.5316 46.2699 84.1957 45.6412 83.6626 45.2013C83.1294 44.7613 82.4418 44.5454 81.7483 44.6002Z" fill="#59332F"/>
<path d="M163.469 32.6001C165.9 31.7548 167.199 29.1965 166.369 26.886C165.539 24.5755 162.896 23.3877 160.465 24.233C158.033 25.0784 156.735 27.6367 157.565 29.9472C158.394 32.2577 161.038 33.4454 163.469 32.6001Z" fill="#59332F"/>
<path d="M504.548 24.3491C506.979 23.5038 508.278 20.9455 507.448 18.635C506.618 16.3245 503.975 15.1367 501.544 15.9821C499.113 16.8274 497.814 19.3857 498.644 21.6962C499.473 24.0067 502.117 25.1945 504.548 24.3491Z" fill="#59332F"/>
<path d="M880.153 32.6216C882.585 31.7763 883.883 29.2179 883.054 26.9074C882.224 24.5969 879.58 23.4092 877.149 24.2545C874.718 25.0999 873.42 27.6582 874.249 29.9687C875.079 32.2792 877.722 33.4669 880.153 32.6216Z" fill="#59332F"/>
<path d="M1061.61 105.876C1064.04 105.031 1065.34 102.473 1064.51 100.162C1063.68 97.8518 1061.04 96.6641 1058.61 97.5094C1056.18 98.3547 1054.88 100.913 1055.71 103.224C1056.54 105.534 1059.18 106.722 1061.61 105.876Z" fill="#59332F"/>
<path d="M1728.42 53.6808C1730.18 53.0707 1731.11 51.2265 1730.52 49.5615C1729.92 47.8965 1728.01 47.0413 1726.26 47.6513C1724.5 48.2613 1723.56 50.1056 1724.16 51.7706C1724.76 53.4356 1726.67 54.2908 1728.42 53.6808Z" fill="#59332F"/>
<path d="M1600.63 94.5343C1602.38 93.9243 1603.32 92.08 1602.72 90.415C1602.12 88.75 1600.22 87.8948 1598.46 88.5048C1596.71 89.1149 1595.77 90.9591 1596.37 92.6241C1596.97 94.2891 1598.87 95.1443 1600.63 94.5343Z" fill="#59332F"/>
<path d="M1384.69 9.13392C1386.44 8.5239 1387.38 6.67964 1386.78 5.01465C1386.18 3.34966 1384.27 2.49443 1382.52 3.10445C1380.77 3.71447 1379.83 5.55873 1380.43 7.22372C1381.02 8.88871 1382.93 9.74394 1384.69 9.13392Z" fill="#59332F"/>
<path d="M1877.82 82.8458C1879.58 82.2358 1880.52 80.3916 1879.92 78.7266C1879.32 77.0616 1877.41 76.2063 1875.66 76.8164C1873.9 77.4264 1872.97 79.2706 1873.56 80.9356C1874.16 82.6006 1876.07 83.4559 1877.82 82.8458Z" fill="#59332F"/>
<path d="M1421.94 112.896C1423.7 112.286 1424.63 110.441 1424.04 108.776C1423.44 107.111 1421.53 106.256 1419.78 106.866C1418.02 107.476 1417.08 109.32 1417.68 110.985C1418.28 112.65 1420.19 113.506 1421.94 112.896Z" fill="#59332F"/>
<path d="M29.297 92.9224C31.7283 92.077 33.0267 89.5187 32.197 87.2082C31.3674 84.8977 28.724 83.71 26.2928 84.5553C23.8615 85.4007 22.5632 87.959 23.3928 90.2695C24.2224 92.58 26.8658 93.7677 29.297 92.9224Z" fill="#59332F"/>
<path d="M146.938 26.5567C147.75 26.2743 148.184 25.4183 147.906 24.6447C147.628 23.8711 146.745 23.4729 145.932 23.7553C145.12 24.0377 144.687 24.8937 144.965 25.6673C145.243 26.4409 146.126 26.8391 146.938 26.5567Z" fill="#59332F"/>
<path d="M15.4764 21.5459C16.2885 21.2636 16.7217 20.4075 16.444 19.634C16.1662 18.8604 15.2827 18.4622 14.4705 18.7446C13.6584 19.0269 13.2252 19.883 13.5029 20.6566C13.7807 21.4301 14.6642 21.8283 15.4764 21.5459Z" fill="#59332F"/>
<path d="M1095.2 77.9414C1096.02 77.6591 1096.45 76.803 1096.17 76.0295C1095.89 75.2559 1095.01 74.8577 1094.2 75.14C1093.38 75.4224 1092.95 76.2785 1093.23 77.0521C1093.51 77.8256 1094.39 78.2238 1095.2 77.9414Z" fill="#59332F"/>
<path d="M490.207 96.8155C491.019 96.5331 491.452 95.6771 491.174 94.9035C490.897 94.1299 490.013 93.7317 489.201 94.0141C488.389 94.2965 487.956 95.1525 488.233 95.9261C488.511 96.6997 489.395 97.0979 490.207 96.8155Z" fill="#59332F"/>
<path d="M1186.59 29.8526C1187.4 29.5702 1187.84 28.7142 1187.56 27.9406C1187.28 27.167 1186.4 26.7688 1185.59 27.0512C1184.77 27.3336 1184.34 28.1896 1184.62 28.9632C1184.9 29.7368 1185.78 30.135 1186.59 29.8526Z" fill="#59332F"/>
<path d="M985.208 29.9846C986.017 29.7049 986.451 28.853 986.175 28.0817C985.9 27.3105 985.021 26.9121 984.211 27.1918C983.401 27.4715 982.968 28.3234 983.243 29.0947C983.518 29.8659 984.398 30.2643 985.208 29.9846Z" fill="#59332F"/>
<path d="M1741.13 43.8614C1741.94 43.579 1742.38 42.723 1742.1 41.9494C1741.82 41.1758 1740.94 40.7776 1740.12 41.06C1739.31 41.3424 1738.88 42.1984 1739.16 42.972C1739.43 43.7456 1740.32 44.1438 1741.13 43.8614Z" fill="#59332F"/>
<path d="M1275.48 26.4268C1276.29 26.1444 1276.73 25.2884 1276.45 24.5148C1276.17 23.7412 1275.29 23.3431 1274.48 23.6254C1273.66 23.9078 1273.23 24.7638 1273.51 25.5374C1273.79 26.311 1274.67 26.7092 1275.48 26.4268Z" fill="#59332F"/>
<path d="M1869.31 16.3018C1870.12 16.0194 1870.56 15.1634 1870.28 14.3898C1870 13.6162 1869.12 13.218 1868.31 13.5004C1867.49 13.7828 1867.06 14.6388 1867.34 15.4124C1867.62 16.186 1868.5 16.5842 1869.31 16.3018Z" fill="#59332F"/>
<path d="M1587.52 80.3806C1588.6 80.0059 1589.17 78.8716 1588.81 77.8469C1588.44 76.8223 1587.27 76.2955 1586.19 76.6702C1585.11 77.0449 1584.54 78.1792 1584.9 79.2039C1585.27 80.2285 1586.44 80.7553 1587.52 80.3806Z" fill="#59332F"/>
<path d="M1798 23.2957C1799.08 22.921 1799.65 21.7866 1799.29 20.762C1798.92 19.7374 1797.75 19.2105 1796.67 19.5852C1795.59 19.9599 1795.02 21.0943 1795.38 22.1189C1795.75 23.1435 1796.92 23.6704 1798 23.2957Z" fill="#59332F"/>
<path d="M311.799 27.0909C312.611 26.8085 313.044 25.9525 312.766 25.1789C312.488 24.4053 311.605 24.0071 310.793 24.2895C309.981 24.5719 309.547 25.4279 309.825 26.2015C310.103 26.9751 310.987 27.3732 311.799 27.0909Z" fill="#59332F"/>
<path d="M232.598 87.6231C233.411 87.3407 233.844 86.4847 233.566 85.7111C233.288 84.9375 232.405 84.5393 231.593 84.8217C230.78 85.1041 230.347 85.9601 230.625 86.7337C230.903 87.5073 231.786 87.9055 232.598 87.6231Z" fill="#59332F"/>
<path d="M128.049 79.877C128.861 79.5946 129.294 78.7386 129.016 77.965C128.738 77.1914 127.855 76.7932 127.043 77.0756C126.231 77.358 125.797 78.214 126.075 78.9876C126.353 79.7612 127.237 80.1594 128.049 79.877Z" fill="#59332F"/>
<path d="M776.795 23.8001C777.605 23.5203 778.038 22.6684 777.763 21.8972C777.488 21.1259 776.609 20.7275 775.799 21.0072C774.989 21.2869 774.556 22.1389 774.831 22.9101C775.106 23.6813 775.986 24.0798 776.795 23.8001Z" fill="#59332F"/>
<path d="M860.268 21.5684C861.081 21.286 861.514 20.43 861.236 19.6564C860.958 18.8828 860.075 18.4846 859.263 18.767C858.45 19.0494 858.017 19.9054 858.295 20.679C858.573 21.4526 859.456 21.8508 860.268 21.5684Z" fill="#59332F"/>
<path d="M69.3022 55.8163C69.3658 56.1663 69.3184 56.5272 69.1663 56.8498C69.0143 57.1724 68.7649 57.4412 68.4522 57.6194C68.1395 57.7977 67.7787 57.877 67.4186 57.8463C67.0586 57.8157 66.7168 57.6767 66.4398 57.4483C66.1629 57.2198 65.9641 56.913 65.8705 56.5695C65.777 56.226 65.7932 55.8625 65.9169 55.5283C66.0407 55.1942 66.266 54.9057 66.5622 54.702C66.8584 54.4983 67.2112 54.3892 67.5726 54.3897C67.9934 54.3569 68.4105 54.4879 68.734 54.7548C69.0575 55.0216 69.2616 55.4028 69.3022 55.8163Z" fill="#AD6156"/>
<path d="M1081.12 40.1548C1082.08 40.1548 1082.85 39.5161 1082.85 38.7283C1082.85 37.9404 1082.08 37.3018 1081.12 37.3018C1080.17 37.3018 1079.39 37.9404 1079.39 38.7283C1079.39 39.5161 1080.17 40.1548 1081.12 40.1548Z" fill="#AD6156"/>
<path d="M489.699 70.2407C490.655 70.2407 491.429 69.6021 491.429 68.8142C491.429 68.0264 490.655 67.3877 489.699 67.3877C488.744 67.3877 487.97 68.0264 487.97 68.8142C487.97 69.6021 488.744 70.2407 489.699 70.2407Z" fill="#AD6156"/>
<path d="M84.5983 46.9515C84.7008 47.5259 84.6214 48.1175 84.3707 48.646C84.12 49.1745 83.7101 49.6144 83.1968 49.9059C82.6834 50.1975 82.0914 50.3266 81.5009 50.2758C80.9105 50.225 80.3502 49.9967 79.896 49.6219C79.4419 49.2472 79.1158 48.744 78.9621 48.1807C78.8084 47.6174 78.8345 47.0212 79.0368 46.473C79.2391 45.9247 79.6078 45.451 80.093 45.116C80.5781 44.781 81.1563 44.6009 81.749 44.6002C82.4425 44.5454 83.1302 44.7613 83.6633 45.2013C84.1964 45.6412 84.5323 46.2699 84.5983 46.9515Z" fill="#AD6156"/>
<path d="M1645.29 50.9273C1646.24 50.9273 1647.02 50.2886 1647.02 49.5008C1647.02 48.7129 1646.24 48.0742 1645.29 48.0742C1644.33 48.0742 1643.56 48.7129 1643.56 49.5008C1643.56 50.2886 1644.33 50.9273 1645.29 50.9273Z" fill="#AD6156"/>
<path d="M1659.46 42.9681C1661.04 42.9681 1662.31 41.9198 1662.31 40.6266C1662.31 39.3335 1661.04 38.2852 1659.46 38.2852C1657.89 38.2852 1656.61 39.3335 1656.61 40.6266C1656.61 41.9198 1657.89 42.9681 1659.46 42.9681Z" fill="#AD6156"/>
<path d="M69.3022 55.8163C69.3658 56.1663 69.3184 56.5272 69.1663 56.8498C69.0143 57.1724 68.7649 57.4412 68.4522 57.6194C68.1395 57.7977 67.7787 57.877 67.4186 57.8463C67.0586 57.8157 66.7168 57.6767 66.4398 57.4483C66.1629 57.2198 65.9641 56.913 65.8705 56.5695C65.777 56.226 65.7932 55.8625 65.9169 55.5283C66.0407 55.1942 66.266 54.9057 66.5622 54.702C66.8584 54.4983 67.2112 54.3892 67.5726 54.3897C67.9934 54.3569 68.4105 54.4879 68.734 54.7548C69.0575 55.0216 69.2616 55.4028 69.3022 55.8163Z" fill="#C25D38"/>
<path d="M84.5983 46.9515C84.7008 47.5259 84.6214 48.1175 84.3707 48.646C84.12 49.1745 83.7101 49.6144 83.1968 49.9059C82.6834 50.1975 82.0914 50.3266 81.5009 50.2758C80.9105 50.225 80.3502 49.9967 79.896 49.6219C79.4419 49.2472 79.1158 48.744 78.9621 48.1807C78.8084 47.6174 78.8345 47.0212 79.0368 46.473C79.2391 45.9247 79.6078 45.451 80.093 45.116C80.5781 44.781 81.1563 44.6009 81.749 44.6002C82.4425 44.5454 83.1302 44.7613 83.6633 45.2013C84.1964 45.6412 84.5323 46.2699 84.5983 46.9515Z" fill="#C25D38"/>
</svg>
