<svg width="40" height="40" viewBox="0 0 40 40" fill="none" xmlns="http://www.w3.org/2000/svg">
<path d="M10.5409 5.23053H30.9222C32.7948 5.23053 34.5907 5.94086 35.9148 7.20525C37.239 8.46964 37.9829 10.1845 37.9829 11.9726V31.2358C37.9829 33.0239 37.239 34.7388 35.9148 36.0032C34.5907 37.2676 32.7948 37.9779 30.9222 37.9779H10.5409C8.27943 37.9754 6.11152 37.1158 4.51338 35.588C2.91524 34.0601 2.01758 31.989 2.01758 29.8296V13.3692C2.01758 12.3004 2.23804 11.2421 2.66638 10.2547C3.09471 9.26725 3.72253 8.37004 4.51399 7.6143C5.30545 6.85855 6.24506 6.25906 7.27915 5.85005C8.31325 5.44104 9.42158 5.23053 10.5409 5.23053Z" fill="#B86041"/>
<path d="M30.9219 1.92638C34.8356 1.92638 37.9827 5.23965 37.9827 9.32344V30.6093C37.9827 34.7027 34.8053 38.016 30.9219 38.016H10.5406C5.83014 38.016 2.01735 34.0188 2.01735 29.1067V10.8645C2.01735 5.96201 5.83014 1.9649 10.5406 1.9649H30.9219M30.9219 0.0385846H10.5406C4.73068 0.0385846 0 4.85438 0 10.8645V29.1645C0 35.1361 4.73068 40.0001 10.5406 40.0001H30.9219C35.9653 40.0001 40 35.8103 40 30.667V9.32344C40 4.18017 35.9149 6.10352e-05 30.9219 6.10352e-05V0.0385846Z" fill="#3D221F"/>
<path d="M10.5408 1.9259H30.9221C32.8234 1.96136 34.6328 2.71343 35.9556 4.01803C37.2784 5.32262 38.0071 7.07383 37.9828 8.88954V28.7114C38.0098 30.5287 37.2823 32.2824 35.9592 33.5891C34.6361 34.8958 32.8251 35.6492 30.9221 35.6846H10.5408C8.24624 35.6491 6.06018 34.7459 4.46226 33.1732C2.86435 31.6004 1.9851 29.4866 2.01746 27.2955V10.3054C1.98512 8.11524 2.86468 6.00243 4.46288 4.4312C6.06108 2.85997 8.24715 1.95887 10.5408 1.9259Z" fill="#FFBE33"/>
<path d="M4.22656 16.8944V25.7169C4.22656 30.7446 7.25258 33.2392 12.77 33.2392H28.118C33.7061 33.2392 35.3906 30.3497 35.3906 25.2642V16.8944H4.22656Z" fill="#F08F2D"/>
<g filter="url(#filter0_d_1_7964)">
<path d="M21.3631 12.6993V16.6139H25.301C25.5806 16.6139 25.7825 16.8391 25.9068 17.2896C25.9689 17.5226 26 17.7478 26 17.9653C26 18.1828 25.9689 18.408 25.9068 18.641C25.7825 19.0915 25.5806 19.3168 25.301 19.3168H21.3631V23.3012C21.3631 23.5808 21.1379 23.7828 20.6874 23.9071C20.4699 23.9692 20.2447 24.0003 20.0117 24.0003L19.3359 23.9071C18.8854 23.7828 18.6602 23.5808 18.6602 23.3012V19.3168H14.699C14.4194 19.3168 14.2175 19.0915 14.0932 18.641C14.0311 18.408 14 18.1828 14 17.9653C14 17.7478 14.0311 17.5226 14.0932 17.2896C14.2175 16.8391 14.4194 16.6139 14.699 16.6139H18.6602V12.6993C18.6602 12.4197 18.8854 12.2177 19.3359 12.0935C19.5534 12.0313 19.7786 12.0003 20.0117 12.0003L20.6874 12.0935C21.1379 12.2177 21.3631 12.4197 21.3631 12.6993Z" fill="white"/>
<path d="M20.0322 11.7005L20.0527 11.7034L20.7285 11.7962L20.748 11.7991L20.7676 11.804C21.0153 11.8723 21.2337 11.9704 21.3945 12.1145C21.5648 12.2672 21.6631 12.4669 21.6631 12.6995V16.3137H25.3008C25.5334 16.3137 25.7331 16.412 25.8857 16.5823C25.9939 16.7029 26.0756 16.8561 26.1387 17.0296L26.1963 17.2102V17.2122L26.2412 17.4036C26.2798 17.5934 26.2998 17.7806 26.2998 17.9651C26.2998 18.2113 26.2644 18.4626 26.1963 18.718V18.721C26.1279 18.9687 26.0299 19.1871 25.8857 19.3479C25.7331 19.5182 25.5334 19.6165 25.3008 19.6165H21.6631V23.301C21.6631 23.5336 21.5648 23.7334 21.3945 23.886C21.2337 24.0302 21.0153 24.1282 20.7676 24.1965L20.7666 24.1956C20.5225 24.265 20.2707 24.3001 20.0117 24.3001H19.9912L19.9707 24.2971L19.2949 24.2044L19.2754 24.2014L19.2559 24.1965C19.0081 24.1282 18.7897 24.0301 18.6289 23.886C18.4587 23.7334 18.3604 23.5336 18.3604 23.301V19.6165H14.6992C14.4666 19.6165 14.2669 19.5182 14.1143 19.3479C13.9701 19.1871 13.8721 18.9687 13.8037 18.721V18.718C13.7356 18.4626 13.7002 18.2113 13.7002 17.9651C13.7002 17.7189 13.7356 17.4676 13.8037 17.2122V17.2102L13.8613 17.0296C13.9244 16.8561 14.0061 16.7029 14.1143 16.5823C14.2669 16.412 14.4666 16.3137 14.6992 16.3137H18.3604V12.6995C18.3604 12.4669 18.4587 12.2672 18.6289 12.1145C18.7897 11.9704 19.0081 11.8723 19.2559 11.804V11.8049C19.5003 11.7353 19.7525 11.7005 20.0117 11.7005H20.0322Z" stroke="#B35E40" stroke-width="0.6"/>
</g>
<defs>
<filter id="filter0_d_1_7964" x="13.4" y="11.4003" width="13.2" height="14.4" filterUnits="userSpaceOnUse" color-interpolation-filters="sRGB">
<feFlood flood-opacity="0" result="BackgroundImageFix"/>
<feColorMatrix in="SourceAlpha" type="matrix" values="0 0 0 0 0 0 0 0 0 0 0 0 0 0 0 0 0 0 127 0" result="hardAlpha"/>
<feOffset dy="1.2"/>
<feComposite in2="hardAlpha" operator="out"/>
<feColorMatrix type="matrix" values="0 0 0 0 0.701961 0 0 0 0 0.368627 0 0 0 0 0.25098 0 0 0 1 0"/>
<feBlend mode="normal" in2="BackgroundImageFix" result="effect1_dropShadow_1_7964"/>
<feBlend mode="normal" in="SourceGraphic" in2="effect1_dropShadow_1_7964" result="shape"/>
</filter>
</defs>
</svg>
